<svg xmlns="http://www.w3.org/2000/svg" viewBox="0 0 1200 630">
  <rect width="1200" height="630" fill="#fff" />
  <path
    d="M569.68,134.84c-28.37,8-55.17,30.52-68.28,56.93-7.63,15.65-12.91,36.39-12.91,50.87,0,28,13.1,58.49,34,79.43,21.71,21.71,47.15,32.08,78.45,32.08,50.28,0,93.32-33.06,107.6-82.95,5.09-17.61,3.33-50.47-3.72-68.86C693.12,171.82,665.54,145.8,635,136,615.85,130,588.26,129.36,569.68,134.84Zm29.93,61.24c3.91,3.91,2.74,13.69-5.48,41.86-4.3,14.87-7,27.78-6.06,28.76,1.37,1.37,7,.78,32.08-3.72,6.07-1,7.24-.78,7.24,2,0,8.61-37.95,16.63-47.93,10.17-2.74-1.76-4.89-4.69-4.89-6.65-.2-2.74,3.52-18.58,16.82-72.38C592.17,193.14,596.48,193,599.61,196.08Z"
    fill="#28646e" />
  <path
    d="M457.77,445.32c-1.37,3.52,2.15,7.63,5.09,5.87,3.32-2.15,2.54-9-.79-9A5.09,5.09,0,0,0,457.77,445.32Zm19,25.43c0,26,.19,28.37,3.52,27.78,2.54-.39,3.52-3.13,4.3-10.36l1-9.79,8.61,10.37c4.69,5.48,9.78,10.18,11.35,10.18,3.71,0,3.32-1.18-5.29-12.33l-7.63-10.17,8-8.42c6.65-6.65,7.43-8.21,4.5-8.21-2.16,0-7.63,3.71-12.13,8.21l-8.42,8.22v-17c0-15.65-.39-17-3.91-17C476.94,442.19,476.75,443.56,476.75,470.75ZM716,445.32c-1.37,3.52,2.16,7.63,5.09,5.87,3.33-2.15,2.54-9-.78-9A5.11,5.11,0,0,0,716,445.32Zm58.11,25.43c0,26,.19,28.37,3.52,27.78,2.93-.58,3.33-3.71,3.91-28.56.39-26.8.39-27.78-3.52-27.78C774.31,442.19,774.12,443.36,774.12,470.75Zm-355.67.2.58,27,15.26.58c12.52.4,15.07,0,15.07-2.54,0-2.35-2.55-2.93-11.74-2.93H425.88V468.6c0-23.28-.19-24.45-3.91-24.45C418.06,444.15,418.06,445.12,418.45,471Zm182.72-22.7c-9.39,7.44-5.87,20.55,6.66,24.26,13.89,3.92,17.6,11.94,8.6,18-4.3,2.74-6.06,2.94-11.34.79-8.61-3.33-9.39-3.33-10.37-.79-1.37,3.92,11.74,9.2,19.56,7.63,7.63-1.37,11.94-5.67,13.89-13.1,1.57-7.05-4.69-14.68-14.67-17.61-9.2-2.94-12.33-6.07-10.57-11.35,1.57-5.09,9.59-7.24,15.85-4.3,4.89,2.15,8.61,1.56,8.61-1.57,0-2.35-9.39-6.06-15.46-6.06C608.8,444.15,604.11,445.91,601.17,448.25Zm-144,31.11c0,18.2.2,19.57,3.92,19.57s3.91-1.37,3.91-19.57-.2-19.56-3.91-19.56S457.18,461.17,457.18,479.36Zm63.39-17.21c-5.28,2.54-8.61,9.58-8.61,18.39,0,5.08,1.57,8.6,5.87,12.91,5.28,5.28,7,5.87,13.89,4.89,8.22-1.18,14.09-4.7,12.33-7.44-.59-1-2.55-1-4.7.2-8.41,4.5-18,1.17-20.54-7.43-1.17-4.11-.78-4.31,12.52-4.31,13.5,0,13.89-.19,13.89-4.89C545.22,463.51,531.53,456.67,520.57,462.15ZM537,468c5.09,5.09,2.55,7.44-7.43,7.44-6.65,0-9.78-.78-9.78-2.54,0-4.11,4.3-7.24,9.78-7.24C532.31,465.67,535.63,466.65,537,468Zm18,11.35c0,16,.59,19.57,2.94,19.57s2.93-2.74,2.93-12.72c0-10.37.78-13.5,4.11-16.83,2.35-2.34,5.67-3.71,7.63-3.13,3.52,1,6.85-2.93,4.5-5.28s-9.19-1.17-12.72,2.15c-3.32,2.94-3.52,2.94-3.52,0a3.11,3.11,0,0,0-2.93-3.32C555.59,459.8,555,463.32,555,479.36Zm88.63-17.61c-5.87,2.35-8.41,8-8.41,18,.19,9,2.34,13.31,9.19,16.83,7.24,3.91,14.28,2.74,20.35-3.33,4.5-4.69,5.67-7.43,5.67-14.28,0-4.7-1.17-9.78-2.54-11.54C662.6,460.38,652.63,458,643.63,461.75Zm18.19,8.81c3.33,5.28,2.74,14.87-1.37,19.95-6.26,7.44-19.37-.19-19.37-11.15C641.08,466.65,655.17,460.58,661.82,470.56ZM683,464.3c-10,8.61-6.06,30.71,6.07,33.84,8.8,2.15,21.32-3.13,17.41-7-1.76-1.76-2.74-1.76-3.52-.2-2.16,3.33-11.94,2.55-15.46-1.37-4.3-4.69-4.3-16.82,0-20.93,2.35-2.35,5.28-3.13,10.76-2.35,8.41,1.18,11.54-1.37,5.67-4.3A19.09,19.09,0,0,0,683,464.3Zm32.48,15.06c0,18.2.19,19.57,3.91,19.57s3.91-1.37,3.91-19.57-.19-19.56-3.91-19.56S715.43,461.17,715.43,479.36Zm23.86-16.43c-5.28,3.52-3.91,7.63,1.57,4.69s13.11-2.34,14.48,1.18c2.35,5.87,1.17,8.61-3.52,8.61-7.63,0-16.63,4.1-17.81,8-3.32,10,5.68,16,17,11.34,4.7-1.95,6.46-1.95,7.05-.19a3.07,3.07,0,0,0,2.54,2.35c1,0,1.76-7.44,1.76-16.24,0-13.5-.59-17-3.52-19.57C754.36,459,745,458.82,739.29,462.93ZM756.51,485c0,5.08-4.69,8.41-11.15,7.63-7-.79-8.41-6.85-2.15-9.2C751,480.34,756.51,480.93,756.51,485Zm-177.44,7.23a5.3,5.3,0,0,0,1,5.09c2.94,2.93,8.42-1.56,6.85-5.48C585.52,488.17,580.63,488.36,579.07,492.27Z" />
</svg>
