<svg id="Layer_1" data-name="Layer 1" xmlns="http://www.w3.org/2000/svg" xmlns:xlink="http://www.w3.org/1999/xlink" viewBox="0 0 1200 630"><defs><mask id="mask" x="397.89" y="471.78" width="34.4" height="46.61" maskUnits="userSpaceOnUse"><g id="mask0"><path d="M397.89,471.78h34.4V518.4h-34.4Z" style="fill:#fff;fill-rule:evenodd"/></g></mask><mask id="mask-2" x="398.05" y="111.06" width="398.82" height="315.95" maskUnits="userSpaceOnUse"><g id="mask1"><path d="M398.05,111.06H796.88V427H398.05Z" style="fill:#fff;fill-rule:evenodd"/></g></mask><mask id="mask-3" x="397.89" y="111.06" width="399.13" height="407.34" maskUnits="userSpaceOnUse"><g id="mask2"><path d="M397.89,518.4H797V111.06H397.89Z" style="fill:#fff;fill-rule:evenodd"/></g></mask></defs><rect width="1200" height="630" style="fill:#fff"/><g style="mask:url(#mask)"><path d="M414.76,518.4c-7.75,0-12.85-1.65-16.87-5.5l6.4-6.38c3.26,2.72,8.4,3,10.54,3,6.24,0,7.55-2.73,7.55-5a4.7,4.7,0,0,0-1.13-3.31,6,6,0,0,0-3.6-1.5l-5.71-.81c-4-.57-7.07-1.9-9.05-4s-3.05-5.12-3.05-9c0-8.63,6.48-14.2,16.52-14.2,6.58,0,11.2,1.52,14.87,4.89L425,482.92c-2.93-2.5-6.54-2.5-8.14-2.5H416c-4.46,0-6.48,2.68-6.48,5.17a3.78,3.78,0,0,0,1.15,2.72,6.08,6.08,0,0,0,3.71,1.62l5.7.8c4,.56,7,1.81,8.88,3.7,2.21,2.17,3.3,5.39,3.3,9.84C432.29,514,423.48,518.4,414.76,518.4Z" style="fill:#231f20;fill-rule:evenodd"/></g><path d="M451,518V481H439.33v-8.85h33.38V481H461.07v37Z" style="fill:#231f20;fill-rule:evenodd"/><path d="M489.49,502.77h10.36l-5-15.87ZM504.62,518,502.43,511H486.74L484.41,518H473.89l16.67-45.82h7.9L515.13,518Z" style="fill:#231f20;fill-rule:evenodd"/><path d="M549.72,518l-16.34-25.67V518H523.27V472.18h9l16.34,25.67V472.18h10.11V518Z" style="fill:#231f20;fill-rule:evenodd"/><path d="M580.21,509.16h5.88c2.88,0,4.86-1,6.23-3,1.09-1.56,1.39-3.11,1.39-11.06s-.3-9.5-1.4-11.07c-1.36-2-3.34-3-6.22-3h-5.88ZM570.1,518V472.18h16.79c5.1,0,9.33,1.53,12.23,4.44,4.79,4.79,4.75,9.94,4.7,16.48v4c0,6.53.09,11.69-4.7,16.49-2.91,2.88-7.13,4.42-12.23,4.42Z" style="fill:#231f20;fill-rule:evenodd"/><path d="M640.5,518l-16.34-25.67V518H614.05V472.18h9l16.36,25.67V472.18h10.1V518Z" style="fill:#231f20;fill-rule:evenodd"/><path d="M661,518V472.18h30.65V481H671.1v9.45h17.55v8.84H671.1v9.84h20.54V518Z" style="fill:#231f20;fill-rule:evenodd"/><path d="M738,518l-8.21-25-8.19,25h-8.31L700.7,472.18h10.56l6.7,27.13,8.3-27.13h7.11l8.29,27.12,6.71-27.12h10.57L746.38,518Z" style="fill:#231f20;fill-rule:evenodd"/><path d="M779.51,518.4c-7.75,0-12.85-1.65-16.87-5.5l6.38-6.38c3.27,2.72,8.4,3,10.55,3,6.24,0,7.55-2.73,7.55-5a4.7,4.7,0,0,0-1.13-3.31,5.94,5.94,0,0,0-3.59-1.5l-5.71-.81c-4-.57-7.07-1.9-9.07-4s-3-5.12-3-9c0-8.63,6.48-14.2,16.52-14.2,6.57,0,11.2,1.52,14.88,4.89l-6.25,6.25c-2.93-2.5-6.55-2.5-8.15-2.5h-.81c-4.46,0-6.48,2.68-6.48,5.17a3.8,3.8,0,0,0,1.16,2.72,6.05,6.05,0,0,0,3.7,1.62l5.7.8c4,.56,7,1.81,8.88,3.7,2.22,2.17,3.3,5.39,3.3,9.84C797,514,788.23,518.4,779.51,518.4Z" style="fill:#231f20;fill-rule:evenodd"/><g style="mask:url(#mask-2)"><path d="M557.5,128.88H415.81V312.93l221.77,96.32H779.13v-184ZM633.73,427,398.05,324.57V111.12l163-.06,235.83,102.5V427Z" style="fill:#231f20;fill-rule:evenodd"/></g><path d="M702.55,328.34h49.53V314.85H671.24v13.49h11.89l-8,16.07L672.47,337l-10.76,3.84v-32h10.43V294.15H661.71V268.33H648v25.82h-11.7v14.69H648v36.82L633.18,351l5,13.92,32.55-11.6-4.91,9.87h14.93l7.88-15.91h7l-16.08,32.38H693l16-32.39H716l-16.07,32.39h13.5l15.77-32,.44-.42H734v17.22c0,3.9-2.7,6.51-6.7,6.51h-3l3.54,14.84c14-.18,20.48-6.13,20.48-18.69V334.72H694.83l3.12-6.38Z" style="fill:#231f20;fill-rule:evenodd"/><g style="mask:url(#mask-3)"><path d="M697.18,299.05h30.43v-6.82H697.18Zm0-16.06h30.43v-6.82H697.18Zm-13.69,26.32H742V265.9H683.49Z" style="fill:#231f20;fill-rule:evenodd"/><path d="M444.07,183.22V167.6h42V150.07h15V167.6h42.84v15.62Z" style="fill:#231f20;fill-rule:evenodd"/><path d="M467.54,240.22l-8.09-48.78h15.33l8.47,48.78Z" style="fill:#231f20;fill-rule:evenodd"/><path d="M440.21,264.58v-16h58.61l15.42-57.34h17l-15.2,57.34h31.38v16Z" style="fill:#231f20;fill-rule:evenodd"/></g></svg>