<svg id="Layer_1" data-name="Layer 1" xmlns="http://www.w3.org/2000/svg" xmlns:xlink="http://www.w3.org/1999/xlink" viewBox="0 0 1200 630"><defs><linearGradient id="linear-gradient" x1="357.91" y1="247.09" x2="849.42" y2="-930.67" gradientTransform="matrix(1, 0, 0, -1, 0, -18)" gradientUnits="userSpaceOnUse"><stop offset="0" stop-color="#ffb10d"/><stop offset="1" stop-color="#f30071"/></linearGradient></defs><rect width="1200" height="630" style="fill:url(#linear-gradient)"/><path d="M765.71,235.48l7.41-4.4s2.64,10,10,17a83.84,83.84,0,0,1-5.82,6.28S768.88,246.16,765.71,235.48Z" style="fill:#fff"/><path d="M756.64,219.44C754.37,240.25,742.46,247,742.46,247s2.83,4.28,5.1,7.34c7.38-4.9,15.89-14.69,18.15-32.44Z" style="fill:#fff"/><path d="M713.38,235.6c2.33,5.81,4.66,11.63,11,18.73,0,0,4.65-5.17,6.4-7.1-4.65-3.88-7.56-9.69-9.89-16.15C719.78,232.37,715.13,235,713.38,235.6Z" style="fill:#fff"/><path d="M695.94,247a56.74,56.74,0,0,0,5.11,7.34c6.24-4.28,15.31-13.47,18.15-32.44-1.7-.61-6.81-2.45-8.51-2.45C709,233.52,702.75,243.31,695.94,247Z" style="fill:#fff"/><path d="M777.34,212c-1.77-6.25-1.77-7.5-3-10-11.2,3.13-45.42,8.75-78.45,7.5,0,0,.59,5.63,1.18,9.38a309.64,309.64,0,0,0,34.21,0v41.27h10V217.63C756.69,216.38,770.27,214.51,777.34,212Z" style="fill:#fff"/><path d="M702.35,202l-.6-29.07h75.59L776.14,202Zm8.4-9.05H724V182h-13.2Zm35.4,0H733V182h13.2Zm9,0h13.2V182h-13.2Z" style="fill:#fff;fill-rule:evenodd"/><path d="M416.84,419.08l14,50.39c5.47-1.85,115.43-39.33,230.24-14.14V401.87a485.65,485.65,0,0,0-86.87-8C494.6,393.88,433.85,412.93,416.84,419.08Z" style="fill:#fff"/><path d="M585.46,263.89c41,116,119.36,189.62,137.72,205.58l36.72-38.05c-4.29-3.68-91.81-81-127.92-194.53C623.41,241.79,585.46,263.89,585.46,263.89Z" style="fill:#fff"/><path d="M457.54,372.31c8.69,5,47.16,27.39,47.16,27.39C585.37,305.08,609.57,198,614.54,174.37L563,161.3C561.79,166.9,538.21,283.3,457.54,372.31Z" style="fill:#fff"/></svg>