<svg style="background-color:white" xmlns="http://www.w3.org/2000/svg" version="1.0" width="1592.000000pt" height="450.000000pt" viewBox="0 0 1592.000000 450.000000" preserveAspectRatio="xMidYMid meet">
<g transform="translate(0.000000,450.000000) scale(0.100000,-0.100000)" fill="#000000" stroke="none">
<path fill="#28646e" d="M7805 3211 c-145 -41 -282 -156 -349 -291 -39 -80 -66 -186 -66 -260 0 -143 67 -299 174 -406 111 -111 241 -164 401 -164 257 0 477 169 550 424 26 90 17 258 -19 352 -60 156 -201 289 -357 339 -98 31 -239 34 -334 6z m153 -313 c20 -20 14 -70 -28 -214 -22 -76 -36 -142 -31 -147 7 -7 36 -4 164 19 31 5 37 4 37 -10 0 -44 -194 -85 -245 -52 -14 9 -25 24 -25 34 -1 14 18 95 86 370 4 15 26 16 42 0z"/>
<path d="M7233 1624 c-7 -18 11 -39 26 -30 17 11 13 46 -4 46 -9 0 -18 -7 -22 -16z"/>
<path d="M7330 1494 c0 -133 1 -145 18 -142 13 2 18 16 22 53 l5 50 44 -53 c24 -28 50 -52 58 -52 19 0 17 6 -27 63 l-39 52 41 43 c34 34 38 42 23 42 -11 0 -39 -19 -62 -42 l-43 -42 0 87 c0 80 -2 87 -20 87 -19 0 -20 -7 -20 -146z"/>
<path d="M8553 1624 c-7 -18 11 -39 26 -30 17 11 13 46 -4 46 -9 0 -18 -7 -22 -16z"/>
<path d="M8850 1494 c0 -133 1 -145 18 -142 15 3 17 19 20 146 2 137 2 142 -18 142 -19 0 -20 -6 -20 -146z"/>
<path d="M7032 1493 l3 -138 78 -3 c64 -2 77 0 77 13 0 12 -13 15 -60 15 l-60 0 0 125 c0 119 -1 125 -20 125 -20 0 -20 -5 -18 -137z"/>
<path d="M7966 1609 c-48 -38 -30 -105 34 -124 71 -20 90 -61 44 -92 -22 -14 -31 -15 -58 -4 -44 17 -48 17 -53 4 -7 -20 60 -47 100 -39 39 7 61 29 71 67 8 36 -24 75 -75 90 -47 15 -63 31 -54 58 8 26 49 37 81 22 25 -11 44 -8 44 8 0 12 -48 31 -79 31 -16 0 -40 -9 -55 -21z"/>
<path d="M7230 1450 c0 -93 1 -100 20 -100 19 0 20 7 20 100 0 93 -1 100 -20 100 -19 0 -20 -7 -20 -100z"/>
<path d="M7554 1538 c-27 -13 -44 -49 -44 -94 0 -26 8 -44 30 -66 27 -27 36 -30 71 -25 42 6 72 24 63 38 -3 5 -13 5 -24 -1 -43 -23 -92 -6 -105 38 -6 21 -4 22 64 22 69 0 71 1 71 25 0 56 -70 91 -126 63z m84 -30 c26 -26 13 -38 -38 -38 -34 0 -50 4 -50 13 0 21 22 37 50 37 14 0 31 -5 38 -12z"/>
<path d="M7730 1450 c0 -82 3 -100 15 -100 12 0 15 14 15 65 0 53 4 69 21 86 12 12 29 19 39 16 18 -5 35 15 23 27 -12 12 -47 6 -65 -11 -17 -15 -18 -15 -18 0 0 10 -7 17 -15 17 -12 0 -15 -18 -15 -100z"/>
<path d="M8183 1540 c-30 -12 -43 -41 -43 -92 1 -46 12 -68 47 -86 37 -20 73 -14 104 17 23 24 29 38 29 73 0 24 -6 50 -13 59 -27 36 -78 48 -124 29z m93 -45 c17 -27 14 -76 -7 -102 -32 -38 -99 1 -99 57 0 65 72 96 106 45z"/>
<path d="M8384 1527 c-51 -44 -31 -157 31 -173 45 -11 109 16 89 36 -9 9 -14 9 -18 1 -11 -17 -61 -13 -79 7 -22 24 -22 86 0 107 12 12 27 16 55 12 43 -6 59 7 29 22 -33 18 -78 13 -107 -12z"/>
<path d="M8550 1450 c0 -93 1 -100 20 -100 19 0 20 7 20 100 0 93 -1 100 -20 100 -19 0 -20 -7 -20 -100z"/>
<path d="M8672 1534 c-27 -18 -20 -39 8 -24 28 15 67 12 74 -6 12 -30 6 -44 -18 -44 -39 0 -85 -21 -91 -41 -17 -51 29 -82 87 -58 24 10 33 10 36 1 2 -7 8 -12 13 -12 5 0 9 38 9 83 0 69 -3 87 -18 100 -23 21 -71 22 -100 1z m88 -113 c0 -26 -24 -43 -57 -39 -36 4 -43 35 -11 47 40 16 68 13 68 -8z"/>
<path d="M7853 1384 c-3 -8 -1 -20 5 -26 15 -15 43 8 35 28 -7 19 -32 18 -40 -2z"/>
</g>
</svg>