<svg id="Layer_1" data-name="Layer 1" xmlns="http://www.w3.org/2000/svg" viewBox="0 0 1200 630"><rect width="1200" height="630" style="fill:#fff"/><path d="M633.53,262.74a17.09,17.09,0,0,1,17.21-17.21A17.52,17.52,0,0,1,668,262.74c0,9.27-7.94,17.87-17.21,17.87C640.81,280.61,633.53,272.67,633.53,262.74ZM606.39,374.62c0,2.64,0,3.31,2,4.63l9.93,9.27v.66h-43V371.31a30.73,30.73,0,0,1-28.46,19.86c-21.85,0-38.4-17.22-38.4-49.65,0-29.79,17.21-50.32,41.71-50.32,10.59-.66,20.52,5.3,25.15,15.89V266.71c0-2-.66-4-2-4.63L564,252.81v-.66l43-5.3V374.62Zm-31.78-5.3v-60.9a16.27,16.27,0,0,0-12.58-6c-10.59,0-20.52,9.27-20.52,37.73,0,26.48,8.61,35.75,19.86,35.75A13.45,13.45,0,0,0,574.61,369.32Zm60.24-61.57v82.09h43v-.66l-9.27-9.27c-2-1.32-2-2-2-4.63V292.53h-43v.66l9.27,9.93C634.19,303.78,634.85,305.77,634.85,307.75Zm149.62,71.5c-2-1.32-2-2-2-4.63V292.53h-43v1.32l9.27,9.93c1.32.66,2,2.65,2,4.64V366c-2.65,4.63-7.94,7.94-13.9,8.61-10.59,0-13.24-11.92-13.24-29.13v-53H682.47l-.62-.66v.66h.62l8.65,9.27a6,6,0,0,1,2,4.63c-.67,15.89-.67,30.45-.67,43,0,27.14,9.94,41,29.13,41A31.19,31.19,0,0,0,751.36,368v21.18h43v-.66Zm143.65,10.59v-.66h43.69v-.66l-9.27-9.27a4,4,0,0,1-2-4.63c0-8,.17-16,.35-23.55h0c.16-6.9.31-13.49.31-19.47,0-26.48-10.6-41-29.79-41-14.57-.66-27.8,9.27-32.44,23.17-4-15.22-13.24-23.17-27.8-23.17-13.91-.66-26.48,8.61-30.46,22.51V292.53h-43v1.32l9.27,9.93c1.32.66,2,2.65,2,4.64v82.75h43v-.67l-9.27-9.27c-2-1.32-2-2-2-4.63V317c3.31-5.29,8.61-8.6,14.57-8.6,11.91,0,14.56,11.91,14.56,29.79,0,6-.28,25.29-.48,38.7-.1,7.17-.18,12.67-.18,13.59h43v-.66l-9.93-9.27a6,6,0,0,1-2-4.63c0-8.08.19-16.34.37-24.1h0c.15-6.86.29-13.33.29-18.92a70.9,70.9,0,0,0-2-16.55,18.33,18.33,0,0,1,15.23-8.61c11.91,0,14.56,12.58,14.56,29.79,0,5.8-.26,23.54-.45,36.8-.1,7-.19,12.72-.21,14.84h0Zm-526.29-.66L389.25,376.6c-1.32-.66-2-2.65-2-4V272a7.18,7.18,0,0,1,2-4.64l12.58-14.56v-.66h-45l-33.76,85.39-38.39-85.39H238.32v.66l11.91,16.55c2.65,2.65,3.31,6.62,3.31,9.93v72.82a21.14,21.14,0,0,1-2,12.58l-17.88,24.49v.66h47.67v-.66l-17.88-23.83a20.45,20.45,0,0,1-2-12.58v-66.2a6.14,6.14,0,0,0,.66,1,6.88,6.88,0,0,1,1.32,2.94l45,100.63h.66l43.69-109.23a76.16,76.16,0,0,0-.66,11.91V372a6,6,0,0,1-2,4.63L337,389.18v.66h64.87Zm65.54-16.55c-15.09,0-27.58-9.76-27.8-34.42h57.59v-5.3c0-31.11-21.85-41-42.37-41-25.16,0-48.33,13.9-48.33,50.31,0,34.42,23.17,49,47.67,49,22.51,0,37.73-11.92,43-36.41h-.66C491.2,366,480,373.29,467.37,372.63Zm.66-40.38H439.56c0-27.14,6-37.07,15.23-37.74,7.94,0,13.24,6.62,13.24,32.44Z" style="fill:#292929;fill-rule:evenodd"/></svg>