<svg id="Layer_1" data-name="Layer 1" xmlns="http://www.w3.org/2000/svg" viewBox="0 0 1200 630"><rect width="1200" height="630" style="fill:#0ba9da"/><path d="M599.91,125.62c-104.6,0-189.38,84.79-189.38,189.38s84.78,189.38,189.38,189.38S789.28,419.59,789.28,315,704.49,125.62,599.91,125.62Zm0,11.36a177.15,177.15,0,0,1,99.52,30.4,178.81,178.81,0,0,1,64.51,78.33,177.67,177.67,0,0,1-16.42,168.81,178.14,178.14,0,0,1-311.65-30.23,177.75,177.75,0,0,1,16.41-168.81A178.52,178.52,0,0,1,530.62,151,176.89,176.89,0,0,1,599.91,137Z" style="fill:#fff;fill-rule:evenodd"/><path d="M738.39,239.29a120.63,120.63,0,0,1,1.06,16.22c0,16-3,34-12,56.53L679.25,451.4a157.83,157.83,0,0,0,59.14-212.11ZM602.68,328.8,555.32,466.39a157.85,157.85,0,0,0,97-2.52,16.54,16.54,0,0,1-1.13-2.18ZM706.45,307c0-19.5-7-33-13-43.52-8-13-15.51-24-15.51-37,0-14.51,11-28,26.5-28,.7,0,1.37.09,2.05.13a157.77,157.77,0,0,0-238.43,29.69c3.7.12,7.19.19,10.15.19,16.51,0,42.07-2,42.07-2,8.5-.5,9.5,12,1,13,0,0-8.55,1-18.06,1.5l57.47,171,34.54-103.58L570.64,241c-8.51-.49-16.56-1.5-16.56-1.5-8.5-.5-7.51-13.5,1-13,0,0,26.06,2,41.57,2,16.5,0,42.07-2,42.07-2,8.5-.5,9.5,12,1,13,0,0-8.56,1-18.06,1.5l57,169.64L695,359.06C702.2,336.51,706.45,320.54,706.45,307Zm-264.36,8A157.82,157.82,0,0,0,531,457L455.75,250.77A157.26,157.26,0,0,0,442.09,315Z" style="fill:#fff;fill-rule:evenodd"/></svg>