<svg xmlns="http://www.w3.org/2000/svg" width="256" height="300" viewBox="0 0 256 300">
    <defs>
        <linearGradient id="a" x1="146.023%" x2="-15.945%" y1="-643.82%" y2="170.126%">
            <stop offset="0%" stop-color="#D2F0F0"/>
            <stop offset="100%" stop-color="#F0E6B4"/>
        </linearGradient>
        <linearGradient id="b" x1="94.635%" x2="0%" y1="10.095%" y2="91.819%">
            <stop offset="0%" stop-color="#D2F0F0"/>
            <stop offset="100%" stop-color="#F0E6B4"/>
        </linearGradient>
    </defs>
    <g fill="none" fill-rule="evenodd">
        <path fill="#F7F7F7" d="M-92-46h440v450H-92z"/>
        <path fill="#FFF" d="M57.183 240.352h141.173V52.12H57.183z"/>
        <g fill="#6E4B28">
            <path d="M147.528 124.385c1.275.016 2.174.36 2.458.967.21.449.049.964-.22 1.241-.453.469-2.041.695-3.956.79a77.79 77.79 0 0 0 1.208-2.979l.51-.02m2.658-8.121c.183.383.22.67.11.851-.15.248-.65.54-1.588.696.016-1.015-.154-1.79-.409-2.417 1.072.085 1.605.277 1.887.87m3.327 4.418c.046.347-.04.505-.14.623-.384.457-1.668 1.036-5.6 1.202l-.058.002c.371-1.056.623-1.98.78-2.79.072-.008.143-.014.215-.023.03.001.058.006.088.004 3.282-.15 4.604.126 4.715.982m-7.828 10.484c-.078.59-.702.795-2.089.858.366-.689.715-1.383 1.048-2.077.409.09.74.22.91.41.058.062.209.23.131.809m-24.461-11.532c-1.054 1.08-1.963 2.012-2.631 2.808-1.077 1.284-1.539 1.286-1.536 1.289-.006-.003-.312-.197-.524-1.396-.305-1.716-.652-5.621-.78-9.613a28.503 28.503 0 0 0 1.417-1.26c3.784-3.625 4.608-4.455 6.48-6.768.683-.843 1.614-.976 2.143-.673.606.345.712 1.241.283 2.396-.952 2.56-2.135 4.034-3.632 5.899-.602.75-1.284 1.6-2.006 2.592a.934.934 0 0 0 1.51 1.099c.274-.378.54-.73.799-1.066.742.056 1.657.101 2.689.137-1.35 1.62-2.866 3.175-4.212 4.556m21.317 14.282c2.506-.012 4.694-.246 4.995-2.504.123-.916-.061-1.668-.54-2.239 2.18-.2 3.47-.617 4.112-1.28a2.99 2.99 0 0 0 .569-3.333 2.891 2.891 0 0 0-.316-.523c1.737-.302 2.822-.794 3.441-1.53.479-.568.668-1.264.564-2.067-.228-1.74-1.687-2.37-3.358-2.57.249-.532.376-1.335-.136-2.41-.887-1.862-2.841-1.927-4.566-1.986l-.225-.008a.966.966 0 0 0-.167-.161c.7-3.04 1.015-5.42.923-6.35-.126-1.261-.824-2.235-1.87-2.605a2.598 2.598 0 0 0-.88-.148c.194-1.232.294-2.241.302-2.929.025-1.804-1.128-3.72-3.38-3.904-1.611-.129-2.934.76-3.392 2.21-.494-.94-1.397-1.446-2.236-1.6-1.391-.249-3.07.306-3.478 1.684-.442 1.492-2.247 6.042-4.392 10.79-.419.927-.994 1.867-1.659 2.8-.986-.026-1.896-.057-2.689-.097 1.428-1.783 2.667-3.409 3.663-6.088.913-2.457.026-4.023-1.108-4.67-1.432-.816-3.332-.345-4.519 1.12-1.804 2.228-2.609 3.04-6.321 6.596l-.182.172c-.146-2.763-1.994-3.877-3.575-3.982-1.847-.126-3.464.928-3.68 2.398-.077.531-.264 1.456-.5 2.626a204.35 204.35 0 0 0-1.062 5.57c-2.922 1.96-5.776 3.744-7.536 4.769a.934.934 0 0 0 .94 1.614c1.528-.89 3.777-2.283 6.186-3.865a81.95 81.95 0 0 0-.678 5.71c-.412 5.172 1.026 10.486 1.798 13.34l.076.282c-1.958.565-5.626 1.72-5.8 1.774a.934.934 0 0 0 .56 1.781c.042-.013 3.562-1.121 5.552-1.7-.141.606-.45 1.628-.823 2.863a227.077 227.077 0 0 0-1.026 3.466.933.933 0 1 0 1.795.513c.37-1.29.714-2.432 1.02-3.439.515-1.707.855-2.834.95-3.473.063-.433-.08-.994-.501-2.553-.743-2.746-2.126-7.858-1.74-12.704.196-2.458.55-4.974.934-7.277.15-.897.304-1.762.456-2.579.264-1.413.52-2.682.73-3.722.24-1.198.431-2.144.517-2.724.06-.414.835-.866 1.706-.807.68.047 1.822.422 1.843 2.42.004.414.012.84.023 1.271v.003c.097 4.005.447 8.629.833 10.8.109.616.441 2.49 1.875 2.872 1.37.366 2.627-.904 3.455-1.891.622-.742 1.51-1.651 2.537-2.704 1.68-1.723 3.614-3.706 5.217-5.796l.164-.22a19.025 19.025 0 0 0 .45-.614l.162-.232c.654-.94 1.226-1.896 1.66-2.855 2.177-4.818 4.02-9.476 4.48-11.028.062-.208.658-.5 1.35-.377.539.099 1.162.458 1.076 1.611-.108 1.43-.946 8.986-6.935 17.357a.935.935 0 0 0 1.519 1.087c2.716-3.796 4.421-7.406 5.495-10.435a.945.945 0 0 0 .17-.272c.266-.67.516-1.29.751-1.87 1.097-2.715 1.89-4.675 2.213-6.876.14-.954.881-1.24 1.528-1.188.837.071 1.679.717 1.661 2.018-.043 3.177-2.294 14.309-7.359 21.738a.933.933 0 0 0 1.543 1.052c3.766-5.524 6.008-12.816 7.026-17.864a.721.721 0 0 1 .613-.064c.35.124.58.5.634 1.03.076.777-.268 3.165-1.01 6.246a67.965 67.965 0 0 1-.474 1.86c-.956 3.55-2.36 7.69-4.182 11.296a.933.933 0 1 0 1.666.842c1.906-3.77 3.367-8.049 4.355-11.745.312.547.543 1.238.51 2.295a9.27 9.27 0 0 1-.01.2v.001c-.004.067-.01.135-.016.205v.007l-.022.212v.007a14.18 14.18 0 0 1-.03.22v.007c-.011.076-.022.153-.036.232v.005l-.044.243v.005l-.051.254-.001.004-.058.263a20.612 20.612 0 0 1-.677 2.251l-.192.53h-.001a67.67 67.67 0 0 1-.338.909l-.02.049a73.569 73.569 0 0 1-2.137 5.05l-.004.009a53.868 53.868 0 0 1-2.337 4.451c-.17.29-.344.579-.522.865h.001c-1.362 2.191-2.914 4.235-4.642 5.809a140.75 140.75 0 0 1-3.662 3.2c-2.906 2.477-4.826 4.112-5.73 6.421-1.145 2.93-1.785 5.652-1.812 5.765a.933.933 0 1 0 1.82.425c.005-.027.637-2.71 1.732-5.51.732-1.872 2.511-3.386 5.201-5.68a142.89 142.89 0 0 0 3.71-3.24c2.119-1.932 3.976-4.465 5.575-7.187M125.164 157.309l-19.86-8.936a2.886 2.886 0 0 0-3.809 1.441l-1.066 2.357a.934.934 0 0 0 1.703.77l1.065-2.358c.23-.508.83-.736 1.341-.508l19.86 8.937a3.364 3.364 0 0 1 1.882 3.906l-.91 3.062a.934.934 0 0 0 1.81.463l.91-3.063a5.23 5.23 0 0 0-2.926-6.071M100.689 139.216l-2.871-15.93a2.859 2.859 0 0 0-1.226-1.88 2.862 2.862 0 0 0-2.203-.43l-4.005 1.013a.933.933 0 1 0 .383 1.827l4.004-1.013a1.011 1.011 0 0 1 1.21.814l2.87 15.93a4.947 4.947 0 0 1-2.183 5.04l-1.468.952a.934.934 0 1 0 1.015 1.567l1.469-.951a6.809 6.809 0 0 0 3.005-6.939M100.507 86.375a.48.48 0 0 0 .292-.1l.45-.342a.478.478 0 0 0-.574-.765l-.46.351a.479.479 0 0 0 .292.856M98.15 88.32a.475.475 0 0 0 .316-.12c.141-.124.284-.248.428-.372a.478.478 0 0 0-.624-.725l-.436.38a.477.477 0 0 0 .316.837M95.923 90.414a.475.475 0 0 0 .339-.14c.133-.134.268-.267.403-.4a.478.478 0 0 0-.67-.683 49.65 49.65 0 0 0-.41.409.477.477 0 0 0 .338.814M93.837 92.65a.479.479 0 0 0 .36-.164c.125-.142.25-.284.376-.424a.479.479 0 0 0-.711-.639c-.13.144-.257.288-.385.434a.477.477 0 0 0 .36.793M91.61 94.918a.478.478 0 0 0 .67-.09c.114-.15.23-.3.347-.448a.477.477 0 1 0-.751-.59c-.12.152-.238.304-.356.458-.16.21-.12.51.09.67M175.19 119.72l.035.566a.479.479 0 0 0 .476.451h.027a.478.478 0 0 0 .45-.504 68.389 68.389 0 0 0-.035-.579.478.478 0 1 0-.953.065M108.26 81.522a.484.484 0 0 0 .213-.05c.168-.084.337-.168.507-.25a.477.477 0 1 0-.414-.86c-.174.083-.347.168-.52.254a.477.477 0 0 0 .214.906M105.573 82.969c.081 0 .164-.021.24-.065.163-.095.327-.19.49-.282a.479.479 0 0 0-.47-.832c-.168.095-.335.191-.5.287a.478.478 0 0 0 .24.892M102.985 84.59a.474.474 0 0 0 .266-.082c.157-.106.314-.21.472-.313a.478.478 0 0 0-.523-.8 42.08 42.08 0 0 0-.482.32.477.477 0 0 0 .267.874M84.58 108.444a.479.479 0 0 0 .606-.3c.06-.18.123-.36.185-.539a.48.48 0 0 0-.902-.317c-.064.183-.127.366-.189.55-.084.251.05.522.3.606M172.801 107.89c.062.178.122.357.181.537a.478.478 0 0 0 .908-.299c-.06-.184-.123-.367-.185-.549a.477.477 0 1 0-.904.31M82.36 120.435l.03.001c.25 0 .46-.194.476-.448.012-.188.025-.377.04-.566a.478.478 0 1 0-.954-.071l-.04.577a.478.478 0 0 0 .447.507M82.433 126.546a.478.478 0 0 0 .445-.508 44.18 44.18 0 0 1-.034-.567.478.478 0 0 0-.954.052c.01.193.022.386.034.578a.477.477 0 0 0 .476.446h.033M83.672 132.033c-.038-.185-.074-.37-.109-.557a.477.477 0 1 0-.939.176c.036.19.072.379.11.568a.478.478 0 1 0 .938-.187M89.855 97.425a.477.477 0 0 0 .663-.133c.105-.158.211-.314.318-.47a.477.477 0 1 0-.789-.54l-.324.48a.478.478 0 0 0 .132.663M82.766 129.585a.478.478 0 0 0 .41-.536 32.02 32.02 0 0 1-.07-.564.479.479 0 0 0-.95.114l.073.574a.478.478 0 0 0 .537.412M82.619 117.39a.478.478 0 0 0 .535-.413c.023-.189.049-.376.075-.563a.478.478 0 0 0-.946-.133c-.027.19-.053.382-.077.573a.477.477 0 0 0 .413.535M86.856 102.758a.479.479 0 0 0 .64-.218c.083-.17.168-.34.253-.51a.478.478 0 1 0-.852-.431l-.26.52a.478.478 0 0 0 .219.64M88.268 100.042a.48.48 0 0 0 .653-.175c.094-.165.19-.33.287-.491a.478.478 0 1 0-.823-.487c-.099.166-.196.332-.292.5a.478.478 0 0 0 .175.653M83.076 114.367a.479.479 0 0 0 .561-.377c.036-.187.073-.372.112-.557a.478.478 0 0 0-.936-.195c-.039.189-.078.378-.114.568-.051.26.118.51.377.56M85.624 105.563a.477.477 0 0 0 .624-.26l.22-.525a.478.478 0 0 0-.879-.375l-.224.536a.477.477 0 0 0 .26.624M83.73 111.38a.477.477 0 0 0 .584-.34c.05-.182.099-.365.15-.547a.477.477 0 1 0-.921-.256c-.052.186-.103.372-.152.56a.478.478 0 0 0 .34.584M84.361 134.979c-.05-.182-.097-.365-.144-.548a.478.478 0 1 0-.926.236c.048.188.097.374.147.56a.478.478 0 0 0 .923-.248M82.297 123.492a.478.478 0 0 0 .478-.48v-.089c0-.16.001-.319.003-.478a.479.479 0 0 0-.474-.483H82.3a.479.479 0 0 0-.478.474c-.002.162-.002.324-.002.487v.091c0 .264.215.478.478.478M152.055 82.785c.165.095.329.19.49.287a.478.478 0 0 0 .487-.823 51.746 51.746 0 0 0-.501-.293.479.479 0 0 0-.476.829M162.055 90.52a.476.476 0 0 0 .675.005.478.478 0 0 0 .007-.675 49.65 49.65 0 0 0-.409-.411.477.477 0 1 0-.674.678c.135.134.268.267.4.403M157.096 86.139c.15.115.3.23.448.347a.478.478 0 1 0 .59-.752 50.092 50.092 0 0 0-.458-.355.477.477 0 1 0-.58.76M154.63 84.38c.158.105.316.21.472.317a.477.477 0 0 0 .664-.125.478.478 0 0 0-.125-.664c-.16-.108-.32-.217-.481-.324a.478.478 0 0 0-.53.796M146.615 80.118c.176.072.351.145.525.22a.478.478 0 0 0 .374-.88c-.177-.075-.356-.15-.535-.223a.478.478 0 0 0-.364.883M143.774 79.058c.18.06.36.122.539.185a.476.476 0 0 0 .609-.293.478.478 0 0 0-.293-.61 64.04 64.04 0 0 0-.55-.188.478.478 0 0 0-.305.906M149.38 81.362c.17.084.34.168.51.254a.474.474 0 0 0 .641-.21.478.478 0 0 0-.21-.643 63.19 63.19 0 0 0-.52-.26.479.479 0 0 0-.421.86M175.295 116.172a.478.478 0 0 0-.41.538c.025.187.049.374.072.563a.477.477 0 0 0 .95-.116 70.864 70.864 0 0 0-.075-.575.476.476 0 0 0-.537-.41M173.69 110.782c.049.182.097.365.144.548a.478.478 0 0 0 .925-.239 34.114 34.114 0 0 0-.148-.56.478.478 0 0 0-.922.25M171.94 105.587a.477.477 0 1 0 .886-.359 44.149 44.149 0 0 0-.22-.533.479.479 0 0 0-.882.37c.074.173.146.347.217.522M170.718 102.827a.48.48 0 0 0 .638.223.478.478 0 0 0 .223-.639 44.648 44.648 0 0 0-.255-.518.478.478 0 0 0-.856.426c.084.169.168.337.25.508M166 95.1a.478.478 0 0 0 .764-.575 50.016 50.016 0 0 0-.351-.46.479.479 0 0 0-.756.585l.344.45M167.74 97.573a.477.477 0 0 0 .663.137.478.478 0 0 0 .137-.662 50.476 50.476 0 0 0-.32-.481.478.478 0 1 0-.793.534c.105.156.21.314.314.472M164.102 92.746a.478.478 0 0 0 .725-.623 67.984 67.984 0 0 0-.38-.437.478.478 0 0 0-.717.633c.125.141.249.284.372.427M140.876 78.19c.183.048.365.098.547.148a.478.478 0 1 0 .256-.92 44.556 44.556 0 0 0-.56-.152.477.477 0 1 0-.243.924M122.804 77.073c.02 0 .042-.001.063-.004.187-.025.375-.05.564-.071a.478.478 0 0 0-.115-.95 66.77 66.77 0 0 0-.575.073.48.48 0 0 0 .063.952M116.813 78.276a.482.482 0 0 0 .125-.017c.183-.05.365-.098.549-.145a.478.478 0 0 0-.238-.925c-.188.048-.374.097-.56.148a.477.477 0 0 0 .124.939M111.035 80.254a.469.469 0 0 0 .184-.037c.173-.072.347-.144.522-.214a.478.478 0 0 0-.357-.887 44.21 44.21 0 0 0-.534.22.478.478 0 0 0 .185.918M113.89 79.17c.051 0 .104-.008.154-.026l.54-.18a.477.477 0 1 0-.298-.907c-.185.059-.368.12-.55.183a.478.478 0 0 0 .154.93M125.845 76.768h.033c.188-.013.377-.025.566-.036a.478.478 0 0 0-.052-.954c-.194.01-.386.023-.579.035a.479.479 0 0 0 .032.955M119.788 77.576a.484.484 0 0 0 .095-.01c.186-.037.37-.073.557-.108a.477.477 0 1 0-.177-.939l-.568.11a.478.478 0 0 0 .093.947M174.385 113.726l.109.557a.477.477 0 1 0 .939-.178l-.112-.568a.478.478 0 0 0-.936.189M137.926 77.514l.557.112a.477.477 0 0 0 .193-.937l-.567-.113a.478.478 0 0 0-.183.938M128.901 76.661h.135l.434.002h.005a.478.478 0 0 0 .004-.955 40.891 40.891 0 0 0-.443-.002h-.137a.478.478 0 0 0 .002.956M131.927 76.75l.567.038.035.002a.477.477 0 0 0 .035-.955l-.578-.04a.477.477 0 1 0-.059.954M134.94 77.034l.562.075a.478.478 0 0 0 .132-.946 47.344 47.344 0 0 0-.574-.077.478.478 0 1 0-.12.949M169.316 100.151a.477.477 0 1 0 .831-.47 38.831 38.831 0 0 0-.288-.501.477.477 0 1 0-.825.48c.095.164.189.327.282.491M152.184 162.987a49.24 49.24 0 0 1-.492.281.477.477 0 1 0 .468.832c.168-.094.335-.189.502-.285a.478.478 0 0 0-.478-.828M157.204 159.625c-.15.115-.3.229-.452.342a.478.478 0 1 0 .573.765c.155-.115.308-.232.461-.35a.478.478 0 1 0-.582-.757M154.748 161.388c-.157.105-.315.21-.473.313a.478.478 0 1 0 .522.8c.162-.106.323-.211.483-.319a.478.478 0 1 0-.532-.794M159.54 157.704c-.141.125-.284.249-.428.372a.477.477 0 1 0 .622.726l.437-.379a.478.478 0 0 0-.63-.719M160.503 87.718a39.383 39.383 0 0 0-.435-.384.477.477 0 1 0-.627.72c.142.124.284.25.424.376a.475.475 0 0 0 .675-.038.478.478 0 0 0-.037-.674M161.748 155.636l-.403.398a.478.478 0 1 0 .667.685c.138-.135.276-.27.413-.408a.478.478 0 0 0-.677-.675M138.103 168.297c-.185.037-.371.072-.558.107a.477.477 0 1 0 .175.94c.19-.036.38-.072.569-.11a.477.477 0 1 0-.186-.937M163.818 153.427c-.125.143-.25.284-.378.425a.479.479 0 0 0 .71.64c.13-.145.259-.289.386-.434a.477.477 0 1 0-.718-.63M141.05 167.61c-.183.05-.366.097-.55.143a.478.478 0 0 0 .236.926c.187-.047.374-.096.561-.146a.477.477 0 1 0-.248-.923M149.521 164.414c-.169.084-.338.166-.508.248a.478.478 0 0 0 .413.861c.174-.082.347-.167.519-.252a.477.477 0 1 0-.424-.857M146.773 165.663c-.175.073-.348.144-.524.214a.479.479 0 0 0 .356.887c.179-.072.357-.144.534-.218a.478.478 0 0 0-.366-.883M143.944 166.73c-.18.061-.358.122-.538.18a.478.478 0 1 0 .297.909c.183-.06.367-.121.549-.183a.478.478 0 1 0-.308-.905M173.465 137.489a.478.478 0 0 0-.606.298c-.06.18-.124.36-.187.539a.478.478 0 0 0 .902.318l.19-.55a.479.479 0 0 0-.299-.605M175.444 128.547a.478.478 0 0 0-.535.412c-.025.188-.05.376-.077.562a.478.478 0 0 0 .946.136c.028-.191.053-.383.078-.575a.478.478 0 0 0-.412-.535M174.981 131.568a.479.479 0 0 0-.562.377c-.036.185-.074.37-.113.556a.477.477 0 1 0 .935.196c.04-.188.08-.378.116-.567a.478.478 0 0 0-.376-.562M174.32 134.554a.479.479 0 0 0-.584.338 39.44 39.44 0 0 1-.15.547.477.477 0 1 0 .92.258c.052-.185.103-.372.153-.558a.478.478 0 0 0-.338-.585M166.41 151a.478.478 0 0 0-.67.088c-.116.15-.232.3-.349.448a.479.479 0 0 0 .75.592c.12-.15.238-.304.356-.457a.478.478 0 0 0-.087-.67M176.254 122.741a.478.478 0 0 0-.478-.477h-.002a.478.478 0 0 0-.476.48v.18c0 .189 0 .378-.003.567a.478.478 0 0 0 .472.483h.006c.261 0 .475-.21.478-.471.002-.194.003-.386.003-.58v-.182zM175.71 125.501a.476.476 0 0 0-.508.447 45.03 45.03 0 0 1-.04.566.478.478 0 0 0 .44.513l.036.001a.478.478 0 0 0 .476-.441c.015-.192.029-.385.04-.578a.477.477 0 0 0-.445-.508M168.169 148.497a.477.477 0 0 0-.663.132c-.106.157-.212.314-.32.47a.478.478 0 1 0 .788.541c.11-.16.218-.32.326-.48a.479.479 0 0 0-.131-.663M135.118 168.789c-.187.025-.376.048-.563.07a.479.479 0 0 0 .113.95l.574-.072a.478.478 0 0 0-.124-.948M169.76 145.883a.478.478 0 0 0-.652.174c-.095.164-.191.328-.288.49a.478.478 0 1 0 .822.49l.293-.5a.479.479 0 0 0-.174-.654M172.415 140.368a.478.478 0 0 0-.625.258c-.072.175-.146.35-.22.525a.478.478 0 1 0 .878.376l.226-.535a.478.478 0 0 0-.259-.624M171.178 143.17a.478.478 0 0 0-.64.216c-.084.17-.169.34-.255.509a.478.478 0 0 0 .852.434c.088-.173.175-.346.26-.52a.478.478 0 0 0-.217-.64M103.369 161.417a48.828 48.828 0 0 1-.471-.32.478.478 0 0 0-.54.79c.16.109.32.218.48.324a.48.48 0 0 0 .53-.794M95.956 155.263a.478.478 0 1 0-.682.668c.134.138.27.276.406.412a.478.478 0 0 0 .676-.677 38.154 38.154 0 0 1-.4-.403M85.243 137.873a42.615 42.615 0 0 1-.18-.538.478.478 0 1 0-.908.298c.06.183.121.366.184.549a.477.477 0 1 0 .904-.31M98.142 157.357a.477.477 0 1 0-.638.711c.143.13.288.257.432.385a.476.476 0 0 0 .674-.045.477.477 0 0 0-.043-.674 38.78 38.78 0 0 1-.425-.377M114.215 166.76c-.18-.06-.36-.123-.538-.186a.477.477 0 1 0-.318.9c.183.066.366.13.55.191a.478.478 0 0 0 .306-.906M111.376 165.695a43.15 43.15 0 0 1-.525-.222.478.478 0 0 0-.376.88l.536.225a.475.475 0 0 0 .623-.26.478.478 0 0 0-.258-.623M105.941 163.016c-.164-.094-.328-.19-.49-.287a.478.478 0 0 0-.489.822c.167.099.334.197.502.293a.477.477 0 0 0 .477-.828M108.614 164.445l-.51-.255a.477.477 0 1 0-.432.852c.173.088.345.175.52.26a.476.476 0 0 0 .64-.217.478.478 0 0 0-.218-.64M100.907 159.653c-.15-.115-.3-.231-.448-.348a.478.478 0 0 0-.591.751c.152.12.305.238.457.356a.475.475 0 0 0 .67-.089.478.478 0 0 0-.088-.67M87.317 142.94a.478.478 0 1 0-.861.414l.253.518a.478.478 0 1 0 .856-.424 50.147 50.147 0 0 1-.248-.509M93.913 153.033a.477.477 0 1 0-.725.621c.125.147.252.293.38.438a.478.478 0 1 0 .717-.631 37.64 37.64 0 0 1-.372-.428M86.1 140.177a.478.478 0 1 0-.888.357c.073.178.145.356.22.534a.478.478 0 1 0 .882-.368 37.829 37.829 0 0 1-.214-.523M88.714 145.617a.478.478 0 0 0-.832.47c.095.168.19.335.286.501a.479.479 0 1 0 .827-.48 49.112 49.112 0 0 1-.28-.49M92.02 150.674a.478.478 0 0 0-.765.574c.116.155.233.308.35.461a.48.48 0 0 0 .758-.583c-.116-.15-.23-.3-.343-.452M90.284 148.2a.478.478 0 1 0-.8.522c.105.162.212.322.32.482a.477.477 0 1 0 .793-.533c-.105-.157-.21-.313-.313-.472M123.046 168.8c-.188-.024-.376-.049-.563-.076a.48.48 0 0 0-.54.407.48.48 0 0 0 .406.54c.191.027.382.053.574.077a.479.479 0 0 0 .123-.948M117.111 167.634a69.676 69.676 0 0 1-.546-.15.477.477 0 1 0-.258.92l.56.154a.478.478 0 0 0 .245-.924M132.107 169.085a44.18 44.18 0 0 1-.567.034.478.478 0 0 0 .026.955l.026-.001c.192-.01.385-.022.577-.034a.479.479 0 0 0-.062-.954M120.06 168.315a62.682 62.682 0 0 1-.557-.113.477.477 0 1 0-.195.935c.188.04.378.078.567.115a.478.478 0 0 0 .185-.937M129.082 169.185h-.045c-.174 0-.349-.001-.522-.003h-.007a.478.478 0 0 0-.005.956c.175.002.348.003.53.003h.05a.478.478 0 1 0 0-.956M126.057 169.09a43.997 43.997 0 0 1-.565-.04.476.476 0 0 0-.513.442.477.477 0 0 0 .44.512c.192.015.385.028.578.04l.03.001a.478.478 0 0 0 .03-.955M140.907 163.554l-2.112-5.222c-.116-.288-.547-.172-.504.136l.781 5.578a.957.957 0 1 0 1.835-.492M147.627 154.6c-.187-.247-.574-.025-.452.261l2.199 5.186a.957.957 0 1 0 1.644-.95l-3.391-4.497zM159.72 153.606a.957.957 0 0 0-.088-1.43l-4.44-3.467c-.244-.19-.56.125-.37.37l3.467 4.44a.957.957 0 0 0 1.43.087M91.913 102.586l5.186 2.199c.285.122.508-.265.26-.452l-4.497-3.392a.956.956 0 1 0-.95 1.645M166.16 143.26l-5.185-2.199c-.285-.121-.509.265-.261.452l4.497 3.392a.956.956 0 1 0 .95-1.645M87.123 111.692a.957.957 0 0 0 .791 1.195l5.578.783c.308.043.423-.389.135-.505l-5.222-2.112a.956.956 0 0 0-1.282.64M170.951 134.154a.957.957 0 0 0-.792-1.195l-5.578-.782c-.307-.043-.423.388-.135.504l5.222 2.112a.957.957 0 0 0 1.283-.639M172.43 122.923a.957.957 0 0 0-1.075-.95l-5.59.69c-.308.037-.308.484 0 .521l5.59.69a.957.957 0 0 0 1.074-.95M169.668 111.053l-5.222 2.112c-.287.116-.172.547.135.504l5.578-.781a.958.958 0 1 0-.491-1.835M160.975 104.785l5.186-2.199a.958.958 0 1 0-.95-1.645l-4.497 3.392c-.248.187-.025.573.261.452"/>
            <path d="M163.634 157.52c-9.24 9.242-21.528 14.331-34.598 14.331-13.068 0-25.356-5.09-34.597-14.33-9.24-9.242-14.33-21.529-14.33-34.598 0-13.07 5.09-25.356 14.33-34.598 9.241-9.24 21.529-14.33 34.597-14.33 13.07 0 25.357 5.09 34.598 14.33 9.241 9.242 14.331 21.529 14.331 34.598 0 13.07-5.09 25.356-14.33 34.597m1.08-70.275c-9.53-9.53-22.2-14.779-35.679-14.779-13.477 0-26.147 5.248-35.677 14.779-9.531 9.53-14.78 22.2-14.78 35.678 0 13.477 5.249 26.149 14.78 35.679 9.53 9.53 22.2 14.779 35.677 14.779 13.478 0 26.149-5.25 35.679-14.78 9.53-9.53 14.779-22.2 14.779-35.678 0-13.477-5.248-26.148-14.78-35.678"/>
            <path d="M108.404 95.302l-.648-.735-2.7 2.385-4.68-5.297-.846.747 5.328 6.033zM110.486 93.99l-4.462-6.7-.94.625 4.462 6.7zM112.32 92.795l1.023-.477-1.56-3.348 1.086-.505 3.502 2.444 1.157-.539-4.028-2.765-.01-.02.507-4.45-1.126.526-.41 3.925-1.086.505-1.429-3.069-1.023.476zM118.762 90.054l4.729-1.153-.232-.952-3.633.886-.612-2.515 2.802-.683-.232-.951-2.802.682-.596-2.448 3.444-.839-.232-.952-4.541 1.106zM131.635 88.79c2.014.12 3.193-1.09 3.193-1.09l-.556-.844s-1.03.99-2.542.901c-1.787-.105-2.896-1.632-2.795-3.35.1-1.708 1.352-3.004 3.15-2.898 1.39.08 2.27 1.012 2.27 1.012l.608-.81s-.928-1.116-2.863-1.23c-2.333-.136-4.19 1.536-4.327 3.869-.139 2.356 1.449 4.299 3.862 4.44M137.874 85.384c.533-1.673 2.205-2.528 3.77-2.03 1.564.498 2.423 2.16 1.89 3.833-.55 1.727-2.226 2.629-3.79 2.13-1.564-.498-2.42-2.206-1.87-3.933m1.556 4.923c2.215.706 4.492-.508 5.212-2.767.703-2.205-.47-4.458-2.687-5.164-2.216-.706-4.487.45-5.189 2.655-.72 2.26.447 4.57 2.664 5.276M145.73 92.879l3.8-7.095-.996-.533-3.8 7.096zM153.482 88.205l-.88-.688-4.956 6.34.89.694 3.215-4.112c.28-.36.66-.974.66-.974l.018.014s-.153.806-.193 1.339l-.387 6.324.871.682 4.956-6.34-.889-.696-3.222 4.122c-.274.35-.653.966-.653.966l-.018-.015s.153-.806.187-1.33l.401-6.326z"/>
        </g>
        <path fill="url(#a)" d="M96 190.003h66.072a2.387 2.387 0 1 1 0 4.773H96a2.386 2.386 0 1 1 0-4.773zm0 16.312h66.072a2.388 2.388 0 0 1 0 4.774H96a2.386 2.386 0 1 1 0-4.774z"/>
        <path fill="url(#b)" d="M60.366 237.169h134.807V55.303H60.366V237.17zm114.065 50.136a5.79 5.79 0 0 1-5.783 5.782 5.79 5.79 0 0 1-5.783-5.782 5.79 5.79 0 0 1 5.783-5.782 5.79 5.79 0 0 1 5.783 5.782zm-52.756-20.69a5.789 5.789 0 0 1-5.782 5.781 5.79 5.79 0 0 1-5.783-5.782 5.79 5.79 0 0 1 5.783-5.783 5.79 5.79 0 0 1 5.782 5.783zm-28.88 18.302a5.79 5.79 0 0 1-5.783 5.783 5.79 5.79 0 0 1-5.783-5.783 5.79 5.79 0 0 1 5.783-5.783 5.79 5.79 0 0 1 5.783 5.783zM84.412 12.148a5.79 5.79 0 0 1 5.783-5.782 5.79 5.79 0 0 1 5.783 5.782 5.79 5.79 0 0 1-5.783 5.783 5.79 5.79 0 0 1-5.783-5.783zm45.593 20.691a5.79 5.79 0 0 1 5.783-5.783 5.79 5.79 0 0 1 5.783 5.783 5.789 5.789 0 0 1-5.783 5.782 5.789 5.789 0 0 1-5.783-5.782zm36.043-12.733a5.79 5.79 0 0 1 5.783-5.782 5.79 5.79 0 0 1 5.783 5.782 5.789 5.789 0 0 1-5.783 5.782 5.789 5.789 0 0 1-5.783-5.782zm35.492 223.429V48.937h-26.526v-17.12c5.157-1.403 8.966-6.115 8.966-11.71 0-6.7-5.45-12.15-12.15-12.15-6.698 0-12.148 5.45-12.148 12.15 0 5.595 3.808 10.307 8.966 11.71v17.12H138.97V44.55c5.157-1.403 8.966-6.115 8.966-11.71 0-6.7-5.45-12.15-12.15-12.15-6.698 0-12.148 5.45-12.148 12.15 0 5.595 3.81 10.307 8.966 11.71v4.387H93.378V23.86c5.157-1.404 8.966-6.114 8.966-11.711C102.344 5.449 96.894 0 90.195 0c-6.699 0-12.149 5.45-12.149 12.148 0 5.597 3.81 10.307 8.966 11.711v25.078H54v194.598h29.829v29.671c-5.157 1.404-8.966 6.115-8.966 11.711 0 6.699 5.45 12.149 12.149 12.149 6.699 0 12.149-5.45 12.149-12.149 0-5.596-3.809-10.306-8.966-11.71v-29.672h22.515v11.368c-5.157 1.404-8.966 6.115-8.966 11.711 0 6.699 5.45 12.148 12.15 12.148 6.698 0 12.147-5.45 12.147-12.148 0-5.596-3.808-10.307-8.965-11.711v-11.368h46.389v32.06c-5.158 1.403-8.966 6.114-8.966 11.71 0 6.698 5.45 12.148 12.149 12.148 6.698 0 12.149-5.45 12.149-12.148 0-5.596-3.809-10.307-8.966-11.71v-32.06h29.709z"/>
    </g>
</svg>
