<svg xmlns="http://www.w3.org/2000/svg" width="256" height="300" viewBox="0 0 256 300">
    <defs>
        <linearGradient id="a" x1="146.023%" x2="-15.945%" y1="-643.82%" y2="170.126%">
            <stop offset="0%" stop-color="#D2F0F0"/>
            <stop offset="100%" stop-color="#F0E6B4"/>
        </linearGradient>
        <linearGradient id="b" x1="94.635%" x2="0%" y1="10.095%" y2="91.819%">
            <stop offset="0%" stop-color="#D2F0F0"/>
            <stop offset="100%" stop-color="#F0E6B4"/>
        </linearGradient>
    </defs>
    <g fill="none" fill-rule="evenodd">
        <path fill="#F7F7F7" d="M-92-50h440v450H-92z"/>
        <path fill="#FFF" d="M189.54 72.812V60.079h-12.733V47.346H45.183v175.498h12.733v12.733h12.733v12.733h131.624V72.812z"/>
        <g fill="#6E4B28">
            <path d="M130.753 119.61c1.275.016 2.173.36 2.459.968.21.448.048.963-.22 1.24-.454.47-2.042.695-3.956.79a77.79 77.79 0 0 0 1.208-2.979l.509-.019m2.658-8.122c.183.383.22.67.11.851-.15.249-.65.54-1.588.696.016-1.015-.154-1.79-.408-2.417 1.072.085 1.604.277 1.886.87m3.327 4.418c.046.348-.04.505-.14.624-.384.457-1.667 1.035-5.6 1.201l-.057.003a20 20 0 0 0 .779-2.79c.072-.009.143-.014.215-.024.029.002.058.006.089.005 3.281-.15 4.603.125 4.714.98m-7.827 10.485c-.08.591-.702.796-2.09.858.365-.689.715-1.382 1.049-2.076.408.089.74.22.91.409.057.063.208.23.13.809m-24.46-11.532c-1.054 1.08-1.964 2.012-2.632 2.808-1.077 1.284-1.539 1.286-1.535 1.29-.007-.004-.312-.198-.526-1.397-.304-1.716-.65-5.62-.78-9.612a28.866 28.866 0 0 0 1.419-1.26c3.783-3.626 4.607-4.456 6.48-6.769.681-.842 1.612-.975 2.142-.673.607.346.712 1.242.283 2.396-.952 2.56-2.135 4.034-3.632 5.9-.602.749-1.284 1.599-2.006 2.592a.934.934 0 1 0 1.51 1.098c.275-.378.54-.73.8-1.066.742.056 1.656.101 2.688.137-1.35 1.62-2.865 3.175-4.212 4.556m21.317 14.282c2.506-.012 4.695-.246 4.996-2.503.121-.917-.063-1.669-.54-2.24 2.179-.2 3.47-.617 4.112-1.28a2.993 2.993 0 0 0 .568-3.333 2.891 2.891 0 0 0-.316-.522c1.736-.303 2.823-.795 3.442-1.53.478-.569.667-1.264.562-2.067-.227-1.741-1.686-2.37-3.357-2.571.249-.532.376-1.335-.136-2.41-.887-1.862-2.842-1.927-4.566-1.985l-.225-.009a.961.961 0 0 0-.167-.16c.7-3.04 1.015-5.42.923-6.35-.125-1.262-.824-2.236-1.869-2.606a2.601 2.601 0 0 0-.88-.148c.193-1.232.293-2.241.302-2.929.024-1.804-1.129-3.72-3.38-3.904-1.612-.128-2.935.761-3.392 2.211-.494-.941-1.398-1.447-2.237-1.601-1.391-.248-3.07.306-3.478 1.684-.442 1.493-2.247 6.042-4.391 10.79-.42.927-.995 1.867-1.66 2.8-.985-.026-1.896-.057-2.688-.097 1.427-1.783 2.666-3.409 3.662-6.088.913-2.456.027-4.022-1.107-4.67-1.433-.816-3.333-.345-4.52 1.121-1.804 2.227-2.609 3.039-6.32 6.595l-.182.172c-.147-2.763-1.995-3.877-3.576-3.982-1.847-.126-3.463.928-3.68 2.399-.078.53-.264 1.455-.5 2.626a204.35 204.35 0 0 0-1.062 5.57c-2.922 1.96-5.776 3.743-7.536 4.768a.935.935 0 0 0 .94 1.615c1.528-.89 3.777-2.284 6.185-3.865a81.95 81.95 0 0 0-.677 5.71c-.412 5.17 1.026 10.485 1.799 13.34l.075.282c-1.957.564-5.626 1.719-5.8 1.773a.934.934 0 1 0 .56 1.781c.042-.012 3.562-1.12 5.551-1.7-.14.606-.448 1.628-.822 2.864a235.748 235.748 0 0 0-1.026 3.465.935.935 0 0 0 1.795.514c.37-1.291.715-2.432 1.019-3.44.516-1.707.857-2.834.95-3.473.064-.433-.078-.994-.5-2.553-.743-2.746-2.125-7.857-1.74-12.704.196-2.457.55-4.974.934-7.277.15-.897.305-1.761.457-2.579.263-1.413.52-2.682.729-3.722.24-1.198.432-2.144.517-2.724.061-.414.835-.866 1.706-.807.68.047 1.822.423 1.844 2.42.004.415.012.84.022 1.272v.002c.097 4.006.447 8.63.833 10.8.11.617.442 2.49 1.874 2.872 1.37.367 2.629-.903 3.456-1.89.622-.743 1.509-1.652 2.537-2.705 1.679-1.723 3.614-3.706 5.217-5.796.056-.073.109-.146.164-.219a19.025 19.025 0 0 0 .45-.614l.163-.233c.653-.94 1.225-1.896 1.659-2.855 2.177-4.818 4.02-9.476 4.48-11.027.062-.209.659-.5 1.35-.378.538.1 1.162.459 1.075 1.612-.106 1.43-.944 8.985-6.934 17.356a.934.934 0 0 0 1.518 1.087c2.717-3.796 4.422-7.405 5.496-10.435a.926.926 0 0 0 .17-.272c.266-.67.516-1.289.75-1.87 1.098-2.714 1.89-4.675 2.214-6.876.14-.954.881-1.239 1.528-1.187.837.07 1.68.717 1.662 2.017-.043 3.177-2.295 14.31-7.36 21.738a.933.933 0 1 0 1.544 1.052c3.765-5.524 6.007-12.815 7.025-17.864a.723.723 0 0 1 .613-.064c.35.124.581.5.633 1.03.078.777-.267 3.165-1.008 6.246a70.994 70.994 0 0 1-.475 1.86c-.956 3.55-2.36 7.69-4.182 11.296a.934.934 0 0 0 1.667.843c1.905-3.772 3.365-8.05 4.354-11.746.312.547.543 1.238.51 2.295a9.27 9.27 0 0 1-.01.2v.001c-.004.067-.01.136-.016.206v.006l-.021.212-.001.007a14.18 14.18 0 0 1-.029.221l-.002.007a9.7 9.7 0 0 1-.035.231v.006l-.043.242-.001.005a13.03 13.03 0 0 1-.051.254v.004c-.02.086-.038.174-.06.263-.15.652-.37 1.395-.676 2.252l-.193.53a67.67 67.67 0 0 1-.338.908l-.019.049a73.569 73.569 0 0 1-2.142 5.06c-.182.384-.369.774-.562 1.163a53.868 53.868 0 0 1-1.708 3.175l-.067.113c-.171.29-.344.578-.521.864-1.361 2.191-2.914 4.235-4.641 5.809a140.75 140.75 0 0 1-3.662 3.2c-2.907 2.477-4.827 4.112-5.73 6.421-1.146 2.93-1.786 5.652-1.813 5.766a.933.933 0 1 0 1.819.425c.006-.027.639-2.712 1.734-5.51.732-1.873 2.51-3.387 5.2-5.68 1.092-.93 2.328-1.983 3.709-3.241 2.12-1.932 3.977-4.465 5.576-7.187M108.39 152.534L88.528 143.6a2.885 2.885 0 0 0-3.809 1.44l-1.065 2.358a.934.934 0 0 0 1.702.768l1.065-2.357c.23-.508.831-.736 1.341-.507l19.86 8.936a3.363 3.363 0 0 1 1.882 3.906l-.909 3.063a.934.934 0 0 0 1.81.462l.908-3.062a5.229 5.229 0 0 0-2.925-6.072M83.914 134.442l-2.871-15.93a2.86 2.86 0 0 0-1.226-1.88 2.86 2.86 0 0 0-2.202-.431l-4.005 1.013a.933.933 0 1 0 .382 1.827l4.005-1.013a1.011 1.011 0 0 1 1.208.814l2.87 15.93a4.946 4.946 0 0 1-2.182 5.041l-1.468.952a.934.934 0 1 0 1.015 1.567l1.468-.952a6.81 6.81 0 0 0 3.006-6.938M83.732 81.6a.48.48 0 0 0 .293-.099c.148-.115.299-.23.45-.343a.478.478 0 0 0-.575-.764c-.154.116-.308.233-.46.35a.479.479 0 0 0 .292.857M81.375 83.545a.471.471 0 0 0 .315-.119l.428-.372a.478.478 0 1 0-.623-.725c-.146.125-.291.253-.436.38a.477.477 0 0 0 .316.836M79.148 85.64a.475.475 0 0 0 .339-.141c.133-.134.268-.267.403-.4a.478.478 0 1 0-.67-.682 49.65 49.65 0 0 0-.41.408.478.478 0 0 0 .338.815M77.062 87.875a.48.48 0 0 0 .36-.163c.124-.143.25-.284.376-.425a.478.478 0 0 0-.712-.638c-.128.144-.257.288-.384.433a.477.477 0 0 0 .36.793M74.835 90.143a.477.477 0 0 0 .67-.089c.114-.15.23-.3.347-.449a.478.478 0 0 0-.752-.59l-.354.458c-.16.21-.121.51.089.67M158.415 114.945l.035.567a.479.479 0 0 0 .477.45h.027a.478.478 0 0 0 .45-.504 46.04 46.04 0 0 0-.036-.578.478.478 0 1 0-.953.065M91.485 76.747a.484.484 0 0 0 .212-.05l.508-.25a.477.477 0 1 0-.415-.86 44.65 44.65 0 0 0-.518.254.478.478 0 0 0 .213.906M88.798 78.194c.082 0 .165-.02.24-.065.163-.095.327-.189.49-.281a.479.479 0 0 0-.47-.833c-.167.095-.334.191-.5.288a.478.478 0 0 0 .24.89M86.21 79.815a.476.476 0 0 0 .266-.082c.157-.105.314-.21.473-.313a.478.478 0 0 0-.524-.8l-.482.32a.478.478 0 0 0 .267.875M67.805 103.67a.479.479 0 0 0 .606-.3c.06-.181.122-.36.185-.54a.478.478 0 0 0-.902-.316 63.87 63.87 0 0 0-.189.55c-.084.25.05.52.3.605M156.026 103.115c.062.178.122.358.182.538a.477.477 0 1 0 .907-.3c-.06-.183-.122-.366-.185-.549a.477.477 0 1 0-.904.31M65.585 115.66a.477.477 0 0 0 .507-.447c.01-.188.024-.377.039-.565a.479.479 0 0 0-.954-.072c-.014.193-.028.385-.04.578a.478.478 0 0 0 .448.507M65.658 121.772a.478.478 0 0 0 .445-.509 33.299 33.299 0 0 1-.034-.567.478.478 0 1 0-.955.052l.035.579a.478.478 0 0 0 .477.445h.032M66.896 127.259l-.107-.557a.478.478 0 0 0-.94.175l.11.569a.478.478 0 0 0 .937-.187M73.08 92.65a.479.479 0 0 0 .663-.133c.105-.157.211-.314.318-.47a.478.478 0 0 0-.788-.54c-.11.16-.218.32-.326.48a.478.478 0 0 0 .133.663M65.99 124.81a.478.478 0 0 0 .412-.536 41.853 41.853 0 0 1-.071-.564.478.478 0 0 0-.949.114c.023.192.047.384.072.575a.478.478 0 0 0 .537.411M65.844 112.614a.478.478 0 0 0 .535-.413c.024-.187.049-.375.076-.562a.479.479 0 0 0-.947-.133c-.027.19-.053.382-.077.574a.478.478 0 0 0 .413.534M70.081 97.984a.48.48 0 0 0 .64-.218c.083-.17.168-.34.254-.51a.478.478 0 1 0-.853-.432c-.087.173-.174.346-.259.52a.478.478 0 0 0 .218.64M71.494 95.267a.477.477 0 0 0 .652-.175c.095-.165.19-.329.287-.491a.478.478 0 0 0-.823-.487l-.292.5a.478.478 0 0 0 .176.653M66.3 109.592a.478.478 0 0 0 .561-.377c.037-.186.074-.372.113-.556a.478.478 0 1 0-.936-.195c-.039.188-.077.378-.114.567-.051.26.118.51.377.561M68.85 100.788a.477.477 0 0 0 .624-.26c.072-.175.145-.35.22-.524a.478.478 0 0 0-.879-.376c-.076.178-.151.357-.225.536a.477.477 0 0 0 .26.624M66.956 106.606a.477.477 0 0 0 .584-.34c.048-.183.098-.365.148-.547a.477.477 0 1 0-.92-.257c-.052.187-.102.373-.152.56a.478.478 0 0 0 .34.584M67.586 130.204c-.05-.182-.097-.365-.144-.548a.478.478 0 1 0-.926.236c.048.188.097.374.147.56a.48.48 0 0 0 .586.338.478.478 0 0 0 .337-.586M65.522 118.717h.001a.478.478 0 0 0 .477-.48v-.088c0-.16 0-.32.003-.479a.479.479 0 0 0-.474-.483h-.004a.479.479 0 0 0-.479.474l-.002.488v.09c0 .265.214.478.478.478M135.28 78.01c.165.095.328.19.491.287a.477.477 0 0 0 .487-.823 63.429 63.429 0 0 0-.502-.293.479.479 0 0 0-.476.83M145.28 85.745a.477.477 0 0 0 .675.005.478.478 0 0 0 .007-.675 49.65 49.65 0 0 0-.409-.41.477.477 0 1 0-.674.677c.135.134.268.268.4.403M140.32 81.364c.151.115.3.23.45.348a.48.48 0 0 0 .671-.082.479.479 0 0 0-.081-.671c-.153-.119-.306-.237-.46-.354a.478.478 0 0 0-.58.76M137.856 79.605c.157.105.315.21.47.317a.474.474 0 0 0 .665-.124.479.479 0 0 0-.125-.665l-.48-.324a.479.479 0 0 0-.53.796M129.84 75.343l.526.22a.479.479 0 0 0 .374-.88c-.178-.075-.357-.15-.536-.223a.478.478 0 0 0-.364.883M127 74.283c.18.06.36.122.537.185a.48.48 0 0 0 .61-.293.479.479 0 0 0-.293-.61 64.04 64.04 0 0 0-.55-.188.479.479 0 0 0-.305.906M132.605 76.588c.17.083.34.168.509.254a.475.475 0 0 0 .642-.211.478.478 0 0 0-.21-.643 52.669 52.669 0 0 0-.52-.259.479.479 0 0 0-.421.859M158.52 111.398a.477.477 0 0 0-.41.537c.026.187.05.375.073.563a.477.477 0 0 0 .948-.116 47.24 47.24 0 0 0-.074-.574.476.476 0 0 0-.537-.41M156.914 106.007c.05.182.098.365.146.548a.478.478 0 1 0 .925-.239 44.591 44.591 0 0 0-.149-.56.478.478 0 0 0-.922.25M155.166 100.812a.477.477 0 1 0 .886-.359 44.15 44.15 0 0 0-.22-.533.479.479 0 0 0-.882.37c.074.173.145.347.216.522M153.942 98.052a.48.48 0 0 0 .639.223.478.478 0 0 0 .222-.638 44.652 44.652 0 0 0-.254-.52.478.478 0 0 0-.855.427l.248.508M149.226 90.326a.478.478 0 0 0 .763-.575 50.016 50.016 0 0 0-.351-.46.479.479 0 0 0-.757.585l.345.45M150.966 92.798a.476.476 0 0 0 .662.138.48.48 0 0 0 .137-.663 50.48 50.48 0 0 0-.32-.481.478.478 0 0 0-.793.534c.106.157.21.314.314.472M147.327 87.971a.478.478 0 1 0 .724-.623 39.306 39.306 0 0 0-.38-.437.478.478 0 1 0-.716.633c.125.142.249.284.372.427M124.1 73.415l.548.148a.48.48 0 0 0 .589-.332.478.478 0 0 0-.333-.589 44.557 44.557 0 0 0-.56-.15.477.477 0 1 0-.244.923M106.028 72.298c.021 0 .043-.001.064-.004.187-.025.375-.049.563-.071a.478.478 0 0 0-.114-.95 66.77 66.77 0 0 0-.575.074.478.478 0 0 0 .062.951M100.038 73.501a.486.486 0 0 0 .125-.017c.182-.049.365-.097.55-.144a.478.478 0 0 0-.239-.926c-.188.048-.374.097-.56.148a.478.478 0 0 0 .124.94M94.26 75.48a.469.469 0 0 0 .183-.038c.175-.072.348-.144.523-.214a.478.478 0 0 0-.357-.886 44.21 44.21 0 0 0-.534.219.478.478 0 0 0 .185.919M97.115 74.395c.05 0 .103-.007.154-.026l.54-.18a.477.477 0 1 0-.3-.908c-.183.06-.366.121-.548.184a.478.478 0 0 0 .154.93M109.07 71.994l.033-.001c.188-.013.377-.025.566-.035a.478.478 0 1 0-.052-.954c-.194.01-.386.022-.579.035a.478.478 0 0 0 .032.955M103.014 72.801a.484.484 0 0 0 .094-.01c.186-.037.371-.073.557-.108a.478.478 0 0 0-.176-.939l-.57.111a.477.477 0 0 0 .095.946M157.61 108.951c.037.185.074.37.109.557a.477.477 0 1 0 .939-.177c-.036-.19-.074-.38-.112-.569a.478.478 0 0 0-.936.189M121.152 72.74c.185.036.371.074.557.112a.477.477 0 0 0 .193-.937 89.32 89.32 0 0 0-.568-.114.477.477 0 1 0-.182.939M112.126 71.887h.136l.433.001h.005a.478.478 0 0 0 .004-.955 40.854 40.854 0 0 0-.442-.002h-.138a.478.478 0 0 0 .002.956M115.152 71.975l.566.038.036.002a.478.478 0 0 0 .035-.955 70.383 70.383 0 0 0-.578-.039.477.477 0 1 0-.059.954M118.165 72.26c.188.023.376.049.563.074a.478.478 0 0 0 .132-.946 47.345 47.345 0 0 0-.575-.077.48.48 0 0 0-.535.415.48.48 0 0 0 .415.534M152.54 95.377a.479.479 0 0 0 .832-.471c-.095-.168-.19-.335-.287-.5a.478.478 0 0 0-.826.48c.095.163.188.327.282.49M135.408 158.213a49.24 49.24 0 0 1-.491.28.477.477 0 1 0 .468.833c.168-.094.335-.19.503-.286a.478.478 0 0 0-.48-.827M140.429 154.85c-.15.115-.3.23-.451.342a.478.478 0 1 0 .573.766c.154-.116.308-.233.46-.35a.478.478 0 1 0-.582-.758M137.973 156.613c-.157.105-.314.21-.473.313a.478.478 0 1 0 .522.8c.162-.105.323-.211.483-.318a.477.477 0 1 0-.532-.795M142.766 152.93a47.82 47.82 0 0 1-.43.371.477.477 0 1 0 .622.726c.147-.126.293-.251.438-.379a.478.478 0 1 0-.63-.718M143.728 82.943a39.383 39.383 0 0 0-.434-.384.478.478 0 1 0-.628.72l.425.376a.479.479 0 0 0 .637-.712M144.973 150.861c-.133.134-.268.267-.403.399a.478.478 0 1 0 .668.684c.137-.135.275-.27.411-.407a.478.478 0 0 0-.676-.676M121.328 163.522c-.185.037-.372.073-.558.108a.477.477 0 1 0 .176.94l.568-.11a.477.477 0 1 0-.186-.938M147.042 148.653c-.124.142-.25.283-.376.424a.478.478 0 0 0 .71.64c.13-.144.258-.288.385-.434a.477.477 0 1 0-.719-.63M124.274 162.835c-.182.05-.365.097-.549.143a.479.479 0 0 0 .236.927c.188-.048.375-.097.561-.147a.477.477 0 0 0-.248-.923M132.746 159.64c-.168.083-.338.166-.509.248a.478.478 0 0 0 .414.86c.173-.082.346-.166.519-.252a.478.478 0 1 0-.424-.857M129.997 160.889c-.173.072-.347.143-.522.213a.479.479 0 0 0 .355.887c.18-.071.357-.144.534-.218a.478.478 0 1 0-.367-.882M127.17 161.956c-.18.06-.359.121-.539.18a.478.478 0 1 0 .296.908c.184-.06.368-.121.55-.183a.478.478 0 1 0-.308-.905M156.69 132.714a.478.478 0 0 0-.606.298c-.06.18-.123.36-.186.539a.478.478 0 0 0 .901.318c.065-.183.128-.366.19-.549a.477.477 0 0 0-.299-.606M158.67 123.772a.478.478 0 0 0-.536.412c-.025.188-.05.376-.078.562a.48.48 0 0 0 .475.546.477.477 0 0 0 .472-.41c.027-.19.053-.383.078-.574a.478.478 0 0 0-.412-.536M158.206 126.794a.479.479 0 0 0-.562.376c-.036.185-.074.37-.113.556a.478.478 0 1 0 .935.197c.04-.189.079-.378.116-.568a.478.478 0 0 0-.376-.561M157.546 129.779a.478.478 0 0 0-.585.338c-.05.183-.099.366-.15.548a.477.477 0 1 0 .92.257c.052-.185.103-.372.153-.558a.478.478 0 0 0-.338-.585M149.635 146.226a.478.478 0 0 0-.67.088c-.116.15-.232.3-.349.448a.478.478 0 1 0 .75.592c.12-.152.239-.304.356-.458a.478.478 0 0 0-.087-.67M159.48 117.966a.478.478 0 0 0-.479-.476h-.002a.478.478 0 0 0-.475.48v.179c0 .189-.001.378-.004.567a.478.478 0 0 0 .472.484H159c.26 0 .474-.21.477-.472.002-.193.003-.386.003-.58v-.182zM158.934 120.727a.477.477 0 0 0-.508.446c-.011.189-.025.377-.04.566a.478.478 0 1 0 .953.073c.015-.192.029-.385.042-.578a.478.478 0 0 0-.447-.507M151.394 143.723a.477.477 0 0 0-.663.13c-.105.158-.212.315-.32.471a.477.477 0 1 0 .788.541c.11-.159.218-.319.326-.48a.477.477 0 0 0-.131-.662M118.343 164.014a41.88 41.88 0 0 1-.564.07.479.479 0 0 0 .113.95c.192-.024.384-.047.575-.072a.479.479 0 0 0-.124-.948M152.986 141.108a.477.477 0 0 0-.653.175c-.095.164-.191.328-.288.49a.478.478 0 0 0 .821.49c.1-.167.197-.334.294-.501a.479.479 0 0 0-.174-.654M155.64 135.593a.478.478 0 0 0-.624.259l-.221.524a.478.478 0 1 0 .878.376c.076-.177.151-.355.226-.534a.479.479 0 0 0-.259-.625M154.404 138.395a.479.479 0 0 0-.64.216l-.256.509a.478.478 0 1 0 .852.434c.087-.172.175-.346.26-.52a.478.478 0 0 0-.216-.64M86.594 156.642a48.826 48.826 0 0 1-.47-.319.479.479 0 0 0-.541.789c.16.109.319.218.48.324a.48.48 0 0 0 .663-.131.479.479 0 0 0-.132-.663M79.181 150.488a.478.478 0 1 0-.682.669c.135.137.27.275.407.411a.475.475 0 0 0 .676 0 .478.478 0 0 0-.001-.676c-.135-.134-.267-.268-.4-.404M68.469 133.098a42.616 42.616 0 0 1-.18-.538.479.479 0 0 0-.909.298c.06.183.122.367.184.549a.48.48 0 0 0 .905-.309M81.367 152.582a.477.477 0 1 0-.639.712c.144.129.288.257.433.384a.477.477 0 1 0 .63-.718c-.142-.125-.284-.251-.424-.378M97.44 161.985c-.18-.06-.359-.122-.538-.185a.477.477 0 1 0-.318.9c.183.065.366.129.55.19a.479.479 0 0 0 .306-.906M94.6 160.92c-.174-.072-.35-.146-.524-.221a.479.479 0 0 0-.376.879c.178.076.356.151.535.225a.478.478 0 1 0 .366-.883M89.166 158.242c-.164-.095-.327-.19-.49-.287a.477.477 0 1 0-.488.822c.166.098.333.196.5.292a.474.474 0 0 0 .654-.175.478.478 0 0 0-.176-.652M91.839 159.67c-.17-.084-.34-.169-.509-.255a.478.478 0 0 0-.433.852c.172.088.346.175.52.26a.479.479 0 1 0 .422-.857M84.132 154.879a48.2 48.2 0 0 1-.448-.349.477.477 0 1 0-.59.751c.151.12.303.238.457.356a.478.478 0 0 0 .582-.758M70.542 138.165a.478.478 0 1 0-.86.414c.082.174.166.346.252.518a.477.477 0 1 0 .857-.424 50.146 50.146 0 0 1-.249-.508M77.138 148.258a.477.477 0 1 0-.725.621c.125.148.252.293.38.438a.478.478 0 0 0 .717-.631 65.155 65.155 0 0 1-.372-.428M69.325 135.403a.478.478 0 1 0-.887.356c.072.178.144.357.218.534a.478.478 0 1 0 .883-.367 37.829 37.829 0 0 1-.214-.523M71.94 140.842a.478.478 0 0 0-.833.47c.094.168.19.335.286.501a.479.479 0 1 0 .828-.48 37.31 37.31 0 0 1-.282-.49M75.245 145.9a.478.478 0 0 0-.764.574c.115.154.232.308.349.46a.48.48 0 0 0 .67.087.478.478 0 0 0 .088-.67c-.116-.15-.23-.3-.343-.451M73.51 143.425a.479.479 0 0 0-.801.522c.106.162.212.323.32.483a.475.475 0 0 0 .663.13.479.479 0 0 0 .13-.664c-.105-.156-.21-.313-.313-.471M106.27 164.026l-.562-.076a.48.48 0 0 0-.134.947l.575.077a.478.478 0 0 0 .122-.948M100.337 162.859a61.333 61.333 0 0 1-.547-.149.478.478 0 1 0-.258.92c.186.052.372.103.559.153a.478.478 0 0 0 .246-.924M115.332 164.31a45.07 45.07 0 0 1-.567.034.479.479 0 0 0 .025.955h.026l.579-.035a.478.478 0 0 0-.063-.954M103.285 163.54a62.502 62.502 0 0 1-.557-.113.478.478 0 0 0-.195.936c.188.039.378.078.567.114a.478.478 0 0 0 .185-.937M112.307 164.41h-.045c-.174 0-.348 0-.523-.002h-.005a.478.478 0 0 0-.006.955c.174.002.349.003.53.003h.05a.478.478 0 1 0 0-.956M109.283 164.316c-.19-.012-.378-.026-.567-.04a.478.478 0 1 0-.072.953c.192.016.385.028.578.041h.03a.478.478 0 0 0 .03-.954M124.132 158.78l-2.112-5.222c-.117-.288-.547-.172-.505.135l.782 5.578a.957.957 0 1 0 1.835-.492M130.852 149.825c-.187-.247-.573-.024-.453.261l2.2 5.186a.957.957 0 1 0 1.645-.949l-3.392-4.498zM142.945 148.832a.957.957 0 0 0-.087-1.431l-4.44-3.466c-.246-.191-.56.125-.37.369l3.466 4.44a.957.957 0 0 0 1.431.088M75.138 97.812l5.186 2.198c.285.122.509-.265.26-.452l-4.496-3.391a.957.957 0 1 0-.95 1.645M149.386 138.485l-5.186-2.198c-.286-.122-.509.265-.261.452l4.497 3.391a.957.957 0 1 0 .95-1.645M70.348 106.918a.957.957 0 0 0 .791 1.195l5.579.782c.307.043.422-.388.135-.505l-5.222-2.111a.957.957 0 0 0-1.283.639M154.176 129.38a.957.957 0 0 0-.792-1.196l-5.578-.782c-.307-.043-.423.388-.135.504l5.222 2.112a.956.956 0 0 0 1.283-.639M155.654 118.148a.957.957 0 0 0-1.074-.95l-5.59.69c-.308.037-.308.484 0 .521l5.59.69a.957.957 0 0 0 1.074-.95M152.893 106.278l-5.222 2.112c-.288.116-.172.548.135.505l5.579-.782a.957.957 0 1 0-.492-1.835M144.2 100.01l5.186-2.198a.958.958 0 1 0-.95-1.646l-4.497 3.392c-.248.187-.025.573.26.452"/>
            <path d="M146.86 152.746c-9.242 9.24-21.53 14.33-34.598 14.33-13.07 0-25.356-5.09-34.598-14.33-9.241-9.241-14.33-21.529-14.33-34.597 0-13.07 5.089-25.356 14.33-34.598 9.242-9.241 21.528-14.33 34.598-14.33 13.069 0 25.356 5.089 34.597 14.33 9.241 9.242 14.33 21.528 14.33 34.598 0 13.068-5.089 25.356-14.33 34.597m1.082-70.276c-9.53-9.53-22.202-14.779-35.679-14.779-13.478 0-26.149 5.248-35.679 14.78-9.53 9.53-14.778 22.2-14.778 35.678 0 13.477 5.248 26.148 14.778 35.678 9.53 9.53 22.201 14.779 35.679 14.779 13.477 0 26.149-5.249 35.679-14.779 9.53-9.53 14.778-22.201 14.778-35.678 0-13.478-5.249-26.149-14.778-35.679"/>
            <path d="M91.63 90.527l-.65-.735-2.7 2.386-4.679-5.298-.846.747 5.329 6.033zM93.71 89.215l-4.46-6.7-.94.626 4.461 6.7zM95.545 88.02l1.023-.476-1.559-3.349 1.085-.505 3.502 2.444 1.158-.538-4.029-2.766-.01-.02.508-4.45-1.127.526-.41 3.925-1.086.506-1.428-3.07-1.024.476zM101.987 85.279l4.73-1.152-.233-.953-3.633.886-.612-2.515 2.802-.682-.232-.952-2.802.682-.596-2.448 3.444-.839-.232-.952-4.54 1.106zM114.86 84.016c2.014.119 3.193-1.091 3.193-1.091l-.556-.843s-1.029.99-2.542.9c-1.787-.105-2.897-1.632-2.796-3.35.101-1.708 1.354-3.004 3.151-2.898 1.389.081 2.27 1.012 2.27 1.012l.608-.81s-.928-1.115-2.863-1.23c-2.333-.136-4.19 1.537-4.327 3.869-.138 2.356 1.45 4.3 3.862 4.441M121.1 80.61c.532-1.674 2.204-2.529 3.769-2.03 1.564.498 2.423 2.16 1.89 3.832-.55 1.728-2.225 2.63-3.79 2.131-1.564-.498-2.42-2.207-1.87-3.933m1.555 4.922c2.216.706 4.494-.508 5.213-2.767.702-2.205-.47-4.458-2.687-5.163-2.216-.706-4.487.45-5.19 2.654-.719 2.26.448 4.57 2.664 5.276M128.954 88.104l3.8-7.095-.996-.533-3.798 7.096zM136.708 83.43l-.88-.688-4.956 6.34.889.695 3.214-4.113c.281-.36.66-.974.66-.974l.02.015s-.154.806-.194 1.338l-.387 6.325.871.681 4.956-6.34-.888-.695-3.222 4.122c-.274.35-.654.965-.654.965l-.018-.014s.153-.806.186-1.33l.403-6.327z"/>
        </g>
        <path fill="url(#a)" d="M103.297 189.705h-66.07a2.387 2.387 0 1 1 0-4.774h66.07a2.387 2.387 0 1 1 0 4.774zm0 16.313h-66.07a2.387 2.387 0 1 1 0-4.775h66.07a2.387 2.387 0 1 1 0 4.775z" transform="translate(42 .297)"/>
        <path fill="url(#b)" d="M31.832 238.463h118.891V75.698h6.367V244.83H31.832v-6.367zm-12.733-6.366v-6.366H137.99V62.965h6.367v169.132H19.1zM6.366 219.364h125.258V50.232H6.366v169.132zm135.473 54.116a5.79 5.79 0 0 1-5.783 5.782 5.79 5.79 0 0 1-5.783-5.782 5.79 5.79 0 0 1 5.783-5.783 5.79 5.79 0 0 1 5.783 5.783zm-58.346-6.434a5.788 5.788 0 0 1-5.764 5.801 5.788 5.788 0 0 1-5.8-5.763 5.789 5.789 0 0 1 5.763-5.802 5.788 5.788 0 0 1 5.801 5.764zm-32.82 16.012a5.789 5.789 0 0 1-5.765 5.801 5.789 5.789 0 0 1-5.8-5.763 5.789 5.789 0 0 1 5.763-5.801 5.788 5.788 0 0 1 5.801 5.763zM20.365 21.402a5.79 5.79 0 0 1 5.783-5.784 5.79 5.79 0 0 1 5.782 5.784 5.79 5.79 0 0 1-5.782 5.782 5.79 5.79 0 0 1-5.783-5.782zm52.754 6.366a5.79 5.79 0 0 1 5.783-5.783 5.79 5.79 0 0 1 5.783 5.783 5.79 5.79 0 0 1-5.783 5.782 5.79 5.79 0 0 1-5.783-5.782zm28.882-15.12a5.789 5.789 0 0 1 5.782-5.783 5.789 5.789 0 0 1 5.782 5.783 5.788 5.788 0 0 1-5.782 5.782 5.788 5.788 0 0 1-5.782-5.782zm61.454 238.548V69.332h-12.733V56.599H137.99V43.866h-27.023V24.359c5.158-1.405 8.965-6.115 8.965-11.711 0-6.699-5.449-12.15-12.148-12.15-6.7 0-12.148 5.451-12.148 12.15 0 5.596 3.808 10.306 8.965 11.71v19.508H82.086v-4.387c5.158-1.404 8.966-6.115 8.966-11.711 0-6.699-5.45-12.149-12.149-12.149-6.698 0-12.149 5.45-12.149 12.149 0 5.596 3.809 10.307 8.966 11.711v4.387H29.332V33.112c5.157-1.404 8.965-6.115 8.965-11.71 0-6.7-5.45-12.15-12.148-12.15-6.7 0-12.15 5.45-12.15 12.15 0 5.595 3.81 10.306 8.967 11.71v10.754H0v181.865h12.733v12.732h12.733v12.733h16.221v20.176c-5.162 1.414-8.964 6.142-8.946 11.744.022 6.698 5.49 12.131 12.188 12.11 6.699-.022 12.131-5.49 12.11-12.188-.018-5.59-3.833-10.284-8.986-11.677v-20.165h26.494v4.153c-5.182 1.402-9.003 6.139-8.985 11.755.022 6.699 5.49 12.132 12.188 12.11 6.699-.022 12.131-5.49 12.11-12.189-.018-5.575-3.814-10.26-8.947-11.667v-4.162h51.96v10.572c-5.157 1.404-8.966 6.115-8.966 11.712 0 6.699 5.45 12.148 12.149 12.148 6.699 0 12.149-5.45 12.149-12.148 0-5.597-3.809-10.308-8.966-11.712v-10.572h24.217z" transform="translate(42 .297)"/>
    </g>
</svg>
