<?xml version="1.0" encoding="UTF-8"?>
<svg enable-background="new 0 0 26 26" version="1.1" viewBox="0 0 26 26" xml:space="preserve" xmlns="http://www.w3.org/2000/svg">
<style type="text/css">
	.st0{fill:#FBBB00;}
	.st1{fill:#518EF8;}
	.st2{fill:#28B446;}
	.st3{fill:#F14336;}
</style>
<path class="st0" d="m7.3 15.2-0.7 2.7-2.6 0.1c-0.8-1.5-1.2-3.1-1.2-4.9 0-1.7 0.4-3.3 1.2-4.7l2.3 0.4 1 2.3c-0.2 0.6-0.3 1.3-0.3 2-0.1 0.7 0 1.4 0.3 2.1z"/>
<path class="st1" d="m23.1 11.1c0.1 0.6 0.2 1.3 0.2 1.9 0 0.7-0.1 1.5-0.2 2.2-0.5 2.4-1.8 4.4-3.6 5.9l-2.9-0.2-0.4-2.6c1.2-0.7 2.1-1.8 2.6-3.1h-5.5v-4.1h9.8z"/>
<path class="st2" d="m19.5 21c-1.8 1.4-4 2.3-6.5 2.3-3.9 0-7.3-2.2-9.1-5.4l3.3-2.7c0.9 2.3 3.1 4 5.7 4 1.1 0 2.2-0.3 3.1-0.8l3.5 2.6z"/>
<path class="st3" d="m19.6 5.1-3.3 2.7c-0.9-0.6-2.1-0.9-3.2-0.9-2.7 0-5 1.7-5.8 4.1l-3.5-2.7c1.8-3.4 5.2-5.6 9.2-5.6 2.5 0 4.8 0.9 6.6 2.4z"/>
</svg>
