<svg xmlns="http://www.w3.org/2000/svg" viewBox="0 0 318.6 318.6"><title>matters</title><path d="M159.25,289.29a4.66,4.66,0,0,1-4.68-4.66h0V256.48L128,241.15l-.24-.15c-11.4-6.6-18.41-11.35-22.81-18.16s-5.85-15.33-5.85-29.08V142.31a4.68,4.68,0,1,1,9.35-.44,3.23,3.23,0,0,1,0,.44v51.45c0,11.88,1,18.87,4.36,24s9.49,9.3,19.61,15.13l.26.13,26.54,15.33,26.53-15.33h0c10.27-5.92,16.47-10,19.86-15.28s4.35-12.11,4.35-24V142.29a4.68,4.68,0,1,1,9.36,0h0v51.45c0,13.75-1.36,22.13-5.85,29.08S202,234.47,190.44,241.13h0l-26.55,15.33v23.37a120.3,120.3,0,1,0-22.71-1.25,4.67,4.67,0,0,1-1.39,9.24,130,130,0,1,1,19.46,1.47Zm-32-183.88,17.15,9.91.24.15c4.14,2.39,7.39,4.28,9.94,6V65.09a4.68,4.68,0,0,1,9.35-.43,3.09,3.09,0,0,1,0,.43v56.33c2.56-1.67,5.81-3.56,9.95-6l.24-.15,17.15-9.91V90.89a4.69,4.69,0,0,1,9.37,0V193.8c0,19.8,0,19.89-19.31,31l-.24.15-19.23,11.1h0l-.1,0h-.43l-.2.06h-3l-.2-.06h-.5l-.1,0h0L138.07,225l-.24-.15c-19.3-11.1-19.3-11.23-19.3-31V90.89a4.68,4.68,0,0,1,9.35,0Zm20.54,57-10.33-6c-4-2.33-7.24-4.17-9.78-5.82l-.43-.24v9.08c0,11.2,0,13.76,6.82,18.28l10.33,6h0c4,2.32,7.2,4.16,9.73,5.8l.45.25v-10C154.57,169.38,154.38,166.83,147.76,162.44Zm-8.07-39-12.49-7.21v9.08c0,11.2,0,13.77,6.82,18.28l10.33,6c4,2.32,7.22,4.17,9.75,5.81l.45.26v-10c0-13.53-.32-13.8-14.6-22Zm51.54-7.21-12.48,7.21-.26.14c-14.29,8.25-14.6,8.51-14.61,22v10l.45-.27c2.54-1.63,5.74-3.48,9.76-5.8l10.33-6c6.81-4.51,6.81-7.06,6.81-18.28Zm-.43,34.46c-2.53,1.65-5.73,3.49-9.77,5.82l-10.33,6c-6.63,4.39-6.81,6.94-6.82,17.36v10l.45-.25c2.54-1.64,5.73-3.48,9.74-5.8h0l10.33-6c6.81-4.52,6.81-7.06,6.81-18.28v-9.08Zm-43.05,46-10.34-6a1.28,1.28,0,0,1-.25-.15c-3.9-2.25-7.06-4-9.5-5.66l-.44-.26v9.08c0,14.45,0,14.53,14.6,23l.26.13L154.57,224V214C154.57,203.61,154.38,201.07,147.75,196.67Zm43.08-11.78c-2.48,1.6-5.59,3.41-9.49,5.66l-.25.15-10.34,6c-6.63,4.4-6.82,6.94-6.83,17.36v10l12.49-7.21.26-.13c14.56-8.44,14.56-8.52,14.56-23v-9.08Z" style="fill:#bfa35e;fill-rule:evenodd"/></svg>