<svg xmlns="http://www.w3.org/2000/svg" xmlns:xlink="http://www.w3.org/1999/xlink" width="128" height="166" viewBox="0 0 128 166">
    <defs>
        <path id="a" d="M63.972.144C28.642.144 0 28.785 0 64.116s28.642 63.972 63.972 63.972c35.331 0 63.973-28.64 63.973-63.972 0-35.33-28.642-63.972-63.973-63.972z"/>
        <linearGradient id="b" x1="0%" y1="50%" y2="50%">
            <stop offset="0%" stop-color="#D1EFEF"/>
            <stop offset="100%" stop-color="#EFE6B3"/>
        </linearGradient>
        <path id="d" d="M.301.18h11.394v15.255H.3z"/>
        <path id="f" d="M.245.28H11.7v17.79H.245z"/>
        <path id="h" d="M.112.341h11.393v15.094H.112z"/>
    </defs>
    <g fill="none" fill-rule="evenodd">
        <g transform="translate(0 .232)">
            <mask id="c" fill="#fff">
                <use xlink:href="#a"/>
            </mask>
            <path fill="url(#b)" d="M63.972.144C28.642.144 0 28.785 0 64.116s28.642 63.972 63.972 63.972c35.331 0 63.973-28.64 63.973-63.972 0-35.33-28.642-63.972-63.973-63.972z" mask="url(#c)"/>
        </g>
        <path fill="#28646E" d="M14.06 161.577H7.942c-.233 0-.367-.133-.367-.368v-12.865c0-.468-.268-.735-.736-.735H4.734c-.469 0-.736.267-.736.735v15.092c0 .936.535 1.471 1.471 1.471h8.59c.469 0 .736-.267.736-.735v-1.86c0-.467-.267-.735-.735-.735M104.09 154.307h-2.366c-.454 0-.714.268-.714.736V164.172c0 .468.26.735.714.735h2.366c.454 0 .714-.267.714-.735V155.043c0-.468-.26-.736-.714-.736M101.809 151.928c.2-.12.168-.329.147-.493-.104-.814-.903-4.282-1.147-4.993-.123-.357-.345-.445-.608-.394-.347.066-.8.292-1.51.721s-1.122.725-1.342 1c-.167.21-.193.447.066.722.515.547 3.212 2.87 3.884 3.34.136.096.304.221.505.1l.005-.003zM103.898 147.342c.207.11.368-.024.498-.126.776-.606 3.015-2.728 3.703-3.54.244-.29.206-.524.028-.725-.235-.264-.66-.537-1.393-.928-.732-.39-1.196-.593-1.546-.64-.265-.037-.482.062-.586.425-.207.723-.822 4.228-.882 5.047-.013.165-.034.374.173.485l.005.002zM24.147 154.307h-2.366c-.454 0-.714.268-.714.736V164.172c0 .468.26.735.714.735h2.366c.455 0 .714-.267.714-.735V155.043c0-.468-.26-.736-.714-.736M21.866 151.928c.201-.12.168-.329.148-.493-.104-.814-.904-4.282-1.148-4.993-.123-.357-.344-.445-.608-.394-.347.066-.8.292-1.51.721s-1.121.725-1.342 1c-.166.21-.192.447.066.722.516.547 3.212 2.87 3.884 3.34.136.096.305.221.505.1l.005-.003zM23.955 147.342c.207.11.369-.024.499-.126.775-.606 3.015-2.728 3.702-3.54.245-.29.206-.524.028-.725-.234-.264-.66-.537-1.392-.928-.732-.39-1.197-.593-1.546-.64-.266-.037-.483.062-.587.425-.206.723-.821 4.228-.882 5.047-.012.165-.034.374.173.485l.005.002zM43.468 164.895H41.36c-.468 0-.736-.268-.736-.736v-3.11c0-1.17-.869-2.407-2.44-2.407-1.572 0-2.442 1.237-2.442 2.407v3.11c0 .468-.267.736-.735.736H32.9c-.468 0-.735-.268-.735-.736v-15.502c0-.469.267-.736.735-.736h2.107c.468 0 .735.267.735.736v6.574c0 .267.201.501.535.501.292 0 .703-.267.937-.635l2.835-4.179c.342-.472.635-.702 1.104-.702H43.6c.535 0 .803.435.502.903l-3.177 4.313c-.167.267-.2.501.2.702a5.463 5.463 0 0 1 3.077 4.915v3.11c0 .468-.267.736-.735.736"/>
        <g transform="translate(49.318 149.691)">
            <mask id="e" fill="#fff">
                <use xlink:href="#d"/>
            </mask>
            <path fill="#28646E" d="M8.308 6.036c0 .222-.126.348-.348.348H4.036c-.222 0-.348-.126-.348-.348v-.57c0-1.107.822-2.278 2.31-2.278 1.487 0 2.31 1.171 2.31 2.278v.57zM5.998.181C2.58.18.3 2.65.3 5.466v4.684c0 2.817 2.28 5.286 5.697 5.286 3.114 0 4.31-1.47 4.918-2.697.107-.216.19-.696-.19-.95l-1.487-.98c-.348-.222-.729-.19-.95.158-.601 1.013-1.303 1.462-2.291 1.462-1.488 0-2.31-1.171-2.31-2.279v-.57c0-.221.126-.348.348-.348h6.266c.886 0 1.393-.506 1.393-1.392V5.466c0-2.816-2.28-5.285-5.697-5.285z" mask="url(#e)"/>
        </g>
        <g transform="translate(66.635 147.056)">
            <mask id="g" fill="#fff">
                <use xlink:href="#f"/>
            </mask>
            <path fill="#28646E" d="M6.193 3.42c1.453 0 2.048.958 2.676 2.015.232.364.628.396.991.165l1.553-1.024c.397-.264.298-.76.199-.991C10.984 1.965 9.134.28 6.192.28 2.625.28.246 2.858.246 5.799v6.754c0 2.94 2.38 5.518 5.948 5.518 2.94 0 4.791-1.686 5.419-3.305.099-.231.198-.726-.199-.99L9.86 12.75c-.363-.231-.76-.198-.99.165-.629 1.057-1.224 2.015-2.677 2.015-1.553 0-2.412-1.222-2.412-2.378V5.799c0-1.157.859-2.38 2.412-2.38" mask="url(#g)"/>
        </g>
        <g transform="translate(82.824 149.691)">
            <mask id="i" fill="#fff">
                <use xlink:href="#h"/>
            </mask>
            <path fill="#28646E" d="M8.119 10.15c0 1.108-.823 2.279-2.31 2.279-1.488 0-2.31-1.171-2.31-2.279V5.626c0-1.107.822-2.278 2.31-2.278 1.487 0 2.31 1.17 2.31 2.278v4.524zM5.809.341C2.39.341.111 2.81.111 5.626v4.524c0 2.817 2.279 5.285 5.696 5.285 3.418 0 5.697-2.468 5.697-5.285V5.626c0-2.816-2.279-5.285-5.697-5.285z" mask="url(#i)"/>
        </g>
        <path fill="#28646E" d="M117.93 150.042c-1.17 0-2.04.301-2.909.77-.133.066-.3.1-.468-.135-.133-.2-.334-.3-.601-.3h-1.304c-.468 0-.735.267-.735.735v13.06c0 .468.267.735.735.735h2.106c.468 0 .735-.267.735-.735v-8.548c0-1.169.87-2.406 2.44-2.406 1.571 0 2.44 1.237 2.44 2.406v8.548c0 .468.268.735.736.735h2.106c.468 0 .735-.267.735-.735v-8.548c0-2.974-2.406-5.582-6.017-5.582M63.972 9.452c-30.27 0-54.896 24.626-54.896 54.896 0 30.271 24.626 54.897 54.896 54.897S118.87 94.62 118.87 64.348c0-30.27-24.627-54.896-54.897-54.896m0 114.87c-33.07 0-59.974-26.904-59.974-59.974 0-33.07 26.904-59.973 59.974-59.973 33.07 0 59.974 26.904 59.974 59.973 0 33.07-26.904 59.975-59.974 59.975"/>
        <path fill="#28646E" d="M60.008 53.393a1.705 1.705 0 0 1-1.129-2.985c4.816-4.246 6.946-7.747 7.324-8.406 1.418-2.468 3.694-3.745 6.083-3.42a1.706 1.706 0 0 1-.46 3.38c-1.395-.187-2.328 1.153-2.664 1.739-.425.74-2.81 4.665-8.027 9.265a1.699 1.699 0 0 1-1.127.427M31.296 82.301a1.705 1.705 0 0 1-1.093-3.016c1.688-1.407 5.106-3.61 6.277-4.195a1.706 1.706 0 0 1 1.526 3.051c-.883.442-4.11 2.506-5.62 3.765a1.698 1.698 0 0 1-1.09.395"/>
        <path fill="#28646E" d="M74.177 66.12c.678.634 1.465.361 2.187-.329C81.305 61.068 86.54 53.69 88.28 49.85c.372-.82 1.127-1.276 1.935-.951.952.382.936 2.017.077 3.794-2.274 4.701-5.45 9.878-11.705 16.351-.601.623-.513 1.443.028 1.93.552.497 1.449.465 2.285-.388 3.25-3.313 5.434-5.888 7.315-8.534.48-.7 1.062-.968 1.64-.853.82.164.95.951.7 1.902-.406 1.535-4.724 7.195-6.43 9.097-4.635 5.17-9.271 8.004-18.193 12.64-3.113 1.617-5.443 3.169-6.855 5.553-1.283 2.166-1.666 2.875-1.798 3.149-.508 1.052-.104 2.382.95 2.886a2.098 2.098 0 0 0 2.848-1.092c.012-.028-.068.033 1.613-2.803.81-1.368 2.561-3.405 5.254-4.632 8.922-4.067 12.577-7.285 17.756-12.464 2.361-2.362 5.627-7.425 6.516-8.922 2.493-4.198 1.184-7.796-1.066-8.407a.29.29 0 0 1-.18-.425c1.743-2.988 2.538-5.05 2.865-6.65.443-2.173-.172-4.81-3.154-5.454a.285.285 0 0 1-.211-.355c.188-.689.373-1.557.5-2.129.625-2.822-1.16-5.38-3.302-5.839-1.509-.323-2.85.023-4.022.84a.398.398 0 0 1-.518-.064c-.463-.498-1.206-1.02-2.228-1.038-1.87-.033-3.707.54-5.052 3.411-.962 2.056-2.394 4.811-6.592 9.469-3.893 4.318-9.316 8.528-12.662 10.726-.586.385-1.41.295-1.312-.492.157-1.252 1.5-9.66 1.728-12.136.372-4.024-1.793-5.861-4.22-6.189-1.998-.27-5.03.306-6.692 4.855-.974 2.665-3.004 7.046-4.723 14.104-1.21 4.964-1.41 10.75-.304 17.4.067.402-.007.814-.218 1.162-1.325 2.18-3.266 5.05-4.347 7.55-.434 1.003-.07 2.213.89 2.736a2.099 2.099 0 0 0 2.907-.946c.64-1.357 1.967-3.907 2.485-4.965.903-1.844 1.499-3.061 1.742-3.827.224-.7.355-1.51-.048-3.35-.68-3.099-.917-8.92.346-14.05 1.676-6.808 4.52-14.418 5.027-15.673.507-1.257 1.229-1.65 1.95-1.585.722.066 2.1.416 1.706 2.974-.707 4.598-1.706 10.431-2.034 12.4-.16.963-.346 3.214 1.433 4.245 1.388.805 2.915.357 4.603-.77 3.797-2.534 10.342-7.692 14.454-12.31 4.316-4.847 5.691-7.732 6.8-10.343.507-1.19 1.805-1.181 2.264-1.05.46.13 1.017.754.623 2.066-.956 3.188-4.898 10.485-12.486 17.33-.86.777-.74 1.694-.3 2.172.412.45 1.21.767 2.093.015 6.823-5.817 10.715-12.77 12.465-16.488.874-1.858 1.205-2.963 1.497-3.816.372-1.082 1.203-1.467 1.783-1.345.83.175 1.377 1.028 1.115 2.427-.228 1.217-.928 3.207-1.859 5.183-2.186 4.641-6.805 10.853-11.786 16.187-.533.57-.657 1.436 0 2.05M43.337 43.007c.265-.232.161-.53.087-.767-.367-1.173-2.46-6.077-3.01-7.06-.274-.496-.624-.566-1-.422-.493.19-1.102.643-2.036 1.462-.934.82-1.463 1.364-1.715 1.83-.19.353-.167.709.288 1.046.904.672 5.494 3.385 6.61 3.902.224.104.506.246.77.014l.006-.005zM33.322 44.654c-.566-.022-.807.241-.88.636-.095.52-.023 1.276.191 2.5.215 1.224.405 1.959.672 2.416.202.346.519.51 1.043.298 1.044-.424 5.748-2.935 6.77-3.62.205-.137.472-.305.411-.651v-.007M81.164 86.402c-.35.023-.45.323-.534.556-.421 1.155-1.737 6.322-1.9 7.436-.082.561.154.829.539.942.507.15 1.266.16 2.506.076 1.24-.083 1.99-.194 2.473-.41.367-.165.564-.462.408-1.006-.31-1.083-2.308-6.027-2.88-7.116-.115-.219-.253-.502-.604-.479h-.008zM84.147 84.006c-.162.312.042.553.197.746.768.96 4.499 4.769 5.367 5.488.436.36.787.298 1.084.029.392-.356.795-1 1.368-2.102.572-1.103.868-1.802.933-2.327.05-.398-.101-.721-.647-.87-1.087-.298-6.349-1.16-7.575-1.238-.248-.016-.562-.045-.723.267l-.004.007zM65.876 112.717a1.904 1.904 0 1 1-3.808 0 1.904 1.904 0 0 1 3.808 0M65.876 15.98a1.904 1.904 0 1 1-3.808 0 1.904 1.904 0 0 1 3.808 0M78.33 110.576a1.903 1.903 0 1 1-3.676.985 1.903 1.903 0 0 1 3.675-.985M53.292 17.136a1.903 1.903 0 1 1-3.676.985 1.903 1.903 0 0 1 3.676-.985M89.805 105.285a1.903 1.903 0 1 1-3.296 1.903 1.903 1.903 0 0 1 3.296-1.903M41.436 21.509a1.903 1.903 0 1 1-3.296 1.903 1.903 1.903 0 0 1 3.296-1.903M99.52 97.205a1.902 1.902 0 1 1-2.69 2.69 1.902 1.902 0 0 1 2.69-2.69M31.116 28.802a1.902 1.902 0 1 1-2.688 2.69 1.902 1.902 0 0 1 2.688-2.69M106.812 86.885a1.903 1.903 0 1 1-1.903 3.296 1.903 1.903 0 0 1 1.903-3.296M23.036 38.516a1.903 1.903 0 1 1-1.903 3.296 1.903 1.903 0 0 1 1.903-3.296M111.185 75.03a1.903 1.903 0 1 1-.985 3.675 1.903 1.903 0 0 1 .985-3.676M17.745 49.992a1.903 1.903 0 1 1-.986 3.677 1.903 1.903 0 0 1 .986-3.677M112.34 62.446a1.903 1.903 0 1 1 0 3.806 1.903 1.903 0 0 1 0-3.806M15.604 62.446a1.903 1.903 0 1 1 0 3.806 1.903 1.903 0 0 1 0-3.806M110.2 49.992a1.903 1.903 0 1 1 .985 3.676 1.903 1.903 0 0 1-.985-3.676M16.76 75.03a1.903 1.903 0 1 1 .985 3.675 1.903 1.903 0 0 1-.985-3.676M104.909 38.516a1.903 1.903 0 1 1 1.903 3.296 1.903 1.903 0 0 1-1.903-3.296M21.133 86.885a1.902 1.902 0 1 1 1.902 3.295 1.902 1.902 0 0 1-1.902-3.295M96.828 28.802a1.902 1.902 0 1 1 2.691 2.688 1.902 1.902 0 0 1-2.69-2.688M28.425 97.205a1.902 1.902 0 1 1 2.691 2.688 1.902 1.902 0 0 1-2.69-2.688M86.508 21.509a1.903 1.903 0 1 1 3.296 1.902 1.903 1.903 0 0 1-3.296-1.902M38.14 105.285a1.903 1.903 0 1 1 3.296 1.903 1.903 1.903 0 0 1-3.296-1.903M74.653 17.136a1.903 1.903 0 1 1 3.677.985 1.903 1.903 0 0 1-3.677-.985M49.616 110.576a1.902 1.902 0 1 1 3.675.984 1.902 1.902 0 0 1-3.675-.984"/>
    </g>
</svg>
