<svg xmlns="http://www.w3.org/2000/svg" width="128" height="128" viewBox="0 0 128 128">
    <defs>
        <linearGradient id="a" x1="0%" y1="50%" y2="50%">
            <stop offset="0%" stop-color="#D1EFEF"/>
            <stop offset="100%" stop-color="#EFE6B3"/>
        </linearGradient>
    </defs>
    <g fill="none" fill-rule="evenodd">
        <path fill="url(#a)" d="M63.972 0C28.642 0 0 28.642 0 63.973c0 35.33 28.642 63.972 63.972 63.972 35.331 0 63.973-28.642 63.973-63.972C127.945 28.642 99.303 0 63.972 0z"/>
        <g fill="#28646E">
            <path d="M63.972 9.075c-30.27 0-54.896 24.627-54.896 54.897s24.626 54.897 54.896 54.897 54.897-24.626 54.897-54.897c0-30.27-24.627-54.897-54.897-54.897m0 114.871c-33.07 0-59.974-26.904-59.974-59.974C3.998 30.902 30.903 4 63.972 4c33.07 0 59.974 26.904 59.974 59.973 0 33.07-26.904 59.974-59.974 59.974"/>
            <path d="M60.007 53.016a1.706 1.706 0 0 1-1.129-2.985c4.817-4.246 6.947-7.746 7.325-8.405 1.418-2.468 3.694-3.745 6.083-3.42a1.706 1.706 0 1 1-.46 3.38c-1.394-.187-2.328 1.153-2.664 1.739-.425.74-2.81 4.665-8.027 9.265a1.7 1.7 0 0 1-1.128.426M31.296 81.925a1.706 1.706 0 0 1-1.093-3.016c1.688-1.407 5.106-3.61 6.277-4.195a1.705 1.705 0 1 1 1.526 3.05c-.883.442-4.11 2.507-5.62 3.765a1.7 1.7 0 0 1-1.09.396"/>
            <path d="M74.177 65.743c.677.634 1.465.362 2.186-.328 4.943-4.723 10.177-12.102 11.918-15.941.372-.82 1.127-1.276 1.935-.951.952.382.936 2.017.077 3.794-2.274 4.701-5.45 9.878-11.705 16.351-.601.623-.513 1.443.028 1.93.552.497 1.448.464 2.285-.388 3.25-3.313 5.434-5.888 7.315-8.534.48-.7 1.062-.969 1.64-.853.82.164.95.951.7 1.902-.406 1.535-4.724 7.195-6.43 9.097-4.635 5.17-9.272 8.004-18.193 12.64-3.113 1.617-5.442 3.168-6.855 5.553-1.283 2.166-1.666 2.875-1.798 3.149-.509 1.052-.104 2.382.951 2.886a2.097 2.097 0 0 0 2.847-1.092c.012-.028-.068.033 1.613-2.803.81-1.368 2.561-3.405 5.254-4.632 8.921-4.067 12.577-7.285 17.756-12.465 2.362-2.36 5.627-7.424 6.516-8.921 2.493-4.199 1.184-7.796-1.066-8.407a.29.29 0 0 1-.18-.425c1.743-2.988 2.538-5.05 2.864-6.65.444-2.173-.171-4.811-3.153-5.454a.285.285 0 0 1-.211-.355c.188-.689.373-1.557.5-2.129.625-2.822-1.159-5.38-3.302-5.839-1.508-.323-2.85.023-4.022.84a.398.398 0 0 1-.518-.064c-.464-.498-1.206-1.02-2.228-1.038-1.87-.033-3.707.54-5.052 3.411-.961 2.056-2.394 4.811-6.592 9.469-3.893 4.318-9.316 8.528-12.662 10.726-.586.385-1.41.295-1.312-.493.157-1.251 1.499-9.66 1.728-12.136.372-4.023-1.793-5.86-4.22-6.188-1.998-.27-5.03.306-6.692 4.854-.974 2.666-3.004 7.047-4.723 14.105-1.21 4.963-1.41 10.75-.303 17.4.067.401-.008.814-.22 1.162-1.324 2.18-3.265 5.05-4.346 7.55-.434 1.003-.07 2.213.89 2.736a2.096 2.096 0 0 0 2.907-.945c.64-1.358 1.967-3.908 2.485-4.966.903-1.844 1.499-3.062 1.743-3.827.222-.7.354-1.51-.05-3.35-.679-3.099-.916-8.92.347-14.05 1.676-6.808 4.52-14.418 5.027-15.674.507-1.256 1.229-1.65 1.95-1.584.722.066 2.1.416 1.706 2.974-.707 4.597-1.705 10.43-2.033 12.399-.161.964-.346 3.215 1.432 4.246 1.389.805 2.915.357 4.603-.77 3.797-2.534 10.342-7.692 14.454-12.31 4.316-4.847 5.691-7.733 6.801-10.344.506-1.19 1.804-1.18 2.263-1.05.46.132 1.017.755.623 2.067-.956 3.188-4.898 10.485-12.486 17.33-.86.776-.74 1.694-.3 2.172.412.45 1.211.767 2.093.015 6.823-5.817 10.715-12.77 12.465-16.488.874-1.858 1.205-2.963 1.498-3.816.371-1.082 1.202-1.467 1.782-1.345.83.175 1.377 1.028 1.115 2.427-.228 1.217-.928 3.207-1.859 5.183-2.186 4.641-6.804 10.853-11.786 16.186-.533.57-.657 1.437 0 2.051M43.337 42.63c.265-.231.161-.53.087-.766-.367-1.173-2.46-6.077-3.009-7.061-.275-.495-.625-.565-1-.421-.494.19-1.102.643-2.037 1.462-.934.82-1.463 1.364-1.715 1.83-.191.352-.167.708.288 1.046.904.671 5.494 3.385 6.61 3.902.224.104.506.245.77.013l.006-.005zM33.322 44.278c-.566-.022-.807.241-.88.636-.095.52-.023 1.276.191 2.5.215 1.224.405 1.958.672 2.415.202.347.519.512 1.043.299 1.044-.424 5.748-2.935 6.769-3.62.206-.137.473-.305.412-.651l-.001-.008M81.164 86.026c-.35.023-.45.323-.535.556-.42 1.155-1.737 6.322-1.899 7.436-.081.56.154.829.539.942.507.15 1.266.16 2.506.076 1.24-.083 1.99-.194 2.474-.41.366-.165.563-.462.407-1.006-.31-1.084-2.308-6.027-2.88-7.116-.115-.22-.254-.502-.604-.479h-.008zM84.147 83.63c-.162.312.042.552.197.746.768.96 4.499 4.769 5.367 5.487.436.361.787.3 1.084.03.393-.356.795-1 1.368-2.102.573-1.103.868-1.802.934-2.327.05-.399-.102-.722-.648-.87-1.086-.298-6.348-1.161-7.575-1.238-.248-.016-.562-.045-.724.267l-.003.007zM65.875 112.34a1.903 1.903 0 1 1-3.806 0 1.903 1.903 0 0 1 3.806 0M65.875 15.604a1.903 1.903 0 1 1-3.806 0 1.903 1.903 0 0 1 3.806 0M78.33 110.2a1.903 1.903 0 1 1-3.676.985 1.903 1.903 0 0 1 3.675-.985M53.292 16.76a1.903 1.903 0 1 1-3.675.985 1.903 1.903 0 0 1 3.675-.985M89.805 104.909a1.903 1.903 0 1 1-3.297 1.903 1.903 1.903 0 0 1 3.297-1.903M41.436 21.133a1.903 1.903 0 1 1-3.296 1.903 1.903 1.903 0 0 1 3.296-1.903M99.52 96.828a1.903 1.903 0 1 1-2.691 2.691 1.903 1.903 0 0 1 2.69-2.69M31.116 28.425a1.903 1.903 0 1 1-2.69 2.691 1.903 1.903 0 0 1 2.69-2.69M106.812 86.509a1.903 1.903 0 1 1-1.903 3.295 1.903 1.903 0 0 1 1.903-3.295M23.036 38.14a1.903 1.903 0 1 1-1.904 3.296 1.903 1.903 0 0 1 1.904-3.296M111.185 74.653a1.903 1.903 0 1 1-.984 3.676 1.903 1.903 0 0 1 .984-3.676M17.745 49.616a1.903 1.903 0 1 1-.985 3.676 1.903 1.903 0 0 1 .985-3.676M112.34 62.07a1.903 1.903 0 1 1 0 3.805 1.903 1.903 0 0 1 0-3.805M15.604 62.07a1.903 1.903 0 1 1 0 3.805 1.903 1.903 0 0 1 0-3.805M110.2 49.616a1.903 1.903 0 1 1 .985 3.676 1.903 1.903 0 0 1-.985-3.676M16.76 74.653a1.903 1.903 0 1 1 .986 3.675 1.903 1.903 0 0 1-.986-3.675M104.909 38.14a1.903 1.903 0 1 1 1.903 3.296 1.903 1.903 0 0 1-1.903-3.296M21.133 86.509a1.903 1.903 0 1 1 1.903 3.296 1.903 1.903 0 0 1-1.903-3.296M96.828 28.425a1.902 1.902 0 1 1 2.691 2.69 1.902 1.902 0 0 1-2.69-2.69M28.425 96.828a1.902 1.902 0 1 1 2.691 2.69 1.902 1.902 0 0 1-2.69-2.69M86.508 21.133a1.903 1.903 0 1 1 3.296 1.902 1.903 1.903 0 0 1-3.296-1.902M38.14 104.909a1.903 1.903 0 1 1 3.296 1.903 1.903 1.903 0 0 1-3.296-1.903M74.653 16.76a1.903 1.903 0 1 1 3.676.985 1.903 1.903 0 0 1-3.676-.985M49.616 110.2a1.903 1.903 0 1 1 3.675.985 1.903 1.903 0 0 1-3.675-.985"/>
        </g>
    </g>
</svg>
