<?xml version="1.0" encoding="UTF-8"?>
<svg width="160px" height="60px" viewBox="0 0 160 60" version="1.1" xmlns="http://www.w3.org/2000/svg" xmlns:xlink="http://www.w3.org/1999/xlink">
    <defs>
        <path d="M31.898044,0.0275894428 C14.2813418,0.0275894428 0,14.306346 0,31.9200469 C0,49.5335601 14.2813418,63.8123167 31.898044,63.8123167 C49.514934,63.8123167 63.7962758,49.5335601 63.7962758,31.9200469 C63.7962758,14.306346 49.514934,0.0275894428 31.898044,0.0275894428 Z" id="path-1"></path>
    </defs>
    <g id="New-Home" stroke="none" stroke-width="1" fill="none" fill-rule="evenodd">
        <g id="like_nland_phone_V2" transform="translate(-26.000000, -10.000000)">
            <g id="Logo" transform="translate(24.000000, 8.000000)">
                <g id="Group-3" transform="translate(0.000000, 0.160094)">
                    <mask id="mask-2" fill="white">
                        <use xlink:href="#path-1"></use>
                    </mask>
                    <g id="Clip-2"></g>
                </g>
                <g id="Group-94" transform="translate(1.877173, 2.036927)" fill="#28646E">
                    <path d="M30.0208902,2.67516246 C14.9274834,2.67516246 2.64814623,14.9524645 2.64814623,30.043139 C2.64814623,45.1340012 14.9274834,57.4111155 30.0208902,57.4111155 C45.1142969,57.4111155 57.3938218,45.1340012 57.3938218,30.043139 C57.3938218,14.9524645 45.1142969,2.67516246 30.0208902,2.67516246 M30.0208902,59.9422123 C13.5316178,59.9422123 0.116403476,46.5294264 0.116403476,30.043139 C0.116403476,13.5568516 13.5316178,0.144253372 30.0208902,0.144253372 C46.5103502,0.144253372 59.9253768,13.5568516 59.9253768,30.043139 C59.9253768,46.5294264 46.5103502,59.9422123 30.0208902,59.9422123" id="Fill-4"></path>
                    <path d="M28.0440021,24.5811425 C27.8082292,24.5811425 27.5737703,24.4837349 27.4055757,24.2932364 C27.0950913,23.9409548 27.1288804,23.4036176 27.481038,23.0930018 C29.8826927,20.9763097 30.9449847,19.2310428 31.1334528,18.9027848 C31.8402083,17.6723331 32.9749592,17.0357114 34.1664007,17.1976821 C34.6319395,17.2613067 34.9578167,17.6897877 34.8941805,18.1552422 C34.8307321,18.6203214 34.4032999,18.9478287 33.9366348,18.8828903 C33.2417054,18.7896117 32.7763543,19.4575765 32.6085351,19.7496117 C32.3966023,20.1184094 31.2079766,22.0751953 28.6060276,24.368685 C28.444403,24.5111367 28.2437333,24.5811425 28.0440021,24.5811425" id="Fill-6"></path>
                    <path d="M13.7277073,38.993173 C13.4838626,38.993173 13.2420827,38.8890088 13.0738881,38.6872493 C12.773165,38.3263343 12.8219715,37.7903109 13.1827641,37.4896422 C14.0244883,36.7880821 15.7289611,35.6899472 16.3127618,35.3982874 C16.7330607,35.1878944 17.2436517,35.3586862 17.4537073,35.778346 C17.6637629,36.1983812 17.4935034,36.7092551 17.0733921,36.919085 C16.6330074,37.1392375 15.0244582,38.1686804 14.2717119,38.7959179 C14.1127154,38.9284223 13.9195543,38.993173 13.7277073,38.993173" id="Fill-8"></path>
                    <path d="M35.1091543,30.9259073 C35.4470454,31.2421537 35.8397499,31.106271 36.1994162,30.7624352 C38.6637685,28.4077607 41.2739771,24.7291683 42.1419817,22.8151742 C42.3272586,22.4062123 42.7038195,22.1789279 43.1068484,22.3410862 C43.58121,22.5315848 43.5735136,23.3466933 43.1451428,24.2323707 C42.0111428,26.5761595 40.4273722,29.1571801 37.3088253,32.3842065 C37.0088531,32.6944469 37.0527789,33.1032211 37.3225286,33.346271 C37.5979098,33.5942006 38.0448647,33.5776845 38.4619724,33.1525818 C40.0821601,31.5009689 41.1714834,30.2174029 42.1093189,28.8981771 C42.3490338,28.5494616 42.639057,28.4154557 42.9270153,28.4730745 C43.3358635,28.5549044 43.4011891,28.9473501 43.275794,29.4214381 C43.0736225,30.1864352 40.9206932,33.0082534 40.070334,33.9564293 C37.7589713,36.5340716 35.4470454,37.946576 30.9985217,40.2577079 C29.4462876,41.064183 28.2848809,41.8374381 27.5805657,43.0264117 C26.941013,44.1061537 26.7499168,44.4595613 26.684028,44.596007 C26.430422,45.1207695 26.6320304,45.7834792 27.1582019,46.0347871 C27.304809,46.104793 27.4587372,46.1378252 27.6100373,46.1378252 C28.0211381,46.1378252 28.4112146,45.893837 28.5779075,45.4905056 C28.5837268,45.4764293 28.5441184,45.5070217 29.3819006,44.0930158 C29.7858681,43.4109748 30.6591289,42.3957959 32.0016827,41.7839484 C36.4502065,39.7562182 38.2729411,38.1520891 40.8553676,35.5699425 C42.032918,34.392793 43.6613652,31.8684528 44.1045657,31.122224 C45.3476294,29.0291801 44.6947488,27.2354909 43.5731381,26.9308809 C43.4804058,26.9055437 43.4351659,26.8023179 43.4834093,26.7193619 C44.3523525,25.229532 44.7484359,24.201966 44.9113745,23.4039367 C45.1326932,22.3208164 44.8259632,21.005532 43.338867,20.6851566 C43.2596503,20.6678897 43.2123455,20.5862475 43.2337453,20.5081713 C43.3274162,20.1647109 43.4197731,19.7317255 43.4830338,19.4466346 C43.7948322,18.0399484 42.9052401,16.7648282 41.8365657,16.5358545 C41.0845703,16.3748223 40.4159214,16.5469279 39.8313699,16.9540129 C39.7499006,17.0105056 39.6406491,16.9949279 39.5730709,16.9224821 C39.3418032,16.6743648 38.9716248,16.4140481 38.4619724,16.4050393 C37.5297685,16.3887109 36.6135205,16.6739894 35.9431822,18.1056375 C35.4635645,19.1303883 34.7493003,20.5040422 32.6558774,22.8260598 C30.7148809,24.9789748 28.0110014,27.0776493 26.3425703,28.1733443 C26.0501068,28.3653443 25.6393815,28.320488 25.6883757,27.9278545 C25.766466,27.3038076 26.4356781,23.1122768 26.5498102,21.8776962 C26.7352749,19.8719249 25.6557129,18.9560305 24.4454997,18.7925584 C23.4492841,18.6579894 21.937597,18.9451449 21.109013,21.2125466 C20.6233884,22.541532 19.6110292,24.72579 18.7539122,28.2441009 C18.1509643,30.718705 18.0507233,33.6035848 18.6026121,36.9186346 C18.6360257,37.1188927 18.5988577,37.3244059 18.4935483,37.4978252 C17.8329713,38.5846991 16.8652888,40.0152211 16.3259771,41.2616258 C16.1097268,41.7619894 16.2908739,42.3650158 16.769553,42.6260833 C16.9304267,42.7139191 17.1027511,42.7550217 17.2720721,42.7550217 C17.6645889,42.7550217 18.040962,42.5333677 18.2194811,42.1546229 C18.5386005,41.4780246 19.2001161,40.2066581 19.4586028,39.6790804 C19.9085611,38.7599953 20.2059052,38.1528399 20.3273583,37.7712798 C20.4384869,37.4218135 20.5040002,37.0184821 20.302955,36.1014616 C19.9641254,34.5562651 19.8458635,31.6544938 20.4756549,29.096746 C21.3115599,25.7024938 22.7293884,21.9090393 22.9822436,21.2829279 C23.2350987,20.6566287 23.5949527,20.460312 23.9548067,20.4931566 C24.3146607,20.5258135 25.0015182,20.7003589 24.8051659,21.9756669 C24.4526329,24.2676551 23.9548067,27.1758076 23.791305,28.1570158 C23.7111497,28.637485 23.6187928,29.7598311 24.5053815,30.2738956 C25.1978705,30.6751625 25.959064,30.4518194 26.8006005,29.890271 C28.6939168,28.6267871 31.9575692,26.054963 34.0078171,23.7526522 C36.1598079,21.3364176 36.845539,19.8978252 37.3989295,18.5962416 C37.6512216,18.0029748 38.2984707,18.0076669 38.527298,18.0729806 C38.7563131,18.1382944 39.0345101,18.4490979 38.8381578,19.1031742 C38.361356,20.6922886 36.3957685,24.3303413 32.6121393,27.7426111 C32.1830176,28.1298018 32.2434626,28.5871859 32.4625286,28.8257314 C32.668079,29.0494499 33.0664151,29.2078545 33.5062366,28.8328633 C36.9082366,25.9329689 38.8490454,22.4664587 39.7213676,20.6130862 C40.1574348,19.6866815 40.3222505,19.1358311 40.4682946,18.7107284 C40.6535715,18.171139 41.0680512,17.9795144 41.3569481,18.0403238 C41.7712401,18.1275965 42.0438056,18.5526991 41.9129666,19.2503179 C41.79921,19.8569103 41.4502436,20.8490041 40.9862065,21.8341537 C39.8959446,24.1479132 37.5932169,27.2444997 35.1091543,29.9035965 C34.8435344,30.1879367 34.7817754,30.6197959 35.1091543,30.9259073" id="Fill-10"></path>
                    <path d="M19.7318253,19.4033548 C19.8636028,19.2879296 19.8121683,19.1392845 19.7751879,19.0214194 C19.5919759,18.4365982 18.5480802,15.9918358 18.2747638,15.5012317 C18.1373548,15.2546158 17.9631532,15.2197067 17.7761868,15.2912141 C17.5295263,15.3856188 17.2263629,15.6117771 16.7604487,16.0203636 C16.2947221,16.4289501 16.0309794,16.7001525 15.9053965,16.9323167 C15.8100362,17.108176 15.8220501,17.2857243 16.0486248,17.4538886 C16.4997094,17.7885279 18.7883583,19.1415367 19.3443768,19.3994135 C19.456444,19.4512141 19.597232,19.5215953 19.7288218,19.4059824 L19.7318253,19.4033548 Z" id="Fill-12"></path>
                    <path d="M14.737889,20.2248446 C14.4557499,20.2139589 14.3354232,20.3449619 14.2993815,20.541654 C14.251889,20.8014076 14.2875553,21.1779003 14.3945541,21.7880587 C14.5017407,22.3984047 14.5965379,22.7645748 14.7296294,22.9924223 C14.8304336,23.1652786 14.9881161,23.2472962 15.249794,23.1412551 C15.770334,22.9299238 18.1154857,21.6778886 18.6247627,21.336868 C18.7272563,21.268176 18.8605356,21.1844692 18.8303131,21.0118006 L18.8295622,21.0080469" id="Fill-14"></path>
                    <path d="M38.5931868,41.0375132 C38.4182343,41.0491496 38.3688647,41.1985455 38.3266283,41.3147214 C38.1167604,41.8905337 37.4605008,44.4664868 37.3795947,45.0220293 C37.33886,45.3014897 37.4561833,45.4351202 37.6480304,45.4916129 C37.901261,45.5666862 38.2795112,45.5711906 38.8978519,45.5295249 C39.5161926,45.4878592 39.8903131,45.4326804 40.1311543,45.3245748 C40.3138032,45.2425572 40.4119794,45.0944751 40.3342644,44.8232727 C40.1793977,44.2833079 39.1835576,41.818651 38.8984151,41.2760587 C38.8409736,41.1666393 38.7718936,41.0255015 38.5971289,41.0371378 L38.5931868,41.0375132 Z" id="Fill-16"></path>
                    <path d="M40.0804519,39.8432282 C39.9995458,39.9986299 40.1014762,40.1185595 40.178628,40.2148411 C40.561759,40.6932457 42.4220371,42.5924129 42.8547254,42.9507003 C43.0722897,43.1305009 43.2474299,43.0997208 43.3955388,42.9653396 C43.5911402,42.7877912 43.7916222,42.4670405 44.0773279,41.9173161 C44.3630336,41.3675918 44.5102039,41.0192516 44.5430545,40.7572457 C44.5678331,40.5586768 44.4923708,40.3976446 44.2201808,40.323322 C43.6784287,40.1750522 41.0547045,39.7448821 40.442934,39.706407 C40.3196037,39.698712 40.1630475,39.6840727 40.0821414,39.8396622 L40.0804519,39.8432282 Z" id="Fill-18"></path>
                    <path d="M30.9698385,54.1562933 C30.9698385,54.680305 30.5450343,55.1050323 30.0209277,55.1050323 C29.4968211,55.1050323 29.0722046,54.680305 29.0722046,54.1562933 C29.0722046,53.6324692 29.4968211,53.2075543 30.0209277,53.2075543 C30.5450343,53.2075543 30.9698385,53.6324692 30.9698385,54.1562933" id="Fill-20"></path>
                    <path d="M30.9698385,5.92992845 C30.9698385,6.45394018 30.5450343,6.87885513 30.0209277,6.87885513 C29.4968211,6.87885513 29.0722046,6.45394018 29.0722046,5.92992845 C29.0722046,5.4061044 29.4968211,4.98118944 30.0209277,4.98118944 C30.5450343,4.98118944 30.9698385,5.4061044 30.9698385,5.92992845" id="Fill-22"></path>
                    <path d="M37.1796382,53.0892012 C37.3153578,53.5951953 37.0148225,54.1154534 36.5087367,54.2509607 C36.0024633,54.3866557 35.482111,54.0861748 35.3465791,53.5801806 C35.2108596,53.0741865 35.5112072,52.5537408 36.0174806,52.4184211 C36.5235664,52.2827261 37.0439187,52.5830194 37.1796382,53.0892012" id="Fill-24"></path>
                    <path d="M24.6954264,6.50600352 C24.831146,7.01218534 24.5307984,7.5324434 24.0245249,7.66795073 C23.5182514,7.80364575 22.9980869,7.50316481 22.8623673,6.99717067 C22.7266477,6.49117654 23.0271831,5.97073079 23.5332688,5.83522346 C24.0395423,5.69952845 24.5598946,6.00000938 24.6954264,6.50600352" id="Fill-26"></path>
                    <path d="M42.9015233,50.4513689 C43.1635766,50.9051871 43.007959,51.4855038 42.5542463,51.747322 C42.100346,52.0093279 41.5201119,51.8539261 41.2580586,51.4001079 C40.9960053,50.9464774 41.1514352,50.3661607 41.6053356,50.1041548 C42.0592359,49.842149 42.63947,49.9977384 42.9015233,50.4513689" id="Fill-28"></path>
                    <path d="M18.7839845,8.68617009 C19.0460378,9.13998827 18.8904202,9.72030499 18.4367075,9.98212317 C17.9828072,10.244129 17.4025731,10.0887273 17.1405198,9.63490909 C16.8784665,9.18127859 17.0338964,8.60096188 17.4877968,8.33895601 C17.9416971,8.07695015 18.5219312,8.23235191 18.7839845,8.68617009" id="Fill-30"></path>
                    <path d="M47.7456049,46.4229724 C48.1161587,46.7934592 48.1161587,47.3940457 47.7456049,47.7645326 C47.375051,48.1350194 46.7743557,48.1350194 46.4038019,47.7645326 C46.0330603,47.3940457 46.0330603,46.7934592 46.4038019,46.4229724 C46.7743557,46.0522979 47.375051,46.0522979 47.7456049,46.4229724" id="Fill-32"></path>
                    <path d="M13.63826,12.3218018 C14.0088139,12.6922886 14.0088139,13.2928751 13.63826,13.6633619 C13.2677061,14.0338487 12.6670109,14.0338487 12.296457,13.6633619 C11.9257154,13.2928751 11.9257154,12.6922886 12.296457,12.3218018 C12.6670109,11.9511273 13.2677061,11.9511273 13.63826,12.3218018" id="Fill-34"></path>
                    <path d="M51.3818009,41.2781795 C51.8357013,41.5401853 51.9911312,42.1203144 51.7290779,42.5741326 C51.4672123,43.027763 50.8867905,43.1833525 50.4328902,42.9213466 C49.9789898,42.6593408 49.8235599,42.0792117 50.0856132,41.6253935 C50.3476665,41.171763 50.9280883,41.0161736 51.3818009,41.2781795" id="Fill-36"></path>
                    <path d="M9.60902155,17.1648938 C10.0627342,17.4268997 10.2183518,18.0070287 9.95629849,18.4608469 C9.69424519,18.9146651 9.11401112,19.0700669 8.66011078,18.8082487 C8.20621043,18.5460551 8.05078053,17.9661138 8.31283384,17.5122956 C8.57488714,17.0584774 9.15530892,16.902888 9.60902155,17.1648938" id="Fill-38"></path>
                    <path d="M53.5623622,35.3677889 C54.068448,35.5032962 54.3689833,36.0235543 54.2332637,36.5295484 C54.0977319,37.0357302 53.5773796,37.3360235 53.0711061,37.2005161 C52.5650204,37.0648211 52.2644851,36.5447507 52.4002046,36.0385689 C52.5357365,35.5323871 53.0560888,35.2320938 53.5623622,35.3677889" id="Fill-40"></path>
                    <path d="M6.97080556,22.8857619 C7.47707903,23.0214569 7.77742665,23.541715 7.64170707,24.0477091 C7.5061752,24.5538909 6.98582294,24.8541842 6.47954948,24.7186768 C5.97346373,24.5829818 5.67292839,24.0627238 5.80864797,23.5565419 C5.94436756,23.0505478 6.4645321,22.7500669 6.97080556,22.8857619" id="Fill-42"></path>
                    <path d="M54.1385228,29.0945126 C54.6626294,29.0945126 55.0874336,29.5192399 55.0874336,30.0432516 C55.0874336,30.5672633 54.6626294,30.9918029 54.1385228,30.9918029 C53.6144162,30.9918029 53.1896121,30.5672633 53.1896121,30.0432516 C53.1896121,29.5192399 53.6144162,29.0945126 54.1385228,29.0945126" id="Fill-44"></path>
                    <path d="M5.90344519,29.0945126 C6.4275518,29.0945126 6.85235597,29.5192399 6.85235597,30.0432516 C6.85235597,30.5672633 6.4275518,30.9918029 5.90344519,30.9918029 C5.37933859,30.9918029 4.95453441,30.5672633 4.95453441,30.0432516 C4.95453441,29.5192399 5.37933859,29.0945126 5.90344519,29.0945126" id="Fill-46"></path>
                    <path d="M53.0711625,22.8857619 C53.5772482,22.7500669 54.0976005,23.0505478 54.23332,23.5565419 C54.3690396,24.0627238 54.0685043,24.5829818 53.5624185,24.7186768 C53.0561451,24.8541842 52.5357928,24.5538909 52.400261,24.0477091 C52.2645414,23.541715 52.564889,23.0214569 53.0711625,22.8857619" id="Fill-48"></path>
                    <path d="M6.47960579,35.3677889 C6.98587926,35.2320938 7.50623152,35.5323871 7.64176338,36.0385689 C7.77748297,36.5447507 7.47694762,37.0648211 6.97086188,37.2005161 C6.46458841,37.3360235 5.94423615,37.0357302 5.80870429,36.5295484 C5.6729847,36.0235543 5.97352005,35.5032962 6.47960579,35.3677889" id="Fill-50"></path>
                    <path d="M50.4329465,17.1648938 C50.8866591,16.902888 51.4670809,17.0584774 51.7291342,17.5122956 C51.9911875,17.9661138 51.8357576,18.5460551 51.3818572,18.8082487 C50.9279569,19.0700669 50.3475351,18.9146651 50.0856695,18.4608469 C49.8236162,18.0070287 49.9790461,17.4268997 50.4329465,17.1648938" id="Fill-52"></path>
                    <path d="M8.66016709,41.2781795 C9.11387972,41.0161736 9.69430151,41.171763 9.95635481,41.6253935 C10.2184081,42.0792117 10.0627905,42.6593408 9.60907787,42.9213466 C9.15517752,43.1833525 8.57475574,43.027763 8.31270243,42.5741326 C8.05083685,42.1203144 8.20626674,41.5401853 8.66016709,41.2781795" id="Fill-54"></path>
                    <path d="M46.403708,12.3218018 C46.7742619,11.9511273 47.3749571,11.9511273 47.745511,12.3218018 C48.1162526,12.6922886 48.1162526,13.2928751 47.745511,13.6633619 C47.3749571,14.0338487 46.7742619,14.0338487 46.403708,13.6633619 C46.0331541,13.2928751 46.0331541,12.6922886 46.403708,12.3218018" id="Fill-56"></path>
                    <path d="M12.2963632,46.4229724 C12.666917,46.0522979 13.2676123,46.0522979 13.6381662,46.4229724 C14.0089078,46.7934592 14.0089078,47.3940457 13.6381662,47.7645326 C13.2676123,48.1350194 12.666917,48.1350194 12.2963632,47.7645326 C11.9258093,47.3940457 11.9258093,46.7934592 12.2963632,46.4229724" id="Fill-58"></path>
                    <path d="M41.2579835,8.68617009 C41.5200368,8.23235191 42.1002709,8.07695015 42.5541713,8.33895601 C43.0080716,8.60096188 43.1635015,9.18127859 42.9014482,9.63490909 C42.6393949,10.0887273 42.0591608,10.244129 41.6052605,9.98212317 C41.1515479,9.72030499 40.9959302,9.13998827 41.2579835,8.68617009" id="Fill-60"></path>
                    <path d="M17.1404447,50.4513689 C17.402498,49.9977384 17.9827321,49.842149 18.4366324,50.1041548 C18.8905328,50.3661607 19.0459627,50.9464774 18.7839094,51.4001079 C18.5218561,51.8539261 17.941622,52.0093279 17.4877217,51.747322 C17.034009,51.4855038 16.8783914,50.9051871 17.1404447,50.4513689" id="Fill-62"></path>
                    <path d="M35.3465416,6.50600352 C35.4820735,6.00000938 36.0024257,5.69952845 36.5086992,5.83522346 C37.0147849,5.97073079 37.3153203,6.49117654 37.1796007,6.99717067 C37.0438811,7.50316481 36.5237166,7.80364575 36.0174431,7.66795073 C35.5111696,7.5324434 35.210822,7.01218534 35.3465416,6.50600352" id="Fill-64"></path>
                    <path d="M22.8623486,53.0892012 C22.9980681,52.5830194 23.5182327,52.2827261 24.0245061,52.4184211 C24.5307796,52.5537408 24.8311272,53.0741865 24.6954076,53.5801806 C24.5598758,54.0861748 24.0395235,54.3866557 23.5332501,54.2509607 C23.0271643,54.1154534 22.726629,53.5951953 22.8623486,53.0892012" id="Fill-66"></path>
                    <path d="M81.1853145,35.0408258 L77.3742786,35.0408258 C77.2284222,35.0408258 77.1452635,34.9576821 77.1452635,34.8118522 L77.1452635,26.797776 C77.1452635,26.5061161 76.9785706,26.3398287 76.6870457,26.3398287 L75.374902,26.3398287 C75.0833771,26.3398287 74.9166841,26.5061161 74.9166841,26.797776 L74.9166841,36.1988317 C74.9166841,36.781776 75.25007,37.1151015 75.8333075,37.1151015 L81.1853145,37.1151015 C81.4770271,37.1151015 81.6435323,36.9484387 81.6435323,36.6569666 L81.6435323,35.4989607 C81.6435323,35.2074886 81.4770271,35.0408258 81.1853145,35.0408258" id="Fill-68"></path>
                    <path d="M87.4701636,30.5124035 L85.9962076,30.5124035 C85.71313,30.5124035 85.5513177,30.6788786 85.5513177,30.9703507 L85.5513177,33.8668669 L85.5513177,34.2621279 L85.5513177,36.6569666 C85.5513177,36.9484387 85.71313,37.1151015 85.9962076,37.1151015 L87.4701636,37.1151015 C87.7532413,37.1151015 87.9148658,36.9484387 87.9148658,36.6569666 L87.9148658,34.2621279 L87.9148658,33.8668669 L87.9148658,30.9703507 C87.9148658,30.6788786 87.7532413,30.5124035 87.4701636,30.5124035" id="Fill-70"></path>
                    <path d="M86.0488999,29.0305501 C86.1741073,28.9551015 86.1536461,28.8254123 86.1405059,28.7231249 C86.0761189,28.2161924 85.578105,26.0557701 85.4258663,25.6128375 C85.3492776,25.3902452 85.2113054,25.3360047 85.0472406,25.3673478 C84.831178,25.4086381 84.5488512,25.5495883 84.1064016,25.8168493 C83.663952,26.0839226 83.407718,26.2676645 83.2704966,26.4399578 C83.1665013,26.5705853 83.1501699,26.717729 83.311419,26.8892716 C83.6326032,27.2302921 85.3126728,28.6769548 85.7316577,28.9703038 C85.8159428,29.0292364 85.9208767,29.107688 86.0460841,29.0322393 L86.0488999,29.0305501 Z" id="Fill-72"></path>
                    <path d="M87.3502686,26.1736915 C87.4792304,26.2423836 87.5802222,26.1586768 87.6613161,26.0950522 C88.1441249,25.7174334 89.5394273,24.3955801 89.9679859,23.8892106 C90.1202246,23.7095977 90.0961968,23.5633924 89.9852559,23.438583 C89.8392118,23.2739848 89.5735919,23.103756 89.1176267,22.8603308 C88.6616614,22.6170933 88.3723891,22.4909701 88.1542616,22.4613161 C87.9888827,22.4387941 87.8541017,22.4999789 87.7893393,22.7263249 C87.6603775,23.1767648 87.2772466,25.3604598 87.2397031,25.8702076 C87.2320067,25.9728704 87.2184911,26.1033103 87.3474528,26.1720023 L87.3502686,26.1736915 Z" id="Fill-74"></path>
                    <path d="M99.5071766,37.1071625 L98.1948452,37.1071625 C97.9031326,37.1071625 97.7364396,36.9404997 97.7364396,36.6490276 L97.7364396,34.7117607 C97.7364396,33.9829865 97.1948753,33.2121713 96.2157421,33.2121713 C95.2366088,33.2121713 94.6948568,33.9829865 94.6948568,34.7117607 L94.6948568,36.6490276 C94.6948568,36.9404997 94.5283516,37.1071625 94.2366389,37.1071625 L92.9241198,37.1071625 C92.6324072,37.1071625 92.4657143,36.9404997 92.4657143,36.6490276 L92.4657143,26.9923472 C92.4657143,26.7006874 92.6324072,26.5342123 92.9241198,26.5342123 L94.2366389,26.5342123 C94.5283516,26.5342123 94.6948568,26.7006874 94.6948568,26.9923472 L94.6948568,31.0875965 C94.6948568,31.2540716 94.8196888,31.4000891 95.0282426,31.4000891 C95.2097652,31.4000891 95.4658116,31.2334264 95.6114802,31.0042651 L97.3777119,28.4012856 C97.590771,28.1073736 97.7737954,27.9637959 98.0653203,27.9637959 L99.5905231,27.9637959 C99.9240966,27.9637959 100.090602,28.2348106 99.9030723,28.5262827 L97.9239692,31.2125935 C97.8197861,31.3790686 97.7989495,31.5250862 98.0488012,31.6500833 C99.090632,32.1498839 99.9655822,33.2746698 99.9655822,34.7117607 L99.9655822,36.6490276 C99.9655822,36.9404997 99.7990769,37.1071625 99.5071766,37.1071625" id="Fill-76"></path>
                    <path d="M108.328236,31.3967484 C108.328236,31.5346956 108.249395,31.6135226 108.111423,31.6135226 L105.666405,31.6135226 C105.528433,31.6135226 105.449592,31.5346956 105.449592,31.3967484 L105.449592,31.0418393 C105.449592,30.3521032 105.962248,29.6225783 106.889008,29.6225783 C107.815768,29.6225783 108.328236,30.3521032 108.328236,31.0418393 L108.328236,31.3967484 Z M106.889008,27.7496868 C104.759543,27.7496868 103.339838,29.287376 103.339838,31.0418393 L103.339838,33.959376 C103.339838,35.714027 104.759543,37.2515284 106.889008,37.2515284 C108.829066,37.2515284 109.573928,36.3358217 109.952929,35.5723261 C110.019756,35.4377572 110.071191,35.13859 109.834479,34.9809361 L108.907907,34.3698393 C108.691094,34.2317044 108.454382,34.2515988 108.31641,34.4681853 C107.941539,35.0991765 107.504721,35.3788246 106.889008,35.3788246 C105.962248,35.3788246 105.449592,34.6494874 105.449592,33.959376 L105.449592,33.6046545 C105.449592,33.4665196 105.528433,33.3876927 105.666405,33.3876927 L109.570361,33.3876927 C110.122625,33.3876927 110.43799,33.0723848 110.43799,32.5202205 L110.43799,31.0418393 C110.43799,29.287376 109.018473,27.7496868 106.889008,27.7496868 Z" id="Fill-78"></path>
                    <path d="M122.694839,29.6973513 C123.600387,29.6973513 123.971129,30.2941842 124.362332,30.9527648 C124.506311,31.1792985 124.753347,31.1999437 124.979921,31.0558029 L125.947229,30.4178674 C126.194452,30.2530815 126.132505,29.9443425 126.070746,29.8003894 C125.679731,28.7917795 124.52696,27.7420669 122.694839,27.7420669 C120.471328,27.7420669 118.9893,29.3475097 118.9893,31.1792985 L118.9893,33.8145595 C118.9893,35.6461607 120.471328,37.2516035 122.694839,37.2516035 C124.52696,37.2516035 125.679731,36.2018909 126.070746,35.1932809 C126.132505,35.0493279 126.194452,34.7405889 125.947229,34.5758029 L124.979921,33.9378674 C124.753347,33.7937267 124.506311,33.8145595 124.362332,34.0409056 C123.971129,34.6992985 123.600387,35.2963191 122.694839,35.2963191 C121.727344,35.2963191 121.191975,34.5347003 121.191975,33.8145595 L121.191975,31.1792985 C121.191975,30.4589701 121.727344,29.6973513 122.694839,29.6973513" id="Fill-80"></path>
                    <path d="M134.27996,33.9594323 C134.27996,34.6495437 133.767305,35.3786933 132.840544,35.3786933 C131.913972,35.3786933 131.401128,34.6495437 131.401128,33.9594323 L131.401128,31.1413677 C131.401128,30.4516317 131.913972,29.7221067 132.840544,29.7221067 C133.767305,29.7221067 134.27996,30.4516317 134.27996,31.1413677 L134.27996,33.9594323 Z M132.840544,27.8492152 C130.71108,27.8492152 129.291562,29.3870921 129.291562,31.1413677 L129.291562,33.9594323 C129.291562,35.7140833 130.71108,37.2515848 132.840544,37.2515848 C134.970009,37.2515848 136.389527,35.7140833 136.389527,33.9594323 L136.389527,31.1413677 C136.389527,29.3870921 134.970009,27.8492152 132.840544,27.8492152 Z" id="Fill-82"></path>
                    <path d="M156.296962,27.8555214 C155.568056,27.8555214 155.026491,28.043017 154.485302,28.3344891 C154.401768,28.3759672 154.297773,28.3969877 154.19359,28.2511578 C154.110243,28.1261607 153.985411,28.0638499 153.818718,28.0638499 L153.006654,28.0638499 C152.714941,28.0638499 152.548436,28.2303249 152.548436,28.5219848 L152.548436,36.6571167 C152.548436,36.9484012 152.714941,37.1150639 153.006654,37.1150639 L154.31861,37.1150639 C154.610134,37.1150639 154.77664,36.9484012 154.77664,36.6571167 L154.77664,31.3327296 C154.77664,30.6041431 155.318204,29.8337032 156.296962,29.8337032 C157.27572,29.8337032 157.817284,30.6041431 157.817284,31.3327296 L157.817284,36.6571167 C157.817284,36.9484012 157.983789,37.1150639 158.275314,37.1150639 L159.58727,37.1150639 C159.87917,37.1150639 160.045676,36.9484012 160.045676,36.6571167 L160.045676,31.3327296 C160.045676,29.4795449 158.54619,27.8555214 156.296962,27.8555214" id="Fill-84"></path>
                    <path d="M115.924197,36.2528845 C115.924197,35.5909255 115.387513,35.0541513 114.725246,35.0541513 C114.063355,35.0541513 113.526672,35.5909255 113.526672,36.2528845 C113.526672,36.9146557 114.063355,37.4514299 114.725246,37.4514299 C115.387513,37.4514299 115.924197,36.9146557 115.924197,36.2528845" id="Fill-86"></path>
                    <path d="M148.626046,29.722088 L147.324039,29.722088 C147.034767,29.722088 146.869575,29.8923167 146.869575,30.1901701 L146.869575,33.795566 L146.869575,34.1996481 L146.869575,36.6468504 C146.869575,36.9447038 147.034767,37.1151202 147.324039,37.1151202 L148.626046,37.1151202 C148.915318,37.1151202 149.080697,36.9447038 149.080697,36.6468504 L149.080697,34.1996481 L149.080697,33.795566 L149.080697,30.1901701 C149.080697,29.8923167 148.915318,29.722088 148.626046,29.722088" id="Fill-88"></path>
                    <path d="M148.646751,28.4526545 L147.303634,28.4526545 C147.004976,28.4526545 146.834529,28.2822381 146.834529,27.983634 L146.834529,27.0029889 C146.834529,26.7047601 147.004976,26.534156 147.303634,26.534156 L148.646751,26.534156 C148.945222,26.534156 149.115669,26.7047601 149.115669,27.0029889 L149.115669,27.983634 C149.115669,28.2822381 148.945222,28.4526545 148.646751,28.4526545" id="Fill-90"></path>
                    <path d="M139.666395,37.059885 C139.596376,37.209844 139.434939,37.2481314 139.273315,37.2601431 C139.010135,37.2800375 138.76141,37.2727179 138.589836,37.2515097 C138.220972,37.2066534 138.255699,37.055193 138.385787,36.7222428 C138.519067,36.3810346 142.410821,27.9553689 143.125461,26.5854686 C143.190035,26.4615977 143.404409,26.39741 143.565845,26.3853982 C143.8294,26.3656915 144.030446,26.3728235 144.202019,26.393844 C144.570884,26.438888 144.564314,26.6109935 144.406068,26.9231109 L139.666395,37.059885 Z" id="Fill-92"></path>
                </g>
            </g>
        </g>
    </g>
</svg>
