<svg xmlns="http://www.w3.org/2000/svg" xmlns:xlink="http://www.w3.org/1999/xlink" viewBox="0 0 128 128"><defs><style>.a{fill:url(#a);}.b{fill:#28646e;}.c{fill:#fff;fill-rule:evenodd;}</style><linearGradient id="a" x1="52.59" y1="75.91" x2="51.59" y2="75.91" gradientTransform="matrix(128, 0, 0, -128, -6604, 9780)" gradientUnits="userSpaceOnUse"><stop offset="0" stop-color="#d1efef"/><stop offset="1" stop-color="#efe6b3"/></linearGradient></defs><circle class="a" cx="64" cy="64" r="64"/><circle class="b" cx="64" cy="64" r="60"/><path class="c" d="M60,53a1.71,1.71,0,0,1-1.7-1.71A1.74,1.74,0,0,1,58.87,50,36.13,36.13,0,0,0,66.2,41.6c1.42-2.47,3.7-3.74,6.09-3.42a1.71,1.71,0,0,1-.39,3.39h-.07c-1.4-.18-2.33,1.16-2.67,1.74a39.62,39.62,0,0,1-8,9.27A1.69,1.69,0,0,1,60,53ZM31.31,82a1.7,1.7,0,0,1-1.09-3,47,47,0,0,1,6.28-4.19,1.7,1.7,0,0,1,1.52,3,47,47,0,0,0-5.62,3.76,1.67,1.67,0,0,1-1.09.4Zm42.9-16.22c.68.64,1.46.36,2.19-.33,4.94-4.72,10.18-12.1,11.92-15.94a1.51,1.51,0,0,1,1.93-1c1,.39.94,2,.08,3.8A60.52,60.52,0,0,1,78.62,68.7a1.3,1.3,0,0,0,0,1.93c.55.5,1.45.46,2.29-.39a68.37,68.37,0,0,0,7.31-8.54,1.61,1.61,0,0,1,1.64-.85c.82.16,1,.95.7,1.9-.4,1.54-4.72,7.2-6.43,9.1C79.53,77,74.89,79.86,66,84.5c-3.11,1.62-5.44,3.17-6.86,5.55-1.28,2.17-1.66,2.88-1.8,3.15a2.18,2.18,0,0,0,1,2.89,2.11,2.11,0,0,0,2.8-1V95a21.45,21.45,0,0,1,1.62-2.81A12.19,12.19,0,0,1,68,87.56c8.93-4.07,12.59-7.29,17.77-12.47a60,60,0,0,0,6.52-8.92c2.49-4.21,1.18-7.8-1.07-8.42a.26.26,0,0,1-.19-.13.28.28,0,0,1,0-.22v-.07a23,23,0,0,0,2.87-6.65c.44-2.18-.18-4.82-3.16-5.46a.29.29,0,0,1-.18-.13.26.26,0,0,1,0-.21c.19-.69.37-1.56.5-2.13a4.86,4.86,0,0,0-3.3-5.85,5,5,0,0,0-4,.84.4.4,0,0,1-.52-.06,3.07,3.07,0,0,0-2.22-1c-1.88,0-3.71.54-5.06,3.41a36.53,36.53,0,0,1-6.59,9.48A72.8,72.8,0,0,1,56.62,60.25c-.59.38-1.41.29-1.31-.5.15-1.25,1.5-9.66,1.73-12.14.37-4-1.8-5.86-4.23-6.19-2-.27-5,.31-6.69,4.86a101.63,101.63,0,0,0-4.73,14.11,43.26,43.26,0,0,0-.3,17.41,1.69,1.69,0,0,1-.22,1.2,68.08,68.08,0,0,0-4.35,7.55,2.1,2.1,0,0,0,3.74,1.91l.06-.12c.64-1.35,2-3.9,2.49-5a37.74,37.74,0,0,0,1.74-3.83,5.79,5.79,0,0,0,0-3.35A34.51,34.51,0,0,1,44.9,62.1a141.44,141.44,0,0,1,5-15.68c.5-1.26,1.23-1.65,2-1.58s2.1.41,1.71,3c-.71,4.6-1.71,10.44-2,12.4-.16,1-.35,3.22,1.43,4.25,1.39.81,2.92.36,4.61-.77A86.07,86.07,0,0,0,72,51.38c4.32-4.85,5.69-7.74,6.8-10.35a2,2,0,0,1,2.27-1c.46.13,1,.75.62,2.07-1,3.19-4.9,10.49-12.49,17.33a1.52,1.52,0,0,0-.63,1,1.55,1.55,0,0,0,.33,1.16,1.42,1.42,0,0,0,2.09,0,50.12,50.12,0,0,0,12.47-16.5A29.32,29.32,0,0,0,85,41.26a1.7,1.7,0,0,1,1.78-1.35c.83.18,1.38,1,1.12,2.43A25,25,0,0,1,86,47.53c-2.19,4.64-6.81,10.85-11.79,16.19a1.4,1.4,0,0,0,0,2ZM43.36,42.65c.26-.23.16-.53.08-.77-.36-1.17-2.46-6.08-3-7.06a.73.73,0,0,0-.41-.43.71.71,0,0,0-.59,0,8,8,0,0,0-2,1.46,7.63,7.63,0,0,0-1.71,1.83.7.7,0,0,0-.09.58.74.74,0,0,0,.36.47c.9.67,5.49,3.38,6.61,3.9.22.1.51.25.77,0Zm-10,1.65c-.57,0-.81.24-.88.63a7.52,7.52,0,0,0,.19,2.5,7.78,7.78,0,0,0,.67,2.42.74.74,0,0,0,1,.3c1-.42,5.75-2.94,6.77-3.62.21-.14.48-.31.42-.65ZM81.2,86.06c-.35,0-.45.33-.54.56-.42,1.15-1.73,6.32-1.9,7.44a.72.72,0,0,0,.07.59.73.73,0,0,0,.47.35,7.83,7.83,0,0,0,2.51.08,8.37,8.37,0,0,0,2.48-.41.76.76,0,0,0,.4-1c-.31-1.08-2.31-6-2.88-7.12-.11-.22-.25-.5-.6-.48Zm3-2.39a.59.59,0,0,0,.2.74,73.59,73.59,0,0,0,5.37,5.49.73.73,0,0,0,1.08,0,7.68,7.68,0,0,0,1.37-2.1,7.87,7.87,0,0,0,.94-2.33.78.78,0,0,0-.65-.87c-1.09-.3-6.35-1.16-7.58-1.24a.75.75,0,0,0-.72.27Z"/></svg>