<svg width="140" height="24" viewBox="0 0 140 24" fill="none"
  xmlns="http://www.w3.org/2000/svg">
  <path fill-rule="evenodd" clip-rule="evenodd" d="M93.9134 23.5465L87.3219 23.5194C86.5076 23.5194 86.0438 23.0511 86.0484 22.2368L86.1072 7.05858C86.0986 6.9723 86.1094 6.8852 86.1387 6.80361C86.1681 6.72202 86.2152 6.64799 86.2767 6.5869C86.3383 6.52581 86.4126 6.47919 86.4944 6.45044C86.5762 6.42169 86.6634 6.41153 86.7496 6.42069H87.8557C87.942 6.41214 88.0291 6.42292 88.1107 6.45225C88.1923 6.48158 88.2663 6.52871 88.3274 6.59024C88.3885 6.65176 88.4351 6.72612 88.4639 6.80792C88.4926 6.88971 88.5028 6.97689 88.4936 7.0631L88.4393 20.823C88.4297 20.909 88.4395 20.9961 88.468 21.0778C88.4965 21.1595 88.5429 21.2338 88.6039 21.2953C88.6649 21.3567 88.7389 21.4036 88.8204 21.4327C88.9019 21.4617 88.9889 21.4722 89.075 21.4632L93.9202 21.4813C94.0066 21.4723 94.0939 21.4828 94.1757 21.512C94.2575 21.5411 94.3317 21.5883 94.3929 21.6499C94.454 21.7115 94.5006 21.7861 94.5292 21.868C94.5578 21.95 94.5677 22.0374 94.5581 22.1237V22.9109C94.5667 22.9972 94.5559 23.0843 94.5266 23.1659C94.4972 23.2474 94.4501 23.3215 94.3886 23.3826C94.327 23.4437 94.2527 23.4903 94.1709 23.519C94.0891 23.5478 94.0019 23.5579 93.9157 23.5488" fill="#28646E"/>
  <path fill-rule="evenodd" clip-rule="evenodd" d="M108.076 23.6007H107.32C107.228 23.6018 107.138 23.5779 107.058 23.5318C106.978 23.4856 106.913 23.4188 106.868 23.3383C106.854 23.2995 106.831 23.2646 106.801 23.2364C106.77 23.2082 106.734 23.1876 106.694 23.1761C106.655 23.1646 106.613 23.1627 106.572 23.1705C106.532 23.1782 106.493 23.1954 106.461 23.2207C105.695 23.6689 104.819 23.896 103.932 23.8767C101.057 23.8767 99.1499 21.6509 99.159 19.1536C99.168 16.6563 101.095 14.4576 103.97 14.4689C104.711 14.4713 105.443 14.6325 106.117 14.9417C106.343 15.0593 106.524 14.8851 106.524 14.5956C106.524 13.2881 105.606 11.9468 103.979 11.9422C103.137 11.9346 102.307 12.1408 101.566 12.5417C101.188 12.743 100.957 12.5982 100.754 12.2476L100.38 11.569C100.344 11.4908 100.323 11.4061 100.319 11.3198C100.315 11.2335 100.329 11.1474 100.359 11.0663C100.389 10.9853 100.434 10.911 100.493 10.8478C100.552 10.7846 100.623 10.7337 100.702 10.6981C101.706 10.1382 102.839 9.85192 103.988 9.86795C106.861 9.86795 108.77 12.0938 108.761 14.5911L108.727 22.9606C108.736 23.0466 108.726 23.1336 108.697 23.2152C108.668 23.2967 108.621 23.3706 108.559 23.4316C108.498 23.4926 108.424 23.539 108.342 23.5675C108.26 23.596 108.173 23.6058 108.087 23.5962L108.076 23.6007ZM103.954 16.5274C102.328 16.5274 101.394 17.8529 101.389 19.1604C101.385 20.4678 102.308 21.8069 103.934 21.8137C105.561 21.8205 106.495 20.4882 106.499 19.1807C106.504 17.8733 105.581 16.5341 103.954 16.5274Z" fill="#28646E"/>
  <path fill-rule="evenodd" clip-rule="evenodd" d="M123.727 23.662H122.77C122.684 23.6705 122.597 23.6598 122.515 23.6304C122.433 23.6011 122.359 23.554 122.298 23.4924C122.237 23.4309 122.191 23.3566 122.162 23.2748C122.133 23.193 122.123 23.1058 122.132 23.0196L122.166 14.6501C122.166 13.3426 121.248 12.0035 119.621 11.9967C117.995 11.9899 117.061 13.3222 117.054 14.6297L117.022 22.9992C117.031 23.0855 117.02 23.1726 116.991 23.2542C116.961 23.3358 116.914 23.4098 116.853 23.4709C116.791 23.532 116.717 23.5786 116.635 23.6073C116.553 23.6361 116.466 23.6463 116.38 23.6371H115.423C115.337 23.6461 115.249 23.6356 115.167 23.6064C115.086 23.5772 115.011 23.5301 114.95 23.4685C114.889 23.4069 114.843 23.3323 114.814 23.2503C114.785 23.1683 114.775 23.081 114.785 22.9947L114.833 10.8566C114.824 10.7704 114.835 10.6834 114.864 10.6019C114.893 10.5204 114.941 10.4465 115.002 10.3856C115.064 10.3246 115.138 10.2782 115.22 10.2498C115.302 10.2213 115.389 10.2115 115.475 10.221H116.23C116.324 10.2184 116.417 10.2414 116.499 10.2877C116.581 10.3339 116.648 10.4016 116.694 10.4834C116.708 10.5218 116.732 10.5564 116.762 10.5843C116.792 10.6122 116.828 10.6327 116.867 10.6442C116.906 10.6556 116.948 10.6577 116.988 10.6502C117.028 10.6427 117.066 10.6258 117.099 10.601C117.865 10.1525 118.74 9.92468 119.628 9.94277C122.503 9.95408 124.412 12.1686 124.401 14.6682L124.369 23.0377C124.378 23.1239 124.367 23.2109 124.338 23.2924C124.308 23.3739 124.261 23.4478 124.2 23.5087C124.138 23.5697 124.064 23.616 123.982 23.6445C123.9 23.673 123.813 23.6828 123.727 23.6733" fill="#28646E"/>
  <path fill-rule="evenodd" clip-rule="evenodd" d="M138.636 23.7206H137.885C137.793 23.7217 137.703 23.6978 137.623 23.6517C137.543 23.6055 137.478 23.5387 137.433 23.4582C137.419 23.4194 137.396 23.3845 137.365 23.3563C137.335 23.3281 137.299 23.3075 137.259 23.296C137.22 23.2845 137.178 23.2826 137.137 23.2904C137.097 23.2981 137.058 23.3153 137.026 23.3406C136.26 23.7897 135.384 24.0176 134.497 23.9989C131.622 23.9876 129.715 21.7708 129.724 19.2735L129.742 14.6861C129.742 12.1978 131.676 9.98784 134.553 9.99916C135.274 10.0171 135.983 10.1778 136.641 10.4719C136.901 10.5895 137.107 10.4448 137.107 10.2118V7.25305C137.099 7.16686 137.109 7.07983 137.139 6.99833C137.168 6.91683 137.215 6.84291 137.277 6.78199C137.338 6.72106 137.413 6.67467 137.495 6.64619C137.576 6.61772 137.663 6.60789 137.75 6.61742H138.706C138.793 6.6085 138.88 6.61895 138.961 6.648C139.043 6.67705 139.117 6.72397 139.178 6.78533C139.239 6.84669 139.286 6.92093 139.315 7.00264C139.343 7.08434 139.354 7.17145 139.344 7.25758L139.281 23.0918C139.289 23.1777 139.278 23.2644 139.248 23.3454C139.218 23.4265 139.171 23.4998 139.109 23.5601C139.047 23.6204 138.972 23.6661 138.891 23.6939C138.809 23.7216 138.722 23.7308 138.636 23.7206ZM137.073 14.7132C137.073 13.4058 136.155 12.0667 134.528 12.0599C132.902 12.0531 131.968 13.3854 131.963 14.6929L131.945 19.2803C131.945 20.5877 132.864 21.9268 134.49 21.9336C136.116 21.9404 137.051 20.6081 137.055 19.3006L137.073 14.7132Z" fill="#28646E"/>
  <path fill-rule="evenodd" clip-rule="evenodd" d="M10.6121 19.9386L4.56113 19.9137C4.51217 19.9187 4.46271 19.9127 4.41637 19.8962C4.37003 19.8796 4.32797 19.8529 4.29328 19.818C4.25859 19.7831 4.23214 19.7409 4.21586 19.6944C4.19959 19.648 4.19389 19.5985 4.19921 19.5496L4.24897 6.82337C4.25953 6.72543 4.24812 6.62636 4.21558 6.53338C4.18304 6.4404 4.13018 6.35585 4.06085 6.28586C3.99151 6.21588 3.90745 6.16224 3.81478 6.12883C3.72211 6.09542 3.62315 6.08309 3.52512 6.09273H1.44179C1.34376 6.08175 1.24451 6.09285 1.15134 6.12524C1.05816 6.15763 0.97342 6.21048 0.903343 6.27991C0.833266 6.34934 0.77963 6.43358 0.746372 6.52645C0.713114 6.61932 0.701079 6.71845 0.711152 6.81658L0.652344 21.746C0.652344 22.6734 1.17487 23.205 2.10231 23.2073L10.5985 23.2412C10.6965 23.2522 10.7958 23.2411 10.8889 23.2087C10.9821 23.1763 11.0669 23.1234 11.1369 23.054C11.207 22.9846 11.2607 22.9003 11.2939 22.8075C11.3272 22.7146 11.3392 22.6155 11.3291 22.5173V20.6783C11.3401 20.5803 11.329 20.481 11.2966 20.3879C11.2642 20.2947 11.2114 20.2099 11.1419 20.1399C11.0725 20.0698 10.9883 20.0161 10.8954 19.9829C10.8025 19.9496 10.7034 19.9376 10.6053 19.9477" fill="#28646E"/>
  <path fill-rule="evenodd" clip-rule="evenodd" d="M20.6173 12.786H18.2783C18.1816 12.777 18.0841 12.7897 17.9929 12.8231C17.9017 12.8565 17.8191 12.9098 17.7511 12.9791C17.6831 13.0484 17.6313 13.132 17.5997 13.2238C17.568 13.3157 17.5572 13.4134 17.568 13.5099L17.5454 18.1018V18.7284V22.5309C17.5332 22.6274 17.5428 22.7254 17.5734 22.8177C17.6041 22.91 17.655 22.9943 17.7225 23.0644C17.7899 23.1345 17.8722 23.1885 17.9633 23.2227C18.0544 23.2568 18.152 23.27 18.2489 23.2615H20.5879C20.6846 23.2705 20.7821 23.2578 20.8733 23.2245C20.9645 23.1911 21.0471 23.1378 21.1151 23.0685C21.1831 22.9991 21.2348 22.9155 21.2665 22.8237C21.2982 22.7319 21.309 22.6342 21.2981 22.5376L21.3117 18.7352V18.1063L21.3298 13.5076C21.342 13.4111 21.3324 13.3131 21.3018 13.2208C21.2712 13.1285 21.2202 13.0442 21.1528 12.9741C21.0853 12.904 21.003 12.8499 20.9119 12.8158C20.8208 12.7817 20.7232 12.7685 20.6263 12.777" fill="#28646E"/>
  <path fill-rule="evenodd" clip-rule="evenodd" d="M18.3707 10.4246C18.5697 10.3069 18.5381 10.0988 18.5177 9.93822C18.4182 9.13294 17.6423 5.69918 17.4025 4.99343C17.2826 4.64055 17.0632 4.54102 16.8031 4.6021C16.4592 4.66543 16.0114 4.88937 15.3056 5.31011C14.5999 5.73085 14.195 6.02039 13.9755 6.29409C13.9303 6.34384 13.8959 6.40241 13.8745 6.46612C13.8531 6.52983 13.8451 6.59729 13.851 6.66425C13.857 6.7312 13.8767 6.79619 13.9091 6.85512C13.9414 6.91405 13.9856 6.96564 14.0389 7.00663C14.5456 7.55178 17.2057 9.85905 17.8662 10.3273C17.9997 10.4223 18.1671 10.5535 18.3661 10.4268L18.3707 10.4246Z" fill="#28646E"/>
  <path fill-rule="evenodd" clip-rule="evenodd" d="M20.4541 5.89591C20.6577 6.00675 20.8183 5.87329 20.9495 5.77376C22.2437 4.68604 23.4712 3.52124 24.6253 2.28571C24.8673 2.00069 24.8288 1.76997 24.6547 1.57091C24.4285 1.30851 24.0032 1.0348 23.2816 0.645734C22.56 0.256665 22.1008 0.0553458 21.7547 0.00784315C21.4923 -0.0306114 21.2775 0.0666539 21.1734 0.426317C20.9653 1.13886 20.3432 4.60429 20.2799 5.40278C20.2686 5.56565 20.246 5.77376 20.4496 5.88234L20.4541 5.89591Z" fill="#28646E"/>
  <path fill-rule="evenodd" clip-rule="evenodd" d="M39.6856 23.3452H37.6023C37.5042 23.3553 37.405 23.3432 37.3122 23.31C37.2193 23.2767 37.1351 23.2231 37.0656 23.153C36.9962 23.0829 36.9433 22.9982 36.911 22.905C36.8786 22.8118 36.8675 22.7126 36.8784 22.6145V19.5382C36.8617 18.9104 36.6012 18.3138 36.1521 17.8748C35.7029 17.4358 35.1005 17.189 34.4725 17.1867C33.8445 17.1843 33.2403 17.4266 32.7878 17.8622C32.3354 18.2978 32.0704 18.8924 32.049 19.5201V22.5965C32.0591 22.6946 32.0471 22.7937 32.0138 22.8866C31.9805 22.9795 31.9269 23.0637 31.8568 23.1331C31.7868 23.2026 31.702 23.2554 31.6088 23.2878C31.5157 23.3202 31.4164 23.3313 31.3184 23.3203H29.235C29.1369 23.3299 29.0379 23.3175 28.9451 23.2841C28.8524 23.2507 28.7682 23.1971 28.6987 23.1272C28.6292 23.0573 28.5761 22.9728 28.5433 22.8798C28.5105 22.7868 28.4987 22.6877 28.5089 22.5897L28.57 7.25536C28.5599 7.15724 28.572 7.0581 28.6052 6.96523C28.6385 6.87236 28.6921 6.78812 28.7622 6.71869C28.8323 6.64927 28.917 6.59642 29.0102 6.56403C29.1034 6.53164 29.2026 6.52053 29.3006 6.53152H31.384C31.4821 6.52193 31.5811 6.53429 31.6739 6.56768C31.7667 6.60108 31.8508 6.65468 31.9203 6.72461C31.9898 6.79454 32.0429 6.87905 32.0757 6.97202C32.1086 7.06499 32.1203 7.16409 32.1101 7.26215L32.083 13.7655C32.0825 13.8335 32.0961 13.9008 32.1228 13.9634C32.1495 14.0259 32.1888 14.0823 32.2382 14.129C32.2877 14.1756 32.3462 14.2116 32.4101 14.2347C32.4741 14.2578 32.5421 14.2675 32.61 14.2631C32.8995 14.2631 33.3067 14.003 33.5397 13.6388L36.3604 9.51739C36.6997 9.05142 36.9916 8.82522 37.4553 8.82748H39.8756C40.4049 8.82748 40.6674 9.25952 40.3688 9.72098L37.2019 13.9759C37.0368 14.2383 37.0029 14.4712 37.3987 14.6703C38.3092 15.1175 39.0756 15.8117 39.6104 16.6736C40.1452 17.5356 40.4268 18.5306 40.4231 19.545L40.4095 22.6213C40.4196 22.7195 40.4075 22.8186 40.3743 22.9115C40.341 23.0043 40.2874 23.0886 40.2173 23.158C40.1472 23.2274 40.0625 23.2803 39.9693 23.3127C39.8761 23.3451 39.7769 23.3562 39.6788 23.3452" fill="#28646E"/>
  <path fill-rule="evenodd" clip-rule="evenodd" d="M51.4757 8.51988C48.0827 8.50857 45.8207 10.9402 45.8207 13.7225L45.7913 18.3688C45.7913 21.1556 48.0239 23.6054 51.4056 23.6189C54.4842 23.6302 55.6741 22.1803 56.2803 20.9701C56.3866 20.7575 56.4703 20.2915 56.0948 20.0313L54.629 19.0474C54.2852 18.8212 53.9097 18.8573 53.688 19.2012C53.0886 20.201 52.3941 20.6421 51.426 20.6376C51.1264 20.644 50.8286 20.59 50.5504 20.4788C50.2722 20.3676 50.0193 20.2014 49.8067 19.9903C49.5941 19.7792 49.4262 19.5274 49.313 19.25C49.1999 18.9725 49.1438 18.6751 49.1481 18.3755V17.8123C49.1435 17.7658 49.1493 17.7189 49.1651 17.6749C49.1808 17.6309 49.2062 17.591 49.2394 17.5581C49.2725 17.5251 49.3126 17.5 49.3567 17.4845C49.4008 17.469 49.4477 17.4635 49.4942 17.4685L55.6922 17.4933C56.5698 17.4933 57.072 16.998 57.0765 16.1203V13.7723C57.0901 10.9855 54.8439 8.53345 51.4757 8.51988ZM53.7378 14.322C53.7425 14.3684 53.7367 14.4153 53.7209 14.4592C53.7051 14.503 53.6797 14.5428 53.6465 14.5756C53.6133 14.6084 53.5732 14.6333 53.5291 14.6485C53.485 14.6637 53.438 14.6689 53.3917 14.6635L49.51 14.65C49.4636 14.6547 49.4168 14.6489 49.3729 14.6331C49.329 14.6173 49.2892 14.5919 49.2564 14.5587C49.2237 14.5255 49.1988 14.4854 49.1835 14.4413C49.1683 14.3972 49.1632 14.3502 49.1685 14.3039V13.7384C49.1709 13.1325 49.4139 12.5523 49.844 12.1255C50.2742 11.6988 50.8562 11.4604 51.4622 11.4628C52.0681 11.4652 52.6483 11.7082 53.075 12.1383C53.5018 12.5685 53.7402 13.1505 53.7378 13.7565V14.322Z" fill="#28646E"/>
  <path fill-rule="evenodd" clip-rule="evenodd" d="M73.9623 12.0056C73.3289 10.4607 71.646 8.74832 68.6533 8.73701C68.5221 8.73701 68.6284 8.73701 68.4995 8.75285V8.73701C67.6347 8.72852 66.7808 8.93035 66.0113 9.32514C65.9072 9.37264 65.8054 9.42241 65.7036 9.47443C65.6019 9.52646 65.4593 9.5061 65.3281 9.32062C65.2669 9.22799 65.1824 9.15297 65.0833 9.10298C64.9841 9.05299 64.8736 9.02977 64.7626 9.0356H63.5366C63.4433 9.02531 63.3489 9.03604 63.2602 9.067C63.1716 9.09797 63.0911 9.14838 63.0245 9.21454C62.9579 9.28071 62.9069 9.36094 62.8754 9.44936C62.8438 9.53778 62.8325 9.63214 62.8422 9.72552L62.8241 13.9714L62.8082 18.4796L62.7856 22.7231C62.776 22.8153 62.7868 22.9085 62.8173 22.996C62.8478 23.0836 62.8972 23.1633 62.962 23.2296C63.0267 23.2959 63.1053 23.3471 63.1921 23.3796C63.2789 23.4121 63.3718 23.4251 63.4642 23.4176H63.5117H65.215H65.396C65.8665 23.4176 66.138 23.1688 66.1402 22.739L66.1561 18.4909L66.1787 13.9804C66.1787 12.7363 67.3097 11.7184 68.6398 11.7184C70.1191 11.7184 70.8271 12.4603 71.4673 13.5642C71.6754 13.9261 72.1029 13.9442 72.4739 13.7248L73.7565 12.9399C74.1614 12.6888 74.0618 12.216 73.9623 11.9966" fill="#28646E"/>
</svg>
