<svg xmlns="http://www.w3.org/2000/svg" xmlns:xlink="http://www.w3.org/1999/xlink" width="185" height="187" viewBox="0 0 185 187">
    <defs>
        <linearGradient id="c" x1="83.043%" x2="26.191%" y1="15.875%" y2="87.906%">
            <stop offset="0%" stop-color="#D2F0F0"/>
            <stop offset="100%" stop-color="#F0E6B4"/>
        </linearGradient>
        <circle id="b" cx="50" cy="50" r="50"/>
        <filter id="a" width="112%" height="112%" x="-5%" y="-3%" filterUnits="objectBoundingBox">
            <feOffset dx="1" dy="3" in="SourceAlpha" result="shadowOffsetOuter1"/>
            <feGaussianBlur in="shadowOffsetOuter1" result="shadowBlurOuter1" stdDeviation="1.5"/>
            <feComposite in="shadowBlurOuter1" in2="SourceAlpha" operator="out" result="shadowBlurOuter1"/>
            <feColorMatrix in="shadowBlurOuter1" values="0 0 0 0 0 0 0 0 0 0 0 0 0 0 0 0 0 0 0.3 0"/>
        </filter>
    </defs>
    <g fill="none" fill-rule="evenodd">
        <g transform="translate(43 41)">
            <use fill="#000" filter="url(#a)" xlink:href="#b"/>
            <use fill="#28646E" xlink:href="#b"/>
            <circle cx="50" cy="50" r="48" stroke="url(#c)" stroke-width="4"/>
        </g>
        <path fill="#FFF" d="M115.085 91.139c1.38.017 2.354.394 2.663 1.058.228.49.052 1.054-.238 1.357-.491.512-2.211.76-4.285.864a86.01 86.01 0 0 0 1.308-3.258l.552-.021m2.879-8.886c.198.42.238.734.12.932-.163.272-.704.59-1.72.76.017-1.11-.168-1.958-.444-2.642 1.162.092 1.738.302 2.044.95m3.604 4.834c.049.38-.044.552-.152.682-.416.5-1.806 1.133-6.066 1.314l-.062.003c.401-1.156.674-2.166.844-3.053.078-.009.154-.014.233-.025.032.002.063.007.096.005 3.554-.163 4.986.138 5.107 1.074m-8.479 11.468c-.085.647-.76.87-2.262.938.395-.753.774-1.512 1.136-2.27.441.097.8.24.985.447.062.069.225.251.141.885M86.597 85.94c-1.142 1.181-2.127 2.201-2.85 3.072-1.166 1.405-1.667 1.407-1.663 1.41-.007-.003-.338-.216-.568-1.527-.33-1.877-.706-6.15-.845-10.515.572-.484 1.09-.947 1.535-1.378 4.099-3.966 4.99-4.875 7.019-7.405.738-.921 1.747-1.066 2.32-.736.657.378.771 1.358.306 2.622-1.03 2.8-2.311 4.411-3.933 6.452-.652.82-1.39 1.75-2.173 2.836a1.028 1.028 0 0 0 .223 1.427 1.004 1.004 0 0 0 1.413-.226c.297-.413.585-.798.865-1.165.804.061 1.795.11 2.912.15-1.462 1.772-3.103 3.473-4.561 4.983m23.086 15.623c2.715-.013 5.086-.268 5.411-2.738.132-1.003-.067-1.825-.585-2.45 2.36-.218 3.759-.675 4.454-1.4a3.299 3.299 0 0 0 .616-3.646 3.227 3.227 0 0 0-.343-.572c1.88-.33 3.057-.868 3.727-1.673.518-.622.724-1.383.61-2.262-.246-1.903-1.826-2.592-3.636-2.812.27-.58.407-1.46-.147-2.635-.961-2.037-3.078-2.11-4.945-2.173l-.244-.009a1.05 1.05 0 0 0-.18-.176c.757-3.325 1.098-5.929.999-6.945-.136-1.381-.893-2.447-2.025-2.85a2.777 2.777 0 0 0-.953-.163c.21-1.347.317-2.451.327-3.204.027-1.973-1.222-4.069-3.66-4.27-1.746-.141-3.178.832-3.674 2.418-.536-1.03-1.514-1.582-2.423-1.75-1.507-.272-3.324.334-3.766 1.841-.479 1.633-2.434 6.61-4.757 11.802-.454 1.016-1.077 2.044-1.797 3.064a125.227 125.227 0 0 1-2.912-.105c1.547-1.952 2.888-3.73 3.967-6.66.989-2.688.029-4.401-1.2-5.108-1.55-.894-3.61-.378-4.894 1.225-1.954 2.437-2.825 3.324-6.846 7.215l-.197.187c-.158-3.022-2.16-4.24-3.872-4.355-2-.137-3.751 1.015-3.985 2.623-.085.58-.287 1.592-.542 2.873-.323 1.615-.745 3.73-1.15 6.093-3.165 2.145-6.256 4.095-8.162 5.217-.483.284-.646.909-.365 1.396a1.009 1.009 0 0 0 1.383.37c1.654-.974 4.09-2.499 6.7-4.228a90.584 90.584 0 0 0-.735 6.246c-.446 5.656 1.111 11.47 1.948 14.593l.082.308c-2.12.617-6.093 1.88-6.282 1.94a1.024 1.024 0 0 0 .303 1.996c.1 0 .203-.015.304-.047.045-.015 3.857-1.227 6.012-1.861-.152.663-.486 1.78-.89 3.133a258.799 258.799 0 0 0-1.112 3.79 1.023 1.023 0 0 0 .826 1.293c.494.073.977-.232 1.118-.73.4-1.412.774-2.66 1.104-3.763.558-1.867.928-3.1 1.03-3.8.068-.473-.086-1.087-.543-2.792-.804-3.004-2.302-8.595-1.884-13.897.212-2.688.594-5.44 1.011-7.96.163-.982.33-1.928.495-2.82.285-1.547.562-2.936.79-4.073.26-1.31.467-2.346.56-2.98.066-.452.904-.947 1.847-.882.736.051 1.974.461 1.997 2.647.004.453.013.918.024 1.391v.002c.106 4.382.485 9.44.902 11.815.119.674.479 2.723 2.03 3.142 1.484.4 2.847-.99 3.743-2.07.674-.811 1.635-1.806 2.747-2.957 1.82-1.884 3.915-4.054 5.65-6.341a29.343 29.343 0 0 0 .665-.91l.177-.255c.708-1.029 1.327-2.074 1.796-3.124 2.359-5.27 4.356-10.365 4.853-12.063.067-.227.713-.546 1.462-.412.584.108 1.259.501 1.165 1.763-.116 1.563-1.023 9.829-7.51 18.986a1.028 1.028 0 0 0 .234 1.425 1.005 1.005 0 0 0 1.41-.237c2.942-4.152 4.79-8.1 5.952-11.414.075-.087.14-.185.185-.298.287-.732.558-1.41.813-2.045 1.188-2.97 2.046-5.115 2.397-7.522.152-1.044.954-1.355 1.655-1.299.906.078 1.818.784 1.799 2.206-.047 3.476-2.486 15.653-7.97 23.78a1.028 1.028 0 0 0 .266 1.42 1.005 1.005 0 0 0 1.405-.269c4.078-6.043 6.506-14.02 7.609-19.54a.773.773 0 0 1 .664-.071c.379.135.63.546.686 1.126.084.85-.29 3.463-1.092 6.833a78.367 78.367 0 0 1-.514 2.035c-1.036 3.883-2.557 8.412-4.53 12.356a1.027 1.027 0 0 0 .446 1.373 1.009 1.009 0 0 0 1.359-.451c2.064-4.126 3.645-8.805 4.715-12.849.339.598.589 1.355.552 2.51a7.456 7.456 0 0 1-.01.219v.002a8.235 8.235 0 0 1-.04.463l-.002.008a9.71 9.71 0 0 1-.03.242l-.001.007-.039.254v.005a10.813 10.813 0 0 1-.103.548l-.001.005c-.02.094-.04.19-.063.289a22.51 22.51 0 0 1-.734 2.462 95.082 95.082 0 0 1-.575 1.574l-.02.053a82.684 82.684 0 0 1-1.745 4.269c-.183.413-.374.833-.57 1.255l-.005.01a60.234 60.234 0 0 1-1.909 3.773c-.18.326-.363.65-.55.973l-.072.124c-.185.317-.373.632-.565.945-1.474 2.397-3.155 4.632-5.026 6.354a152.204 152.204 0 0 1-3.966 3.502c-3.148 2.708-5.227 4.498-6.205 7.023a51.767 51.767 0 0 0-1.964 6.307 1.022 1.022 0 0 0 .839 1.243 1.012 1.012 0 0 0 1.131-.778c.007-.03.692-2.966 1.877-6.028.794-2.047 2.719-3.704 5.633-6.213 1.182-1.016 2.521-2.169 4.017-3.545 2.295-2.113 4.307-4.883 6.038-7.862"/>
        <g>
            <path fill="#28646E" d="M177 91.553c0 1.662-1.615 2.95-3.446 2.746l-17.932-1.99c-.988-.11-.988-1.4 0-1.51l17.932-1.991c1.831-.203 3.446 1.084 3.446 2.745zm-167 0c0-1.661 1.615-2.948 3.446-2.745l17.932 1.99c.988.11.988 1.4 0 1.51l-17.932 1.99C11.615 94.503 10 93.216 10 91.554zm156.604-42.142c.987 1.631.258 3.718-1.554 4.45l-17.756 7.184c-.978.396-1.743-.871-.896-1.482L161.79 48.47c1.571-1.132 3.828-.691 4.814.94zM20.396 132.59c-.987-1.632-.258-3.719 1.554-4.452l17.756-7.183c.978-.396 1.743.87.896 1.482L25.21 133.53c-1.571 1.132-3.828.691-4.814-.94zm115.22-114.188c1.63.988 2.07 3.246.94 4.817L125.47 38.621c-.61.849-1.877.082-1.481-.896l7.178-17.767c.733-1.814 2.818-2.543 4.449-1.556zM52.49 164.704c-1.63-.987-2.07-3.245-.94-4.817l11.086-15.401c.61-.849 1.876-.083 1.481.896l-7.179 17.767c-.732 1.813-2.817 2.543-4.448 1.555zM93.5 8c1.661 0 2.947 1.616 2.744 3.448l-1.99 17.944c-.11.988-1.399.988-1.508 0l-1.99-17.944C90.553 9.616 91.84 8 93.5 8zm1.106 166c-2.325 0-4.125-1.616-3.841-3.448l2.785-17.944c.153-.988 1.958-.988 2.112 0l2.785 17.944c.285 1.832-1.516 3.448-3.84 3.448zM52.49 18.402c1.63-.987 3.716-.258 4.448 1.556l7.18 17.767c.394.979-.872 1.745-1.482.896L51.55 23.22c-1.13-1.573-.69-3.83.94-4.818zm83.126 146.302c-1.63.988-3.716.258-4.449-1.555l-7.178-17.767c-.396-.979.87-1.745 1.481-.897l11.085 15.402c1.132 1.572.692 3.83-.939 4.817zM20.396 49.411c.986-1.632 3.243-2.073 4.814-.94l15.392 11.092c.847.612.082 1.878-.896 1.482L21.95 53.862c-1.812-.733-2.541-2.82-1.554-4.451zm146.208 83.179c-.986 1.631-3.243 2.072-4.814.94l-15.392-11.093c-.847-.611-.082-1.877.896-1.482l17.756 7.183c1.812.733 2.54 2.82 1.554 4.452z"/>
            <path fill="#F0E6B4" d="M184.763 116.588c-.515 1.923-2.706 2.932-4.674 2.152l-19.28-7.634a.906.906 0 0 1 .468-1.747l20.514 3.028c2.094.31 3.487 2.278 2.972 4.2zM1.237 67.412c.515-1.922 2.706-2.931 4.674-2.152l19.28 7.635a.906.906 0 0 1-.469 1.746L4.21 71.613c-2.094-.309-3.487-2.278-2.972-4.2zm183.71-.344c.56 2.117-.846 4.256-3 4.562l-21.098 3.007c-1.162.166-1.597-1.478-.509-1.922l19.757-8.08c2.016-.825 4.29.315 4.85 2.433zM1.053 116.933c-.56-2.118.846-4.257 2.999-4.564l21.099-3.006c1.162-.166 1.597 1.477.509 1.923l-19.757 8.08c-2.016.824-4.29-.316-4.85-2.433zm160.574-91.787c1.54 1.595 1.36 4.248-.384 5.661L144.158 44.66c-.941.763-2.137-.475-1.399-1.448l13.395-17.67c1.367-1.803 3.932-1.989 5.473-.395zM25.936 161.56c-1.54-1.595-1.36-4.248.383-5.662l17.085-13.85c.94-.764 2.137.473 1.399 1.447l-13.395 17.67c-1.367 1.803-3.932 1.989-5.472.395zM117.588.237c1.923.515 2.932 2.706 2.152 4.674l-7.634 19.28a.906.906 0 0 1-1.747-.468l3.028-20.514c.31-2.094 2.278-3.487 4.2-2.972zM68.946 183.906c-2.243-.601-3.5-2.858-2.682-4.816l8.019-19.176c.441-1.057 2.183-.59 2.037.546l-2.644 20.616c-.27 2.105-2.487 3.431-4.73 2.83zM69.129.36c2.13-.61 4.26.833 4.541 3.079l2.766 22c.152 1.212-1.502 1.685-1.935.554L66.63 5.456c-.803-2.096.368-4.484 2.499-5.095zm49.305 185.983c-2.131.61-4.26-.832-4.543-3.078l-2.764-22c-.153-1.212 1.501-1.685 1.935-.554l7.87 20.538c.803 2.096-.367 4.484-2.498 5.094zM25.838 24.434c1.544-1.553 4.083-1.404 5.417.318l13.07 16.876c.719.93-.48 2.136-1.403 1.41L26.153 29.887c-1.71-1.343-1.86-3.898-.315-5.451zm134.324 135.132c-1.544 1.553-4.083 1.404-5.417-.318l-13.07-16.876c-.72-.93.479-2.135 1.403-1.411l16.768 13.153c1.712 1.343 1.86 3.898.316 5.452z"/>
        </g>
    </g>
</svg>
