<?xml version="1.0" encoding="utf-8"?>
<!-- Generator: Adobe Illustrator 21.1.0, SVG Export Plug-In . SVG Version: 6.00 Build 0)  -->
<svg version="1.1" id="Layer_1" xmlns="http://www.w3.org/2000/svg" xmlns:xlink="http://www.w3.org/1999/xlink" x="0px" y="0px"
	 viewBox="0 0 379 393" style="enable-background:new 0 0 379 393;" xml:space="preserve">
<style type="text/css">
	.st0{fill:#FFFFFF;stroke:#FFFFFF;stroke-width:4;}
	.st1{fill:url(#SVGID_1_);stroke:#FFFFFF;}
	.st2{fill:url(#SVGID_2_);stroke:#FFFFFF;stroke-width:2;}
	.st3{enable-background:new    ;}
	.st4{fill:#462405;}
</style>
<g>
	<g>
		<path class="st0" d="M376.7,196.7c0,99.5-80.8,180.2-180.4,180.2c-99.6,0-180.4-80.7-180.4-180.2S96.7,16.4,196.3,16.4
			C295.9,16.4,376.7,97.1,376.7,196.7"/>
		
			<linearGradient id="SVGID_1_" gradientUnits="userSpaceOnUse" x1="162.0909" y1="225.362" x2="162.0104" y2="224.568" gradientTransform="matrix(360.84 0 0 -360.461 -58278.207 81289.1719)">
			<stop  offset="0" style="stop-color:#D2F0E1"/>
			<stop  offset="1" style="stop-color:#B4D2F0"/>
		</linearGradient>
		<path class="st1" d="M376.7,196.7c0,99.5-80.8,180.2-180.4,180.2c-99.6,0-180.4-80.7-180.4-180.2S96.7,16.4,196.3,16.4
			C295.9,16.4,376.7,97.1,376.7,196.7"/>
		
			<linearGradient id="SVGID_2_" gradientUnits="userSpaceOnUse" x1="162.2101" y1="224.4867" x2="161.7969" y2="225.4669" gradientTransform="matrix(292.952 0 0 -390.176 -47295.2266 87960.1875)">
			<stop  offset="0" style="stop-color:#D2F0F0"/>
			<stop  offset="1" style="stop-color:#F0E6B4"/>
		</linearGradient>
		<path class="st2" d="M196.3,196.7l97.7-169c-28.7-16.6-62.1-26.1-97.7-26.1C88.4,1.6,1,88.9,1,196.7
			c0,107.7,87.4,195.1,195.3,195.1c35.6,0,68.9-9.5,97.7-26.1L196.3,196.7L196.3,196.7z"/>
	</g>
	<g class="st3">
		<path class="st4" d="M50.7,239v-11.4h-4.2v-1.5h10.2v1.5h-4.3V239H50.7z"/>
		<path class="st4" d="M55.6,234.3c0-1.7,0.5-3,1.4-3.8c0.8-0.7,1.8-1,2.9-1c1.3,0,2.3,0.4,3.1,1.3s1.2,2,1.2,3.5
			c0,1.2-0.2,2.1-0.5,2.8c-0.4,0.7-0.9,1.2-1.6,1.6s-1.4,0.6-2.3,0.6c-1.3,0-2.4-0.4-3.2-1.3S55.6,235.9,55.6,234.3z M57.2,234.3
			c0,1.2,0.3,2.1,0.8,2.7c0.5,0.6,1.2,0.9,2,0.9c0.8,0,1.4-0.3,2-0.9s0.8-1.5,0.8-2.7c0-1.2-0.3-2-0.8-2.6c-0.5-0.6-1.2-0.9-2-0.9
			c-0.8,0-1.4,0.3-2,0.9S57.2,233.1,57.2,234.3z"/>
		<path class="st4" d="M66.2,239v-12.9h1.6v7.3l3.7-3.8h2l-3.6,3.5l3.9,5.9h-2l-3.1-4.8l-1.1,1.1v3.7H66.2z"/>
		<path class="st4" d="M81.6,236l1.6,0.2c-0.3,1-0.7,1.7-1.4,2.2s-1.6,0.8-2.7,0.8c-1.4,0-2.4-0.4-3.2-1.3c-0.8-0.8-1.2-2-1.2-3.5
			c0-1.6,0.4-2.8,1.2-3.7s1.9-1.3,3.1-1.3c1.2,0,2.3,0.4,3.1,1.3s1.2,2,1.2,3.6c0,0.1,0,0.2,0,0.4h-7c0.1,1,0.3,1.8,0.9,2.4
			s1.2,0.8,2,0.8c0.6,0,1.1-0.2,1.5-0.5S81.3,236.7,81.6,236z M76.4,233.4h5.2c-0.1-0.8-0.3-1.4-0.6-1.8c-0.5-0.6-1.2-0.9-2-0.9
			c-0.7,0-1.3,0.2-1.8,0.7S76.4,232.6,76.4,233.4z"/>
		<path class="st4" d="M85.2,239v-9.3h1.4v1.3c0.7-1,1.7-1.5,3-1.5c0.6,0,1.1,0.1,1.6,0.3c0.5,0.2,0.8,0.5,1.1,0.8s0.4,0.7,0.5,1.2
			c0.1,0.3,0.1,0.8,0.1,1.5v5.7h-1.6v-5.7c0-0.6-0.1-1.1-0.2-1.4s-0.3-0.6-0.7-0.8c-0.3-0.2-0.7-0.3-1.1-0.3c-0.7,0-1.3,0.2-1.7,0.6
			s-0.7,1.2-0.7,2.4v5.1H85.2z"/>
		<path class="st4" d="M99.8,234.9l1.6-0.1c0.1,0.6,0.3,1.2,0.5,1.6c0.3,0.4,0.7,0.7,1.3,1c0.6,0.3,1.2,0.4,2,0.4
			c0.7,0,1.2-0.1,1.7-0.3s0.9-0.5,1.1-0.8s0.4-0.7,0.4-1.1c0-0.4-0.1-0.8-0.4-1.1s-0.6-0.6-1.2-0.8c-0.3-0.1-1.1-0.3-2.3-0.6
			s-2-0.6-2.5-0.8c-0.6-0.3-1.1-0.7-1.4-1.2c-0.3-0.5-0.5-1-0.5-1.6c0-0.7,0.2-1.3,0.6-1.8s0.9-1,1.6-1.3s1.5-0.4,2.4-0.4
			c1,0,1.8,0.2,2.5,0.5c0.7,0.3,1.3,0.8,1.7,1.4s0.6,1.3,0.6,2l-1.6,0.1c-0.1-0.8-0.4-1.4-0.9-1.8c-0.5-0.4-1.3-0.6-2.2-0.6
			c-1,0-1.8,0.2-2.3,0.6c-0.5,0.4-0.7,0.8-0.7,1.4c0,0.5,0.2,0.8,0.5,1.1c0.3,0.3,1.2,0.6,2.6,0.9c1.4,0.3,2.3,0.6,2.9,0.8
			c0.8,0.3,1.3,0.8,1.7,1.3s0.5,1.1,0.5,1.8c0,0.7-0.2,1.3-0.6,1.9c-0.4,0.6-1,1.1-1.7,1.4c-0.7,0.3-1.6,0.5-2.5,0.5
			c-1.2,0-2.1-0.2-2.9-0.5c-0.8-0.3-1.4-0.9-1.9-1.5C100.1,236.5,99.9,235.7,99.8,234.9z"/>
		<path class="st4" d="M118.3,237.8c-0.6,0.5-1.2,0.8-1.7,1.1c-0.5,0.2-1.1,0.3-1.7,0.3c-1,0-1.8-0.2-2.4-0.8
			c-0.6-0.5-0.8-1.1-0.8-1.9c0-0.5,0.1-0.9,0.3-1.3c0.2-0.4,0.5-0.7,0.8-0.9s0.7-0.4,1.1-0.5c0.3-0.1,0.8-0.2,1.4-0.2
			c1.3-0.2,2.2-0.3,2.8-0.5c0-0.2,0-0.4,0-0.4c0-0.6-0.1-1.1-0.4-1.4c-0.4-0.4-1-0.5-1.8-0.5c-0.7,0-1.3,0.1-1.6,0.4
			s-0.6,0.7-0.8,1.4l-1.5-0.2c0.1-0.7,0.4-1.2,0.7-1.6c0.3-0.4,0.8-0.7,1.4-0.9c0.6-0.2,1.3-0.3,2.1-0.3c0.8,0,1.4,0.1,1.9,0.3
			s0.9,0.4,1.1,0.7c0.2,0.3,0.4,0.6,0.5,1.1c0.1,0.3,0.1,0.8,0.1,1.5v2.1c0,1.5,0,2.4,0.1,2.8c0.1,0.4,0.2,0.8,0.4,1.1h-1.7
			C118.5,238.7,118.4,238.3,118.3,237.8z M118.2,234.3c-0.6,0.2-1.4,0.4-2.6,0.6c-0.7,0.1-1.1,0.2-1.4,0.3s-0.5,0.3-0.6,0.5
			s-0.2,0.5-0.2,0.8c0,0.4,0.2,0.8,0.5,1.1s0.8,0.4,1.4,0.4c0.6,0,1.2-0.1,1.6-0.4s0.8-0.6,1-1.1c0.2-0.4,0.3-0.9,0.3-1.6V234.3z"/>
		<path class="st4" d="M122.2,239v-12.9h1.6V239H122.2z"/>
		<path class="st4" d="M132.6,236l1.6,0.2c-0.3,1-0.7,1.7-1.4,2.2s-1.6,0.8-2.7,0.8c-1.4,0-2.4-0.4-3.2-1.3c-0.8-0.8-1.2-2-1.2-3.5
			c0-1.6,0.4-2.8,1.2-3.7s1.9-1.3,3.1-1.3c1.2,0,2.3,0.4,3.1,1.3s1.2,2,1.2,3.6c0,0.1,0,0.2,0,0.4h-7c0.1,1,0.3,1.8,0.9,2.4
			s1.2,0.8,2,0.8c0.6,0,1.1-0.2,1.5-0.5S132.4,236.7,132.6,236z M127.4,233.4h5.2c-0.1-0.8-0.3-1.4-0.6-1.8c-0.5-0.6-1.2-0.9-2-0.9
			c-0.7,0-1.3,0.2-1.8,0.7S127.5,232.6,127.4,233.4z"/>
	</g>
	<g class="st3">
		<path class="st4" d="M245.4,235v-12.9h9.3v1.5h-7.6v3.9h7.1v1.5h-7.1v4.4h7.9v1.5H245.4z"/>
		<path class="st4" d="M263.3,231.6l1.6,0.2c-0.2,1.1-0.6,1.9-1.3,2.5c-0.7,0.6-1.6,0.9-2.6,0.9c-1.3,0-2.3-0.4-3.1-1.3
			c-0.8-0.8-1.2-2-1.2-3.6c0-1,0.2-1.9,0.5-2.6s0.8-1.3,1.5-1.7c0.7-0.4,1.4-0.6,2.2-0.6c1,0,1.8,0.3,2.5,0.8s1.1,1.2,1.2,2.2
			l-1.5,0.2c-0.1-0.6-0.4-1.1-0.8-1.4c-0.4-0.3-0.8-0.5-1.3-0.5c-0.8,0-1.4,0.3-1.9,0.9c-0.5,0.6-0.7,1.5-0.7,2.7
			c0,1.3,0.2,2.2,0.7,2.7s1.1,0.9,1.9,0.9c0.6,0,1.1-0.2,1.6-0.6S263.2,232.4,263.3,231.6z"/>
		<path class="st4" d="M265.6,230.3c0-1.7,0.5-3,1.4-3.8c0.8-0.7,1.8-1,2.9-1c1.3,0,2.3,0.4,3.1,1.3s1.2,2,1.2,3.5
			c0,1.2-0.2,2.1-0.5,2.8c-0.4,0.7-0.9,1.2-1.6,1.6c-0.7,0.4-1.4,0.6-2.3,0.6c-1.3,0-2.4-0.4-3.2-1.3
			C266,233.1,265.6,231.9,265.6,230.3z M267.2,230.3c0,1.2,0.3,2.1,0.8,2.7c0.5,0.6,1.2,0.9,2,0.9c0.8,0,1.4-0.3,2-0.9
			s0.8-1.5,0.8-2.7c0-1.2-0.3-2-0.8-2.6c-0.5-0.6-1.2-0.9-2-0.9c-0.8,0-1.4,0.3-2,0.9S267.2,229.1,267.2,230.3z"/>
		<path class="st4" d="M275.6,232.2l1.6-0.2c0.1,0.6,0.3,1.1,0.7,1.4s1,0.5,1.7,0.5c0.7,0,1.3-0.1,1.6-0.4s0.5-0.6,0.5-1
			c0-0.4-0.2-0.6-0.5-0.8c-0.2-0.1-0.8-0.3-1.6-0.5c-1.2-0.3-2-0.5-2.4-0.8c-0.4-0.2-0.8-0.5-1-0.9c-0.2-0.4-0.3-0.8-0.3-1.3
			c0-0.4,0.1-0.8,0.3-1.2c0.2-0.4,0.4-0.6,0.8-0.9c0.2-0.2,0.6-0.3,1-0.5s0.9-0.2,1.4-0.2c0.7,0,1.4,0.1,1.9,0.3
			c0.6,0.2,1,0.5,1.2,0.9c0.3,0.4,0.4,0.8,0.5,1.4l-1.5,0.2c-0.1-0.5-0.3-0.9-0.6-1.1c-0.3-0.3-0.8-0.4-1.4-0.4
			c-0.7,0-1.2,0.1-1.6,0.4s-0.5,0.5-0.5,0.8c0,0.2,0.1,0.4,0.2,0.6c0.1,0.2,0.3,0.3,0.6,0.4c0.2,0.1,0.6,0.2,1.4,0.4
			c1.1,0.3,1.9,0.5,2.3,0.7c0.4,0.2,0.8,0.5,1,0.8s0.4,0.8,0.4,1.4c0,0.5-0.2,1-0.5,1.5c-0.3,0.5-0.8,0.8-1.3,1.1
			c-0.6,0.3-1.2,0.4-2,0.4c-1.2,0-2.1-0.3-2.8-0.8C276.2,234,275.7,233.2,275.6,232.2z"/>
		<path class="st4" d="M285.1,238.6l-0.2-1.5c0.3,0.1,0.6,0.1,0.9,0.1c0.4,0,0.6-0.1,0.8-0.2s0.4-0.3,0.5-0.5
			c0.1-0.2,0.3-0.6,0.5-1.2c0-0.1,0.1-0.2,0.1-0.4l-3.5-9.4h1.7l1.9,5.4c0.3,0.7,0.5,1.4,0.7,2.2c0.2-0.7,0.4-1.4,0.7-2.1l2-5.4h1.6
			l-3.6,9.5c-0.4,1-0.7,1.7-0.9,2.1c-0.3,0.5-0.6,0.9-1,1.1c-0.4,0.2-0.8,0.4-1.3,0.4C285.8,238.8,285.5,238.7,285.1,238.6z"/>
		<path class="st4" d="M293.6,232.2l1.6-0.2c0.1,0.6,0.3,1.1,0.7,1.4s1,0.5,1.7,0.5c0.7,0,1.3-0.1,1.6-0.4s0.5-0.6,0.5-1
			c0-0.4-0.2-0.6-0.5-0.8c-0.2-0.1-0.8-0.3-1.6-0.5c-1.2-0.3-2-0.5-2.4-0.8c-0.4-0.2-0.8-0.5-1-0.9c-0.2-0.4-0.3-0.8-0.3-1.3
			c0-0.4,0.1-0.8,0.3-1.2c0.2-0.4,0.4-0.6,0.8-0.9c0.2-0.2,0.6-0.3,1-0.5s0.9-0.2,1.4-0.2c0.7,0,1.4,0.1,1.9,0.3
			c0.6,0.2,1,0.5,1.2,0.9c0.3,0.4,0.4,0.8,0.5,1.4l-1.5,0.2c-0.1-0.5-0.3-0.9-0.6-1.1c-0.3-0.3-0.8-0.4-1.4-0.4
			c-0.7,0-1.2,0.1-1.6,0.4s-0.5,0.5-0.5,0.8c0,0.2,0.1,0.4,0.2,0.6c0.1,0.2,0.3,0.3,0.6,0.4c0.2,0.1,0.6,0.2,1.4,0.4
			c1.1,0.3,1.9,0.5,2.3,0.7c0.4,0.2,0.8,0.5,1,0.8s0.4,0.8,0.4,1.4c0,0.5-0.2,1-0.5,1.5c-0.3,0.5-0.8,0.8-1.3,1.1
			c-0.6,0.3-1.2,0.4-2,0.4c-1.2,0-2.1-0.3-2.8-0.8C294.2,234,293.7,233.2,293.6,232.2z"/>
		<path class="st4" d="M306.7,233.6l0.2,1.4c-0.4,0.1-0.8,0.1-1.2,0.1c-0.6,0-1-0.1-1.3-0.3s-0.5-0.4-0.7-0.7s-0.2-0.9-0.2-1.9v-5.4
			h-1.2v-1.2h1.2v-2.3l1.6-0.9v3.3h1.6v1.2h-1.6v5.5c0,0.5,0,0.7,0.1,0.9s0.1,0.2,0.3,0.3c0.1,0.1,0.3,0.1,0.5,0.1
			C306.1,233.6,306.4,233.6,306.7,233.6z"/>
		<path class="st4" d="M314.6,232l1.6,0.2c-0.3,1-0.7,1.7-1.4,2.2s-1.6,0.8-2.7,0.8c-1.4,0-2.4-0.4-3.2-1.3c-0.8-0.8-1.2-2-1.2-3.5
			c0-1.6,0.4-2.8,1.2-3.7s1.9-1.3,3.1-1.3c1.2,0,2.3,0.4,3.1,1.3s1.2,2,1.2,3.6c0,0.1,0,0.2,0,0.4h-7c0.1,1,0.3,1.8,0.9,2.4
			s1.2,0.8,2,0.8c0.6,0,1.1-0.2,1.5-0.5S314.4,232.7,314.6,232z M309.4,229.4h5.2c-0.1-0.8-0.3-1.4-0.6-1.8c-0.5-0.6-1.2-0.9-2-0.9
			c-0.7,0-1.3,0.2-1.8,0.7S309.5,228.6,309.4,229.4z"/>
		<path class="st4" d="M318.2,235v-9.3h1.4v1.3c0.3-0.5,0.7-0.8,1.2-1.1s1-0.4,1.7-0.4c0.7,0,1.3,0.1,1.7,0.4
			c0.4,0.3,0.8,0.7,0.9,1.2c0.7-1.1,1.7-1.6,2.9-1.6c0.9,0,1.6,0.3,2.1,0.8s0.7,1.3,0.7,2.4v6.4h-1.6v-5.9c0-0.6-0.1-1.1-0.2-1.4
			c-0.1-0.3-0.3-0.5-0.6-0.7s-0.6-0.3-0.9-0.3c-0.7,0-1.2,0.2-1.6,0.7c-0.4,0.4-0.7,1.1-0.7,2.1v5.4h-1.6v-6.1
			c0-0.7-0.1-1.2-0.4-1.6s-0.7-0.5-1.3-0.5c-0.4,0-0.9,0.1-1.2,0.4c-0.4,0.2-0.7,0.6-0.8,1s-0.3,1.1-0.3,2v4.8H318.2z"/>
	</g>
	<g>
	</g>
	<g class="st3">
		<path class="st4" d="M245.4,259v-12.9h4.4c1,0,1.8,0.1,2.3,0.2c0.7,0.2,1.4,0.5,1.9,0.9c0.7,0.6,1.2,1.3,1.5,2.2
			c0.3,0.9,0.5,1.9,0.5,3.1c0,1-0.1,1.8-0.3,2.6s-0.5,1.4-0.9,1.9c-0.4,0.5-0.7,0.9-1.2,1.2c-0.4,0.3-0.9,0.5-1.5,0.6
			c-0.6,0.1-1.3,0.2-2.1,0.2H245.4z M247.1,257.5h2.8c0.8,0,1.5-0.1,2-0.2c0.5-0.2,0.9-0.4,1.2-0.7c0.4-0.4,0.7-0.9,0.9-1.6
			c0.2-0.7,0.3-1.5,0.3-2.5c0-1.3-0.2-2.4-0.7-3.1c-0.4-0.7-1-1.2-1.6-1.5c-0.5-0.2-1.2-0.3-2.2-0.3h-2.7V257.5z"/>
		<path class="st4" d="M264.6,256l1.6,0.2c-0.3,1-0.7,1.7-1.4,2.2s-1.6,0.8-2.7,0.8c-1.4,0-2.4-0.4-3.2-1.3c-0.8-0.8-1.2-2-1.2-3.5
			c0-1.6,0.4-2.8,1.2-3.7s1.9-1.3,3.1-1.3c1.2,0,2.3,0.4,3.1,1.3s1.2,2,1.2,3.6c0,0.1,0,0.2,0,0.4h-7c0.1,1,0.3,1.8,0.9,2.4
			s1.2,0.8,2,0.8c0.6,0,1.1-0.2,1.5-0.5S264.3,256.7,264.6,256z M259.4,253.4h5.2c-0.1-0.8-0.3-1.4-0.6-1.8c-0.5-0.6-1.2-0.9-2-0.9
			c-0.7,0-1.3,0.2-1.8,0.7C259.7,252,259.4,252.6,259.4,253.4z"/>
		<path class="st4" d="M270.8,259l-3.6-9.3h1.7l2,5.6c0.2,0.6,0.4,1.2,0.6,1.9c0.1-0.5,0.3-1.1,0.6-1.8l2.1-5.7h1.6l-3.5,9.3H270.8z
			"/>
		<path class="st4" d="M283.6,256l1.6,0.2c-0.3,1-0.7,1.7-1.4,2.2s-1.6,0.8-2.7,0.8c-1.4,0-2.4-0.4-3.2-1.3c-0.8-0.8-1.2-2-1.2-3.5
			c0-1.6,0.4-2.8,1.2-3.7s1.9-1.3,3.1-1.3c1.2,0,2.3,0.4,3.1,1.3s1.2,2,1.2,3.6c0,0.1,0,0.2,0,0.4h-7c0.1,1,0.3,1.8,0.9,2.4
			s1.2,0.8,2,0.8c0.6,0,1.1-0.2,1.5-0.5S283.3,256.7,283.6,256z M278.4,253.4h5.2c-0.1-0.8-0.3-1.4-0.6-1.8c-0.5-0.6-1.2-0.9-2-0.9
			c-0.7,0-1.3,0.2-1.8,0.7S278.4,252.6,278.4,253.4z"/>
		<path class="st4" d="M287.2,259v-12.9h1.6V259H287.2z"/>
		<path class="st4" d="M290.6,254.3c0-1.7,0.5-3,1.4-3.8c0.8-0.7,1.8-1,2.9-1c1.3,0,2.3,0.4,3.1,1.3s1.2,2,1.2,3.5
			c0,1.2-0.2,2.1-0.5,2.8c-0.4,0.7-0.9,1.2-1.6,1.6s-1.4,0.6-2.3,0.6c-1.3,0-2.4-0.4-3.2-1.3C291,257.1,290.6,255.9,290.6,254.3z
			 M292.2,254.3c0,1.2,0.3,2.1,0.8,2.7c0.5,0.6,1.2,0.9,2,0.9c0.8,0,1.4-0.3,2-0.9s0.8-1.5,0.8-2.7c0-1.2-0.3-2-0.8-2.6
			c-0.5-0.6-1.2-0.9-2-0.9c-0.8,0-1.4,0.3-2,0.9S292.2,253.1,292.2,254.3z"/>
		<path class="st4" d="M301.2,262.6v-12.9h1.4v1.2c0.3-0.5,0.7-0.8,1.2-1.1c0.4-0.2,0.9-0.4,1.6-0.4c0.8,0,1.5,0.2,2.1,0.6
			s1.1,1,1.4,1.7c0.3,0.7,0.5,1.6,0.5,2.5c0,1-0.2,1.8-0.5,2.6c-0.3,0.8-0.8,1.4-1.5,1.8c-0.7,0.4-1.3,0.6-2.1,0.6
			c-0.5,0-1-0.1-1.4-0.3s-0.8-0.5-1-0.8v4.5H301.2z M302.6,254.4c0,1.2,0.2,2.1,0.7,2.7s1.1,0.9,1.8,0.9c0.7,0,1.3-0.3,1.8-0.9
			c0.5-0.6,0.8-1.5,0.8-2.8c0-1.2-0.2-2.1-0.7-2.7c-0.5-0.6-1.1-0.9-1.8-0.9c-0.7,0-1.3,0.3-1.8,0.9
			C302.9,252.3,302.6,253.2,302.6,254.4z"/>
		<path class="st4" d="M311.2,259v-9.3h1.4v1.3c0.3-0.5,0.7-0.8,1.2-1.1s1-0.4,1.7-0.4c0.7,0,1.3,0.1,1.7,0.4
			c0.4,0.3,0.8,0.7,0.9,1.2c0.7-1.1,1.7-1.6,2.9-1.6c0.9,0,1.6,0.3,2.1,0.8s0.7,1.3,0.7,2.4v6.4h-1.6v-5.9c0-0.6-0.1-1.1-0.2-1.4
			c-0.1-0.3-0.3-0.5-0.6-0.7s-0.6-0.3-0.9-0.3c-0.7,0-1.2,0.2-1.6,0.7c-0.4,0.4-0.7,1.1-0.7,2.1v5.4h-1.6v-6.1
			c0-0.7-0.1-1.2-0.4-1.6s-0.7-0.5-1.3-0.5c-0.4,0-0.9,0.1-1.2,0.4c-0.4,0.2-0.7,0.6-0.8,1s-0.3,1.1-0.3,2v4.8H311.2z"/>
		<path class="st4" d="M332.6,256l1.6,0.2c-0.3,1-0.7,1.7-1.4,2.2s-1.6,0.8-2.7,0.8c-1.4,0-2.4-0.4-3.2-1.3c-0.8-0.8-1.2-2-1.2-3.5
			c0-1.6,0.4-2.8,1.2-3.7s1.9-1.3,3.1-1.3c1.2,0,2.3,0.4,3.1,1.3s1.2,2,1.2,3.6c0,0.1,0,0.2,0,0.4h-7c0.1,1,0.3,1.8,0.9,2.4
			s1.2,0.8,2,0.8c0.6,0,1.1-0.2,1.5-0.5S332.4,256.7,332.6,256z M327.4,253.4h5.2c-0.1-0.8-0.3-1.4-0.6-1.8c-0.5-0.6-1.2-0.9-2-0.9
			c-0.7,0-1.3,0.2-1.8,0.7S327.5,252.6,327.4,253.4z"/>
		<path class="st4" d="M336.2,259v-9.3h1.4v1.3c0.7-1,1.7-1.5,3-1.5c0.6,0,1.1,0.1,1.6,0.3c0.5,0.2,0.8,0.5,1.1,0.8s0.4,0.7,0.5,1.2
			c0.1,0.3,0.1,0.8,0.1,1.5v5.7h-1.6v-5.7c0-0.6-0.1-1.1-0.2-1.4s-0.3-0.6-0.7-0.8c-0.3-0.2-0.7-0.3-1.1-0.3c-0.7,0-1.3,0.2-1.7,0.6
			s-0.7,1.2-0.7,2.4v5.1H336.2z"/>
		<path class="st4" d="M349.7,257.6l0.2,1.4c-0.4,0.1-0.8,0.1-1.2,0.1c-0.6,0-1-0.1-1.3-0.3s-0.5-0.4-0.7-0.7s-0.2-0.9-0.2-1.9v-5.4
			h-1.2v-1.2h1.2v-2.3l1.6-0.9v3.3h1.6v1.2h-1.6v5.5c0,0.5,0,0.7,0.1,0.9s0.1,0.2,0.3,0.3c0.1,0.1,0.3,0.1,0.5,0.1
			C349.2,257.6,349.4,257.6,349.7,257.6z"/>
	</g>
	<g class="st3">
		<path class="st4" d="M43.4,206l10.7-37h-6.7v4.9H42v-10.7h18.2v6.1L49.9,206H43.4z"/>
		<path class="st4" d="M80.6,163.3v5.8H68.5v11.5c0.6-0.6,1.3-1,2.2-1.4c0.9-0.4,1.9-0.6,2.9-0.6c2.1,0,3.8,0.6,5.1,1.9
			c1.3,1.3,2,3.2,2,5.7v11c0,1.4-0.3,2.7-0.8,3.8c-0.5,1.1-1.2,2.1-2,2.9c-0.8,0.8-1.8,1.4-2.9,1.8c-1.1,0.4-2.2,0.6-3.5,0.6
			s-2.4-0.2-3.5-0.6c-1.1-0.4-2.1-1-2.9-1.8c-0.8-0.8-1.5-1.8-2-2.9c-0.5-1.1-0.8-2.4-0.8-3.8v-1.8h6.1v1.6c0,1,0.3,1.9,0.9,2.4
			c0.6,0.6,1.3,0.9,2.2,0.9c0.9,0,1.6-0.3,2.1-0.8c0.5-0.6,0.8-1.3,0.8-2.3v-10c0-0.8-0.3-1.6-0.8-2.2c-0.5-0.6-1.2-0.9-2.1-0.9
			c-0.5,0-1,0.1-1.3,0.3s-0.7,0.4-0.9,0.6c-0.2,0.2-0.4,0.5-0.5,0.8c-0.2,0.4-0.3,0.6-0.4,0.7h-5.4v-23H80.6z"/>
	</g>
	<g>
	</g>
	<g class="st3">
		<path class="st4" d="M100.5,191.2c-0.8,0-1.4-0.2-1.9-0.6c-0.5-0.4-0.7-1-0.7-1.6v-2c0-0.8,0.2-1.4,0.7-1.8
			c0.5-0.4,1.1-0.7,1.9-0.7c0.8,0,1.4,0.2,1.9,0.7c0.5,0.4,0.7,1,0.7,1.8v2c0,0.7-0.2,1.2-0.7,1.6
			C101.9,190.9,101.3,191.2,100.5,191.2z M98.3,206l7.3-21.4h2l-7.3,21.4H98.3z M100.5,189.3c0.2,0,0.4-0.1,0.5-0.2
			c0.1-0.2,0.2-0.3,0.2-0.6V187c0-0.2-0.1-0.4-0.2-0.6c-0.2-0.2-0.3-0.2-0.5-0.2c-0.2,0-0.4,0.1-0.5,0.2c-0.1,0.1-0.2,0.3-0.2,0.6
			v1.5c0,0.2,0.1,0.4,0.2,0.6S100.3,189.3,100.5,189.3z M105.4,206.2c-0.8,0-1.4-0.2-1.9-0.6s-0.7-1-0.7-1.6v-2
			c0-0.8,0.2-1.4,0.7-1.8c0.5-0.4,1.1-0.7,1.9-0.7c0.8,0,1.4,0.2,1.9,0.7c0.5,0.4,0.7,1,0.7,1.8v2c0,0.7-0.2,1.2-0.7,1.6
			C106.8,206,106.2,206.2,105.4,206.2z M104.7,203.6c0,0.2,0.1,0.4,0.2,0.6c0.2,0.1,0.3,0.2,0.5,0.2c0.2,0,0.4-0.1,0.5-0.2
			c0.1-0.2,0.2-0.3,0.2-0.6v-1.5c0-0.2-0.1-0.4-0.2-0.6c-0.1-0.1-0.3-0.2-0.5-0.2c-0.2,0-0.4,0.1-0.5,0.2c-0.1,0.2-0.2,0.3-0.2,0.6
			V203.6z"/>
	</g>
	<g class="st3">
		<path class="st4" d="M240,206v-5.8l11-20.8c0.6-1,0.9-1.9,1-2.7c0.1-0.8,0.1-1.7,0.1-2.9c0-0.5,0-1.1,0-1.6c0-0.6-0.1-1.1-0.3-1.5
			c-0.2-0.4-0.5-0.8-0.9-1.1c-0.4-0.3-1-0.5-1.7-0.5c-0.9,0-1.7,0.3-2.2,0.8c-0.5,0.5-0.8,1.3-0.8,2.3v3.5H240v-3.4
			c0-1.3,0.2-2.5,0.7-3.6c0.5-1.1,1.1-2.1,2-2.9c0.8-0.8,1.8-1.5,2.9-2c1.1-0.5,2.3-0.8,3.6-0.8c1.6,0,3,0.3,4.1,0.9
			c1.1,0.6,2.1,1.4,2.8,2.4c0.7,1,1.2,2.1,1.6,3.4c0.3,1.3,0.5,2.6,0.5,4.1c0,1,0,1.9-0.1,2.6c0,0.7-0.1,1.4-0.2,2
			c-0.1,0.6-0.3,1.3-0.6,1.9c-0.3,0.6-0.7,1.4-1.1,2.3l-9,17.3h11v6.1H240z"/>
		<path class="st4" d="M278.6,163.3v5.8h-12.1v11.5c0.6-0.6,1.3-1,2.2-1.4c0.9-0.4,1.9-0.6,2.9-0.6c2.1,0,3.8,0.6,5.1,1.9
			c1.3,1.3,2,3.2,2,5.7v11c0,1.4-0.3,2.7-0.8,3.8c-0.5,1.1-1.2,2.1-2,2.9c-0.8,0.8-1.8,1.4-2.9,1.8c-1.1,0.4-2.2,0.6-3.5,0.6
			s-2.4-0.2-3.5-0.6c-1.1-0.4-2.1-1-2.9-1.8c-0.8-0.8-1.5-1.8-2-2.9c-0.5-1.1-0.8-2.4-0.8-3.8v-1.8h6.1v1.6c0,1,0.3,1.9,0.9,2.4
			c0.6,0.6,1.3,0.9,2.2,0.9c0.9,0,1.6-0.3,2.1-0.8c0.5-0.6,0.8-1.3,0.8-2.3v-10c0-0.8-0.3-1.6-0.8-2.2c-0.5-0.6-1.2-0.9-2.1-0.9
			c-0.5,0-1,0.1-1.3,0.3s-0.7,0.4-0.9,0.6c-0.2,0.2-0.4,0.5-0.5,0.8c-0.2,0.4-0.3,0.6-0.4,0.7h-5.4v-23H278.6z"/>
	</g>
	<g>
	</g>
	<g class="st3">
		<path class="st4" d="M298.5,191.2c-0.8,0-1.4-0.2-1.9-0.6c-0.5-0.4-0.7-1-0.7-1.6v-2c0-0.8,0.2-1.4,0.7-1.8
			c0.5-0.4,1.1-0.7,1.9-0.7s1.4,0.2,1.9,0.7c0.5,0.4,0.7,1,0.7,1.8v2c0,0.7-0.2,1.2-0.7,1.6C299.9,190.9,299.3,191.2,298.5,191.2z
			 M296.3,206l7.3-21.4h2l-7.3,21.4H296.3z M298.5,189.3c0.2,0,0.4-0.1,0.5-0.2c0.1-0.2,0.2-0.3,0.2-0.6V187c0-0.2-0.1-0.4-0.2-0.6
			c-0.2-0.2-0.3-0.2-0.5-0.2c-0.2,0-0.4,0.1-0.5,0.2c-0.1,0.1-0.2,0.3-0.2,0.6v1.5c0,0.2,0.1,0.4,0.2,0.6
			C298.1,189.3,298.3,189.3,298.5,189.3z M303.4,206.2c-0.8,0-1.4-0.2-1.9-0.6s-0.7-1-0.7-1.6v-2c0-0.8,0.2-1.4,0.7-1.8
			c0.5-0.4,1.1-0.7,1.9-0.7s1.4,0.2,1.9,0.7c0.5,0.4,0.7,1,0.7,1.8v2c0,0.7-0.2,1.2-0.7,1.6C304.8,206,304.2,206.2,303.4,206.2z
			 M302.7,203.6c0,0.2,0.1,0.4,0.2,0.6c0.2,0.1,0.3,0.2,0.5,0.2c0.2,0,0.4-0.1,0.5-0.2c0.1-0.2,0.2-0.3,0.2-0.6v-1.5
			c0-0.2-0.1-0.4-0.2-0.6c-0.2-0.1-0.3-0.2-0.5-0.2c-0.2,0-0.4,0.1-0.5,0.2c-0.1,0.2-0.2,0.3-0.2,0.6V203.6z"/>
	</g>
</g>
</svg>
