<svg xmlns="http://www.w3.org/2000/svg" width="379" height="393" viewBox="0 0 379 393">
    <defs>
        <linearGradient id="a" x1="85.198%" x2="77.153%" y1="13.849%" y2="93.245%">
            <stop offset="0%" stop-color="#D2F0E1"/>
            <stop offset="100%" stop-color="#B4D2F0"/>
        </linearGradient>
        <linearGradient id="b" x1="78.635%" x2="37.314%" y1="93.665%" y2="-4.361%">
            <stop offset="0%" stop-color="#D2F0F0"/>
            <stop offset="100%" stop-color="#F0E6B4"/>
        </linearGradient>
    </defs>
    <g fill="none" fill-rule="evenodd">
        <g stroke="#FFF">
            <path fill="#FFF" stroke-width="4" d="M376.712 196.68c0 99.54-80.777 180.231-180.42 180.231-99.642 0-180.42-80.692-180.42-180.231S96.65 16.449 196.292 16.449c99.643 0 180.42 80.692 180.42 180.231"/>
            <path fill="url(#a)" d="M375.712 195.679c0 99.539-80.777 180.23-180.42 180.23-99.642 0-180.42-80.691-180.42-180.23 0-99.539 80.778-180.231 180.42-180.231 99.643 0 180.42 80.692 180.42 180.23" transform="translate(1 1.001)"/>
            <path fill="url(#b)" stroke-width="2" d="M195.292 195.679l97.66-168.975C264.223 10.099 230.87.591 195.291.591 87.435.59 0 87.934 0 195.679c0 107.744 87.435 195.088 195.292 195.088 35.578 0 68.932-9.509 97.66-26.113l-97.66-168.975z" transform="translate(1 1.001)"/>
        </g>
        <text fill="#462405" font-family="OpenSans-Semibold, Open Sans" font-size="18" font-weight="500" transform="translate(1 1)">
            <tspan x="45" y="238">Token Sale</tspan>
        </text>
        <text fill="#462405" font-family="OpenSans-Semibold, Open Sans" font-size="18" font-weight="500" transform="translate(1 1)">
            <tspan x="243" y="234">Ecosystem</tspan> <tspan x="243" y="258">Development</tspan>
        </text>
        <text fill="#462405" font-family="DIN-Light, DIN" font-size="60" font-weight="300" letter-spacing="-2" transform="translate(1 1)">
            <tspan x="39" y="205">75</tspan> <tspan x="96.68" y="205" font-family="DIN-Medium, DIN" font-size="30" font-weight="400">%</tspan>
        </text>
        <text fill="#462405" font-family="DIN-Light, DIN" font-size="60" font-weight="300" letter-spacing="-2" transform="translate(1 1)">
            <tspan x="237" y="205">25</tspan> <tspan x="294.68" y="205" font-family="DIN-Medium, DIN" font-size="30" font-weight="400">%</tspan>
        </text>
    </g>
</svg>
