<?xml version="1.0" encoding="UTF-8"?>
<svg enable-background="new 0 0 58 24" version="1.1" viewBox="0 0 58 24" xml:space="preserve" xmlns="http://www.w3.org/2000/svg">
<path d="m20.3 13h-2.4c-0.5 0-0.7 0.3-0.7 0.7v9.3c0 0.5 0.3 0.7 0.7 0.7h2.4c0.5 0 0.7-0.3 0.7-0.7v-9.2c0-0.5-0.2-0.8-0.7-0.8"/>
<path d="m18 10.6c0.2-0.1 0.2-0.3 0.1-0.5-0.1-0.8-0.9-4.3-1.2-5-0.1-0.4-0.3-0.4-0.6-0.4-0.3 0.1-0.7 0.3-1.4 0.7s-1.1 0.7-1.4 1c-0.2 0.2-0.2 0.4 0.1 0.7 0.5 0.6 3.2 2.9 3.9 3.4 0.1 0.1 0.3 0.3 0.5 0.1z"/>
<path d="m20.1 6c0.2 0.1 0.4 0 0.5-0.1 0.8-0.6 3-2.8 3.7-3.6 0.2-0.3 0.2-0.5 0-0.7-0.2-0.3-0.6-0.6-1.3-0.9-0.7-0.4-1.2-0.6-1.6-0.6-0.3 0-0.5 0.1-0.6 0.4-0.2 0.7-0.8 4.3-0.9 5.1 0 0.1 0 0.3 0.2 0.4z"/>
<path d="m39.8 23.7h-2.1c-0.5 0-0.7-0.3-0.7-0.7v-3.1c0-1.2-0.9-2.4-2.5-2.4s-2.5 1.2-2.5 2.3v3.2c0 0.5-0.3 0.7-0.7 0.7h-2.1c-0.5 0-0.7-0.3-0.7-0.7v-15.7c0-0.5 0.3-0.7 0.7-0.7h2.1c0.5 0 0.7 0.3 0.7 0.7v6.7c0 0.3 0.2 0.5 0.5 0.5s0.7-0.3 0.9-0.6l2.9-4.2c0.3-0.5 0.6-0.7 1.1-0.7h2.5c0.5 0 0.8 0.4 0.5 0.9l-3.2 4.3c-0.2 0.3-0.2 0.5 0.2 0.7 1.7 0.8 3.1 2.6 3.1 5v3.1c0 0.4-0.2 0.7-0.7 0.7"/>
<path d="m54.1 14.5c0 0.2-0.1 0.4-0.4 0.4h-4c-0.2 0-0.4-0.1-0.4-0.4v-0.6c0-1.1 0.8-2.3 2.3-2.3s2.3 1.2 2.3 2.3v0.6zm-2.4-5.9c-3.4 0-5.7 2.5-5.7 5.3v4.7c0 2.8 2.3 5.3 5.7 5.3 3.1 0 4.3-1.5 5-2.7 0.1-0.2 0.2-0.7-0.2-1l-1.5-1c-0.4-0.2-0.7-0.2-1 0.2-0.6 1-1.3 1.5-2.3 1.5-1.5 0-2.3-1.2-2.3-2.3v-0.6c0-0.2 0.1-0.4 0.4-0.4h6.3c0.9 0 1.4-0.5 1.4-1.4v-2.4c0-2.7-2.3-5.2-5.8-5.2z"/>
<path d="M10.1,20.4H4c-0.2,0-0.4-0.1-0.4-0.4V7c0-0.5-0.3-0.7-0.7-0.7H0.7C0.3,6.3,0,6.6,0,7v15.2c0,0.9,0.5,1.5,1.5,1.5h8.7  c0.5,0,0.7-0.3,0.7-0.7v-1.9C10.9,20.6,10.6,20.4,10.1,20.4"/>
</svg>
