<?xml version="1.0" encoding="UTF-8"?>
<svg enable-background="new 0 0 186 186" version="1.1" viewBox="0 0 186 186" xml:space="preserve" xmlns="http://www.w3.org/2000/svg">
<path d="m82.7 64.6c-2.4 0-4.4-2-4.4-4.4 0-1.3 0.5-2.5 1.5-3.3 12.5-11 18-20 19-21.8 3.7-6.4 9.6-9.7 15.7-8.9 2.4 0.3 4.1 2.6 3.8 5s-2.5 4.1-4.9 3.8c-3.6-0.5-6 3-6.9 4.5-1.1 1.9-7.3 12.1-20.8 24-0.8 0.8-1.9 1.1-3 1.1"/>
<path d="m8.4 139.5c-2.4 0-4.4-2-4.4-4.4 0-1.3 0.6-2.6 1.6-3.4 4.4-3.6 13.2-9.3 16.2-10.9 2.2-1.1 4.8-0.1 5.9 2.1 1 2.2 0.2 4.7-1.9 5.8-2.3 1.1-10.6 6.5-14.5 9.7-0.8 0.7-1.8 1.1-2.9 1.1"/>
<path d="m119.4 97.6c1.8 1.6 3.8 0.9 5.7-0.8 12.8-12.2 26.3-31.3 30.8-41.3 1-2.1 2.9-3.3 5-2.5 2.5 1 2.4 5.2 0.2 9.8-5.9 12.2-14.1 25.6-30.3 42.3-1.6 1.6-1.3 3.7 0.1 5s3.7 1.2 5.9-1c8.4-8.6 14.1-15.2 18.9-22.1 1.2-1.8 2.8-2.5 4.2-2.2 2.1 0.4 2.5 2.5 1.8 4.9-1.1 4-12.2 18.6-16.6 23.5-12 13.4-24 20.7-47.1 32.7-8.1 4.2-14.1 8.2-17.7 14.4-3.3 5.6-4.3 7.4-4.7 8.1-1.3 2.7-0.3 6.2 2.5 7.5 2.7 1.3 6 0.2 7.3-2.6 0-0.1 0.1-0.2 0.1-0.3s-0.2 0.1 4.2-7.3c2.1-3.5 6.6-8.8 13.6-12 23.1-10.5 32.5-18.9 46-32.3 6.1-6.1 14.6-19.2 16.9-23.1 6.4-10.9 3.1-20.2-2.8-21.8-0.4-0.1-0.6-0.5-0.5-0.9 0-0.1 0-0.1 0.1-0.2 4.5-7.7 6.6-13.1 7.4-17.2 1.1-5.6-0.4-12.5-8.2-14.1-0.4-0.1-0.6-0.5-0.6-0.9 0.5-1.8 1-4 1.3-5.5 1.6-7.3-3-13.9-8.5-15.1-3.9-0.8-7.4 0.1-10.4 2.2-0.4 0.3-1 0.2-1.3-0.2-1.2-1.3-3.1-2.6-5.8-2.7-4.8-0.1-9.6 1.4-13.1 8.8-2.5 5.3-6.2 12.5-17.1 24.5-10.1 11.5-24.1 22.4-32.8 28.1-1.5 1-3.7 0.8-3.4-1.3 0.4-3.2 3.9-25 4.5-31.4 1-10.4-4.6-15.2-10.9-16-5.2-0.7-13 0.8-17.3 12.6-2.5 6.9-7.8 18.2-12.2 36.5-3.1 12.8-3.6 27.8-0.8 45 0.2 1 0 2.1-0.6 3-3.4 5.6-8.5 13.1-11.2 19.5-1.1 2.6-0.2 5.7 2.3 7.1 2.6 1.4 5.9 0.5 7.4-2.2 0.1-0.1 0.1-0.2 0.2-0.3 1.7-3.5 5.1-10.1 6.4-12.9 2.3-4.8 3.9-7.9 4.5-9.9 0.6-1.8 0.9-3.9-0.1-8.7-1.8-8-2.4-23.1 0.9-36.4 4.3-17.6 11.7-37.3 13-40.6s3.2-4.3 5-4.1c1.9 0.2 5.4 1.1 4.4 7.7-1.8 11.9-4.4 27-5.3 32.1-0.4 2.5-0.9 8.3 3.7 11 3.6 2.1 7.5 0.9 11.9-2 9.8-6.6 26.8-19.9 37.4-31.9 11.2-12.5 14.7-20 17.6-26.8 1.3-3.1 4.7-3.1 5.9-2.7 1.2 0.3 2.6 2 1.6 5.3-2.5 8.2-12.7 27.1-32.3 44.8-2.2 2-1.9 4.4-0.8 5.6s3.1 2 5.4 0c17.7-15.1 27.7-33 32.3-42.7 2.3-4.8 3.1-7.7 3.9-9.9 1-2.8 3.1-3.8 4.6-3.5 2.1 0.5 3.6 2.7 2.9 6.3-0.6 3.1-2.4 8.3-4.8 13.4-5.7 12-17.6 28.1-30.5 41.9-1.5 2-1.8 4.2-0.1 5.8"/>
<path d="m39.6 37.8c0.7-0.6 0.4-1.4 0.2-2-1-3-6.4-15.7-7.8-18.3-0.7-1.3-1.6-1.5-2.6-1.1-1.3 0.5-2.9 1.7-5.3 3.8s-3.8 3.5-4.4 4.7c-0.5 0.9-0.4 1.8 0.7 2.7 2.3 1.7 14.2 8.8 17.1 10.1 0.7 0.3 1.4 0.7 2.1 0.1z"/>
<path d="m34.9 46.1c-0.2-0.9-1-1.1-1.6-1.2-3.1-0.8-16.7-2.7-19.7-2.8-1.5-0.1-2.1 0.6-2.3 1.6-0.2 1.3-0.1 3.3 0.5 6.5s1 5.1 1.7 6.3c0.5 0.9 1.3 1.3 2.7 0.8 2.7-1.1 14.9-7.6 17.5-9.4 0.7-0.5 1.4-0.9 1.2-1.8z"/>
<path d="m137.5 150.1c-0.9 0.1-1.2 0.8-1.4 1.4-1.1 3-4.5 16.4-4.9 19.2-0.2 1.4 0.4 2.1 1.4 2.4 1.3 0.4 3.3 0.4 6.5 0.2s5.1-0.5 6.4-1.1c0.9-0.4 1.5-1.2 1.1-2.6-0.8-2.8-6-15.6-7.5-18.4-0.3-0.5-0.7-1.2-1.6-1.1z"/>
<path d="m145.2 143.9c-0.4 0.8 0.1 1.4 0.5 1.9 2 2.5 11.6 12.3 13.9 14.2 1.1 0.9 2 0.8 2.8 0.1 1-0.9 2.1-2.6 3.5-5.4 1.5-2.9 2.2-4.7 2.4-6 0.1-1-0.3-1.9-1.7-2.3-2.8-0.8-16.4-3-19.6-3.2-0.5-0.1-1.4-0.2-1.8 0.7z"/>
</svg>
