<?xml version="1.0" encoding="UTF-8"?>
<svg version="1.1" viewBox="0 0 16 16" xml:space="preserve" xmlns="http://www.w3.org/2000/svg">
<path d="m8 16c-4.4 0-8-3.6-8-8s3.6-8 8-8 8 3.6 8 8-3.6 8-8 8zm0-15.1c-3.9 0-7.1 3.2-7.1 7.1s3.2 7.1 7.1 7.1 7.1-3.2 7.1-7.1-3.2-7.1-7.1-7.1z"/>
<path d="m7.2 9.8v-0.4c0-0.4 0.1-0.7 0.2-1s0.4-0.5 0.8-0.8c0.4-0.4 0.7-0.6 0.8-0.8s0.2-0.4 0.2-0.7-0.1-0.5-0.3-0.7-0.5-0.3-0.9-0.3c-0.3 0-0.7 0-1 0.1-0.2 0.2-0.5 0.3-0.8 0.5l-0.5-1c0.7-0.4 1.5-0.6 2.4-0.6 0.7 0 1.3 0.2 1.7 0.5 0.4 0.4 0.6 0.8 0.6 1.5 0 0.3 0 0.5-0.1 0.7 0 0.2-0.1 0.4-0.3 0.6s-0.5 0.4-0.9 0.8c-0.3 0.2-0.5 0.5-0.6 0.6-0.2 0.2-0.2 0.4-0.2 0.7v0.2h-1.1zm-0.2 1.7c0-0.6 0.3-0.8 0.8-0.8 0.3 0 0.5 0.1 0.6 0.2s0.2 0.4 0.2 0.6c0 0.3-0.1 0.5-0.2 0.6-0.1 0.2-0.3 0.2-0.6 0.2s-0.5-0.1-0.6-0.2-0.2-0.3-0.2-0.6z"/>
</svg>
