<svg width="27" height="31" viewBox="0 0 27 31" fill="none" xmlns="http://www.w3.org/2000/svg">
<path fill-rule="evenodd" clip-rule="evenodd" d="M15.3152 11.8419C15.3152 12.8608 14.4857 13.6902 13.4669 13.6902C12.448 13.6902 11.6185 12.8608 11.6185 11.8419C11.6185 10.823 12.448 9.99361 13.4669 9.99361C14.4857 9.99361 15.3152 10.823 15.3152 11.8419ZM10.1926 11.8419C10.1926 13.648 11.6621 15.1174 13.4669 15.1174C15.2729 15.1174 16.7411 13.648 16.7411 11.8419C16.7411 10.0358 15.2729 8.56641 13.4669 8.56641C11.6621 8.56641 10.1926 10.0358 10.1926 11.8419Z" fill="#28646E"/>
<mask id="mask0" mask-type="alpha" maskUnits="userSpaceOnUse" x="0" y="0" width="27" height="31">
<path fill-rule="evenodd" clip-rule="evenodd" d="M0 0.280273H26.9338V30.7106H0V0.280273Z" fill="white"/>
</mask>
<g mask="url(#mask0)">
<path fill-rule="evenodd" clip-rule="evenodd" d="M18.1709 14.5583L13.4669 17.2745L8.76288 14.5583V9.12602L13.4669 6.40986L18.1709 9.12602V14.5583ZM26.3386 4.12506L19.9539 0.438657C19.5866 0.226177 19.1322 0.226177 18.7648 0.438657C18.3974 0.651137 18.1709 1.0441 18.1709 1.46778V6.38042L14.0621 4.00858C13.6934 3.7961 13.2403 3.7961 12.873 4.00858L8.76288 6.38042V1.46778C8.76288 1.0441 8.53632 0.651137 8.16896 0.438657C7.80032 0.226177 7.3472 0.226177 6.97984 0.438657L0.5952 4.12506C0.22656 4.33754 0 4.7305 0 5.15418V15.2367C0 16.7369 0 21.3014 3.13088 22.9385L4.88064 23.9497V29.5215C4.88064 30.1782 5.41312 30.7107 6.06976 30.7107C6.7264 30.7107 7.25888 30.1782 7.25888 29.5215V23.2636C7.25888 22.8387 7.03104 22.447 6.66368 22.2345L4.27648 20.8559C3.01696 20.1967 2.37824 18.3062 2.37824 15.2367V5.84026L6.38464 3.5273V8.43994V15.2444C6.38464 15.6694 6.61248 16.0611 6.97984 16.2735L12.873 19.6758C13.056 19.782 13.2621 19.8358 13.4669 19.8358C13.6717 19.8358 13.8778 19.782 14.0621 19.6758L19.9539 16.2735C20.3213 16.0611 20.5478 15.6694 20.5478 15.2444V8.43994V3.5273L24.5555 5.84026V18.3343C24.5555 19.2137 24.0832 20.0316 23.3216 20.4719L20.2701 22.2345C19.9027 22.447 19.6762 22.8387 19.6762 23.2636V29.5215C19.6762 30.1782 20.2086 30.7107 20.864 30.7107C21.5206 30.7107 22.0531 30.1782 22.0531 29.5215V23.9497L24.5107 22.5302C26.0058 21.6675 26.9338 20.0598 26.9338 18.3343V5.15418C26.9338 4.7305 26.7059 4.33754 26.3386 4.12506V4.12506Z" fill="#28646E"/>
</g>
<path fill-rule="evenodd" clip-rule="evenodd" d="M13.4671 23.1035C13.0729 23.1035 12.7542 23.4235 12.7542 23.8165V28.5704C12.7542 28.9646 13.0729 29.2846 13.4671 29.2846C13.8614 29.2846 14.1801 28.9646 14.1801 28.5704V23.8165C14.1801 23.4235 13.8614 23.1035 13.4671 23.1035Z" fill="#28646E"/>
</svg>
