<svg xmlns="http://www.w3.org/2000/svg" viewBox="0 0 56 56"><defs><style>.a{fill-rule:evenodd;}</style></defs><path class="a" d="M35.6,29.3c.5.5,1.1.3,1.6-.2a47.25,47.25,0,0,0,8.9-12c.3-.6.8-1,1.5-.7s.7,1.5.1,2.8a46.27,46.27,0,0,1-8.8,12.3.89.89,0,0,0,0,1.4c.4.4,1.1.3,1.7-.3a54.5,54.5,0,0,0,5.5-6.4q.6-.75,1.2-.6c.6.1.7.7.5,1.4-.3,1.2-3.5,5.4-4.8,6.8-3.5,3.9-7,6-13.6,9.5-2.3,1.2-4.1,2.4-5.1,4.2A15.83,15.83,0,0,0,23,49.9a1.64,1.64,0,0,0,.7,2.2,1.62,1.62,0,0,0,2.1-.7v-.1s-.1,0,1.2-2.1a9.09,9.09,0,0,1,3.9-3.5c6.7-3,9.4-5.5,13.3-9.3a47.89,47.89,0,0,0,4.9-6.7c1.9-3.2.9-5.8-.8-6.3-.1,0-.2-.1-.2-.3V23a15.22,15.22,0,0,0,2.1-5c.3-1.6-.1-3.6-2.4-4.1-.1,0-.2-.1-.2-.3.1-.5.3-1.2.4-1.6a3.69,3.69,0,0,0-2.5-4.4,3.94,3.94,0,0,0-3,.6.3.3,0,0,1-.4,0,2.13,2.13,0,0,0-1.7-.8A3.78,3.78,0,0,0,36.6,10a27.72,27.72,0,0,1-4.9,7.1,53.05,53.05,0,0,1-9.5,8c-.4.3-1.1.2-1-.4.1-.9,1.1-7.2,1.3-9.1.3-3-1.3-4.4-3.2-4.6-1.5-.2-3.8.2-5,3.6a70.68,70.68,0,0,0-3.5,10.6,31.19,31.19,0,0,0-.2,13,1.49,1.49,0,0,1-.2.9,61.06,61.06,0,0,0-3.3,5.7,1.62,1.62,0,0,0,.7,2.1,1.58,1.58,0,0,0,2.1-.6v-.1c.5-1,1.5-2.9,1.9-3.7a24.85,24.85,0,0,0,1.3-2.9,4,4,0,0,0,0-2.5,25.23,25.23,0,0,1,.3-10.5,119.94,119.94,0,0,1,3.8-11.8c.4-1,.9-1.2,1.5-1.2s1.6.3,1.3,2.2c-.5,3.4-1.3,7.8-1.5,9.3-.1.7-.3,2.4,1.1,3.2,1,.6,2.2.3,3.5-.6A62,62,0,0,0,34,18.5a24.62,24.62,0,0,0,5.1-7.8,1.48,1.48,0,0,1,1.7-.8,1.11,1.11,0,0,1,.5,1.5c-.7,2.4-3.7,7.9-9.4,13-.6.6-.6,1.3-.2,1.6a1.09,1.09,0,0,0,1.6,0,37.77,37.77,0,0,0,9.3-12.4,14.08,14.08,0,0,0,1.1-2.9c.3-.8.9-1.1,1.3-1,.6.1,1,.8.8,1.8a21,21,0,0,1-1.4,3.9c-1.6,3.5-5.1,8.1-8.8,12.1-.4.7-.5,1.3,0,1.8M12.5,12c.2-.2.1-.4.1-.6a42.33,42.33,0,0,0-2.3-5.3.58.58,0,0,0-.8-.3A4.91,4.91,0,0,0,8,6.9,5.14,5.14,0,0,0,6.7,8.3a.65.65,0,0,0,.2.8c.7.5,4.1,2.5,5,2.9C12.1,12,12.3,12.2,12.5,12ZM5,13.2a.67.67,0,0,0-.7.5,6.71,6.71,0,0,0,.1,1.9,6.89,6.89,0,0,0,.5,1.8.52.52,0,0,0,.8.2c.8-.3,4.3-2.2,5.1-2.7.2-.1.4-.2.3-.5M40.9,44.5c-.3,0-.3.2-.4.4a57.28,57.28,0,0,0-1.4,5.6.53.53,0,0,0,.4.7,9.23,9.23,0,0,0,1.9.1,6.77,6.77,0,0,0,1.9-.3c.3-.1.4-.3.3-.8a39.66,39.66,0,0,0-2.2-5.3c-.2-.2-.3-.4-.5-.4Zm2.2-1.8a.66.66,0,0,0,.1.6c.6.7,3.4,3.6,4,4.1a.52.52,0,0,0,.8,0,6.38,6.38,0,0,0,1-1.6,5.92,5.92,0,0,0,.7-1.7c0-.3-.1-.5-.5-.7a52.11,52.11,0,0,0-5.7-.9S43.2,42.5,43.1,42.7ZM25,19.8a1.32,1.32,0,0,1-1.3-1.3,1.78,1.78,0,0,1,.4-1,28.33,28.33,0,0,0,5.5-6.3,4.68,4.68,0,0,1,4.6-2.6,1.2,1.2,0,0,1,1,1.5,1.32,1.32,0,0,1-1.4,1.1c-1-.1-1.7.9-2,1.3a27.64,27.64,0,0,1-6,6.9.91.91,0,0,1-.8.4M3.5,41.4a1.32,1.32,0,0,1-1.3-1.3,1.39,1.39,0,0,1,.5-1A28.82,28.82,0,0,1,7.4,36a1.32,1.32,0,0,1,1.7.6,1.26,1.26,0,0,1-.5,1.6A30.38,30.38,0,0,0,4.4,41a1.22,1.22,0,0,1-.9.4"/></svg>
