<?xml version="1.0" encoding="utf-8"?>
<svg version="1.1" id="Layer_1" xmlns="http://www.w3.org/2000/svg" xmlns:xlink="http://www.w3.org/1999/xlink" x="0px" y="0px"
	 viewBox="0 0 26 26" style="enable-background:new 0 0 26 26;" xml:space="preserve">
	<g>
		<path d="M13,14.5l-1.3,1.3l0.3,0.3h0c0.6,0.6,0.6,1.6,0,2.2L7.3,23c-0.6,0.6-1.6,0.6-2.2,0L3,20.8c-0.6-0.6-0.6-1.6,0-2.2L7.7,14
			c0.6-0.6,1.6-0.6,2.2,0l0.4,0.4l1.3-1.3l-0.4-0.4c-1.3-1.3-3.4-1.3-4.7,0l-4.7,4.7c-1.3,1.3-1.3,3.4,0,4.7l2.2,2.2
			c0.7,0.6,1.5,1,2.4,1c0.9,0,1.7-0.3,2.4-1l4.7-4.7c1.3-1.3,1.3-3.4,0-4.7L13,14.5z"/>
		<path d="M24.3,3.9l-2.2-2.2c-1.3-1.3-3.4-1.3-4.7,0l-4.7,4.7c-1.3,1.3-1.3,3.4,0,4.7l0.4,0.4l1.3-1.3L14,9.8
			c-0.6-0.6-0.6-1.6,0-2.2L18.7,3c0.6-0.6,1.6-0.6,2.2,0L23,5.2c0.6,0.6,0.6,1.6,0,2.2L18.3,12c-0.6,0.6-1.6,0.6-2.2,0l-0.4-0.4
			L14.6,13l0.3,0.4c0.7,0.6,1.5,1,2.4,1c0.9,0,1.7-0.3,2.4-1l4.7-4.7C25.6,7.3,25.6,5.2,24.3,3.9z"/>
		<path d="M8.6,18.3c0.2,0,0.5-0.1,0.7-0.3L18,9.3c0.4-0.4,0.4-0.9,0-1.3c-0.2-0.2-0.4-0.3-0.7-0.3c0,0,0,0,0,0
			c-0.2,0-0.5,0.1-0.6,0.3L8,16.7c-0.4,0.4-0.4,0.9,0,1.3l0.2-0.2L8,18C8.1,18.2,8.4,18.3,8.6,18.3z"/>
	</g>
</svg>
