<svg xmlns="http://www.w3.org/2000/svg" viewBox="0 0 16 16" id="mat-gold--sprite"><path d="M8 13.367l2.625-2.246a2.5 2.5 0 0 0 .875-1.9V5.5h1v3.721a3.5 3.5 0 0 1-1.225 2.66L8 14.683l-.325-.278-2.95-2.524A3.5 3.5 0 0 1 3.5 9.22V5.5h1v3.72a2.5 2.5 0 0 0 .875 1.901L8 13.367z"></path><path d="M8 9.586l2.647-2.316a2.5 2.5 0 0 0 .853-1.881V2h1v3.39a3.5 3.5 0 0 1-1.195 2.632L8 10.914l-.33-.288-2.975-2.604A3.5 3.5 0 0 1 3.5 5.39V2h1v3.39a2.5 2.5 0 0 0 .853 1.88L8 9.586z"></path><path d="M8 5.606l2.577-2.094a2.5 2.5 0 0 0 .923-1.94V0h1v1.572a3.5 3.5 0 0 1-1.293 2.716L8 6.894l-.315-.256-2.892-2.35A3.5 3.5 0 0 1 3.5 1.572V0h1v1.572a2.5 2.5 0 0 0 .923 1.94L8 5.606zM7.5 0h1v16h-1V0z"></path></svg>