<?xml version="1.0" encoding="utf-8"?>
<svg version="1.1" id="Layer_1" xmlns="http://www.w3.org/2000/svg" xmlns:xlink="http://www.w3.org/1999/xlink" x="0px" y="0px"
	 viewBox="0 0 26 26" style="enable-background:new 0 0 26 26;" xml:space="preserve">
<path d="M23.4,8.1c-0.7,0.3-1.5,0.5-2.2,0.6c0.8-0.5,1.4-1.3,1.7-2.2c-0.8,0.5-1.6,0.8-2.5,0.9c-1.5-1.6-4-1.7-5.5-0.2
	c-1,1-1.5,2.4-1.1,3.8C10.5,10.9,7.6,9.4,5.6,7c-1,1.8-0.5,4.1,1.2,5.2c-0.6,0-1.2-0.2-1.8-0.5v0.1c0,1.9,1.3,3.5,3.1,3.8
	c-0.6,0.2-1.2,0.2-1.8,0.1c0.5,1.6,2,2.7,3.7,2.7C8.7,19.5,7,20,5.2,20c-0.3,0-0.6,0-0.9-0.1c1.8,1.1,3.9,1.8,6,1.8
	c7.2,0,11.1-6,11.1-11.1c0-0.2,0-0.3,0-0.5C22.2,9.6,22.8,8.9,23.4,8.1L23.4,8.1z"/>
</svg>
