<svg xmlns="http://www.w3.org/2000/svg" width="256" height="118" viewBox="0 0 256 118">
    <g fill="none" fill-rule="evenodd">
        <path fill="#000" fill-rule="nonzero" d="M174.073 97.913h-11.312a.99.99 0 0 0-.985.983v11.106c0 .544.458.97.985.97h11.312a.976.976 0 0 0 .984-.97V98.896a.982.982 0 0 0-.984-.983zm-2.287 10.53c0 .555-.448.97-.995.97h-4.738a.97.97 0 0 1-.99-.97v-8.003a.98.98 0 0 1 .99-.972h4.738c.547 0 .995.431.995.972v8.002zM190.685 97.914H177.734a.958.958 0 0 0-.982.982v11.107c0 .544.407.971.981.971h1.287a.963.963 0 0 0 .983-.971V99.476h1.844c.354 0 .676.343.75.798v9.729c0 .544.41.971.954.971h1.312a.957.957 0 0 0 .966-.971V99.476h1.869c.332 0 .629.315.719.736v9.79c0 .545.428.972.985.972h1.283a.964.964 0 0 0 .964-.971V98.896a.97.97 0 0 0-.964-.982M151.08 104.393v-4.201c0-.418.434-.748.98-.748h7.765c.533 0 .973-.398.973-.822 0-.408-.44-.73-.973-.73h-11.282c-.534 0-1.012.322-1.012.73v11.611c0 .42.478.74 1.012.74h11.282c.533 0 .973-.32.973-.74 0-.399-.44-.82-.973-.82h-7.766c-.545 0-.98-.336-.98-.751V104.393zM145.23 108.292h-1.027a.953.953 0 0 0-.967.97v.74c0 .544.413.97.967.97h1.027c.537 0 .97-.426.97-.97v-.74a.965.965 0 0 0-.97-.97M126.664 97.914h-11.308a.984.984 0 0 0-.988.982v11.107c0 .544.446.971.988.971h11.308c.54 0 .974-.427.974-.971V98.896a.973.973 0 0 0-.974-.982zm-2.314 10.513a.97.97 0 0 1-.958.986h-4.749c-.52 0-1.005-.44-1.005-.986v-8.01c0-.527.485-.973 1.005-.973h4.749a.97.97 0 0 1 .958.972v8.011zM111.733 97.892h-11.33a.955.955 0 0 0-.974.965v5.34c0 .53.427.966.974.966h8.76v3.499c0 .415-.449.75-.988.75h-7.76c-.559 0-.986.421-.986.822 0 .42.427.739.985.739h11.259c.538 0 1.01-.32 1.01-.74V98.858a.962.962 0 0 0-.95-.965zm-2.578 4.783a.976.976 0 0 1-.98.992h-4.761a.97.97 0 0 1-.965-.992v-2.278a.97.97 0 0 1 .965-.98h4.761c.54 0 .98.428.98.98v2.278zM90.754 97.892H79.46c-.554 0-.985.417-.985.965v4.641c0 .47.314.862.751.96-.437.085-.751.49-.751.956v4.588c0 .544.43.97.985.97h11.295a.964.964 0 0 0 .965-.97v-4.588c0-.467-.317-.871-.756-.956a.973.973 0 0 0 .756-.96v-4.641a.956.956 0 0 0-.965-.965zm-2.306 10.55c0 .554-.425.97-.98.97H82.71a.976.976 0 0 1-.977-.97v-2.278c0-.545.46-.986.977-.986h4.758c.555 0 .98.441.98.986v2.278zm0-5.767a.966.966 0 0 1-.98.992H82.71a.987.987 0 0 1-.977-.992v-2.278c0-.552.46-.98.977-.98h4.758c.555 0 .98.428.98.98v2.278zM96.889 97.914h-2.486c-.55 0-1.01.433-1.01.982v11.107c0 .544.46.971 1.01.971h2.486a.97.97 0 0 0 .978-.971V98.896a.977.977 0 0 0-.978-.982M75.94 97.892H64.643a.951.951 0 0 0-.969.965v4.641c0 .47.315.862.75.96-.435.085-.75.49-.75.956v4.588c0 .544.424.97.969.97h11.295a.974.974 0 0 0 .994-.97v-4.588c0-.467-.33-.871-.777-.956a.984.984 0 0 0 .777-.96v-4.641c0-.548-.438-.965-.994-.965zm-2.294 10.55c0 .554-.46.97-.981.97h-4.73c-.558 0-.989-.416-.989-.97v-2.278a.98.98 0 0 1 .989-.986h4.73c.52 0 .981.441.981.986v2.278zm0-5.767c0 .566-.46.992-.981.992h-4.73a.972.972 0 0 1-.989-.992v-2.278c0-.552.431-.98.989-.98h4.73c.52 0 .981.428.981.98v2.278zM140.85 97.892h-11.23c-.554 0-.97.322-.97.73 0 .424.416.822.97.822h7.75c.57 0 .976.33.976.747v2.68c0 .394-.407.731-.976.731h-7.75c-.554 0-.97.424-.97.833 0 .403.416.728.97.728h8.726v3.499c0 .415-.407.751-.976.751h-7.75c-.554 0-.97.421-.97.82 0 .42.416.74.97.74h11.23c.548 0 1.034-.32 1.034-.74V98.623c0-.408-.486-.73-1.034-.73"/>
        <path fill="#FFF" d="M84.53 9.716h86.28v85.255H84.53z"/>
        <path fill="#00A1E4" d="M88.453 53.681h37.9v37.862h-37.9zM88.453 13.111h37.9v37.884h-37.9zM128.989 53.681h37.863v37.862h-37.863zM128.989 13.111h37.863v37.884h-37.863z"/>
        <path fill="#FFF200" d="M138.39 84.467h-1.667c-.88 0-1.59.72-1.59 1.594v1.205c0 .876.71 1.589 1.59 1.589h1.668c.87 0 1.574-.713 1.574-1.589v-1.205c0-.874-.705-1.594-1.574-1.594M159.103 84.467h-1.64c-.887 0-1.59.72-1.59 1.594v1.205c0 .876.703 1.589 1.59 1.589h1.64c.86 0 1.607-.713 1.607-1.589v-1.205c0-.874-.746-1.594-1.607-1.594M160.757 61.518c.867 0 1.6-.718 1.6-1.6v-2.407c0-.876-.733-1.59-1.6-1.59h-1.804c-.875 0-1.593.714-1.593 1.59v2.408c0 .88.718 1.6 1.593 1.6h1.804zM136.884 61.518c.857 0 1.572-.718 1.572-1.6v-2.407c0-.876-.715-1.59-1.572-1.59h-1.828c-.877 0-1.59.714-1.59 1.59v2.408c0 .88.713 1.6 1.59 1.6h1.828z"/>
        <path fill="#FFF200" d="M162.876 65.739c.893 0 1.594-.615 1.594-1.353 0-.762-.7-1.358-1.594-1.358h-7.926v-5.675a1.58 1.58 0 0 0-1.577-1.589h-1.955c-.875 0-1.623.716-1.623 1.589v5.675h-3.802v-5.675c0-.873-.705-1.589-1.573-1.589h-1.968c-.857 0-1.602.716-1.602 1.589v5.675h-7.898c-.868 0-1.604.596-1.604 1.358 0 .738.736 1.353 1.604 1.353h3.706v4.53h-3.706c-.868 0-1.604.404-1.604.915 0 .498.736.907 1.604.907h11.242v3.314h-11.242c-.868 0-1.604.407-1.604.91 0 .509.736.91 1.604.91h11.242v3.325h-11.242c-.868 0-1.604.407-1.604.904 0 .503.736.898 1.604.898h11.242v5.51a1.6 1.6 0 0 0 1.585 1.602h4.26a1.62 1.62 0 0 0 1.603-1.602v-5.51h11.234c.893 0 1.594-.395 1.594-.898 0-.497-.7-.904-1.594-.904h-11.234v-3.326h11.234c.893 0 1.594-.4 1.594-.91 0-.502-.7-.909-1.594-.909h-11.234v-3.314h11.234c.893 0 1.594-.41 1.594-.907 0-.511-.7-.916-1.594-.916h-3.672v-4.53h3.672zm-9.44 4.53h-11.055v-4.53h11.055v4.53zM122.67 74.582H92.138c-.852 0-1.573.707-1.573 1.583v11.623c0 .888.721 1.586 1.573 1.586h30.534a1.57 1.57 0 0 0 1.587-1.586V76.165c0-.876-.697-1.583-1.587-1.583zm-3.317 10.723c0 .885-.711 1.59-1.586 1.59H97.08c-.89 0-1.585-.705-1.585-1.59v-6.632c0-.89.695-1.613 1.585-1.613h20.687c.875 0 1.586.723 1.586 1.613v6.632zM97.449 61.433h11.332c.867 0 1.59-.7 1.59-1.585V57.43c0-.867-.723-1.591-1.59-1.591h-1.977c-.87 0-1.401.71-1.401 1.58 0 .878-.791 1.598-1.693 1.598H92.457c-.864 0-1.584.722-1.584 1.579v9.972c0 .88.72 1.587 1.584 1.587h30.056c.879 0 1.591-.708 1.591-1.587v-9.972c0-.857-.712-1.579-1.59-1.579h-7.237c-.868 0-1.578.543-1.578 1.218 0 .662.71 1.198 1.578 1.198h2.258c.86 0 1.601.714 1.601 1.594v4.38c0 .858-.74 1.58-1.601 1.58H97.449c-.86 0-1.58-.722-1.58-1.58v-4.38c0-.88.72-1.594 1.58-1.594M122.735 31.822H92.081c-.865 0-1.577.72-1.577 1.595v9.061c0 .876.712 1.588 1.577 1.588h12.481l.051 3.476c0 .661.712 1.201 1.604 1.201h16.233c.876 0 1.596-.54 1.596-1.201 0-.655-.72-1.216-1.596-1.216h-10.572c-.867 0-1.575-.543-1.575-1.208v-1.052h12.432c.884 0 1.598-.712 1.598-1.588v-9.061a1.6 1.6 0 0 0-1.598-1.595m-19.703 9.594h-6.046c-.573 0-1.07-.477-1.07-1.055 0-.585.497-1.057 1.07-1.057h6.046c.585 0 1.068.472 1.068 1.057 0 .578-.483 1.055-1.068 1.055m0-4.84h-6.046c-.573 0-1.07-.474-1.07-1.05 0-.593.497-1.064 1.07-1.064h6.046c.585 0 1.068.47 1.068 1.064 0 .576-.483 1.05-1.068 1.05m14.815 4.84H111.8c-.57 0-1.058-.477-1.058-1.055 0-.585.488-1.057 1.058-1.057h6.046c.578 0 1.06.472 1.06 1.057 0 .578-.482 1.055-1.06 1.055m0-4.84H111.8c-.57 0-1.058-.474-1.058-1.05 0-.593.488-1.064 1.058-1.064h6.046c.578 0 1.06.47 1.06 1.064 0 .576-.482 1.05-1.06 1.05M92.241 30.322h1.956c.87 0 1.599-.723 1.599-1.596v-5.743c0-.877.701-1.582 1.582-1.582h7.183v6.858c0 .88.69 1.604 1.553 1.604h2.582c.862 0 1.605-.724 1.605-1.604v-6.858h7.15c.88 0 1.589.705 1.589 1.582v5.743c0 .873.721 1.596 1.601 1.596h1.96c.872 0 1.59-.723 1.59-1.596v-8.003c0-.879-.718-1.599-1.59-1.599h-12.3V17.77h12.3c.872 0 1.59-.541 1.59-1.213 0-.658-.718-1.206-1.59-1.206H92.24c-.854 0-1.597.548-1.597 1.206 0 .672.743 1.213 1.597 1.213h12.32v1.354h-12.32c-.854 0-1.597.72-1.597 1.599v8.003c0 .873.743 1.596 1.597 1.596"/>
        <path fill="#FFF200" d="M115.556 27.75h-1.946c-.59 0-1.055.466-1.055 1.056 0 .588.466 1.057 1.055 1.057h1.946c.614 0 1.079-.469 1.079-1.057 0-.59-.465-1.056-1.079-1.056M115.556 23.513h-1.946c-.59 0-1.055.474-1.055 1.065a1.05 1.05 0 0 0 1.055 1.055h1.946c.614 0 1.079-.472 1.079-1.055a1.06 1.06 0 0 0-1.079-1.065M101.23 27.75h-1.968a1.056 1.056 0 1 0 0 2.113h1.969c.584 0 1.047-.469 1.047-1.057 0-.59-.463-1.056-1.047-1.056M101.23 23.513h-1.968a1.06 1.06 0 1 0 0 2.12h1.969c.584 0 1.047-.472 1.047-1.055a1.05 1.05 0 0 0-1.047-1.065M134.864 17.689h26.13c.879 0 1.579-.496 1.579-1.132 0-.615-.7-1.127-1.579-1.127h-26.13c-.897 0-1.6.512-1.6 1.127-.001.636.703 1.132 1.6 1.132M163.11 24.494h-7.812v-2.71h7.502c.867 0 1.584-.573 1.584-1.29 0-.71-.717-1.293-1.584-1.293h-29.754c-.884 0-1.596.584-1.596 1.294 0 .716.712 1.289 1.596 1.289h7.46v2.71h-7.781c-.842 0-1.595.713-1.595 1.591V47.07c0 .885.753 1.604 1.595 1.604h2.117c.879 0 1.585-.72 1.585-1.604V33.254h7.777c.876 0 1.575-.708 1.575-1.586v-4.76h4.26v4.76c0 .878.698 1.586 1.568 1.586h7.786V47.07a1.61 1.61 0 0 0 1.601 1.604h2.116c.867 0 1.581-.72 1.581-1.604V26.085a1.59 1.59 0 0 0-1.58-1.59zm-22.605 4.904c0 .88-.706 1.593-1.573 1.593h-2.505v-2.486c0-.883.712-1.598 1.604-1.598h2.474v2.49zm9.535-4.904h-4.261v-2.71h4.26v2.71zm9.353 6.497h-2.495c-.872 0-1.6-.713-1.6-1.593v-2.491h2.52c.854 0 1.575.715 1.575 1.598v2.486z"/>
        <path fill="#FFF200" d="M155.078 47.302c.87 0 1.59-.711 1.59-1.578v-8.899c0-.892-.72-1.596-1.59-1.596h-14.181c-.889 0-1.6.704-1.6 1.596v8.899c0 .867.711 1.578 1.6 1.578h14.18zM144.44 39.68c0-.877.72-1.586 1.595-1.586h3.925a1.59 1.59 0 0 1 1.578 1.586v3.16c0 .888-.72 1.6-1.578 1.6h-3.925a1.6 1.6 0 0 1-1.595-1.6v-3.16z"/>
    </g>
</svg>
