<svg xmlns="http://www.w3.org/2000/svg" width="256" height="118" viewBox="0 0 256 118">
    <g fill="none" fill-rule="nonzero">
        <path fill="#ED1C24" d="M50.33 88.271h154.728v-57.39H50.329z"/>
        <path fill="#FFF" d="M139.328 32.48v11.71l-8.56 42.153h-13.37l9.57-44.15h-13.322V32.48h25.682M165.58 55.92c1.961.662 3.421 1.746 4.38 3.249.96 1.503 1.439 5.026 1.439 10.573 0 4.118-.469 7.312-1.404 9.584-.935 2.271-2.554 4-4.851 5.183-2.297 1.183-5.244 1.775-8.839 1.775-4.084 0-7.292-.69-9.62-2.066-2.33-1.378-3.862-3.066-4.595-5.063-.735-1.998-1.101-5.463-1.101-10.397v-4.103h12.94v8.465c0 2.255.13 3.687.39 4.298.26.612.84.917 1.735.917.977 0 1.623-.384 1.935-1.155.312-.772.47-2.783.47-6.038v-3.597c0-1.99-.223-3.446-.666-4.368-.445-.918-1.1-1.525-1.966-1.813-.866-.29-2.548-.454-5.04-.498v-7.487c3.079 0 4.982-.117 5.71-.353.728-.234 1.252-.746 1.574-1.536.32-.79.48-2.03.48-3.716V44.89c0-1.814-.186-3.01-.557-3.587-.373-.576-.953-.865-1.738-.865-.893 0-1.504.305-1.832.912-.33.609-.494 1.904-.494 3.889v4.257h-12.941v-4.403c0-4.935 1.129-8.27 3.384-10.003 2.257-1.733 5.843-2.602 10.76-2.602 6.15 0 10.322 1.203 12.515 3.608 2.192 2.404 3.288 5.746 3.288 10.023 0 2.895-.396 4.986-1.187 6.274-.791 1.288-2.182 2.464-4.169 3.527M203.944 51.08v17.25c0 3.92-.214 6.773-.64 8.563-.427 1.789-1.312 3.46-2.656 5.016-1.346 1.555-2.967 2.672-4.867 3.354-1.899.68-4.021 1.021-6.367 1.021-3.095 0-5.667-.357-7.715-1.07-2.048-.714-3.68-1.825-4.895-3.338-1.217-1.512-2.08-3.103-2.593-4.776-.513-1.67-.768-4.327-.768-7.97V51.08c0-4.749.41-8.306 1.232-10.67.82-2.363 2.452-4.26 4.895-5.686 2.444-1.427 5.405-2.142 8.884-2.142 2.837 0 5.375.496 7.617 1.486 2.24.99 3.915 2.2 5.024 3.626a11.995 11.995 0 0 1 2.258 4.825c.394 1.789.591 4.643.591 8.56zm-12.94-4.349c0-2.748-.132-4.468-.398-5.162-.266-.691-.889-1.038-1.865-1.038-.955 0-1.588.369-1.896 1.103-.309.735-.461 2.434-.461 5.097v25.245c0 3.004.142 4.815.43 5.433.285.618.908.926 1.864.926.956 0 1.583-.36 1.88-1.087.298-.724.446-2.354.446-4.89V46.732z"/>
        <path fill="#2350A9" d="M62.81 65.285h-9.812v-2.307c0-2.662.305-4.715.919-6.157.611-1.443 1.84-2.718 3.685-3.824 1.845-1.106 4.242-1.66 7.193-1.66 3.534 0 6.197.627 7.992 1.879 1.793 1.254 2.87 2.79 3.232 4.614.363 1.824.545 5.577.545 11.26v17.26H66.368v-3.09c-.637 1.223-1.458 2.14-2.465 2.75-1.007.61-2.207.916-3.6.916a8.805 8.805 0 0 1-5.02-1.538c-1.524-1.024-2.285-3.27-2.285-6.735v-2.82c0-2.566.405-4.316 1.213-5.248.808-.93 2.812-2.016 6.012-3.258 3.422-1.344 5.254-2.25 5.494-2.717.24-.466.362-1.42.362-2.863 0-1.805-.132-2.982-.396-3.53-.264-.546-.702-.82-1.315-.82-.7 0-1.133.23-1.303.69-.171.46-.256 1.653-.256 3.58v3.618zm3.27 4.717c-1.653 1.225-2.61 2.252-2.876 3.078-.264.829-.395 2.018-.395 3.57 0 1.776.114 2.925.345 3.441.23.518.685.776 1.367.776.646 0 1.069-.202 1.264-.607.196-.406.294-1.47.294-3.196v-7.062zM92.594 67.63l2.672.392-.14-3.315-2.353-.345-.179 3.269zm6.13.898l.993.145-.253-1.232c-.236.354-.486.72-.74 1.087zm.538-3.216l.27 1.313c.267-.406.518-.794.754-1.163l-1.024-.15zm1.202 5.849l-.052.01a110.342 110.342 0 0 0-8.312 5.523l-.034.62c2.73-1.65 6.032-3.446 9.999-5.32l.038-1.814c-.557.32-1.108.642-1.643.962l.004.019zm1.549-1.374l-1.888-.276.253 1.235c.535-.32 1.08-.64 1.635-.96zm.193-4.628l.045-2.142c-.259.434-.673 1.124-1.204 1.972l1.159.17zm-2.562 2.01l.317 1.54 2.166.317.067-3.285-1.484-.217a92.59 92.59 0 0 1-1.066 1.645zm-1.414 2.064a57.406 57.406 0 0 1-2.54 3.36l.047 1.09a111.86 111.86 0 0 1 4.432-2.81l-.287-1.398-1.652-.242zm.91-4.522l1.484.217a88.098 88.098 0 0 0 1.58-2.593l.06.034.009-.434-3.818-.559.684 3.335zM89 79.26l.024-.226c-.603.477-1.178.94-1.717 1.387A67.128 67.128 0 0 1 89 79.26zm-6.826 5.221l.152-.148-.147.031-.005.117zm-.226-.117a1.28 1.28 0 0 1-.5-.18l-.02 1.034c.15-.152.314-.315.505-.502l.015-.352zm-.73-.34a2.55 2.55 0 0 1-.217-.202l-.107 1.942.3-.309.025-1.432zM81 86.318h1.325l.004-.145.025-1.252A21.293 21.293 0 0 0 81 86.319zm23.755-8.875c3.172-.842 6.72-1.675 10.674-2.461V66.84a168.648 168.648 0 0 0-11.008 4.488l.334 6.115zM82.79 85.878c.841-.522 2.712-1.595 5.798-2.949l.355-3.174c-2.915 1.962-4.923 3.623-6.224 4.824l.07 1.3zm1.063-3.706l-.018.75c.259-.235.534-.482.824-.74l.135-2.427c-.35.934-.67 1.756-.94 2.417zm9.19-23.001c.002.076.001.157-.002.247L93 60.19l1.945.284-.086-2.025a22.8 22.8 0 0 1-1.815.722zm2.314 5.57l.141 3.315 2.79.408c.37-.534.73-1.061 1.065-1.567l-.334-1.62-3.662-.537zM83.313 83.401l.285-.265.01-.38c-.111.255-.209.47-.295.645zM95.194 60.9l.138 3.255 3.564.521-.685-3.334-3.017-.442zm.471 11.105a59.941 59.941 0 0 0 2.13-2.834l-2.264-.331.134 3.165zm19.707-12.661c-.073-1.534-.218-2.728-.438-3.564-.33-1.254-1.08-2.312-2.251-3.176-1.171-.863-2.648-1.296-4.434-1.296a7.66 7.66 0 0 0-1.85.222l6.82 8.7c.912-.206 1.673-.493 2.153-.886zm-25.855 7.054c-.732 2.14-1.604 4.67-2.472 7.131l-.875 7.345c.55-.468 1.14-.956 1.77-1.466l1.577-13.01zm2.476 12.258a10405.3 10405.3 0 0 0-.16 2.935 108.985 108.985 0 0 1 6.558-2.303l-6.398-.632zm20.976-18.37l-6.81-8.69a7.01 7.01 0 0 0-1.606.681c-1.11.647-2.107 1.615-2.991 2.905-.19-.303-.387-.587-.593-.856-.082.089-.16.182-.246.268l2.808 5.43c.189.134.226.3.25.483l.058.112c1.033.066 5.896.329 9.13-.333zM84.902 81.966c.32-.28.655-.571 1.008-.874l.785-6.57a338.005 338.005 0 0 1-1.628 4.503l-.165 2.941zm6.907.044l-.235 4.309h10.196l.137-6.683-2.54-.252a109.677 109.677 0 0 0-7.558 2.626zm13.423 4.309h10.196V75.374c-3.95.788-7.49 1.621-10.653 2.463.253 4.675.457 8.482.457 8.482zM92.704 58.247s.226.002.31.528c1.264-.446 5.157-1.978 7.716-4.744-1.509-1.813-3.434-2.724-5.78-2.724-1.435 0-2.715.324-3.839.97-1.124.646-2.092 1.614-2.904 2.904l.193-3.296H78.012v34.434h2.376l.32-2.855v-.001l.093-.826.08-.174.138-.049s.056 0 .05.168c-.002.01-.016.28-.038.673.005.007.458.698 1.005.733a.68.68 0 0 0 .338-.074l.02-.982.028-.202c.018-.018.037-.113.129-.073l.065.115c.002.014.025.401.054.918l.092-.094c.793-.94 5.734-15.303 8.237-22.765l.065.022.117-1.05.562-1.219s.512-.53.961-.337zM82.812 86.32h5.395l.331-2.948c-3.192 1.412-5.027 2.501-5.726 2.946v.002zm18.457-7.907l.668-.19.12-5.8c-3.797 1.8-6.978 3.526-9.624 5.117l8.836.873zm2.575-17.281c.067 1.025.23 3.918.423 7.399.869-.476 1.753-.95 2.669-1.42l-3.092-5.98zm-6.28-4.094l.809 3.94 3.943.576.15-1.11c.116-.113.237-.661.73-.564l-2.645-5.117c-.922.897-1.966 1.653-2.988 2.275zm6.48 3.98l3.097 5.988c2.55-1.298 5.27-2.56 8.158-3.749l-2.07-2.641c-3.13.696-7.743.49-9.184.402zm.353 9.9a169.565 169.565 0 0 1 11.031-4.487v-2.812a110.967 110.967 0 0 0-11.139 5.332l.108 1.968zM115.393 59.8c-.488.321-1.15.569-1.917.756l1.952 2.492V61.88c0-.75-.013-1.44-.035-2.08zM92.127 76.2c1.06-.771 2.186-1.562 3.386-2.367l-.042-.975c-1.138 1.356-2.286 2.533-3.342 3.291l-.002.051zM88.198 79.2c.287-.23.584-.465.886-.702l1.813-16.16c-.258.765-.609 1.8-1.02 3.003L88.199 79.2zm6.888-20.854l.092 2.163 2.952.431-.776-3.775a23.88 23.88 0 0 1-2.268 1.18zm-2.93 17.305c1.04-.803 2.171-2.01 3.29-3.377l-.147-3.47-2.747-.402-.396 7.25zm.648-11.868l2.296.337-.138-3.254-1.983-.29-.175 3.207z"/>
        <path fill="#FFF" d="M54.803 39.303h.012c.248-.329.554-.467.935-.467.427 0 .796.173 1.01.565.202-.369.6-.565 1.004-.565.75 0 1.01.49 1.01 1.171v1.888h-1.05v-1.414c0-.306.011-.809-.433-.809-.485 0-.502.457-.502.809v1.414h-1.05v-1.414c0-.33 0-.831-.468-.831s-.468.502-.468.831v1.414h-1.05v-2.961h1.05v.37"/>
        <path fill="#FFF" d="M58.681 38.934h1.213l.79 1.517.773-1.517h1.195L60.28 43.37h-1.177l1.01-1.88-1.432-2.557M66.31 39.898c-.155-.116-.34-.208-.541-.208a.71.71 0 0 0-.722.721c0 .427.306.728.739.728a.804.804 0 0 0 .525-.203v.889a1.645 1.645 0 0 1-.739.168c-.877 0-1.61-.653-1.61-1.547 0-.953.727-1.61 1.657-1.61.242 0 .484.057.692.173v.889M67.667 37.104v2.205h.012c.242-.323.536-.473.946-.473.75 0 1.114.496 1.114 1.247v1.811h-1.05v-1.517c0-.347-.052-.705-.474-.705-.415 0-.548.358-.548.705v1.517h-1.05v-4.79h1.05M73.432 40.417c0 1.004-.83 1.575-1.783 1.575-.947 0-1.783-.566-1.783-1.575 0-1.01.831-1.581 1.783-1.581s1.783.571 1.783 1.58zm-2.458 0c0 .375.248.663.675.663.427 0 .675-.288.675-.663 0-.364-.248-.67-.675-.67-.427 0-.675.306-.675.67zM74.673 37.797a.591.591 0 0 1-.588.588.591.591 0 0 1-.59-.588c0-.324.266-.589.59-.589.322 0 .588.265.588.589zm-.063 4.097h-1.05v-2.96h1.05v2.96zM77.091 39.898c-.156-.116-.34-.208-.542-.208a.71.71 0 0 0-.721.721c0 .427.305.728.738.728a.806.806 0 0 0 .525-.203v.889a1.645 1.645 0 0 1-.738.168c-.877 0-1.61-.653-1.61-1.547 0-.953.727-1.61 1.655-1.61.244 0 .486.057.693.173v.889M80.439 40.59h-2.21c0 .427.224.658.657.658.225 0 .387-.075.502-.271h1.01c-.167.698-.83 1.015-1.506 1.015-.98 0-1.714-.554-1.714-1.575 0-.987.675-1.581 1.639-1.581 1.027 0 1.622.635 1.622 1.644v.11zm-.975-.606c-.053-.283-.312-.468-.596-.468-.305 0-.56.162-.623.468h1.219zM83.526 41.334a.676.676 0 1 1-1.353-.001.676.676 0 0 1 1.353.001M86.52 39.303h.013c.248-.329.553-.467.934-.467.427 0 .797.173 1.01.565.202-.369.6-.565 1.004-.565.75 0 1.01.49 1.01 1.171v1.888h-1.05v-1.414c0-.306.011-.809-.433-.809-.485 0-.502.457-.502.809v1.414h-1.05v-1.414c0-.33 0-.831-.468-.831-.467 0-.467.502-.467.831v1.414h-1.05v-2.961h1.05v.37"/>
        <path fill="#FFF" d="M90.399 38.934h1.212l.79 1.517.773-1.517h1.196l-2.372 4.437H90.82l1.01-1.88-1.431-2.557M96.909 39.268h.012c.19-.295.548-.433.894-.433.883 0 1.495.739 1.495 1.587 0 .854-.606 1.57-1.484 1.57-.34 0-.692-.121-.917-.38v1.76h-1.05v-4.438h1.05v.334zm-.035 1.149c0 .375.248.663.676.663.427 0 .675-.288.675-.663 0-.364-.248-.67-.675-.67-.428 0-.676.306-.676.67z"/>
        <path fill="#FFF" d="M102.72 41.894h-1.05v-.33h-.012c-.185.296-.548.428-.895.428-.877 0-1.494-.733-1.494-1.581s.606-1.575 1.483-1.575c.34 0 .698.126.918.386v-.288h1.05v2.96zm-2.366-1.477c0 .375.248.663.675.663.427 0 .676-.288.676-.663 0-.364-.249-.67-.676-.67-.427 0-.675.306-.675.67zM104.088 39.268h.011c.19-.295.548-.433.894-.433.883 0 1.495.739 1.495 1.587 0 .854-.606 1.57-1.483 1.57-.34 0-.692-.121-.917-.38v1.76h-1.05v-4.438h1.05v.334zm-.035 1.149c0 .375.248.663.675.663.427 0 .676-.288.676-.663 0-.364-.249-.67-.676-.67-.427 0-.675.306-.675.67z"/>
        <path fill="#FFF" d="M109.703 40.59h-2.21c0 .427.224.658.658.658.224 0 .386-.075.502-.271h1.01c-.168.698-.831 1.015-1.507 1.015-.98 0-1.714-.554-1.714-1.575 0-.987.675-1.581 1.64-1.581 1.027 0 1.62.635 1.62 1.644v.11zm-.975-.606c-.052-.283-.312-.468-.595-.468-.306 0-.56.162-.623.468h1.218zM110.886 39.418h.012c.202-.364.548-.525.958-.525h.202v1.01a.858.858 0 0 0-.445-.098c-.582 0-.727.386-.727.895v1.194h-1.05v-2.96h1.05v.484"/>
    </g>
</svg>
