<?xml version="1.0" encoding="UTF-8"?>
<svg width="256px" height="118px" viewBox="0 0 256 118" version="1.1" xmlns="http://www.w3.org/2000/svg" xmlns:xlink="http://www.w3.org/1999/xlink">
    <!-- Generator: sketchtool 51.2 (57519) - http://www.bohemiancoding.com/sketch -->
    <title>DD550E11-7070-46BF-B342-E7E6A62FC1F3</title>
    <desc>Created with sketchtool.</desc>
    <defs></defs>
    <g id="New-Home" stroke="none" stroke-width="1" fill="none" fill-rule="evenodd">
        <g id="likecoin_press" transform="translate(-659.000000, -434.000000)" fill="#0040E0" fill-rule="nonzero">
            <g id="HK01" transform="translate(659.000000, 434.000000)">
                <g id="hk01" transform="translate(69.000000, 28.000000)">
                    <path d="M106.420382,17.3607391 L106.420382,61.1462475 C106.469006,64.8560618 109.494619,67.8379639 113.210191,67.8379639 C116.925763,67.8379639 119.951376,64.8560618 120,61.1462475 L120,1.20099972 L106.420382,17.3607391 Z M52.3961352,66.0292386 L62.1264307,54.4517306 C48.9945439,53.3822336 39.3537946,39.9978446 44.8277399,25.8795555 C46.7861262,20.8305078 50.8598951,16.8428285 55.934953,14.9430489 C68.6760929,10.1738588 80.7694768,17.6220169 83.7024044,28.7756744 L93.4222334,17.2097786 L93.4222334,17.2062949 C85.7933654,3.82771217 69.3471077,-3.88520743 51.9705002,1.99876782 C42.5541977,5.18867902 35.0858151,12.5776142 31.8412203,21.9638727 C25.0531559,41.6015095 35.7324082,60.1046201 52.3868317,66.0327223 C52.3903205,66.0327223 52.3938093,66.0327223 52.3949722,66.0303998 L52.3961352,66.0292386 Z M63.2428504,67.9952086 C82.3150203,68.3110644 97.8704682,52.9699953 97.8704682,34.0012296 C97.8704682,31.7879167 97.651836,29.6245368 97.2471338,27.5296697 L63.2428504,67.9952086 Z M12.9120916,46.7504233 L16.7323403,46.7504233 L16.7323403,43.7753405 L12.9120916,43.7753405 L12.9120916,46.7504233 Z M16.5741809,48.8545802 L13.4923973,48.8545802 L12.0677992,51.2234986 L17.997616,51.2234986 L16.5741809,48.8545802 Z M11.5688992,56.1703576 L18.3395195,56.1703576 L18.3395195,53.3288168 L11.5688992,53.3288168 L11.5688992,56.1703576 Z M21.8957814,54.8535177 L21.8957814,58.2756758 L11.5688992,58.2756758 L11.5688992,60.4587967 L23.8727747,60.4587967 L22.8459011,62.5641148 L8.01031138,62.5641148 L8.01031138,54.8535177 L6.00889647,54.8535177 L9.5651584,48.8545802 L6.03448109,48.8545802 L6.03448109,46.7504233 L9.35350383,46.7504233 L9.35350383,43.7753405 L6.58803919,43.7753405 L6.58803919,41.6723448 L9.35350383,41.6723448 L9.35350383,39.5147711 L12.9120916,39.5147711 L12.9120916,41.6723448 L16.7323403,41.6723448 L16.7323403,39.5147711 L20.2909281,39.5147711 L20.2909281,41.6723448 L23.0819774,41.6723448 L23.0819774,43.7753405 L20.2909281,43.7753405 L20.2909281,46.7504233 L23.663446,46.7504233 L23.663446,48.8545802 L20.5002568,48.8545802 L24.0576817,54.8535177 L21.8969444,54.8535177 L21.8957814,54.8535177 Z M2.79337513,52.2233215 L0.290734298,46.0664562 L4.0586508,46.0664562 L6.56245457,52.2233215 L2.79453807,52.2233215 L2.79337513,52.2233215 Z M3.71674726,62.5641148 L0.0534951108,62.5641148 L2.50264084,53.2231445 L6.16589299,53.2231445 L3.71558433,62.5641148 L3.71674726,62.5641148 Z M2.74104296,45.1978528 L0,39.4869015 L3.7679165,39.4869015 L6.50895946,45.1966915 L2.74104296,45.1966915 L2.74104296,45.1978528 Z M5.42859081,27.9361018 L18.5767587,27.9361018 L18.5767587,25.9352947 L5.42859081,25.9352947 L5.42859081,27.9361018 Z M5.42859081,23.8833934 L18.5767587,23.8833934 L18.5767587,21.9092947 L5.42859081,21.9092947 L5.42859081,23.8833934 Z M13.7819687,13.7806531 L13.7819687,19.2535514 L10.2222179,19.2535514 L10.2222179,13.7806531 L0.526810548,13.7806531 L0.526810548,11.7275905 L10.2233809,11.7275905 L10.2233809,10.0705089 L1.13270082,10.0705089 L1.13270082,8.01744628 L19.367556,8.01744628 L19.7362071,6.91311226 L23.4517914,6.91311226 L22.3702598,10.0705089 L13.7819687,10.0705089 L13.7819687,11.7275905 L23.4517914,11.7275905 L23.4517914,13.7806531 L13.7808057,13.7806531 L13.7819687,13.7806531 Z M22.1341836,20.5413605 L22.1341836,29.9880032 L1.87116594,29.9880032 L1.87116594,20.5413605 L0.0267475554,20.5413605 L4.00515569,14.6748037 L8.08939111,14.6748037 L4.58429841,19.8585546 L19.4722203,19.8585546 L15.9159584,14.6748037 L19.9990309,14.6748037 L24.0309341,20.5413605 L22.1341836,20.5413605 Z" id="Shape"></path>
                </g>
            </g>
        </g>
    </g>
</svg>