<svg xmlns="http://www.w3.org/2000/svg" width="256" height="118" viewBox="0 0 256 118">
    <g fill="#E8382F" fill-rule="nonzero">
        <path d="M125.688 43.561c-1.93-.273-3.499-.093-5.153 0-1.66.094-3.314 1.193-5.614 1.66-2.3.453-5.615.727-5.891.274-.277-.468 1.015-1.934 1.838-2.667.83-.733 2.761-.913 3.677-2.02.915-1.107-1.377-3.68-3.223-5.787-1.838-2.12-2.661-3.32-6.906-4.694-4.23-1.38-6.48-3.019-8.092-2.02-1.476.92-1.561 3.947.277 4.32 1.839.367 4.046.92 5.792 4.508 1.768 3.572-1.079 6.153-3.01 7.526-1.937 1.38.086 1.934.086 3.22 0 1.28-9.66 3.127-12.052 4.134-2.385 1.013-5.515 1.286-8.369 2.113-2.853.82-3.86 0-4.045 1.653-.185 1.654 9.475 2.487 11.867 2.027 2.385-.46 7.63-2.66 9.753-1.567 2.115 1.107-5.338 2.76-7.638 4.32-2.306 1.56-1.192 3.127.362 3.501 1.569.352 2.946.633 3.869.913.922.273 3.03 0 3.222.834.185.82-3.315 1.833-4.968 2.566-1.661.726-1.292 1.654-3.776 2.667-2.485 1.006-1.47 2.566.276 3.213 1.754.647 2.946 1.007 5.246 1.1 2.3.086 3.13-.546 3.584.46.461 1.02-2.938 2.753-5.054 3.494-2.122.74-1.192 1.653-1.192 7.08s1.47 4.687 3.5 6.527c2.015 1.84 3.768 2.394 7.445 1.927 3.676-.46 8.553-.18 11.953-1.093 3.407-.92 2.853-2.674 2.484-4.241-.37-1.56-1.839-2.56-1.839-4.033 0-1.48.27-1.567-.092-3.033-.362-1.481 1.753-2.94 1.93-4.134.185-1.193-2.753-3.68-5.614-4.047-2.853-.373-7.268 1.927-9.191 2.013-1.938.094-.83-1.1 1.1-1.373 1.93-.28 4.046-1.574 7.538-2.767 3.499-1.186 4.33-.906 4.33-3.76 0-2.846-4.692-2.48-8.007-1.473-3.307 1.013-6.16 2.386-8.737 2.94-2.577.56-1.193-.274.553-1.647 1.746-1.38 2.847-1.473 5.423-2.48 2.577-1.02 7.268-1.746 8.553-1.933 1.292-.18 2.576-3.22 2.669-4.407.092-1.207-.462-2.12-3.223-3.32-2.76-1.194-6.714.467-9.014 1.66-2.3 1.193-5.891 2.386-7.545 2.207-1.654-.187 1.114-1.2 3.322-2.114 2.207-.92 5.7-2.393 9.923-4.226 4.23-1.848 6.906-3.041 9.568-3.494 2.668-.467 4.599.18 6.345-.56 1.753-.734 4.053-1.56 4.883-2.394.824-.82-1.2-3.3-3.123-3.573m-27.05 38.235c2.116-2.293 3.3-2.293 4.969-2.293 2.392 0 1.1 2.393-1.107 4.133-2.208 1.74-2.392 2.207-3.954 2.106-1.561-.079-2.016-1.653.092-3.946"/>
        <path d="M73.65 82.036c-.274-1.714-.099-3.905-.548-7-.456-3.095-.456-7.363-.19-9.184.281-1.822 1.46-4.276.373-3.82-1.095.455-.548 3.002-2.092 2.909-1.544-.085-1.094-2.369-2.273-3.635-1.186-1.274-2.092-2-.821-3.372 1.27-1.366 4-2.818 5.635-6.097 1.642-3.273 3.368-2.817 4.182-6.915.821-4.098 2.456-11.183 2.007-12.734-.456-1.544-.547-2.085-1.544-2.184-1.108-.086-1.46 1.287-1.635 2.376-.19 1.095-1.817 7.91-5.284 12.279-3.453 4.36-8.091 10.735-11.818 13.46-3.726 2.731-9.277 6.552-10.098 7.548-.814 1.01-1.088 3.194 1.916 2.276 3.003-.903 6.73-3.998 8.456-4.638 1.72-.64 3.095-2.277 4.456-3.365 1.362-1.096 2-1.096 2.183-.093.182.996.631 9.37 0 10.65-.639 1.266-4.822 10.273-4.632 11.454.182 1.18.814.91.632 1.729-.183.81-.267 1.458 0 2.184.266.725.631.818.631 2.454 0 1.636.274 2.27 2.007 3.272 1.727 1.003 3.727 1.914 5.362 1.089 1.642-.811 2.737-1.359 2.645-2.184-.09-.811-.547-.996.54-1.466 1.095-.44 1.643-1.081.913-2.354-.73-1.267-.73-2.903-1.003-4.639M206.995 81.357c-.092-3.198-5.71-6.938-10.41-8.95-4.699-2.006-6.917-.18-8.844-1.364-1.934-1.185 3.313-3.84 5.155-5.667 1.841-1.827.554-4.84-1.75-5.746-2.303-.906-3.505-.728-2.303.914 1.194 1.642-.185 2.648-3.136 5.931-2.944 3.29-10.225 8.586-11.511 8.586-1.302 0 .27-8.307.554-10.227.27-1.913 3.406-1.913 5.98-2.556 2.58-.635 3.605-1.82 6.086-3.19 2.489-1.37 4.978-1.556 6.08-2.555 1.109-1.007-.825-4.104-2.859-5.382-2.019-1.277.1-1.649 3.413-3.469 3.328-1.827 3.776-3.74 3.136-6.573-.647-2.826-2.304-5.482-7.743-7.216-5.433-1.727-12.258 3.469-13.353 5.296-1.11 1.82 3.683 3.833 5.524 3.933 1.842.085 2.396-.643 3.861.72 1.48 1.37-2.112 3.84-3.313 4.204-1.195.364-1.11.45-.917 1.37.184.914-3.42 4.105-4.515 4.105-1.11 0 .27-1.185-.185-1.913-.463-.735-.74-3.29-.74-4.66 0-1.371-.74-1.371-2.02-1.193-1.3.186-.739 2.741-1.57 3.833-.832 1.1-6.087 1.92-8.213 2.191-2.119.272-2.211.093-.917-1.556 1.294-1.641 4.714-2.548 5.987-3.097 1.294-.55 2.126-2.741 2.303-4.925.185-2.191-2.943-4.39-4.97-5.296-2.033-.906-1.294-1.913-1.208-3.098.1-1.192-.086-1.37-1.287-3.74-1.195-2.376-5.71-6.573-6.727-7.023-1.01-.464-2.979 2.841-2.211 4.104.284.464.825 1.007 1.842 2.191 1.01 1.192-.185 5.482-.185 8.13 0 2.648-2.574 4.104-5.802 5.11-3.228 1-2.667 1.82-3.136 4.104-.462 2.277 1.479 2.463 3.498 3.833 2.034 1.37 4.793.457 4.793 1.549 0 1.092-5.255 2.191-8.383 2.105-3.122-.092-3.684 1.092-5.987 2.284-2.297 1.185-10.125 2.284-13.076 2.734-2.944.457-2.496 1.827 1.109 4.56 3.59 2.734 6.45 1.371 8.29.729 1.835-.643 3.961-.828 5.803-1.642 1.841-.82 2.58.728 2.95 2.006.363 1.284-2.21.999-2.765 3.197-.555 2.191 4.415 2.099 4.977 3.376.547 1.285-7.374 5.389-8.838 8.123-1.48 2.733 1.749 3.732 4.685 4.018 2.951.278 5.724-1.456 8.02-1.285 2.304.179-1.286 3.012-.831 6.117.462 3.097 6.918 6.017 7.658 5.567.725-.457.27-12.048 1.095-14.053.832-2.006 8.12-1.55 9.492-5.282 1.386-3.747-4.608-4.204-5.432-5.389-.832-1.185 2.666-2.462 3.121-2.74.462-.272 1.387-2.377 2.858-2.456 1.48-.093-.27.907.185 3.098.462 2.191 1.294 4.746 1.294 9.585 0 4.832-2.943 5.203-2.773 11.684.2 6.474 4.423 5.382 7.004 4.111 2.581-1.292 4.423-2.926 4.145-4.11-.263-1.186.74-4.84.654-6.21-.106-1.364-1.855 1.556-2.403 2.376-.547.828-1.187 1.278-3.22 2.463-2.02 1.185-.826-2.191-1.11-4.747-.27-2.562 1.01-3.468 2.218-3.918 1.188-.457 2.197-2.377 3.684-3.105 1.478-.735 3.875 1.463 8.575 4.39 4.692 2.919 4.97 6.017 6.904 7.758 1.934 1.727 6.271 3.283 8.482 2.462 2.212-.849 3.314-5.324 3.228-8.514m-51.308-7.78c-1.464.542-6 1.392-6.84.021-.668-1.099 6.712-4.939 7.16-3.397.47 1.549 1.16 2.826-.32 3.376m.192-10.578c-4.984 1.735-7.38-.364-6.826-1.827.598-1.556 14.207-5.66 14.747-4.104 1.017 2.92-4.166 4.625-7.92 5.931m13.886-2.54c-1.373 1.548-2.574-1.193-3.406-2.277-.832-1.1 1.522-3.626 3.22-3.198 1.48.357 1.572 3.918.186 5.474"/>
    </g>
</svg>
