<svg xmlns="http://www.w3.org/2000/svg" width="256" height="118" viewBox="0 0 256 118">
    <g fill="none" fill-rule="nonzero">
        <path fill="#F6F6F6" d="M201.323 88.013h-89.247V29H202v59.013z"/>
        <g fill="#444">
            <path d="M111.89 65.351a4.251 4.251 0 0 0 1.281 1.521 5.509 5.509 0 0 0 1.875.864 8.776 8.776 0 0 0 2.228.282c.52 0 1.078-.045 1.672-.132a5.75 5.75 0 0 0 1.67-.507c.52-.25.953-.594 1.3-1.032.347-.438.52-.996.52-1.671 0-.726-.229-1.315-.688-1.766-.457-.45-1.058-.826-1.8-1.126a17.76 17.76 0 0 0-2.525-.788 67.831 67.831 0 0 1-2.859-.752 24.997 24.997 0 0 1-2.896-.92 9.921 9.921 0 0 1-2.525-1.408 6.578 6.578 0 0 1-1.8-2.16c-.459-.863-.688-1.909-.688-3.135 0-1.376.291-2.573.872-3.587a7.965 7.965 0 0 1 2.285-2.534 9.926 9.926 0 0 1 3.193-1.502 13.479 13.479 0 0 1 3.564-.488c1.386 0 2.717.156 3.991.469 1.275.314 2.407.82 3.398 1.52a7.67 7.67 0 0 1 2.357 2.685c.583 1.09.874 2.411.874 3.963h-5.644c-.05-.801-.218-1.464-.501-1.99a3.3 3.3 0 0 0-1.133-1.239 4.747 4.747 0 0 0-1.615-.639 9.85 9.85 0 0 0-1.987-.187c-.47 0-.94.05-1.41.15-.471.1-.898.275-1.282.525s-.7.564-.947.938c-.247.377-.371.853-.371 1.427 0 .527.1.953.298 1.277.197.326.587.627 1.168.902.582.275 1.387.55 2.414.827 1.027.275 2.371.625 4.028 1.05.496.102 1.183.281 2.062.545.878.263 1.75.683 2.617 1.257.867.576 1.616 1.347 2.246 2.311.632.963.947 2.196.947 3.699 0 1.226-.235 2.365-.704 3.417a7.417 7.417 0 0 1-2.098 2.722c-.93.764-2.08 1.358-3.454 1.784-1.374.425-2.965.639-4.77.639-1.462 0-2.88-.183-4.253-.545-1.373-.362-2.586-.933-3.639-1.708a8.434 8.434 0 0 1-2.506-2.967c-.619-1.202-.915-2.63-.89-4.282h5.644c0 .902.16 1.666.481 2.291M131.7 72.782h5.83l-.167-27.633h-5.83zM153.513 67.003c.842 0 1.659-.137 2.451-.413a5.395 5.395 0 0 0 2.116-1.37c.619-.64 1.115-1.47 1.486-2.498.371-1.025.557-2.278.557-3.754 0-1.352-.13-2.573-.39-3.663-.26-1.088-.688-2.02-1.282-2.796-.593-.776-1.38-1.371-2.357-1.785-.978-.413-2.185-.62-3.62-.62h-4.159v16.9h5.198zm.409-21.855c1.708 0 3.299.276 4.771.826a10.37 10.37 0 0 1 3.825 2.479c1.076 1.102 1.918 2.477 2.525 4.13.605 1.652.91 3.593.91 5.82 0 1.954-.248 3.756-.743 5.409-.496 1.652-.939 2.984-1.987 4.38-1.049 1.397-2.541 2.826-4.038 3.514-1.5.69-3.262 1.034-5.291 1.034h-11.437l.028-27.592h11.437zM189.827 45.148v4.957H175.83v5.746h12.848v4.58h-12.848v6.573h14.296v5.744h-20.126v-27.6z"/>
        </g>
        <path fill="#C13B3B" d="M112.076 88.013H54V29h58.076z"/>
        <path fill="#FEFEFE" d="M66.177 72.089h5.62V44.924h-5.62zM84.17 44.924L95.28 62.67h.076V44.924h5.48V72.09h-5.854L83.91 53.667h-.075v18.422h-5.48V44.924z"/>
    </g>
</svg>
