<?xml version="1.0" encoding="utf-8"?>
<!-- Generator: Adobe Illustrator 21.1.0, SVG Export Plug-In . SVG Version: 6.00 Build 0)  -->
<svg version="1.1" id="Layer_1" xmlns="http://www.w3.org/2000/svg" xmlns:xlink="http://www.w3.org/1999/xlink" x="0px" y="0px"
	 viewBox="0 0 129 78" style="enable-background:new 0 0 129 78;" xml:space="preserve">
<style type="text/css">
	.st0{fill:#C31D1B;}
</style>
<path class="st0" d="M81.9,68.5c-0.9-0.5-1.2-1.6-1.2-3.7c0-1.7-0.2-3-0.5-3c-0.3,0-1.3,0.8-2.3,1.8c-2,1.9-3.1,1.7-4.1-0.9
	c-0.6-1.5-0.2-2.1,2.4-4.9l3.1-3.2l-2-1.6c-2.5-1.9-2.6-2.6-0.3-3.1c1-0.3,1.7-0.9,1.7-1.7c0-0.7,0.6-1.8,1.4-2.5
	c1.5-1.3,1.8-3.1,0.7-3.1c-0.4,0-1.6,0.7-2.7,1.4c-1.1,0.8-2.3,1.2-2.7,1c-0.9-0.6-1-3.6-0.1-4.1c0.4-0.2,0.7-0.7,0.7-1.1
	c0-1.6-2-0.3-6.1,3.8c-4.7,4.8-6.4,5.7-7.9,4.4c-1.2-1-1.3-3.7-0.1-4.6c0.5-0.4,4.5-2.6,9-4.9c4.5-2.3,8.6-4.7,9-5.3
	c1.1-1.5,0.4-2.4-1.5-2c-2,0.5-3.9-1.3-3.6-3.5c0.2-1.3,0.8-1.9,2.6-2.5c2.3-0.8,2.4-0.8,2.8-5.2c0.2-2.5,0.7-4.9,1-5.4
	c0.3-0.5,0.8-2.1,1-3.4c0.4-2.1,0.6-2.4,2.1-2.2c0.9,0.1,2.1,0.6,2.7,1.2c1,1,0.8,2.7-1,9c-0.3,1.1-0.2,1.5,0.6,1.5
	c1.2,0,2.8,2.4,2.1,3.4c-0.2,0.4-0.9,0.7-1.6,0.7c-1.9,0-2.8,1.4-2.8,4.3c0,2.4,0.1,2.6,1.5,2.1c2.9-1,4.3-0.7,4.5,0.9
	c0.2,1.2-0.1,1.5-1.4,1.5c-0.9,0-2.9,0.9-4.6,2c-1.7,1.1-3.3,2-3.6,2c-0.3,0-0.6,0.3-0.6,0.7c0,1.1,2.1,0.8,4.5-0.7
	c1.3-0.8,2.8-1.3,3.3-1c1.8,0.7,1.2,3.5-1.2,5.2l-2.2,1.7l2,0.4c3,0.5,3.8,2.3,1.9,4.3c-1.9,2-1.9,3.2-0.2,3.2
	c2.2,0,2.4,1.5,0.5,3.1c-1.5,1.3-1.8,2.1-1.9,5.2c-0.1,4.5-1.4,9-2.7,9.2C83.6,69.1,82.6,68.9,81.9,68.5L81.9,68.5z M93.7,67.2
	C93.4,66.5,93,64,93,61.6c0-2.8-0.4-4.9-1.1-5.8c-1-1.4-1-1.6,0-2.6c0.7-0.7,0.9-1.6,0.6-2.2c-0.9-2.2-1.1-4-0.4-4.5
	c0.4-0.3,0.7-1.7,0.7-3.2c0-3.6,1.3-12.2,2.1-13.7c0.5-0.9,0.4-1.2-0.4-1.2c-1.1,0-2.1,2.7-2.8,7.3c-0.2,1.6-0.7,2.8-1,2.6
	c-0.8-0.5,1.6-10.7,3-12.8c0.7-1,2.7-2.9,4.6-4.3c4.5-3.2,8.3-3.3,11.2-0.3l2,2.1l-2.3,2c-2.3,1.9-2.3,2-2.5,7.8
	c-0.1,3.2-0.3,6.2-0.6,6.6c-0.6,1-3,0.8-5.2-0.5c-2.5-1.5-3.1-0.9-3.7,3.6c-0.4,3.4-0.4,3.5,1.4,4c1,0.3,2.4,0.3,3.1,0.1
	c1.6-0.5,7.4-8.1,7.9-10.5c0.2-1,0.5-2.1,0.5-2.4c0.2-1,3.1,4.3,3.1,5.7c0,1.2-4.1,7-6.4,8.8c-0.6,0.5-1.1,1.1-1.1,1.4
	c0,0.2,1.6,1.2,3.5,2.1c1.9,0.9,3.9,2.3,4.3,3.1c1.2,1.9,1.9,8.1,0.9,7.4c-0.4-0.3-3.3-2.3-6.3-4.5c-5.2-3.7-7.2-4.7-7.3-3.5
	c-0.1,2.8-1.5,11.2-2.1,12.6C98.1,69,94.9,69.3,93.7,67.2z M99.4,56c0.8-2.3,0.4-2.9-1.5-1.9c-1.8,1-2,4.3-0.3,4
	C98.2,58.1,99,57.1,99.4,56z M102.9,33.4c0.6-1.7,0.5-7.7-0.2-8.1c-0.3-0.2-1.6,0.2-2.9,0.8c-1.3,0.7-2.4,1.2-2.5,1.3
	c-0.1,0,0.3,1.1,0.8,2.4c0.6,1.3,1.2,2.8,1.4,3.5C99.9,34.7,102.3,34.8,102.9,33.4z M49.5,66.1c-2.2-1.5-5.6-7.7-5.6-10.2l0-2
	l1.5,2.2c1.5,2.2,5.6,4.9,6.3,4.2c0.2-0.2,0.1-2.7-0.3-5.6c-1-7.6,0.5-22.4,3.1-31.2c0.6-1.9,0.9-4,0.7-4.5
	c-0.6-1.5,1.5-1.1,2.3,0.4c1,1.8,0.9,5.3-0.3,9.3c-1.4,4.6-2.8,16.6-2.8,23.2c0,4.8,0.3,5.9,1.9,8.7c1.8,3.1,1.9,3.3,0.8,4.9
	C55.9,67.5,52,67.8,49.5,66.1L49.5,66.1z M29.6,63.1c0-2.2,2.1-6.8,3-6.4c1.6,0.6,7.3-17.1,8.3-26c0.4-3.7,0.6-3.9,1.1-2.2
	c0.7,2,1.5,2.2,4.1,1.3c2.3-0.9,4.7,0.2,4.7,2.2c0,1.1-0.9,2.5-2.9,4.1c-1.6,1.3-3.1,2.4-3.4,2.4c-0.3,0-0.6,0.4-0.6,1
	c0,0.7,0.6,0.9,2.4,0.6c1.9-0.3,2.5-0.1,2.8,0.8c0.7,1.7-0.4,3.1-3.4,4.3c-2.1,0.8-2.9,0.9-3.9,0.2c-1.1-0.7-1.4-0.5-2.2,1.4
	c-0.5,1.2-1.7,4.8-2.5,7.9c-0.9,3.2-2.3,6.6-3.2,7.7C31.9,64.8,29.6,65.1,29.6,63.1z M18.4,56.1c-1-2-1-2.4,0-3.8
	c0.9-1.3,0.9-2,0.2-4.1c-0.5-1.4-0.8-3.5-0.7-4.6c0.1-1.3-0.5-3.1-1.6-4.6c-2.1-3.1-2.6-5-1.9-7.6l0.6-2l1.1,2.4
	c0.7,1.4,2.3,3,3.9,3.9c1.6,0.9,2.7,2.1,2.7,2.8c0,1.1,0.5,1.2,3.2,1.2l3.2-0.1l1.3-4.3c0.7-2.4,1.2-4.5,1-4.7
	c-0.6-0.6-7.4,1.4-7.7,2.3c-0.6,1.5-1.3,1-1.2-1c0-2.1,4.4-6.6,8.4-8.7c2.1-1.1,2.4-1.1,4-0.1c3.5,2.3,3.5,3.7,0,11.6
	c-1.7,4-3.2,7.4-3.2,7.5c0,1,2.1,0.1,3.4-1.5c2.2-2.8,1.7-1.3-1.3,3.8c-1.7,2.9-2.9,5.9-3.2,8.2c-0.5,4-1,4.6-3,3.5
	c-1.1-0.6-2-0.4-4.2,0.7c-1.6,0.8-3.1,1.4-3.3,1.4C19.7,58.3,19,57.3,18.4,56.1L18.4,56.1z M27.2,48.4c1.7-2.6,0.4-3.6-1.5-1.3
	c-1.9,2.3-2,3-0.6,3C25.7,50.1,26.6,49.4,27.2,48.4L27.2,48.4z M41.5,23.8c-1-1-0.9-1.2,1.1-2.4c3.2-1.9,8.3-3.8,9.7-3.4
	c1.7,0.4,1.5,2.9-0.3,3.4c-0.8,0.2-2.9,1.1-4.6,2C43.7,25.2,43,25.2,41.5,23.8L41.5,23.8z"/>
</svg>
