<svg xmlns="http://www.w3.org/2000/svg" width="256" height="118" viewBox="0 0 256 118">
    <path fill="#C31D1B" fill-rule="nonzero" d="M149.614 96.463c-1.083-.639-1.517-1.997-1.517-4.752 0-2.121-.271-3.857-.603-3.857-.33 0-1.664 1.018-2.962 2.262-2.574 2.465-3.905 2.185-5.148-1.084-.701-1.843-.297-2.654 3.083-6.18l3.89-4.06-2.597-2.031c-3.162-2.475-3.25-3.288-.43-3.996 1.322-.332 2.167-1.16 2.167-2.126 0-.87.78-2.289 1.733-3.151 1.85-1.674 2.324-3.9.832-3.9-.496 0-2.019.826-3.384 1.835-1.366 1.01-2.91 1.572-3.432 1.249-1.188-.734-1.247-4.531-.082-5.251.476-.295.866-.903.866-1.351 0-1.976-2.56-.375-7.714 4.823-5.986 6.036-8.13 7.224-10.094 5.594-1.544-1.282-1.645-4.64-.175-5.831.596-.483 5.763-3.282 11.483-6.22 5.72-2.938 10.875-5.964 11.456-6.723 1.44-1.883.482-3.106-1.954-2.495-2.6.653-4.914-1.619-4.565-4.481.196-1.613 1.04-2.416 3.297-3.141 2.979-.958 3.042-1.076 3.521-6.646.269-3.119.831-6.226 1.25-6.904.42-.678.997-2.611 1.284-4.296.447-2.626.824-3.027 2.646-2.818 1.169.134 2.684.803 3.368 1.487 1.23 1.23.98 3.42-1.316 11.485-.409 1.435-.193 1.95.815 1.95 1.574 0 3.503 3.086 2.72 4.352-.288.466-1.203.848-2.033.848-2.39 0-3.589 1.813-3.589 5.432 0 3.088.154 3.301 1.95 2.71 3.714-1.222 5.403-.874 5.694 1.175.218 1.538-.148 1.953-1.733 1.966-1.106.008-3.727 1.178-5.824 2.6-2.098 1.421-4.145 2.584-4.55 2.584-.405 0-.737.39-.737.867 0 1.422 2.633.988 5.77-.951 1.618-1 3.516-1.597 4.22-1.327 2.281.875 1.462 4.414-1.54 6.647l-2.816 2.096 2.507.45c3.794.683 4.807 2.94 2.447 5.452-2.368 2.52-2.46 4.1-.239 4.1 2.802 0 3.095 1.874.624 4-1.934 1.663-2.317 2.723-2.373 6.574-.083 5.745-1.75 11.446-3.425 11.72-.701.115-1.957-.193-2.791-.686zm14.98-1.618c-.493-.922-.897-4.15-.897-7.174 0-3.582-.472-6.171-1.354-7.431-1.232-1.759-1.228-2.061.05-3.338.826-.827 1.16-1.982.81-2.81-1.197-2.826-1.38-5.115-.454-5.687.521-.323.948-2.146.948-4.052 0-4.58 1.71-15.534 2.724-17.449.593-1.118.472-1.516-.46-1.516-1.357 0-2.664 3.402-3.58 9.32-.314 2.028-.868 3.503-1.232 3.279-1.007-.623 1.99-13.578 3.763-16.264.858-1.301 3.472-3.739 5.808-5.417 5.711-4.103 10.568-4.254 14.22-.442l2.5 2.61-2.969 2.48c-2.926 2.442-2.972 2.588-3.143 9.94-.096 4.103-.42 7.858-.72 8.344-.823 1.33-3.772 1.063-6.585-.599-3.15-1.86-3.912-1.105-4.67 4.621-.568 4.286-.508 4.46 1.718 5.019 1.269.318 3.036.347 3.928.064 2.09-.663 9.361-10.32 10.015-13.301.276-1.258.586-2.644.69-3.08.296-1.249 3.993 5.475 3.993 7.264 0 1.58-5.263 8.856-8.09 11.184-.793.655-1.437 1.435-1.43 1.734.008.299 2.01 1.519 4.449 2.71 2.44 1.192 4.922 2.947 5.516 3.9 1.49 2.388 2.458 10.256 1.164 9.457-.534-.33-4.136-2.878-8.006-5.663-6.593-4.744-9.166-5.983-9.23-4.444-.149 3.62-1.907 14.166-2.673 16.034-1.205 2.939-5.376 3.372-6.803.707zm7.138-14.195c.995-2.984.474-3.636-1.894-2.369-2.262 1.21-2.569 5.515-.363 5.087.795-.154 1.81-1.377 2.257-2.718zm4.439-28.833c.815-2.125.62-9.736-.264-10.282-.434-.268-2.092.196-3.683 1.032-1.592.837-3.008 1.57-3.147 1.63-.14.06.319 1.425 1.02 3.033.7 1.609 1.485 3.607 1.743 4.441.585 1.89 3.622 1.993 4.331.146zm-67.765 41.61c-2.739-1.919-7.091-9.842-7.1-12.927l-.009-2.588 1.95 2.773c1.947 2.768 7.1 6.209 7.98 5.328.256-.255.086-3.454-.378-7.108-1.218-9.613.674-28.514 3.965-39.597.735-2.472 1.126-5.04.87-5.707-.716-1.866 1.891-1.451 2.916.463 1.251 2.338 1.118 6.786-.353 11.816-1.716 5.867-3.52 21.03-3.499 29.408.016 6.046.332 7.462 2.474 11.064 2.339 3.933 2.389 4.233 1.046 6.283-1.683 2.568-6.745 2.974-9.862.791zm-25.309-3.822c0-2.843 2.662-8.606 3.778-8.178 2.008.771 9.228-21.721 10.596-33.006.568-4.685.71-4.964 1.434-2.817.85 2.523 1.898 2.854 5.152 1.628 2.978-1.122 5.907.28 5.907 2.827 0 1.424-1.197 3.151-3.623 5.228-1.992 1.705-3.942 3.1-4.333 3.1s-.71.561-.71 1.246c0 .938.744 1.125 3.017.756 2.372-.385 3.144-.162 3.605 1.039.84 2.188-.546 3.909-4.378 5.437-2.62 1.045-3.688 1.113-4.966.315-1.421-.888-1.784-.657-2.85 1.812-.672 1.556-2.103 6.099-3.179 10.095-1.098 4.079-2.874 8.355-4.047 9.75-2.45 2.912-5.403 3.332-5.403.768zm-14.148-8.9c-1.221-2.52-1.227-3.028-.057-4.815 1.094-1.672 1.133-2.522.239-5.2-.589-1.761-.994-4.404-.901-5.873.104-1.644-.667-3.9-2.005-5.872-2.714-3.999-3.285-6.341-2.355-9.657l.729-2.6 1.454 3.033c.845 1.764 2.902 3.86 4.915 5.01 2.072 1.181 3.462 2.617 3.462 3.573 0 1.337.653 1.58 4.003 1.489l4.002-.108 1.69-5.502c.928-3.026 1.49-5.7 1.248-5.942-.78-.78-9.394 1.82-9.835 2.97-.735 1.914-1.6 1.212-1.57-1.273.032-2.648 5.638-8.399 10.712-10.99 2.664-1.362 3.045-1.367 5.023-.07 4.404 2.885 4.406 4.67.01 14.709-2.209 5.043-4.016 9.356-4.016 9.585 0 1.284 2.73.09 4.27-1.868 2.777-3.53 2.137-1.635-1.62 4.798-2.17 3.717-3.635 7.493-4.014 10.354-.673 5.07-1.308 5.818-3.808 4.48-1.354-.725-2.55-.54-5.38.827-2.002.967-3.908 1.758-4.236 1.758-.327 0-1.21-1.267-1.96-2.817zm11.17-9.713c2.129-3.249.57-4.626-1.867-1.648-2.376 2.904-2.562 3.777-.808 3.777.704 0 1.907-.958 2.674-2.129zm18.158-31.348c-1.302-1.302-1.198-1.538 1.357-3.092 4.046-2.46 10.533-4.774 12.28-4.38 2.169.49 1.924 3.738-.326 4.326-1.013.265-3.646 1.397-5.85 2.516-4.759 2.414-5.605 2.486-7.46.63z"/>
</svg>
