<svg xmlns="http://www.w3.org/2000/svg" width="256" height="118" viewBox="0 0 256 118">
    <defs>
        <linearGradient id="a" x1="0%" y1="0%" y2="0%">
            <stop offset="0%" stop-color="#F50033"/>
            <stop offset="100%" stop-color="#AB001C"/>
        </linearGradient>
        <linearGradient id="b" x1="-250.959%" x2="257.534%" y1="-73.333%" y2="-73.333%">
            <stop offset="0%" stop-color="#F50033"/>
            <stop offset="100%" stop-color="#AB001C"/>
        </linearGradient>
        <linearGradient id="c" x1="-378.09%" x2="143.258%" y1="-73.333%" y2="-73.333%">
            <stop offset="0%" stop-color="#F50033"/>
            <stop offset="100%" stop-color="#AB001C"/>
        </linearGradient>
        <linearGradient id="d" x1="-51.402%" x2="475.683%" y1="-72.125%" y2="-72.125%">
            <stop offset="0%" stop-color="#F50033"/>
            <stop offset="100%" stop-color="#AB001C"/>
        </linearGradient>
        <linearGradient id="e" x1="-164.478%" x2="389.552%" y1="-73.333%" y2="-73.333%">
            <stop offset="0%" stop-color="#F50033"/>
            <stop offset="100%" stop-color="#AB001C"/>
        </linearGradient>
        <linearGradient id="f" x1="-920.126%" x2="247.17%" y1="-1975%" y2="-1975%">
            <stop offset="0%" stop-color="#F50033"/>
            <stop offset="100%" stop-color="#AB001C"/>
        </linearGradient>
        <linearGradient id="g" x1="-1505.797%" x2="1184.058%" y1="-6437.5%" y2="-6437.5%">
            <stop offset="0%" stop-color="#F50033"/>
            <stop offset="100%" stop-color="#AB001C"/>
        </linearGradient>
        <linearGradient id="h" x1="-1505.797%" x2="1184.058%" y1="-6613.333%" y2="-6613.333%">
            <stop offset="0%" stop-color="#F50033"/>
            <stop offset="100%" stop-color="#AB001C"/>
        </linearGradient>
        <linearGradient id="i" x1="-1786.154%" x2="1069.231%" y1="-6437.5%" y2="-6437.5%">
            <stop offset="0%" stop-color="#F50033"/>
            <stop offset="100%" stop-color="#AB001C"/>
        </linearGradient>
        <linearGradient id="j" x1="-1786.154%" x2="1069.231%" y1="-6613.333%" y2="-6613.333%">
            <stop offset="0%" stop-color="#F50033"/>
            <stop offset="100%" stop-color="#AB001C"/>
        </linearGradient>
        <linearGradient id="k" x1="-2008.108%" x2="3008.108%" y1="-2642.424%" y2="-2642.424%">
            <stop offset="0%" stop-color="#F50033"/>
            <stop offset="100%" stop-color="#AB001C"/>
        </linearGradient>
        <linearGradient id="l" x1="-1044.928%" x2="1644.928%" y1="-3330%" y2="-3330%">
            <stop offset="0%" stop-color="#F50033"/>
            <stop offset="100%" stop-color="#AB001C"/>
        </linearGradient>
        <linearGradient id="m" x1="-1260.345%" x2="1939.655%" y1="-4973.684%" y2="-4973.684%">
            <stop offset="0%" stop-color="#F50033"/>
            <stop offset="100%" stop-color="#AB001C"/>
        </linearGradient>
        <linearGradient id="n" x1="-326.563%" x2="2573.438%" y1="-2055.556%" y2="-2055.556%">
            <stop offset="0%" stop-color="#F50033"/>
            <stop offset="100%" stop-color="#AB001C"/>
        </linearGradient>
        <linearGradient id="o" x1="-161.151%" x2="1174.101%" y1="-5035%" y2="-5035%">
            <stop offset="0%" stop-color="#F50033"/>
            <stop offset="100%" stop-color="#AB001C"/>
        </linearGradient>
        <linearGradient id="p" x1="-161.151%" x2="1174.101%" y1="-5883.333%" y2="-5883.333%">
            <stop offset="0%" stop-color="#F50033"/>
            <stop offset="100%" stop-color="#AB001C"/>
        </linearGradient>
        <linearGradient id="q" x1="-520.968%" x2="2472.581%" y1="-1920.833%" y2="-1920.833%">
            <stop offset="0%" stop-color="#F50033"/>
            <stop offset="100%" stop-color="#AB001C"/>
        </linearGradient>
    </defs>
    <g fill="none" fill-rule="nonzero">
        <path fill="#FFF" d="M177.423 34.806c0-3.375-1.179-6.32-3.59-8.731-2.41-2.41-5.303-3.59-8.731-3.59H90.32c-3.429 0-6.321 1.18-8.732 3.59C79.232 28.485 78 31.43 78 34.806V81.84c0 3.428 1.232 6.321 3.59 8.678 2.41 2.41 5.302 3.643 8.73 3.643h74.782c3.428 0 6.32-1.232 8.731-3.643 2.411-2.357 3.59-5.25 3.59-8.678V34.806z"/>
        <g stroke="#FFF" stroke-opacity=".18" stroke-width="1.002">
            <path fill="url(#a)" d="M99.423 12.32c0-3.374-1.179-6.32-3.59-8.73C93.423 1.177 90.53 0 87.102 0H12.32C8.892 0 6 1.178 3.589 3.59 1.232 6 0 8.945 0 12.32v47.034c0 3.428 1.232 6.32 3.59 8.678 2.41 2.41 5.302 3.642 8.73 3.642h74.782c3.428 0 6.32-1.232 8.731-3.642 2.411-2.357 3.59-5.25 3.59-8.678V12.32zm-3.054-.16v22.606H3.053V12.16c0-2.571.857-4.714 2.625-6.482C7.5 3.91 9.642 3.053 12.106 3.053h75.157c2.517 0 4.66.857 6.428 2.625 1.767 1.768 2.678 3.91 2.678 6.482zM85.227 46.819c.696-.911 1.446-1.5 2.357-1.822 1.875 1.393 3.75 3.321 5.517 5.786-1.339.75-2.25 1.285-2.785 1.553l-1.446-1.768-15.053 1.393-.536-3.107 3.321-.16 3.536-5.679 4.018.91-4.286 4.768 7.232-.267c-.75-.804-1.34-1.34-1.875-1.607zm-9.91 14.195v-8.41H89.94v8.41h-3.053v-.75H78.37v.75h-3.053zM62.943 48.158h4.178v.964h-4.178v-.964zm-.75-3.107v1.018h8.303v4.124h-2.41v-2.678h-5.893v3.964h5.839v6.214h-5.84v.107c0 .375.108.59.268.75.215.107.483.214.911.214h3.536c.964 0 1.553-.696 1.66-2.035l2.197 1.071c0 .964-.268 1.66-.965 2.303-.589.536-1.232.804-1.982.804H62.14c-1.018 0-1.768-.268-2.196-.857a1.828 1.828 0 0 1-.536-1.286l-.053-1.071h-3.697v1.071H53.3V51.48h6.054v-3.964h-5.625v2.678H51.21V46.07h8.143V45.05h-6.268V43.23h15.856v1.82h-6.75zm-7.607 3.107h4.178v.964h-4.178v-.964zm4.178 1.66v1.018h-4.178v-1.018h4.178zm8.357 0v1.018h-4.178v-1.018h4.178zm-25.338-5.25v-1.66h2.518v1.66h2.785v2.143h-2.785v1.768h3.643v2.143h-3.429c.322.75.964 1.446 1.768 1.875l2.571 1.393-2.089 1.767c-.482-.214-1.178-.642-1.982-1.446v2.625h-6.375v1.5h5.518c.268 0 .59-.322.857-.91.214-.537.321-.965.321-1.34l2.036 1.5c0 1.821-.75 2.785-2.196 2.785h-6.268c-1.928 0-2.839-.857-2.839-2.678v-3.214l-1.553.91-.482-.964-1.393 2.84a20.552 20.552 0 0 1-2.143 3.106l-2.625-1.875c1.34-1.285 2.679-3.16 4.018-5.731l1.607.696-.107-.214c1.607-.482 2.785-1.34 3.482-2.625h-2.893v-2.143h3.535v-1.821h-2.732v-2.09h2.732v-1.66h2.518v1.66h1.982zm-12.75 2.626c.858.053 2.197.696 3.965 1.767l-1.446 2.036c-1.286-.696-2.464-1.179-3.59-1.286l1.072-2.517zm4.072-.75l-3.16-1.607 1.285-2.143 3.214 1.714-1.339 2.036zM17.303 45.8v1.125h8.303v2.142h-5.197l2.09 1.393c.91.643 2.142 1.072 3.642 1.34-.16.267-.803.91-1.875 1.981-.535-.107-1.232-.375-2.142-.91v7.017h-2.679v-.535H12v.535H9.321v-6.857l-1.768.911-1.875-1.821c.857-.268 2.09-.857 3.696-1.821l1.822-1.233H6.32v-2.142h8.303v-1.072l-6 .107-1.07-2.357 8.677-.16 2.679-.214c1.178-.161 2.142-.429 2.839-.75l1.875 2.196c-1.607.696-3.215 1.071-4.768 1.071l-1.553.054z" transform="translate(78.268 22.728)"/>
            <path fill="url(#b)" d="M68.62 11.196H64.39v5.946H53.247v-5.946h-4.179v15.267h4.179v-5.625h11.142v5.625h4.232z" transform="translate(78.268 22.728)"/>
            <path fill="url(#c)" d="M91.173 11.196h-5.464l-6.642 6.053H76.28v-6.053h-4.178v15.267h4.178V20.73h2.946l6.375 5.732h5.464l-8.357-7.553 8.464-7.714z" transform="translate(78.268 22.728)"/>
            <path fill="url(#d)" d="M26.088 20.302c.75-.375 1.285-.803 1.66-1.232.59-.75.857-1.928.804-3.428-.107-3.053-1.607-4.553-4.553-4.553H9.696v15.374h4.553V22.23h7.553c1.447 0 2.197.643 2.197 1.982v2.25h4.285v-3.214c0-1.607-.75-2.625-2.196-2.947zm-1.768-3.589c0 1.393-.696 2.09-2.143 2.09H14.25V14.41h7.982c.589 0 1.071.214 1.446.59.429.481.643 1.017.643 1.713z" transform="translate(78.268 22.728)"/>
            <path fill="url(#e)" d="M47.461 14.517v-3.321H29.516v3.321h6.803v11.946h4.34V14.517z" transform="translate(78.268 22.728)"/>
            <path fill="url(#f)" d="M78.37 55.015V57.8h8.518v-2.785z" transform="translate(78.268 22.728)"/>
            <path fill="url(#g)" d="M59.354 55.175h-3.697v.857h3.697z" transform="translate(78.268 22.728)"/>
            <path fill="url(#h)" d="M59.354 53.943v-.803h-3.697v.803z" transform="translate(78.268 22.728)"/>
            <path fill="url(#i)" d="M65.675 55.175h-3.482v.857h3.482z" transform="translate(78.268 22.728)"/>
            <path fill="url(#j)" d="M65.675 53.943v-.803h-3.482v.803z" transform="translate(78.268 22.728)"/>
            <path fill="url(#k)" d="M41.783 48.48V46.71h-1.982v1.768z" transform="translate(78.268 22.728)"/>
            <path fill="url(#l)" d="M38.623 53.515v1.607h3.696v-1.607z" transform="translate(78.268 22.728)"/>
            <path fill="url(#m)" d="M41.837 50.622h-2.09l-.589 1.018h3.107z" transform="translate(78.268 22.728)"/>
            <path fill="url(#n)" d="M14.624 51.961v-2.41c-.803.75-1.982 1.553-3.428 2.41h3.428z" transform="translate(78.268 22.728)"/>
            <path fill="url(#o)" d="M12 53.943v1.072h7.445v-1.072z" transform="translate(78.268 22.728)"/>
            <path fill="url(#p)" d="M12 56.729v.964h7.445v-.964z" transform="translate(78.268 22.728)"/>
            <path fill="url(#q)" d="M17.303 51.961h3.32l-.75-.428c-1.07-.697-1.928-1.393-2.57-2.143v2.571z" transform="translate(78.268 22.728)"/>
        </g>
    </g>
</svg>
