<svg xmlns="http://www.w3.org/2000/svg" width="256" height="118" viewBox="0 0 256 118">
    <g fill="none" fill-rule="nonzero">
        <path fill="#F29600" d="M138.7 31.045h69.301V91.48H138.7z"/>
        <path fill="#E5002D" d="M48 31.045h90.699V91.48H48z"/>
        <path fill="#FFF" d="M70.806 57.387h-7.833v-3.034c0-1.418-.1-2.321-.3-2.709-.199-.386-.53-.58-.994-.58-.503 0-.885.26-1.142.782-.26.523-.39 1.314-.39 2.375 0 1.366.15 2.393.453 3.082.285.69 1.08 1.53 2.383 2.516 3.73 2.843 6.084 5.167 7.058 6.977.971 1.811 1.457 4.73 1.457 8.754 0 2.927-.27 5.085-.81 6.472-.54 1.385-1.583 2.549-3.127 3.489-1.547.937-3.346 1.406-5.399 1.406-2.25 0-4.174-.542-5.766-1.625-1.592-1.084-2.635-2.465-3.128-4.144-.493-1.678-.74-4.058-.74-7.142v-2.694h7.833v5.008c0 1.543.11 2.535.329 2.975.22.44.607.661 1.163.661.557 0 .971-.28 1.244-.837.271-.558.409-1.386.409-2.486 0-2.415-.263-3.997-.783-4.74-.535-.743-1.85-1.988-3.941-3.734-2.093-1.76-3.48-3.038-4.16-3.833-.681-.796-1.244-1.896-1.69-3.3-.448-1.404-.67-3.196-.67-5.38 0-3.145.316-5.446.95-6.902.632-1.455 1.656-2.593 3.07-3.413 1.415-.82 3.12-1.231 5.122-1.231 2.186 0 4.05.45 5.59 1.345s2.561 2.024 3.063 3.385c.498 1.361.749 3.673.749 6.934v1.623zM82.44 46.91v4.85h2.185v4.902H82.44V75.29c0 2.043.089 3.18.269 3.413.178.233.467.445 2.235.351v7.065h-3.256c-1.835 0-3.147-.088-3.934-.267-.785-.18-1.478-.591-2.077-1.238A4.286 4.286 0 0 1 74.56 82.4c-.146-.832-.22-2.788-.22-5.868V56.66h-1.76V51.76h1.758V46.91h8.102zM96.142 71.393c-1.293 1.102-2.043 2.024-2.25 2.769-.206.744-.309 1.814-.309 3.21 0 1.597.09 2.63.27 3.094.18.466.535.697 1.07.697.505 0 .835-.18.988-.546.152-.363.23-1.322.23-2.874v-6.35zm-2.559-4.243h-7.567v-2.071c0-2.39.236-4.233.71-5.528.473-1.297 1.423-2.44 2.85-3.434 1.429-.992 3.282-1.49 5.563-1.49 2.733 0 4.794.564 6.18 1.69 1.388 1.128 2.22 2.512 2.5 4.15.28 1.64.422 5.016.422 10.128v15.526h-7.887v-2.785c-.492 1.106-1.128 1.935-1.905 2.487-.779.552-1.708.83-2.785.83-1.411 0-2.705-.463-3.881-1.387-1.178-.924-1.767-2.948-1.767-6.068v-2.542c0-2.315.312-3.89.939-4.73.625-.839 2.176-1.817 4.652-2.935 2.65-1.212 4.067-2.028 4.255-2.447.186-.42.28-1.271.28-2.556 0-1.607-.104-2.654-.31-3.142-.207-.487-.55-.73-1.03-.73-.546 0-.886.205-1.02.615-.133.41-.199 1.474-.199 3.191v3.228zM115.281 55.16l-.16 2.89c.587-1.14 1.303-1.997 2.149-2.567.845-.57 1.822-.856 2.927-.856 1.385 0 2.518.381 3.397 1.143a5.165 5.165 0 0 1 1.699 2.879c.253 1.158.38 3.088.38 5.792v21.68h-8.1V64.706c0-2.128-.06-3.425-.178-3.89-.118-.467-.449-.7-.988-.7-.568 0-.923.268-1.068.803-.145.537-.218 1.97-.218 4.3v20.902h-8.1V55.16h8.26zM138.72 62.975c0-1.132-.084-1.89-.245-2.279-.162-.386-.484-.582-.966-.582-.468 0-.782.176-.945.524-.162.349-.243 1.129-.243 2.337v15.118c0 1.256.077 2.081.233 2.477.156.397.455.593.898.593.506 0 .844-.22 1.013-.663.168-.441.254-1.522.254-3.244v-14.28zm8.098-16.003v39.147h-8.099v-2.268c-.771.935-1.582 1.635-2.43 2.1a5.487 5.487 0 0 1-2.67.7c-1.248 0-2.33-.384-3.246-1.153-.918-.767-1.505-1.656-1.764-2.667-.26-1.007-.388-2.653-.388-4.936V63.43c0-2.376.128-4.06.388-5.054.259-.995.853-1.869 1.782-2.62.93-.752 2.039-1.13 3.329-1.13.995 0 1.908.212 2.738.633.83.425 1.582 1.059 2.261 1.903v-10.19h8.1zM159.456 71.393c-1.291 1.102-2.04 2.024-2.246 2.769-.207.744-.311 1.814-.311 3.21 0 1.597.091 2.63.27 3.094.18.466.535.697 1.07.697.505 0 .835-.18.988-.546.153-.363.23-1.322.23-2.874v-6.35zM156.9 67.15h-7.565v-2.071c0-2.39.236-4.233.708-5.528.473-1.297 1.425-2.44 2.85-3.434 1.429-.992 3.282-1.49 5.562-1.49 2.733 0 4.795.564 6.182 1.69 1.387 1.128 2.22 2.512 2.5 4.15.28 1.64.421 5.016.421 10.128v15.526h-7.887v-2.785c-.493 1.106-1.128 1.935-1.905 2.487-.779.552-1.708.83-2.785.83-1.411 0-2.704-.463-3.881-1.387-1.178-.924-1.765-2.948-1.765-6.068v-2.542c0-2.315.31-3.89.938-4.73.626-.839 2.175-1.817 4.653-2.935 2.648-1.212 4.066-2.028 4.252-2.447.187-.42.28-1.271.28-2.556 0-1.607-.103-2.654-.31-3.142-.206-.487-.55-.73-1.028-.73-.547 0-.887.205-1.02.615-.134.41-.2 1.474-.2 3.191v3.228zM178.438 55.16l-.32 4.087c1.178-2.908 2.882-4.448 5.115-4.62V65.5c-1.484 0-2.574.233-3.27.698a2.919 2.919 0 0 0-1.284 1.95c-.16.831-.24 2.748-.24 5.75v12.224h-8.101V55.16h8.1zM195.276 62.975c0-1.132-.08-1.89-.243-2.279-.163-.386-.484-.582-.965-.582-.468 0-.783.176-.946.524-.163.349-.243 1.129-.243 2.337v15.118c0 1.256.077 2.081.233 2.477.156.397.456.593.897.593.507 0 .844-.22 1.013-.663.17-.441.254-1.522.254-3.244v-14.28zm8.101-16.003v39.147h-8.1v-2.268c-.77.935-1.581 1.635-2.43 2.1a5.482 5.482 0 0 1-2.67.7c-1.248 0-2.331-.384-3.246-1.153-.916-.767-1.505-1.656-1.763-2.667-.259-1.007-.388-2.653-.388-4.936V63.43c0-2.376.13-4.06.388-5.054.258-.995.853-1.869 1.781-2.62.93-.752 2.04-1.13 3.33-1.13.994 0 1.906.212 2.737.633.83.425 1.583 1.059 2.26 1.903v-10.19h8.101zM114.046 36.502v3.184H111.4v12.737h-4.45V39.686H104.3v-3.184zM119.602 36.502v3.596c.37-.316.769-.552 1.199-.712a3.927 3.927 0 0 1 1.377-.237c.752 0 1.39.178 1.92.53.528.354.85.762.969 1.224.116.461.175 1.304.175 2.53v8.99h-4.259V43.24c0-.76-.042-1.248-.126-1.464-.083-.217-.273-.325-.564-.325-.27 0-.453.111-.548.333-.095.225-.143.666-.143 1.328v9.31h-4.257v-15.92h4.257z"/>
        <path fill="#FFF" d="M131.94 44.021v-.96c0-.678-.037-1.117-.113-1.313-.077-.199-.232-.297-.468-.297-.292 0-.472.084-.541.252-.07.167-.104.62-.104 1.358v.96h1.227zm4.26 2.11h-5.486v2.822c0 .592.045.971.135 1.141.09.172.263.256.521.256.32 0 .531-.113.64-.34.108-.225.163-.663.163-1.314v-1.721h4.027v.962c0 .805-.055 1.425-.163 1.856-.111.433-.364.894-.763 1.385-.4.493-.905.86-1.52 1.105-.61.245-1.382.369-2.305.369-.898 0-1.69-.121-2.376-.363-.687-.242-1.221-.575-1.603-.996a3.546 3.546 0 0 1-.794-1.394c-.146-.509-.221-1.247-.221-2.216v-3.801c0-1.14.164-2.037.495-2.695.328-.658.868-1.162 1.617-1.513.75-.349 1.613-.525 2.587-.525 1.191 0 2.174.211 2.948.634.775.422 1.318.981 1.63 1.678.31.698.468 1.678.468 2.94v1.73z"/>
    </g>
</svg>
