<svg xmlns="http://www.w3.org/2000/svg" width="181" height="46" viewBox="0 0 181 46">
    <g fill="none" fill-rule="evenodd">
        <path fill="#FFF" stroke="#000100" stroke-width="1.5" d="M17.279 1.262h21.929c8.794 0 15.942 7.11 15.942 15.867V28.58c0 8.757-7.148 15.867-15.942 15.867h-21.93c-8.794 0-15.941-7.11-15.941-15.867V17.166c0-8.794 7.147-15.904 15.942-15.904z"/>
        <path fill="#1FA800" d="M12.788 11.141h30.948c2.507 3.256 3.967 7.298 3.967 11.713 0 5.539-2.32 10.516-6.063 14.071H14.884a19.258 19.258 0 0 1-6.063-14.07c0-4.379 1.46-8.458 3.967-11.714z"/>
        <path fill="#005EC3" d="M10.056 16.081h36.412c-2.77-7.335-9.88-12.574-18.225-12.574s-15.418 5.24-18.187 12.574z"/>
        <path fill="#FFF" fill-rule="nonzero" d="M7.998 15.595h40.94v1H7.998z"/>
        <path fill="#E80300" d="M46.655 29.104H9.832c2.582 7.634 9.842 13.135 18.411 13.135 8.57 0 15.83-5.501 18.412-13.135z"/>
        <path fill="#FFF" fill-rule="nonzero" d="M7.773 28.617h41.389v1H7.773z"/>
        <path fill="#000100" d="M128.235 41.49l10.104-27.093c1.983-4.678 3.218-4.603 5.276-4.902V4.218h-15.492v5.277h1.87c1.273 0 2.545.823 1.61 3.817L125.279 30.6l-6.025-17.85c-.45-2.657.636-3.219 2.133-3.219h1.983V4.218h-19.422v5.277c2.432 0 3.256 1.609 3.967 3.555l10.066 28.403h10.254v.038zM94.78 41.565v-5.613c-1.01 0-2.433.112-3.294.038-1.571 0-3.63-1.01-3.63-3.855V9.495h3.63c2.433 0 4.566 1.684 4.566 6.174v5.127h5.913V4.218H63.57v16.578h5.912V15.67c0-4.453 2.133-6.174 4.566-6.174h3.63v22.64c0 2.844-2.058 3.855-3.63 3.855-.86.074-2.283-.038-3.293-.038v5.613H94.78zM173.665 22.293v-.112c3.742-.86 7.335-2.545 7.335-8.72 0-5.463-2.919-9.28-11.152-9.28h-24.137v5.276c3.33 0 4.64 1.01 4.64 4.865v16.616c0 3.854-1.31 5.014-4.64 5.014v5.539h21.93c7.97 0 13.359-4.79 13.359-9.768 0-4.602-2.507-8.719-7.335-9.43zm-9.58 13.285c-2.208 0-3.368-.374-3.368-2.507v-8.196h4.453c3.48 0 4.753 2.545 4.79 4.903.15 4.228-1.384 5.8-5.875 5.8zm1.01-15.493h-4.34V11.89c0-2.17 1.16-2.507 3.368-2.507 4.49 0 5.912 2.432 5.912 5.8-.037 2.358-1.46 4.902-4.94 4.902z"/>
    </g>
</svg>
