<?xml version="1.0" encoding="utf-8"?>
<!-- Generator: Adobe Illustrator 22.1.0, SVG Export Plug-In . SVG Version: 6.00 Build 0)  -->
<svg version="1.2" baseProfile="tiny" xmlns="http://www.w3.org/2000/svg" xmlns:xlink="http://www.w3.org/1999/xlink" x="0px"
	 y="0px" viewBox="0 0 110 110" xml:space="preserve">
<g id="Layer_2" display="none">
	
		<circle display="inline" fill-rule="evenodd" fill="none" stroke="#8CC63F" stroke-width="4" stroke-miterlimit="10" cx="54.9" cy="55" r="55"/>
</g>
<g id="Layer_1">
	<g>
		
			<line fill="none" stroke="#28646E" stroke-width="4" stroke-linecap="round" stroke-miterlimit="10" x1="28.8" y1="39.3" x2="44" y2="90.9"/>
		
			<path fill-rule="evenodd" fill="none" stroke="#28646E" stroke-width="4" stroke-linecap="round" stroke-linejoin="round" stroke-miterlimit="10" d="
			M25.8,33.3c11-5.8,28.5-4.7,33.8-4s5.9,2.4,2.8,4.3c-3.2,2-3.7,3.1,1,2.3c11-1.9,23.7,3.8,25.4,7.8l-9.4,12.6L81,73.8
			c-4.2-4.5-14.4-5.5-20-4.2c-4.6,1.1-5.3-1.7-2.2-3.7c3.1-1.9,2.8-3.7-2.5-4.3c-3.1-0.4-8.8-0.3-14.6,2.2"/>
	</g>
	<circle fill-rule="evenodd" fill="#28646E" cx="22.7" cy="71.5" r="1.8"/>
	<circle fill-rule="evenodd" fill="#28646E" cx="61" cy="86.5" r="1.8"/>
	<circle fill-rule="evenodd" fill="#28646E" cx="95.2" cy="54.7" r="1.8"/>
	<circle fill-rule="evenodd" fill="#28646E" cx="35.1" cy="19.8" r="1.8"/>
	<circle fill-rule="evenodd" fill="#28646E" cx="75.2" cy="85.3" r="0.9"/>
	<circle fill-rule="evenodd" fill="#28646E" cx="74.5" cy="29.3" r="0.9"/>
</g>
</svg>
