<?xml version="1.0" encoding="UTF-8"?>
<svg enable-background="new 0 0 110 110" version="1.1" viewBox="0 0 110 110" xml:space="preserve" xmlns="http://www.w3.org/2000/svg">
<path d="m44 92.9c-0.9 0-1.7-0.6-1.9-1.4l-15.2-51.6c-0.3-1.1 0.3-2.2 1.4-2.5s2.2 0.3 2.5 1.4l15.2 51.6c0.3 1.1-0.3 2.2-1.4 2.5h-0.6z"/>
<path d="m81 75.8c-0.5 0-1.1-0.2-1.5-0.6-3.7-3.9-13.2-4.8-18.1-3.6-4.6 1.1-6-1.1-6.3-1.9-0.8-1.8 0.2-4 2.5-5.5 0.2-0.1 0.3-0.2 0.4-0.3-0.5-0.1-1.1-0.3-2-0.4-3.3-0.4-8.6-0.1-13.6 2-1 0.4-2.2 0-2.6-1s0-2.2 1-2.6c7.2-3.1 13.8-2.6 15.6-2.3 2.4 0.3 5.6 0.9 6.2 3.4 0.4 1.6-0.6 3.2-2.9 4.6-0.1 0.1-0.2 0.2-0.3 0.2 0.3 0 0.6-0.1 1-0.2 4.6-1.1 12.5-0.7 18.1 2l-1.2-13.2c0-0.5 0.1-1 0.4-1.4l8.6-11.5c-2.7-2.9-13-7.4-22.6-5.8-1.9 0.3-4.8 0.8-5.7-1.3-0.8-2.1 1.6-3.6 3.3-4.7 0.1-0.1 0.2-0.1 0.3-0.2-0.5-0.1-1.2-0.3-2.3-0.5-7-0.9-22.9-1.3-32.6 3.8-1 0.5-2.2 0.1-2.7-0.8-0.5-1-0.1-2.2 0.8-2.7 13.2-7 34.1-4.3 35-4.2 2.5 0.3 5.8 1.1 6.4 3.6 0.2 1 0 1.9-0.8 2.8 10.7-0.9 23 4.2 25.2 9.3 0.3 0.7 0.2 1.4-0.2 2l-8.9 12 1.5 16.8c0.1 0.9-0.4 1.7-1.2 2-0.2 0.1-0.5 0.2-0.8 0.2z"/>
<circle cx="22.7" cy="71.5" r="1.8"/>
<circle cx="61" cy="86.5" r="1.8"/>
<circle cx="95.2" cy="54.7" r="1.8"/>
<circle cx="35.1" cy="19.8" r="1.8"/>
<circle cx="75.2" cy="85.3" r=".9"/>
<circle cx="74.5" cy="29.3" r=".9"/>
</svg>