<?xml version="1.0" encoding="utf-8"?>
<!-- Generator: Adobe Illustrator 22.1.0, SVG Export Plug-In . SVG Version: 6.00 Build 0)  -->
<svg version="1.2" baseProfile="tiny" xmlns="http://www.w3.org/2000/svg" xmlns:xlink="http://www.w3.org/1999/xlink" x="0px"
	 y="0px" viewBox="0 0 110 110" xml:space="preserve">
<g id="Layer_2" display="none">
	
		<circle display="inline" fill-rule="evenodd" fill="none" stroke="#8CC63F" stroke-width="4" stroke-miterlimit="10" cx="54.9" cy="54.9" r="55"/>
</g>
<g id="Layer_1">
	<circle fill-rule="evenodd" fill="#28646E" cx="83.8" cy="36.4" r="1.8"/>
	<circle fill-rule="evenodd" fill="#28646E" cx="21.5" cy="28.8" r="1.8"/>
	<circle fill-rule="evenodd" fill="#28646E" cx="25.8" cy="45.7" r="0.9"/>
	<circle fill-rule="evenodd" fill="#28646E" cx="82" cy="76.1" r="0.9"/>
	<circle fill-rule="evenodd" fill="#28646E" cx="23.6" cy="81.1" r="0.9"/>
	<circle fill-rule="evenodd" fill="#28646E" cx="49.4" cy="23.2" r="0.9"/>
	<g>
		<path fill="none" stroke="#28646E" stroke-width="4" stroke-linecap="round" stroke-miterlimit="10" d="M42,91.9
			c0-6.1-0.1-13.7-3.2-16.4c-3.1-2.7-5.1-2.7-5.1-10.8V27.7c0-2.5,2.1-4.6,4.6-4.6h0c2.5,0,4.6,2.1,4.6,4.6v19.9"/>
		<path fill="none" stroke="#28646E" stroke-width="4" stroke-linecap="round" stroke-miterlimit="10" d="M70.3,53.7v-30
			c0-2.5-2.1-4.6-4.6-4.6h0c-2.5,0-4.6,2.1-4.6,4.6v24"/>
		<path fill="none" stroke="#28646E" stroke-width="4" stroke-linecap="round" stroke-miterlimit="10" d="M47.4,58.7L47.4,58.7
			c-2.5,0-4.6-2.1-4.6-4.6V43.6c0-2.5,2.1-4.6,4.6-4.6h0c2.5,0,4.6,2.1,4.6,4.6v10.5C52,56.7,50,58.7,47.4,58.7z"/>
		<path fill="none" stroke="#28646E" stroke-width="4" stroke-linecap="round" stroke-miterlimit="10" d="M56.6,58.7L56.6,58.7
			c-2.5,0-4.6-2.1-4.6-4.6V42.6c0-2.5,2.1-4.6,4.6-4.6h0c2.5,0,4.6,2.1,4.6,4.6v11.5C61.2,56.7,59.1,58.7,56.6,58.7z"/>
		<path fill="none" stroke="#28646E" stroke-width="4" stroke-linecap="round" stroke-miterlimit="10" d="M69.3,84.9V81
			c0-2.5,1.1-4.8,2.9-6.5c2.1-2,4.3-4.9,6.5-7.7l8.5-10.8c1.6-2,1.2-4.9-0.8-6.4l0,0c-2-1.6-4.9-1.2-6.4,0.8l-8.5,10.8
			c-4.8,0.6-11.1,4.2-11.7,10.2"/>
	</g>
</g>
</svg>
