<?xml version="1.0" encoding="UTF-8"?>
<svg enable-background="new 0 0 110 110" version="1.1" viewBox="0 0 110 110" xml:space="preserve" xmlns="http://www.w3.org/2000/svg">
<circle cx="85.2" cy="32.8" r="1.8"/>
<circle cx="85.2" cy="68.1" r="1.8"/>
<circle cx="78.2" cy="41.6" r=".9"/>
<circle cx="71.7" cy="20.9" r=".9"/>
<circle cx="23.9" cy="68.9" r=".9"/>
<circle cx="87.1" cy="80.8" r=".9"/>
<circle cx="18.5" cy="39.8" r=".9"/>
<circle cx="28.6" cy="27" r=".9"/>
<path d="m53.6 45.2 0.3 0.3s0.1 0.1 0.2 0.1 0.1 0.1 0.2 0.1 0.1 0 0.2 0.1c0.1 0 0.1 0 0.2 0.1h0.4s0.3 0 0.4 0 0.1 0 0.2-0.1c0.1 0 0.1 0 0.2-0.1 0.1 0 0.1-0.1 0.2-0.1 0 0 0.1 0 0.1-0.1l11.2-11.2c0.8-0.8 0.8-2 0-2.8s-2-0.8-2.8 0l-7.6 7.5v-23.6c0-1.1-0.9-2-2-2s-2 0.9-2 2v23.6l-7.5-7.5c-0.8-0.8-2-0.8-2.8 0s-0.8 2 0 2.8l10.9 10.9z"/>
<path d="m44.5 61v14.8c0 2.9 0.7 3.7 1.8 4.6 0.2 0.1 0.3 0.3 0.6 0.5 0.9 0.8 0.9 1 0.9 3.3 0 0.6 0.4 1 1 1s1-0.4 1-1c0-2.4 0-3.5-1.6-4.8-0.2-0.2-0.4-0.4-0.6-0.5-0.7-0.6-1.1-0.9-1.1-3v-14.9c0-0.4 0.4-0.8 0.8-0.8s0.8 0.4 0.8 0.8v8c0 0.2 0 0.3 0.1 0.4v2.2c0 1.5 1.3 2.8 2.8 2.8 0.7 0 1.3-0.3 1.8-0.7 0.5 0.4 1.1 0.7 1.8 0.7 1.5 0 2.8-1.3 2.8-2.8v-2.3c0.1-0.1 0.1-0.3 0.1-0.4v-9.6c0-0.4 0.4-0.8 0.8-0.8s0.8 0.4 0.8 0.8v12c0 0.6 0.4 1 1 1s1-0.4 1-1v-12c0-1.5-1.3-2.8-2.8-2.8s-2.8 1.3-2.8 2.8v5.1c-0.3-0.1-0.6-0.2-0.9-0.2-0.8 0-1.5 0.3-2 0.9-0.4-0.3-1-0.5-1.6-0.5-0.3 0-0.6 0.1-0.9 0.2v-3.8c0-1.5-1.3-2.8-2.8-2.8s-2.8 1.3-2.8 2.8zm9.3 6c0-0.4 0.4-0.8 0.8-0.8s0.8 0.4 0.8 0.8v4.6c0 0.4-0.4 0.8-0.8 0.8s-0.8-0.4-0.8-0.8v-4.6zm-3.6 0.4c0-0.4 0.4-0.8 0.8-0.8s0.8 0.4 0.8 0.8v4.2c0 0.4-0.4 0.8-0.8 0.8s-0.8-0.4-0.8-0.8v-4.2z"/>
<path d="m61.4 74.8 3.4-4.3c0.3-0.4 0.9-0.5 1.2-0.2 0.4 0.3 0.5 0.9 0.2 1.2l-3.4 4.3c-0.3 0.3-0.6 0.7-0.8 1-0.6 0.7-1.1 1.5-1.7 1.9-1 0.9-1.5 2-1.5 3.4v1.6c0 0.6 0.4 1 1 1s1-0.4 1-1v-1.6c0-0.7 0.3-1.3 0.9-1.9 0.7-0.6 1.3-1.4 1.9-2.2 0.3-0.3 0.5-0.7 0.8-1l3.4-4.3c0.9-1.2 0.7-2.9-0.5-4-1.2-0.9-2.9-0.7-4 0.5l-3.2 4c-2.1 0.4-4.9 2.1-5.2 4.9 0 0.6 0.4 1 0.9 1.1 0.6 0.1 1-0.4 1.1-0.9 0.2-1.8 2.3-3 3.8-3.2 0.3 0.1 0.5-0.1 0.7-0.3z"/>
<path d="m91.6 48.9h-73.3c-3.7 0-6.7 3-6.7 6.7s3 6.7 6.7 6.7h10.5c1.1 0 2-0.9 2-2s-0.9-2-2-2h-10.5c-1.5 0-2.7-1.2-2.7-2.7s1.2-2.7 2.7-2.7h21.4c-5.5 4.5-8.8 11.3-8.8 18.6 0 13.2 10.8 23.9 24.1 23.9 13.2 0 24-10.8 24-24 0-7.3-3.2-14-8.7-18.5h21.3c1.5 0 2.7 1.2 2.7 2.7s-1.2 2.7-2.7 2.7h-10.4c-1.1 0-2 0.9-2 2s0.9 2 2 2h10.4c3.7 0 6.7-3 6.7-6.7s-3-6.7-6.7-6.7zm-25.2 4.1c6.4 3.9 10.2 10.8 10.2 18.4 0 11.9-9.7 21.6-21.6 21.6-12 0-21.7-9.6-21.7-21.5 0-7.6 3.9-14.5 10.3-18.5 0.1 0 0.1-0.1 0.1-0.1h22.5c0.1 0 0.1 0.1 0.2 0.1z"/>
<path d="m43 55.7c-0.3 0.3-0.4 0.7-0.1 1.1 0.1 0.2 0.4 0.3 0.6 0.3s0.3-0.1 0.5-0.2c0.9-0.7 1.7-1.1 2.6-1.6 0.4-0.2 0.5-0.7 0.3-1-0.2-0.4-0.7-0.5-1-0.3-1 0.4-1.9 1-2.9 1.7z"/>
<path d="m36.8 71.5c0-4.6 1.7-9 4.9-12.4 0.3-0.3 0.3-0.8 0-1.1s-0.8-0.3-1.1 0c-3.4 3.6-5.3 8.4-5.3 13.4 0 5.2 2.1 10.2 5.8 13.9 0.1 0.1 0.3 0.2 0.5 0.2s0.4-0.1 0.5-0.2c0.3-0.3 0.3-0.8 0-1.1-3.4-3.2-5.3-7.9-5.3-12.7z"/>
<path d="m56.3 89.7h-1.3c-0.4 0-0.8 0.3-0.8 0.8s0.3 0.8 0.8 0.8h1.3c0.4 0 0.8-0.3 0.8-0.8s-0.4-0.8-0.8-0.8z"/>
<path d="m58.9 89.3c-0.4 0.1-0.7 0.5-0.6 0.9s0.4 0.6 0.7 0.6h0.2c7.9-1.7 14-8.2 15.3-16.4 0.1-0.9 0.2-1.8 0.2-2.9 0-0.4-0.3-0.8-0.8-0.8s-0.8 0.3-0.8 0.8c0 1-0.1 1.9-0.2 2.7-1 7.5-6.7 13.5-14 15.1z"/>
<path d="m63.3 55.3c3.3 1.8 6 4.3 7.7 7.5 0.1 0.2 0.4 0.4 0.7 0.4 0.1 0 0.2 0 0.4-0.1 0.4-0.2 0.5-0.7 0.3-1-1.9-3.4-4.7-6.2-8.3-8.1-0.4-0.2-0.8-0.1-1 0.3-0.3 0.3-0.1 0.8 0.2 1z"/>
</svg>