<?xml version="1.0" encoding="UTF-8"?>
<svg enable-background="new 0 0 110 110" version="1.1" viewBox="0 0 110 110" xml:space="preserve" xmlns="http://www.w3.org/2000/svg">
<circle cx="83.8" cy="36.4" r="1.8"/>
<circle cx="21.5" cy="28.8" r="1.8"/>
<circle cx="25.8" cy="45.7" r=".9"/>
<circle cx="82" cy="76.1" r=".9"/>
<circle cx="23.6" cy="81.1" r=".9"/>
<circle cx="49.4" cy="23.2" r=".9"/>
<path d="m63.2 54.1v-11.5c0-0.4 0-0.7-0.1-1.1v-17.8c0-1.4 1.2-2.6 2.6-2.6s2.6 1.2 2.6 2.6v30c0 1.1 0.9 2 2 2s2-0.9 2-2v-30c0-3.6-3-6.6-6.6-6.6s-6.6 3-6.6 6.6v12.8c-0.8-0.3-1.6-0.5-2.5-0.5-2 0-3.9 1-5.1 2.5-1.1-0.9-2.6-1.5-4.1-1.5-0.9 0-1.7 0.2-2.5 0.5v-9.8c0-3.6-3-6.6-6.6-6.6s-6.6 3-6.6 6.6v37c0 7.4 1.7 9.1 4.5 11.2 0.4 0.3 0.9 0.7 1.3 1.1 2.5 2.2 2.5 10.5 2.5 14.9 0 1.1 0.9 2 2 2s2-0.9 2-2c0-7.7-0.3-14.8-3.9-17.9-0.5-0.5-1-0.8-1.5-1.2-2-1.6-2.9-2.3-2.9-8.1v-37c0-1.4 1.2-2.6 2.6-2.6s2.6 1.2 2.6 2.6v14.8c-0.1 0.4-0.1 0.7-0.1 1.1v10.5c0 3.6 3 6.6 6.6 6.6 1.8 0 3.5-0.7 4.6-1.9 1.2 1.2 2.8 1.9 4.6 1.9 3.6 0 6.6-3 6.6-6.6zm-15.8 2.6c-1.4 0-2.6-1.2-2.6-2.6v-5.9c0.1-0.2 0.1-0.4 0.1-0.6v-4.6c0.3-1.1 1.3-2 2.5-2 1.4 0 2.6 1.2 2.6 2.6v10.5c0 1.5-1.1 2.6-2.6 2.6zm6.6-2.6v-11.5c0-1.4 1.2-2.6 2.6-2.6 1.2 0 2.2 0.9 2.5 2v5.7c0 0.2 0 0.4 0.1 0.6v5.8c0 1.4-1.2 2.6-2.6 2.6s-2.6-1.2-2.6-2.6z"/>
<path d="m90.1 52.4c-0.2-1.8-1.1-3.3-2.5-4.3-1.4-1.1-3.1-1.6-4.9-1.4s-3.3 1.1-4.3 2.5l-8 10.2c-5.8 1-12 5.4-12.6 11.9-0.1 1.1 0.7 2.1 1.8 2.2s2.1-0.7 2.2-1.8c0.5-5 6.1-7.9 10-8.4l0.8-0.1 9-11.5c0.4-0.5 1-0.9 1.7-1s1.3 0.1 1.9 0.6c0.5 0.4 0.9 1 1 1.7s-0.1 1.3-0.5 1.9l-9.3 11.8c-1.9 2.4-3.8 4.8-5.5 6.5-2.3 2.1-3.5 5-3.5 8v3.9c0 1.1 0.9 2 2 2s2-0.9 2-2v-4.1c0-1.9 0.8-3.7 2.3-5.1 2-1.9 4-4.5 5.9-6.9l9.2-11.8c1.1-1.3 1.6-3.1 1.3-4.8z"/>
</svg>