<?xml version="1.0" encoding="utf-8"?>
<!-- Generator: Adobe Illustrator 22.1.0, SVG Export Plug-In . SVG Version: 6.00 Build 0)  -->
<svg version="1.2" baseProfile="tiny" xmlns="http://www.w3.org/2000/svg" xmlns:xlink="http://www.w3.org/1999/xlink" x="0px"
	 y="0px" viewBox="0 0 110 110" xml:space="preserve">
<g id="Layer_2" display="none">
	
		<circle display="inline" fill-rule="evenodd" fill="none" stroke="#8CC63F" stroke-width="4" stroke-miterlimit="10" cx="55" cy="54.9" r="55"/>
</g>
<g id="Layer_1">
	<g>
		
			<line fill="none" stroke="#28646E" stroke-width="4" stroke-linecap="round" stroke-linejoin="round" stroke-miterlimit="10" x1="55" y1="43.8" x2="55" y2="15.4"/>
		
			<line fill="none" stroke="#28646E" stroke-width="4" stroke-linecap="round" stroke-linejoin="round" stroke-miterlimit="10" x1="55" y1="43.8" x2="44.1" y2="32.9"/>
		
			<line fill="none" stroke="#28646E" stroke-width="4" stroke-linecap="round" stroke-linejoin="round" stroke-miterlimit="10" x1="55" y1="43.8" x2="65.9" y2="32.9"/>
	</g>
	<g>
		<path fill="none" stroke="#28646E" stroke-width="2" stroke-linecap="round" stroke-linejoin="round" stroke-miterlimit="10" d="
			M48.8,84.2c0-2.4,0-3-1.3-4.1c-1.2-1.1-2-1.1-2-4.3V61c0-1,0.8-1.8,1.8-1.8h0c1,0,1.8,0.8,1.8,1.8v8"/>
		<path fill="none" stroke="#28646E" stroke-width="2" stroke-linecap="round" stroke-linejoin="round" stroke-miterlimit="10" d="
			M60.1,71.3v-12c0-1-0.8-1.8-1.8-1.8h0c-1,0-1.8,0.8-1.8,1.8v9.6"/>
		<path fill="none" stroke="#28646E" stroke-width="2" stroke-linecap="round" stroke-linejoin="round" stroke-miterlimit="10" d="
			M51,73.4L51,73.4c-1,0-1.8-0.8-1.8-1.8v-4.2c0-1,0.8-1.8,1.8-1.8h0c1,0,1.8,0.8,1.8,1.8v4.2C52.8,72.5,52,73.4,51,73.4z"/>
		<path fill="none" stroke="#28646E" stroke-width="2" stroke-linecap="round" stroke-linejoin="round" stroke-miterlimit="10" d="
			M54.6,73.4L54.6,73.4c-1,0-1.8-0.8-1.8-1.8v-4.6c0-1,0.8-1.8,1.8-1.8h0c1,0,1.8,0.8,1.8,1.8v4.6C56.4,72.5,55.6,73.4,54.6,73.4z"
			/>
		<path fill="none" stroke="#28646E" stroke-width="2" stroke-linecap="round" stroke-linejoin="round" stroke-miterlimit="10" d="
			M59.7,83.8v-1.6c0-1,0.4-1.9,1.2-2.6c0.9-0.8,1.7-2,2.6-3.1l3.4-4.3c0.6-0.8,0.5-1.9-0.3-2.6l0,0c-0.8-0.6-1.9-0.5-2.6,0.3
			l-3.4,4.3c-1.9,0.2-4.5,1.7-4.7,4.1"/>
	</g>
	<circle fill-rule="evenodd" fill="#28646E" cx="85.2" cy="32.8" r="1.8"/>
	<circle fill-rule="evenodd" fill="#28646E" cx="85.2" cy="68.1" r="1.8"/>
	<circle fill-rule="evenodd" fill="#28646E" cx="78.2" cy="41.6" r="0.9"/>
	<circle fill-rule="evenodd" fill="#28646E" cx="71.7" cy="20.9" r="0.9"/>
	<circle fill-rule="evenodd" fill="#28646E" cx="23.9" cy="68.9" r="0.9"/>
	<circle fill-rule="evenodd" fill="#28646E" cx="87.1" cy="80.8" r="0.9"/>
	<circle fill-rule="evenodd" fill="#28646E" cx="18.5" cy="39.8" r="0.9"/>
	<circle fill-rule="evenodd" fill="#28646E" cx="28.6" cy="27" r="0.9"/>
	<g>
		<path fill="none" stroke="#28646E" stroke-width="4" stroke-linecap="round" stroke-linejoin="round" stroke-miterlimit="10" d="
			M28.8,60.3H18.3c-2.6,0-4.7-2.1-4.7-4.7v0c0-2.6,2.1-4.7,4.7-4.7h73.3c2.6,0,4.7,2.1,4.7,4.7v0c0,2.6-2.1,4.7-4.7,4.7H81.2"/>
		<g>
			
				<path fill="none" stroke="#28646E" stroke-width="2.4" stroke-linecap="round" stroke-linejoin="round" stroke-miterlimit="10" d="
				M67,52c6.5,4,10.8,11.2,10.8,19.4c0,12.6-10.2,22.8-22.8,22.8S32.1,84.1,32.1,71.5c0-8.3,4.4-15.5,10.9-19.5"/>
		</g>
	</g>
	<g>
		
			<path fill="none" stroke="#28646E" stroke-width="1.5" stroke-linecap="round" stroke-linejoin="round" stroke-miterlimit="10" d="
			M43.5,56.3c0.9-0.7,1.8-1.2,2.7-1.7"/>
		
			<path fill="none" stroke="#28646E" stroke-width="1.5" stroke-linecap="round" stroke-linejoin="round" stroke-miterlimit="10" d="
			M41.6,84.9c-3.4-3.4-5.6-8.2-5.6-13.4c0-5,1.9-9.5,5.1-12.9"/>
		
			<path fill="none" stroke="#28646E" stroke-width="1.5" stroke-linecap="round" stroke-linejoin="round" stroke-miterlimit="10" d="
			M56.3,90.4c-0.4,0-0.9,0-1.3,0"/>
		
			<path fill="none" stroke="#28646E" stroke-width="1.5" stroke-linecap="round" stroke-linejoin="round" stroke-miterlimit="10" d="
			M74,71.5c0,1-0.1,1.9-0.2,2.8c-1.2,7.8-7.1,14.1-14.7,15.7"/>
		
			<path fill="none" stroke="#28646E" stroke-width="1.5" stroke-linecap="round" stroke-linejoin="round" stroke-miterlimit="10" d="
			M63.7,54.6c3.4,1.8,6.2,4.5,8,7.8"/>
	</g>
</g>
</svg>
