<?xml version="1.0" encoding="UTF-8"?>
<svg enable-background="new 0 0 110 110" version="1.1" viewBox="0 0 110 110" xml:space="preserve" xmlns="http://www.w3.org/2000/svg">
<path d="m54.9 45.8c-1.1 0-2-0.9-2-2v-28.4c0-1.1 0.9-2 2-2s2 0.9 2 2v28.4c0 1.1-0.9 2-2 2z"/>
<path d="m54.9 45.8c-0.5 0-1-0.2-1.4-0.6l-10.9-10.9c-0.8-0.8-0.8-2 0-2.8s2-0.8 2.8 0l10.9 10.9c0.8 0.8 0.8 2 0 2.8-0.4 0.4-0.9 0.6-1.4 0.6z"/>
<path d="m54.9 45.8c-0.5 0-1-0.2-1.4-0.6-0.8-0.8-0.8-2 0-2.8l10.9-10.9c0.8-0.8 2-0.8 2.8 0s0.8 2 0 2.8l-10.9 10.9c-0.4 0.4-0.9 0.6-1.4 0.6z"/>
<circle cx="36.1" cy="19.1" r="1.8"/>
<circle cx="78.8" cy="39.8" r="1.8"/>
<circle cx="83.3" cy="27" r=".9"/>
<circle cx="76.9" cy="94.3" r=".9"/>
<circle cx="22.8" cy="78.9" r=".9"/>
<circle cx="92.9" cy="68.9" r=".9"/>
<circle cx="29.5" cy="37.6" r=".9"/>
<circle cx="12.6" cy="43" r=".9"/>
<path d="m91.5 62.3h-10.4c-1.1 0-2-0.9-2-2s0.9-2 2-2h10.4c1.5 0 2.7-1.2 2.7-2.7s-1.2-2.7-2.7-2.7h-73.3c-1.5 0-2.7 1.2-2.7 2.7s1.2 2.7 2.7 2.7h10.5c1.1 0 2 0.9 2 2s-0.9 2-2 2h-10.5c-3.7 0-6.7-3-6.7-6.7s3-6.7 6.7-6.7h73.3c3.7 0 6.7 3 6.7 6.7s-3 6.7-6.7 6.7z"/>
<path d="m54.9 95.4c-13.2 0-24-10.7-24-23.9 0-8.5 4.3-16.2 11.5-20.5 0.6-0.3 1.3-0.2 1.6 0.4s0.2 1.3-0.4 1.6c-6.5 3.9-10.3 10.8-10.3 18.5 0 11.9 9.7 21.5 21.6 21.5s21.6-9.7 21.6-21.6c0-7.6-3.8-14.4-10.2-18.4-0.6-0.3-0.7-1.1-0.4-1.7s1.1-0.7 1.7-0.4c7.1 4.4 11.4 12 11.4 20.4-0.1 13.3-10.9 24.1-24.1 24.1z"/>
<path d="m70.1 67.9c-0.4-1.2-1.6-1.4-2.6-1.4 0-0.3 0-0.7-0.1-0.9-0.1-0.4-0.4-0.8-0.8-1-0.6-0.4-1.4-0.4-2.1-0.3 0-0.2 0.1-0.4 0.1-0.6 0-0.9-0.4-1.8-1.3-2.1-0.2-0.1-0.3-0.1-0.5-0.1 0-0.3 0.1-0.6 0.1-0.8 0-1.3-0.9-2.1-1.9-2.2-0.7-0.1-1.3 0.2-1.6 0.7-0.3-0.2-0.6-0.3-0.9-0.4-0.9-0.2-1.8 0.3-2.1 1-0.2 0.7-1.1 2.8-2 4.8-0.2 0.3-0.4 0.7-0.6 1h-0.8c-0.3 0-0.6 0-0.7-0.1 0.1-0.1 0.2-0.3 0.3-0.4 0.6-0.7 1.2-1.8 1.9-3.6 0.5-1.4-0.1-2.3-0.7-2.6-0.8-0.5-1.9-0.2-2.6 0.6-0.3 0.4-0.6 0.8-0.9 1.2-0.5 0.7-1 1.4-1.7 2.2-0.3-0.3-0.7-0.5-1.3-0.5-1.1-0.1-2 0.6-2.1 1.4 0 0.2-0.1 0.6-0.2 1.2-0.1 0.5-0.2 1.1-0.4 1.8-1.2 1.1-2.4 2.1-3.1 2.5-0.4 0.2-0.5 0.8-0.3 1.2 0.2 0.3 0.4 0.4 0.7 0.4 0.1 0 0.3 0 0.4-0.1 0.5-0.3 1.1-0.8 1.8-1.3-0.1 0.6-0.2 1.3-0.2 1.9-0.2 2.4 0.4 4.9 0.8 6.2 0.1 0.3 0.1 0.5 0.2 0.7-1 0.3-2.3 0.8-2.3 0.8-0.4 0.2-0.7 0.6-0.5 1.1 0.1 0.3 0.4 0.6 0.8 0.6 0.1 0 0.2 0 0.3-0.1 0 0 0.5-0.2 1.2-0.4l-0.3 0.9c-0.1 0.4 0.1 0.9 0.6 1h0.2c0.4 0 0.7-0.2 0.8-0.6 0.2-0.6 0.3-1.1 0.5-1.5 0.2-0.8 0.4-1.3 0.5-1.6 0-0.3 0-0.6-0.2-1.3-0.3-1.2-0.9-3.5-0.7-5.6 0.2-2.3 0.7-4.7 1-6.1 0.1-0.5 0.2-0.9 0.2-1.2 0.1-0.1 0.3-0.1 0.5 0s0.3 0.3 0.3 0.6c0 1.9 0.2 4.4 0.4 5.5 0.2 0.9 0.5 1.5 1.1 1.6 0.9 0.3 1.7-0.7 2-1s0.7-0.7 1.1-1.2c1.3-1.3 2.8-2.9 3.6-4.5 0.9-1.9 1.7-4 2-4.9h0.3s0.1 0.2 0.1 0.3c-0.1 0.6-0.4 3.9-3.1 7.6-0.3 0.4-0.2 0.9 0.2 1.2s0.9 0.2 1.2-0.2c1.2-1.7 2-3.4 2.5-4.7 0-0.1 0.1-0.1 0.1-0.2 0.1-0.3 0.2-0.6 0.3-0.8 0.5-1.3 0.9-2.2 1-3.2 0-0.1 0-0.2 0.2-0.2 0.1 0 0.4 0.1 0.4 0.5 0 1.4-1.1 6.3-3.3 9.6-0.3 0.4-0.2 0.9 0.2 1.2 0.1 0.1 0.3 0.1 0.5 0.1 0.3 0 0.5-0.1 0.7-0.4 1.7-2.5 2.7-5.7 3.2-8h0.1c0.1 0.1 0.3 0.2 0.3 0.5-0.1 1.4-1.1 4.8-3.2 8.2-0.2 0.4-0.1 0.9 0.3 1.2 0.1 0.1 0.3 0.1 0.4 0.1 0.3 0 0.6-0.1 0.7-0.4 0.8-1.3 1.5-2.7 2-4 0 0 0.3 0.4-0.4 2.1-1.1 2.5-2.4 5.2-4.5 7.2-0.9 0.8-1.8 1.4-2.5 1.9-1 0.7-2 1.3-2.4 2.3-0.5 1.3-0.8 2.6-0.9 2.7-0.1 0.5 0.2 0.9 0.6 1h0.2c0.4 0 0.7-0.3 0.8-0.6 0 0 0.3-1.2 0.8-2.4 0.2-0.5 0.8-0.9 1.7-1.5 0.8-0.5 1.7-1.1 2.7-2 0.5-0.4 0.9-0.9 1.3-1.4 1.1-0.1 1.8-0.1 1.8-0.1 1.6-0.1 3.7-0.7 3.4-2.7 0-0.4-0.2-0.6-0.4-0.9 0.3 0 0.6-0.1 0.9-0.1 2.3-0.2 2.9-2.2 1.8-3.4-0.1-0.1-0.2-0.2-0.3-0.2 1.6-0.5 2.8-1.7 2.4-2.8zm-18.9 0.8c-0.5 0.5-0.9 0.9-1.2 1.3l-0.2 0.2v-0.1c-0.2-0.9-0.3-3.2-0.3-5.3v-0.1c1.1-1.1 1.8-2.1 2.4-3 0.3-0.4 0.5-0.8 0.8-1.1 0.2-0.2 0.4-0.2 0.4-0.2s0.1 0.2-0.1 0.6c-0.6 1.7-1.2 2.6-1.7 3.2-0.4 0.5-1 1.3-0.6 2.1 0.3 0.7 1.1 0.9 1.8 1-0.4 0.5-0.9 1-1.3 1.4zm14.6-2.5c0.2 0.2 0.1 0.7-0.7 0.9-0.2 0.1-0.7 0.2-1.1 0.3 0 0-0.1 0-0.1-0.1 0.1-0.4 0.3-0.8 0.4-1.2 0.6-0.2 1.2-0.3 1.5 0.1zm-3.8 10.3h-0.2c0.3-0.5 0.7-1 0.9-1.6 0.8 0 1.4 0.1 1.5 0.6 0.1 0.9-1.5 0.9-2.2 1zm5.1-3.9c-0.3 0.3-0.9 0.4-1.4 0.5-0.6 0.1-1.3 0.2-2.1 0.2 0.2-0.5 0.4-0.9 0.6-1.4 1.2-0.2 1.8-0.3 2.1-0.3 0.7-0.2 1.1 0.7 0.8 1zm0.7-3.3c-0.7 0.2-1.8 0.4-2.9 0.7 0.1-0.5 0.1-0.9 0-1.3 0.2-0.1 0.4-0.1 0.5-0.1 1.5-0.4 2.5-0.6 2.9-0.2 0.4 0.2 0.1 0.7-0.5 0.9z"/>
<path d="m43.4 57c-0.2 0-0.4-0.1-0.6-0.3-0.3-0.3-0.2-0.8 0.1-1.1 0.9-0.7 1.9-1.3 2.8-1.8 0.4-0.2 0.8-0.1 1 0.3s0.1 0.8-0.3 1c-0.9 0.5-1.8 1-2.6 1.6-0.1 0.3-0.2 0.3-0.4 0.3z"/>
<path d="m41.5 85.7c-0.2 0-0.4-0.1-0.5-0.2-3.7-3.7-5.8-8.8-5.8-13.9 0-5 1.9-9.8 5.3-13.4 0.3-0.3 0.8-0.3 1.1 0s0.3 0.8 0 1.1c-3.2 3.4-4.9 7.8-4.9 12.4 0 4.8 2 9.5 5.4 12.9 0.3 0.3 0.3 0.8 0 1.1-0.2-0.1-0.4 0-0.6 0z"/>
<path d="m56.2 91.2h-1.3c-0.4 0-0.8-0.3-0.8-0.8s0.3-0.8 0.8-0.8h1.3c0.4 0 0.8 0.3 0.8 0.8s-0.4 0.8-0.8 0.8z"/>
<path d="m59 90.8c-0.3 0-0.7-0.2-0.7-0.6-0.1-0.4 0.2-0.8 0.6-0.9 7.3-1.5 13-7.6 14.1-15.1 0.1-0.9 0.2-1.7 0.2-2.7 0-0.4 0.3-0.8 0.8-0.8s0.8 0.3 0.8 0.8c0 1-0.1 2-0.2 2.9-1.3 8.2-7.4 14.7-15.3 16.4-0.2-0.1-0.2 0-0.3 0z"/>
<path d="m71.6 63.2c-0.3 0-0.5-0.1-0.7-0.4-1.7-3.1-4.4-5.7-7.7-7.5-0.4-0.2-0.5-0.6-0.3-1s0.6-0.5 1-0.3c3.6 1.9 6.4 4.7 8.3 8.1 0.2 0.4 0.1 0.8-0.3 1-0.1 0-0.2 0.1-0.3 0.1z"/>
</svg>