<?xml version="1.0" encoding="utf-8"?>
<!-- Generator: Adobe Illustrator 22.1.0, SVG Export Plug-In . SVG Version: 6.00 Build 0)  -->
<svg version="1.2" baseProfile="tiny" xmlns="http://www.w3.org/2000/svg" xmlns:xlink="http://www.w3.org/1999/xlink" x="0px"
	 y="0px" viewBox="0 0 110 110" xml:space="preserve">
<g id="Layer_2" display="none">
	
		<circle display="inline" fill-rule="evenodd" fill="none" stroke="#8CC63F" stroke-width="4" stroke-miterlimit="10" cx="54.9" cy="54.9" r="55"/>
</g>
<g id="Layer_1">
	<g>
		
			<line fill="none" stroke="#28646E" stroke-width="4" stroke-linecap="round" stroke-linejoin="round" stroke-miterlimit="10" x1="54.9" y1="43.8" x2="54.9" y2="15.4"/>
		
			<line fill="none" stroke="#28646E" stroke-width="4" stroke-linecap="round" stroke-linejoin="round" stroke-miterlimit="10" x1="54.9" y1="43.8" x2="44" y2="32.9"/>
		
			<line fill="none" stroke="#28646E" stroke-width="4" stroke-linecap="round" stroke-linejoin="round" stroke-miterlimit="10" x1="54.9" y1="43.8" x2="65.8" y2="32.9"/>
	</g>
	<circle fill-rule="evenodd" fill="#28646E" cx="36.1" cy="19.1" r="1.8"/>
	<circle fill-rule="evenodd" fill="#28646E" cx="78.8" cy="39.8" r="1.8"/>
	<circle fill-rule="evenodd" fill="#28646E" cx="83.3" cy="27" r="0.9"/>
	<circle fill-rule="evenodd" fill="#28646E" cx="76.9" cy="94.3" r="0.9"/>
	<circle fill-rule="evenodd" fill="#28646E" cx="22.8" cy="78.9" r="0.9"/>
	<circle fill-rule="evenodd" fill="#28646E" cx="92.9" cy="68.9" r="0.9"/>
	<circle fill-rule="evenodd" fill="#28646E" cx="29.5" cy="37.6" r="0.9"/>
	<circle fill-rule="evenodd" fill="#28646E" cx="12.6" cy="43" r="0.9"/>
	<g>
		<path fill="none" stroke="#28646E" stroke-width="4" stroke-linecap="round" stroke-linejoin="round" stroke-miterlimit="10" d="
			M28.7,60.3H18.2c-2.6,0-4.7-2.1-4.7-4.7v0c0-2.6,2.1-4.7,4.7-4.7h73.3c2.6,0,4.7,2.1,4.7,4.7v0c0,2.6-2.1,4.7-4.7,4.7H81.1"/>
		<g>
			
				<path fill="none" stroke="#28646E" stroke-width="2.4" stroke-linecap="round" stroke-linejoin="round" stroke-miterlimit="10" d="
				M66.9,52c6.5,4,10.8,11.2,10.8,19.4c0,12.6-10.2,22.8-22.8,22.8S32.1,84.1,32.1,71.5C32.1,63.2,36.4,56,43,52"/>
			<g>
				<path fill="#28646E" d="M70.1,67.9c-0.4-1.2-1.6-1.4-2.6-1.4c0-0.3,0-0.7-0.1-0.9c-0.1-0.4-0.4-0.8-0.8-1
					c-0.6-0.4-1.4-0.4-2.1-0.3c0-0.2,0.1-0.4,0.1-0.6c0-0.9-0.4-1.8-1.3-2.1c-0.2-0.1-0.3-0.1-0.5-0.1c0-0.3,0.1-0.6,0.1-0.8
					c0-1.3-0.9-2.1-1.9-2.2c-0.7-0.1-1.3,0.2-1.6,0.7c-0.3-0.2-0.6-0.3-0.9-0.4c-0.9-0.2-1.8,0.3-2.1,1c-0.2,0.7-1.1,2.8-2,4.8
					c-0.2,0.3-0.4,0.7-0.6,1c-0.4,0-0.6,0-0.8,0c-0.3,0-0.6,0-0.7-0.1c0.1-0.1,0.2-0.3,0.3-0.4c0.6-0.7,1.2-1.8,1.9-3.6
					c0.5-1.4-0.1-2.3-0.7-2.6c-0.8-0.5-1.9-0.2-2.6,0.6c-0.3,0.4-0.6,0.8-0.9,1.2c-0.5,0.7-1,1.4-1.7,2.2c-0.3-0.3-0.7-0.5-1.3-0.5
					c-1.1-0.1-2,0.6-2.1,1.4c0,0.2-0.1,0.6-0.2,1.2c-0.1,0.5-0.2,1.1-0.4,1.8c-1.2,1.1-2.4,2.1-3.1,2.5c-0.4,0.2-0.5,0.8-0.3,1.2
					c0.2,0.3,0.4,0.4,0.7,0.4c0.1,0,0.3,0,0.4-0.1c0.5-0.3,1.1-0.8,1.8-1.3c-0.1,0.6-0.2,1.3-0.2,1.9c-0.2,2.4,0.4,4.9,0.8,6.2
					c0.1,0.3,0.1,0.5,0.2,0.7c-1,0.3-2.3,0.8-2.3,0.8c-0.4,0.2-0.7,0.6-0.5,1.1c0.1,0.3,0.4,0.6,0.8,0.6c0.1,0,0.2,0,0.3-0.1
					c0,0,0.5-0.2,1.2-0.4c-0.1,0.3-0.2,0.6-0.3,0.9c-0.1,0.4,0.1,0.9,0.6,1c0.1,0,0.2,0,0.2,0c0.4,0,0.7-0.2,0.8-0.6
					c0.2-0.6,0.3-1.1,0.5-1.5c0.2-0.8,0.4-1.3,0.5-1.6c0-0.3,0-0.6-0.2-1.3c-0.3-1.2-0.9-3.5-0.7-5.6c0.2-2.3,0.7-4.7,1-6.1
					c0.1-0.5,0.2-0.9,0.2-1.2c0.1-0.1,0.3-0.1,0.5,0c0.2,0.1,0.3,0.3,0.3,0.6c0,1.9,0.2,4.4,0.4,5.5c0.2,0.9,0.5,1.5,1.1,1.6
					c0.9,0.3,1.7-0.7,2-1c0.3-0.3,0.7-0.7,1.1-1.2c1.3-1.3,2.8-2.9,3.6-4.5c0.9-1.9,1.7-4,2-4.9c0.1,0,0.2,0,0.3,0
					c0.1,0,0.1,0.2,0.1,0.3c-0.1,0.6-0.4,3.9-3.1,7.6c-0.3,0.4-0.2,0.9,0.2,1.2c0.4,0.3,0.9,0.2,1.2-0.2c1.2-1.7,2-3.4,2.5-4.7
					c0-0.1,0.1-0.1,0.1-0.2c0.1-0.3,0.2-0.6,0.3-0.8c0.5-1.3,0.9-2.2,1-3.2c0-0.1,0-0.2,0.2-0.2c0.1,0,0.4,0.1,0.4,0.5
					c0,1.4-1.1,6.3-3.3,9.6c-0.3,0.4-0.2,0.9,0.2,1.2c0.1,0.1,0.3,0.1,0.5,0.1c0.3,0,0.5-0.1,0.7-0.4c1.7-2.5,2.7-5.7,3.2-8
					c0,0,0.1,0,0.1,0c0.1,0.1,0.3,0.2,0.3,0.5c-0.1,1.4-1.1,4.8-3.2,8.2c-0.2,0.4-0.1,0.9,0.3,1.2c0.1,0.1,0.3,0.1,0.4,0.1
					c0.3,0,0.6-0.1,0.7-0.4c0.8-1.3,1.5-2.7,2-4c0,0,0,0,0,0c0,0,0.3,0.4-0.4,2.1c-1.1,2.5-2.4,5.2-4.5,7.2
					c-0.9,0.8-1.8,1.4-2.5,1.9c-1,0.7-2,1.3-2.4,2.3c-0.5,1.3-0.8,2.6-0.9,2.7c-0.1,0.5,0.2,0.9,0.6,1c0.1,0,0.1,0,0.2,0
					c0.4,0,0.7-0.3,0.8-0.6c0,0,0.3-1.2,0.8-2.4c0.2-0.5,0.8-0.9,1.7-1.5c0.8-0.5,1.7-1.1,2.7-2c0.5-0.4,0.9-0.9,1.3-1.4
					c1.1-0.1,1.8-0.1,1.8-0.1c1.6-0.1,3.7-0.7,3.4-2.7c0-0.4-0.2-0.6-0.4-0.9c0.3,0,0.6-0.1,0.9-0.1c2.3-0.2,2.9-2.2,1.8-3.4
					c-0.1-0.1-0.2-0.2-0.3-0.2C69.3,70.2,70.5,69,70.1,67.9z M51.2,68.7c-0.5,0.5-0.9,0.9-1.2,1.3c-0.1,0.1-0.1,0.1-0.2,0.2
					c0,0,0,0,0-0.1c-0.2-0.9-0.3-3.2-0.3-5.3c0,0,0-0.1,0-0.1c1.1-1.1,1.8-2.1,2.4-3c0.3-0.4,0.5-0.8,0.8-1.1
					c0.2-0.2,0.4-0.2,0.4-0.2c0,0,0.1,0.2-0.1,0.6c-0.6,1.7-1.2,2.6-1.7,3.2c-0.4,0.5-1,1.3-0.6,2.1c0.3,0.7,1.1,0.9,1.8,1
					C52.1,67.8,51.6,68.3,51.2,68.7z M65.8,66.2c0.2,0.2,0.1,0.7-0.7,0.9c-0.2,0.1-0.7,0.2-1.1,0.3c0,0-0.1,0-0.1-0.1
					c0.1-0.4,0.3-0.8,0.4-1.2C64.9,65.9,65.5,65.8,65.8,66.2z M62,76.5c-0.1,0-0.1,0-0.2,0c0.3-0.5,0.7-1,0.9-1.6
					c0.8,0,1.4,0.1,1.5,0.6C64.3,76.4,62.7,76.4,62,76.5z M67.1,72.6c-0.3,0.3-0.9,0.4-1.4,0.5c-0.6,0.1-1.3,0.2-2.1,0.2
					c0.2-0.5,0.4-0.9,0.6-1.4c1.2-0.2,1.8-0.3,2.1-0.3C67,71.4,67.4,72.3,67.1,72.6z M67.8,69.3c-0.7,0.2-1.8,0.4-2.9,0.7
					c0.1-0.5,0.1-0.9,0-1.3c0.2-0.1,0.4-0.1,0.5-0.1c0,0,0,0,0,0c0,0,0,0,0,0c1.5-0.4,2.5-0.6,2.9-0.2
					C68.7,68.6,68.4,69.1,67.8,69.3z"/>
			</g>
		</g>
		<g>
			
				<path fill="none" stroke="#28646E" stroke-width="1.5" stroke-linecap="round" stroke-linejoin="round" stroke-miterlimit="10" d="
				M43.4,56.3c0.9-0.7,1.8-1.2,2.7-1.7"/>
			
				<path fill="none" stroke="#28646E" stroke-width="1.5" stroke-linecap="round" stroke-linejoin="round" stroke-miterlimit="10" d="
				M41.5,84.9c-3.4-3.4-5.6-8.2-5.6-13.4c0-5,1.9-9.5,5.1-12.9"/>
			
				<path fill="none" stroke="#28646E" stroke-width="1.5" stroke-linecap="round" stroke-linejoin="round" stroke-miterlimit="10" d="
				M56.2,90.4c-0.4,0-0.9,0-1.3,0"/>
			
				<path fill="none" stroke="#28646E" stroke-width="1.5" stroke-linecap="round" stroke-linejoin="round" stroke-miterlimit="10" d="
				M73.9,71.5c0,1-0.1,1.9-0.2,2.8C72.5,82.1,66.6,88.4,59,90"/>
			
				<path fill="none" stroke="#28646E" stroke-width="1.5" stroke-linecap="round" stroke-linejoin="round" stroke-miterlimit="10" d="
				M63.6,54.6c3.4,1.8,6.2,4.5,8,7.8"/>
		</g>
	</g>
</g>
</svg>
