<?xml version="1.0" encoding="UTF-8"?>
<svg enable-background="new 0 0 110 110" version="1.1" viewBox="0 0 110 110" xml:space="preserve" xmlns="http://www.w3.org/2000/svg">
<circle cx="19.6" cy="45.8" r="1.8"/>
<circle cx="94.2" cy="62.6" r="1.8"/>
<circle cx="75.3" cy="86.4" r=".9"/>
<circle cx="32.9" cy="92.1" r=".9"/>
<circle cx="88.8" cy="29.3" r=".9"/>
<circle cx="40.8" cy="18" r=".9"/>
<circle cx="13.4" cy="53.6" r=".9"/>
<path d="m81.2 64.6h-52.2c-1.1 0-2-0.9-2-2v-34.9c0-1.1 0.9-2 2-2h52.2c1.1 0 2 0.9 2 2v34.9c0 1.2-0.9 2-2 2zm-50.2-4h48.2v-30.9h-48.2v30.9z"/>
<path d="M72,58.1H34.4c-0.4,0-0.8-0.3-0.8-0.8V36.8c0-0.4,0.3-0.8,0.8-0.8s0.8,0.3,0.8,0.8v19.9H72c0.4,0,0.8,0.3,0.8,0.8  S72.4,58.1,72,58.1z"/>
<path d="m75.8 54.4c-0.4 0-0.8-0.3-0.8-0.8v-19.9h-36.8c-0.4 0-0.8-0.3-0.8-0.8s0.3-0.8 0.8-0.8h37.6c0.4 0 0.8 0.3 0.8 0.8v20.6c-0.1 0.5-0.4 0.9-0.8 0.9z"/>
<path d="m55.1 82.3h-33.9c-0.7 0-1.3-0.3-1.7-0.9s-0.4-1.3-0.1-1.9l5.3-11.3c0.5-1 1.7-1.4 2.7-1 1 0.5 1.4 1.7 1 2.7l-3.9 8.4h30.7c1.1 0 2 0.9 2 2s-1 2-2.1 2z"/>
<path d="m88.8 82.3h-33.9c-1.1 0-2-0.9-2-2s0.9-2 2-2h30.7l-3.9-8.4c-0.5-1 0-2.2 1-2.7s2.2 0 2.7 1l5.3 11.3c0.3 0.6 0.2 1.3-0.1 1.9-0.5 0.5-1.1 0.9-1.8 0.9z"/>
<path d="m60.5 75.8h-10.9c-0.4 0-0.8-0.3-0.8-0.8s0.3-0.8 0.8-0.8h10.9c0.4 0 0.8 0.3 0.8 0.8s-0.4 0.8-0.8 0.8z"/>
<path d="m34.4 72.7h-3.2c-0.4 0-0.8-0.3-0.8-0.8s0.3-0.8 0.8-0.8h3.2c0.4 0 0.8 0.3 0.8 0.8s-0.4 0.8-0.8 0.8z"/>
<path d="m34 69.8h-2.3c-0.4 0-0.8-0.3-0.8-0.8s0.3-0.8 0.8-0.8h2.3c0.4 0 0.8 0.3 0.8 0.8s-0.4 0.8-0.8 0.8z"/>
<path d="m39.6 69.8h-2.3c-0.4 0-0.8-0.3-0.8-0.8s0.3-0.8 0.8-0.8h2.3c0.4 0 0.8 0.3 0.8 0.8s-0.4 0.8-0.8 0.8z"/>
<path d="m45.2 69.8h-2.3c-0.4 0-0.8-0.3-0.8-0.8s0.3-0.8 0.8-0.8h2.3c0.4 0 0.8 0.3 0.8 0.8s-0.4 0.8-0.8 0.8z"/>
<path d="m50.8 69.8h-2.3c-0.4 0-0.8-0.3-0.8-0.8s0.3-0.8 0.8-0.8h2.3c0.4 0 0.8 0.3 0.8 0.8s-0.4 0.8-0.8 0.8z"/>
<path d="m56.4 69.8h-2.3c-0.4 0-0.8-0.3-0.8-0.8s0.3-0.8 0.8-0.8h2.3c0.4 0 0.8 0.3 0.8 0.8s-0.4 0.8-0.8 0.8z"/>
<path d="m62 69.8h-2.3c-0.4 0-0.8-0.3-0.8-0.8s0.3-0.8 0.8-0.8h2.3c0.4 0 0.8 0.3 0.8 0.8s-0.3 0.8-0.8 0.8z"/>
<path d="m67.6 69.8h-2.3c-0.4 0-0.8-0.3-0.8-0.8s0.3-0.8 0.8-0.8h2.3c0.4 0 0.8 0.3 0.8 0.8s-0.3 0.8-0.8 0.8z"/>
<path d="m75.3 69.8h-4.8c-0.4 0-0.8-0.3-0.8-0.8s0.3-0.8 0.8-0.8h4.8c0.4 0 0.8 0.3 0.8 0.8s-0.4 0.8-0.8 0.8z"/>
<path d="m78.4 69.8h-0.7c-0.4 0-0.8-0.3-0.8-0.8s0.3-0.8 0.8-0.8h0.7c0.4 0 0.8 0.3 0.8 0.8s-0.4 0.8-0.8 0.8z"/>
<path d="m40.8 72.7h-3.2c-0.4 0-0.8-0.3-0.8-0.8s0.3-0.8 0.8-0.8h3.2c0.4 0 0.8 0.3 0.8 0.8s-0.4 0.8-0.8 0.8z"/>
<path d="m66.5 72.7h-22.5c-0.4 0-0.8-0.3-0.8-0.8s0.3-0.8 0.8-0.8h22.5c0.4 0 0.8 0.3 0.8 0.8s-0.4 0.8-0.8 0.8z"/>
<path d="m72.9 72.7h-3.2c-0.4 0-0.8-0.3-0.8-0.8s0.3-0.8 0.8-0.8h3.2c0.4 0 0.8 0.3 0.8 0.8s-0.4 0.8-0.8 0.8z"/>
<path d="m79.4 72.7h-3.2c-0.4 0-0.8-0.3-0.8-0.8s0.3-0.8 0.8-0.8h3.2c0.4 0 0.8 0.3 0.8 0.8s-0.4 0.8-0.8 0.8z"/>
<circle cx="50.6" cy="41.1" r="3.8"/>
<circle cx="59.3" cy="41.1" r="3.8"/>
<path d="m59.3 47c1.5 0 2.8 1.3 2.8 2.8s-1.3 2.8-2.8 2.8-2.8-1.3-2.8-2.8 1.2-2.8 2.8-2.8m0-1c-2.1 0-3.8 1.7-3.8 3.8s1.7 3.8 3.8 3.8 3.8-1.7 3.8-3.8-1.7-3.8-3.8-3.8z"/>
<circle cx="50.6" cy="49.8" r="3.8"/>
<path d="m58.3 51.2v-2.8c0-0.1 0.1-0.1 0.2-0.1l2.4 1.4c0.1 0 0.1 0.1 0 0.2l-2.4 1.4c-0.1 0.1-0.2 0-0.2-0.1z"/>
</svg>
