<?xml version="1.0" encoding="UTF-8"?>
<svg enable-background="new 0 0 110 110" version="1.1" viewBox="0 0 110 110" xml:space="preserve" xmlns="http://www.w3.org/2000/svg">
<circle cx="17.6" cy="63.4" r="1.8"/>
<circle cx="60.5" cy="18" r="1.8"/>
<circle cx="32" cy="87.4" r=".9"/>
<circle cx="43.5" cy="28.4" r=".9"/>
<circle cx="71.7" cy="91.1" r=".9"/>
<circle cx="92.7" cy="68.8" r=".9"/>
<circle cx="84.4" cy="70.4" r=".9"/>
<path d="m46.4 83.7c-7.3 0-14.3-2.1-20.5-6-0.8-0.5-1.1-1.5-0.8-2.4s1.2-1.4 2.1-1.3c4.6 0.5 9.3-0.3 13.3-2.4-4-1.6-7.2-4.9-8.5-9.2-0.2-0.7-0.1-1.4 0.4-1.9l0.2-0.2c-3.2-2.7-5.1-6.7-5.1-11.1v-0.2c0-0.7 0.4-1.4 1-1.7 0.3-0.2 0.6-0.2 0.9-0.3-1.1-2.1-1.8-4.5-1.8-7 0-2.6 0.7-5.1 2-7.4 0.3-0.6 0.9-0.9 1.6-1s1.3 0.2 1.7 0.7c5.6 6.8 13.6 11.2 22.2 12.3-0.2-4.3 1.5-8.5 4.7-11.5 5.6-5.2 14.3-5.2 19.9 0 2.2-0.6 4.4-1.4 6.3-2.6 0.7-0.4 1.6-0.4 2.3 0.2 0.7 0.5 0.9 1.4 0.7 2.2-0.3 0.9-0.7 1.8-1.1 2.6 0 0 0.1 0 0.1-0.1 0.8-0.4 1.8-0.1 2.3 0.5 0.6 0.7 0.6 1.6 0.2 2.4-1.6 2.5-3.6 4.7-6 6.6v0.7c0 18.8-14.2 38.1-38.1 38.1zm-11.4-6c3.6 1.3 7.5 2 11.4 2 21.3 0 34.1-17.3 34.1-34v-1.7c0-0.6 0.3-1.2 0.8-1.6l1.5-1.2c-0.4 0.1-0.7 0.1-1.1 0.1-0.9 0.1-1.8-0.4-2.1-1.3s0.1-1.9 0.9-2.4c0.4-0.2 0.7-0.5 1.1-0.8-0.7 0.2-1.4 0.4-2.1 0.5s-1.4-0.1-1.9-0.6c-4-4.3-10.8-4.6-15.1-0.6-2.8 2.6-4 6.5-3.1 10.3 0.1 0.6 0 1.3-0.4 1.7-0.4 0.5-1 0.7-1.6 0.7-9.6-0.5-18.7-4.6-25.4-11.5-0.2 0.9-0.3 1.8-0.3 2.7 0 3.6 1.8 6.9 4.7 8.9 0.7 0.5 1.1 1.4 0.8 2.3s-1.1 1.4-2 1.4c-1.1 0-2.2-0.2-3.3-0.5 1.1 3.7 4.2 6.7 8.1 7.5 0.9 0.2 1.6 1 1.6 1.9s-0.6 1.8-1.5 2c-1 0.3-2 0.4-2.9 0.5 1.9 2.8 5.1 4.5 8.6 4.6 0.8 0 1.6 0.6 1.9 1.4s0 1.7-0.7 2.2c-3.5 2.9-7.7 4.7-12 5.5z"/>
</svg>
