<?xml version="1.0" encoding="UTF-8"?>
<svg enable-background="new 0 0 110 110" version="1.1" viewBox="0 0 110 110" xml:space="preserve" xmlns="http://www.w3.org/2000/svg">
<circle cx="24" cy="30.6" r="1.8"/>
<circle cx="60.9" cy="11.8" r=".9"/>
<circle cx="39.9" cy="32.4" r=".9"/>
<circle cx="79.4" cy="82.3" r=".9"/>
<circle cx="67" cy="98.1" r="1.8"/>
<circle cx="96.9" cy="44.2" r=".9"/>
<circle cx="16.1" cy="71.8" r=".9"/>
<path d="m50.1 72.1c-4.3 0-8.6-1.2-12.2-3.6-0.5-0.3-0.7-0.9-0.5-1.4s0.7-0.9 1.3-0.8 1.1 0.1 1.7 0.1c2.1 0 4.3-0.5 6.2-1.5-2.3-1-4.2-2.9-5-5.4-0.1-0.4 0-0.8 0.2-1.2l0.1-0.1c-1.9-1.6-3-4-3-6.6 0-0.4 0.2-0.9 0.6-1.1 0.2-0.1 0.4-0.2 0.5-0.2-1.4-2.6-1.4-5.8 0.1-8.5 0.2-0.3 0.5-0.6 0.9-0.6s0.8 0.1 1 0.4c3.3 4 8 6.7 13.2 7.3v-0.4c0-2.4 1-4.7 2.7-6.3 3.3-3.1 8.5-3.1 11.8-0.1 1.3-0.3 2.6-0.8 3.8-1.5 0.4-0.3 1-0.2 1.4 0.1s0.5 0.8 0.4 1.3c-0.2 0.5-0.4 1-0.7 1.5 0.5-0.2 1.1-0.1 1.4 0.3s0.4 1 0.1 1.4c-1 1.5-2.2 2.7-3.5 3.8v0.4c0.1 11.2-8.4 22.7-22.5 22.7zm-6.8-3.6c2.2 0.8 4.5 1.2 6.8 1.2 13.9 0 20.2-11.8 20.2-20.2v-1c0-0.4 0.2-0.7 0.5-1 0.3-0.2 0.5-0.4 0.8-0.6-0.2 0-0.3 0-0.5 0.1-0.6 0.1-1.1-0.3-1.3-0.8s0-1.1 0.5-1.4c0.2-0.1 0.4-0.3 0.6-0.4l-1.2 0.3c-0.4 0.1-0.8-0.1-1.1-0.4-2.4-2.5-6.4-2.7-8.9-0.3-1.3 1.2-2 2.9-2 4.6 0 0.5 0.1 1 0.2 1.5 0.1 0.4 0 0.7-0.3 1-0.2 0.3-0.6 0.5-1 0.4-5.7-0.3-11.1-2.8-15-6.8-0.6 2.5 0.4 5.3 2.6 6.8 0.4 0.3 0.6 0.9 0.5 1.4-0.2 0.5-0.7 0.8-1.2 0.8-0.6 0-1.3-0.1-1.9-0.3 0.7 2.2 2.5 3.9 4.8 4.4 0.5 0.1 0.9 0.6 1 1.1 0 0.6-0.3 1-0.9 1.2s-1.2 0.3-1.8 0.3c1.1 1.6 3 2.7 5 2.7 0.5 0 1 0.3 1.1 0.8 0.2 0.5 0 1-0.4 1.3-2.1 1.8-4.5 2.9-7.1 3.3z"/>
<path d="m76.2 31.9c-0.5 0-0.9-0.2-1.3-0.5-5.6-4.7-12.6-7.3-19.9-7.3-1.1 0-2-0.9-2-2s0.9-2 2-2c8.2 0 16.2 2.9 22.5 8.2 0.8 0.7 0.9 2 0.2 2.8-0.4 0.6-0.9 0.8-1.5 0.8z"/>
<path d="m87.8 59.3c-1.1 0-2-0.9-2-2v-2.3c0-6.6-2.2-13.2-6.2-18.5-0.7-0.9-0.5-2.1 0.4-2.8s2.1-0.5 2.8 0.4c4.5 6 7 13.4 7 20.9v2.3c0 1.1-0.9 2-2 2z"/>
<path d="m54.9 89.8c-1.9 0-3.7-0.1-5.6-0.4-1.1-0.2-1.8-1.2-1.7-2.3s1.2-1.8 2.3-1.7c1.6 0.3 3.3 0.4 5 0.4 1.1 0 2 0.9 2 2 0.1 1.1-0.8 2-2 2 0.1 0 0.1 0 0 0z"/>
<path d="m42.9 87.5c-0.2 0-0.5 0-0.7-0.1-13.4-5.3-22-18-22-32.4v-2.3c0-1.1 0.9-2 2-2s2 0.9 2 2v2.3c0 12.7 7.6 24 19.5 28.7 1 0.4 1.5 1.6 1.1 2.6-0.3 0.8-1.1 1.2-1.9 1.2z"/>
<path d="m87.8 67.8c-0.5 0-1-0.2-1.4-0.6l-6.6-6.6c-0.8-0.8-0.8-2 0-2.8s2-0.8 2.8 0l5.1 5.2 5.2-5.2c0.8-0.8 2-0.8 2.8 0s0.8 2 0 2.8l-6.6 6.6c-0.2 0.3-0.7 0.6-1.3 0.6z"/>
<path d="m28.7 52.8c-0.5 0-1-0.2-1.4-0.6l-5.1-5.2-5.2 5.2c-0.8 0.8-2 0.8-2.8 0s-0.8-2 0-2.8l6.6-6.6c0.4-0.4 0.9-0.6 1.4-0.6s1 0.2 1.4 0.6l6.6 6.6c0.8 0.8 0.8 2 0 2.8-0.4 0.4-1 0.6-1.5 0.6z"/>
</svg>