<?xml version="1.0" encoding="UTF-8"?>
<svg enable-background="new 0 0 110 110" version="1.1" viewBox="0 0 110 110" xml:space="preserve" xmlns="http://www.w3.org/2000/svg">
<circle cx="31.7" cy="88.4" r="1.8"/>
<circle cx="40.8" cy="19.8" r="1.8"/>
<circle cx="17.2" cy="40.7" r=".9"/>
<circle cx="53.1" cy="25.4" r=".9"/>
<circle cx="96.4" cy="69.7" r=".9"/>
<circle cx="80.3" cy="29.3" r=".9"/>
<path d="m79.4 51.1c0-0.3-0.3-0.6-0.6-0.6s-0.6 0.2-0.6 0.6h-1c0-0.3-0.3-0.6-0.6-0.6s-0.6 0.2-0.6 0.6h-1c0-0.3-0.3-0.6-0.6-0.6s-0.6 0.2-0.6 0.6h-1c0-0.3-0.3-0.6-0.6-0.6s-0.6 0.2-0.6 0.6h-0.9v-1.2c0.3 0 0.6-0.3 0.6-0.6s-0.3-0.6-0.6-0.6v-1.1c0.3 0 0.6-0.3 0.6-0.6s-0.3-0.6-0.6-0.6v-1.1c0.3 0 0.6-0.3 0.6-0.6s-0.3-0.6-0.6-0.6v-1.1c0.3 0 0.6-0.3 0.6-0.6s-0.3-0.6-0.6-0.6v-1.2h0.9c0 0.3 0.3 0.6 0.6 0.6s0.6-0.3 0.6-0.6h1c0 0.3 0.3 0.6 0.6 0.6s0.6-0.3 0.6-0.6h1c0 0.3 0.3 0.6 0.6 0.6s0.6-0.3 0.6-0.6h1c0 0.3 0.3 0.6 0.6 0.6s0.6-0.3 0.6-0.6h0.9v1.2c-0.3 0-0.6 0.3-0.6 0.6s0.3 0.6 0.6 0.6v1.1c-0.3 0-0.6 0.3-0.6 0.6s0.3 0.6 0.6 0.6v1.1c-0.3 0-0.6 0.3-0.6 0.6s0.3 0.6 0.6 0.6v1.1c-0.3 0-0.6 0.3-0.6 0.6s0.3 0.6 0.6 0.6v1.2h-0.9z"/>
<path d="m86.3 79.3h-61.1c-1.1 0-2-0.9-2-2v-41.6c0-1.1 0.9-2 2-2h55.1c1.1 0 2 0.9 2 2s-0.9 2-2 2h-53.1v37.6h57.1v-32.6c0-1.1 0.9-2 2-2s2 0.9 2 2v34.6c0 1.1-0.9 2-2 2z"/>
<path d="m52.1 54.1h-17.6c-0.7 0-1.2-0.5-1.2-1.2s0.5-1.2 1.2-1.2h17.6c0.7 0 1.2 0.5 1.2 1.2s-0.5 1.2-1.2 1.2z"/>
<path d="m52.1 59.3h-17.6c-0.7 0-1.2-0.5-1.2-1.2s0.5-1.2 1.2-1.2h17.6c0.7 0 1.2 0.5 1.2 1.2s-0.5 1.2-1.2 1.2z"/>
<path d="m52.1 64.6h-17.6c-0.7 0-1.2-0.5-1.2-1.2s0.5-1.2 1.2-1.2h17.6c0.7 0 1.2 0.5 1.2 1.2s-0.5 1.2-1.2 1.2z"/>
<path d="m40.8 69.9h-6.3c-0.7 0-1.2-0.5-1.2-1.2s0.5-1.2 1.2-1.2h6.3c0.7 0 1.2 0.5 1.2 1.2s-0.5 1.2-1.2 1.2z"/>
</svg>