<?xml version="1.0" encoding="utf-8"?>
<!-- Generator: Adobe Illustrator 22.1.0, SVG Export Plug-In . SVG Version: 6.00 Build 0)  -->
<svg version="1.2" baseProfile="tiny" xmlns="http://www.w3.org/2000/svg" xmlns:xlink="http://www.w3.org/1999/xlink" x="0px"
	 y="0px" viewBox="0 0 110 110" xml:space="preserve">
<g id="Layer_2" display="none">
	
		<circle display="inline" fill-rule="evenodd" fill="none" stroke="#8CC63F" stroke-width="4" stroke-miterlimit="10" cx="54.9" cy="55" r="55"/>
</g>
<g id="Layer_1">
	<circle fill-rule="evenodd" fill="#28646E" cx="31.7" cy="88.4" r="1.8"/>
	<circle fill-rule="evenodd" fill="#28646E" cx="40.8" cy="19.8" r="1.8"/>
	<circle fill-rule="evenodd" fill="#28646E" cx="17.2" cy="40.7" r="0.9"/>
	<circle fill-rule="evenodd" fill="#28646E" cx="53.1" cy="25.4" r="0.9"/>
	<circle fill-rule="evenodd" fill="#28646E" cx="96.4" cy="69.7" r="0.9"/>
	<circle fill-rule="evenodd" fill="#28646E" cx="80.3" cy="29.3" r="0.9"/>
	<g>
		<path fill-rule="evenodd" fill="#28646E" d="M79.4,51.1c0-0.3-0.3-0.6-0.6-0.6c-0.3,0-0.6,0.2-0.6,0.6h-1c0-0.3-0.3-0.6-0.6-0.6
			c-0.3,0-0.6,0.2-0.6,0.6h-1c0-0.3-0.3-0.6-0.6-0.6c-0.3,0-0.6,0.2-0.6,0.6h-1c0-0.3-0.3-0.6-0.6-0.6s-0.6,0.2-0.6,0.6h-0.9v-1.2
			c0.3,0,0.6-0.3,0.6-0.6c0-0.3-0.3-0.6-0.6-0.6v-1.1c0.3,0,0.6-0.3,0.6-0.6c0-0.3-0.3-0.6-0.6-0.6v-1.1c0.3,0,0.6-0.3,0.6-0.6
			c0-0.3-0.3-0.6-0.6-0.6v-1.1c0.3,0,0.6-0.3,0.6-0.6c0-0.3-0.3-0.6-0.6-0.6v-1.2h0.9c0,0,0,0,0,0c0,0.3,0.3,0.6,0.6,0.6
			c0.3,0,0.6-0.3,0.6-0.6c0,0,0,0,0,0h1c0,0,0,0,0,0c0,0.3,0.3,0.6,0.6,0.6c0.3,0,0.6-0.3,0.6-0.6c0,0,0,0,0,0h1c0,0,0,0,0,0
			c0,0.3,0.3,0.6,0.6,0.6c0.3,0,0.6-0.3,0.6-0.6c0,0,0,0,0,0h1c0,0,0,0,0,0c0,0.3,0.3,0.6,0.6,0.6c0.3,0,0.6-0.3,0.6-0.6
			c0,0,0,0,0,0h0.9v1.2c-0.3,0-0.6,0.3-0.6,0.6c0,0.3,0.3,0.6,0.6,0.6v1.1c-0.3,0-0.6,0.3-0.6,0.6c0,0.3,0.3,0.6,0.6,0.6v1.1
			c-0.3,0-0.6,0.3-0.6,0.6c0,0.3,0.3,0.6,0.6,0.6v1.1c-0.3,0-0.6,0.3-0.6,0.6c0,0.3,0.3,0.6,0.6,0.6v1.2H79.4z"/>
		
			<polyline fill-rule="evenodd" fill="none" stroke="#28646E" stroke-width="4" stroke-linecap="round" stroke-linejoin="round" stroke-miterlimit="10" points="
			80.3,35.7 25.2,35.7 25.2,77.3 86.3,77.3 86.3,42.7 		"/>
		
			<line fill="none" stroke="#28646E" stroke-width="2.4" stroke-linecap="round" stroke-linejoin="round" stroke-miterlimit="10" x1="34.5" y1="52.9" x2="52.1" y2="52.9"/>
		
			<line fill="none" stroke="#28646E" stroke-width="2.4" stroke-linecap="round" stroke-linejoin="round" stroke-miterlimit="10" x1="34.5" y1="58.1" x2="52.1" y2="58.1"/>
		
			<line fill="none" stroke="#28646E" stroke-width="2.4" stroke-linecap="round" stroke-linejoin="round" stroke-miterlimit="10" x1="34.5" y1="63.4" x2="52.1" y2="63.4"/>
		
			<line fill="none" stroke="#28646E" stroke-width="2.4" stroke-linecap="round" stroke-linejoin="round" stroke-miterlimit="10" x1="34.5" y1="68.7" x2="40.8" y2="68.7"/>
	</g>
</g>
</svg>
