<svg xmlns="http://www.w3.org/2000/svg" width="103" height="18" viewBox="0 0 103 18">
    <g fill="#28646E" fill-rule="evenodd">
        <path d="M7.739 15.086H3.17c-.175 0-.275-.1-.275-.274V5.204c0-.35-.2-.549-.55-.549H.775c-.35 0-.55.2-.55.549v11.27c0 .7.4 1.099 1.1 1.099h6.415c.35 0 .549-.2.549-.55v-1.388c0-.35-.2-.549-.55-.549M15.272 9.657h-1.767c-.34 0-.533.2-.533.55v6.816c0 .35.194.55.533.55h1.767c.339 0 .533-.2.533-.55v-6.817c0-.35-.194-.549-.533-.549M13.568 7.88c.15-.09.126-.245.11-.368-.077-.608-.674-3.198-.857-3.729-.091-.266-.257-.331-.454-.294-.258.05-.597.219-1.127.54-.53.32-.838.54-1.002.746-.125.157-.144.333.049.539.385.409 2.399 2.143 2.9 2.495.102.07.228.164.378.074l.003-.002zM15.128 4.456c.154.082.276-.018.373-.094.578-.453 2.25-2.038 2.765-2.645.182-.215.153-.39.02-.54-.175-.197-.493-.401-1.04-.693C16.7.192 16.353.04 16.092.005c-.199-.027-.36.047-.438.318-.154.54-.614 3.158-.659 3.769-.009.123-.025.28.13.362l.003.002zM29.7 17.563h-1.574c-.35 0-.55-.2-.55-.549v-2.322c0-.874-.648-1.798-1.822-1.798-1.173 0-1.823.924-1.823 1.798v2.322c0 .35-.2.55-.549.55h-1.573c-.35 0-.55-.2-.55-.55V5.437c0-.35.2-.549.55-.549h1.573c.35 0 .55.2.55.55v4.909c0 .2.149.374.399.374.217 0 .524-.2.699-.474l2.117-3.12c.255-.353.475-.525.824-.525H29.8c.4 0 .6.325.375.674l-2.372 3.22c-.125.2-.15.375.15.525a4.08 4.08 0 0 1 2.297 3.67v2.323c0 .35-.2.55-.55.55M40.272 10.717c0 .166-.094.26-.26.26h-2.93c-.166 0-.26-.094-.26-.26v-.425c0-.827.614-1.702 1.725-1.702 1.111 0 1.725.875 1.725 1.702v.425zm-1.725-4.372c-2.552 0-4.254 1.844-4.254 3.947v3.498c0 2.103 1.702 3.946 4.254 3.946 2.326 0 3.218-1.097 3.673-2.013.08-.161.141-.52-.142-.709l-1.11-.732c-.26-.166-.544-.142-.71.118-.45.756-.973 1.091-1.71 1.091-1.112 0-1.726-.874-1.726-1.701v-.426c0-.165.094-.26.26-.26h4.68c.661 0 1.04-.378 1.04-1.04v-1.772c0-2.103-1.702-3.947-4.255-3.947zM57.492 8.68c1.086 0 1.53.716 1.999 1.505.173.272.469.296.74.124l1.16-.765c.296-.198.222-.568.148-.74-.469-1.21-1.85-2.468-4.047-2.468-2.665 0-4.441 1.925-4.441 4.12v3.16c0 2.196 1.776 4.12 4.441 4.12 2.196 0 3.578-1.258 4.047-2.467.074-.173.148-.543-.148-.74l-1.16-.765c-.271-.173-.567-.148-.74.123-.469.79-.913 1.505-1.999 1.505-1.16 0-1.801-.913-1.801-1.776v-3.16c0-.863.642-1.776 1.801-1.776M71.378 13.79c0 .827-.614 1.701-1.725 1.701-1.11 0-1.725-.874-1.725-1.701V10.41c0-.827.614-1.701 1.725-1.701 1.11 0 1.725.874 1.725 1.701v3.379zm-1.725-7.325c-2.552 0-4.254 1.843-4.254 3.946v3.379c0 2.103 1.702 3.946 4.254 3.946 2.552 0 4.254-1.843 4.254-3.946V10.41c0-2.103-1.702-3.946-4.254-3.946zM97.768 6.472c-.873 0-1.523.225-2.171.574-.1.05-.225.075-.35-.1a.504.504 0 0 0-.45-.224h-.973c-.35 0-.549.2-.549.55v9.752c0 .349.2.549.55.549h1.572c.35 0 .549-.2.549-.55v-6.382c0-.874.649-1.797 1.822-1.797s1.822.923 1.822 1.797v6.383c0 .349.2.549.55.549h1.572c.35 0 .55-.2.55-.55v-6.382c0-2.222-1.798-4.169-4.494-4.169M49.377 16.54a1.437 1.437 0 1 0-2.874-.001 1.437 1.437 0 0 0 2.874 0M88.574 8.71h-1.56c-.348 0-.546.204-.546.56V17.012c0 .357.198.562.545.562h1.56c.347 0 .546-.205.546-.562v-7.74c0-.357-.199-.561-.545-.561M88.599 7.188h-1.61c-.358 0-.563-.204-.563-.562V5.45c0-.357.205-.562.563-.562h1.61c.357 0 .562.205.562.562v1.176c0 .358-.205.562-.562.562M77.835 17.507c-.084.18-.278.225-.472.24a4.382 4.382 0 0 1-.819-.01c-.442-.055-.4-.236-.244-.635.16-.41 4.824-10.51 5.68-12.152.078-.149.335-.226.529-.24a3.82 3.82 0 0 1 .762.01c.442.054.434.26.245.634l-5.681 12.153z"/>
    </g>
</svg>
