<svg xmlns="http://www.w3.org/2000/svg" width="10" height="10" viewBox="0 0 10 10">
    <g fill="none" fill-rule="evenodd">
        <path fill="#F7F7F7" d="M-555-373h895v544h-895z"/>
        <path d="M-508-15h800v40h-800z"/>
        <path fill="#9B9B9B" d="M6.778 4.545V3.182c0-1.001-.8-1.819-1.779-1.819-.978 0-1.777.818-1.777 1.819v1.363h3.556zM9 9.317c0 .377-.3.683-.668.683H1.667A.675.675 0 0 1 1 9.317v-4.09c0-.376.299-.682.667-.682h.222V3.182C1.889 1.434 3.29 0 4.999 0c1.71 0 3.112 1.434 3.112 3.182v1.363h.221c.368 0 .668.306.668.682v4.09z"/>
    </g>
</svg>
