<?xml version="1.0" encoding="UTF-8"?>
<svg width="112px" height="113px" viewBox="0 0 112 113" version="1.1" xmlns="http://www.w3.org/2000/svg" xmlns:xlink="http://www.w3.org/1999/xlink">
    <!-- Generator: Sketch 49.3 (51167) - http://www.bohemiancoding.com/sketch -->
    <title>six club fund</title>
    <desc>Created with Sketch.</desc>
    <defs></defs>
    <g id="Page-1" stroke="none" stroke-width="1" fill="none" fill-rule="evenodd">
        <g id="1-copy-28" transform="translate(-39.000000, -20.000000)">
            <g id="Group-2" transform="translate(13.000000, 20.000000)">
                <g id="six-club-fund" transform="translate(26.000000, 0.000000)">
                    <circle id="Oval-4" fill="#FFFFFF" cx="55.5" cy="55.6848276" r="54.5"></circle>
                    <polygon id="Fill-1" fill="#231F20" points="33.0681379 54.6888276 36.4703448 54.6888276 36.4703448 42.5856552 33.0681379 42.5856552"></polygon>
                    <polygon id="Fill-2" fill="#231F20" points="18.1212414 84.4782621 21.4073103 85.3585379 26.0710345 67.9535724 22.7849655 67.0727448"></polygon>
                    <polygon id="Fill-3" fill="#231F20" points="43.4528828 67.8449103 48.1166069 85.2501517 51.4026759 84.3696 46.7392276 66.9643586"></polygon>
                    <path d="M65.7908966,51.350069 L87.5950345,51.350069 L87.5950345,42.6902069 L65.7908966,42.6902069 L65.7908966,51.350069 Z M65.7908966,39.2882759 L62.3889655,39.2882759 L62.3889655,42.6904828 L62.3889655,51.350069 L62.3889655,54.7522759 L65.7908966,54.7522759 L87.5950345,54.7522759 L90.9972414,54.7522759 L90.9972414,51.350069 L90.9972414,42.6904828 L90.9972414,39.2882759 L87.5950345,39.2882759 L65.7908966,39.2882759 Z" id="Fill-4" fill="#231F20"></path>
                    <g id="Group-22" transform="translate(0.000000, 0.184828)" fill="#231F20">
                        <path d="M55.9544828,109.111172 C28.6598621,109.111172 6.17406897,88.5382069 3.14813793,62.0535172 L68.5743448,62.0535172 L68.5743448,70.8678621 L68.5746207,70.8678621 L68.5746207,71.0226207 L87.5950345,71.0226207 L87.5950345,82.072 L68.5428966,82.072 L68.5428966,85.473931 L90.9657931,85.473931 L90.9657931,85.4424828 L90.9972414,85.4424828 L90.9972414,71.0226207 L90.9972414,67.697931 L90.9972414,67.6206897 L71.9765517,67.6206897 L71.9765517,62.0535172 L97.8157241,62.0535172 L97.8157241,58.6513103 L71.9765517,58.6513103 L68.5743448,58.6513103 L2.86537931,58.6513103 C2.82068966,57.758069 2.7977931,56.8587586 2.7977931,55.9544828 C2.7977931,26.5966897 26.5969655,2.79751724 55.9544828,2.79751724 C85.312,2.79751724 109.111172,26.5966897 109.111172,55.9544828 C109.111172,85.312 85.312,109.111172 55.9544828,109.111172 M55.9544828,0 C25.0515862,0 0,25.0515862 0,55.9544828 C0,86.8571034 25.0515862,111.908966 55.9544828,111.908966 C86.8573793,111.908966 111.90869,86.8571034 111.90869,55.9544828 C111.90869,25.0515862 86.8573793,0 55.9544828,0" id="Fill-5"></path>
                        <path d="M36.6247448,23.9777103 C35.4076414,23.1349517 35.3367448,22.7680552 35.3367448,22.1211586 C35.3367448,21.5840552 35.6917793,21.0830897 36.4117793,21.0830897 C37.172331,21.0830897 37.496469,21.4130207 37.7701241,21.8279172 L37.8206069,21.8279172 C37.8917793,21.3148138 37.9830897,20.7650207 38.064469,20.3868138 C37.5268138,20.3131586 36.888469,20.2891586 36.4826759,20.2891586 C34.3130207,20.2891586 33.988331,21.7057103 33.988331,22.4384 C33.988331,23.1837793 34.120469,23.7942621 34.7179862,24.4414345 C35.2559172,25.0157793 35.8542621,25.3214345 36.3505379,25.8097103 C36.6851586,26.1393655 36.8377103,26.4201931 36.8377103,26.8847448 C36.8377103,27.5316414 36.452331,27.8977103 35.8639172,27.8977103 C35.1946759,27.8977103 34.5864,27.556469 34.1505379,27.0557793 L34.1000552,27.0557793 C34.0691586,27.5928828 34.0184,28.1184 33.9579862,28.5578483 C34.5359172,28.6066759 35.3875034,28.6919172 35.7521931,28.6919172 C37.7806069,28.6919172 38.1861241,27.3366069 38.1861241,26.4080552 C38.1861241,25.6386759 38.1455724,25.0279172 36.6247448,23.9777103" id="Fill-8"></path>
                        <path d="M41.714869,24.1975448 C41.714869,23.733269 41.7049379,21.4245793 41.8470069,20.3619586 C41.4919724,20.3743724 41.1678345,20.3989241 40.8732138,20.3989241 C40.5794207,20.3989241 40.3156966,20.3867862 40.0014897,20.3619586 L40.0014897,20.3989241 C40.3156966,21.2295448 40.274869,23.1349241 40.274869,24.5147862 C40.274869,25.4800276 40.2652138,27.2262345 40.1231448,28.6430621 C40.5490759,28.6190621 40.7515586,28.6066483 41.0561103,28.6066483 C41.2381793,28.6066483 41.4412138,28.6190621 41.8872828,28.6430621 C41.7049379,27.1655448 41.714869,24.9669241 41.714869,24.1975448" id="Fill-10"></path>
                        <path d="M48.1127724,22.2557241 C48.4173241,21.6692414 48.8937379,20.7412414 49.1770483,20.3503448 C48.7616,20.3743448 48.7108414,20.3867586 48.4374621,20.3867586 C48.1533241,20.3867586 47.9911172,20.3867586 47.7174621,20.3503448 C47.6465655,21.265931 47.1902897,22.3655172 46.7544276,23.3177931 C46.135669,21.9376552 45.7298759,20.9122759 45.7202207,20.3503448 C45.2027034,20.3867586 45.1014621,20.3867586 44.7464276,20.3867586 C44.4018759,20.3867586 44.2192552,20.3867586 43.6209103,20.3503448 C43.6209103,20.361931 43.6313931,20.361931 43.6209103,20.3991724 C43.8438069,20.6063448 44.1180138,21.1685517 44.2901517,21.5346207 C44.5031172,21.9988966 44.807669,22.6342069 45.6689103,24.576 C45.0002207,25.9561379 44.4421517,27.0308966 44.1180138,27.6416552 C44.0264276,27.8126897 43.7425655,28.3133793 43.4893241,28.6306207 C43.9147034,28.6066207 44.0060138,28.5944828 44.2393931,28.5944828 C44.4730483,28.5944828 44.6854621,28.6066207 44.9798069,28.6306207 C44.9897379,27.9348966 45.7298759,26.3103448 46.0849103,25.4921379 C46.5511172,26.5547586 47.1902897,27.9837241 47.1902897,28.6306207 C47.7174621,28.5944828 47.9102897,28.5944828 48.2548414,28.5944828 C48.5993931,28.5944828 48.8024276,28.5944828 49.2686345,28.6306207 C48.7616,27.9348966 47.4131862,24.8204138 47.139531,24.209931 C47.615669,23.2689655 47.8082207,22.8416552 48.1127724,22.2557241" id="Fill-12"></path>
                        <path d="M57.2791172,27.8249655 C56.0010483,27.8249655 55.5251862,26.5055172 55.5251862,24.5024828 C55.5251862,22.1088276 56.1536,21.0831724 57.3094621,21.0831724 C57.9282207,21.0831724 58.5262897,21.3642759 58.8912552,21.9626207 L58.9924966,21.9626207 C59.0129103,21.2296552 59.1240828,20.7162759 59.1753931,20.4114483 C58.7894621,20.3502069 58.0496,20.2892414 57.2482207,20.2892414 C55.0278069,20.2892414 53.9938759,21.7543448 53.9938759,24.5885517 C53.9938759,27.434069 55.0581517,28.692 57.0760828,28.692 C58.191669,28.692 58.7191172,28.5455172 59.0129103,28.4233103 C59.0228414,28.0936552 59.0633931,27.6415172 59.1853241,27.1408276 L59.0633931,27.1408276 C58.7086345,27.5068966 58.2727724,27.8249655 57.2791172,27.8249655" id="Fill-14"></path>
                        <path d="M60.9799448,28.630731 C61.6389793,28.5943172 62.1964966,28.5943172 62.8254621,28.5943172 C63.6160828,28.5943172 64.1838069,28.5943172 64.8329103,28.630731 C64.8833931,28.1184552 64.9242207,27.9350069 65.0359448,27.3606621 L64.9647724,27.3606621 C64.4883586,27.7151448 63.7887724,27.8125241 63.1600828,27.8125241 C62.9269793,27.8125241 62.8050483,27.7391448 62.7341517,27.6050759 C62.5719448,27.1896276 62.6020138,24.9303172 62.6020138,24.4660414 C62.6020138,22.8169379 62.6020138,21.2417655 62.7440828,20.3501793 C62.4403586,20.3744552 62.1054621,20.386869 61.8014621,20.386869 C61.5073931,20.386869 61.243669,20.3744552 60.9598069,20.3501793 L60.9598069,20.3990069 C61.1824276,20.9849379 61.1622897,22.9515586 61.1622897,24.490869 C61.1622897,26.5303172 61.1118069,27.702731 60.9799448,28.630731" id="Fill-16"></path>
                        <path d="M66.4864,23.5621517 C66.4864,24.3560828 66.4659862,25.5287724 66.4659862,25.9682207 C66.4659862,27.6780138 66.952331,28.6918069 69.0819862,28.6918069 C71.1098483,28.6918069 71.6370207,27.5193931 71.6370207,25.9806345 C71.6370207,25.0402207 71.6670897,23.9290483 71.6875034,23.0002207 C71.6977103,22.4385655 71.6977103,21.4129103 71.9007448,20.3502897 C71.6571586,20.3742897 71.4850207,20.3867034 71.1702621,20.3867034 C70.8157793,20.3867034 70.6232276,20.3742897 70.4102621,20.3502897 C70.7040552,21.3883586 70.6739862,22.3657379 70.6739862,24.9668414 C70.6739862,26.8233931 70.5824,27.8614621 69.1934345,27.8614621 C68.6055724,27.8614621 68.1697103,27.4705655 68.0273655,26.9210483 C67.9255724,26.5301517 67.9159172,25.6021517 67.9159172,24.1729103 C67.9159172,23.5985655 67.9059862,21.4004966 68.0880552,20.3502897 C67.6927448,20.3867034 67.4494345,20.3867034 67.1451586,20.3867034 C66.8406069,20.3867034 66.5059862,20.3742897 66.2422621,20.3502897 L66.2422621,20.3867034 C66.5371586,21.0220138 66.4864,23.0002207 66.4864,23.5621517" id="Fill-18"></path>
                        <path d="M75.6318897,24.8205241 C75.8856828,24.7835586 76.149131,24.7592828 76.3416828,24.7592828 C77.1728552,24.7592828 77.5687172,25.3452138 77.5687172,26.2859034 C77.5687172,27.4583172 77.0920276,27.8003862 76.3516138,27.8003862 C76.0677517,27.8003862 75.9364414,27.7879724 75.8145103,27.6174897 C75.6826483,27.4340414 75.6625103,27.0185931 75.6520276,26.5303172 C75.6423724,26.0293517 75.6219586,25.4064552 75.6318897,24.8205241 M75.6423724,22.450869 C75.6423724,21.9253517 75.6520276,21.522869 75.6724414,21.1932138 C75.9058207,21.1559724 76.0983724,21.1435586 76.2603034,21.1435586 C77.041269,21.1435586 77.2037517,21.5956966 77.2037517,22.3408 C77.2037517,23.7697655 76.5949241,23.9529379 76.0878897,23.9529379 C76.0478897,23.9529379 75.7844414,23.9529379 75.6318897,23.9289379 C75.6318897,23.3912828 75.6423724,22.8417655 75.6423724,22.450869 M74.1918897,24.5024552 C74.1918897,25.3576276 74.1918897,27.0795586 74.0605793,28.630731 C74.5673379,28.606731 74.9728552,28.5943172 75.2873379,28.5943172 C75.5207172,28.5943172 75.9364414,28.630731 76.5648552,28.630731 C78.9678897,28.630731 79.0997517,26.8721103 79.0997517,26.2492138 C79.0997517,25.418869 78.785269,24.3802483 77.2440276,24.3074207 L77.2440276,24.2704552 C78.1974069,24.1239724 78.7342345,23.354869 78.7342345,22.1333517 C78.7342345,21.0585931 78.1974069,20.3501793 77.0820966,20.3501793 C76.6967172,20.3501793 76.0478897,20.386869 75.3786483,20.386869 C75.0947862,20.386869 74.7190621,20.386869 73.9993379,20.3501793 L73.969269,20.3990069 C74.2627862,20.9609379 74.1918897,23.4401103 74.1918897,24.5024552" id="Fill-20"></path>
                    </g>
                </g>
            </g>
        </g>
    </g>
</svg>