<svg width="190" height="90" viewBox="0 0 190 90" fill="none" xmlns="http://www.w3.org/2000/svg">
<rect width="190" height="90" fill="#28646E"/>
<path d="M84.6963 41.1504H88.5107C90.2803 41.1504 91.5576 41.4082 92.3428 41.9238C93.1338 42.4395 93.5293 43.2539 93.5293 44.3672C93.5293 45.1172 93.3359 45.7412 92.9492 46.2393C92.5625 46.7373 92.0059 47.0508 91.2793 47.1797V47.2676C92.1816 47.4375 92.8438 47.7744 93.2656 48.2783C93.6934 48.7764 93.9072 49.4531 93.9072 50.3086C93.9072 51.4629 93.5029 52.3682 92.6943 53.0244C91.8916 53.6748 90.7725 54 89.3369 54H84.6963V41.1504ZM86.7969 46.459H88.8184C89.6973 46.459 90.3389 46.3213 90.7432 46.0459C91.1475 45.7646 91.3496 45.29 91.3496 44.6221C91.3496 44.0186 91.1299 43.582 90.6904 43.3125C90.2568 43.043 89.5654 42.9082 88.6162 42.9082H86.7969V46.459ZM86.7969 48.1641V52.2334H89.0293C89.9082 52.2334 90.5703 52.0664 91.0156 51.7324C91.4668 51.3926 91.6924 50.8594 91.6924 50.1328C91.6924 49.4648 91.4639 48.9697 91.0068 48.6475C90.5498 48.3252 89.8555 48.1641 88.9238 48.1641H86.7969ZM98.4248 54H96.3594V44.2793H98.4248V54ZM96.2363 41.7041C96.2363 41.335 96.3359 41.0508 96.5352 40.8516C96.7402 40.6523 97.0303 40.5527 97.4053 40.5527C97.7686 40.5527 98.0498 40.6523 98.249 40.8516C98.4541 41.0508 98.5566 41.335 98.5566 41.7041C98.5566 42.0557 98.4541 42.334 98.249 42.5391C98.0498 42.7383 97.7686 42.8379 97.4053 42.8379C97.0303 42.8379 96.7402 42.7383 96.5352 42.5391C96.3359 42.334 96.2363 42.0557 96.2363 41.7041ZM109.596 44.2793V45.4131L107.935 45.7207C108.087 45.9258 108.213 46.1777 108.312 46.4766C108.412 46.7754 108.462 47.0918 108.462 47.4258C108.462 48.4277 108.116 49.2158 107.425 49.79C106.733 50.3643 105.781 50.6514 104.568 50.6514C104.258 50.6514 103.977 50.6279 103.725 50.5811C103.279 50.8564 103.057 51.1787 103.057 51.5479C103.057 51.7705 103.159 51.9375 103.364 52.0488C103.575 52.1602 103.959 52.2158 104.516 52.2158H106.212C107.284 52.2158 108.099 52.4443 108.655 52.9014C109.212 53.3584 109.49 54.0176 109.49 54.8789C109.49 55.9805 109.036 56.8301 108.128 57.4277C107.22 58.0254 105.907 58.3242 104.19 58.3242C102.866 58.3242 101.855 58.0898 101.158 57.6211C100.461 57.1523 100.112 56.4844 100.112 55.6172C100.112 55.0195 100.3 54.5156 100.675 54.1055C101.056 53.7012 101.586 53.4199 102.266 53.2617C101.99 53.1445 101.762 52.957 101.58 52.6992C101.404 52.4355 101.316 52.1602 101.316 51.873C101.316 51.5098 101.419 51.2021 101.624 50.9502C101.829 50.6982 102.134 50.4492 102.538 50.2031C102.034 49.9863 101.624 49.6348 101.308 49.1484C100.997 48.6562 100.842 48.082 100.842 47.4258C100.842 46.3711 101.173 45.5537 101.835 44.9736C102.503 44.3936 103.452 44.1035 104.683 44.1035C104.958 44.1035 105.245 44.124 105.544 44.165C105.849 44.2002 106.077 44.2383 106.229 44.2793H109.596ZM101.958 55.5117C101.958 55.957 102.157 56.2998 102.556 56.54C102.96 56.7803 103.525 56.9004 104.252 56.9004C105.377 56.9004 106.215 56.7393 106.766 56.417C107.316 56.0947 107.592 55.667 107.592 55.1338C107.592 54.7119 107.439 54.4102 107.135 54.2285C106.836 54.0527 106.276 53.9648 105.456 53.9648H103.892C103.3 53.9648 102.828 54.1025 102.477 54.3779C102.131 54.6592 101.958 55.0371 101.958 55.5117ZM102.846 47.4258C102.846 48.0352 103.001 48.5039 103.312 48.832C103.628 49.1602 104.079 49.3242 104.665 49.3242C105.86 49.3242 106.458 48.6855 106.458 47.4082C106.458 46.7754 106.309 46.2891 106.01 45.9492C105.717 45.6035 105.269 45.4307 104.665 45.4307C104.067 45.4307 103.613 45.6006 103.303 45.9404C102.998 46.2803 102.846 46.7754 102.846 47.4258ZM126.752 47.4521C126.752 49.5732 126.163 51.1963 124.985 52.3213C123.808 53.4404 122.111 54 119.896 54H116.302V41.1504H120.274C122.319 41.1504 123.91 41.7012 125.047 42.8027C126.184 43.9043 126.752 45.4541 126.752 47.4521ZM124.537 47.5225C124.537 44.4463 123.099 42.9082 120.222 42.9082H118.402V52.2334H119.896C122.99 52.2334 124.537 50.6631 124.537 47.5225ZM131.366 54H129.301V44.2793H131.366V54ZM129.178 41.7041C129.178 41.335 129.277 41.0508 129.477 40.8516C129.682 40.6523 129.972 40.5527 130.347 40.5527C130.71 40.5527 130.991 40.6523 131.19 40.8516C131.396 41.0508 131.498 41.335 131.498 41.7041C131.498 42.0557 131.396 42.334 131.19 42.5391C130.991 42.7383 130.71 42.8379 130.347 42.8379C129.972 42.8379 129.682 42.7383 129.477 42.5391C129.277 42.334 129.178 42.0557 129.178 41.7041ZM139.259 54.1758C138.028 54.1758 137.073 53.7334 136.394 52.8486H136.271C136.353 53.6689 136.394 54.167 136.394 54.3428V58.3242H134.328V44.2793H135.998C136.045 44.4609 136.142 44.8945 136.288 45.5801H136.394C137.038 44.5957 138.005 44.1035 139.294 44.1035C140.507 44.1035 141.45 44.543 142.124 45.4219C142.804 46.3008 143.144 47.5342 143.144 49.1221C143.144 50.71 142.798 51.9492 142.106 52.8398C141.421 53.7305 140.472 54.1758 139.259 54.1758ZM138.758 45.791C137.938 45.791 137.337 46.0312 136.956 46.5117C136.581 46.9922 136.394 47.7598 136.394 48.8145V49.1221C136.394 50.3057 136.581 51.1641 136.956 51.6973C137.331 52.2246 137.943 52.4883 138.793 52.4883C139.508 52.4883 140.059 52.1953 140.445 51.6094C140.832 51.0234 141.025 50.1885 141.025 49.1045C141.025 48.0146 140.832 47.1914 140.445 46.6348C140.064 46.0723 139.502 45.791 138.758 45.791ZM150.474 54.1758C149.243 54.1758 148.288 53.7334 147.608 52.8486H147.485C147.567 53.6689 147.608 54.167 147.608 54.3428V58.3242H145.543V44.2793H147.213C147.26 44.4609 147.356 44.8945 147.503 45.5801H147.608C148.253 44.5957 149.22 44.1035 150.509 44.1035C151.722 44.1035 152.665 44.543 153.339 45.4219C154.019 46.3008 154.358 47.5342 154.358 49.1221C154.358 50.71 154.013 51.9492 153.321 52.8398C152.636 53.7305 151.687 54.1758 150.474 54.1758ZM149.973 45.791C149.152 45.791 148.552 46.0312 148.171 46.5117C147.796 46.9922 147.608 47.7598 147.608 48.8145V49.1221C147.608 50.3057 147.796 51.1641 148.171 51.6973C148.546 52.2246 149.158 52.4883 150.008 52.4883C150.723 52.4883 151.273 52.1953 151.66 51.6094C152.047 51.0234 152.24 50.1885 152.24 49.1045C152.24 48.0146 152.047 47.1914 151.66 46.6348C151.279 46.0723 150.717 45.791 149.973 45.791ZM161.003 54.1758C159.491 54.1758 158.308 53.7363 157.452 52.8574C156.603 51.9727 156.178 50.7568 156.178 49.21C156.178 47.6221 156.573 46.374 157.364 45.4658C158.155 44.5576 159.242 44.1035 160.625 44.1035C161.908 44.1035 162.922 44.4932 163.666 45.2725C164.41 46.0518 164.782 47.124 164.782 48.4893V49.6055H158.305C158.334 50.5488 158.589 51.2754 159.069 51.7852C159.55 52.2891 160.227 52.541 161.1 52.541C161.674 52.541 162.207 52.4883 162.699 52.3828C163.197 52.2715 163.73 52.0898 164.299 51.8379V53.5166C163.795 53.7568 163.285 53.9268 162.77 54.0264C162.254 54.126 161.665 54.1758 161.003 54.1758ZM160.625 45.668C159.969 45.668 159.441 45.876 159.043 46.292C158.65 46.708 158.416 47.3145 158.34 48.1113H162.752C162.74 47.3086 162.547 46.7021 162.172 46.292C161.797 45.876 161.281 45.668 160.625 45.668ZM172.06 44.1035C172.476 44.1035 172.818 44.1328 173.088 44.1914L172.886 46.1162C172.593 46.0459 172.288 46.0107 171.972 46.0107C171.146 46.0107 170.475 46.2803 169.959 46.8193C169.449 47.3584 169.194 48.0586 169.194 48.9199V54H167.129V44.2793H168.746L169.019 45.9932H169.124C169.446 45.4131 169.865 44.9531 170.381 44.6133C170.902 44.2734 171.462 44.1035 172.06 44.1035Z" fill="white"/>
<rect x="16" y="15" width="60" height="60" fill="#28646E"/>
<path fill-rule="evenodd" clip-rule="evenodd" d="M58.1334 51.3055L69.0161 40.7676L62.5471 23.9717L44.7903 47.6411L58.1334 51.3055ZM48.3683 46.4172L61.9428 28.3227L66.5245 40.2184L57.5258 48.9321L48.3683 46.4172Z" fill="white"/>
<path d="M45.908 46.2031L39.9961 51.0111L31.7152 51.2846L23.3486 63.2481L25.0923 64.4675L32.849 53.3761L40.7827 53.114L47.2505 47.8539L45.908 46.2031Z" fill="white"/>
<path fill-rule="evenodd" clip-rule="evenodd" d="M27.1435 63.866C27.1435 62.2513 25.8346 60.9424 24.22 60.9424C22.6053 60.9424 21.2964 62.2513 21.2964 63.866C21.2964 65.4806 22.6053 66.7895 24.22 66.7895C25.8346 66.7895 27.1435 65.4806 27.1435 63.866ZM23.956 63.866C23.956 63.7202 24.0742 63.602 24.22 63.602C24.3657 63.602 24.4839 63.7202 24.4839 63.866C24.4839 64.0117 24.3657 64.1299 24.22 64.1299C24.0742 64.1299 23.956 64.0117 23.956 63.866Z" fill="white"/>
<path fill-rule="evenodd" clip-rule="evenodd" d="M35.2178 52.3191C35.2178 50.7044 33.9088 49.3955 32.2942 49.3955C30.6795 49.3955 29.3706 50.7044 29.3706 52.3191C29.3706 53.9337 30.6795 55.2427 32.2942 55.2427C33.9088 55.2427 35.2178 53.9337 35.2178 52.3191ZM32.0303 52.3191C32.0303 52.1733 32.1484 52.0552 32.2942 52.0552C32.4399 52.0552 32.5581 52.1733 32.5581 52.3191C32.5581 52.4648 32.4399 52.583 32.2942 52.583C32.1484 52.583 32.0303 52.4648 32.0303 52.3191Z" fill="white"/>
<path fill-rule="evenodd" clip-rule="evenodd" d="M43.313 52.0613C43.313 50.4466 42.004 49.1377 40.3894 49.1377C38.7748 49.1377 37.4658 50.4466 37.4658 52.0613C37.4658 53.6759 38.7748 54.9849 40.3894 54.9849C42.004 54.9849 43.313 53.6759 43.313 52.0613ZM40.1255 52.0613C40.1255 51.9155 40.2436 51.7974 40.3894 51.7974C40.5352 51.7974 40.6533 51.9155 40.6533 52.0613C40.6533 52.207 40.5352 52.3252 40.3894 52.3252C40.2436 52.3252 40.1255 52.207 40.1255 52.0613Z" fill="white"/>
<path fill-rule="evenodd" clip-rule="evenodd" d="M49.5068 47.0505C49.5068 45.4359 48.1979 44.127 46.5832 44.127C44.9686 44.127 43.6597 45.4359 43.6597 47.0505C43.6597 48.6652 44.9686 49.9741 46.5832 49.9741C48.1979 49.9741 49.5068 48.6652 49.5068 47.0505ZM46.3193 47.0505C46.3193 46.9048 46.4375 46.7866 46.5832 46.7866C46.729 46.7866 46.8472 46.9048 46.8472 47.0505C46.8472 47.1963 46.729 47.3145 46.5832 47.3145C46.4375 47.3145 46.3193 47.1963 46.3193 47.0505Z" fill="white"/>
<path fill-rule="evenodd" clip-rule="evenodd" d="M60.7663 50.1091C60.7663 48.4945 59.4574 47.1855 57.8428 47.1855C56.2281 47.1855 54.9192 48.4945 54.9192 50.1091C54.9192 51.7238 56.2281 53.0327 57.8428 53.0327C59.4574 53.0327 60.7663 51.7238 60.7663 50.1091ZM57.5788 50.1091C57.5788 49.9634 57.697 49.8452 57.8428 49.8452C57.9885 49.8452 58.1067 49.9634 58.1067 50.1091C58.1067 50.2549 57.9885 50.373 57.8428 50.373C57.697 50.373 57.5788 50.2549 57.5788 50.1091Z" fill="white"/>
<path fill-rule="evenodd" clip-rule="evenodd" d="M70.7082 40.4851C70.7082 38.8705 69.3993 37.5615 67.7847 37.5615C66.17 37.5615 64.8611 38.8705 64.8611 40.4851C64.8611 42.0998 66.17 43.4087 67.7847 43.4087C69.3993 43.4087 70.7082 42.0998 70.7082 40.4851ZM67.5207 40.4851C67.5207 40.3393 67.6389 40.2212 67.7847 40.2212C67.9304 40.2212 68.0486 40.3393 68.0486 40.4851C68.0486 40.6309 67.9304 40.749 67.7847 40.749C67.6389 40.749 67.5207 40.6309 67.5207 40.4851Z" fill="white"/>
<path fill-rule="evenodd" clip-rule="evenodd" d="M65.1704 26.1599C65.1704 24.5453 63.8615 23.2363 62.2468 23.2363C60.6322 23.2363 59.3232 24.5453 59.3232 26.1599C59.3232 27.7746 60.6322 29.0835 62.2468 29.0835C63.8615 29.0835 65.1704 27.7746 65.1704 26.1599ZM61.9829 26.1599C61.9829 26.0141 62.1011 25.896 62.2468 25.896C62.3926 25.896 62.5107 26.0141 62.5107 26.1599C62.5107 26.3057 62.3926 26.4238 62.2468 26.4238C62.1011 26.4238 61.9829 26.3057 61.9829 26.1599Z" fill="white"/>
<path d="M44.0054 24.2441L44.6215 25.4922L45.999 25.6926L45.0023 26.6641L45.2376 28.036L44.0054 27.3883L42.7731 28.036L43.0087 26.6641L42.0117 25.6926L43.3893 25.4922L44.0054 24.2441Z" fill="white"/>
<path d="M29.3617 32.9932L31.4494 35.3867L34.605 35.0237L32.9737 37.7492L34.2941 40.6382L31.198 39.9289L28.8584 42.0775L28.5763 38.9135L25.8101 37.3525L28.7315 36.1063L29.3617 32.9932Z" fill="white"/>
<path d="M58.7401 58.5596L58.7243 61.1887L60.8814 62.6922L58.3759 63.4896L57.6127 66.0057L56.0799 63.8693L53.4514 63.9209L55.0094 61.8033L54.1481 59.3189L56.6436 60.1463L58.7401 58.5596Z" fill="white"/>
</svg>
