<svg xmlns="http://www.w3.org/2000/svg" viewBox="0 0 190 90">
  <rect width="190" height="90" style="fill: #fff"/>
  <path d="M41.1,56.73a1.21,1.21,0,1,1-1.2,1.2,1.21,1.21,0,0,1,1.2-1.2M60,49.29a1.21,1.21,0,1,1,1.2-1.21A1.21,1.21,0,0,1,60,49.29m0-4.93a3.73,3.73,0,0,0-3.73,3.72,3.5,3.5,0,0,0,.2,1.19L44.17,55.81a3.73,3.73,0,0,0-6.41.48L26.69,50.47c-1.17-.62-2-2.54-2-4.29a2.26,2.26,0,0,1,.84-1.89,1.08,1.08,0,0,1,1.07,0l.07,0c2.93,1.54,12.53,6.59,12.94,6.78a1.89,1.89,0,0,0,2-.1l19.84-10.3a.91.91,0,0,0,.63-.81,1,1,0,0,0-.61-.82L57,37c-3.62-1.69-7.72-3.61-9.52-4.55a3.11,3.11,0,0,0-3,0l-.43.22c-8.1,4-18.94,9.36-19.56,9.73a4.43,4.43,0,0,0-1.88,3.67c-.14,2.63,1.21,5.38,3.13,6.38l11.71,6A3.72,3.72,0,0,0,44.83,58l12.89-7A3.73,3.73,0,1,0,60,44.36" style="fill: #3681fc;fill-rule: evenodd"/>
  <path d="M88.33,54.3a7.44,7.44,0,0,1-3.06,1.87,13.24,13.24,0,0,1-4.41.7A7.87,7.87,0,0,1,75,54.62a9.09,9.09,0,0,1-2.36-6.27l0-1.62a11.24,11.24,0,0,1,1-4.84,7.27,7.27,0,0,1,2.81-3.18A8,8,0,0,1,80.6,37.6a8.31,8.31,0,0,1,5.45,1.6A6.78,6.78,0,0,1,88.32,44H84a3.59,3.59,0,0,0-1-2.24,3.29,3.29,0,0,0-2.19-.67,3,3,0,0,0-2.63,1.45,7.67,7.67,0,0,0-.95,4.12v1.13a7.46,7.46,0,0,0,1,4.22,3.39,3.39,0,0,0,3,1.41,3.76,3.76,0,0,0,2.63-.79V49.7H80.65V46.6h7.68Z" style="fill-rule: evenodd"/>
  <path d="M91,56.62h4.36V42.68H91Zm-.26-17.54a2,2,0,0,1,.67-1.53,2.82,2.82,0,0,1,3.48,0,2.08,2.08,0,0,1,0,3.06,2.86,2.86,0,0,1-3.48,0,2,2,0,0,1-.67-1.53Z" style="fill-rule: evenodd"/>
  <path d="M103.09,39.22v3.46h2.29v3h-2.29v6.37a1.65,1.65,0,0,0,.28,1.1,1.55,1.55,0,0,0,1.12.3,6.79,6.79,0,0,0,1.09-.07v3.1a8.05,8.05,0,0,1-2.46.37,4.57,4.57,0,0,1-3.31-1,4.35,4.35,0,0,1-1.07-3.21V45.7H97v-3h1.78V39.22Z" style="fill-rule: evenodd"/>
  <path d="M111.82,48.65v4.49h3a2.85,2.85,0,0,0,1.88-.56,2,2,0,0,0,.66-1.58A2.08,2.08,0,0,0,115,48.65Zm0-3h2.36a3.24,3.24,0,0,0,2.11-.54,1.89,1.89,0,0,0,.64-1.56,2,2,0,0,0-.69-1.71,3.63,3.63,0,0,0-2.2-.52h-2.22Zm-4.53,10.94V37.87H114a9.6,9.6,0,0,1,5.51,1.32,4.9,4.9,0,0,1,1.22,6.34,3.91,3.91,0,0,1-2,1.52,4,4,0,0,1,2.25,1.44,4.17,4.17,0,0,1,.79,2.58,5,5,0,0,1-1.75,4.14,8.35,8.35,0,0,1-5.18,1.41Z" style="fill-rule: evenodd"/>
  <path d="M127.93,49.79a5.1,5.1,0,0,0,.61,2.83,2,2,0,0,0,1.79.91q2.32,0,2.37-3.57v-.44q0-3.75-2.4-3.75c-1.45,0-2.24,1.08-2.36,3.24Zm-4.35-.27a8.07,8.07,0,0,1,.82-3.71,5.84,5.84,0,0,1,2.33-2.51,7.1,7.1,0,0,1,3.57-.87,6.42,6.42,0,0,1,4.94,1.93,7.42,7.42,0,0,1,1.81,5.28v.15A7.19,7.19,0,0,1,135.24,55a6.43,6.43,0,0,1-4.91,1.91,6.52,6.52,0,0,1-4.79-1.78,7,7,0,0,1-1.94-4.83Z" style="fill-rule: evenodd"/>
  <path d="M142.76,49.79a5.19,5.19,0,0,0,.61,2.83,2,2,0,0,0,1.79.91c1.55,0,2.34-1.19,2.38-3.57v-.44q0-3.75-2.4-3.75c-1.46,0-2.24,1.08-2.36,3.24Zm-4.34-.27a8.2,8.2,0,0,1,.81-3.71,5.84,5.84,0,0,1,2.33-2.51,7.11,7.11,0,0,1,3.58-.87,6.43,6.43,0,0,1,4.94,1.93,7.46,7.46,0,0,1,1.8,5.28v.15A7.19,7.19,0,0,1,150.07,55a6.42,6.42,0,0,1-4.91,1.91,6.5,6.5,0,0,1-4.78-1.78,6.92,6.92,0,0,1-1.95-4.83Z" style="fill-rule: evenodd"/>
  <polygon points="159.4 51.43 158.18 52.65 158.18 56.62 153.83 56.62 153.83 36.83 158.18 36.83 158.18 47.33 158.62 46.75 161.89 42.68 167.1 42.68 162.22 48.41 167.43 56.62 162.45 56.62 159.4 51.43" style="fill-rule: evenodd"/>
</svg>
