<svg width="190" height="90" viewBox="0 0 190 90" fill="none" xmlns="http://www.w3.org/2000/svg">
<rect width="190" height="90" fill="#100E0F"/>
<path fill-rule="evenodd" clip-rule="evenodd" d="M90.5682 46.2933H83.8884C83.7162 46.2933 83.5763 46.4332 83.5763 46.6056V49.8714C83.5763 50.0437 83.7162 50.1841 83.8884 50.1841H86.4943V54.2415C86.4943 54.2415 85.9092 54.441 84.2918 54.441C82.383 54.441 79.7173 53.7436 79.7173 47.8812C79.7173 42.0177 82.4932 41.2464 85.0995 41.2464C87.3554 41.2464 88.3275 41.6434 88.9457 41.835C89.1401 41.8943 89.32 41.7008 89.32 41.5284L90.065 38.373C90.065 38.2922 90.0377 38.1953 89.9459 38.1294C89.6945 37.9499 88.1625 37.0928 84.2918 37.0928C79.8325 37.0928 75.2583 38.9898 75.2583 48.1098C75.2583 57.2303 80.4953 58.5893 84.9084 58.5893C88.5624 58.5893 90.779 57.0279 90.779 57.0279C90.8703 56.9774 90.88 56.8496 90.88 56.7911V46.6056C90.88 46.4332 90.7403 46.2933 90.5682 46.2933Z" fill="#FEFEFE"/>
<path fill-rule="evenodd" clip-rule="evenodd" d="M124.992 38.1861C124.992 38.0122 124.854 37.8721 124.682 37.8721H120.921C120.749 37.8721 120.61 38.0122 120.61 38.1861C120.61 38.1868 120.61 45.4543 120.61 45.4543H114.748V38.1861C114.748 38.0122 114.61 37.8721 114.438 37.8721H110.677C110.505 37.8721 110.366 38.0122 110.366 38.1861V57.8666C110.366 58.0402 110.505 58.1815 110.677 58.1815H114.438C114.61 58.1815 114.748 58.0402 114.748 57.8666V49.4483H120.61C120.61 49.4483 120.6 57.8659 120.6 57.8666C120.6 58.0402 120.74 58.1815 120.912 58.1815H124.682C124.854 58.1815 124.992 58.0402 124.992 57.8666V38.1861Z" fill="#FEFEFE"/>
<path fill-rule="evenodd" clip-rule="evenodd" d="M97.6653 40.7679C97.6653 39.4137 96.5795 38.3193 95.2399 38.3193C93.9016 38.3193 92.8152 39.4137 92.8152 40.7679C92.8152 42.1209 93.9016 43.2184 95.2399 43.2184C96.5795 43.2184 97.6653 42.1209 97.6653 40.7679Z" fill="#FEFEFE"/>
<path fill-rule="evenodd" clip-rule="evenodd" d="M97.3965 53.7145V44.63C97.3965 44.4574 97.2572 44.3164 97.0853 44.3164H93.3362C93.1641 44.3164 93.0103 44.4938 93.0103 44.6662V57.6818C93.0103 58.0643 93.2486 58.1781 93.5571 58.1781H96.935C97.3058 58.1781 97.3965 57.9959 97.3965 57.6756V53.7145Z" fill="#FEFEFE"/>
<path fill-rule="evenodd" clip-rule="evenodd" d="M139.286 44.3457H135.553C135.382 44.3457 135.243 44.4869 135.243 44.6606V54.3103C135.243 54.3103 134.295 55.0041 132.949 55.0041C131.603 55.0041 131.246 54.3935 131.246 53.076V44.6606C131.246 44.4869 131.107 44.3457 130.936 44.3457H127.148C126.977 44.3457 126.837 44.4869 126.837 44.6606V53.7129C126.837 57.627 129.018 58.5846 132.019 58.5846C134.481 58.5846 136.466 57.2243 136.466 57.2243C136.466 57.2243 136.56 57.9411 136.603 58.026C136.646 58.1108 136.757 58.1966 136.878 58.1966L139.287 58.1858C139.458 58.1858 139.598 58.0446 139.598 57.8716L139.597 44.6606C139.597 44.4869 139.457 44.3457 139.286 44.3457Z" fill="#FEFEFE"/>
<mask id="mask0" mask-type="alpha" maskUnits="userSpaceOnUse" x="141" y="37" width="14" height="22">
<path fill-rule="evenodd" clip-rule="evenodd" d="M141.532 37.8721H154.747V58.5683H141.532V37.8721Z" fill="white"/>
</mask>
<g mask="url(#mask0)">
<path fill-rule="evenodd" clip-rule="evenodd" d="M148.014 54.993C146.72 54.9534 145.842 54.366 145.842 54.366V48.1337C145.842 48.1337 146.708 47.6027 147.771 47.5078C149.115 47.3873 150.41 47.7934 150.41 50.9994C150.41 54.3803 149.825 55.0475 148.014 54.993ZM149.486 43.9044C147.367 43.9044 145.925 44.8501 145.925 44.8501V38.1861C145.925 38.0122 145.786 37.8721 145.615 37.8721H141.843C141.671 37.8721 141.532 38.0122 141.532 38.1861V57.8666C141.532 58.0402 141.671 58.1813 141.843 58.1813H144.46C144.578 58.1813 144.667 58.1206 144.733 58.0142C144.798 57.9085 144.892 57.1067 144.892 57.1067C144.892 57.1067 146.434 58.5683 149.354 58.5683C152.781 58.5683 154.747 56.8298 154.747 50.7634C154.747 44.6971 151.608 43.9044 149.486 43.9044Z" fill="#FEFEFE"/>
</g>
<path fill-rule="evenodd" clip-rule="evenodd" d="M108.206 44.3148H105.385C105.385 44.3148 105.38 40.5885 105.38 40.5876C105.38 40.4466 105.308 40.376 105.145 40.376H101.3C101.151 40.376 101.07 40.4417 101.07 40.5856V44.4371C101.07 44.4371 99.1436 44.9021 99.0134 44.9396C98.8839 44.9774 98.7881 45.097 98.7881 45.2395V47.6601C98.7881 47.834 98.9271 47.9745 99.099 47.9745H101.07V53.7972C101.07 58.1219 104.104 58.5467 106.151 58.5467C107.086 58.5467 108.205 58.2463 108.39 58.1781C108.502 58.1371 108.567 58.0212 108.567 57.8959L108.57 55.2335C108.57 55.0598 108.423 54.9192 108.258 54.9192C108.093 54.9192 107.673 54.9861 107.24 54.9861C105.854 54.9861 105.385 54.3419 105.385 53.5077C105.385 52.6743 105.384 47.9745 105.384 47.9745H108.206C108.378 47.9745 108.517 47.834 108.517 47.6601V44.6284C108.517 44.4548 108.378 44.3148 108.206 44.3148Z" fill="#FEFEFE"/>
<mask id="mask1" mask-type="alpha" maskUnits="userSpaceOnUse" x="35" y="30" width="33" height="32">
<path fill-rule="evenodd" clip-rule="evenodd" d="M35.0002 30.2207H67.5484V61.9654H35.0002V30.2207Z" fill="white"/>
</mask>
<g mask="url(#mask1)">
<path fill-rule="evenodd" clip-rule="evenodd" d="M51.2743 30.2207C42.2874 30.2207 35.0002 37.5068 35.0002 46.495C35.0002 53.6853 39.6632 59.7856 46.1296 61.9376C46.9426 62.0881 47.2415 61.5842 47.2415 61.1546C47.2415 60.7666 47.2262 59.4846 47.2192 58.1245C42.6917 59.109 41.7364 56.2045 41.7364 56.2045C40.9962 54.3235 39.9296 53.8232 39.9296 53.8232C38.4527 52.8131 40.0408 52.8339 40.0408 52.8339C41.6748 52.9486 42.5355 54.5111 42.5355 54.5111C43.9869 56.999 46.3426 56.2797 47.2713 55.8637C47.4173 54.8124 47.8391 54.094 48.3045 53.6877C44.6898 53.2764 40.8898 51.8805 40.8898 45.6449C40.8898 43.8682 41.5256 42.4165 42.5668 41.2768C42.3978 40.8666 41.8407 39.2114 42.7244 36.9698C42.7244 36.9698 44.0911 36.5326 47.2009 38.6382C48.4992 38.2776 49.8913 38.0967 51.2743 38.0903C52.6574 38.0967 54.0506 38.2776 55.3514 38.6382C58.4576 36.5326 59.8221 36.9698 59.8221 36.9698C60.7079 39.2114 60.1509 40.8666 59.9819 41.2768C61.0255 42.4165 61.6567 43.8682 61.6567 45.6449C61.6567 51.8957 57.8496 53.2717 54.2256 53.6747C54.8093 54.1797 55.3293 55.1701 55.3293 56.6885C55.3293 58.866 55.3108 60.6185 55.3108 61.1546C55.3108 61.5878 55.6036 62.0954 56.4283 61.9354C62.8914 59.781 67.5484 53.6829 67.5484 46.495C67.5484 37.5068 60.2621 30.2207 51.2743 30.2207Z" fill="#FEFEFE"/>
</g>
<path fill-rule="evenodd" clip-rule="evenodd" d="M41.1639 53.5863C41.1281 53.6673 41.0008 53.6916 40.8849 53.6362C40.7669 53.5828 40.7007 53.4725 40.7388 53.3915C40.7737 53.3083 40.9015 53.2853 41.0193 53.3409C41.1374 53.3939 41.2049 53.5054 41.1639 53.5863Z" fill="#FEFEFE"/>
<path fill-rule="evenodd" clip-rule="evenodd" d="M41.8232 54.3224C41.7455 54.3941 41.5937 54.3608 41.4908 54.2471C41.3842 54.1337 41.3646 53.9819 41.4431 53.9088C41.5233 53.8371 41.6705 53.8706 41.7768 53.9843C41.8834 54.0988 41.9042 54.2496 41.8232 54.3224Z" fill="#FEFEFE"/>
<path fill-rule="evenodd" clip-rule="evenodd" d="M42.4648 55.2587C42.365 55.3282 42.202 55.2633 42.1013 55.1183C42.0013 54.9738 42.0013 54.8001 42.1035 54.7306C42.2042 54.6611 42.365 54.7237 42.4672 54.8672C42.5668 55.0144 42.5668 55.1881 42.4648 55.2587Z" fill="#FEFEFE"/>
<path fill-rule="evenodd" clip-rule="evenodd" d="M43.344 56.1649C43.2548 56.2633 43.0646 56.2368 42.9257 56.1027C42.7834 55.9716 42.7439 55.7851 42.8333 55.6869C42.9238 55.5884 43.1147 55.616 43.2548 55.7491C43.396 55.8802 43.4391 56.0676 43.344 56.1649Z" fill="#FEFEFE"/>
<path fill-rule="evenodd" clip-rule="evenodd" d="M44.5564 56.6905C44.5169 56.8178 44.334 56.8758 44.1497 56.8215C43.9656 56.7657 43.8454 56.6165 43.8824 56.4879C43.9206 56.3594 44.1045 56.2992 44.2901 56.357C44.4741 56.4126 44.5946 56.5607 44.5564 56.6905Z" fill="#FEFEFE"/>
<path fill-rule="evenodd" clip-rule="evenodd" d="M45.8883 56.7881C45.893 56.9223 45.7367 57.0335 45.5432 57.036C45.3487 57.0406 45.191 56.9318 45.189 56.7998C45.189 56.6641 45.3417 56.554 45.5361 56.5509C45.7297 56.5469 45.8883 56.6548 45.8883 56.7881Z" fill="#FEFEFE"/>
<path fill-rule="evenodd" clip-rule="evenodd" d="M47.1279 56.5768C47.1508 56.7077 47.0164 56.8421 46.8244 56.8778C46.6355 56.9125 46.4607 56.8315 46.4364 56.7017C46.4131 56.5675 46.5499 56.4331 46.7386 56.3983C46.9308 56.3649 47.1034 56.4435 47.1279 56.5768Z" fill="#FEFEFE"/>
</svg>
