<svg width="190" height="90" viewBox="0 0 190 90" fill="none" xmlns="http://www.w3.org/2000/svg">
<rect width="190" height="90" fill="url(#paint0_linear)"/>
<path d="M121.238 32.4086L122.41 31.7119C122.41 31.7119 122.828 33.3044 124 34.3992C123.498 34.9963 123.079 35.3945 123.079 35.3945C123.079 35.3945 121.74 34.1006 121.238 32.4086Z" fill="white"/>
<path d="M119.801 29.8701C119.442 33.165 117.556 34.231 117.556 34.231C117.556 34.231 118.005 34.9094 118.364 35.3939C119.532 34.6187 120.879 33.0681 121.238 30.2578L119.801 29.8701Z" fill="white"/>
<path d="M112.952 32.428C113.321 33.3486 113.689 34.2692 114.702 35.3945C114.702 35.3945 115.438 34.5761 115.714 34.2692C114.978 33.6555 114.517 32.7348 114.149 31.7119C113.965 31.9165 113.229 32.3257 112.952 32.428Z" fill="white"/>
<path d="M110.19 34.231C110.37 34.5217 110.729 35.1032 110.999 35.3939C111.987 34.7156 113.424 33.2619 113.873 30.2578C113.604 30.1608 112.795 29.8701 112.526 29.8701C112.256 32.099 111.268 33.6496 110.19 34.231Z" fill="white"/>
<path d="M123.079 28.6923C122.799 27.7024 122.799 27.5044 122.612 27.1084C120.838 27.6034 115.421 28.4943 110.19 28.2963C110.19 28.2963 110.284 29.1873 110.377 29.7812C112.058 29.8802 113.926 29.8802 115.794 29.7812V36.3147H117.382V29.5832C119.81 29.3852 121.959 29.0883 123.079 28.6923Z" fill="white"/>
<path fill-rule="evenodd" clip-rule="evenodd" d="M111.206 27.1081L111.111 22.5049H123.079L122.889 27.1081H111.206ZM112.536 25.676H114.626V23.937H112.536V25.676ZM118.14 25.676H116.05V23.937H118.14V25.676ZM119.565 25.676H121.655V23.937H119.565V25.676Z" fill="white"/>
<path d="M66 61.4787L68.2123 69.4575C69.0779 69.1656 86.4876 63.2301 104.667 67.2195V58.7542C99.8574 57.8785 95.2405 57.4893 90.9121 57.4893C78.3118 57.4893 68.6932 60.5056 66 61.4787Z" fill="white"/>
<path d="M92.6985 36.9071C99.1914 55.2712 111.596 66.931 114.503 69.4572L120.318 63.433C119.639 62.85 105.781 50.6073 100.064 32.6318C98.7068 33.4092 92.6985 36.9071 92.6985 36.9071Z" fill="white"/>
<path d="M72.4443 54.0737C73.8198 54.8622 79.9113 58.4101 79.9113 58.4101C92.6837 43.4299 96.5155 26.4787 97.3015 22.7337L89.1468 20.6641C88.9503 21.551 85.2168 39.9806 72.4443 54.0737Z" fill="white"/>
<defs>
<linearGradient id="paint0_linear" x1="-131.405" y1="37.5137" x2="-57.8202" y2="213.837" gradientUnits="userSpaceOnUse">
<stop stop-color="#FFB10D"/>
<stop offset="1" stop-color="#F30071"/>
</linearGradient>
</defs>
</svg>
