<svg width="190" height="90" viewBox="0 0 190 90" fill="none" xmlns="http://www.w3.org/2000/svg">
<rect width="190" height="90" fill="white"/>
<path fill-rule="evenodd" clip-rule="evenodd" d="M51 60.8066V64.3681H124.352L114.277 81.7718L138.033 64.3681V60.8066H51Z" fill="#F29100"/>
<path fill-rule="evenodd" clip-rule="evenodd" d="M51 43.5322V45.4165C51.4915 45.0428 52.1029 44.8182 52.7681 44.8182C54.1602 44.8182 55.323 45.7905 55.6202 47.0927H88.2784C88.6167 45.8494 89.7502 44.9344 91.1002 44.9344C92.4505 44.9344 93.5844 45.8494 93.9224 47.0927H138.033V43.5322H51Z" fill="#F29100"/>
<path fill-rule="evenodd" clip-rule="evenodd" d="M89.6443 50.2842V58.1437H92.5018V50.3182C92.0884 50.5548 91.6117 50.6925 91.1013 50.6925C90.5681 50.6925 90.0712 50.5417 89.6443 50.2842Z" fill="#E95A0C"/>
<path fill-rule="evenodd" clip-rule="evenodd" d="M51.4053 50.3415V58.1438H54.2631V50.2617C53.8288 50.5327 53.3178 50.6926 52.7691 50.6926C52.2745 50.6926 51.8099 50.5647 51.4053 50.3415Z" fill="#E95A0C"/>
<path fill-rule="evenodd" clip-rule="evenodd" d="M61.2789 50.1028C60.9782 49.8988 60.5918 49.7998 60.1181 49.7998C59.7397 49.7998 59.4071 49.8742 59.1172 50.0267C58.8284 50.1772 58.5843 50.4041 58.3833 50.7071L58.4358 49.954H55.6025V58.1438H58.3833V52.5957C58.3833 51.9769 58.4082 51.5969 58.4564 51.4534C58.5055 51.3131 58.6257 51.2414 58.8162 51.2414C58.9967 51.2414 59.1085 51.303 59.1472 51.4255C59.1879 51.5497 59.2084 51.8941 59.2084 52.4594V58.1438H61.9889V52.3988C61.9889 51.6824 61.9454 51.1717 61.8596 50.865C61.7734 50.5583 61.5788 50.3048 61.2789 50.1028Z" fill="#E95A0C"/>
<path fill-rule="evenodd" clip-rule="evenodd" d="M72.46 50.1082C72.151 49.9025 71.7604 49.7998 71.2895 49.7998C70.9313 49.7998 70.6074 49.8759 70.3138 50.0321C70.0206 50.1863 69.7577 50.4189 69.5247 50.7296C69.0999 50.1092 68.5175 49.7998 67.7788 49.7998C67.3998 49.7998 67.0628 49.8759 66.7652 50.0321C66.4686 50.1863 66.2141 50.4189 65.9993 50.7296L66.0505 49.954H63.3215V58.1438H65.9993V52.4523C65.9993 52.0581 66.0037 51.7985 66.0138 51.677C66.0215 51.5561 66.0707 51.4518 66.1568 51.3683C66.2437 51.2821 66.3497 51.2414 66.4733 51.2414C66.6719 51.2414 66.7914 51.3222 66.8355 51.4827C66.8776 51.6433 66.9005 52.1257 66.9005 52.9297V58.1438H69.5793V52.7937C69.5793 52.0887 69.6085 51.6541 69.6658 51.4881C69.7247 51.3228 69.853 51.2414 70.0529 51.2414C70.2482 51.2414 70.3731 51.3238 70.4259 51.4918C70.4788 51.6595 70.5064 52.0924 70.5064 52.7937V58.1438H73.1838V52.319C73.1838 51.6474 73.1411 51.1622 73.0545 50.865C72.9667 50.5654 72.7704 50.3142 72.46 50.1082Z" fill="#E95A0C"/>
<path fill-rule="evenodd" clip-rule="evenodd" d="M77.9734 52.8647H77.1748V52.2587C77.1748 51.7931 77.1981 51.5073 77.2428 51.4006C77.2873 51.2949 77.4041 51.2417 77.5943 51.2417C77.7468 51.2417 77.8478 51.3033 77.8983 51.4292C77.9488 51.5531 77.9734 51.8292 77.9734 52.2587V52.8647ZM79.3856 50.1984C78.88 49.9331 78.2377 49.7998 77.4613 49.7998C76.824 49.7998 76.2622 49.9102 75.772 50.1294C75.2822 50.3506 74.9297 50.6667 74.7152 51.0825C74.5015 51.4959 74.3931 52.0621 74.3931 52.7785V55.1708C74.3931 55.7805 74.4412 56.2434 74.5372 56.5632C74.6328 56.8837 74.8055 57.1759 75.0546 57.4425C75.3044 57.7075 75.6542 57.9169 76.1019 58.0694C76.5497 58.2219 77.0668 58.298 77.6532 58.298C78.2568 58.298 78.7588 58.2209 79.1587 58.0667C79.5594 57.9135 79.8889 57.6832 80.1499 57.3752C80.4111 57.0678 80.5767 56.7793 80.6474 56.508C80.7178 56.238 80.7541 55.8512 80.7541 55.3458V54.7436H78.1279V55.8222C78.1279 56.2286 78.0922 56.5009 78.0222 56.6433C77.9512 56.7847 77.8118 56.8554 77.6037 56.8554C77.4361 56.8554 77.3223 56.8022 77.2627 56.6941C77.2038 56.5881 77.1748 56.3484 77.1748 55.9764V54.2029H80.7541V53.1132C80.7541 52.3156 80.6531 51.6979 80.4491 51.2579C80.2451 50.8182 79.8906 50.465 79.3856 50.1984Z" fill="#E95A0C"/>
<path fill-rule="evenodd" clip-rule="evenodd" d="M85.5265 55.8133C85.5265 56.2715 85.4982 56.56 85.441 56.6768C85.3817 56.7967 85.2656 56.8549 85.0918 56.8549C84.9397 56.8549 84.8373 56.8014 84.7838 56.696C84.7303 56.5917 84.7033 56.3711 84.7033 56.0348V52.0037C84.7033 51.6809 84.732 51.4732 84.7875 51.3796C84.8427 51.2877 84.9511 51.2409 85.111 51.2409C85.2773 51.2409 85.3874 51.2914 85.4426 51.3957C85.4989 51.4994 85.5265 51.7018 85.5265 52.0037V55.8133ZM85.5265 50.4679C85.2945 50.244 85.0349 50.0774 84.7508 49.9666C84.4653 49.8545 84.1526 49.7993 83.8115 49.7993C83.3675 49.7993 82.9857 49.898 82.6683 50.0979C82.3488 50.2982 82.1434 50.5285 82.0552 50.7935C81.9663 51.0567 81.9209 51.5048 81.9209 52.1354V55.9732C81.9209 56.5779 81.9663 57.0162 82.0552 57.2838C82.1434 57.5515 82.3461 57.7875 82.6602 57.9915C82.9746 58.1958 83.346 58.2971 83.7752 58.2971C84.0957 58.2971 84.4 58.2345 84.6919 58.1103C84.9848 57.9861 85.2619 57.7992 85.5265 57.5508V58.143H88.3082V48.1504H85.5265V50.4679Z" fill="#E95A0C"/>
<path fill-rule="evenodd" clip-rule="evenodd" d="M97.1904 55.94C97.1904 56.3555 97.1621 56.6113 97.1109 56.7086C97.0581 56.8066 96.945 56.8554 96.7729 56.8554C96.5888 56.8554 96.4679 56.7938 96.4053 56.6686C96.3447 56.5443 96.3137 56.2686 96.3137 55.8421C96.3137 55.4701 96.3481 55.1836 96.4184 54.9839C96.4895 54.785 96.7467 54.5392 97.1904 54.2446V55.94ZM98.9676 50.2452C98.4909 49.9473 97.7836 49.7998 96.8453 49.7998C96.0619 49.7998 95.4263 49.9314 94.9358 50.194C94.4443 50.457 94.1187 50.7599 93.9565 51.1053C93.7942 51.4484 93.7124 51.9382 93.7124 52.5715V53.1212H96.3137V52.2584C96.3137 51.7999 96.3376 51.5147 96.3831 51.4043C96.4295 51.2959 96.5447 51.2414 96.7322 51.2414C96.8951 51.2414 97.0123 51.307 97.0833 51.4366C97.155 51.5662 97.1904 51.8477 97.1904 52.2786C97.1904 52.6213 97.156 52.8492 97.0931 52.9596C97.0291 53.0724 96.5433 53.2882 95.6327 53.6094C94.7816 53.907 94.2504 54.1665 94.0346 54.3887C93.8205 54.6119 93.7124 55.0294 93.7124 55.6455V56.3201C93.7124 57.1466 93.9144 57.6846 94.3194 57.9303C94.7244 58.1747 95.1705 58.298 95.6549 58.298C96.0245 58.298 96.3434 58.2236 96.611 58.0768C96.878 57.9303 97.0978 57.7108 97.2675 57.4179V58.1438H99.9718V54.0295C99.9718 52.6758 99.9223 51.78 99.8271 51.3454C99.7291 50.9114 99.4429 50.5448 98.9676 50.2452Z" fill="#E95A0C"/>
<path fill-rule="evenodd" clip-rule="evenodd" d="M106.944 50.1313C106.602 49.9094 106.191 49.7993 105.706 49.7993C105.393 49.7993 105.095 49.8481 104.819 49.9468C104.542 50.0471 104.285 50.1956 104.049 50.3935V48.1504H101.266V58.1433H104.049V52.2858C104.049 51.8697 104.077 51.5907 104.136 51.4513C104.195 51.3106 104.306 51.2409 104.473 51.2409C104.653 51.2409 104.769 51.3085 104.82 51.4449C104.872 51.5812 104.898 51.8876 104.898 52.3663V58.1433H107.679V52.4919C107.679 51.7223 107.641 51.1924 107.567 50.9009C107.491 50.6113 107.284 50.3535 106.944 50.1313Z" fill="#E95A0C"/>
<path fill-rule="evenodd" clip-rule="evenodd" d="M129.375 52.2584C129.375 51.7928 129.399 51.5073 129.443 51.4006C129.487 51.2949 129.606 51.2414 129.795 51.2414C129.947 51.2414 130.049 51.303 130.1 51.4292C130.15 51.5528 130.175 51.8292 130.175 52.2584V52.8644H129.375V52.2584ZM127.256 57.4422C127.506 57.7071 127.855 57.9169 128.302 58.069C128.75 58.2215 129.269 58.2976 129.854 58.2976C130.458 58.2976 130.96 58.2205 131.36 58.0663C131.76 57.9132 132.09 57.6829 132.352 57.3752C132.612 57.0675 132.777 56.779 132.848 56.508C132.92 56.2376 132.955 55.8508 132.955 55.3455V54.7432H130.328V55.8219C130.328 56.2282 130.294 56.5006 130.224 56.643C130.154 56.7844 130.013 56.8554 129.804 56.8554C129.636 56.8554 129.523 56.8019 129.465 56.6938C129.405 56.5878 129.375 56.3481 129.375 55.9761V54.2026H132.955V53.1132C132.955 52.3153 132.854 51.6975 132.65 51.2575C132.446 50.8182 132.092 50.4647 131.585 50.1981C131.081 49.9331 130.439 49.7998 129.662 49.7998C129.026 49.7998 128.462 49.9099 127.973 50.1291C127.485 50.3506 127.131 50.6664 126.916 51.0821C126.702 51.4955 126.594 52.0618 126.594 52.7782V55.1704C126.594 55.7801 126.642 56.243 126.738 56.5632C126.835 56.8833 127.007 57.1756 127.256 57.4422Z" fill="#E95A0C"/>
<path fill-rule="evenodd" clip-rule="evenodd" d="M134.354 55.6058C134.354 56.4201 134.379 56.9382 134.43 57.1587C134.479 57.3782 134.608 57.5745 134.812 57.7449C135.018 57.9145 135.255 58.0253 135.524 58.0724C135.792 58.1195 136.242 58.1431 136.872 58.1431H137.985V56.8285C137.54 56.8285 137.288 56.7985 137.227 56.7369C137.166 56.6743 137.136 56.373 137.136 55.8343V51.4467H137.856V50.1594H137.136V48.8447H134.354V50.1594H133.76V51.4467H134.354V55.6058Z" fill="#E95A0C"/>
<path fill-rule="evenodd" clip-rule="evenodd" d="M114.731 57.0492C114.731 56.8687 114.76 56.6953 114.802 56.5267L113.815 53.2106L114.948 49.9535H112.644L111.767 52.3424L111.755 48.1504H108.973V58.1433H111.755L111.767 54.5697L112.644 58.1433H115.038C114.848 57.8211 114.731 57.4501 114.731 57.0492Z" fill="#E95A0C"/>
<path fill-rule="evenodd" clip-rule="evenodd" d="M121.76 52.5957C121.76 51.9769 121.784 51.5969 121.831 51.4534C121.882 51.3127 122.002 51.2414 122.191 51.2414C122.374 51.2414 122.484 51.303 122.524 51.4255C122.564 51.5497 122.583 51.8941 122.583 52.459V58.1434H125.365V52.3988C125.365 51.6824 125.322 51.1717 125.235 50.8646C125.149 50.5579 124.956 50.3044 124.655 50.1028C124.355 49.8984 123.967 49.7998 123.494 49.7998C123.117 49.7998 122.784 49.8742 122.494 50.0267C122.205 50.1772 121.959 50.4041 121.76 50.7071L121.811 49.954H118.979V56.5423C119.019 56.7056 119.046 56.8743 119.046 57.0493C119.046 57.2254 119.019 57.394 118.979 57.5577V58.1434H121.76V52.5957Z" fill="#E95A0C"/>
<mask id="mask0" mask-type="alpha" maskUnits="userSpaceOnUse" x="114" y="64" width="25" height="18">
<path fill-rule="evenodd" clip-rule="evenodd" d="M114.277 64.3691H138.033V81.7728H114.277V64.3691Z" fill="white"/>
</mask>
<g mask="url(#mask0)">
<path fill-rule="evenodd" clip-rule="evenodd" d="M124.352 64.3691L114.277 81.7728L138.034 64.3691H124.352Z" fill="#E95A0C"/>
</g>
<mask id="mask1" mask-type="alpha" maskUnits="userSpaceOnUse" x="51" y="46" width="4" height="4">
<path fill-rule="evenodd" clip-rule="evenodd" d="M51 46.0947H54.5365V49.6299H51V46.0947Z" fill="white"/>
</mask>
<g mask="url(#mask1)">
<path fill-rule="evenodd" clip-rule="evenodd" d="M52.7691 46.0947C52.2571 46.0947 51.7985 46.3169 51.475 46.666C51.1831 46.9815 51 47.3996 51 47.8618C51 48.2857 51.1559 48.6691 51.4053 48.9738C51.5632 49.1674 51.7592 49.3256 51.9854 49.4387C52.2227 49.5572 52.4863 49.6299 52.7691 49.6299C53.0519 49.6299 53.3155 49.5572 53.5528 49.4387C53.8447 49.2926 54.0908 49.0718 54.2632 48.7964C54.4339 48.5247 54.5366 48.2059 54.5366 47.8618C54.5366 47.3996 54.3537 46.9815 54.0625 46.666C53.7397 46.3169 53.2815 46.0947 52.7691 46.0947Z" fill="#E20714"/>
</g>
<path fill-rule="evenodd" clip-rule="evenodd" d="M91.1015 46.0947C90.5887 46.0947 90.1302 46.3169 89.8074 46.666C89.5148 46.9815 89.333 47.3996 89.333 47.8618C89.333 48.2332 89.4485 48.5769 89.6444 48.8613C89.8141 49.1074 90.0474 49.3034 90.317 49.4387C90.5544 49.5572 90.818 49.6299 91.1015 49.6299C91.3842 49.6299 91.6472 49.5572 91.8838 49.4387C92.1279 49.3165 92.3383 49.1418 92.5019 48.927C92.7282 48.6304 92.8682 48.2638 92.8682 47.8618C92.8682 47.3996 92.6861 46.9815 92.3942 46.666C92.0714 46.3169 91.6132 46.0947 91.1015 46.0947Z" fill="#E20714"/>
<path fill-rule="evenodd" clip-rule="evenodd" d="M116.888 55.7041C116.145 55.7041 115.541 56.3081 115.541 57.0494C115.541 57.7924 116.145 58.3973 116.888 58.3973C117.631 58.3973 118.234 57.7924 118.234 57.0494C118.234 56.3081 117.631 55.7041 116.888 55.7041Z" fill="#E20714"/>
<path fill-rule="evenodd" clip-rule="evenodd" d="M62.5243 29.9114H60.4713C60.8443 29.5539 61.1625 29.158 61.4268 28.7224H62.5243V29.9114ZM61.1941 33.317H62.5242V31.6142H61.1941V33.317ZM61.0776 23.5433H62.36V21.6304H61.0776V23.5433ZM64.9037 35.0215H65.6258L66.2786 36.1166C66.1392 36.1493 65.946 36.1796 65.6962 36.2099C65.4171 36.2415 65.1515 36.2732 64.9037 36.3041V35.0215ZM64.9037 33.3173H66.2786V31.6146H64.9037V33.3173ZM64.9037 28.7224H69.3354C69.3354 30.4332 69.327 31.8401 69.3119 32.9447C69.296 34.3287 69.2351 35.7594 69.1257 37.2363C68.6591 36.5839 68.1144 35.8456 67.4923 35.0215H68.4729V29.9114H64.9037V28.7224ZM64.2971 23.5433H65.6962V21.6304H64.2971V23.5433ZM67.632 23.52H69.1257V21.6072H67.632V23.52ZM63.2467 25.5029H71.6691V19.6007H58.5107V25.5029H60.5175C59.9421 26.8714 59.0392 27.9757 57.8121 28.8149C57.7178 26.7472 57.4391 25.0986 56.9732 23.8698C57.5633 23.2167 58.0683 22.3848 58.4888 21.3735L56.3423 19.9505C56.1245 20.5575 55.8279 21.1022 55.4549 21.5836C54.8792 20.7908 54.0635 20.1215 53.006 19.5771L51.3733 21.3267C52.3839 21.965 53.1686 22.6959 53.7298 23.52C52.9205 24.3758 52.0254 25.068 51.0464 25.5958L52.7492 27.7652C53.6669 27.0512 54.3755 26.4287 54.8721 25.8998C55.0276 26.4446 55.1064 27.0425 55.1064 27.6956C54.8408 28.3645 54.3038 29.2122 53.4959 30.2383C52.6711 31.2651 51.8392 32.0657 51.0002 32.641L52.8188 34.905C53.3013 34.4845 53.8618 33.8701 54.4984 33.0618C55.1364 32.2525 55.4549 31.7937 55.4549 31.6842V32.1976C55.4549 34.3751 55.3842 35.7985 55.2451 36.4667C55.1064 37.1357 54.6772 37.4706 53.9621 37.4706C53.3861 37.4706 52.7263 37.4003 51.9799 37.2602L52.5859 40.2925C52.9434 40.3235 53.34 40.34 53.7753 40.34C55.4394 40.34 56.5594 39.9434 57.1348 39.1495C57.6791 38.3567 57.9515 36.3577 57.9515 33.1541C57.9515 31.8946 57.9353 30.7827 57.905 29.8188L59.0709 31.1941V35.0215H62.5243V36.5368C61.3729 36.6455 59.8408 36.7394 57.9286 36.8179L58.3709 39.2428C62.3212 38.7913 65.3148 38.317 67.3525 37.8201L67.6555 38.4035L66.6994 38.3332L67.2125 40.3864C67.5239 40.4167 67.8653 40.4329 68.239 40.4329C69.8253 40.4329 70.8204 40.0289 71.2254 39.2196C71.6297 38.4113 71.8711 34.1661 71.9479 26.4823H62.7804C62.9673 26.1402 63.1218 25.8143 63.2467 25.5029Z" fill="#E20714"/>
<mask id="mask2" mask-type="alpha" maskUnits="userSpaceOnUse" x="51" y="13" width="88" height="69">
<path fill-rule="evenodd" clip-rule="evenodd" d="M51 81.7719H138.033V13.3369H51V81.7719Z" fill="white"/>
</mask>
<g mask="url(#mask2)">
<path fill-rule="evenodd" clip-rule="evenodd" d="M106.997 27.6955H111.382V26.2735H106.997V27.6955ZM106.997 24.1492H111.382V22.9365H106.997V24.1492ZM99.0886 32.6642C98.9162 32.5093 98.5132 32.2218 97.8739 31.802C98.2954 30.2301 98.6691 28.2557 98.994 25.8759H100.326C100.106 28.9084 99.6942 31.1711 99.0886 32.6642ZM113.086 33.4341H115.955V31.1014H110.705V29.9807H114.298V22.9365H115.884V20.6742H114.298V19.2744H111.382V20.6742H106.997V19.2744H104.105V20.6742H102.752V22.9365H104.105V29.9807H107.859V31.1014H102.541V33.4341H105.503C105.177 34.7716 104.182 35.9381 102.517 36.9343L103.171 35.8139C102.471 35.2069 101.871 34.7248 101.374 34.368C102.37 31.6465 102.922 27.9284 103.03 23.2166H99.4845C99.5942 22.2521 99.71 21.0075 99.8349 19.4845L97.0824 19.3909C97.0501 20.5722 96.9424 21.8485 96.7542 23.2166H94.7255V25.8759H96.3368C96.1341 27.9601 95.6517 30.2547 94.8895 32.7581C96.0553 33.5206 97.0737 34.3208 97.945 35.1611C97.4316 36.2967 96.3519 37.3147 94.7026 38.2166L96.8023 40.5486C98.2648 39.5851 99.3751 38.3866 100.138 36.9562C100.589 37.3612 101.07 37.9059 101.584 38.5899L102.308 37.3766L103.801 39.779C104.655 39.2191 105.511 38.3102 106.366 37.0501C107.207 35.7907 107.704 34.6316 107.859 33.5745V40.7361H110.705V33.5745C111.328 36.1862 112.611 38.2782 114.555 39.8494L116.188 37.1433C114.462 36.1327 113.428 34.8958 113.086 33.4341Z" fill="#E20714"/>
<path fill-rule="evenodd" clip-rule="evenodd" d="M119.207 29.1421H122.987V28.2786H119.207V29.1421ZM119.931 32.2204H122.264V31.2411H119.931V32.2204ZM119.931 34.9743H122.264V33.9933H119.931V34.9743ZM121.75 26.1088H122.519V24.5464H121.75V26.1088ZM119.534 22.0033H122.519V22.8665H120.163V26.1088H119.534V22.0033ZM125.202 31.1943H137.893V28.9084H125.365V26.1088H124.668V19.7178H117.387V26.1088H116.828V30.0517H117.597V40.7361H119.931V36.7471H122.264V37.2366C122.264 37.7187 122.006 37.96 121.494 37.96L120.607 37.8904L121.051 40.4563H122.637C123.895 40.4563 124.525 39.6463 124.525 38.0294V30.0517H125.202V31.1943Z" fill="#E20714"/>
<path fill-rule="evenodd" clip-rule="evenodd" d="M128.842 34.8795H134.301V33.7362H128.842V34.8795ZM132.669 38.1454H130.614C130.475 37.6172 130.304 37.1196 130.102 36.6533H133.227C133.088 37.1822 132.901 37.6791 132.669 38.1454ZM135.957 36.6533H137.031V31.9873H126.16V36.6533H127.255C127.519 37.197 127.707 37.6946 127.816 38.1454H124.946V40.4319H138.033V38.1454H135.397C135.646 37.5239 135.833 37.0257 135.957 36.6533Z" fill="#E20714"/>
<path fill-rule="evenodd" clip-rule="evenodd" d="M130.872 23.4499H132.06V22.3306H130.872V23.4499ZM133.763 26.2495H135.001V24.9891H133.763V26.2495ZM133.763 23.4499H135.001V22.3306H133.763V23.4499ZM130.872 26.2495H132.06V24.9891H130.872V26.2495ZM128.095 23.4499H129.145V22.3306H128.095V23.4499ZM128.095 26.2495H129.145V24.9891H128.095V26.2495ZM128.585 19.2744V20.4641H125.715V28.116H137.357V20.4641H134.301V19.2744H131.945V20.4641H130.989V19.2744H128.585Z" fill="#E20714"/>
<path fill-rule="evenodd" clip-rule="evenodd" d="M51 16.8974H138.033V13.3369H51V16.8974Z" fill="#E20714"/>
<path fill-rule="evenodd" clip-rule="evenodd" d="M89.4797 32.0473C90.3398 30.2707 90.9697 28.9228 91.3717 28.0047L87.5015 26.543C86.2394 30.2707 84.9783 33.4525 83.7175 36.0891H73.2253V39.2708H93.6939V36.0891H87.5877C88.0455 35.1724 88.6761 33.8251 89.4797 32.0473Z" fill="#E20714"/>
<path fill-rule="evenodd" clip-rule="evenodd" d="M75.8916 27.9199C77.0955 30.7876 78.0984 33.367 78.9013 35.6596L82.3416 34.2834C81.3663 31.8756 80.4775 29.7833 79.6753 28.0055C79.3881 27.3756 79.1874 26.917 79.0733 26.6299L75.8916 27.9199Z" fill="#E20714"/>
<path fill-rule="evenodd" clip-rule="evenodd" d="M81.7395 19.5771V22.8457H73.9133V26.1998H93.0915V22.8457H85.4373V19.5771H81.7395Z" fill="#E20714"/>
</g>
</svg>
