<svg width="190" height="90" viewBox="0 0 190 90" fill="none" xmlns="http://www.w3.org/2000/svg">
<rect width="190" height="90" fill="white"/>
<path fill-rule="evenodd" clip-rule="evenodd" d="M100.309 36.7252C100.309 35.2578 101.462 34 103.034 34C104.501 34 105.759 35.2578 105.759 36.7252C105.759 38.1926 104.501 39.5552 103.034 39.5552C101.462 39.5552 100.309 38.2974 100.309 36.7252ZM96.0113 54.4391C96.0113 54.8583 96.0113 54.9632 96.3257 55.1728L97.898 56.6402V56.745H91.0849V53.915C90.3512 55.8017 88.5694 57.0595 86.5779 57.0595C83.1189 57.0595 80.4985 54.3343 80.4985 49.1983C80.4985 44.4816 83.2237 41.2323 87.1019 41.2323C88.779 41.1275 90.3512 42.0708 91.0849 43.7479V37.3541C91.0849 37.0397 90.9801 36.7252 90.7705 36.6204L89.3031 35.153V35.0482L96.1161 34.2096V54.4391H96.0113ZM90.9801 53.6005V43.9575C90.456 43.3286 89.7223 43.0142 88.9886 43.0142C87.3116 43.0142 85.7393 44.4816 85.7393 48.9887C85.7393 53.1813 87.1019 54.6487 88.8838 54.6487C89.7223 54.7535 90.5609 54.3343 90.9801 53.6005ZM100.518 43.8527V56.8498H107.331V56.745L105.864 55.2776C105.55 55.068 105.55 54.9632 105.55 54.5439V41.4419H98.7365V41.5467L100.204 43.119C100.414 43.2238 100.518 43.5382 100.518 43.8527ZM124.207 55.1728C123.892 54.9632 123.892 54.8583 123.892 54.4391V41.4419H117.079V41.6516L118.547 43.2238C118.756 43.3286 118.861 43.643 118.861 43.9575V53.0765C118.442 53.8102 117.603 54.3343 116.66 54.4391C114.983 54.4391 114.564 52.5524 114.564 49.8272V41.4419H108.058L107.96 41.3371V41.4419H108.058L109.428 42.9093C109.637 43.119 109.742 43.3286 109.742 43.643C109.637 46.1586 109.637 48.4646 109.637 50.4561C109.637 54.7535 111.21 56.9547 114.249 56.9547C116.45 56.9547 118.337 55.4872 118.966 53.3909V56.745H125.779V56.6402L124.207 55.1728ZM146.952 56.8498C146.952 56.8263 146.952 56.791 146.952 56.745H153.87V56.6402L152.402 55.1728C152.193 55.068 151.983 54.7535 152.088 54.4391C152.088 53.1762 152.116 51.9132 152.144 50.7106L152.144 50.7099C152.169 49.6171 152.193 48.5741 152.193 47.626C152.193 43.4334 150.515 41.1275 147.476 41.1275C145.17 41.0227 143.074 42.5949 142.34 44.796C141.711 42.3853 140.244 41.1275 137.938 41.1275C135.736 41.0227 133.745 42.4901 133.116 44.6912V41.4419H126.303V41.6516L127.77 43.2238C127.98 43.3286 128.085 43.643 128.085 43.9575V57.0595H134.898V56.9547L133.43 55.4872C133.116 55.2776 133.116 55.1728 133.116 54.7535V45.3201C133.64 44.4816 134.479 43.9575 135.422 43.9575C137.309 43.9575 137.728 45.8442 137.728 48.6742C137.728 49.6305 137.683 52.6788 137.652 54.8025C137.636 55.9376 137.623 56.8086 137.623 56.9547H144.436V56.8498L142.864 55.3824C142.654 55.1728 142.549 54.9632 142.549 54.6487C142.549 53.3699 142.579 52.0615 142.607 50.8333V50.8329V50.8326V50.8323V50.832V50.8317V50.8314C142.631 49.7449 142.654 48.721 142.654 47.8357C142.654 46.9972 142.549 46.0538 142.34 45.2153C142.864 44.3768 143.807 43.8527 144.751 43.8527C146.637 43.8527 147.057 45.8442 147.057 48.5694C147.057 49.4879 147.015 52.2954 146.985 54.3959C146.969 55.5001 146.955 56.4089 146.952 56.745H146.952V56.8498ZM63.6232 56.745L61.6317 54.7535C61.4221 54.6487 61.3173 54.3343 61.3173 54.1246V38.1926C61.3173 37.983 61.4221 37.6686 61.6317 37.4589L63.6232 35.153V35.0482H56.4957L51.1501 48.5694L45.0708 35.0482H37.7337V35.153L39.6204 37.7734C40.0397 38.1926 40.1445 38.8215 40.1445 39.3456V50.8753C40.2493 51.5042 40.1445 52.2379 39.83 52.8668L37 56.745V56.8498H44.5467V56.745L41.7167 52.9717C41.4023 52.3428 41.2974 51.7139 41.4023 50.9802V40.4986C41.4372 40.5685 41.4721 40.615 41.5071 40.6616C41.577 40.7548 41.6468 40.848 41.7167 41.1275L48.8442 57.0595H48.949L55.8668 39.7649C55.762 40.3938 55.762 41.1275 55.762 41.6516V54.0198C55.762 54.3343 55.6572 54.5439 55.4476 54.7535L53.3513 56.745V56.8498H63.6232V56.745ZM74 54.1246C71.6105 54.1246 69.6329 52.58 69.5982 48.6742H78.7167V47.8357C78.7167 42.9093 75.2578 41.3371 72.0085 41.3371C68.0255 41.3371 64.3569 43.5382 64.3569 49.3031C64.3569 54.7535 68.0255 57.0595 71.9036 57.0595C75.4674 57.0595 77.8781 55.1728 78.7167 51.2946H78.6119C77.7733 53.0765 75.9915 54.2294 74 54.1246ZM74.1048 47.7309H69.5977C69.5977 43.4334 70.541 41.8612 72.0085 41.7564C73.2663 41.7564 74.1048 42.8045 74.1048 46.8923V47.7309Z" fill="#292929"/>
</svg>
