<svg width="190" height="90" viewBox="0 0 190 90" fill="none" xmlns="http://www.w3.org/2000/svg">
<rect width="190" height="90" fill="white"/>
<mask id="mask0" mask-type="alpha" maskUnits="userSpaceOnUse" x="63" y="69" width="6" height="9">
<path fill-rule="evenodd" clip-rule="evenodd" d="M63 69.8242H68.4459V77.2049H63V69.8242Z" fill="white"/>
</mask>
<g mask="url(#mask0)">
<path fill-rule="evenodd" clip-rule="evenodd" d="M65.6703 77.2049C64.4439 77.2049 63.6363 76.943 62.9998 76.3341L64.0118 75.3242C64.5291 75.755 65.3424 75.8033 65.6816 75.8033C66.6695 75.8033 66.8774 75.3711 66.8774 75.0091C66.8774 74.7891 66.8185 74.6174 66.6979 74.4854C66.5723 74.3576 66.3814 74.2789 66.1287 74.2469L65.2246 74.1192C64.5887 74.0291 64.1047 73.819 63.7903 73.494C63.4689 73.1633 63.3078 72.6835 63.3078 72.0725C63.3078 70.7056 64.3347 69.8242 65.9236 69.8242C66.9654 69.8242 67.6971 70.0634 68.2776 70.5985L67.289 71.5871C66.8242 71.1918 66.2529 71.1918 65.9996 71.1918H65.8711C65.1657 71.1918 64.8449 71.6162 64.8449 72.01C64.8449 72.103 64.8683 72.2825 65.028 72.4408C65.1657 72.5806 65.363 72.6665 65.6142 72.6977L66.5176 72.8233C67.1492 72.912 67.6219 73.11 67.9235 73.4095C68.2741 73.7537 68.4458 74.2625 68.4458 74.9673C68.4458 76.5115 67.0513 77.2049 65.6703 77.2049Z" fill="#231F20"/>
</g>
<path fill-rule="evenodd" clip-rule="evenodd" d="M71.4038 77.141V71.2883H69.5601V69.8867H74.8457V71.2883H73.0034V77.141H71.4038Z" fill="#231F20"/>
<path fill-rule="evenodd" clip-rule="evenodd" d="M77.5019 74.731H79.1427L78.3486 72.2173L77.5019 74.731ZM79.8978 77.141L79.5515 76.0254H77.0676L76.6986 77.141H75.033L77.6715 69.8867H78.9234L81.5627 77.141H79.8978Z" fill="#231F20"/>
<path fill-rule="evenodd" clip-rule="evenodd" d="M87.0389 77.141L84.4514 73.0774V77.141H82.8503V69.8867H84.274L86.8621 73.9518V69.8867H88.4618V77.141H87.0389Z" fill="#231F20"/>
<path fill-rule="evenodd" clip-rule="evenodd" d="M91.8667 75.7416H92.7978C93.2541 75.7416 93.567 75.5904 93.7835 75.2661C93.9567 75.0191 94.0035 74.7728 94.0035 73.5139C94.0035 72.257 93.9567 72.0101 93.7821 71.761C93.567 71.4381 93.2534 71.2883 92.7978 71.2883H91.8667V75.7416ZM90.2656 77.141V69.8867H92.9241C93.7317 69.8867 94.4016 70.1294 94.8601 70.5893C95.6187 71.3479 95.6123 72.1641 95.6052 73.1988V73.8304C95.6123 74.8644 95.6187 75.6812 94.8601 76.4413C94.4002 76.8983 93.7317 77.141 92.9241 77.141H90.2656Z" fill="#231F20"/>
<path fill-rule="evenodd" clip-rule="evenodd" d="M101.413 77.141L98.8252 73.0774V77.141H97.2241V69.8867H98.647L101.236 73.9518V69.8867H102.836V77.141H101.413Z" fill="#231F20"/>
<path fill-rule="evenodd" clip-rule="evenodd" d="M104.657 77.141V69.8867H109.51V71.2883H106.257V72.7836H109.036V74.1845H106.257V75.7416H109.51V77.141H104.657Z" fill="#231F20"/>
<path fill-rule="evenodd" clip-rule="evenodd" d="M116.853 77.141L115.554 73.1775L114.256 77.141H112.94L110.944 69.8867H112.616L113.677 74.1817L114.991 69.8867H116.117L117.43 74.1803L118.492 69.8867H120.165L118.177 77.141H116.853Z" fill="#231F20"/>
<path fill-rule="evenodd" clip-rule="evenodd" d="M123.422 77.2049C122.195 77.2049 121.388 76.943 120.751 76.3341L121.762 75.3242C122.28 75.755 123.092 75.8033 123.432 75.8033C124.42 75.8033 124.627 75.3711 124.627 75.0091C124.627 74.7891 124.569 74.6174 124.448 74.4854C124.324 74.3576 124.134 74.2789 123.88 74.2469L122.976 74.1192C122.34 74.0291 121.856 73.819 121.54 73.494C121.22 73.1633 121.059 72.6835 121.059 72.0725C121.059 70.7056 122.085 69.8242 123.674 69.8242C124.715 69.8242 125.447 70.0634 126.03 70.5985L125.04 71.5871C124.576 71.1918 124.004 71.1918 123.75 71.1918H123.622C122.916 71.1918 122.596 71.6162 122.596 72.01C122.596 72.103 122.62 72.2825 122.779 72.4408C122.918 72.5806 123.114 72.6665 123.366 72.6977L124.268 72.8233C124.9 72.912 125.373 73.11 125.674 73.4095C126.026 73.7537 126.196 74.2625 126.196 74.9673C126.196 76.5115 124.803 77.2049 123.422 77.2049Z" fill="#231F20"/>
<mask id="mask1" mask-type="alpha" maskUnits="userSpaceOnUse" x="63" y="12" width="64" height="51">
<path fill-rule="evenodd" clip-rule="evenodd" d="M63.0251 12.709H126.172V62.7339H63.0251V12.709Z" fill="white"/>
</mask>
<g mask="url(#mask1)">
<path fill-rule="evenodd" clip-rule="evenodd" d="M88.2712 15.5307H65.8362V44.6721L100.95 59.9224H123.363V30.7823L88.2712 15.5307ZM100.34 62.7341L63.0251 46.5159V12.7189L88.8333 12.709L126.172 28.9393V62.7341H100.34Z" fill="#231F20"/>
</g>
<path fill-rule="evenodd" clip-rule="evenodd" d="M111.237 47.1118H119.08V44.9757H106.28V47.1118H108.162L106.894 49.6567L106.475 48.4758L104.77 49.0833V44.0247H106.422V41.6984H104.77V37.6113H102.606V41.6984H100.754V44.0247H102.606V49.8547L100.254 50.6921L101.04 52.8957L106.194 51.0597L105.417 52.6217H107.78L109.029 50.1031H110.132L107.586 55.2305H109.717L112.248 50.1017H113.364L110.819 55.2305H112.956L115.454 50.1684L115.523 50.1017H116.208V52.8282C116.208 53.4449 115.781 53.8594 115.148 53.8594H114.68L115.239 56.2091C117.451 56.1793 118.482 55.2376 118.482 53.2498V48.1224H110.819H110.015L110.508 47.1118H111.237Z" fill="#231F20"/>
<mask id="mask2" mask-type="alpha" maskUnits="userSpaceOnUse" x="63" y="12" width="64" height="66">
<path fill-rule="evenodd" clip-rule="evenodd" d="M63 77.2054H126.196V12.71H63V77.2054Z" fill="white"/>
</mask>
<g mask="url(#mask2)">
<path fill-rule="evenodd" clip-rule="evenodd" d="M110.387 42.4739H115.205V41.3945H110.387V42.4739ZM110.387 39.9311H115.205V38.8524H110.387V39.9311ZM108.22 44.0998H117.49V37.2266H108.22V44.0998Z" fill="#231F20"/>
<path fill-rule="evenodd" clip-rule="evenodd" d="M70.3118 24.1341V21.6623H76.96V18.8867H79.3275V21.6623H86.1106V24.1341H70.3118Z" fill="#231F20"/>
<path fill-rule="evenodd" clip-rule="evenodd" d="M74.0271 33.1599L72.7468 25.4365H75.1739L76.5152 33.1599H74.0271Z" fill="#231F20"/>
<path fill-rule="evenodd" clip-rule="evenodd" d="M69.6997 37.0165V34.4815H78.9794L81.4207 25.4033H84.1204L81.7138 34.4815L86.683 34.4801V37.0165H69.6997Z" fill="#231F20"/>
</g>
</svg>
