<svg width="190" height="90" viewBox="0 0 190 90" fill="none" xmlns="http://www.w3.org/2000/svg">
<rect width="190" height="90" fill="#FF485A"/>
<path d="M74.0167 53.8592L68.7842 40.8451C68.5859 40.3379 68.102 40.0033 67.5619 40H65L72.6605 58H75.2977L83 40H80.4884C79.9482 40.0033 79.4643 40.3379 79.266 40.8451L74.0167 53.8592Z" fill="white"/>
<path fill-rule="evenodd" clip-rule="evenodd" d="M86.7596 41.755C88.5457 39.9722 90.9741 38.9799 93.4999 39.0008C96.0172 38.9683 98.4419 39.9474 100.229 41.7178C102.015 43.4882 103.014 45.9012 103 48.4141V48.4831C103.019 53.72 98.781 57.9808 93.5345 57.9999C88.288 58.0189 84.0194 53.7889 84.0003 48.552V48.4831C83.9794 45.9619 84.9735 43.5378 86.7596 41.755ZM89.0125 53.0882C90.1821 54.3206 91.7994 55.0314 93.4999 55.0603C95.1883 55.048 96.7989 54.35 97.9606 53.1269C99.1223 51.9039 99.735 50.2614 99.6574 48.5779V48.5089C99.7203 46.8033 99.093 45.1441 97.9169 43.9053C96.7407 42.6664 95.1146 41.952 93.4049 41.923C89.9505 41.923 87.282 44.7246 87.282 48.44V48.5089C87.2191 50.2054 87.8428 51.8558 89.0125 53.0882Z" fill="white"/>
<path d="M120.268 52.8934C119.029 54.2249 117.299 54.9963 115.477 55.0299C113.778 54.9965 112.164 54.2839 110.998 53.0525C109.832 51.8211 109.212 50.1743 109.277 48.4827V48.4138C109.277 44.7611 111.923 41.901 115.33 41.901C117.018 41.9161 118.63 42.6013 119.809 43.8049L120.025 44.0116C120.2 44.1916 120.44 44.2933 120.691 44.2933C120.942 44.2933 121.183 44.1916 121.357 44.0116L122.853 42.4351L122.663 42.2283C120.048 39.2585 115.859 38.2159 112.15 39.6119C108.441 41.008 105.99 44.5498 106 48.4999V48.5688C105.99 52.564 108.514 56.1296 112.295 57.4614C116.076 58.7932 120.288 57.6006 122.801 54.4872L123 54.2718L121.53 52.9021C121.367 52.7363 121.144 52.6429 120.912 52.6429C120.679 52.6429 120.456 52.7363 120.293 52.9021L120.268 52.8934Z" fill="white"/>
<path d="M154.243 46.942H154.175C152.036 46.2736 150.007 45.64 150.007 44.1992V44.1297C150.007 42.767 151.233 41.8556 153.059 41.8556C154.61 41.9048 156.123 42.3589 157.455 43.175C157.912 43.4416 158.492 43.2879 158.766 42.8278L159.729 41.1786L159.527 41.0137C157.626 39.7384 155.414 39.0404 153.144 39C149.508 39 146.972 41.2133 146.972 44.3815V44.4509C146.972 48.027 150.354 49.0251 152.89 49.7542C155.215 50.4226 156.99 51.0562 156.99 52.5838V52.6533C156.99 54.1549 155.671 55.1704 153.71 55.1704C151.854 55.1253 150.052 54.5217 148.528 53.4344C148.036 53.0901 147.367 53.2137 147.023 53.7122L146 55.153L146.22 55.3266C148.315 57.0179 150.893 57.9571 153.558 58C157.413 58 160 55.7433 160 52.3842V52.3148C160 48.7213 156.534 47.6537 154.243 46.942Z" fill="white"/>
<path d="M133.738 55.1358C130.896 55.1358 129.201 53.3139 129.201 50.2716V41.3122C129.201 40.5875 128.6 40 127.857 40H126V50.865C126 55.1943 128.748 57.9942 132.993 57.9942C134.855 58.0705 136.666 57.3932 138 56.122V52.779C137.141 54.28 135.498 55.1888 133.738 55.1358Z" fill="white"/>
<path d="M140.73 40H139V56.7228C139.004 57.4296 139.55 58 140.221 58H142V41.3368C142 40.5985 141.432 40 140.73 40Z" fill="white"/>
<path fill-rule="evenodd" clip-rule="evenodd" d="M51.4591 36H30V52.5693C30.028 55.58 32.5019 58.0047 35.5409 58H57V41.4307C56.972 38.42 54.4981 35.9953 51.4591 36ZM44.9001 48.1895H35.7275C34.4749 48.1665 33.477 47.144 33.4959 45.9029V39.3626H42.6769C43.9262 39.3902 44.919 40.4113 44.9001 41.6492V48.1895ZM47.6153 54.5365H53.555L53.5465 50.7031C53.5234 49.9402 52.8826 49.3392 52.1125 49.358H46.1728V53.1998C46.2005 53.9627 46.8452 54.5601 47.6153 54.5365Z" fill="white"/>
</svg>
