<svg width="190" height="90" viewBox="0 0 190 90" fill="none" xmlns="http://www.w3.org/2000/svg">
<rect width="190" height="90" fill="#0BA9DA"/>
<path fill-rule="evenodd" clip-rule="evenodd" d="M94.985 16C78.4247 16 65 29.4247 65 45.985C65 62.5452 78.4247 75.97 94.985 75.97C111.545 75.97 124.97 62.5452 124.97 45.985C124.97 29.4247 111.545 16 94.985 16ZM94.985 17.7991C98.7909 17.7991 102.482 18.5441 105.956 20.0133C107.625 20.7196 109.236 21.5939 110.743 22.6117C112.236 23.6203 113.639 24.7786 114.915 26.0545C116.191 27.3305 117.35 28.7344 118.358 30.2272C119.376 31.7339 120.25 33.3446 120.957 35.0143C122.426 38.488 123.171 42.1792 123.171 45.985C123.171 49.7909 122.426 53.4819 120.957 56.9556C120.25 58.6254 119.376 60.236 118.358 61.7428C117.35 63.2356 116.191 64.6395 114.915 65.9154C113.639 67.1913 112.236 68.3497 110.743 69.3583C109.236 70.3762 107.625 71.2504 105.956 71.9566C102.482 73.4259 98.7909 74.1709 94.985 74.1709C91.1792 74.1709 87.488 73.4259 84.0143 71.9566C82.3446 71.2504 80.7339 70.3762 79.2272 69.3583C77.7344 68.3497 76.3305 67.1913 75.0545 65.9154C73.7786 64.6395 72.6203 63.2356 71.6117 61.7428C70.5939 60.236 69.7196 58.6254 69.0133 56.9556C67.5441 53.4819 66.7991 49.7909 66.7991 45.985C66.7991 42.1792 67.5441 38.488 69.0133 35.0143C69.7196 33.3446 70.5939 31.7339 71.6117 30.2272C72.6203 28.7344 73.7786 27.3305 75.0545 26.0545C76.3305 24.7786 77.7344 23.6203 79.2272 22.6117C80.7339 21.5939 82.3446 20.7196 84.0143 20.0133C87.488 18.5441 91.1792 17.7991 94.985 17.7991Z" fill="white"/>
<path fill-rule="evenodd" clip-rule="evenodd" d="M116.912 33.9965C117.02 34.7922 117.08 35.646 117.08 36.5657C117.08 39.1003 116.606 41.9507 115.18 45.5153L107.548 67.581C114.977 63.25 119.973 55.2018 119.973 45.9836C119.973 41.6393 118.862 37.5552 116.912 33.9965ZM95.4241 48.1692L87.9258 69.9539C90.1651 70.6128 92.5326 70.972 94.9851 70.972C97.8949 70.972 100.686 70.4698 103.283 69.5553C103.217 69.4485 103.155 69.3349 103.104 69.211L95.4241 48.1692ZM111.854 44.7234C111.854 41.6344 110.744 39.4963 109.794 37.8324C108.527 35.7732 107.339 34.031 107.339 31.9719C107.339 29.6753 109.081 27.5373 111.535 27.5373C111.646 27.5373 111.751 27.5506 111.859 27.5574C107.413 23.4841 101.49 20.9971 94.9851 20.9971C86.255 20.9971 78.5754 25.4764 74.1073 32.2592C74.694 32.2778 75.2468 32.2895 75.7155 32.2895C78.3285 32.2895 82.3753 31.9719 82.3753 31.9719C83.7215 31.893 83.8807 33.8719 82.535 34.031C82.535 34.031 81.1809 34.1896 79.6755 34.2684L88.7744 61.3344L94.2434 44.9347L90.3506 34.2684C89.0043 34.1896 87.7299 34.031 87.7299 34.031C86.3829 33.9515 86.5406 31.893 87.8884 31.9719C87.8884 31.9719 92.014 32.2895 94.4691 32.2895C97.0821 32.2895 101.13 31.9719 101.13 31.9719C102.477 31.893 102.635 33.8719 101.289 34.031C101.289 34.031 99.9333 34.1896 98.4291 34.2684L107.459 61.1283L110.037 52.9602C111.182 49.3906 111.854 46.8615 111.854 44.7234ZM69.9976 45.9836C69.9976 55.8737 75.7448 64.4215 84.0809 68.4714L72.1612 35.8146C70.7748 38.922 69.9976 42.3609 69.9976 45.9836Z" fill="white"/>
</svg>
