<svg xmlns="http://www.w3.org/2000/svg" viewBox="0 0 236 124">
  <title>authcore-migration-banner-artwork</title>
  <circle cx="118.86" cy="103.28" r="1.5"/>
  <circle cx="118.86" cy="21.88" r="1.5"/>
  <circle cx="129.39" cy="101.9" r="1.5"/>
  <circle cx="108.32" cy="23.27" r="1.5"/>
  <circle cx="139.21" cy="97.83" r="1.5"/>
  <circle cx="98.51" cy="27.34" r="1.5"/>
  <circle cx="147.64" cy="91.36" r="1.5"/>
  <circle cx="90.08" cy="33.8" r="1.5"/>
  <circle cx="154.1" cy="82.93" r="1.5"/>
  <circle cx="83.61" cy="42.23" r="1.5"/>
  <circle cx="158.17" cy="73.12" r="1.5"/>
  <circle cx="79.54" cy="52.05" r="1.5"/>
  <circle cx="158.17" cy="52.05" r="1.5"/>
  <circle cx="79.54" cy="73.12" r="1.5"/>
  <circle cx="154.11" cy="42.23" r="1.5"/>
  <circle cx="83.61" cy="82.93" r="1.5"/>
  <circle cx="147.64" cy="33.8" r="1.5"/>
  <circle cx="90.08" cy="91.36" r="1.5"/>
  <circle cx="139.21" cy="27.34" r="1.5"/>
  <circle cx="98.51" cy="97.83" r="1.5"/>
  <circle cx="129.39" cy="23.27" r="1.5"/>
  <circle cx="108.32" cy="101.9" r="1.5"/>
  <path d="M118.92,113.17A50.87,50.87,0,0,1,70.36,76.76a2.1,2.1,0,1,1,4-1.18A46.65,46.65,0,0,0,118.92,109h-.06a46.65,46.65,0,0,0,44.53-33.39,2.1,2.1,0,1,1,4,1.18,50.87,50.87,0,0,1-48.56,36.41Z" style="fill-rule: evenodd"/>
  <path d="M118.92,16.2A46.65,46.65,0,0,0,74.39,49.59a2.1,2.1,0,0,1-4-1.18A50.87,50.87,0,0,1,118.92,12h-.06a50.87,50.87,0,0,1,48.56,36.41,2.1,2.1,0,0,1-4,1.18A46.65,46.65,0,0,0,118.86,16.2Z" style="fill-rule: evenodd"/>
  <path d="M115.79,55.23a1.21,1.21,0,0,1-.89-.4,1.17,1.17,0,0,1,.11-1.66,24.82,24.82,0,0,0,5-5.8A4.22,4.22,0,0,1,124.25,45a1.18,1.18,0,1,1-.31,2.33c-1-.12-1.61.8-1.84,1.2a27.31,27.31,0,0,1-5.54,6.39A1.15,1.15,0,0,1,115.79,55.23Z" style="fill-rule: evenodd"/>
  <path d="M96,75.17a1.18,1.18,0,0,1-.75-2.08,33.26,33.26,0,0,1,4.33-2.9,1.18,1.18,0,0,1,1,2.11,30.74,30.74,0,0,0-3.88,2.6A1.17,1.17,0,0,1,96,75.17Z" style="fill-rule: evenodd"/>
  <path d="M125.56,64c.47.43,1,.25,1.51-.23a44.82,44.82,0,0,0,8.22-11,1,1,0,0,1,1.33-.65c.66.26.65,1.39,0,2.62A41.45,41.45,0,0,1,128.6,66a.9.9,0,0,0,0,1.33c.38.35,1,.32,1.58-.26a47.91,47.91,0,0,0,5-5.89,1.11,1.11,0,0,1,1.13-.59c.57.12.66.66.49,1.31-.28,1.06-3.26,5-4.44,6.28-3.2,3.57-6.39,5.52-12.55,8.72-2.15,1.11-3.75,2.18-4.73,3.83-.88,1.49-1.15,2-1.24,2.17a1.49,1.49,0,0,0,.66,2,1.37,1.37,0,0,0,.62.14,1.44,1.44,0,0,0,1.34-.89s0,0,1.12-1.94A8.32,8.32,0,0,1,121.26,79a35.73,35.73,0,0,0,12.25-8.6A40.74,40.74,0,0,0,138,64.28c1.72-2.9.82-5.38-.73-5.8a.2.2,0,0,1-.13-.29,15.83,15.83,0,0,0,2-4.59c.3-1.5-.12-3.32-2.18-3.76a.2.2,0,0,1-.14-.25c.13-.47.25-1.07.34-1.47a3.34,3.34,0,0,0-2.28-4,3.4,3.4,0,0,0-2.77.57.28.28,0,0,1-.36,0,2.13,2.13,0,0,0-1.53-.71,3.45,3.45,0,0,0-3.49,2.35,24.36,24.36,0,0,1-4.55,6.53,49.77,49.77,0,0,1-8.73,7.4c-.4.26-1,.2-.9-.34.1-.86,1-6.66,1.19-8.37.25-2.78-1.24-4-2.91-4.27-1.38-.19-3.47.21-4.62,3.35a71.17,71.17,0,0,0-3.26,9.73,30,30,0,0,0-.21,12,1.13,1.13,0,0,1-.15.8,47.58,47.58,0,0,0-3,5.21,1.49,1.49,0,0,0,.62,1.88,1.34,1.34,0,0,0,.69.18,1.42,1.42,0,0,0,1.31-.83c.45-.93,1.36-2.69,1.72-3.42a25.78,25.78,0,0,0,1.2-2.64,4.15,4.15,0,0,0,0-2.31,23.93,23.93,0,0,1,.23-9.69,101,101,0,0,1,3.47-10.82c.35-.86.85-1.13,1.35-1.09s1.45.29,1.17,2c-.48,3.17-1.17,7.2-1.4,8.55-.11.67-.24,2.22,1,2.93,1,.56,2,.25,3.17-.53a59,59,0,0,0,10-8.49,23.4,23.4,0,0,0,4.7-7.13,1.34,1.34,0,0,1,1.56-.73c.31.09.7.52.43,1.43-.66,2.2-3.38,7.23-8.62,12a1,1,0,0,0-.2,1.5,1,1,0,0,0,1.44,0,34.68,34.68,0,0,0,8.6-11.37,21.7,21.7,0,0,0,1-2.63c.26-.75.83-1,1.23-.93.57.12,1,.71.77,1.67a17.37,17.37,0,0,1-1.28,3.58,50,50,0,0,1-8.13,11.16A1,1,0,0,0,125.56,64Z" style="fill-rule: evenodd"/>
  <path d="M104.29,48.06c.18-.16.11-.36.06-.52-.26-.81-1.7-4.2-2.08-4.87a.51.51,0,0,0-.69-.3,5.78,5.78,0,0,0-1.4,1A5.42,5.42,0,0,0,99,44.65a.51.51,0,0,0,.2.72c.62.46,3.79,2.33,4.56,2.69.15.07.35.17.53,0Z" style="fill-rule: evenodd"/>
  <path d="M103.05,50.28c0-.24-.25-.29-.42-.33-.82-.2-4.46-.73-5.24-.76a.51.51,0,0,0-.6.44,5.27,5.27,0,0,0,.13,1.73A5.27,5.27,0,0,0,97.38,53a.51.51,0,0,0,.72.21c.72-.29,4-2,4.67-2.5.14-.09.32-.21.28-.45Z" style="fill-rule: evenodd"/>
  <path d="M130.38,78c-.24,0-.31.22-.37.38-.29.8-1.2,4.36-1.31,5.13a.51.51,0,0,0,.37.65,5.48,5.48,0,0,0,1.73,0,5.62,5.62,0,0,0,1.71-.28.52.52,0,0,0,.28-.7c-.22-.74-1.6-4.15-2-4.9-.08-.15-.17-.35-.42-.33Z" style="fill-rule: evenodd"/>
  <path d="M132.43,76.34c-.11.22,0,.38.14.52.53.66,3.1,3.29,3.7,3.78a.51.51,0,0,0,.75,0,5.24,5.24,0,0,0,.94-1.45,5.49,5.49,0,0,0,.65-1.6.51.51,0,0,0-.45-.6c-.75-.21-4.38-.8-5.22-.85-.17,0-.39,0-.5.18Z" style="fill-rule: evenodd"/>
  <path d="M208.92,60.51H172.69a2.07,2.07,0,1,0,0,4.14h36.23a2.07,2.07,0,1,0,0-4.14Z" style="fill-rule: evenodd"/>
  <path d="M63.63,60.51H21.07a2.07,2.07,0,1,0,0,4.14H63.63a2.07,2.07,0,1,0,0-4.14Z" style="fill-rule: evenodd"/>
  <path d="M192.24,50H179.89a2.07,2.07,0,1,0,0,4.14h12.35a2.07,2.07,0,0,0,0-4.14Z" style="fill-rule: evenodd"/>
  <path d="M58.77,50h-8a2.07,2.07,0,0,0,0,4.14h8a2.07,2.07,0,0,0,0-4.14Z" style="fill-rule: evenodd"/>
  <path d="M201.21,71.55h-7.14a2.07,2.07,0,1,0,0,4.14h7.14a2.07,2.07,0,0,0,0-4.14Z" style="fill-rule: evenodd"/>
  <path d="M46.63,71.55H30.86a2.07,2.07,0,1,0,0,4.14H46.63a2.07,2.07,0,0,0,0-4.14Z" style="fill-rule: evenodd"/>
</svg>
