<svg xmlns="http://www.w3.org/2000/svg" width="244" height="245" viewBox="0 0 244 245">
    <defs>
        <filter id="a" width="114%" height="114%" x="-3.5%" y="-6.1%" filterUnits="objectBoundingBox">
            <feOffset dx="8" dy="2" in="SourceAlpha" result="shadowOffsetOuter1"/>
            <feGaussianBlur in="shadowOffsetOuter1" result="shadowBlurOuter1" stdDeviation="4"/>
            <feColorMatrix in="shadowBlurOuter1" result="shadowMatrixOuter1" values="0 0 0 0 0 0 0 0 0 0 0 0 0 0 0 0 0 0 0.3 0"/>
            <feMerge>
                <feMergeNode in="shadowMatrixOuter1"/>
                <feMergeNode in="SourceGraphic"/>
            </feMerge>
        </filter>
    </defs>
    <g fill="none" fill-rule="evenodd" filter="url(#a)" transform="translate(0 6)">
        <ellipse cx="114" cy="114.5" fill="#FFF" rx="111.862" ry="112.353"/>
        <g fill="#714B29">
            <path d="M155.76 118.008c2.88.036 4.91.816 5.555 2.19.475 1.016.11 2.183-.497 2.811-1.024 1.06-4.612 1.573-8.937 1.788a177.28 177.28 0 0 0 2.729-6.745l1.15-.044m6.005-18.394c.414.87.498 1.519.25 1.929-.34.562-1.468 1.223-3.588 1.575.036-2.298-.349-4.055-.924-5.472 2.422.192 3.625.627 4.262 1.968m7.518 10.006c.102.787-.092 1.144-.318 1.412-.867 1.034-3.767 2.346-12.652 2.721l-.128.006c.836-2.393 1.405-4.484 1.76-6.32.162-.018.322-.03.485-.052.067.003.133.014.2.01 7.414-.338 10.4.285 10.653 2.223m-17.685 23.741c-.178 1.34-1.585 1.803-4.72 1.943.826-1.559 1.616-3.13 2.37-4.702.92.203 1.67.498 2.056.927.128.143.468.52.294 1.832m-55.26-26.115c-2.381 2.445-4.436 4.557-5.944 6.36-2.433 2.909-3.477 2.913-3.469 2.92-.014-.008-.705-.448-1.186-3.162-.688-3.886-1.471-12.73-1.762-21.77a65.153 65.153 0 0 0 3.203-2.85c8.55-8.213 10.409-10.094 14.64-15.33 1.54-1.908 3.644-2.208 4.84-1.525 1.37.783 1.607 2.812.638 5.428-2.15 5.796-4.822 9.133-8.205 13.357-1.36 1.697-2.9 3.622-4.532 5.87a2.118 2.118 0 0 0 .465 2.955 2.105 2.105 0 0 0 2.947-.467c.62-.855 1.22-1.652 1.806-2.413 1.676.127 3.743.229 6.073.31-3.05 3.669-6.473 7.191-9.515 10.317m48.156 32.343c5.664-.027 10.608-.556 11.286-5.67.276-2.075-.139-3.777-1.22-5.07 4.923-.452 7.84-1.398 9.29-2.898 1.94-2.01 2.457-5.044 1.285-7.55-.17-.361-.401-.767-.714-1.182 3.922-.684 6.376-1.799 7.774-3.464 1.08-1.288 1.509-2.863 1.272-4.682-.513-3.942-3.81-5.367-7.584-5.823.563-1.202.848-3.022-.308-5.455-2.004-4.217-6.42-4.366-10.315-4.497l-.508-.02c-.112-.139-.24-.26-.376-.364 1.58-6.883 2.292-12.274 2.084-14.379-.283-2.858-1.861-5.064-4.223-5.9a5.831 5.831 0 0 0-1.988-.336c.436-2.789.661-5.075.682-6.632.055-4.085-2.55-8.425-7.635-8.841-3.642-.292-6.63 1.723-7.664 5.007-1.116-2.132-3.156-3.277-5.053-3.625-3.143-.563-6.933.692-7.855 3.812-1 3.381-5.077 13.684-9.922 24.434-.948 2.102-2.248 4.23-3.75 6.341a263.177 263.177 0 0 1-6.073-.217c3.226-4.04 6.023-7.72 8.274-13.788 2.063-5.563.06-9.11-2.502-10.574-3.235-1.85-7.529-.782-10.21 2.536-4.074 5.045-5.893 6.882-14.28 14.937a33.4 33.4 0 0 1-.41.387c-.33-6.256-4.505-8.778-8.076-9.016-4.173-.284-7.825 2.101-8.313 5.43-.177 1.203-.598 3.297-1.131 5.948-.673 3.344-1.553 7.723-2.4 12.613-6.6 4.441-13.047 8.48-17.024 10.8a2.118 2.118 0 0 0-.76 2.892 2.107 2.107 0 0 0 2.884.764c3.451-2.016 8.533-5.172 13.974-8.752-.634 4.194-1.187 8.594-1.531 12.931-.931 11.71 2.317 23.745 4.062 30.21l.172.638c-4.423 1.277-12.71 3.892-13.104 4.016a2.116 2.116 0 0 0 .633 4.132c.21 0 .423-.03.634-.098.093-.029 8.046-2.54 12.54-3.852-.317 1.373-1.014 3.687-1.857 6.486a532.703 532.703 0 0 0-2.319 7.848 2.115 2.115 0 0 0 1.724 2.674 2.11 2.11 0 0 0 2.332-1.51c.834-2.923 1.614-5.508 2.301-7.79 1.166-3.865 1.935-6.42 2.148-7.866.144-.98-.178-2.251-1.131-5.782-1.678-6.218-4.803-17.792-3.93-28.77.442-5.564 1.24-11.261 2.109-16.478.339-2.031.687-3.99 1.032-5.839a563.937 563.937 0 0 1 1.646-8.43c.546-2.713.977-4.857 1.17-6.169.137-.937 1.886-1.96 3.853-1.828 1.536.107 4.117.956 4.164 5.482.01.937.027 1.9.051 2.879v.004c.22 9.072 1.011 19.542 1.882 24.46.247 1.394.998 5.636 4.235 6.503 3.095.83 5.937-2.047 7.807-4.282 1.406-1.681 3.41-3.74 5.73-6.125 3.795-3.9 8.165-8.392 11.786-13.126.126-.164.247-.33.37-.495a60.763 60.763 0 0 0 1.017-1.391c.124-.175.246-.35.367-.526 1.477-2.13 2.77-4.294 3.748-6.466 4.919-10.912 9.084-21.46 10.123-24.973.139-.471 1.487-1.132 3.049-.855 1.217.224 2.625 1.039 2.43 3.65-.242 3.238-2.134 20.349-15.666 39.305-.677.95-.46 2.27.488 2.95.948.68 2.265.461 2.943-.489 6.136-8.596 9.99-16.77 12.413-23.63.158-.18.294-.383.387-.617a644.588 644.588 0 0 1 1.695-4.234c2.478-6.147 4.268-10.588 5-15.573.317-2.16 1.991-2.804 3.452-2.688 1.89.16 3.792 1.624 3.753 4.568-.097 7.195-5.185 32.405-16.624 49.23a2.118 2.118 0 0 0 1.434 3.283 2.11 2.11 0 0 0 2.052-.901c8.505-12.51 13.57-29.023 15.87-40.454.43-.254.923-.31 1.386-.146.79.28 1.312 1.13 1.43 2.332.175 1.76-.604 7.168-2.278 14.146-.324 1.35-.682 2.759-1.072 4.212-2.16 8.039-5.334 17.415-9.449 25.58a2.118 2.118 0 0 0 1.576 3.046 2.109 2.109 0 0 0 2.19-1.139c4.304-8.54 7.603-18.228 9.835-26.598.707 1.238 1.227 2.805 1.152 5.196a15.32 15.32 0 0 1-.021.453v.004a16.923 16.923 0 0 1-.086.96c0 .004 0 .01-.002.015-.018.163-.04.33-.064.5 0 .006 0 .01-.002.015-.024.172-.05.347-.08.526l-.002.01a22.233 22.233 0 0 1-.1.562c-.035.188-.073.379-.114.574l-.002.01c-.04.195-.085.394-.132.597-.341 1.475-.838 3.158-1.53 5.098a190.095 190.095 0 0 1-1.199 3.258l-.042.11a170.377 170.377 0 0 1-3.64 8.837c-.383.857-.779 1.724-1.19 2.6l-.009.02c-.41.873-.832 1.752-1.27 2.636a124.361 124.361 0 0 1-2.711 5.174 109.65 109.65 0 0 1-1.148 2.015l-.15.255c-.386.657-.778 1.31-1.179 1.957-3.074 4.964-6.581 9.59-10.485 13.156-3.068 2.803-5.833 5.164-8.272 7.248-6.565 5.607-10.902 9.312-12.942 14.54-2.59 6.634-4.036 12.798-4.097 13.057a2.115 2.115 0 0 0 1.75 2.573 2.11 2.11 0 0 0 2.36-1.612c.013-.06 1.442-6.138 3.915-12.477 1.655-4.24 5.67-7.67 11.75-12.862 2.465-2.106 5.258-4.491 8.378-7.341 4.788-4.374 8.985-10.109 12.595-16.275M105.238 192.568l-44.865-20.236c-3.268-1.476-7.13-.01-8.605 3.264l-2.406 5.337a2.117 2.117 0 0 0 1.054 2.798 2.108 2.108 0 0 0 2.79-1.056l2.407-5.338a2.295 2.295 0 0 1 3.03-1.15l44.864 20.237a7.624 7.624 0 0 1 4.253 8.847l-2.054 6.934a2.116 2.116 0 0 0 2.046 2.638c.941 0 1.799-.636 2.042-1.592l2.054-6.934a11.85 11.85 0 0 0-6.61-13.749M49.947 151.595L43.46 115.52a6.477 6.477 0 0 0-2.77-4.256 6.452 6.452 0 0 0-4.974-.977l-9.047 2.296a2.114 2.114 0 0 0-1.633 2.502 2.108 2.108 0 0 0 2.497 1.637l9.047-2.296a2.273 2.273 0 0 1 1.753.345c.518.35.864.882.976 1.5l6.486 36.075a11.215 11.215 0 0 1-4.932 11.415l-3.317 2.155a2.117 2.117 0 0 0-.623 2.924 2.105 2.105 0 0 0 2.917.624l3.318-2.154a15.437 15.437 0 0 0 6.789-15.714M49.537 31.932c.23 0 .463-.073.659-.225a87.8 87.8 0 0 1 1.017-.777c.477-.36.573-1.038.215-1.516a1.077 1.077 0 0 0-1.512-.215c-.348.262-.695.527-1.04.794a1.084 1.084 0 0 0 .66 1.94M44.211 36.336c.254 0 .508-.089.713-.27.321-.283.643-.564.967-.843.452-.39.504-1.073.115-1.527a1.077 1.077 0 0 0-1.522-.114c-.33.284-.66.571-.986.86a1.084 1.084 0 0 0 .713 1.894M39.181 41.079c.277 0 .554-.106.765-.319.301-.303.605-.605.91-.904a1.084 1.084 0 0 0 .016-1.53 1.077 1.077 0 0 0-1.527-.016c-.311.305-.62.613-.928.922a1.085 1.085 0 0 0 .764 1.847M34.468 46.14c.3 0 .6-.125.813-.37.28-.322.564-.643.85-.962a1.084 1.084 0 0 0-.083-1.528 1.077 1.077 0 0 0-1.525.083c-.291.326-.58.654-.868.983a1.084 1.084 0 0 0 .813 1.794M29.436 51.277a1.077 1.077 0 0 0 1.514-.202c.26-.34.52-.679.785-1.015.368-.47.287-1.15-.182-1.52a1.078 1.078 0 0 0-1.516.183c-.27.344-.537.69-.803 1.037a1.084 1.084 0 0 0 .202 1.517M218.25 107.444c.03.426.057.854.08 1.283a1.08 1.08 0 1 0 2.156-.122c-.024-.437-.051-.874-.081-1.31a1.076 1.076 0 0 0-1.151-1.005 1.081 1.081 0 0 0-1.003 1.154M67.05 20.94c.162 0 .326-.037.48-.114.381-.19.764-.377 1.148-.563.537-.259.763-.906.504-1.444a1.078 1.078 0 0 0-1.441-.505c-.392.188-.783.38-1.172.575a1.083 1.083 0 0 0 .482 2.051M60.98 24.217c.185 0 .372-.047.542-.147.369-.215.739-.427 1.11-.637.519-.295.701-.955.408-1.475a1.078 1.078 0 0 0-1.471-.41c-.379.215-.756.432-1.132.651a1.083 1.083 0 0 0 .544 2.018M55.134 27.887c.208 0 .417-.06.602-.184.353-.239.709-.475 1.066-.709.499-.328.638-.999.311-1.499-.326-.5-.995-.64-1.494-.312-.364.24-.727.48-1.088.724a1.083 1.083 0 0 0 .603 1.98M13.556 81.908a1.079 1.079 0 0 0 1.368-.68c.137-.408.277-.814.418-1.22a1.081 1.081 0 0 0-2.037-.717c-.145.415-.287.83-.427 1.247-.19.566.113 1.18.678 1.37M212.855 80.653c.139.404.275.81.409 1.217a1.08 1.08 0 1 0 2.05-.677c-.136-.416-.275-.83-.417-1.244a1.078 1.078 0 0 0-1.372-.672c-.564.194-.864.81-.67 1.376M8.54 109.064a1.08 1.08 0 0 0 1.145-1.012c.026-.428.055-.855.087-1.282a1.081 1.081 0 0 0-.995-1.16 1.083 1.083 0 0 0-1.158.998c-.033.436-.062.872-.09 1.309a1.081 1.081 0 0 0 1.01 1.147M8.705 122.903a1.081 1.081 0 0 0 1.006-1.152 104.37 104.37 0 0 1-.078-1.283c-.032-.597-.542-1.065-1.137-1.021a1.081 1.081 0 0 0-1.019 1.139c.024.437.05.873.08 1.309a1.08 1.08 0 0 0 1.148 1.008M11.503 135.329c-.084-.42-.164-.84-.243-1.262a1.08 1.08 0 1 0-2.122.398c.08.43.162.859.248 1.288a1.08 1.08 0 1 0 2.117-.424M25.473 56.955a1.079 1.079 0 0 0 1.497-.3c.238-.358.477-.713.719-1.067a1.084 1.084 0 0 0-.282-1.504 1.079 1.079 0 0 0-1.5.282c-.247.361-.491.723-.733 1.088-.331.497-.197 1.169.299 1.5M9.456 129.784a1.082 1.082 0 0 0 .93-1.214c-.057-.425-.11-.85-.16-1.276a1.082 1.082 0 0 0-1.201-.945 1.082 1.082 0 0 0-.944 1.203c.052.435.107.868.164 1.301a1.08 1.08 0 0 0 1.211.931M9.125 102.166a1.075 1.075 0 0 0 1.208-.936c.054-.425.111-.85.17-1.273a1.08 1.08 0 0 0-2.138-.302c-.06.432-.118.866-.174 1.3a1.082 1.082 0 0 0 .934 1.21M18.697 69.033a1.075 1.075 0 0 0 1.445-.495c.189-.385.38-.77.574-1.152a1.083 1.083 0 0 0-.475-1.454 1.079 1.079 0 0 0-1.45.475c-.199.391-.394.783-.587 1.177a1.084 1.084 0 0 0 .493 1.449M21.888 62.88a1.079 1.079 0 0 0 1.474-.397c.214-.371.43-.742.648-1.111a1.083 1.083 0 0 0-.378-1.483 1.077 1.077 0 0 0-1.48.38c-.222.376-.443.754-.66 1.134-.298.518-.121 1.18.396 1.478M10.158 95.321a1.08 1.08 0 0 0 1.267-.854c.082-.42.166-.841.253-1.26a1.082 1.082 0 0 0-.836-1.28 1.077 1.077 0 0 0-1.277.838c-.09.428-.176.857-.26 1.287a1.082 1.082 0 0 0 .853 1.27M15.915 75.384a1.08 1.08 0 0 0 1.41-.588c.163-.397.329-.794.497-1.188a1.08 1.08 0 1 0-1.986-.85c-.171.403-.34.807-.507 1.213a1.083 1.083 0 0 0 .586 1.413M11.637 88.559a1.077 1.077 0 0 0 1.32-.769c.11-.415.221-.828.336-1.241a1.08 1.08 0 1 0-2.08-.58c-.118.421-.232.843-.344 1.267-.152.577.191 1.17.768 1.323M13.061 142c-.11-.414-.22-.828-.325-1.243a1.079 1.079 0 1 0-2.092.536c.108.425.219.847.332 1.27a1.08 1.08 0 1 0 2.085-.564M8.398 115.985H8.4a1.08 1.08 0 0 0 1.078-1.084v-.203c0-.361.001-.722.005-1.083a1.081 1.081 0 0 0-1.069-1.093h-.01c-.592 0-1.074.478-1.08 1.072-.004.368-.005.736-.005 1.104v.207c0 .597.484 1.08 1.08 1.08M165.988 23.801c.371.214.741.43 1.11.649a1.076 1.076 0 0 0 1.478-.381 1.084 1.084 0 0 0-.38-1.483c-.376-.222-.754-.443-1.133-.662a1.078 1.078 0 0 0-1.474.4 1.084 1.084 0 0 0 .399 1.477M188.578 41.317a1.076 1.076 0 0 0 1.527.013 1.084 1.084 0 0 0 .013-1.53 109.85 109.85 0 0 0-.921-.93 1.077 1.077 0 0 0-1.527.004 1.085 1.085 0 0 0 .004 1.531c.303.302.604.606.904.912M177.375 31.396c.34.26.678.522 1.015.787a1.08 1.08 0 0 0 1.516-.184 1.084 1.084 0 0 0-.184-1.52c-.344-.27-.69-.537-1.036-.803a1.076 1.076 0 0 0-1.514.203 1.084 1.084 0 0 0 .203 1.517M171.806 27.412c.356.238.711.478 1.065.72a1.077 1.077 0 0 0 1.5-.283 1.084 1.084 0 0 0-.283-1.505c-.36-.246-.722-.491-1.086-.733a1.078 1.078 0 0 0-1.497.301c-.33.498-.196 1.17.301 1.5M153.699 17.761c.397.164.792.33 1.187.498a1.08 1.08 0 0 0 1.416-.572 1.083 1.083 0 0 0-.57-1.42c-.403-.172-.807-.34-1.212-.507a1.083 1.083 0 0 0-.821 2.001M147.28 15.36c.407.137.812.277 1.217.419a1.08 1.08 0 0 0 1.376-.663 1.083 1.083 0 0 0-.662-1.38 95.745 95.745 0 0 0-1.244-.427 1.082 1.082 0 0 0-.687 2.052M159.944 20.58c.385.189.768.38 1.15.573a1.079 1.079 0 0 0 1.45-.477 1.083 1.083 0 0 0-.475-1.454c-.39-.197-.782-.393-1.175-.586a1.08 1.08 0 0 0-1.444.495 1.084 1.084 0 0 0 .494 1.448M218.49 99.41c-.592.08-1.007.624-.928 1.217.057.424.112.849.164 1.275a1.08 1.08 0 1 0 2.143-.263 117.45 117.45 0 0 0-.166-1.3 1.077 1.077 0 0 0-1.214-.929M214.861 87.202c.112.413.221.827.328 1.242a1.08 1.08 0 0 0 1.315.778c.578-.15.925-.74.776-1.319-.11-.423-.22-.846-.335-1.268a1.079 1.079 0 1 0-2.084.567M210.912 75.438a1.08 1.08 0 1 0 2.001-.812c-.163-.404-.328-.806-.496-1.208a1.078 1.078 0 0 0-1.412-.58c-.55.23-.81.864-.58 1.416.165.393.327.788.487 1.184M208.04 69.058a1.08 1.08 0 1 0 1.944-.941c-.189-.393-.38-.784-.574-1.175a1.078 1.078 0 0 0-1.448-.485c-.534.266-.75.915-.485 1.45.19.383.378.765.563 1.15M197.492 51.691a1.078 1.078 0 0 0 1.512.212c.476-.36.57-1.038.212-1.516-.262-.348-.527-.695-.793-1.04a1.077 1.077 0 0 0-1.514-.194 1.084 1.084 0 0 0-.194 1.518c.261.338.52.679.777 1.02M201.423 57.289a1.077 1.077 0 0 0 1.495.311c.499-.328.638-.998.31-1.498-.238-.365-.48-.729-.723-1.09a1.078 1.078 0 0 0-1.498-.293 1.084 1.084 0 0 0-.292 1.502c.238.355.474.71.708 1.068M193.203 46.359a1.076 1.076 0 0 0 1.523.115c.452-.39.503-1.073.114-1.526a104.24 104.24 0 0 0-.86-.989 1.077 1.077 0 0 0-1.524-.095 1.084 1.084 0 0 0-.095 1.527c.283.321.564.644.842.968M140.732 13.395c.414.11.826.22 1.237.335a1.08 1.08 0 0 0 1.33-.752 1.082 1.082 0 0 0-.751-1.333c-.42-.117-.842-.23-1.264-.343a1.083 1.083 0 0 0-.552 2.093M99.906 10.866c.047 0 .095-.003.144-.01.423-.056.847-.11 1.272-.161a1.082 1.082 0 0 0-.26-2.15c-.433.054-.866.109-1.297.166a1.082 1.082 0 0 0 .14 2.155M86.373 13.59c.093 0 .188-.013.282-.038.412-.112.825-.221 1.24-.328a1.081 1.081 0 0 0-.538-2.096c-.422.109-.844.22-1.265.334a1.082 1.082 0 0 0 .28 2.128M73.319 18.07c.139 0 .28-.027.416-.084.392-.164.785-.326 1.18-.485a1.083 1.083 0 0 0-.807-2.008c-.403.163-.805.328-1.206.496a1.084 1.084 0 0 0 .417 2.081M79.77 15.615c.115 0 .233-.02.349-.059.404-.138.81-.275 1.216-.409a1.083 1.083 0 0 0-.675-2.056c-.414.137-.827.276-1.24.418a1.082 1.082 0 0 0 .35 2.106M106.777 10.176a103.984 103.984 0 0 1 1.353-.08 1.081 1.081 0 0 0 1.02-1.141 1.075 1.075 0 0 0-1.138-1.022c-.436.024-.872.051-1.307.08a1.081 1.081 0 0 0 .072 2.163M93.095 12.004c.07 0 .141-.007.213-.02.419-.085.839-.167 1.26-.246a1.083 1.083 0 0 0-.4-2.127c-.43.081-.857.165-1.285.25a1.082 1.082 0 0 0 .212 2.143M216.432 93.87c.085.42.167.84.246 1.261a1.08 1.08 0 1 0 2.122-.401c-.082-.43-.165-.86-.251-1.287a1.08 1.08 0 1 0-2.117.426M134.07 11.865c.42.082.84.167 1.258.254a1.08 1.08 0 0 0 1.276-.84 1.082 1.082 0 0 0-.84-1.28c-.426-.089-.853-.175-1.281-.258a1.083 1.083 0 0 0-.413 2.125M113.68 9.933h.307c.327 0 .653.002.98.005h.01a1.08 1.08 0 0 0 1.079-1.073 1.08 1.08 0 0 0-1.07-1.092c-.333-.003-.666-.004-.999-.004h-.31a1.081 1.081 0 0 0 .004 2.164M120.517 10.134c.427.027.854.055 1.28.086a1.081 1.081 0 0 0 1.156-1 1.082 1.082 0 0 0-.998-1.158c-.434-.032-.87-.062-1.305-.088a1.081 1.081 0 1 0-.133 2.16M127.322 10.778c.425.054.849.11 1.271.17a1.08 1.08 0 0 0 1.218-.923 1.083 1.083 0 0 0-.92-1.221c-.432-.06-.864-.118-1.297-.173a1.083 1.083 0 0 0-.272 2.147M204.98 63.13a1.079 1.079 0 0 0 1.472.408c.52-.295.701-.955.408-1.476-.215-.38-.432-.757-.65-1.134-.301-.516-.961-.691-1.477-.39-.515.301-.69.963-.39 1.48.215.369.428.74.638 1.111M166.278 205.427c-.369.214-.74.425-1.111.635a1.084 1.084 0 0 0 .53 2.025c.18 0 .362-.044.53-.139.378-.213.756-.43 1.132-.648.516-.299.693-.961.394-1.478a1.08 1.08 0 0 0-1.475-.395M177.62 197.812c-.339.261-.679.52-1.02.776a1.084 1.084 0 0 0-.218 1.515 1.078 1.078 0 0 0 1.512.217c.349-.262.696-.526 1.04-.791a1.084 1.084 0 0 0 .199-1.518 1.079 1.079 0 0 0-1.514-.199M172.071 201.806c-.354.238-.71.474-1.068.708a1.084 1.084 0 0 0 .591 1.988c.203 0 .407-.057.59-.176.364-.239.727-.479 1.088-.721a1.084 1.084 0 0 0 .297-1.502 1.079 1.079 0 0 0-1.498-.297M182.898 193.464c-.32.282-.643.562-.967.84a1.084 1.084 0 0 0 .702 1.905c.248 0 .498-.085.701-.26.331-.284.66-.57.989-.859a1.085 1.085 0 0 0 .099-1.527 1.078 1.078 0 0 0-1.524-.1M185.072 34.971c-.325-.292-.652-.581-.98-.869a1.078 1.078 0 0 0-1.524.104 1.085 1.085 0 0 0 .104 1.527c.322.282.642.565.96.851a1.076 1.076 0 0 0 1.525-.085c.398-.445.36-1.13-.085-1.528M187.886 188.78c-.302.302-.606.603-.912.902a1.084 1.084 0 0 0 .754 1.857c.272 0 .544-.103.754-.308.312-.305.622-.613.93-.922a1.083 1.083 0 0 0 0-1.53 1.077 1.077 0 0 0-1.526 0M134.47 217.452c-.42.083-.84.164-1.26.243a1.082 1.082 0 0 0 .395 2.128c.429-.081.857-.163 1.284-.248a1.081 1.081 0 0 0-.42-2.123M192.56 183.778c-.281.322-.565.642-.85.96a1.085 1.085 0 0 0 .8 1.807c.296 0 .59-.121.803-.358.292-.325.583-.652.87-.982a1.084 1.084 0 0 0-.1-1.526 1.077 1.077 0 0 0-1.523.1M141.125 215.896c-.412.11-.826.22-1.24.325a1.082 1.082 0 0 0 .533 2.097 110.8 110.8 0 0 0 1.266-.332 1.082 1.082 0 0 0-.559-2.09M160.264 208.659c-.382.189-.765.376-1.15.561a1.084 1.084 0 0 0 .468 2.058c.157 0 .316-.034.467-.107.392-.188.782-.38 1.172-.572.534-.265.753-.914.489-1.45a1.079 1.079 0 0 0-1.446-.49M154.054 211.487c-.393.164-.787.325-1.182.484a1.083 1.083 0 0 0 .403 2.087c.134 0 .27-.025.401-.078.404-.162.806-.327 1.206-.494a1.082 1.082 0 0 0-.828-1.999M147.664 213.905c-.404.138-.81.274-1.215.406a1.083 1.083 0 0 0 .67 2.058c.415-.136.828-.274 1.241-.416a1.082 1.082 0 0 0-.696-2.048M214.355 147.683a1.078 1.078 0 0 0-1.369.677c-.138.408-.278.814-.421 1.22a1.083 1.083 0 0 0 1.018 1.442 1.08 1.08 0 0 0 1.018-.722c.146-.414.289-.829.43-1.244a1.082 1.082 0 0 0-.676-1.373M218.826 127.434a1.081 1.081 0 0 0-1.21.933c-.055.425-.113.85-.173 1.273a1.082 1.082 0 0 0 1.07 1.235c.528 0 .99-.389 1.067-.928.061-.433.12-.866.177-1.3a1.082 1.082 0 0 0-.93-1.213M217.78 134.276a1.08 1.08 0 0 0-1.269.852c-.083.42-.168.84-.256 1.259a1.082 1.082 0 0 0 1.057 1.306c.5 0 .949-.35 1.056-.86.09-.428.177-.856.261-1.285a1.082 1.082 0 0 0-.85-1.272M216.288 141.036a1.081 1.081 0 0 0-1.322.767c-.11.414-.223.828-.338 1.24a1.083 1.083 0 0 0 1.04 1.374 1.08 1.08 0 0 0 1.04-.791c.116-.42.232-.843.344-1.265a1.083 1.083 0 0 0-.764-1.325M198.416 178.282a1.076 1.076 0 0 0-1.513.2c-.261.34-.524.677-.788 1.014a1.083 1.083 0 0 0 .847 1.752c.32 0 .635-.141.848-.412.27-.343.539-.689.805-1.036a1.084 1.084 0 0 0-.199-1.518M220.656 114.286a1.08 1.08 0 0 0-1.08-1.079h-.003a1.08 1.08 0 0 0-1.076 1.086v.405c0 .429-.002.857-.007 1.286a1.08 1.08 0 0 0 1.066 1.095h.013c.59 0 1.072-.476 1.08-1.07.005-.436.007-.873.007-1.313v-.41zM219.424 120.537a1.077 1.077 0 0 0-1.146 1.01c-.028.428-.058.855-.09 1.282a1.08 1.08 0 1 0 2.152.166c.034-.435.064-.872.092-1.309a1.081 1.081 0 0 0-1.008-1.15M202.39 172.613a1.077 1.077 0 0 0-1.498.298c-.238.356-.478.71-.72 1.064a1.084 1.084 0 0 0 .888 1.695c.343 0 .681-.163.89-.469.248-.36.493-.723.736-1.087.332-.496.2-1.168-.296-1.5M127.725 218.566a109.8 109.8 0 0 1-1.272.159 1.081 1.081 0 0 0 .255 2.15c.433-.052.866-.106 1.298-.164a1.082 1.082 0 0 0 .93-1.213 1.078 1.078 0 0 0-1.21-.932M205.987 166.693a1.079 1.079 0 0 0-1.475.395c-.215.372-.432.742-.65 1.11a1.083 1.083 0 0 0 .926 1.636c.368 0 .727-.188.929-.528.223-.376.444-.754.663-1.134a1.084 1.084 0 0 0-.393-1.479M211.983 154.203a1.079 1.079 0 0 0-1.41.585c-.164.397-.331.793-.5 1.188a1.083 1.083 0 0 0 .991 1.51c.419 0 .817-.246.993-.657.173-.403.343-.807.51-1.212a1.084 1.084 0 0 0-.584-1.414M209.19 160.548a1.079 1.079 0 0 0-1.447.491c-.19.385-.382.769-.576 1.151a1.083 1.083 0 0 0 .961 1.574c.393 0 .772-.216.963-.591.198-.39.394-.782.588-1.175a1.083 1.083 0 0 0-.49-1.45M56.002 201.871c-.357-.239-.711-.479-1.064-.722a1.078 1.078 0 0 0-1.5.281 1.084 1.084 0 0 0 .28 1.505c.36.247.72.493 1.084.735a1.079 1.079 0 0 0 1.498-.298 1.084 1.084 0 0 0-.298-1.5M39.256 187.935a1.077 1.077 0 0 0-1.527-.016 1.084 1.084 0 0 0-.016 1.53c.305.312.611.623.92.931a1.076 1.076 0 0 0 1.527-.001 1.085 1.085 0 0 0-.002-1.53c-.303-.303-.603-.608-.902-.914M15.054 148.553c-.137-.405-.273-.81-.406-1.218a1.08 1.08 0 1 0-2.052.673c.136.416.274.831.415 1.244a1.08 1.08 0 0 0 1.37.675c.565-.193.866-.808.673-1.374M44.192 192.677a1.077 1.077 0 0 0-1.524.082 1.084 1.084 0 0 0 .082 1.529c.325.292.65.582.979.87a1.074 1.074 0 0 0 1.523-.1 1.083 1.083 0 0 0-.1-1.527c-.321-.283-.641-.568-.96-.854M80.503 213.97a98.22 98.22 0 0 1-1.215-.42 1.083 1.083 0 0 0-.719 2.041c.413.146.828.29 1.243.43a1.08 1.08 0 0 0 1.368-.679 1.083 1.083 0 0 0-.677-1.371M74.09 211.559c-.397-.165-.792-.332-1.186-.5a1.08 1.08 0 0 0-1.417.568c-.235.55.019 1.186.567 1.421.402.173.806.342 1.21.51a1.08 1.08 0 0 0 1.41-.586 1.083 1.083 0 0 0-.584-1.413M61.813 205.494c-.371-.215-.74-.431-1.109-.651a1.08 1.08 0 0 0-1.479.378 1.084 1.084 0 0 0 .377 1.483c.375.224.752.445 1.131.664a1.08 1.08 0 0 0 1.475-.396c.298-.518.121-1.18-.395-1.478M67.85 208.728c-.384-.19-.767-.382-1.15-.577a1.078 1.078 0 0 0-1.45.475 1.083 1.083 0 0 0 .473 1.455c.39.198.78.394 1.173.588a1.08 1.08 0 0 0 1.446-.492 1.084 1.084 0 0 0-.492-1.45M50.44 197.877c-.34-.261-.677-.524-1.014-.79a1.078 1.078 0 0 0-1.515.183c-.369.47-.288 1.15.181 1.52.343.27.688.538 1.034.805a1.078 1.078 0 0 0 1.514-.2 1.084 1.084 0 0 0-.2-1.518M19.74 160.027a1.079 1.079 0 1 0-1.946.938c.188.393.379.784.572 1.174a1.08 1.08 0 1 0 1.934-.961c-.19-.383-.376-.766-.56-1.151M34.64 182.884a1.077 1.077 0 0 0-1.521-.118 1.083 1.083 0 0 0-.118 1.526c.284.333.57.662.858.99a1.077 1.077 0 0 0 1.524.099 1.085 1.085 0 0 0 .097-1.528c-.281-.32-.562-.644-.84-.969M16.988 153.772a1.08 1.08 0 1 0-2.003.807c.162.405.327.807.494 1.21a1.08 1.08 0 1 0 1.993-.833c-.164-.393-.325-.788-.484-1.184M22.895 166.091a1.079 1.079 0 0 0-1.47-.41 1.084 1.084 0 0 0-.41 1.474c.213.38.43.758.648 1.135a1.078 1.078 0 0 0 1.475.393c.516-.3.691-.962.392-1.48-.214-.369-.425-.74-.635-1.112M30.362 177.544a1.078 1.078 0 0 0-1.511-.216 1.084 1.084 0 0 0-.216 1.515c.262.35.526.697.791 1.043a1.076 1.076 0 0 0 1.514.197c.473-.364.56-1.044.197-1.518-.26-.338-.519-.679-.775-1.021M26.441 171.939c-.326-.5-.994-.641-1.494-.315-.499.327-.64.998-.313 1.498.238.366.479.73.721 1.092a1.077 1.077 0 0 0 1.498.295 1.084 1.084 0 0 0 .295-1.501c-.238-.355-.473-.711-.707-1.07M100.453 218.592c-.425-.055-.848-.112-1.27-.172a1.082 1.082 0 0 0-.303 2.143c.431.06.864.12 1.297.176a1.082 1.082 0 0 0 .276-2.147M87.047 215.95c-.413-.11-.825-.223-1.236-.338a1.082 1.082 0 0 0-.582 2.084c.42.118.842.232 1.264.345a1.08 1.08 0 0 0 1.32-.768 1.082 1.082 0 0 0-.766-1.324M120.923 219.235c-.427.028-.853.054-1.28.077a1.081 1.081 0 0 0-1.02 1.139 1.08 1.08 0 0 0 1.135 1.022c.436-.023.871-.05 1.306-.078a1.081 1.081 0 0 0-.141-2.16M93.707 217.491c-.42-.082-.84-.168-1.257-.255a1.083 1.083 0 0 0-.441 2.119c.426.089.853.176 1.281.26a1.08 1.08 0 0 0 1.268-.852 1.082 1.082 0 0 0-.85-1.272M114.09 219.462h-.103c-.393 0-.787-.001-1.18-.006h-.012c-.59 0-1.073.476-1.08 1.07a1.08 1.08 0 0 0 1.067 1.094c.394.005.788.007 1.195.007H114.09a1.08 1.08 0 0 0 1.079-1.083 1.08 1.08 0 0 0-1.08-1.082M107.257 219.249a104.02 104.02 0 0 1-1.28-.09 1.076 1.076 0 0 0-1.158.998c-.044.596.401 1.116.996 1.16a108.204 108.204 0 0 0 1.374.094c.565 0 1.04-.44 1.076-1.014a1.08 1.08 0 0 0-1.008-1.148M140.804 206.71l-4.772-11.824c-.263-.652-1.237-.39-1.14.306l1.766 12.632a2.163 2.163 0 1 0 4.146-1.113M155.985 186.434c-.422-.561-1.296-.056-1.022.591l4.967 11.744a2.16 2.16 0 0 0 3.072 1.031 2.17 2.17 0 0 0 .645-3.182l-7.662-10.184zM183.304 184.184a2.17 2.17 0 0 0-.198-3.241l-10.031-7.85c-.552-.432-1.266.283-.834.837l7.83 10.055a2.159 2.159 0 0 0 3.233.199M30.12 68.643l11.716 4.98c.646.274 1.15-.602.59-1.025l-10.16-7.68a2.159 2.159 0 0 0-3.173.646 2.17 2.17 0 0 0 1.028 3.08M197.854 160.753l-11.715-4.98c-.646-.274-1.15.602-.59 1.025l10.16 7.68a2.159 2.159 0 0 0 3.173-.647 2.17 2.17 0 0 0-1.028-3.078M19.3 89.264a2.167 2.167 0 0 0 1.788 2.707l12.601 1.77c.695.098.956-.878.306-1.141l-11.797-4.784a2.16 2.16 0 0 0-2.899 1.448M208.675 140.131a2.167 2.167 0 0 0-1.788-2.707l-12.602-1.77c-.694-.097-.955.879-.305 1.143l11.797 4.783a2.16 2.16 0 0 0 2.898-1.449M212.016 114.698a2.164 2.164 0 0 0-2.427-2.151l-12.63 1.56c-.695.085-.695 1.096 0 1.182l12.63 1.56a2.164 2.164 0 0 0 2.427-2.15M205.776 87.816L193.98 92.6c-.65.263-.389 1.24.305 1.142l12.602-1.77a2.167 2.167 0 1 0-1.11-4.156M186.139 73.623l11.715-4.98a2.17 2.17 0 0 0 1.028-3.079 2.16 2.16 0 0 0-3.174-.646l-10.16 7.68c-.559.423-.054 1.3.59 1.025"/>
            <path d="M192.146 193.047c-20.877 20.928-48.634 32.454-78.159 32.454-29.524 0-57.281-11.526-78.158-32.454-20.877-20.928-32.374-48.753-32.374-78.349 0-29.596 11.497-57.421 32.374-78.35C56.706 15.422 84.463 3.897 113.987 3.897c29.525 0 57.282 11.525 78.159 32.453 20.877 20.928 32.374 48.753 32.374 78.35 0 29.595-11.497 57.42-32.374 78.348M194.589 33.9C173.059 12.318 144.434.433 113.987.433c-30.447 0-59.072 11.885-80.6 33.467C11.856 55.482 0 84.177 0 114.698s11.857 59.216 33.386 80.798c21.53 21.582 50.154 33.468 80.601 33.468 30.447 0 59.072-11.886 80.602-33.468 21.529-21.582 33.386-50.277 33.386-80.798S216.118 55.482 194.589 33.9"/>
            <path d="M67.377 52.147l-1.467-1.665-6.099 5.402L49.24 43.89l-1.91 1.692 12.038 13.66zM72.08 49.175L62 34.003l-2.122 1.417 10.08 15.171zM76.221 46.47l2.312-1.079-3.522-7.584 2.452-1.143 7.911 5.535 2.615-1.22-9.1-6.262-.022-.047 1.146-10.075-2.545 1.188-.929 8.89-2.451 1.145-3.228-6.951-2.312 1.078zM90.775 40.262l10.684-2.609-.524-2.157-8.207 2.004-1.383-5.693 6.33-1.546-.524-2.157-6.33 1.546-1.347-5.543 7.78-1.9-.523-2.157-10.258 2.505zM119.856 37.402c4.551.268 7.214-2.471 7.214-2.471l-1.255-1.91s-2.325 2.242-5.744 2.04c-4.037-.238-6.543-3.696-6.315-7.588.227-3.865 3.057-6.802 7.118-6.563 3.137.186 5.129 2.294 5.129 2.294l1.372-1.833s-2.097-2.529-6.467-2.786c-5.27-.31-9.466 3.477-9.775 8.76-.314 5.335 3.273 9.736 8.723 10.057M133.952 29.687c1.204-3.788 4.982-5.726 8.516-4.597 3.533 1.128 5.473 4.89 4.27 8.68-1.243 3.91-5.028 5.954-8.562 4.826-3.534-1.128-5.467-4.998-4.224-8.909m3.513 11.147c5.006 1.599 10.15-1.148 11.776-6.265 1.587-4.994-1.064-10.095-6.07-11.693-5.006-1.598-10.136 1.018-11.722 6.012-1.626 5.117 1.01 10.348 6.016 11.946M151.697 46.66l8.584-16.068-2.248-1.207-8.584 16.069zM169.213 36.074l-1.988-1.557-11.197 14.358 2.009 1.573 7.263-9.314c.634-.813 1.492-2.205 1.492-2.205l.04.031s-.345 1.826-.436 3.033l-.873 14.322 1.968 1.542 11.196-14.358-2.008-1.574-7.28 9.335c-.618.793-1.475 2.186-1.475 2.186l-.04-.032s.345-1.826.42-3.012l.909-14.328z"/>
        </g>
    </g>
</svg>
