<svg xmlns="http://www.w3.org/2000/svg" width="142" height="144" viewBox="0 0 142 144">
    <g fill="none" fill-rule="evenodd">
        <ellipse cx="71" cy="72" fill="#FFF" rx="69.669" ry="70.65"/>
        <g fill="#6E4B28">
            <path d="M97.008 74.206c1.795.023 3.059.513 3.46 1.378.296.638.068 1.372-.31 1.767-.637.667-2.872.99-5.565 1.124a112.103 112.103 0 0 0 1.699-4.242l.716-.027m3.74-11.567c.258.547.31.956.156 1.213-.211.354-.914.77-2.234.99.022-1.445-.218-2.55-.576-3.44 1.509.12 2.258.394 2.655 1.237m4.682 6.292c.063.495-.058.72-.198.888-.54.65-2.346 1.475-7.88 1.711l-.08.004c.52-1.505.875-2.82 1.096-3.974.101-.012.2-.02.303-.033.041.002.082.009.124.007 4.617-.213 6.478.179 6.635 1.397m-11.015 14.93c-.11.842-.987 1.133-2.94 1.221a83.737 83.737 0 0 0 1.477-2.956c.573.127 1.04.313 1.28.582.08.09.292.328.183 1.152M60 67.44c-1.482 1.537-2.762 2.865-3.701 3.999-1.515 1.83-2.165 1.832-2.16 1.836-.01-.005-.44-.282-.739-1.988-.429-2.444-.916-8.006-1.098-13.69a40.709 40.709 0 0 0 1.995-1.792c5.325-5.164 6.483-6.347 9.118-9.64.96-1.2 2.27-1.388 3.015-.959.853.492 1 1.769.397 3.413-1.34 3.645-3.003 5.743-5.11 8.4-.847 1.067-1.807 2.277-2.823 3.691a1.34 1.34 0 0 0 .29 1.858c.586.432 1.408.3 1.835-.293.387-.538.76-1.04 1.125-1.518 1.044.08 2.331.144 3.783.195-1.9 2.307-4.032 4.522-5.927 6.488m29.993 20.338c3.527-.017 6.606-.35 7.029-3.565.171-1.306-.087-2.376-.76-3.189 3.066-.284 4.882-.88 5.785-1.823 1.21-1.263 1.53-3.17.8-4.746a4.203 4.203 0 0 0-.444-.744c2.443-.43 3.97-1.131 4.841-2.178.674-.81.94-1.8.793-2.945-.32-2.478-2.373-3.375-4.724-3.661.35-.756.529-1.9-.191-3.43-1.249-2.652-3.998-2.746-6.425-2.829l-.316-.012a1.365 1.365 0 0 0-.234-.228c.983-4.329 1.427-7.719 1.298-9.042-.177-1.798-1.16-3.185-2.63-3.71a3.6 3.6 0 0 0-1.239-.212c.272-1.754.412-3.191.425-4.17.035-2.569-1.588-5.298-4.755-5.56-2.268-.183-4.129 1.084-4.773 3.149-.695-1.341-1.966-2.06-3.147-2.28-1.958-.354-4.318.435-4.893 2.398-.622 2.126-3.161 8.604-6.179 15.364-.59 1.322-1.4 2.66-2.335 3.987-1.386-.036-2.667-.08-3.783-.136 2.01-2.54 3.752-4.855 5.153-8.67 1.285-3.498.038-5.729-1.558-6.65-2.015-1.163-4.689-.491-6.358 1.596-2.538 3.172-3.67 4.327-8.894 9.392l-.255.244c-.206-3.935-2.806-5.52-5.03-5.67-2.6-.179-4.874 1.321-5.178 3.415-.11.756-.372 2.073-.704 3.74a291.948 291.948 0 0 0-1.495 7.931c-4.11 2.793-8.126 5.332-10.602 6.791a1.339 1.339 0 0 0-.474 1.819 1.3 1.3 0 0 0 1.797.48c2.149-1.267 5.314-3.252 8.702-5.503-.394 2.637-.739 5.404-.953 8.131-.58 7.363 1.443 14.931 2.53 18.997l.107.4c-2.755.804-7.916 2.448-8.162 2.526a1.333 1.333 0 0 0-.858 1.668c.176.568.694.93 1.253.93.13 0 .263-.019.395-.061.058-.018 5.01-1.597 7.81-2.422-.198.863-.632 2.318-1.157 4.078-.431 1.443-.92 3.079-1.444 4.935a1.332 1.332 0 0 0 1.073 1.682 1.314 1.314 0 0 0 1.453-.95c.52-1.838 1.005-3.464 1.433-4.898.726-2.43 1.205-4.037 1.338-4.947.09-.616-.111-1.415-.705-3.635-1.045-3.91-2.99-11.189-2.447-18.091.275-3.5.772-7.082 1.313-10.362.211-1.278.428-2.51.643-3.672.37-2.013.73-3.82 1.025-5.301.34-1.706.608-3.054.728-3.879.086-.59 1.175-1.233 2.4-1.15.957.068 2.565.602 2.594 3.447.006.59.017 1.195.032 1.81v.003c.137 5.705.63 12.289 1.172 15.381.154.877.621 3.544 2.637 4.09 1.928.521 3.698-1.288 4.862-2.693.876-1.057 2.124-2.352 3.57-3.851 2.363-2.453 5.084-5.278 7.34-8.254.078-.104.154-.208.23-.312a38.195 38.195 0 0 0 .634-.874c.077-.11.152-.22.228-.331.92-1.34 1.725-2.7 2.334-4.066 3.064-6.862 5.658-13.494 6.305-15.704.086-.296.926-.712 1.899-.537.758.14 1.635.653 1.513 2.295-.15 2.036-1.329 12.796-9.756 24.716a1.34 1.34 0 0 0 .303 1.855c.59.427 1.411.29 1.834-.308 3.82-5.405 6.221-10.545 7.73-14.86.099-.112.183-.24.241-.387.373-.953.726-1.835 1.056-2.662 1.543-3.866 2.658-6.658 3.114-9.793.197-1.358 1.24-1.763 2.15-1.69 1.177.101 2.362 1.021 2.337 2.872-.06 4.525-3.23 20.377-10.354 30.957a1.34 1.34 0 0 0 .346 1.848 1.304 1.304 0 0 0 1.826-.35c5.297-7.867 8.451-18.25 9.884-25.439.267-.159.574-.194.863-.091.492.176.817.71.891 1.466.109 1.107-.377 4.508-1.42 8.896a102.19 102.19 0 0 1-.667 2.648c-1.346 5.055-3.322 10.951-5.885 16.085a1.338 1.338 0 0 0 .58 1.787 1.31 1.31 0 0 0 1.765-.587c2.681-5.37 4.736-11.462 6.126-16.726.44.779.764 1.764.717 3.268a9.726 9.726 0 0 1-.013.284v.003a10.743 10.743 0 0 1-.053.603l-.001.01c-.012.103-.025.208-.04.315l-.001.009c-.015.108-.032.218-.05.33l-.002.007a14.102 14.102 0 0 1-.133.714v.006a19.19 19.19 0 0 1-.083.376 29.35 29.35 0 0 1-.953 3.205 120.266 120.266 0 0 1-.747 2.049l-.026.07a107.776 107.776 0 0 1-2.267 5.556 97.946 97.946 0 0 1-.74 1.635l-.007.012a78.47 78.47 0 0 1-2.48 4.912 69.13 69.13 0 0 1-.714 1.267l-.094.16a60.6 60.6 0 0 1-.734 1.231c-1.914 3.121-4.099 6.03-6.53 8.273-1.91 1.762-3.633 3.247-5.152 4.557-4.089 3.526-6.79 5.856-8.06 9.144a67.494 67.494 0 0 0-2.552 8.21 1.33 1.33 0 0 0 1.09 1.618c.669.1 1.313-.335 1.47-1.013.008-.038.898-3.86 2.438-7.846 1.03-2.666 3.532-4.823 7.318-8.089 1.535-1.323 3.275-2.824 5.218-4.616 2.982-2.75 5.596-6.356 7.845-10.233M65.543 121.09l-27.942-12.724c-2.036-.928-4.44-.007-5.36 2.053l-1.498 3.356a1.337 1.337 0 0 0 .656 1.76c.661.301 1.44.004 1.738-.665l1.499-3.357a1.424 1.424 0 0 1 1.887-.722l27.942 12.725c2.106.959 3.22 3.298 2.649 5.563l-1.28 4.36c-.179.712.246 1.436.949 1.617a1.308 1.308 0 0 0 1.598-.96l1.279-4.36c.887-3.519-.844-7.155-4.117-8.645M31.107 95.326l-4.04-22.685a4.076 4.076 0 0 0-1.724-2.677 3.987 3.987 0 0 0-3.099-.614l-5.634 1.444a1.33 1.33 0 0 0-1.017 1.573c.148.719.844 1.181 1.554 1.03l5.635-1.444c.382-.08.77-.004 1.092.217.323.22.538.555.608.943l4.04 22.685a7.08 7.08 0 0 1-3.072 7.178l-2.066 1.355a1.34 1.34 0 0 0-.388 1.838 1.308 1.308 0 0 0 1.817.393l2.066-1.355c3.257-2.136 4.917-6.015 4.228-9.88M30.852 20.08a.664.664 0 0 0 .41-.142c.21-.165.422-.328.634-.489a.686.686 0 0 0 .134-.953.667.667 0 0 0-.942-.135c-.217.165-.433.331-.648.5a.686.686 0 0 0-.12.954.668.668 0 0 0 .532.265M27.535 22.849a.664.664 0 0 0 .444-.17c.2-.178.4-.355.602-.53a.686.686 0 0 0 .072-.96.666.666 0 0 0-.948-.072c-.206.179-.41.36-.614.54a.686.686 0 0 0-.06.961c.132.153.318.23.504.23M24.402 25.831a.667.667 0 0 0 .477-.2c.187-.191.376-.38.566-.569a.686.686 0 0 0 .01-.962.667.667 0 0 0-.95-.01c-.194.192-.387.386-.579.58a.687.687 0 0 0 .002.963.667.667 0 0 0 .474.198M21.467 29.014a.667.667 0 0 0 .506-.232c.175-.203.352-.405.53-.606a.686.686 0 0 0-.052-.96.666.666 0 0 0-.95.052c-.181.205-.361.41-.54.617a.686.686 0 0 0 .063.96.665.665 0 0 0 .443.169M18.333 32.244a.664.664 0 0 0 .942-.127c.162-.214.325-.427.49-.638a.686.686 0 0 0-.113-.956.667.667 0 0 0-.945.115c-.167.216-.334.433-.5.652a.686.686 0 0 0 .126.954M135.928 67.563c.018.268.035.537.05.807a.676.676 0 0 0 .709.64.678.678 0 0 0 .633-.717c-.015-.275-.032-.55-.05-.823a.673.673 0 1 0-1.342.093M41.76 13.167c.1 0 .202-.023.298-.071.238-.12.476-.237.715-.354a.684.684 0 0 0 .314-.908.668.668 0 0 0-.898-.318c-.243.119-.487.24-.73.362a.684.684 0 0 0-.302.912c.118.239.356.377.603.377M37.98 15.228c.114 0 .23-.03.336-.092.23-.135.46-.269.692-.401a.685.685 0 0 0 .254-.927.668.668 0 0 0-.916-.258c-.236.135-.471.272-.705.41a.685.685 0 0 0-.244.93.67.67 0 0 0 .582.338M34.338 17.536c.13 0 .26-.038.375-.116.22-.15.441-.298.664-.446a.686.686 0 0 0 .194-.942.667.667 0 0 0-.931-.196c-.227.15-.453.302-.678.455a.685.685 0 0 0-.183.944c.13.195.343.301.559.301M8.443 51.506a.666.666 0 0 0 .852-.428c.085-.257.172-.512.26-.767a.683.683 0 0 0-.412-.867.672.672 0 0 0-.857.416c-.09.26-.178.522-.266.784a.682.682 0 0 0 .423.862M132.568 50.716c.086.255.171.51.254.766a.674.674 0 0 0 .85.433.682.682 0 0 0 .427-.86 66.445 66.445 0 0 0-.26-.781.67.67 0 0 0-.854-.423.682.682 0 0 0-.417.865M5.318 68.582l.043.001a.676.676 0 0 0 .67-.638c.017-.269.035-.537.055-.806a.678.678 0 0 0-.62-.73.676.676 0 0 0-.72.629c-.021.273-.04.548-.057.822a.678.678 0 0 0 .63.722M5.421 77.284a.678.678 0 0 0 .627-.724A66.257 66.257 0 0 1 6 75.753a.671.671 0 0 0-.708-.642.677.677 0 0 0-.635.716c.015.275.031.549.05.823a.676.676 0 0 0 .714.634M7.164 85.098a69.941 69.941 0 0 1-.151-.794.673.673 0 0 0-.785-.543.68.68 0 0 0-.537.794c.05.27.101.54.155.81a.674.674 0 0 0 .79.533.68.68 0 0 0 .528-.8M15.865 35.814a.664.664 0 0 0 .932-.188c.148-.225.297-.448.448-.67a.686.686 0 0 0-.175-.947.668.668 0 0 0-.935.177c-.154.227-.306.455-.457.684a.686.686 0 0 0 .187.944M5.89 81.611a.679.679 0 0 0 .578-.764 65.272 65.272 0 0 1-.1-.802.675.675 0 0 0-.747-.594.679.679 0 0 0-.588.756c.033.274.066.546.102.819a.675.675 0 0 0 .755.585M5.683 64.244a.675.675 0 0 0 .752-.588c.034-.268.07-.535.107-.801a.68.68 0 0 0-.572-.769.674.674 0 0 0-.76.579c-.038.272-.074.544-.109.817a.68.68 0 0 0 .582.762M11.645 43.41a.664.664 0 0 0 .9-.312c.117-.242.236-.484.357-.724a.684.684 0 0 0-.296-.915.669.669 0 0 0-.903.3c-.124.245-.245.491-.365.74a.684.684 0 0 0 .307.91M13.632 39.54a.67.67 0 0 0 .918-.25c.133-.233.268-.466.404-.698a.685.685 0 0 0-.236-.932.667.667 0 0 0-.921.238c-.139.237-.276.475-.412.713a.685.685 0 0 0 .247.93M6.326 59.94a.675.675 0 0 0 .79-.537c.05-.265.103-.529.157-.792a.68.68 0 0 0-.52-.805.671.671 0 0 0-.796.527c-.055.269-.11.538-.162.809a.68.68 0 0 0 .531.798M9.912 47.403a.667.667 0 0 0 .878-.37c.102-.25.205-.499.31-.747a.684.684 0 0 0-.355-.893.67.67 0 0 0-.882.359c-.107.253-.212.507-.316.762a.683.683 0 0 0 .365.89M7.247 55.688a.674.674 0 0 0 .822-.483c.069-.262.138-.522.21-.781a.681.681 0 0 0-.468-.838.671.671 0 0 0-.828.473c-.073.265-.144.53-.214.797a.682.682 0 0 0 .478.832M8.135 89.292c-.07-.26-.137-.52-.203-.781a.671.671 0 0 0-.818-.49.681.681 0 0 0-.485.827c.068.267.136.533.207.798a.674.674 0 0 0 .824.48.681.681 0 0 0 .475-.834M5.23 72.934h.001a.676.676 0 0 0 .672-.682v-.128c0-.227 0-.454.003-.68a.677.677 0 0 0-.665-.688h-.007c-.369 0-.669.3-.673.674a74.66 74.66 0 0 0-.003.694v.13c0 .376.302.68.672.68M103.379 14.967c.23.134.461.27.69.408a.665.665 0 0 0 .921-.24.685.685 0 0 0-.236-.932c-.234-.14-.47-.28-.706-.416a.668.668 0 0 0-.918.25.685.685 0 0 0 .249.93M117.448 25.98a.667.667 0 0 0 .95.01.686.686 0 0 0 .009-.963c-.19-.196-.382-.39-.574-.584a.666.666 0 0 0-.951.002.687.687 0 0 0 .003.963c.188.19.376.38.563.573M110.47 19.742c.212.164.423.329.632.495a.663.663 0 0 0 .944-.116.686.686 0 0 0-.114-.955c-.214-.17-.43-.338-.645-.505a.666.666 0 0 0-.943.127.686.686 0 0 0 .126.954M107.002 17.237c.222.15.443.3.663.453a.669.669 0 0 0 .934-.178.686.686 0 0 0-.176-.946 63.23 63.23 0 0 0-.676-.461.668.668 0 0 0-.932.189.686.686 0 0 0 .187.943M95.725 11.169c.247.103.493.207.74.313a.673.673 0 0 0 .882-.36.684.684 0 0 0-.357-.893c-.25-.108-.501-.214-.754-.319a.669.669 0 0 0-.877.37.683.683 0 0 0 .366.889M91.727 9.66c.253.085.506.173.758.262a.673.673 0 0 0 .857-.417.683.683 0 0 0-.412-.867c-.258-.092-.516-.181-.775-.269a.67.67 0 0 0-.851.429.682.682 0 0 0 .423.861M99.614 12.94c.24.12.479.24.717.362a.671.671 0 0 0 .903-.3.684.684 0 0 0-.297-.915 63.504 63.504 0 0 0-.73-.368.67.67 0 0 0-.9.311.685.685 0 0 0 .307.91M136.077 62.511a.68.68 0 0 0-.578.765c.036.267.07.534.102.802a.675.675 0 0 0 .749.593.679.679 0 0 0 .586-.758 74.532 74.532 0 0 0-.103-.818.672.672 0 0 0-.756-.584M133.817 54.835c.07.26.138.52.204.78a.674.674 0 0 0 .82.49.682.682 0 0 0 .482-.83 68.06 68.06 0 0 0-.208-.797.671.671 0 0 0-.825-.478.681.681 0 0 0-.473.835M131.357 47.437a.672.672 0 0 0 .876.375.684.684 0 0 0 .37-.886 68.868 68.868 0 0 0-.308-.76.669.669 0 0 0-.88-.364.683.683 0 0 0-.36.89c.102.248.203.496.302.745M129.569 43.425a.672.672 0 0 0 .897.317.684.684 0 0 0 .314-.909 68.941 68.941 0 0 0-.358-.738.669.669 0 0 0-.902-.306.684.684 0 0 0-.302.913c.119.24.235.48.35.723M123 32.504a.669.669 0 0 0 .941.134.686.686 0 0 0 .132-.953 71.544 71.544 0 0 0-.494-.655.666.666 0 0 0-.943-.122.686.686 0 0 0-.12.955c.162.213.323.427.483.641M125.448 36.024a.67.67 0 0 0 .931.196.686.686 0 0 0 .193-.942c-.149-.23-.299-.458-.45-.686a.667.667 0 0 0-.934-.184.685.685 0 0 0-.181.945c.148.223.295.447.44.671M120.328 29.151a.667.667 0 0 0 .949.073.686.686 0 0 0 .07-.96 65.382 65.382 0 0 0-.535-.622.666.666 0 0 0-.949-.06.687.687 0 0 0-.059.961c.176.202.35.405.524.608M87.649 8.423c.258.069.514.139.77.21a.674.674 0 0 0 .828-.473.681.681 0 0 0-.467-.837 63.31 63.31 0 0 0-.787-.216.67.67 0 0 0-.822.484.682.682 0 0 0 .478.832M62.222 6.833c.03 0 .06-.002.09-.006.263-.036.527-.07.792-.102a.68.68 0 0 0 .587-.757.675.675 0 0 0-.748-.594c-.27.033-.54.068-.809.103a.68.68 0 0 0-.578.765c.045.342.334.59.666.59M53.794 8.545a.656.656 0 0 0 .175-.024c.257-.07.514-.138.772-.206a.68.68 0 0 0 .484-.828.672.672 0 0 0-.818-.49c-.264.069-.526.139-.788.21a.681.681 0 0 0 .175 1.338M45.663 11.363a.661.661 0 0 0 .26-.053c.244-.103.489-.205.734-.305a.683.683 0 0 0 .373-.886.67.67 0 0 0-.875-.377 65.16 65.16 0 0 0-.751.312.684.684 0 0 0-.361.89.673.673 0 0 0 .62.419M49.681 9.819a.662.662 0 0 0 .218-.037c.251-.087.504-.173.757-.257a.682.682 0 0 0 .429-.859.67.67 0 0 0-.85-.434c-.257.086-.515.173-.772.262a.682.682 0 0 0 .218 1.325M66.502 6.399c.015 0 .03 0 .046-.002.265-.018.53-.035.796-.05a.678.678 0 0 0 .635-.716.672.672 0 0 0-.708-.642c-.272.015-.543.032-.814.05a.678.678 0 0 0-.626.725c.024.36.32.635.67.635M57.98 7.549a.673.673 0 0 0 .133-.014c.26-.053.522-.104.784-.154a.68.68 0 0 0 .536-.795.673.673 0 0 0-.785-.542c-.267.05-.534.103-.8.157a.68.68 0 0 0-.526.8.674.674 0 0 0 .658.548M134.796 59.027c.052.264.103.528.153.794a.674.674 0 0 0 .785.542.68.68 0 0 0 .536-.795c-.05-.27-.103-.54-.156-.81a.673.673 0 0 0-.792-.532.68.68 0 0 0-.526.801M83.5 7.461c.261.052.523.105.783.16a.675.675 0 0 0 .794-.529.68.68 0 0 0-.522-.805c-.265-.055-.531-.11-.798-.162a.673.673 0 0 0-.789.538.68.68 0 0 0 .532.798M70.801 6.246h.191c.204 0 .407.001.61.003h.006c.369 0 .67-.3.672-.674a.677.677 0 0 0-.666-.687 67.593 67.593 0 0 0-.622-.003H70.8a.677.677 0 0 0-.67.684.676.676 0 0 0 .672.677M75.059 6.372a76.753 76.753 0 0 1 .847.057.676.676 0 0 0 .67-.63.678.678 0 0 0-.622-.73c-.27-.02-.541-.038-.813-.055a.679.679 0 0 0-.712.638.678.678 0 0 0 .63.72M79.297 6.777c.265.034.529.07.792.107a.675.675 0 0 0 .759-.58.68.68 0 0 0-.574-.768 78.962 78.962 0 0 0-.807-.109.676.676 0 0 0-.752.59.68.68 0 0 0 .582.76M127.664 39.697a.67.67 0 0 0 .916.257.685.685 0 0 0 .254-.928 68.358 68.358 0 0 0-.405-.713.668.668 0 0 0-.92-.245.685.685 0 0 0-.242.93c.133.232.266.465.397.699M103.56 129.177c-.23.134-.461.267-.693.4a.685.685 0 0 0-.256.926.67.67 0 0 0 .916.26c.236-.135.471-.271.705-.408a.685.685 0 0 0 .246-.93.669.669 0 0 0-.919-.248M110.622 124.389c-.21.164-.422.326-.635.487a.686.686 0 0 0-.135.953.67.67 0 0 0 .941.137c.218-.165.434-.331.649-.498a.686.686 0 0 0 .123-.955.668.668 0 0 0-.943-.124M107.167 126.9c-.22.15-.442.298-.665.445a.686.686 0 0 0-.196.942.67.67 0 0 0 .931.197c.227-.15.453-.3.678-.453a.686.686 0 0 0 .185-.944.668.668 0 0 0-.933-.187M113.91 121.654c-.2.178-.4.354-.602.529a.686.686 0 0 0-.074.96.668.668 0 0 0 .948.074c.206-.179.411-.359.615-.54a.687.687 0 0 0 .062-.96.667.667 0 0 0-.949-.063M115.264 21.99a64.668 64.668 0 0 0-.61-.546.667.667 0 0 0-.95.066.687.687 0 0 0 .065.96c.2.177.4.355.599.535a.666.666 0 0 0 .949-.054.686.686 0 0 0-.053-.96M117.017 118.708c-.189.19-.378.38-.568.568a.686.686 0 0 0-.012.962.667.667 0 0 0 .95.012c.195-.192.388-.385.58-.58a.686.686 0 0 0 0-.962.666.666 0 0 0-.95 0M83.748 136.738c-.26.052-.522.103-.784.153a.68.68 0 0 0-.538.794.674.674 0 0 0 .784.544c.267-.05.534-.102.8-.156a.68.68 0 0 0 .528-.8.672.672 0 0 0-.79-.535M119.928 115.564c-.175.202-.352.403-.53.603a.687.687 0 0 0 .05.961.665.665 0 0 0 .949-.05c.182-.204.363-.41.542-.617a.686.686 0 0 0-.062-.96.666.666 0 0 0-.949.063M87.894 135.76c-.257.07-.515.138-.773.204a.681.681 0 0 0 .332 1.32c.264-.069.527-.139.789-.21a.681.681 0 0 0-.348-1.314M99.813 131.209c-.237.119-.476.236-.716.353a.684.684 0 0 0-.314.908.672.672 0 0 0 .897.319c.244-.119.487-.239.73-.36a.684.684 0 0 0 .304-.912.67.67 0 0 0-.9-.308M95.946 132.988c-.245.103-.49.204-.736.304a.683.683 0 0 0-.374.885.673.673 0 0 0 .875.378c.25-.102.501-.205.75-.31a.683.683 0 0 0 .364-.89.67.67 0 0 0-.879-.367M91.966 134.508c-.251.087-.504.172-.757.255a.683.683 0 0 0 .209 1.328c.069 0 .14-.01.208-.034.26-.085.517-.172.774-.261a.682.682 0 0 0 .42-.863.67.67 0 0 0-.854-.425M133.502 92.866a.67.67 0 0 0-.853.426c-.086.256-.173.512-.262.767a.683.683 0 0 0 .634.907.673.673 0 0 0 .634-.454c.09-.26.18-.521.267-.783a.682.682 0 0 0-.42-.863M136.286 80.133a.675.675 0 0 0-.753.587c-.035.267-.07.534-.108.8a.68.68 0 0 0 .666.777c.33 0 .617-.245.665-.584.038-.272.075-.544.11-.817a.68.68 0 0 0-.58-.763M135.635 84.435a.673.673 0 0 0-.79.536c-.052.264-.105.528-.16.792a.68.68 0 0 0 .659.821c.311 0 .59-.22.657-.54.056-.27.11-.539.163-.809a.68.68 0 0 0-.53-.8M134.706 88.687a.673.673 0 0 0-.823.481l-.211.78a.682.682 0 0 0 .648.865.674.674 0 0 0 .647-.498c.073-.264.145-.53.215-.795a.682.682 0 0 0-.476-.833M123.575 112.108a.666.666 0 0 0-.943.125c-.162.214-.325.426-.49.638a.686.686 0 0 0 .111.955.665.665 0 0 0 .945-.113c.168-.215.335-.433.5-.651a.686.686 0 0 0-.123-.954M137.426 71.865a.676.676 0 0 0-.672-.678h-.003a.676.676 0 0 0-.67.683v.254c0 .27 0 .54-.004.809a.677.677 0 0 0 .664.689h.008c.368 0 .668-.3.673-.673.003-.274.004-.55.004-.826v-.258zM136.66 75.796a.673.673 0 0 0-.715.635c-.017.27-.036.538-.056.807a.678.678 0 0 0 .67.732.676.676 0 0 0 .67-.628c.021-.274.04-.548.058-.823a.678.678 0 0 0-.628-.723M126.05 108.543a.667.667 0 0 0-.933.187c-.148.224-.298.447-.449.67a.686.686 0 0 0 .173.945.669.669 0 0 0 .935-.175c.154-.226.307-.454.458-.683a.685.685 0 0 0-.184-.944M79.548 137.439c-.263.034-.528.068-.792.1a.679.679 0 0 0-.589.756.675.675 0 0 0 .748.595c.27-.032.539-.066.808-.102a.68.68 0 0 0 .58-.763.672.672 0 0 0-.755-.586M128.29 104.82a.669.669 0 0 0-.919.249c-.133.233-.268.466-.405.698a.685.685 0 0 0 .234.933.67.67 0 0 0 .922-.237c.139-.237.277-.474.413-.713a.685.685 0 0 0-.245-.93M132.025 96.966a.67.67 0 0 0-.879.368c-.102.25-.206.499-.311.747a.684.684 0 0 0 .353.894.672.672 0 0 0 .883-.357c.107-.254.213-.508.317-.763a.684.684 0 0 0-.363-.89M130.285 100.956a.67.67 0 0 0-.901.309c-.118.242-.238.483-.36.724a.684.684 0 0 0 .295.915.671.671 0 0 0 .904-.298c.124-.245.246-.491.367-.738a.684.684 0 0 0-.305-.912M34.878 126.94c-.222-.15-.442-.3-.662-.453a.667.667 0 0 0-.935.177.686.686 0 0 0 .175.946c.224.155.449.31.675.462a.664.664 0 0 0 .933-.187.686.686 0 0 0-.186-.944M24.449 118.177a.666.666 0 0 0-.95-.01.686.686 0 0 0-.011.963c.19.196.38.391.573.585a.665.665 0 0 0 .95 0 .687.687 0 0 0 0-.963c-.189-.19-.376-.382-.562-.575M9.376 93.413c-.086-.254-.17-.51-.253-.766a.671.671 0 0 0-.848-.435.682.682 0 0 0-.43.859c.085.261.17.522.258.782a.674.674 0 0 0 .854.424.682.682 0 0 0 .419-.864M27.523 121.16a.666.666 0 0 0-.95.051.686.686 0 0 0 .052.961c.202.184.405.366.61.547a.665.665 0 0 0 .949-.063.686.686 0 0 0-.063-.96c-.2-.178-.4-.357-.598-.537M50.138 134.55a60.772 60.772 0 0 1-.757-.265.67.67 0 0 0-.858.415.682.682 0 0 0 .41.868c.258.092.516.182.775.27a.673.673 0 0 0 .852-.427.682.682 0 0 0-.422-.862M46.143 133.032a77.239 77.239 0 0 1-.738-.314.67.67 0 0 0-.883.358.684.684 0 0 0 .354.893c.25.109.502.215.753.32a.672.672 0 0 0 .878-.368.683.683 0 0 0-.364-.889M38.497 129.219a60.68 60.68 0 0 1-.69-.41.669.669 0 0 0-.921.238.685.685 0 0 0 .234.933c.234.14.47.28.705.417a.671.671 0 0 0 .919-.25.685.685 0 0 0-.247-.928M42.258 131.253c-.24-.12-.478-.24-.716-.363a.668.668 0 0 0-.904.298.684.684 0 0 0 .295.915c.242.125.486.248.73.37a.672.672 0 0 0 .9-.31.685.685 0 0 0-.305-.91M31.414 124.43c-.21-.165-.421-.33-.631-.497a.667.667 0 0 0-.944.115.686.686 0 0 0 .113.955c.214.17.428.339.644.506a.67.67 0 0 0 .943-.126.686.686 0 0 0-.125-.954M12.294 100.628a.67.67 0 0 0-.898-.318.684.684 0 0 0-.314.908c.117.247.236.493.356.739a.672.672 0 0 0 .901.307.685.685 0 0 0 .304-.912c-.118-.24-.234-.482-.35-.724M21.574 115.001a.666.666 0 0 0-.948-.074.686.686 0 0 0-.073.96c.177.209.355.416.534.623a.668.668 0 0 0 .95.061.687.687 0 0 0 .06-.96c-.175-.202-.35-.405-.523-.61M10.58 96.695a.67.67 0 0 0-.874-.378.683.683 0 0 0-.373.886c.1.254.203.507.307.76a.672.672 0 0 0 .88.367.683.683 0 0 0 .362-.89 64.123 64.123 0 0 1-.302-.745M14.26 104.441a.668.668 0 0 0-.917-.258.685.685 0 0 0-.255.927c.133.24.268.477.404.714a.67.67 0 0 0 .918.247.685.685 0 0 0 .245-.93 65.636 65.636 0 0 1-.396-.7M18.91 111.643a.667.667 0 0 0-.942-.135.686.686 0 0 0-.134.952c.163.22.328.439.493.656a.668.668 0 0 0 .943.124.686.686 0 0 0 .122-.954 66.337 66.337 0 0 1-.482-.643M16.468 108.119a.668.668 0 0 0-.93-.198.685.685 0 0 0-.196.942c.149.23.298.459.45.687a.67.67 0 0 0 .932.185.686.686 0 0 0 .184-.944 65.332 65.332 0 0 1-.44-.672M62.563 137.455c-.265-.034-.528-.07-.792-.108a.675.675 0 0 0-.76.579.68.68 0 0 0 .572.769c.269.038.538.075.808.11a.675.675 0 0 0 .753-.588.68.68 0 0 0-.581-.762M54.213 135.793c-.257-.069-.513-.14-.77-.212a.67.67 0 0 0-.828.472c-.1.362.109.737.466.839.262.074.524.146.787.217a.674.674 0 0 0 .822-.483.681.681 0 0 0-.477-.833M75.312 137.86l-.798.048a.677.677 0 0 0-.635.716.676.676 0 0 0 .707.643c.272-.015.543-.031.814-.049a.678.678 0 0 0 .626-.724.678.678 0 0 0-.714-.634M58.361 136.763a66.515 66.515 0 0 1-.783-.16.673.673 0 0 0-.795.527.68.68 0 0 0 .52.805c.266.056.532.11.799.164a.669.669 0 0 0 .79-.536.68.68 0 0 0-.53-.8M71.056 138.002h-.064c-.245 0-.49 0-.735-.004h-.008c-.367 0-.667.3-.672.673a.677.677 0 0 0 .665.688c.245.003.49.005.743.005H71.056a.676.676 0 0 0 .672-.681c0-.376-.3-.68-.672-.68M66.8 137.868a64.157 64.157 0 0 1-.797-.056.672.672 0 0 0-.72.628.678.678 0 0 0 .62.73 66.737 66.737 0 0 0 .855.058.676.676 0 0 0 .67-.638.677.677 0 0 0-.628-.722M87.693 129.984l-2.971-7.436c-.164-.41-.77-.245-.71.193l1.1 7.943c.112.811.9 1.34 1.682 1.128a1.366 1.366 0 0 0 .9-1.828M97.148 117.233c-.263-.352-.807-.034-.636.372l3.094 7.385a1.34 1.34 0 0 0 1.913.648c.7-.409.888-1.347.401-2l-4.772-6.405zM114.163 115.819a1.374 1.374 0 0 0-.124-2.038l-6.247-4.936c-.344-.272-.788.177-.52.526l4.877 6.322a1.336 1.336 0 0 0 2.014.126M18.76 43.164l7.296 3.131c.402.173.716-.378.367-.644l-6.327-4.83a1.337 1.337 0 0 0-1.977.407 1.37 1.37 0 0 0 .64 1.936M123.225 101.085l-7.297-3.132c-.401-.172-.716.379-.367.645l6.327 4.83a1.337 1.337 0 0 0 1.977-.407 1.37 1.37 0 0 0-.64-1.936M12.02 56.131c-.21.791.312 1.59 1.113 1.703l7.849 1.113c.432.061.595-.553.19-.718l-7.347-3.008a1.343 1.343 0 0 0-1.805.91M129.965 88.118a1.362 1.362 0 0 0-1.114-1.703l-7.849-1.113c-.432-.061-.595.553-.19.719l7.347 3.007c.75.307 1.596-.12 1.806-.91M132.045 72.125c0-.82-.709-1.453-1.511-1.353l-7.866.98c-.433.055-.433.69 0 .744l7.866.981c.802.1 1.51-.534 1.51-1.352M128.159 55.22l-7.347 3.009c-.405.165-.242.78.19.718l7.849-1.113a1.362 1.362 0 0 0 1.113-1.703 1.343 1.343 0 0 0-1.805-.91M115.928 46.295l7.297-3.13a1.37 1.37 0 0 0 .64-1.937 1.337 1.337 0 0 0-1.977-.406l-6.327 4.83c-.348.265-.034.816.367.643"/>
            <path d="M119.67 121.392c-13.003 13.16-30.29 20.407-48.678 20.407-18.388 0-35.675-7.247-48.677-20.407C9.312 108.232 2.152 90.735 2.152 72.125c0-18.611 7.16-36.108 20.163-49.268C35.317 9.697 52.605 2.45 70.992 2.45c18.388 0 35.676 7.247 48.678 20.407 13.002 13.16 20.163 30.657 20.163 49.268 0 18.61-7.16 36.107-20.163 49.267m1.521-100.075C107.782 7.746 89.955.272 70.992.272c-18.963 0-36.79 7.474-50.199 21.045C7.384 34.888 0 52.932 0 72.125c0 19.192 7.384 37.236 20.793 50.807 13.409 13.571 31.236 21.045 50.2 21.045 18.962 0 36.79-7.474 50.198-21.045 13.409-13.571 20.793-31.615 20.793-50.807 0-19.193-7.384-37.237-20.793-50.808"/>
            <path d="M41.963 32.791l-.913-1.047-3.799 3.397-6.584-7.543-1.19 1.064 7.497 8.59zM44.892 30.922l-6.278-9.54-1.322.891 6.278 9.54zM47.471 29.221l1.44-.678-2.193-4.769 1.527-.719 4.927 3.48 1.628-.767-5.668-3.937-.013-.03.714-6.335-1.586.747-.578 5.59-1.527.72-2.01-4.37-1.44.677zM56.536 25.318l6.653-1.64-.326-1.357-5.111 1.26L56.89 20l3.943-.972-.327-1.356-3.942.971-.84-3.485 4.847-1.195-.326-1.356-6.39 1.575zM74.647 23.519c2.835.169 4.493-1.554 4.493-1.554l-.782-1.201s-1.447 1.41-3.577 1.283c-2.514-.15-4.075-2.324-3.933-4.771.141-2.43 1.904-4.277 4.433-4.127 1.954.116 3.195 1.442 3.195 1.442l.854-1.153s-1.306-1.59-4.028-1.751c-3.282-.196-5.895 2.186-6.088 5.508-.195 3.355 2.039 6.122 5.433 6.324M83.426 18.668c.75-2.382 3.103-3.6 5.304-2.89 2.2.708 3.409 3.075 2.66 5.457-.775 2.46-3.132 3.744-5.333 3.035-2.2-.71-3.405-3.143-2.63-5.602m2.187 7.01c3.118 1.005 6.322-.723 7.334-3.94.989-3.14-.662-6.348-3.78-7.353s-6.313.64-7.3 3.78c-1.013 3.218.628 6.508 3.746 7.512M94.478 29.34l5.346-10.103-1.4-.759-5.346 10.104zM105.387 22.684l-1.238-.979-6.974 9.029 1.252.989 4.523-5.857c.395-.511.929-1.387.929-1.387l.025.02s-.215 1.148-.272 1.907l-.543 9.006 1.225.97 6.973-9.03-1.25-.989-4.534 5.87c-.385.499-.919 1.375-.919 1.375l-.025-.02s.215-1.149.262-1.894l.566-9.01z"/>
        </g>
    </g>
</svg>
