<svg xmlns="http://www.w3.org/2000/svg" width="210" height="232" viewBox="0 0 210 232">
    <g fill="#28646E" fill-rule="evenodd">
        <path d="M192.58 97.069a2.469 2.469 0 1 0 4.936 0 2.469 2.469 0 0 0-4.937 0M34.91 85.017a2.469 2.469 0 1 0 0-4.937 2.469 2.469 0 0 0 0 4.937M64.469 28.938a2.469 2.469 0 1 0 .001-4.937 2.469 2.469 0 0 0-.001 4.937M190.97 78.382a4.372 4.372 0 0 0 4.374-4.373 4.372 4.372 0 0 0-4.373-4.374 4.372 4.372 0 0 0-4.374 4.374 4.372 4.372 0 0 0 4.374 4.373M41.373 35.747a4.373 4.373 0 1 0 0-8.747 4.373 4.373 0 1 0 0 8.747M180.606 122.332v4.306a4.08 4.08 0 0 0 4.078 4.078 4.08 4.08 0 0 0 4.077-4.078v-4.306c0-5.05-2.163-9.874-5.933-13.232a4.077 4.077 0 1 0-5.425 6.088 9.452 9.452 0 0 1 3.203 7.144M104.321 81.378c.381.367.885.53 1.372.49.414-.033.82-.212 1.132-.534 5.01-5.197 7.146-9.459 7.521-10.26.3-.634 1.152-2.098 2.61-2.022.98.055 1.81-.696 1.863-1.672a1.768 1.768 0 0 0-1.67-1.864c-2.5-.134-4.746 1.378-6.004 4.05-.336.713-2.245 4.513-6.869 9.309a1.771 1.771 0 0 0 .045 2.503M77.02 113.66c.383.389.901.564 1.407.523.4-.032.789-.197 1.097-.5 1.455-1.428 4.617-3.836 5.494-4.366a1.77 1.77 0 1 0-1.835-3.028c-1.16.703-4.512 3.27-6.139 4.867-.699.685-.71 1.806-.024 2.503"/>
        <path d="M87.04 91.035c-.833 5.236-.554 11.238 1.15 18.023.103.41.062.842-.13 1.22-1.186 2.367-2.952 5.496-3.86 8.173-.364 1.077.115 2.296 1.15 2.757a2.178 2.178 0 0 0 2.928-1.223c.549-1.458 1.707-4.207 2.153-5.344.78-1.984 1.293-3.293 1.48-4.106.172-.743.239-1.59-.332-3.46-.964-3.148-1.698-9.149-.824-14.562 1.163-7.183 3.464-15.291 3.882-16.635.42-1.341 1.134-1.808 1.884-1.802.753.008 2.206.253 2.015 2.934-.345 4.814-.887 10.93-1.06 12.993-.086 1.012-.088 3.356 1.839 4.274 1.502.713 3.043.122 4.695-1.185 3.715-2.94 10.05-8.826 13.915-13.95 4.057-5.374 5.236-8.475 6.165-11.268.422-1.274 1.768-1.374 2.253-1.276.486.098 1.116.693.818 2.085-.72 3.377-4.186 11.257-11.458 18.974-.824.874-.622 1.814-.127 2.273.463.428 1.317.691 2.165-.161 6.57-6.592 10.01-14.11 11.508-18.103.748-1.996.997-3.166 1.227-4.073.294-1.152 1.121-1.62 1.731-1.54.875.11 1.51.946 1.358 2.416-.135 1.279-.691 3.395-1.488 5.517-1.87 4.985-6.125 11.797-10.829 17.732-.503.636-.558 1.544.172 2.123.754.599 1.547.25 2.234-.524 4.716-5.3 9.51-13.371 10.987-17.49.314-.88 1.059-1.415 1.921-1.145 1.017.314 1.138 2.006.398 3.916-1.956 5.054-4.808 10.676-10.73 17.897-.572.695-.41 1.535.189 1.994.613.467 1.54.359 2.332-.595 3.08-3.699 5.126-6.547 6.849-9.442.438-.765 1.017-1.09 1.623-1.02.862.102 1.064.906.884 1.909-.291 1.62-4.281 7.84-5.884 9.951-4.36 5.738-8.918 9.057-17.756 14.603-3.085 1.934-5.362 3.735-6.622 6.322-1.146 2.347-1.482 3.113-1.596 3.405-.437 1.133.091 2.473 1.227 2.907a2.178 2.178 0 0 0 2.852-1.37c.01-.028-.067.04 1.434-3.034.721-1.484 2.363-3.737 5.044-5.231 8.887-4.959 12.396-8.594 17.318-14.388 2.242-2.64 5.197-8.152 5.99-9.775 2.224-4.552.568-8.163-1.81-8.608a.299.299 0 0 1-.221-.424c1.55-3.235 2.198-5.435 2.402-7.117.277-2.286-.581-4.963-3.721-5.377a.294.294 0 0 1-.247-.348c.135-.728.255-1.644.337-2.245.41-2.973-1.65-5.468-3.907-5.762-1.586-.208-2.944.263-4.088 1.205a.41.41 0 0 1-.54-.02c-.522-.477-1.335-.954-2.394-.887-1.934.122-3.79.87-4.938 3.953-.821 2.206-2.071 5.177-6.022 10.347-3.664 4.796-8.918 9.605-12.195 12.16-.573.448-1.433.424-1.398-.4.057-1.307.738-10.116.766-12.698.047-4.191-2.348-5.91-4.885-6.045-2.09-.112-5.176.738-6.514 5.583-.783 2.84-2.514 7.543-3.698 14.987M79.61 69.104c.99.62 5.967 3.04 7.164 3.48.24.09.544.212.799-.051l.006-.006c.253-.261.12-.56.024-.8-.477-1.182-3.056-6.077-3.704-7.05-.328-.49-.695-.532-1.07-.352-.498.238-1.087.758-1.986 1.684-.895.927-1.397 1.533-1.62 2.036-.166.382-.113.749.386 1.059M77.377 75.062c-.587.024-.813.316-.856.73-.055.546.084 1.323.408 2.57.324 1.249.58 1.993.897 2.443.238.343.579.486 1.103.22 1.044-.526 5.7-3.514 6.7-4.308.201-.16.462-.356.37-.71L85.997 76c-.091-.353-.418-.396-.67-.437-1.258-.208-6.781-.55-7.95-.501M130.361 114.23h-.008c-.361.056-.438.374-.506.623-.338 1.229-1.266 6.683-1.34 7.851-.038.585.23.842.637.928.538.114 1.323.059 2.6-.133 1.274-.19 2.042-.367 2.523-.632.365-.202.543-.524.337-1.074-.414-1.095-2.895-6.04-3.578-7.118-.137-.218-.304-.497-.665-.444M133.24 111.495l-.004.008c-.14.337.09.567.267.755.877.927 5.054 4.554 6.013 5.225.48.336.84.243 1.123-.061.375-.402.738-1.101 1.238-2.29.5-1.188.748-1.937.77-2.485.019-.416-.165-.738-.742-.846-1.148-.216-6.665-.667-7.94-.642-.258.004-.584 0-.725.336M108.617 42.678a1.974 1.974 0 1 0-3.936.319 1.974 1.974 0 0 0 3.936-.319M94.503 47.455a1.972 1.972 0 0 0 1.195-2.522 1.972 1.972 0 0 0-2.522-1.197 1.976 1.976 0 0 0-1.197 2.524 1.976 1.976 0 0 0 2.524 1.195M83.303 53.2a1.976 1.976 0 1 0-2.249-3.25 1.976 1.976 0 0 0 2.249 3.25M147.463 124.089a1.974 1.974 0 1 0 3.01 2.558 1.974 1.974 0 0 0-3.01-2.558M73.97 61.646a1.974 1.974 0 1 0-3.01-2.558 1.974 1.974 0 0 0 3.01 2.558M154.291 113.514a1.976 1.976 0 0 0 3.57 1.69 1.976 1.976 0 0 0-3.57-1.69M64.511 73.16a1.975 1.975 0 1 0 1.691-3.57 1.975 1.975 0 0 0-1.691 3.57M158.15 101.532a1.976 1.976 0 0 0 3.886.71 1.976 1.976 0 0 0-3.886-.71M61.695 81.904a1.976 1.976 0 0 0-.71 3.886 1.976 1.976 0 0 0 .71-3.886M162.714 88.64a1.974 1.974 0 1 0-3.936.318 1.974 1.974 0 0 0 3.936-.318M58.72 97.095a1.976 1.976 0 1 0 3.937-.322 1.976 1.976 0 0 0-3.938.322M157.324 74.13a1.972 1.972 0 0 0-1.195 2.524 1.974 1.974 0 1 0 3.719-1.33 1.976 1.976 0 0 0-2.524-1.194M61.585 110.408a1.975 1.975 0 1 0 3.72-1.327 1.975 1.975 0 0 0-3.72 1.327M153.132 65.955a1.974 1.974 0 1 0-2.746-.502 1.974 1.974 0 0 0 2.746.502M68.301 119.78a1.974 1.974 0 0 0-.502 2.746 1.979 1.979 0 0 0 2.749.504 1.977 1.977 0 0 0-2.247-3.25M144.72 55.894a1.974 1.974 0 1 0-3.01-2.558 1.974 1.974 0 0 0 3.01 2.558M133.993 48.353a1.975 1.975 0 1 0-3.57-1.692 1.975 1.975 0 0 0 3.57 1.692M121.678 43.845a1.973 1.973 0 0 0-1.586-2.298 1.974 1.974 0 1 0 1.586 2.298"/>
        <path d="M198.446 173.732V149.31c0-8.336-6.781-15.12-15.118-15.12h-25.846c1.429-1.63 2.799-3.317 4.053-5.09 8.135-11.5 12.443-25.798 11.213-40.904-2.885-35.484-35.16-61.67-70.929-56.557-30.58 4.371-53.635 31.227-53.342 62.115.092 9.534 2.31 18.476 6.154 26.446a2.642 2.642 0 0 0 1.99 1.448c2.112.313 3.653-1.864 2.727-3.789-3.445-7.162-5.451-15.185-5.596-23.73-.498-29.438 22.233-54.806 51.544-57.599 31.64-3.017 59.636 20.517 62.202 52.092 1.34 16.486-4.52 31.918-14.934 43.216a2.612 2.612 0 0 0-.636 2.352H24.804a4.078 4.078 0 0 0 0 8.155h158.524c3.84 0 6.963 3.126 6.963 6.965v24.383h-53.108c-11.994 0-21.752 9.758-21.752 21.752 0 11.995 9.758 21.753 21.752 21.753h17.683a4.078 4.078 0 0 0 0-8.156h-17.683c-7.499 0-13.597-6.098-13.597-13.597 0-7.497 6.098-13.597 13.597-13.597h60.498a2.874 2.874 0 0 1 2.871 2.87v21.456a2.873 2.873 0 0 1-2.87 2.868h-27.015a4.078 4.078 0 0 0 0 8.155h19.624v27.013a6.97 6.97 0 0 1-6.963 6.963H15.118a6.97 6.97 0 0 1-6.963-6.963V139.46a10.699 10.699 0 0 1 9.47-10.63l26.555-3.08a4.079 4.079 0 1 0-.94-8.103l-26.554 3.081C7.173 121.831 0 129.884 0 139.461V244.21c0 8.337 6.781 15.118 15.118 15.118h168.21c8.337 0 15.118-6.781 15.118-15.118v-27.051c5.723-.396 10.261-5.165 10.261-10.985v-21.455c0-5.823-4.538-10.592-10.261-10.987"/>
        <path d="M141.143 195.073a3.399 3.399 0 0 1-3.394 3.395 3.399 3.399 0 0 1-3.395-3.395 3.399 3.399 0 0 1 3.395-3.394 3.399 3.399 0 0 1 3.394 3.394m-9.847 0a6.46 6.46 0 0 0 6.453 6.453 6.46 6.46 0 0 0 6.453-6.453 6.46 6.46 0 0 0-6.453-6.453 6.46 6.46 0 0 0-6.453 6.453"/>
    </g>
</svg>
