<svg xmlns="http://www.w3.org/2000/svg" width="166" height="232" viewBox="0 0 166 232">
    <g fill="#28646E" fill-rule="evenodd">
        <path d="M103.924 84.57a2.407 2.407 0 1 0 0-4.814 2.407 2.407 0 0 0 0 4.814M27.17 119.264a2.407 2.407 0 1 0 0 4.814 2.407 2.407 0 0 0 0-4.814M139.702 138.114a4.264 4.264 0 1 0 0 8.529 4.265 4.265 0 0 0 0-8.529M33.51 90.9a4.264 4.264 0 1 0 0 8.53 4.265 4.265 0 0 0 0-8.53"/>
        <path d="M164.192 80.255l-24.995-32.932a3.97 3.97 0 0 0-6.323 4.798l22.317 29.402h-25.893V57.658a3.968 3.968 0 0 0-7.936 0v27.833a3.97 3.97 0 0 0 3.968 3.968h31.734v167.945H7.936V51.948a3.015 3.015 0 0 1 3.012-3.012H120.37a3.968 3.968 0 0 0 0-7.936H10.948C4.913 41 0 45.91 0 51.948v209.424a3.968 3.968 0 0 0 3.968 3.968h157.064a3.968 3.968 0 0 0 3.968-3.968V82.654c0-.867-.284-1.709-.808-2.399"/>
        <path d="M41.253 180.155H52.12a1.492 1.492 0 0 0 0-2.982H41.253a1.492 1.492 0 0 0 0 2.982M79.23 178.664c0-.823-.668-1.49-1.491-1.49H59.884a1.492 1.492 0 0 0 0 2.981h17.855c.823 0 1.49-.668 1.49-1.49M122.765 177.173h-21.738a1.492 1.492 0 0 0 0 2.982h21.738a1.492 1.492 0 0 0 0-2.982M93.265 177.173H85.5a1.492 1.492 0 0 0 0 2.982h7.764a1.492 1.492 0 0 0 0-2.982M66.871 192.71h10.867a1.492 1.492 0 0 0 0-2.982H66.87a1.492 1.492 0 0 0 0 2.982M41.253 192.71h17.855a1.492 1.492 0 0 0 0-2.982H41.253a1.492 1.492 0 0 0 0 2.982M108.73 191.22c0-.824-.668-1.492-1.491-1.492H85.5a1.492 1.492 0 0 0 0 2.982h21.738c.823 0 1.49-.668 1.49-1.49M122.765 189.728H115a1.492 1.492 0 0 0 0 2.982h7.764a1.492 1.492 0 0 0 0-2.982M67.647 202.283h-10.87a1.492 1.492 0 0 0 0 2.982h10.87a1.492 1.492 0 0 0 0-2.982M122.765 202.283H104.91a1.492 1.492 0 0 0 0 2.982h17.855a1.492 1.492 0 0 0 0-2.982M75.41 205.265h21.738a1.492 1.492 0 0 0 0-2.982H75.41a1.492 1.492 0 0 0 0 2.982M41.253 205.265h7.761a1.492 1.492 0 0 0 0-2.982h-7.761a1.492 1.492 0 0 0 0 2.982M122.765 214.836h-10.869a1.492 1.492 0 0 0 0 2.983h10.869a1.492 1.492 0 0 0 0-2.983M104.133 214.836H86.278a1.492 1.492 0 0 0 0 2.983h17.855a1.492 1.492 0 0 0 0-2.983M62.989 214.836H41.253a1.492 1.492 0 0 0 0 2.983H62.99a1.492 1.492 0 0 0 0-2.983M78.515 214.836h-7.763a1.492 1.492 0 0 0 0 2.983h7.763a1.492 1.492 0 0 0 0-2.983M54.683 116.165c0-4.012 3.264-7.275 7.274-7.275a7.282 7.282 0 0 1 7.274 7.275v6.198a7.282 7.282 0 0 1-7.274 7.275c-4.01 0-7.274-3.263-7.274-7.275v-6.198zm7.274 21.425c8.1 0 14.724-6.362 15.181-14.35h24.804v6.066a3.978 3.978 0 0 0 3.976 3.976 3.978 3.978 0 0 0 3.976-3.976v-6.066h3.43v6.066a3.976 3.976 0 0 0 7.952 0v-10.042a3.978 3.978 0 0 0-3.976-3.976H77.138c-.457-7.986-7.082-14.35-15.181-14.35-8.396 0-15.227 6.83-15.227 15.227v6.198c0 8.396 6.831 15.227 15.227 15.227zM43.839 159.702v1.25a3.278 3.278 0 0 0-.823-.383 2.943 2.943 0 0 0-.857-.13c-.319 0-.56.047-.722.14a.447.447 0 0 0-.245.412c0 .26.349.472 1.045.635l.054.015.41.097c.521.124.903.323 1.145.598.243.275.364.647.364 1.116 0 .563-.185.986-.554 1.267-.37.282-.926.423-1.668.423a6.2 6.2 0 0 1-1.01-.086 7.35 7.35 0 0 1-1.05-.256v-1.25c.315.179.637.316.964.41.327.094.644.142.95.142.335 0 .589-.05.762-.147a.463.463 0 0 0 .258-.425.506.506 0 0 0-.183-.42c-.122-.097-.412-.201-.871-.312l-.396-.088c-.547-.124-.946-.317-1.196-.581-.25-.264-.376-.617-.376-1.06 0-.527.19-.937.571-1.23.381-.293.916-.44 1.607-.44.309 0 .617.026.925.076.307.05.606.126.896.227zm6.672 5.03c-.332.136-.67.239-1.015.307a5.62 5.62 0 0 1-1.094.103c-.915 0-1.614-.245-2.097-.735-.484-.49-.725-1.196-.725-2.117 0-.892.232-1.597.698-2.114.465-.518 1.1-.777 1.904-.777.81 0 1.44.24 1.887.72.448.48.672 1.157.672 2.03v.58h-3.706c.003.43.13.75.38.962.251.212.626.318 1.124.318.328 0 .652-.047.971-.142a4.515 4.515 0 0 0 1.001-.449v1.313zm-1.21-3.077c-.007-.377-.104-.663-.291-.857-.187-.193-.463-.29-.828-.29-.329 0-.59.1-.786.3-.195.2-.31.484-.347.852l2.251-.005zm7.34 3.076c-.331.137-.67.24-1.015.308a5.62 5.62 0 0 1-1.093.103c-.915 0-1.614-.245-2.098-.735-.483-.49-.725-1.196-.725-2.117 0-.892.233-1.597.698-2.114.466-.518 1.1-.777 1.905-.777.81 0 1.44.24 1.887.72.448.48.671 1.157.671 2.03v.58h-3.706c.004.43.13.75.381.962.25.212.625.318 1.123.318.329 0 .653-.047.972-.142a4.515 4.515 0 0 0 1-.449v1.313zm-1.21-3.076c-.007-.377-.103-.663-.29-.857-.188-.193-.464-.29-.828-.29-.329 0-.591.1-.786.3-.196.2-.311.484-.347.852l2.25-.005zm5.823-1.347v-2.906h1.426V165h-1.426v-.81c-.153.315-.35.553-.593.712-.243.16-.529.24-.857.24-.625 0-1.11-.251-1.455-.752-.345-.502-.518-1.208-.518-2.12 0-.924.175-1.634.525-2.128.35-.495.849-.743 1.496-.743.293 0 .556.076.789.227.233.152.437.379.613.682zm-1.992 1.972c0 .528.088.941.263 1.24.176.3.419.45.728.45.31 0 .553-.15.732-.45.18-.299.269-.712.269-1.24 0-.527-.09-.94-.269-1.24-.179-.3-.423-.45-.732-.45-.31 0-.552.15-.728.45-.175.3-.263.713-.263 1.24zm12.549 1.949v2.851h-1.426v-7.549h1.426v.82c.15-.315.346-.553.59-.712.245-.16.531-.24.86-.24.625 0 1.11.251 1.455.752.345.502.518 1.208.518 2.12 0 .924-.175 1.634-.525 2.128-.35.495-.85.743-1.497.743-.293 0-.556-.076-.788-.227-.233-.152-.437-.38-.613-.686zm1.992-1.968c0-.528-.088-.941-.264-1.24-.176-.3-.418-.45-.727-.45-.31 0-.554.15-.733.45-.179.299-.268.712-.268 1.24 0 .527.09.94.268 1.24.18.3.423.45.733.45.309 0 .551-.15.727-.45.176-.3.264-.713.264-1.24zm7.21-.81V165h-1.421v-3.33c0-.394-.057-.676-.169-.845-.112-.17-.295-.254-.55-.254a.688.688 0 0 0-.61.345c-.146.229-.22.547-.22.954V165h-1.42v-7.598h1.42v2.95c.102-.303.274-.538.518-.704.245-.166.54-.249.884-.249.518 0 .908.172 1.172.516.264.343.396.855.396 1.535zm6.52-.411a1.536 1.536 0 0 0-.549-.322 2.128 2.128 0 0 0-.69-.108c-.303 0-.568.053-.794.159a1.19 1.19 0 0 0-.688.91 5.04 5.04 0 0 0-.047.801V165h-1.43v-5.469h1.43v.85c.14-.313.355-.554.645-.725.29-.171.628-.257 1.015-.257a2.337 2.337 0 0 1 1.109.279v1.362zm3.929 1.392c-.534 0-.907.068-1.118.205-.212.136-.318.37-.318.703 0 .247.074.444.22.59.147.147.345.22.596.22.378 0 .67-.142.879-.427.208-.285.312-.683.312-1.194v-.097h-.571zm1.992-.552V165h-1.42v-.61c-.173.24-.395.426-.665.556-.27.13-.568.196-.893.196-.622 0-1.106-.165-1.453-.494-.347-.328-.52-.787-.52-1.377 0-.638.207-1.109.62-1.413.414-.304 1.053-.457 1.92-.457h.99v-.239c0-.231-.084-.406-.251-.525-.168-.119-.414-.178-.74-.178-.342 0-.673.043-.994.13a4.66 4.66 0 0 0-1.003.412v-1.22c.316-.13.636-.227.962-.289a5.54 5.54 0 0 1 1.035-.093c.889 0 1.513.181 1.873.542.36.362.54 1.008.54 1.939zm5.56-2.178v1.25a3.278 3.278 0 0 0-.823-.383 2.943 2.943 0 0 0-.857-.13c-.32 0-.56.047-.723.14a.447.447 0 0 0-.244.412c0 .26.348.472 1.045.635l.054.015.41.097c.52.124.902.323 1.145.598.242.275.364.647.364 1.116 0 .563-.185.986-.555 1.267-.37.282-.925.423-1.667.423a6.2 6.2 0 0 1-1.01-.086 7.35 7.35 0 0 1-1.05-.256v-1.25c.315.179.637.316.964.41.327.094.643.142.95.142.335 0 .589-.05.761-.147a.463.463 0 0 0 .259-.425.506.506 0 0 0-.183-.42c-.122-.097-.413-.201-.872-.312l-.395-.088c-.547-.124-.946-.317-1.197-.581-.25-.264-.376-.617-.376-1.06 0-.527.19-.937.572-1.23.38-.293.916-.44 1.606-.44.31 0 .618.026.925.076.308.05.607.126.896.227zm6.672 5.03c-.332.136-.67.239-1.016.307a5.62 5.62 0 0 1-1.093.103c-.915 0-1.614-.245-2.098-.735-.483-.49-.725-1.196-.725-2.117 0-.892.233-1.597.699-2.114.465-.518 1.1-.777 1.904-.777.81 0 1.44.24 1.887.72.448.48.671 1.157.671 2.03v.58h-3.706c.004.43.13.75.381.962.25.212.625.318 1.123.318.33 0 .653-.047.972-.142a4.515 4.515 0 0 0 1-.449v1.313zm-1.211-3.077c-.007-.377-.103-.663-.29-.857-.188-.193-.464-.29-.828-.29-.329 0-.591.1-.786.3-.196.2-.311.484-.347.852l2.251-.005z"/>
    </g>
</svg>
