<svg xmlns="http://www.w3.org/2000/svg" xmlns:xlink="http://www.w3.org/1999/xlink" width="332" height="232" viewBox="0 0 332 232">
    <defs>
        <path id="a" d="M0 .345h4.844v4.844H0z"/>
    </defs>
    <g fill="none" fill-rule="evenodd">
        <path fill="#28646E" d="M170 173.53c5.179 0 9.39 4.172 9.39 9.302 0 3.56-2.012 6.755-5.251 8.338a4.262 4.262 0 0 0-2.4 3.825v11.476h-3.476v-11.476c0-1.623-.93-3.107-2.4-3.825-3.241-1.583-5.254-4.779-5.254-8.338 0-5.13 4.212-9.303 9.391-9.303M163.958 215h12.086c2.376 0 4.304-1.91 4.304-4.265v-13.32c4.779-3.31 7.652-8.683 7.652-14.583 0-9.834-8.076-17.832-18-17.832s-18 7.998-18 17.832c0 5.9 2.876 11.274 7.654 14.583v13.32c0 2.354 1.926 4.265 4.304 4.265"/>
        <path fill="#28646E" d="M66.64 187.487c0 7.468-6.088 13.54-13.569 13.54-7.483 0-13.57-6.072-13.57-13.54v-9.8c0-7.467 6.087-13.54 13.57-13.54 7.481 0 13.568 6.073 13.568 13.54v9.8zM245.088 52c-23.109 0-41.91 18.76-41.91 41.823v40.309h-57.106c-2.347 0-4.25 1.9-4.25 4.242a4.247 4.247 0 0 0 4.25 4.242h72.415c6.117 0 11.092 4.965 11.092 11.068v86.832H109.966V186.83h11.632v11.63a4.248 4.248 0 0 0 4.25 4.241c2.349 0 4.251-1.9 4.251-4.242v-11.63h6.376v11.63a4.248 4.248 0 0 0 4.25 4.242c2.349 0 4.251-1.9 4.251-4.242v-15.872a4.245 4.245 0 0 0-4.25-4.242h-30.76v-24.661c0-6.103 4.975-11.068 11.09-11.068h6.952a4.247 4.247 0 0 0 4.25-4.242 4.248 4.248 0 0 0-4.25-4.242h-6.952c-10.803 0-19.591 8.77-19.591 19.552v24.661H75.14v-.657c0-12.145-9.9-22.025-22.07-22.025S31 165.543 31 177.688v9.8c0 12.144 9.902 22.024 22.071 22.024 12.17 0 22.07-9.88 22.07-22.025v-.657h26.324v57.928a4.247 4.247 0 0 0 4.25 4.242h128.116c2.346 0 4.25-1.9 4.25-4.242v-91.074c0-10.782-8.79-19.552-19.593-19.552h-6.807V93.823c0-18.383 14.988-33.339 33.408-33.339 18.422 0 33.41 14.956 33.41 33.34v22.518a4.245 4.245 0 0 0 4.25 4.243 4.247 4.247 0 0 0 4.251-4.243V93.823C287 70.761 268.197 52 245.089 52z"/>
        <path fill="#28646E" d="M213.08 156.5a3.424 3.424 0 0 1 3.42-3.42 3.424 3.424 0 0 1 3.42 3.42 3.424 3.424 0 0 1-3.42 3.42 3.424 3.424 0 0 1-3.42-3.42m9.92 0c0-3.584-2.916-6.5-6.5-6.5a6.507 6.507 0 0 0-6.5 6.5c0 3.584 2.914 6.5 6.5 6.5 3.584 0 6.5-2.916 6.5-6.5M139.215 119.533c.294.647.643 1.482 1.637 1.467h.023c.996-.017 1.317-.865 1.592-1.519 1.358-3.259 5.831-17.914 6.453-21.094.311-1.598-.315-2.403-1.387-2.787-1.414-.507-3.557-.645-7.076-.588-3.518.058-5.657.265-7.054.816-1.06.419-1.66 1.243-1.297 2.83.721 3.159 5.648 17.662 7.109 20.875M107.802 120.327c3.113 1.002 18.28 4.217 21.833 4.615.717.08 1.625.21 2.145-.65l.011-.02c.519-.859-.04-1.57-.46-2.14-2.089-2.832-12.36-14.17-14.776-16.333-1.214-1.086-2.245-.962-3.15-.244-1.192.954-2.456 2.716-4.29 5.756-1.832 3.04-2.795 4.976-3.065 6.454-.203 1.12.185 2.06 1.752 2.562M53.5 132a2.499 2.499 0 1 0 0-5 2.5 2.5 0 0 0 0 5M296.5 122a2.5 2.5 0 1 0-.001 4.999A2.5 2.5 0 0 0 296.5 122"/>
        <g transform="translate(2 203)">
            <mask id="b" fill="#fff">
                <use xlink:href="#a"/>
            </mask>
            <path fill="#28646E" d="M2.422.345a2.422 2.422 0 1 0-.001 4.843 2.422 2.422 0 0 0 0-4.843" mask="url(#b)"/>
        </g>
        <path fill="#28646E" d="M35 145.5a4.5 4.5 0 1 0-9.002.002A4.5 4.5 0 0 0 35 145.5M278.499 137a4.499 4.499 0 0 0-4.499 4.5 4.5 4.5 0 1 0 4.499-4.5M83.5 206a4.5 4.5 0 0 0-4.5 4.5 4.5 4.5 0 0 0 4.5 4.5 4.5 4.5 0 0 0 4.5-4.5 4.5 4.5 0 0 0-4.5-4.5"/>
    </g>
</svg>
