<?xml version="1.0" encoding="utf-8"?>
<svg version="1.1" xmlns="http://www.w3.org/2000/svg" xmlns:xlink="http://www.w3.org/1999/xlink" x="0px" y="0px"
	 viewBox="0 0 24 24" style="enable-background:new 0 0 24 24;" xml:space="preserve">
<path d="M12,23.5C5.7,23.5,0.5,18.3,0.5,12C0.5,5.7,5.7,0.5,12,0.5c6.3,0,11.5,5.2,11.5,11.5C23.5,18.3,18.3,23.5,12,23.5z M12,1.5
	C6.2,1.5,1.5,6.2,1.5,12c0,5.8,4.7,10.5,10.5,10.5c5.8,0,10.5-4.7,10.5-10.5C22.5,6.2,17.8,1.5,12,1.5z"/>
<path d="M12,6L12,6c0.6,0,1,0.4,1,1v10c0,0.6-0.4,1-1,1l0,0c-0.6,0-1-0.4-1-1V7C11,6.4,11.4,6,12,6z"/>
<path d="M18,12L18,12c0,0.6-0.4,1-1,1H7c-0.6,0-1-0.4-1-1l0,0c0-0.6,0.4-1,1-1h10C17.6,11,18,11.4,18,12z"/>
</svg>
