<svg enable-background="new 0 0 28 28" version="1.1" viewBox="0 0 28 28" xml:space="preserve" xmlns="http://www.w3.org/2000/svg">
    <g fill="none" fill-rule="evenodd">
        <path fill="#F7F7F7" d="M20.692 12.725H14.16v2.71h3.761c-.35 1.72-1.817 2.708-3.76 2.708A4.135 4.135 0 0 1 10.015 14a4.134 4.134 0 0 1 4.143-4.143c.988 0 1.88.35 2.581.924l2.04-2.04c-1.243-1.083-2.837-1.752-4.62-1.752A6.99 6.99 0 0 0 7.147 14a6.99 6.99 0 0 0 7.011 7.011c3.506 0 6.693-2.55 6.693-7.01 0-.416-.064-.862-.16-1.276"/>
    </g>
</svg>
