<?xml version="1.0" encoding="UTF-8"?>
<svg enable-background="new 0 0 32 32" version="1.1" viewBox="0 0 32 32" xml:space="preserve" xmlns="http://www.w3.org/2000/svg">
<path d="m15 12c-0.2 0-0.3-0.1-0.5-0.2-0.2-0.3-0.2-0.6 0-0.9 1.7-1.5 2.5-2.8 2.6-3 0.5-0.9 1.3-1.3 2.2-1.2 0.5 0 0.7 0.3 0.7 0.7 0 0.3-0.3 0.6-0.7 0.5-0.5-0.1-0.8 0.4-1 0.6-0.2 0.3-1 1.7-2.9 3.3-0.1 0.1-0.2 0.2-0.4 0.2z"/>
<path d="m4.7 22.3c-0.2 0-0.4-0.1-0.5-0.2-0.2-0.3-0.2-0.6 0.1-0.9 0.6-0.5 1.8-1.3 2.2-1.5 0.3-0.2 0.7 0 0.8 0.3 0.2 0.3 0 0.7-0.3 0.8-0.3 0.2-1.5 0.9-2 1.3 0 0.1-0.1 0.2-0.3 0.2z"/>
<path d="m20.1 16.5c0.3 0.2 0.5 0.1 0.8-0.1 1.8-1.7 3.6-4.3 4.3-5.7 0.1-0.3 0.4-0.5 0.7-0.3 0.3 0.1 0.3 0.7 0 1.3-0.8 1.7-2 3.5-4.2 5.8-0.2 0.2-0.2 0.5 0 0.7s0.5 0.2 0.8-0.1c1.2-1.2 1.9-2.1 2.6-3 0.2-0.3 0.4-0.3 0.6-0.3 0.3 0.1 0.3 0.3 0.3 0.7-0.1 0.5-1.7 2.6-2.3 3.2-1.6 1.8-3.3 2.9-6.5 4.5-1.1 0.6-1.9 1.1-2.5 2-0.2 0.4-0.4 0.7-0.6 1.1s0 0.8 0.3 1c0.4 0.2 0.8 0 1-0.4l0.6-1c0.3-0.5 0.9-1.2 1.9-1.6 3.2-1.5 4.5-2.6 6.4-4.5 0.8-0.8 2-2.6 2.3-3.2 0.9-1.5 0.4-2.8-0.4-3-0.1 0-0.1-0.1-0.1-0.2 0.6-1.1 0.9-1.8 1-2.4 0.2-0.8-0.1-1.7-1.1-1.9l-0.1-0.1c0.1-0.2 0.1-0.5 0.2-0.8 0.2-1-0.4-1.9-1.2-2.1-0.5-0.1-1 0-1.4 0.3h-0.2c-0.2-0.2-0.5-0.4-0.8-0.4-0.7 0-1.3 0.2-1.8 1.2-0.3 0.7-0.8 1.7-2.4 3.4-1.4 1.6-3.3 3-4.5 3.8-0.2 0.1-0.5 0.1-0.5-0.2 0-0.5 0.5-3.4 0.6-4.3 0.1-1.4-0.6-2.1-1.5-2.2-0.7 0.1-1.8 0.3-2.4 1.9-0.3 1-1.1 2.5-1.7 5-0.4 1.8-0.5 3.8-0.1 6.2 0 0.1 0 0.3-0.1 0.4-0.4 0.8-1.1 1.8-1.5 2.7-0.2 0.4 0 0.8 0.3 1 0.1 0.1 0.2 0.1 0.4 0.1 0.3 0 0.6-0.2 0.7-0.4 0.2-0.5 0.7-1.4 0.9-1.8 0.3-0.7 0.5-1.1 0.6-1.4 0.1-0.2 0.1-0.5 0-1.2-0.3-1.1-0.3-3.2 0.1-5 0.6-2.4 1.6-5.1 1.8-5.6s0.4-0.6 0.7-0.6 0.8 0.1 0.6 1.1c-0.3 1.6-0.6 3.7-0.7 4.4-0.1 0.3-0.1 1.1 0.5 1.5 0.5 0.3 1.1 0.1 1.7-0.3 1.4-0.9 3.7-2.7 5.2-4.4s2-2.8 2.4-3.7c0.2-0.4 0.6-0.4 0.8-0.4s0.4 0.3 0.2 0.7c-0.3 1.1-1.8 3.7-4.5 6.2-0.3 0.4-0.3 0.7-0.1 0.9 0.1 0.2 0.4 0.3 0.8 0 2.5-2.1 3.8-4.6 4.5-5.9 0.3-0.7 0.4-1.1 0.5-1.4 0.1-0.4 0.4-0.5 0.6-0.5 0.3 0.1 0.5 0.4 0.4 0.9-0.1 0.4-0.3 1.1-0.7 1.8-0.8 1.7-2.4 3.9-4.2 5.8-0.2 0.3-0.2 0.6 0 0.8z"/>
<path d="M8.9,8.3C9,8.2,9,8.1,9,8C8.8,7.6,8.1,5.8,7.9,5.5C7.8,5.3,7.7,5.3,7.5,5.3C7.4,5.4,7.1,5.6,6.8,5.9S6.3,6.3,6.2,6.5  S6.1,6.8,6.3,6.9c0.3,0.2,2,1.2,2.3,1.4C8.8,8.3,8.8,8.4,8.9,8.3z"/>
<path d="M5.5,8.9C5.3,8.9,5.2,9,5.2,9.1c0,0.2,0,0.4,0.1,0.9c0.1,0.4,0.1,0.7,0.2,0.9C5.6,11,5.7,11,5.9,11c0.4-0.2,2.1-1,2.4-1.3  c0.1,0,0.2-0.1,0.1-0.2"/>
<path d="m22.6 23.7c-0.1 0-0.2 0.1-0.2 0.2-0.2 0.4-0.6 2.3-0.7 2.6 0 0.2 0 0.3 0.2 0.3h0.9c0.4 0 0.7-0.1 0.9-0.1 0.1-0.1 0.2-0.2 0.1-0.4-0.1-0.4-0.8-2.1-1-2.5 0 0-0.1-0.1-0.2-0.1z"/>
<path d="m23.6 22.9c-0.1 0.1 0 0.2 0.1 0.3 0.3 0.3 1.6 1.7 1.9 2 0.2 0.1 0.3 0.1 0.4 0s0.3-0.4 0.5-0.8 0.3-0.6 0.3-0.8c0-0.1 0-0.3-0.2-0.3-0.4-0.1-2.3-0.4-2.7-0.4-0.1-0.1-0.2-0.1-0.3 0z"/>
</svg>
