<?xml version="1.0" encoding="UTF-8"?>
<svg version="1.1" xmlns="http://www.w3.org/2000/svg" xmlns:xlink="http://www.w3.org/1999/xlink">
    <!-- Generator: sketchtool 51.2 (57519) - http://www.bohemiancoding.com/sketch -->
    <title>4473FB64-5B81-4DEF-8603-C31E4921D9D6</title>
    <desc>Created with sketchtool.</desc>
    <defs></defs>
    <g id="Post_ico" stroke="none" stroke-width="1" fill="none" fill-rule="evenodd">
        <g id="like_LikeButton-Setting" transform="translate(-544.000000, -400.000000)" fill="#4A4A4A">
            <g id="Group-3" transform="translate(64.000000, 296.000000)">
                <path d="M480,104 L513,104 L513,137 L480,137 L480,104 Z M505.999866,114.710537 L506,114.710537 L506,112.5 L498.893832,112.5 L496.532054,121.184161 L496.467679,121.184161 L494.127537,112.5 L487,112.5 L487,114.710537 L487.729829,114.710537 C488.030469,114.710537 488.424958,115.111882 488.424958,115.368801 L488.424958,124.6815 C488.424958,124.938754 488.030469,125.289396 487.729829,125.289396 L487,125.289396 L487,127.5 L492.699967,127.499933 L492.699967,125.289396 L491.274941,125.289396 L491.274941,115.5 L491.358073,115.5 L494.642805,127.499933 L497.219144,127.499933 L500.546748,115.5 L500.616549,115.5 L500.616549,125.289463 L499.191524,125.289463 L499.191524,127.5 L506,127.5 L505.999866,125.289463 L505.2484,125.289463 C504.969397,125.289463 504.574908,124.938821 504.574908,124.681567 L504.574908,115.368801 C504.574908,115.111882 504.96933,114.710537 505.2484,114.710537 L505.999866,114.710537 Z" id="Medium"></path>
            </g>
        </g>
    </g>
</svg>
