<?xml version="1.0" encoding="UTF-8"?>
<svg width="34px" height="34px" viewBox="0 0 34 34" version="1.1" xmlns="http://www.w3.org/2000/svg" xmlns:xlink="http://www.w3.org/1999/xlink">
    <g id="Post_ico" stroke="none" stroke-width="1" fill-rule="evenodd">
        <g id="like_LikeButton-Setting" transform="translate(-131.000000, -607.000000)" fill-rule="nonzero">
            <g id="Group-9" transform="translate(131.000000, 592.000000)">
                <g id="oice" transform="translate(0.000000, 15.000000)">
                    <circle id="Red" cx="7.96286385" cy="7.96286385" r="7.91816901"></circle>
                    <circle id="Blue" cx="26.0618779" cy="7.96286385" r="7.91816901"></circle>
                    <circle id="Green" cx="7.96286385" cy="26.0618779" r="7.91816901"></circle>
                    <path d="M26.0618779,18.1437089 C21.6887939,18.1437089 18.1437089,21.6887939 18.1437089,26.0618779 C18.1437089,30.4349619 21.6887939,33.9800469 26.0618779,33.9800469 C30.4349619,33.9800469 33.9800469,30.4349619 33.9800469,26.0618779 C33.9800469,23.9618489 33.1458137,21.9478317 31.6608689,20.4628869 C30.1759242,18.9779422 28.1619069,18.1437089 26.0618779,18.1437089 Z M26.0618779,33.1883099 C22.1260583,33.1883099 18.935446,29.9976976 18.935446,26.0618779 C18.935446,22.1260583 22.1260583,18.935446 26.0618779,18.935446 C29.9976976,18.935446 33.1883099,22.1260583 33.1883099,26.0618779 C33.1883099,29.9976976 29.9976976,33.1883099 26.0618779,33.1883099 Z" id="Gray"></path>
                    <path d="M23.46,29.7356338 L23.46,22.3929108 C23.4591355,22.2913775 23.5128197,22.1971885 23.6006208,22.1461912 C23.6884219,22.095194 23.7968357,22.0952321 23.8846009,22.1462911 L30.1099531,25.8176526 C30.1967252,25.869523 30.2498532,25.9631785 30.2498532,26.0642723 C30.2498532,26.1653661 30.1967252,26.2590216 30.1099531,26.310892 L23.8846009,29.9822535 C23.7968357,30.0333125 23.6884219,30.0333506 23.6006208,29.9823534 C23.5128197,29.9313561 23.4591355,29.8371671 23.46,29.7356338 Z" id="Play"></path>
                </g>
            </g>
        </g>
    </g>
</svg>
