<?xml version="1.0" encoding="UTF-8"?>
<svg width="28px" height="28px" viewBox="0 0 28 28" version="1.1" xmlns="http://www.w3.org/2000/svg" xmlns:xlink="http://www.w3.org/1999/xlink">
    <!-- Generator: sketchtool 51.2 (57519) - http://www.bohemiancoding.com/sketch -->
    <title>64DE348F-FF72-4AD1-9D75-69546C0A917A</title>
    <desc>Created with sketchtool.</desc>
    <defs></defs>
    <g id="Post_ico" stroke="none" stroke-width="1" fill="none" fill-rule="evenodd">
        <g id="like_LikeButton-Setting" transform="translate(-131.000000, -1668.000000)" fill="#FFFFFF">
            <g id="Group-6" transform="translate(131.000000, 1668.000000)">
                <g id="Hide">
                    <path d="M14.0001,18.2899523 C13.0788542,18.2899523 12.242858,18.1955361 11.4866114,18.0332868 L11.9761092,17.5428724 C12.5682732,17.9049541 13.2566867,18.1249531 14.0001,18.1249531 C16.1515069,18.1249531 17.9023323,16.3750444 17.9023323,14.2227208 C17.9023323,13.4793075 17.6823333,12.790894 17.3202516,12.19873 L18.4990795,11.0199021 C20.5744034,11.9118147 21.7752313,13.2950584 22.3756453,14.1933876 C21.3828998,15.6334644 18.8886611,18.2899523 14.0001,18.2899523 M11.4728615,14.2227208 C11.4728615,12.8293938 12.606773,11.6954823 14.0001,11.6954823 C14.3621817,11.6954823 14.7040968,11.775232 15.0148454,11.9118147 L11.6891938,15.2374662 C11.5516945,14.9267176 11.4728615,14.5838859 11.4728615,14.2227208 M16.5273385,14.2227208 C16.5273385,15.6160478 15.393427,16.7499593 14.0001,16.7499593 C13.6380183,16.7499593 13.2961032,16.6711264 12.9853546,16.533627 L16.3110062,13.2079754 C16.4485055,13.5196407 16.5273385,13.8615558 16.5273385,14.2227208 M5.62088809,14.1915543 C6.55955049,12.7780607 8.97862282,10.1554893 14.0001,10.1554893 C14.9277624,10.1554893 15.7665086,10.2471556 16.5245885,10.4029882 L16.0240908,10.9025693 C15.4319268,10.5404876 14.7435133,10.3204886 14.0001,10.3204886 C11.8486931,10.3204886 10.0978677,12.0713139 10.0978677,14.2227208 C10.0978677,14.9661341 10.3178667,15.6545477 10.6799484,16.2467116 L9.526787,17.3998731 C7.47162967,16.4932938 6.24330192,15.0953835 5.62088809,14.1915543 M20.2205717,9.29840988 L22.1858961,7.33308548 C22.5443112,6.97558711 22.5443112,6.39533975 22.1858961,6.03692471 C21.8283977,5.67942633 21.2481504,5.67942633 20.8897353,6.03692471 L18.3927467,8.53391336 C17.145169,8.12599855 15.6968423,7.86383307 14.0001,7.86383307 C5.52738851,7.86383307 3.00015,14.2227208 3.00015,14.2227208 C3.00015,14.2227208 4.30272741,17.2385405 7.8107948,19.1158653 L5.81430387,21.1123562 C5.45588884,21.4707712 5.45588884,22.0510186 5.81430387,22.408517 C5.99305306,22.5872661 6.22771866,22.6770991 6.46238426,22.6770991 C6.69704986,22.6770991 6.93171546,22.5872661 7.11046465,22.408517 L9.6294532,19.8895284 C10.8770309,20.3102765 12.318941,20.5816086 14.0001,20.5816086 C22.2564791,20.5816086 25.00005,14.2227208 25.00005,14.2227208 C25.00005,14.2227208 23.7827222,11.1739014 20.2205717,9.29840988" id="Fill-1"></path>
                </g>
            </g>
        </g>
    </g>
</svg>