<?xml version="1.0" encoding="UTF-8"?>
<svg width="28px" height="28px" viewBox="0 0 28 28" version="1.1" xmlns="http://www.w3.org/2000/svg" xmlns:xlink="http://www.w3.org/1999/xlink">
    <!-- Generator: sketchtool 51.2 (57519) - http://www.bohemiancoding.com/sketch -->
    <title>E9DDF608-2BEC-4876-A7A5-64D7D3DD2D9D</title>
    <desc>Created with sketchtool.</desc>
    <defs></defs>
    <g id="Post_ico" stroke="none" stroke-width="1" fill="none" fill-rule="evenodd">
        <g id="like_LikeButton-Setting" transform="translate(-131.000000, -1732.000000)" fill="#FFFFFF">
            <g id="Medium-Copy-8" transform="translate(131.000000, 1732.000000)">
                <g id="see">
                    <path d="M15.7221417,18.3090167 C17.2456417,17.6426 18.314475,16.1246 18.314475,14.3591 C18.314475,12.5881 17.2401417,11.0664333 15.7111417,10.4027667 C19.5703083,10.91335 21.545725,13.08585 22.376225,14.32885 C21.507225,15.5901833 19.488725,17.7810167 15.7221417,18.3090167 M5.620475,14.3270167 C6.44639167,13.0849333 8.41630833,10.9106 12.2901417,10.40185 C10.760225,11.0655167 9.68589167,12.5881 9.68589167,14.3591 C9.68589167,16.1246 10.754725,17.6416833 12.2773083,18.3090167 C8.50155833,17.7791833 6.48305833,15.5791833 5.620475,14.3270167 M13.999725,17.1531 C12.4588083,17.1531 11.205725,15.8991 11.205725,14.3591 C11.205725,12.8181833 12.4588083,11.5651 13.999725,11.5651 C15.5406417,11.5651 16.793725,12.8181833 16.793725,14.3591 C16.793725,15.8991 15.5406417,17.1531 13.999725,17.1531 M13.999725,8.00018333 C5.526975,8.00018333 2.999725,14.3591 2.999725,14.3591 C2.999725,14.3591 5.74330833,20.7171 13.999725,20.7171 C22.2561417,20.7171 24.999725,14.3591 24.999725,14.3591 C24.999725,14.3591 22.472475,8.00018333 13.999725,8.00018333" id="Fill-1"></path>
                    <path d="M15.3150833,14.408 C15.3150833,15.1853333 14.6853333,15.8150833 13.9070833,15.8150833 C13.1306667,15.8150833 12.5,15.1853333 12.5,14.408 C12.5,13.6306667 13.1306667,13 13.9070833,13 C14.6853333,13 15.3150833,13.6306667 15.3150833,14.408" id="Fill-4"></path>
                </g>
            </g>
        </g>
    </g>
</svg>