<?xml version="1.0" encoding="UTF-8"?>
<svg enable-background="new 0 0 28 28" version="1.1" viewBox="0 0 28 28" xml:space="preserve" xmlns="http://www.w3.org/2000/svg">
<path d="m21.8 9.1c-0.6 0.3-1.2 0.4-1.8 0.5 0.7-0.4 1.2-1 1.4-1.8-0.6 0.4-1.3 0.6-2 0.8-1.2-1.3-3.2-1.4-4.5-0.2-0.8 0.8-1.2 2-0.9 3.1-2.6-0.1-5-1.4-6.6-3.4-0.9 1.5-0.4 3.4 1 4.3-0.5 0-1-0.2-1.5-0.4 0 1.5 1.1 2.9 2.6 3.2-0.5 0.1-1 0.1-1.5 0.1 0.4 1.3 1.6 2.2 3 2.2-1.3 1.1-3.1 1.5-4.8 1.3 1.5 0.9 3.2 1.4 4.9 1.4 5.9 0 9.2-4.9 9.2-9.2v-0.4c0.6-0.3 1.1-0.8 1.5-1.5z"/>
</svg>
