<svg xmlns="http://www.w3.org/2000/svg" viewBox="0 0 918.75 367.5"><path d="M498.13,214.46H474.71a1.28,1.28,0,0,1-1.4-1.15,1.13,1.13,0,0,1,0-.26V163.8A2.56,2.56,0,0,0,471,161a2.44,2.44,0,0,0-.54,0h-8.06a2.55,2.55,0,0,0-2.81,2.81v57.77c0,3.58,2,5.63,5.63,5.63h32.88a2.55,2.55,0,0,0,2.81-2.81v-7.12a2.55,2.55,0,0,0-2.81-2.81Z" style="fill:#28646e"/><path d="M842.74,186.63h-9a2.52,2.52,0,0,0-2.74,2.28,3.13,3.13,0,0,0,0,.53v34.95a2.51,2.51,0,0,0,2.2,2.8,2.35,2.35,0,0,0,.53,0h9a2.53,2.53,0,0,0,2.75-2.29,3,3,0,0,0,0-.52V189.44a2.53,2.53,0,0,0-2.22-2.8A2.26,2.26,0,0,0,842.74,186.63Z" style="fill:#28646e"/><path d="M834,177.52c.77-.46.65-1.26.57-1.89-.4-3.11-3.46-16.39-4.4-19.11A1.88,1.88,0,0,0,828,155l-.15,0c-1.33.26-3.06,1.12-5.78,2.76s-4.3,2.77-5.14,3.83a1.89,1.89,0,0,0,.14,2.67l.11.09c2,2.1,12.3,11,14.87,12.79.52.36,1.17.85,1.93.38Z" style="fill:#28646e"/><path d="M842,160c.79.42,1.41-.1,1.91-.49a159.08,159.08,0,0,0,14.17-13.55,1.89,1.89,0,0,0,.21-2.66l-.1-.11c-.9-1-2.53-2.06-5.33-3.55s-4.58-2.27-5.92-2.46a1.9,1.9,0,0,0-2.23,1.5s0,.09,0,.13c-.79,2.77-3.14,16.19-3.37,19.32-.05.63-.13,1.43.66,1.86Z" style="fill:#28646e"/><path d="M536.74,186.63h-9a2.53,2.53,0,0,0-2.75,2.29,3,3,0,0,0,0,.52v34.95a2.53,2.53,0,0,0,2.22,2.8,2.26,2.26,0,0,0,.52,0h9a2.52,2.52,0,0,0,2.74-2.28,3.13,3.13,0,0,0,0-.53V189.44a2.51,2.51,0,0,0-2.2-2.8A2.35,2.35,0,0,0,536.74,186.63Z" style="fill:#28646e"/><path d="M528,177.52c.77-.46.64-1.26.56-1.89-.39-3.11-3.45-16.39-4.39-19.11A1.89,1.89,0,0,0,522,155l-.13,0c-1.33.26-3.07,1.12-5.78,2.76s-4.3,2.77-5.14,3.83a1.89,1.89,0,0,0,.14,2.67l.11.09c2,2.1,12.3,11,14.87,12.79.52.36,1.16.85,1.93.38Z" style="fill:#28646e"/><path d="M536,160c.79.42,1.41-.1,1.91-.49a159.08,159.08,0,0,0,14.17-13.55,1.88,1.88,0,0,0,.21-2.65l-.11-.12c-.89-1-2.52-2.06-5.33-3.55s-4.57-2.27-5.91-2.46a1.9,1.9,0,0,0-2.23,1.5s0,.09,0,.13c-.79,2.77-3.14,16.19-3.37,19.32-.05.63-.13,1.43.66,1.86Z" style="fill:#28646e"/><path d="M610.7,227.15h-8.07a2.55,2.55,0,0,1-2.81-2.81V212.43a9.35,9.35,0,0,0-18.69,0v11.91a2.56,2.56,0,0,1-2.28,2.81,2.44,2.44,0,0,1-.54,0h-8.06a2.56,2.56,0,0,1-2.82-2.27,2.44,2.44,0,0,1,0-.54V165a2.57,2.57,0,0,1,2.29-2.82,2.35,2.35,0,0,1,.53,0h8.06a2.55,2.55,0,0,1,2.82,2.27,2.53,2.53,0,0,1,0,.55v25.16a1.92,1.92,0,0,0,1.92,1.92h.08a5,5,0,0,0,3.58-2.43l10.85-16c1.31-1.81,2.44-2.69,4.23-2.69h9.46c2,0,3.07,1.66,1.92,3.45L601,190.92c-.64,1-.77,1.92.77,2.69a20.91,20.91,0,0,1,11.77,18.81v11.91a2.54,2.54,0,0,1-2.24,2.82A2.08,2.08,0,0,1,610.7,227.15Z" style="fill:#28646e"/><path d="M656.05,169.65c-13.08,0-21.81,9.45-21.81,20.23v17.93c0,10.78,8.73,20.23,21.81,20.23,11.92,0,16.49-5.63,18.82-10.32a2.86,2.86,0,0,0-.73-3.63l-5.69-3.76a2.42,2.42,0,0,0-3.43.34,1.35,1.35,0,0,0-.2.27c-2.3,3.87-5,5.59-8.77,5.59a8.62,8.62,0,0,1-8.85-8.39v-2.51a1.21,1.21,0,0,1,1.08-1.33,1.13,1.13,0,0,1,.26,0h24c3.39,0,5.33-1.94,5.33-5.33v-9.09C677.85,179.1,669.13,169.65,656.05,169.65Zm8.84,22.41a1.21,1.21,0,0,1-1.07,1.34H648.56a1.22,1.22,0,0,1-1.34-1.09,1,1,0,0,1,0-.25v-2.18a8.85,8.85,0,0,1,17.69,0Z" style="fill:#28646e"/><path d="M723.08,172c5.57,0,7.84,3.67,10.25,7.71.88,1.4,2.4,1.52,3.79.64l5.94-3.92c1.52-1,1.14-2.91.76-3.8-2.4-6.2-9.48-12.65-20.74-12.65-13.66,0-22.77,9.87-22.77,21.13v25.85c0,11.26,9.11,21.12,22.77,21.12,11.26,0,18.34-6.45,20.74-12.65.38-.88.76-2.78-.76-3.79l-5.94-3.92a2.55,2.55,0,0,0-3.59.35,2.83,2.83,0,0,0-.2.28c-2.41,4.05-4.68,7.71-10.25,7.71a9,9,0,0,1-9.23-8.77V181.07a9,9,0,0,1,8.89-9.11Z" style="fill:#28646e"/><path d="M783.57,170.26c-13.08,0-21.8,9.45-21.8,20.23v17.32c0,10.78,8.72,20.23,21.8,20.23s21.81-9.45,21.81-20.23V190.49C805.38,179.75,796.66,170.26,783.57,170.26Zm8.85,37.55a8.85,8.85,0,0,1-17.69,0V190.49a8.85,8.85,0,0,1,17.69,0Z" style="fill:#28646e"/><path d="M895.72,170.3a22.19,22.19,0,0,0-11.13,2.94,1.25,1.25,0,0,1-1.72-.39.75.75,0,0,1-.07-.12,2.59,2.59,0,0,0-2.31-1.15h-5a2.56,2.56,0,0,0-2.81,2.28,2.44,2.44,0,0,0,0,.54v50a2.55,2.55,0,0,0,2.81,2.81h8.06a2.56,2.56,0,0,0,2.82-2.27,2.44,2.44,0,0,0,0-.54V191.67a9.34,9.34,0,1,1,18.68,0v32.72a2.55,2.55,0,0,0,2.81,2.81h8.06a2.56,2.56,0,0,0,2.82-2.27,2.44,2.44,0,0,0,0-.54V191.67C918.75,180.28,909.54,170.3,895.72,170.3Z" style="fill:#28646e"/><path d="M183.75,367.5C82.43,367.5,0,285.07,0,183.75S82.43,0,183.75,0,367.5,82.43,367.5,183.75,285.07,367.5,183.75,367.5Zm0-351.94C91,15.56,15.56,91,15.56,183.75S91,351.94,183.75,351.94,352,276.49,352,183.75,276.49,15.56,183.75,15.56Z" style="fill:#28646e"/><path d="M171.6,150.18a5.22,5.22,0,0,1-3.46-9.14c14.76-13,21.29-23.74,22.45-25.76,4.34-7.56,11.31-11.47,18.63-10.47a5.22,5.22,0,1,1-1.41,10.35h0c-4.27-.57-7.13,3.53-8.16,5.33-1.3,2.27-8.61,14.29-24.59,28.39A5.25,5.25,0,0,1,171.6,150.18Z" style="fill:#28646e"/><path d="M83.64,238.75a5.23,5.23,0,0,1-3.35-9.24,145.68,145.68,0,0,1,19.23-12.85,5.23,5.23,0,0,1,4.67,9.35A140,140,0,0,0,87,237.54,5.18,5.18,0,0,1,83.64,238.75Z" style="fill:#28646e"/><path d="M215,189.18c2.07,1.94,4.48,1.1,6.7-1,15.14-14.43,31.18-37.09,36.53-48.85,1.14-2.51,3.45-3.91,5.93-2.92,2.91,1.18,2.87,6.19.23,11.63-7,14.4-16.7,30.26-35.86,50.1a4,4,0,0,0-.17,5.65l.26.26c1.69,1.52,4.43,1.42,7-1.19,10-10.15,16.65-18,22.41-26.15,1.47-2.14,3.25-3,5-2.61,2.52.5,2.92,2.92,2.15,5.83-1.25,4.7-14.47,22-19.7,27.87-14.2,15.84-28.41,24.52-55.74,38.73-9.54,5-16.68,9.7-21,17-3.93,6.64-5.11,8.81-5.51,9.65a6.64,6.64,0,0,0,2.91,8.84,6.44,6.44,0,0,0,8.58-3c0-.1.09-.21.14-.32s-.2.11,4.94-8.58a37.29,37.29,0,0,1,16.1-14.2c27.34-12.46,38.54-22.32,54.4-38.18,7.24-7.24,17.24-22.75,20-27.34,7.64-12.86,3.63-23.89-3.27-25.76a.89.89,0,0,1-.65-1.06.87.87,0,0,1,.1-.24c5.34-9.15,7.77-15.47,8.78-20.37,1.36-6.66-.53-14.74-9.67-16.71a.88.88,0,0,1-.65-1.06v0c.57-2.11,1.14-4.77,1.53-6.52,1.92-8.65-3.55-16.48-10.12-17.89a15.23,15.23,0,0,0-12.32,2.57,1.22,1.22,0,0,1-1.59-.2,9.54,9.54,0,0,0-6.82-3.18c-5.73-.1-11.36,1.66-15.48,10.46-2.95,6.29-7.34,14.74-20.2,29-11.93,13.23-28.54,26.13-38.79,32.86-1.8,1.18-4.32.9-4-1.51.48-3.84,4.59-29.59,5.29-37.18,1.14-12.33-5.49-18-12.93-19-6.12-.83-15.41.93-20.5,14.87-3,8.17-9.2,21.59-14.47,43.21-3.71,15.21-4.32,32.94-.93,53.31a5.11,5.11,0,0,1-.67,3.56c-4.06,6.68-10,15.47-13.32,23.14a6.58,6.58,0,0,0,2.73,8.38,6.44,6.44,0,0,0,8.74-2.56c.06-.11.12-.23.17-.34,2-4.16,6-12,7.61-15.21,2.76-5.65,4.59-9.38,5.34-11.73.68-2.14,1.08-4.62-.15-10.26-2.08-9.49-2.81-27.33,1.06-43a443.8,443.8,0,0,1,15.4-48c1.56-3.85,3.77-5.05,6-4.85s6.43,1.27,5.22,9.11c-2.16,14.09-5.22,32-6.23,38-.49,3-1.06,9.85,4.39,13,4.25,2.46,8.93,1.09,14.1-2.36,11.64-7.76,31.69-23.57,44.29-37.72,13.22-14.85,17.43-23.69,20.83-31.69,1.55-3.65,5.53-3.62,6.94-3.21s3.11,2.31,1.91,6.33c-2.93,9.76-15,32.12-38.26,53.09-2.63,2.38-2.26,5.19-.92,6.66s3.71,2.35,6.42,0c20.9-17.82,32.83-39.12,38.19-50.51A92.41,92.41,0,0,0,248,114c1.14-3.31,3.69-4.49,5.47-4.12,2.54.54,4.22,3.15,3.41,7.44a75.76,75.76,0,0,1-5.69,15.88c-6.7,14.22-20.85,33.25-36.11,49.59a4.29,4.29,0,0,0-.38,6.06C214.81,189,214.91,189.08,215,189.18Z" style="fill:#28646e"/><path d="M120.53,118.36c.81-.71.49-1.62.26-2.35-1.12-3.59-7.53-18.61-9.21-21.63-.85-1.52-1.92-1.73-3.07-1.29-1.51.58-3.38,2-6.24,4.48s-4.48,4.18-5.25,5.6c-.59,1.09-.52,2.18.88,3.21,2.77,2.06,16.83,10.37,20.25,12,.69.32,1.55.75,2.36,0Z" style="fill:#28646e"/><path d="M236.42,251.32c-1.07.07-1.37,1-1.63,1.7-1.29,3.54-5.33,19.37-5.82,22.79-.25,1.71.47,2.53,1.65,2.88,1.55.46,3.88.49,7.68.23s6.09-.59,7.57-1.26c1.13-.5,1.73-1.41,1.25-3.08-1-3.31-7.07-18.46-8.82-21.8-.35-.67-.78-1.54-1.85-1.46Z" style="fill:#28646e"/><path d="M245.56,244c-.49,1,.13,1.69.61,2.28,2.35,2.94,13.78,14.61,16.44,16.81,1.34,1.11,2.41.92,3.32.09,1.2-1.09,2.44-3.06,4.19-6.44s2.66-5.52,2.86-7.12c.16-1.22-.31-2.21-2-2.67-3.33-.91-19.45-3.56-23.21-3.79-.76,0-1.72-.14-2.22.82Z" style="fill:#28646e"/><path d="M115,128.16c-.19-1.06-1.14-1.26-1.87-1.44-3.66-.9-19.84-3.18-23.29-3.31-1.73-.06-2.47.75-2.69,2-.29,1.59-.06,3.91.61,7.65s1.25,6,2.07,7.4c.63,1.06,1.6,1.56,3.2.91,3.2-1.31,17.59-9,20.71-11.14.63-.43,1.45-.94,1.26-2Z" style="fill:#28646e"/><circle cx="183.75" cy="331.94" r="5.83" style="fill:#28646e"/><circle cx="183.75" cy="35.56" r="5.83" style="fill:#28646e"/><circle cx="222.11" cy="326.89" r="5.83" style="fill:#28646e"/><circle cx="145.4" cy="40.61" r="5.83" style="fill:#28646e"/><circle cx="257.85" cy="312.09" r="5.83" style="fill:#28646e"/><circle cx="109.66" cy="55.41" r="5.83" transform="translate(37.4 154.78) rotate(-80.78)" style="fill:#28646e"/><circle cx="288.54" cy="288.54" r="5.83" style="fill:#28646e"/><circle cx="78.96" cy="78.96" r="5.83" style="fill:#28646e"/><circle cx="312.09" cy="257.85" r="5.83" style="fill:#28646e"/><circle cx="55.41" cy="109.65" r="5.83" style="fill:#28646e"/><circle cx="326.89" cy="222.1" r="5.83" style="fill:#28646e"/><circle cx="40.61" cy="145.4" r="5.83" style="fill:#28646e"/><circle cx="331.94" cy="183.75" r="5.83" style="fill:#28646e"/><circle cx="35.56" cy="183.75" r="5.83" style="fill:#28646e"/><circle cx="326.89" cy="145.4" r="5.83" style="fill:#28646e"/><circle cx="40.61" cy="222.1" r="5.83" style="fill:#28646e"/><circle cx="312.09" cy="109.65" r="5.83" style="fill:#28646e"/><circle cx="55.41" cy="257.85" r="5.83" style="fill:#28646e"/><circle cx="288.54" cy="78.96" r="5.83" style="fill:#28646e"/><circle cx="78.96" cy="288.54" r="5.83" style="fill:#28646e"/><circle cx="257.85" cy="55.41" r="5.83" style="fill:#28646e"/><circle cx="109.66" cy="312.09" r="5.83" style="fill:#28646e"/><circle cx="222.11" cy="40.61" r="5.83" style="fill:#28646e"/><circle cx="145.4" cy="326.89" r="5.83" style="fill:#28646e"/></svg>