<svg xmlns="http://www.w3.org/2000/svg" viewBox="0 0 1200 630"><rect width="1200" height="630" style="fill:#fff"/><path d="M972.43,402.46c-28.93,0-50.5-19.2-50.5-42.49h30.64c.25,8.65,9.07,14.89,20.35,14.89,12,0,19.61-5.76,19.61-14.41,0-11-12-13.44-24.27-16.56-25.49-6.24-43.63-16.56-43.63-40.8,0-22.8,21.08-40.57,48.78-40.57,26.72,0,48.79,18,48.79,41.53l-30.65-.24c0-8.88-8.58-13.92-18.14-13.92-9.8,0-18.14,4.8-18.14,13,0,9.84,11.77,12.24,24,15.36,18.14,4.56,43.14,10.56,43.14,41.76C1022.44,383.5,999.89,402.46,972.43,402.46Zm-130.62-4.37V265.44h80.12V293.5h-49.8V398.09ZM715.08,319.37H795.2c-2.7-16.69-18.62-30.61-40.18-30.61S717.28,301.66,715.08,319.37Zm40.06,83.09c-41.3,0-73.57-31.68-73.57-70.57s32.27-69.37,73.57-69.37S828.7,293,828.7,332.85a52,52,0,0,1-1,9.6H714.32c3.43,18.24,20.78,31.93,41.31,31.93,16.13,0,29.57-7.44,35.92-20.89h33.73C815.75,382.06,788.86,402.46,755.14,402.46Zm-309.79-27.7c24.28,0,41-18.22,41-42.27,0-24.29-16.75-42.27-41-42.27-24,0-40.55,18-40.55,42.27C404.8,356.54,421.31,374.76,445.35,374.76Zm-5.08,27.7c-38,0-66.06-31.15-66.06-70s28.07-70,66.06-70c23.72,0,42.11,12.7,50.58,30.2h1V266.36h29.52v132.5H491.82V373h-1C479.23,393.83,461.81,402.46,440.27,402.46Zm-262.71-4.37V227.54h41.63l46.74,129.89h.73L313.4,227.54h41.87V398.09H325.33V277.57h-1c-1.46,5.3-2.92,11.07-5.6,18.29L280.54,398.09h-28L214.32,295.86a145.26,145.26,0,0,1-5.6-18.29h-1V398.09Zm426.81-133h19.32V227.54h30.55v37.53h21.51v28.14H654.24v76.73H675v28.15H623.69V293.21H582.86v76.73h20.78v28.15H552.31V293.21H531.54V265.07h20.77V227.54h30.55v37.53Z" style="fill-rule:evenodd"/></svg>