<svg id="Layer_1" data-name="Layer 1" xmlns="http://www.w3.org/2000/svg" viewBox="0 0 1200 630"><rect width="1200" height="630" style="fill:#ff485a"/><path d="M467.47,371l-33-82.19a8.37,8.37,0,0,0-7.72-5.34H410.53l48.38,113.69h16.65l48.65-113.69H508.35a8.36,8.36,0,0,0-7.72,5.34Z" style="fill:#fff"/><path d="M548,294.51a59.92,59.92,0,0,1,102.57,42.05V337a60,60,0,0,1-120,.43V337A59.31,59.31,0,0,1,548,294.51Zm14.22,71.57a40,40,0,0,0,28.35,12.46,39.18,39.18,0,0,0,38.89-40.94v-.44a40.17,40.17,0,0,0-39.49-41.59c-21.82,0-38.68,17.69-38.68,41.16v.43A39.91,39.91,0,0,0,562.18,366.08Z" style="fill:#fff;fill-rule:evenodd"/><path d="M759.59,364.85a42.44,42.44,0,0,1-30.26,13.5A39.9,39.9,0,0,1,690.17,337v-.44c0-23.07,16.71-41.13,38.23-41.13a40.09,40.09,0,0,1,28.29,12l1.36,1.31a5.87,5.87,0,0,0,8.42,0l9.44-10-1.2-1.31A60.11,60.11,0,0,0,669.47,337.1v.44a59.68,59.68,0,0,0,106.12,37.38l1.25-1.36-9.28-8.65a5.47,5.47,0,0,0-7.81,0Z" style="fill:#fff"/><path d="M974.17,327.27h-.43c-13.51-4.23-26.33-8.23-26.33-17.33v-.44c0-8.6,7.75-14.36,19.28-14.36a56.58,56.58,0,0,1,27.76,8.33,6,6,0,0,0,8.28-2.19l6.08-10.42-1.27-1a74.71,74.71,0,0,0-40.31-12.71c-23,0-39,14-39,34v.44c0,22.59,21.36,28.89,37.38,33.5,14.69,4.22,25.9,8.22,25.9,17.87v.44c0,9.48-8.33,15.89-20.72,15.89a58.75,58.75,0,0,1-32.73-11,6.78,6.78,0,0,0-9.5,1.75l-6.46,9.1,1.38,1.1a75.8,75.8,0,0,0,46.35,16.89c24.35,0,40.69-14.26,40.69-35.47v-.44C1010.53,338.5,988.64,331.76,974.17,327.27Z" style="fill:#fff"/><path d="M844.66,379C826.71,379,816,367.51,816,348.29V291.71a8.39,8.39,0,0,0-8.49-8.29H795.79V352c0,27.35,17.36,45,44.17,45a43.29,43.29,0,0,0,31.62-11.83V364.13A30,30,0,0,1,844.66,379Z" style="fill:#fff"/><path d="M888.82,283.42H877.89V389a7.93,7.93,0,0,0,7.72,8.07h11.23V291.86A8.24,8.24,0,0,0,888.82,283.42Z" style="fill:#fff"/><path d="M325,258.16H189.47V362.81a34.8,34.8,0,0,0,35,34.3H360V292.46A34.78,34.78,0,0,0,325,258.16Zm-41.42,77H225.65a14.29,14.29,0,0,1-14.1-14.44V279.4h58a14.28,14.28,0,0,1,14,14.44Zm17.15,40.09h37.51L338.19,351a8.82,8.82,0,0,0-9.06-8.5H291.62v24.27A8.8,8.8,0,0,0,300.73,375.23Z" style="fill:#fff;fill-rule:evenodd"/></svg>