<svg xmlns="http://www.w3.org/2000/svg" width="296" height="29" viewBox="0 0 296 29">
    <path fill="#28646E" fill-rule="evenodd" d="M13.117 13.06V23H9.14v-9.324c0-1.103-.158-1.891-.472-2.365-.315-.474-.827-.711-1.538-.711-.73 0-1.299.32-1.71.963-.41.643-.614 1.534-.614 2.673V23H.826V1.727h3.979v8.257c.282-.847.765-1.504 1.449-1.968.683-.465 1.508-.698 2.474-.698 1.45 0 2.543.481 3.282 1.443.738.961 1.107 2.395 1.107 4.3zm11.405-9.72v4.348h5.236v3.076h-5.236v7.246c0 .683.166 1.173.5 1.47.332.296.885.444 1.66.444h3.076V23h-3.363c-2.297 0-3.85-.367-4.662-1.1-.811-.734-1.217-2.095-1.217-4.082v-7.054h-3.91V7.688h3.91V3.34h4.006zm16.614 0v4.348h5.236v3.076h-5.236v7.246c0 .683.166 1.173.499 1.47.333.296.886.444 1.661.444h3.076V23H43.01c-2.297 0-3.85-.367-4.662-1.1-.811-.734-1.217-2.095-1.217-4.082v-7.054h-3.91V7.688h3.91V3.34h4.006zm13.223 17.5v7.984h-3.992V7.687h3.992v2.297c.42-.884.971-1.55 1.655-1.996.683-.446 1.485-.67 2.406-.67 1.75 0 3.108.702 4.074 2.106.966 1.403 1.45 3.381 1.45 5.933 0 2.589-.49 4.576-1.47 5.961-.98 1.386-2.377 2.078-4.19 2.078-.821 0-1.557-.211-2.209-.635-.652-.424-1.224-1.064-1.716-1.921zm5.578-5.51c0-1.476-.246-2.634-.738-3.473-.492-.838-1.171-1.257-2.037-1.257-.866 0-1.55.419-2.05 1.257-.502.839-.753 1.997-.753 3.473 0 1.477.251 2.634.752 3.473.502.838 1.185 1.258 2.051 1.258.866 0 1.545-.42 2.037-1.258.492-.839.738-1.996.738-3.473zM78.48 8.166v3.5a9.177 9.177 0 0 0-2.304-1.073 8.24 8.24 0 0 0-2.399-.363c-.893 0-1.568.13-2.023.39-.456.26-.684.645-.684 1.155 0 .73.975 1.322 2.926 1.778l.15.04 1.149.274c1.458.347 2.527.905 3.206 1.675.679.77 1.018 1.812 1.018 3.124 0 1.577-.517 2.76-1.552 3.548-1.034.788-2.59 1.182-4.669 1.182-.92 0-1.863-.08-2.83-.239a20.578 20.578 0 0 1-2.94-.718v-3.5c.885.502 1.785.885 2.701 1.149a9.575 9.575 0 0 0 2.66.396c.938 0 1.649-.136 2.132-.41.483-.273.725-.67.725-1.19 0-.51-.171-.902-.513-1.175-.342-.273-1.155-.565-2.44-.875l-1.108-.246c-1.531-.346-2.648-.889-3.35-1.627-.701-.738-1.052-1.727-1.052-2.967 0-1.476.533-2.625 1.6-3.445 1.066-.82 2.565-1.23 4.498-1.23.865 0 1.729.07 2.59.211.862.142 1.698.353 2.51.636zm9.204.3h4.553v4.991h-4.553v-4.99zm0 9.516h4.553V23h-4.553v-5.018zm22.766-15.394h3.022l-10.746 23.01h-3.022l10.746-23.01zm16.614 0h3.022l-10.746 23.01h-3.022l10.746-23.01zm9.614 14.027V4.803h-4.06V1.727h8.066v14.888c0 1.203.187 2.056.56 2.557.374.501 1.008.752 1.9.752h3.2V23h-4.32c-1.905 0-3.272-.492-4.102-1.477-.83-.984-1.244-2.62-1.244-4.908zm14.344-8.927h7.93v12.236h4.977V23h-13.973v-3.076h4.99v-9.16h-3.924V7.688zm3.924-7.452h4.006v4.676h-4.006V.236zm12.048 1.49h4.006v11.17l4.812-5.209h4.854l-5.797 5.715L180.993 23h-4.43l-4.197-7.164-1.367 1.312V23h-4.006V1.727zm29.301 20.522c-.93.383-1.877.67-2.843.861-.967.192-1.987.287-3.063.287-2.561 0-4.519-.685-5.872-2.057-1.354-1.372-2.03-3.347-2.03-5.927 0-2.497.651-4.47 1.955-5.92 1.303-1.449 3.08-2.174 5.332-2.174 2.27 0 4.03.673 5.284 2.017 1.253 1.344 1.88 3.238 1.88 5.68v1.628H186.56c.009 1.203.364 2.1 1.066 2.693.702.592 1.75.889 3.145.889a9.54 9.54 0 0 0 2.72-.397c.894-.264 1.828-.683 2.803-1.258v3.678zm-3.39-8.613c-.019-1.058-.29-1.857-.814-2.4-.524-.542-1.296-.813-2.317-.813-.92 0-1.654.28-2.201.84-.547.561-.87 1.356-.971 2.386l6.303-.013zm11.077 4.347h4.552V23h-4.552v-5.018zm24.98 4.239c-.674.392-1.398.686-2.173.882a10.18 10.18 0 0 1-2.502.293c-2.36 0-4.207-.71-5.537-2.132-1.331-1.422-1.996-3.39-1.996-5.907 0-2.524.67-4.5 2.01-5.926 1.34-1.427 3.19-2.14 5.55-2.14.82 0 1.611.096 2.372.287.761.192 1.52.488 2.277.889v3.664a6.542 6.542 0 0 0-1.921-1.155 5.972 5.972 0 0 0-2.167-.404c-1.304 0-2.306.415-3.008 1.244-.702.83-1.053 2.01-1.053 3.541 0 1.532.351 2.707 1.053 3.528.702.82 1.704 1.23 3.008 1.23.774 0 1.5-.13 2.174-.39a6.364 6.364 0 0 0 1.914-1.182v3.678zm10.53-11.649c-.956 0-1.708.422-2.255 1.265-.547.843-.82 2.017-.82 3.52 0 1.504.273 2.678.82 3.52.547.844 1.299 1.266 2.256 1.266.966 0 1.722-.422 2.27-1.265.546-.843.82-2.017.82-3.52 0-1.504-.274-2.678-.82-3.521-.548-.843-1.304-1.265-2.27-1.265zm-7.081 4.785c0-2.47.64-4.427 1.92-5.872 1.281-1.444 3.001-2.167 5.162-2.167 2.169 0 3.894.723 5.174 2.167 1.281 1.445 1.921 3.402 1.921 5.872 0 2.47-.64 4.428-1.92 5.872-1.281 1.445-3.006 2.167-5.175 2.167-2.16 0-3.88-.722-5.162-2.167-1.28-1.444-1.92-3.402-1.92-5.872zm27.565-12.77h3.021l-10.746 23.01h-3.021l10.746-23.01zm7.344 5.1h7.93v12.237h4.976V23h-13.972v-3.076h4.99v-9.16h-3.924V7.688zm3.924-7.45h4.006v4.675h-4.006V.236zm24.311 12.824V23h-3.978v-9.324c0-1.112-.158-1.907-.472-2.386-.315-.478-.827-.718-1.538-.718-.72 0-1.288.324-1.702.971-.415.647-.622 1.545-.622 2.693V23h-3.979V7.687h3.979v2.297c.282-.847.765-1.504 1.449-1.968.683-.465 1.508-.698 2.474-.698 1.45 0 2.543.481 3.282 1.443.738.961 1.107 2.395 1.107 4.3z"/>
</svg>
