<svg xmlns="http://www.w3.org/2000/svg" width="103" height="118" viewBox="0 0 103 118">
    <defs>
        <filter id="a" width="115.7%" height="112.7%" x="-7.4%" y="-4.5%" filterUnits="objectBoundingBox">
            <feOffset dy="2" in="SourceAlpha" result="shadowOffsetOuter1"/>
            <feGaussianBlur in="shadowOffsetOuter1" result="shadowBlurOuter1" stdDeviation="2"/>
            <feColorMatrix in="shadowBlurOuter1" result="shadowMatrixOuter1" values="0 0 0 0 0 0 0 0 0 0 0 0 0 0 0 0 0 0 0.5 0"/>
            <feMerge>
                <feMergeNode in="shadowMatrixOuter1"/>
                <feMergeNode in="SourceGraphic"/>
            </feMerge>
        </filter>
    </defs>
    <g fill="none" fill-rule="nonzero" filter="url(#a)" transform="translate(4 2)">
        <path fill="#FFF" d="M47.467 4.185c17.517 13.57 37.604 12.733 43.343 12.733-1.256 77.18-10.82 66.897-43.343 88.539C14.946 83.815 5.44 94.097 4.185 16.918c5.68 0 25.766.837 43.282-12.733z"/>
        <path fill="#3375BB" d="M47.467 4.185L50 .916a4.134 4.134 0 0 0-5.064 0l2.532 3.269zM90.81 16.918l4.134.068a4.135 4.135 0 0 0-4.134-4.202v4.134zm-43.343 88.539l-2.29 3.441a4.133 4.133 0 0 0 4.58 0l-2.29-3.441zM4.185 16.918v-4.134A4.134 4.134 0 0 0 .05 16.986l4.134-.068zm40.75-9.465c18.763 14.537 40.233 13.6 45.875 13.6v-8.269c-5.836 0-24.541.737-40.81-11.868l-5.065 6.537zm41.74 9.398c-.31 19.204-1.123 32.75-2.68 42.787-1.535 9.93-3.73 15.88-6.557 20.06-2.863 4.343-6.455 6.92-11.778 10.1-5.368 3.216-12.15 6.68-20.483 12.217l4.58 6.883c7.929-5.283 14.539-8.65 20.15-12.005 5.656-3.39 10.632-7.124 14.382-12.563 3.787-5.602 6.25-12.904 7.878-23.429 1.607-10.419 2.46-24.53 2.777-43.915l-8.268-.135zm-36.917 85.164c-8.333-5.537-15.11-9-20.472-12.216-5.317-3.179-8.901-5.755-11.757-10.097-2.82-4.18-5.009-10.131-6.539-20.062C9.44 49.603 8.63 36.056 8.32 16.85l-8.268.135C.367 36.37 1.217 50.48 2.818 60.899c1.621 10.523 4.077 17.825 7.856 23.427 3.742 5.44 8.71 9.175 14.362 12.567 5.606 3.355 12.213 6.722 20.14 12.005l4.582-6.883zM4.185 21.053c5.584 0 27.052.936 45.814-13.6L44.935.916C28.665 13.522 9.96 12.784 4.185 12.784v8.269z"/>
    </g>
</svg>
