<svg xmlns="http://www.w3.org/2000/svg" width="56" height="56" viewBox="0 0 56 56">
    <g fill="#6E2828" fill-rule="evenodd">
        <path d="M29.929 53.074l10.25-10.251a19.146 19.146 0 0 1-10.25 10.251zM14.337 35.488v-15.71l12.495-2.216v35.814c-7.427-2.733-12.495-9.873-12.495-17.888zm14.832 13.83l12.436-12.436a18.874 18.874 0 0 1-.75 4.026L29.17 52.595V49.32zm12.494-22.765L29.169 39.048V35.77l12.494-12.494v3.276zm0 4.516L29.169 43.563v-3.276l12.494-12.494v3.276zm0 4.42c0 .033-.004.067-.004.1l-12.49 12.49v-3.277l12.494-12.494v3.18zm0-15.712v2.26L29.169 34.532v-3.277l11.63-11.63.864.152zm-1.916-.34L29.17 30.016v-3.277l7.795-7.795 2.783.493zm-3.836-.68L29.169 25.5v-3.276l3.96-3.96 2.782.494zm-3.836-.68l-2.906 2.907v-3.277l.123-.123 2.783.494zm10.96-.43l-14.83-2.629a1.166 1.166 0 0 0-.409 0l-14.831 2.63a1.168 1.168 0 0 0-.965 1.15v16.69c0 9.585 6.451 18.068 15.688 20.628.01.002.02.001.029.004.091.023.185.039.283.039.098 0 .192-.016.284-.039.009-.003.019-.002.028-.004C37.55 53.556 44 45.073 44 35.488v-16.69c0-.567-.407-1.052-.965-1.15zM23.762 7.026a1.974 1.974 0 0 1-1.972 1.97 1.973 1.973 0 0 1-1.97-1.97V5.298c0-1.087.884-1.97 1.97-1.97 1.087 0 1.972.883 1.972 1.97v1.728zM37.21 4.998H26.074A4.3 4.3 0 0 0 21.79 1a4.303 4.303 0 0 0-4.297 4.298v1.728a4.303 4.303 0 0 0 4.297 4.298 4.3 4.3 0 0 0 4.284-3.998h6.483V8.96a1.164 1.164 0 0 0 2.327 0V7.326h1.163V8.96a1.164 1.164 0 0 0 2.327 0V6.162c0-.643-.521-1.164-1.164-1.164z"/>
    </g>
</svg>
