<svg width="64" height="64" fill="none" xmlns="http://www.w3.org/2000/svg">
  <path
    d="M24.75 5.918a14.5 14.5 0 0114.5 0l11.713 6.762a14.5 14.5 0 017.25 12.558v13.524a14.5 14.5 0 01-7.25 12.558L39.25 58.082a14.5 14.5 0 01-14.5 0L13.037 51.32a14.5 14.5 0 01-7.25-12.558V25.238a14.5 14.5 0 017.25-12.558L24.75 5.918z"
    stroke="#AAF1E7" stroke-width="3" />
  <path fill-rule="evenodd" clip-rule="evenodd"
    d="M33.573 20.283a3 3 0 00-3 0l-7.96 4.595a3 3 0 00-1.5 2.598v9.19a3 3 0 001.5 2.599l7.96 4.595a3 3 0 003 0l7.959-4.595a3 3 0 001.5-2.598v-9.19a3 3 0 00-1.5-2.599l-7.96-4.595zm-2 1.732a1 1 0 011 0l7.959 4.595a1 1 0 01.5.866v9.19a1 1 0 01-.5.867l-7.96 4.595a1 1 0 01-1 0l-7.959-4.595a1 1 0 01-.5-.866v-9.19a1 1 0 01.5-.867l7.96-4.595zm-4.534 5.172a1 1 0 10-.933 1.769l5.05 2.663v6.453a1 1 0 002 0V31.61l4.894-2.66a1 1 0 00-.955-1.757L32.15 29.88l-5.11-2.694z"
    fill="#28646E" />
</svg>
