<svg xmlns="http://www.w3.org/2000/svg" viewBox="0 0 194 199">
  <g stroke="#3B99FC">
    <path
      d="M33,1H17A16,16,0,0,0,1,17V33.5"
      fill="none"
      stroke-linecap="round"
      stroke-width="2"
    />
    <path
      d="M193,33.25v-16a16,16,0,0,0-16-16H160.5"
      fill="none"
      stroke-linecap="round"
      stroke-width="2"
    />
    <path
      d="M1,161v16a16,16,0,0,0,16,16H33.5"
      fill="none"
      stroke-linecap="round"
      stroke-width="2"
    />
    <path
      d="M161,193.25h16a16,16,0,0,0,16-16v-16.5"
      fill="none"
      stroke-linecap="round"
      stroke-width="2"
    />
  </g>
  <g fill="#3B99FC">
    <path
      d="M84.76,191.85l-1.21,4.35H82.3l-1.69-6.36H82l1,4.61h0l1.19-4.61h1.12l1.19,4.61h0l1-4.61H89l-1.69,6.36H86l-1.21-4.35Zm6,3.5a.94.94,0,0,0,1-.88v-.35l-1,.07c-.48,0-.75.25-.75.58S90.35,195.35,90.79,195.35Zm-.43.92a1.46,1.46,0,0,1-1.58-1.43c0-.86.66-1.35,1.84-1.43l1.19-.07V193c0-.44-.31-.69-.79-.69a.76.76,0,0,0-.85.58H89c.05-.92.83-1.55,2.08-1.55s2,.63,2,1.58v3.25H91.83v-.72h0A1.62,1.62,0,0,1,90.36,196.27Zm3.57-.07v-6.36h1.29v6.36Zm2.19,0v-6.36h1.29v6.36Zm4.27-3.87a1,1,0,0,0-1,1h2A1,1,0,0,0,100.39,192.33Zm1,2.43h1.19a2,2,0,0,1-2.16,1.54,2.21,2.21,0,0,1-2.33-2.44,2.23,2.23,0,0,1,2.28-2.49,2.15,2.15,0,0,1,2.24,2.37v.39H99.37v.08a1.05,1.05,0,0,0,1.08,1.14A.93.93,0,0,0,101.4,194.76Zm2.23-4.37h1.29v1.09h.87v1h-.87v2.26c0,.36.17.53.55.53l.32,0v.94a2.48,2.48,0,0,1-.62.06c-1.11,0-1.54-.37-1.54-1.29v-2.48H103v-1h.67Zm5.79,5.92c-1.85,0-3-1.24-3-3.29s1.16-3.29,3-3.29a2.61,2.61,0,0,1,2.79,2.39h-1.29a1.48,1.48,0,0,0-1.5-1.29c-1,0-1.66.84-1.66,2.18s.64,2.2,1.66,2.2a1.43,1.43,0,0,0,1.5-1.22h1.3A2.58,2.58,0,0,1,109.42,196.31Zm5.68,0a2.47,2.47,0,1,1,2.33-2.47A2.23,2.23,0,0,1,115.1,196.3Zm0-1c.62,0,1-.53,1-1.48s-.41-1.48-1-1.48-1,.54-1,1.48S114.46,195.32,115.1,195.32Zm3,.88v-4.72h1.24v.84h0a1.48,1.48,0,0,1,1.47-.93,1.56,1.56,0,0,1,1.64,1.77v3h-1.29v-2.78c0-.61-.29-1-.86-1a.94.94,0,0,0-1,1v2.71Zm5.2,0v-4.72h1.24v.84h0a1.48,1.48,0,0,1,1.47-.93,1.56,1.56,0,0,1,1.64,1.77v3H126.4v-2.78c0-.61-.29-1-.87-1a.94.94,0,0,0-1,1v2.71Zm7.32-3.87a1,1,0,0,0-1,1h2A1,1,0,0,0,130.62,192.33Zm1,2.43h1.18a2,2,0,0,1-2.16,1.54,2.2,2.2,0,0,1-2.32-2.44,2.23,2.23,0,0,1,2.28-2.49,2.16,2.16,0,0,1,2.24,2.37v.39h-3.26v.08a1.05,1.05,0,0,0,1.09,1.14A.94.94,0,0,0,131.63,194.76Zm6.17-1.53h-1.19a.93.93,0,0,0-.93-.85c-.64,0-1,.54-1,1.45s.4,1.46,1,1.46a.89.89,0,0,0,.93-.82h1.2a2,2,0,0,1-2.14,1.83,2.47,2.47,0,0,1,0-4.93A2,2,0,0,1,137.8,193.23Zm1-2.84h1.29v1.09h.87v1h-.87v2.26c0,.36.18.53.56.53l.31,0v.94a2.34,2.34,0,0,1-.61.06c-1.11,0-1.55-.37-1.55-1.29v-2.48h-.66v-1h.66Z"
      fill-rule="evenodd"
    />
    <path
      d="M57.79,186.81a9.91,9.91,0,0,1,13.8,0l.46.45a.46.46,0,0,1,0,.67l-1.57,1.54a.23.23,0,0,1-.34,0l-.63-.62a6.93,6.93,0,0,0-9.64,0l-.67.67a.26.26,0,0,1-.35,0L57.28,188a.48.48,0,0,1,0-.68ZM74.84,190l1.4,1.37a.47.47,0,0,1,0,.67l-6.3,6.17a.49.49,0,0,1-.69,0h0l-4.47-4.38a.13.13,0,0,0-.18,0h0l-4.47,4.38a.49.49,0,0,1-.69,0h0L53.14,192a.47.47,0,0,1,0-.67l1.4-1.37a.49.49,0,0,1,.69,0l4.47,4.38a.14.14,0,0,0,.17,0h0L64.35,190a.49.49,0,0,1,.69,0h0l4.47,4.38a.14.14,0,0,0,.17,0L74.15,190A.49.49,0,0,1,74.84,190Z"
    />
  </g>
</svg>
