<svg xmlns="http://www.w3.org/2000/svg" width="385" height="394" viewBox="0 0 385 394">
    <defs>
        <linearGradient id="a" x1="62.121%" x2="67.844%" y1="-102.184%" y2="147.419%">
            <stop offset="0%" stop-color="#A8FF97"/>
            <stop offset="39.772%" stop-color="#69ECF1"/>
            <stop offset="50.664%" stop-color="#77C9F5"/>
            <stop offset="81.298%" stop-color="#B792FF"/>
            <stop offset="100%" stop-color="#FE7BA0"/>
        </linearGradient>
        <linearGradient id="b" x1="73.956%" x2="76.399%" y1="15.957%" y2="104.994%">
            <stop offset="0%" stop-color="#F0E7D2"/>
            <stop offset="100%" stop-color="#F0B4E4"/>
        </linearGradient>
        <linearGradient id="c" x1="93.413%" x2="63.069%" y1="11.947%" y2="107.986%">
            <stop offset="0%" stop-color="#F4F8D6"/>
            <stop offset="100%" stop-color="#EDDD9D"/>
        </linearGradient>
        <linearGradient id="d" x1="89.873%" x2="32.666%" y1="8.544%" y2="103.707%">
            <stop offset="0%" stop-color="#D2F0E1"/>
            <stop offset="100%" stop-color="#B4D2F0"/>
        </linearGradient>
        <linearGradient id="e" x1="45.919%" x2="90.523%" y1="106.839%" y2="-2.405%">
            <stop offset="0%" stop-color="#D2F0F0"/>
            <stop offset="100%" stop-color="#F0E6B4"/>
        </linearGradient>
    </defs>
    <g fill="none" fill-rule="evenodd">
        <g stroke="#FFF">
            <path fill="url(#a)" stroke-width="4" d="M382 197c0 102.173-82.828 185-185 185S12 299.173 12 197C12 94.828 94.828 12 197 12s185 82.828 185 185" transform="translate(2 1)"/>
            <path fill="url(#b)" d="M382 197c0 102.173-82.828 185-185 185S12 299.173 12 197C12 94.828 94.828 12 197 12s185 82.828 185 185" transform="translate(2 1)"/>
            <path fill="url(#c)" stroke-width="2" d="M88 346.668C118.598 368.884 156.26 382 197 382V197L88 346.668z" transform="translate(2 1)"/>
            <path fill="url(#d)" stroke-width="2" d="M21 254.924C33.182 292.269 57.02 324.377 88.247 347l106.936-146.51a1 1 0 0 0-1.115-1.542L21 254.924z" transform="translate(2 1)"/>
            <path fill="url(#e)" stroke-width="2" d="M9.625 258.974l187.086-60.78a1 1 0 0 0 .69-.95V.598C88.38.598.002 88.964.002 197.97c0 21.293 3.385 41.792 9.624 61.004z" transform="translate(2 1)"/>
        </g>
        <g fill="#462405">
            <path d="M42.839 190h-2.684v-14.117h-4.83v-2.302h12.343v2.302h-4.83V190zm16.475-6.233c0 2.03-.52 3.613-1.561 4.75-1.04 1.139-2.49 1.708-4.346 1.708-1.16 0-2.186-.262-3.077-.787-.891-.524-1.576-1.276-2.056-2.257-.479-.98-.718-2.119-.718-3.414 0-2.014.516-3.586 1.55-4.717 1.033-1.13 2.489-1.696 4.368-1.696 1.797 0 3.22.579 4.268 1.736 1.048 1.156 1.572 2.715 1.572 4.677zm-9.04 0c0 2.868 1.059 4.301 3.178 4.301 2.096 0 3.144-1.433 3.144-4.3 0-2.838-1.055-4.257-3.167-4.257-1.108 0-1.91.367-2.409 1.1-.498.734-.747 1.786-.747 3.156zm14.622-.326l1.493-1.864 3.751-3.998h3.044l-4.998 5.335L73.498 190h-3.1l-3.986-5.447-1.45 1.19V190h-2.616v-17.475h2.617v8.524l-.135 2.392h.068zm15.565 6.784c-1.932 0-3.442-.564-4.532-1.69-1.089-1.127-1.634-2.679-1.634-4.656 0-2.029.506-3.623 1.517-4.784 1.01-1.16 2.4-1.74 4.166-1.74 1.64 0 2.935.497 3.886 1.493.95.996 1.426 2.366 1.426 4.11v1.427h-8.277c.038 1.205.363 2.132.977 2.78.614.647 1.479.97 2.594.97.734 0 1.417-.069 2.05-.207a10.743 10.743 0 0 0 2.038-.69v2.144a8.103 8.103 0 0 1-1.954.652c-.659.127-1.411.19-2.257.19zm-.483-10.871c-.839 0-1.51.265-2.016.797-.505.531-.807 1.306-.904 2.325h5.638c-.015-1.026-.262-1.803-.741-2.33-.48-.529-1.138-.792-1.977-.792zM99.216 190h-2.65v-7.637c0-.958-.193-1.673-.579-2.145-.386-.471-.998-.707-1.836-.707-1.116 0-1.932.33-2.448.988-.517.659-.775 1.763-.775 3.313V190h-2.64v-12.42h2.067l.37 1.628h.135c.375-.592.906-1.049 1.595-1.37.689-.323 1.453-.484 2.291-.484 2.98 0 4.47 1.517 4.47 4.549V190zm6.502 0l-4.717-12.42h2.786l2.526 7.22c.435 1.213.697 2.194.787 2.943h.09c.067-.54.329-1.52.786-2.943l2.526-7.22h2.808L108.57 190h-2.852zm14.903.225c-1.932 0-3.442-.564-4.531-1.69-1.09-1.127-1.634-2.679-1.634-4.656 0-2.029.505-3.623 1.516-4.784 1.01-1.16 2.4-1.74 4.166-1.74 1.64 0 2.935.497 3.886 1.493.95.996 1.426 2.366 1.426 4.11v1.427h-8.277c.038 1.205.363 2.132.977 2.78.614.647 1.48.97 2.595.97.733 0 1.417-.069 2.05-.207a10.743 10.743 0 0 0 2.038-.69v2.144a8.103 8.103 0 0 1-1.955.652c-.658.127-1.41.19-2.257.19zm-.483-10.871c-.838 0-1.51.265-2.016.797-.505.531-.806 1.306-.904 2.325h5.638c-.015-1.026-.262-1.803-.741-2.33-.48-.529-1.138-.792-1.977-.792zm14.611-2c.532 0 .97.038 1.314.113l-.258 2.46a4.988 4.988 0 0 0-1.168-.135c-1.056 0-1.911.344-2.566 1.033-.656.689-.983 1.583-.983 2.684V190h-2.64v-12.42h2.067l.348 2.189h.135a4.921 4.921 0 0 1 1.612-1.763 3.83 3.83 0 0 1 2.139-.652zm6.166 6.087l1.493-1.864 3.751-3.998h3.044l-4.998 5.335 5.312 7.086h-3.1l-3.986-5.447-1.45 1.19V190h-2.616v-17.475h2.617v8.524l-.135 2.392h.068zM159.288 190l-.528-1.73h-.09c-.599.757-1.202 1.271-1.808 1.545-.607.273-1.385.41-2.336.41-1.22 0-2.173-.33-2.858-.989s-1.028-1.59-1.028-2.796c0-1.28.476-2.246 1.426-2.898.951-.65 2.4-1.007 4.347-1.066l2.145-.068v-.662c0-.794-.186-1.387-.556-1.78-.37-.393-.946-.59-1.724-.59a5.96 5.96 0 0 0-1.83.28c-.585.188-1.146.409-1.685.663l-.854-1.886a9.186 9.186 0 0 1 2.213-.803 10.181 10.181 0 0 1 2.268-.276c1.58 0 2.772.345 3.577 1.034.805.689 1.207 1.77 1.207 3.245V190h-1.886zm-3.931-1.797c.958 0 1.728-.268 2.308-.803.58-.535.87-1.286.87-2.252v-1.078l-1.595.068c-1.242.045-2.146.252-2.712.623-.565.37-.848.938-.848 1.701 0 .554.165.983.495 1.286.329.304.823.455 1.482.455zm18.26 1.797l-.37-1.628h-.135c-.367.576-.889 1.029-1.566 1.358-.678.33-1.45.495-2.32.495-1.504 0-2.627-.375-3.369-1.123-.74-.75-1.111-1.883-1.111-3.403v-8.12h2.661v7.66c0 .95.195 1.663.584 2.139.39.475 1 .713 1.83.713 1.109 0 1.923-.331 2.443-.994s.78-1.773.78-3.33v-6.188h2.651V190h-2.077zm12.073-10.422h-3.032V190h-2.65v-10.422h-2.044v-1.235l2.044-.809v-.808c0-1.468.344-2.555 1.033-3.263.689-.707 1.74-1.061 3.156-1.061.928 0 1.842.153 2.74.46l-.696 2a6.084 6.084 0 0 0-1.865-.315c-.598 0-1.035.185-1.308.556-.273.37-.41.926-.41 1.668v.808h3.032v2zM69.654 142.42c0 10.414-7.216 16.154-16.564 16.154-9.102 0-16.072-4.674-16.646-14.76h4.182c.574 7.954 6.396 11.07 12.464 11.07 6.97 0 12.382-4.674 12.382-12.464 0-7.872-3.772-12.464-12.71-12.464h-.984v-3.69h.984c7.79 0 11.562-4.264 11.562-11.726 0-7.708-5.002-11.808-11.316-11.808-6.888 0-10.906 4.182-11.644 10.66h-4.182c.82-9.102 7.38-14.35 15.826-14.35 9.184 0 15.498 6.15 15.498 15.498 0 6.15-2.46 10.824-8.282 13.284 6.478 2.214 9.43 7.216 9.43 14.596zm39.902.492c0 9.102-6.314 15.58-15.334 15.58s-15.334-6.478-15.334-15.58v-28.208c0-9.102 6.314-15.58 15.334-15.58s15.334 6.478 15.334 15.58v28.208zm-4.182-.41v-27.388c0-6.888-3.854-12.3-11.152-12.3-7.298 0-11.152 5.412-11.152 12.3v27.388c0 6.888 3.854 12.3 11.152 12.3 7.298 0 11.152-5.412 11.152-12.3zm37.714 10.558c0 3.268-2.356 5.206-5.32 5.206-2.964 0-5.32-1.938-5.32-5.206v-3.838c0-3.268 2.356-5.206 5.32-5.206 2.964 0 5.32 1.938 5.32 5.206v3.838zm-5.89-22.116L124.468 158h-3.116l12.768-27.056h3.078zm-11.058 8.778c0 3.268-2.356 5.168-5.32 5.168-2.964 0-5.32-1.9-5.32-5.168v-3.838c0-3.268 2.356-5.206 5.32-5.206 2.964 0 5.32 1.938 5.32 5.206v3.838zm14.022 13.224v-3.61c0-1.71-.76-2.736-2.394-2.736-1.634 0-2.394.988-2.394 2.736v3.61c0 1.748.76 2.736 2.394 2.736 1.634 0 2.394-1.026 2.394-2.736zm-16.948-13.338v-3.61c0-1.71-.76-2.736-2.394-2.736-1.634 0-2.394.988-2.394 2.736v3.61c0 1.748.76 2.698 2.394 2.698 1.634 0 2.394-.988 2.394-2.698z"/>
        </g>
        <g fill="#462405">
            <path d="M221.455 239h-9.288v-16.419h9.288v2.269h-6.603v4.47h6.188v2.245h-6.188v5.155h6.603V239zm14.195 0H233v-7.637c0-.958-.193-1.673-.578-2.145-.386-.471-.998-.707-1.837-.707-1.115 0-1.931.33-2.448.988-.516.659-.775 1.763-.775 3.313V239h-2.639v-12.42h2.067l.37 1.628h.135c.374-.592.906-1.049 1.595-1.37.688-.323 1.452-.484 2.29-.484 2.98 0 4.47 1.517 4.47 4.549V239zm8.3-1.91c.644 0 1.287-.1 1.931-.302v1.987a5.328 5.328 0 0 1-1.128.32c-.46.087-.938.13-1.432.13-2.5 0-3.751-1.318-3.751-3.954v-6.693h-1.696v-1.168l1.82-.966.898-2.628h1.628v2.763h3.538v2h-3.538v6.648c0 .636.16 1.106.478 1.409.318.303.735.455 1.252.455zm14.6 1.91l-1.607-5.795c-.194-.614-.546-2.04-1.055-4.279h-.101c-.435 2.022-.779 3.456-1.034 4.302l-1.65 5.772h-2.92l-3.482-12.42h2.695l1.584 6.12c.36 1.512.614 2.807.764 3.885h.067c.075-.546.19-1.173.343-1.88.153-.708.286-1.238.398-1.59l1.887-6.536h2.897l1.831 6.536c.112.367.253.929.421 1.685.169.756.268 1.344.298 1.763h.09c.112-.92.374-2.209.786-3.863l1.606-6.12h2.65L261.514 239h-2.965zm11.241 0h-2.64v-12.42h2.64V239zm-2.796-15.711c0-.472.129-.835.387-1.09.258-.254.627-.382 1.106-.382.464 0 .826.128 1.084.382.258.255.387.618.387 1.09 0 .449-.129.803-.387 1.06-.258.26-.62.388-1.084.388-.479 0-.848-.129-1.106-.387-.258-.258-.387-.612-.387-1.061zm11.578 15.936c-1.879 0-3.307-.549-4.284-1.646-.977-1.097-1.466-2.67-1.466-4.722 0-2.089.511-3.695 1.533-4.818 1.022-1.123 2.499-1.685 4.43-1.685 1.31 0 2.49.244 3.538.73l-.797 2.123c-1.116-.434-2.037-.651-2.763-.651-2.149 0-3.223 1.426-3.223 4.278 0 1.393.268 2.44.803 3.14.535.7 1.32 1.05 2.353 1.05a6.75 6.75 0 0 0 3.335-.877v2.303a5.212 5.212 0 0 1-1.51.595c-.536.12-1.185.18-1.949.18zm8.928-6.784l1.494-1.864 3.751-3.998h3.044l-4.998 5.335 5.312 7.086h-3.1l-3.986-5.447-1.45 1.19V239h-2.616v-17.475h2.617v8.524l-.135 2.392h.067zM300.742 239h-2.639v-17.475h2.64V239zm9.198.225c-1.932 0-3.442-.564-4.532-1.69-1.089-1.127-1.634-2.679-1.634-4.656 0-2.029.506-3.623 1.517-4.784 1.01-1.16 2.4-1.74 4.166-1.74 1.64 0 2.935.497 3.886 1.493.95.996 1.426 2.366 1.426 4.11v1.427h-8.277c.038 1.205.363 2.132.977 2.78.614.647 1.479.97 2.594.97.734 0 1.417-.069 2.05-.207a10.743 10.743 0 0 0 2.038-.69v2.144a8.103 8.103 0 0 1-1.954.652c-.659.127-1.411.19-2.257.19zm-.483-10.871c-.839 0-1.51.265-2.016.797-.505.531-.807 1.306-.904 2.325h5.638c-.015-1.026-.262-1.803-.741-2.33-.48-.529-1.138-.792-1.977-.792zm14.61-2c.532 0 .97.038 1.315.113l-.258 2.46a4.988 4.988 0 0 0-1.168-.135c-1.056 0-1.911.344-2.567 1.033-.655.689-.982 1.583-.982 2.684V239h-2.64v-12.42h2.067l.348 2.189h.135a4.921 4.921 0 0 1 1.611-1.763 3.83 3.83 0 0 1 2.14-.652zm9.917 12.87c-1.572 0-2.792-.565-3.66-1.695h-.158c.105 1.048.157 1.684.157 1.909v5.087h-2.639V226.58h2.134c.06.232.183.786.37 1.662h.135c.824-1.258 2.06-1.887 3.706-1.887 1.55 0 2.757.562 3.622 1.685.865 1.123 1.297 2.7 1.297 4.728 0 2.03-.44 3.613-1.32 4.75-.88 1.139-2.094 1.708-3.644 1.708zm-.64-10.713c-1.048 0-1.813.307-2.296.92-.483.615-.725 1.595-.725 2.943v.393c0 1.512.24 2.607.719 3.285.48.678 1.262 1.016 2.347 1.016.914 0 1.617-.374 2.111-1.123.495-.748.742-1.815.742-3.2 0-1.393-.245-2.447-.736-3.162-.49-.715-1.21-1.072-2.162-1.072zm19.687 4.256c0 2.03-.52 3.613-1.56 4.75-1.041 1.139-2.49 1.708-4.347 1.708-1.16 0-2.186-.262-3.077-.787-.891-.524-1.576-1.276-2.055-2.257-.48-.98-.72-2.119-.72-3.414 0-2.014.518-3.586 1.55-4.717 1.034-1.13 2.49-1.696 4.37-1.696 1.796 0 3.219.579 4.267 1.736 1.048 1.156 1.572 2.715 1.572 4.677zm-9.04 0c0 2.868 1.06 4.301 3.178 4.301 2.096 0 3.144-1.433 3.144-4.3 0-2.838-1.055-4.257-3.167-4.257-1.108 0-1.91.367-2.408 1.1-.498.734-.747 1.786-.747 3.156zm23.09 0c0 2.03-.52 3.613-1.561 4.75-1.041 1.139-2.49 1.708-4.347 1.708-1.16 0-2.186-.262-3.077-.787-.89-.524-1.576-1.276-2.055-2.257-.48-.98-.719-2.119-.719-3.414 0-2.014.517-3.586 1.55-4.717 1.033-1.13 2.49-1.696 4.369-1.696 1.797 0 3.22.579 4.267 1.736 1.048 1.156 1.573 2.715 1.573 4.677zm-9.041 0c0 2.868 1.06 4.301 3.178 4.301 2.097 0 3.145-1.433 3.145-4.3 0-2.838-1.056-4.257-3.167-4.257-1.108 0-1.911.367-2.41 1.1-.497.734-.746 1.786-.746 3.156zM372.752 239h-2.64v-17.475h2.64V239zM244.982 185.894c0 5.576-.328 11.316-4.51 15.498-2.706 2.706-6.396 4.182-11.234 4.182-4.756 0-8.692-1.312-11.234-3.936-2.214-2.214-3.608-5.33-3.936-9.512h4.182c.82 6.232 4.182 9.758 10.988 9.758 3.198 0 6.15-1.066 8.036-2.952 3.444-3.444 3.526-8.692 3.526-13.038 0-7.298-1.312-15.58-10.906-15.58-5.33 0-9.348 2.214-10.578 6.15h-3.69v-29.848h28.044v3.69h-24.354v20.664c2.542-2.952 6.314-4.346 11.07-4.346 4.182 0 7.544 1.23 9.84 3.526 4.1 4.1 4.756 10.25 4.756 15.744zm39.574 4.018c0 9.102-6.314 15.58-15.334 15.58s-15.334-6.478-15.334-15.58v-28.208c0-9.102 6.314-15.58 15.334-15.58s15.334 6.478 15.334 15.58v28.208zm-4.182-.41v-27.388c0-6.888-3.854-12.3-11.152-12.3-7.298 0-11.152 5.412-11.152 12.3v27.388c0 6.888 3.854 12.3 11.152 12.3 7.298 0 11.152-5.412 11.152-12.3zm37.714 10.558c0 3.268-2.356 5.206-5.32 5.206-2.964 0-5.32-1.938-5.32-5.206v-3.838c0-3.268 2.356-5.206 5.32-5.206 2.964 0 5.32 1.938 5.32 5.206v3.838zm-5.89-22.116L299.468 205h-3.116l12.768-27.056h3.078zm-11.058 8.778c0 3.268-2.356 5.168-5.32 5.168-2.964 0-5.32-1.9-5.32-5.168v-3.838c0-3.268 2.356-5.206 5.32-5.206 2.964 0 5.32 1.938 5.32 5.206v3.838zm14.022 13.224v-3.61c0-1.71-.76-2.736-2.394-2.736-1.634 0-2.394.988-2.394 2.736v3.61c0 1.748.76 2.736 2.394 2.736 1.634 0 2.394-1.026 2.394-2.736zm-16.948-13.338v-3.61c0-1.71-.76-2.736-2.394-2.736-1.634 0-2.394.988-2.394 2.736v3.61c0 1.748.76 2.698 2.394 2.698 1.634 0 2.394-.988 2.394-2.698z"/>
        </g>
        <g fill="#462405">
            <path d="M56.28 298.42c0 1.163-.29 2.066-.871 2.71-.581.645-1.404.968-2.469.968-1.077 0-1.905-.32-2.482-.96-.578-.64-.867-1.548-.867-2.727 0-1.178.29-2.083.871-2.715.581-.631 1.41-.947 2.488-.947 1.061 0 1.882.32 2.461.962.58.641.87 1.545.87 2.71zm-5.449 0c0 .88.177 1.546.532 2 .355.455.88.682 1.577.682.694 0 1.217-.225 1.57-.674.353-.45.53-1.118.53-2.007 0-.876-.175-1.54-.525-1.992-.35-.453-.871-.679-1.565-.679-.7 0-1.228.226-1.584.679-.357.452-.535 1.116-.535 1.992zm.59-4.901c0-.202.055-.348.164-.437a.607.607 0 0 1 .398-.135c.173 0 .31.05.413.152.103.1.154.24.154.42 0 .172-.052.31-.156.415a.555.555 0 0 1-.41.156.587.587 0 0 1-.399-.142c-.109-.094-.163-.237-.163-.43zm1.92 0c0-.202.054-.348.163-.437a.607.607 0 0 1 .398-.135c.173 0 .311.05.415.152.105.1.157.24.157.42a.55.55 0 0 1-.161.417.57.57 0 0 1-.41.154.587.587 0 0 1-.399-.142c-.109-.094-.163-.237-.163-.43zm5.459 5.63l.65-.811 1.63-1.738h1.323l-2.173 2.319L62.54 302h-1.348l-1.733-2.368-.63.517V302h-1.138v-7.598h1.138v3.706l-.058 1.04h.029zm9.199.141c0 .882-.226 1.57-.679 2.065-.452.495-1.082.743-1.89.743a2.59 2.59 0 0 1-1.337-.342 2.256 2.256 0 0 1-.894-.982c-.208-.426-.312-.92-.312-1.484 0-.876.224-1.56.674-2.05.449-.492 1.082-.738 1.899-.738.781 0 1.4.251 1.855.754.456.503.684 1.181.684 2.034zm-3.93 0c0 1.247.46 1.87 1.381 1.87.912 0 1.367-.623 1.367-1.87 0-1.234-.459-1.85-1.377-1.85-.481 0-.83.159-1.047.478-.216.319-.325.776-.325 1.372zm8.876 1.172c0 .527-.192.932-.576 1.213-.384.282-.934.423-1.65.423-.72 0-1.297-.11-1.734-.327v-.992c.635.293 1.226.44 1.773.44.706 0 1.06-.213 1.06-.64 0-.137-.04-.25-.118-.342a1.387 1.387 0 0 0-.386-.283 6.638 6.638 0 0 0-.747-.332c-.621-.24-1.042-.482-1.262-.723-.22-.24-.33-.553-.33-.937 0-.462.187-.821.56-1.077.372-.255.88-.383 1.52-.383.635 0 1.236.129 1.802.386l-.37.864c-.583-.24-1.073-.361-1.47-.361-.606 0-.909.172-.909.517 0 .17.08.313.237.43.158.117.502.278 1.033.483.446.173.77.33.972.474.201.143.351.308.449.496.097.187.146.41.146.67zm.42-3.862h1.25l1.099 3.061c.166.436.277.846.332 1.23h.039c.03-.178.083-.396.161-.651.078-.256.492-1.47 1.24-3.64h1.24l-2.309 6.118c-.42 1.123-1.12 1.684-2.1 1.684-.254 0-.5-.027-.742-.083v-.908c.173.04.37.059.591.059.553 0 .942-.32 1.167-.962l.2-.508-2.168-5.4zm9.81 3.862c0 .527-.192.932-.576 1.213-.384.282-.935.423-1.65.423-.72 0-1.298-.11-1.734-.327v-.992c.635.293 1.225.44 1.772.44.707 0 1.06-.213 1.06-.64 0-.137-.04-.25-.117-.342a1.387 1.387 0 0 0-.386-.283 6.638 6.638 0 0 0-.747-.332c-.622-.24-1.043-.482-1.262-.723-.22-.24-.33-.553-.33-.937 0-.462.186-.821.56-1.077.372-.255.879-.383 1.52-.383.635 0 1.236.129 1.802.386l-.371.864c-.583-.24-1.073-.361-1.47-.361-.605 0-.908.172-.908.517 0 .17.079.313.237.43.158.117.502.278 1.032.483.446.173.77.33.972.474.202.143.352.308.45.496.097.187.146.41.146.67zm3.252.708c.28 0 .56-.044.84-.132v.864c-.127.056-.29.102-.491.14a3.38 3.38 0 0 1-.623.056c-1.087 0-1.63-.573-1.63-1.72v-2.91h-.738v-.507l.791-.42.39-1.143h.709v1.202h1.538v.869h-1.538v2.89c0 .277.069.481.207.613.139.132.32.198.545.198zm4.277.928c-.84 0-1.496-.245-1.97-.735s-.71-1.165-.71-2.024c0-.882.22-1.576.659-2.08.44-.505 1.043-.757 1.811-.757.713 0 1.276.216 1.69.65.413.432.62 1.028.62 1.786v.62h-3.599c.016.525.158.928.425 1.21.267.28.643.421 1.128.421.319 0 .616-.03.89-.09.276-.06.571-.16.887-.3v.932c-.28.134-.563.228-.85.284a5.21 5.21 0 0 1-.98.083zm-.21-4.727c-.364 0-.657.116-.876.347-.22.23-.351.568-.393 1.01h2.45c-.006-.445-.113-.783-.321-1.013-.209-.23-.495-.344-.86-.344zM98.658 302h-1.152v-3.33c0-.413-.078-.722-.235-.925-.156-.204-.4-.306-.732-.306-.443 0-.767.144-.974.433-.207.288-.31.767-.31 1.438V302h-1.148v-5.4h.899l.161.708h.059c.15-.258.367-.456.651-.596.285-.14.599-.21.94-.21.83 0 1.38.283 1.65.85h.079c.16-.267.384-.476.674-.625.29-.15.621-.225.996-.225.644 0 1.114.163 1.409.488.294.326.441.822.441 1.49V302h-1.147v-3.33c0-.413-.079-.722-.237-.925-.158-.204-.403-.306-.735-.306-.446 0-.772.14-.979.418-.206.278-.31.705-.31 1.282V302zm7.368.098c-.84 0-1.496-.245-1.97-.735-.473-.49-.71-1.165-.71-2.024 0-.882.22-1.576.659-2.08.44-.505 1.043-.757 1.811-.757.713 0 1.276.216 1.69.65.413.432.62 1.028.62 1.786v.62h-3.599c.017.525.158.928.425 1.21.267.28.643.421 1.128.421.32 0 .616-.03.891-.09s.57-.16.886-.3v.932c-.28.134-.563.228-.85.284a5.21 5.21 0 0 1-.98.083zm-.21-4.727c-.364 0-.656.116-.876.347-.22.23-.35.568-.393 1.01h2.451c-.006-.445-.114-.783-.322-1.013-.209-.23-.495-.344-.86-.344zm8.365 4.629h-1.153v-3.32c0-.417-.084-.728-.251-.933-.168-.205-.434-.308-.798-.308-.486 0-.84.144-1.065.43-.225.287-.337.767-.337 1.44V302h-1.147v-5.4h.898l.161.708h.059c.163-.258.394-.456.693-.596.3-.14.632-.21.996-.21 1.296 0 1.944.66 1.944 1.977V302zm3.608-.83c.28 0 .56-.044.84-.132v.864c-.127.056-.29.102-.49.14a3.38 3.38 0 0 1-.623.056c-1.088 0-1.631-.573-1.631-1.72v-2.91h-.738v-.507l.791-.42.391-1.143h.708v1.202h1.538v.869h-1.538v2.89c0 .277.07.481.208.613.138.132.32.198.544.198zm1.45-1.362v-.977h2.51v.977h-2.51zM54.25 315l-.698-2.52c-.085-.266-.238-.887-.46-1.86h-.043c-.189.879-.339 1.502-.45 1.87l-.717 2.51h-1.27l-1.513-5.4h1.172l.688 2.66a18.5 18.5 0 0 1 .332 1.69h.03c.032-.237.082-.51.148-.818.067-.307.125-.538.174-.69l.82-2.842h1.26l.796 2.841c.048.16.11.404.183.733.073.329.116.584.13.766h.038c.049-.4.163-.96.342-1.68l.698-2.66h1.153l-1.524 5.4H54.25zm4.888 0h-1.148v-5.4h1.148v5.4zm-1.216-6.831c0-.205.056-.363.168-.474.113-.11.273-.166.481-.166.202 0 .36.056.472.166.112.111.168.269.168.474 0 .195-.056.35-.168.461-.113.113-.27.169-.472.169-.208 0-.368-.056-.48-.169-.113-.112-.17-.266-.17-.461zm5.034 6.929c-.817 0-1.438-.239-1.863-.716-.425-.477-.637-1.161-.637-2.053 0-.908.222-1.606.667-2.095.444-.488 1.086-.732 1.926-.732.57 0 1.082.106 1.538.317l-.347.923c-.485-.189-.885-.283-1.2-.283-.935 0-1.402.62-1.402 1.86 0 .606.116 1.06.349 1.365.233.304.574.457 1.023.457.51 0 .994-.127 1.45-.381v1c-.205.121-.424.207-.657.26a3.94 3.94 0 0 1-.847.078zm3.882-2.95l.65-.81 1.63-1.738h1.323l-2.172 2.319 2.31 3.081h-1.349l-1.733-2.368-.63.517V315H65.73v-7.598h1.137v3.706l-.058 1.04h.029zM72.594 315h-1.148v-7.598h1.148V315zm5.449 0l-.161-.708h-.059c-.16.25-.386.448-.68.59-.296.144-.632.216-1.01.216-.654 0-1.142-.163-1.464-.489-.322-.325-.483-.818-.483-1.48v-3.53h1.157v3.33c0 .414.084.724.254.93.169.208.434.31.796.31.481 0 .835-.143 1.062-.431.226-.288.339-.77.339-1.448v-2.69h1.152v5.4h-.903zm7.29 0h-1.152v-3.32c0-.417-.084-.728-.252-.933-.167-.205-.434-.308-.798-.308-.485 0-.84.144-1.065.43-.224.287-.337.767-.337 1.44V315h-1.147v-5.4h.898l.162.708h.058c.163-.258.394-.456.694-.596.299-.14.631-.21.996-.21 1.295 0 1.943.66 1.943 1.977V315zm2.082-.412a.863.863 0 0 1-.375-.313.795.795 0 0 1-.15-.457c0-.201.058-.372.172-.512.113-.14.283-.279.507-.415a1.504 1.504 0 0 1-.68-.589 1.73 1.73 0 0 1-.262-.954c0-.586.185-1.04.554-1.363.37-.322.896-.483 1.58-.483.153 0 .313.01.48.032.168.02.294.043.38.066h1.87v.63l-.924.17a1.657 1.657 0 0 1 .293.947c0 .557-.192.995-.576 1.314-.384.32-.913.479-1.587.479-.172 0-.329-.013-.468-.04-.248.154-.372.333-.372.538 0 .123.058.216.174.278.115.062.328.093.637.093h.942c.596 0 1.049.127 1.358.38.309.255.464.62.464 1.1 0 .611-.253 1.083-.757 1.415-.505.332-1.234.498-2.188.498-.735 0-1.297-.13-1.684-.39-.388-.26-.581-.632-.581-1.114 0-.332.105-.61.315-.837.21-.226.503-.383.881-.471l-.003-.002zm-.168 1.252c0 .247.112.438.335.571.223.134.536.2.94.2.624 0 1.09-.09 1.396-.268.306-.18.459-.417.459-.713 0-.234-.084-.401-.252-.5-.167-.1-.479-.15-.935-.15h-.869c-.328 0-.59.078-.783.232a.76.76 0 0 0-.29.628zm.493-4.492c0 .338.087.599.261.78.175.183.424.274.75.274.664 0 .996-.354.996-1.064 0-.352-.082-.623-.247-.813-.164-.19-.414-.286-.749-.286-.332 0-.584.095-.754.283-.171.19-.257.464-.257.826zM141.408 354h-1.167v-6.138h-2.1v-1h5.367v1h-2.1V354zm4.732.098c-.84 0-1.497-.245-1.97-.735-.474-.49-.711-1.165-.711-2.024 0-.882.22-1.576.66-2.08.439-.505 1.042-.757 1.81-.757.714 0 1.277.216 1.69.65.414.432.62 1.028.62 1.786v.62h-3.598c.016.525.158.928.424 1.21.267.28.643.421 1.128.421.32 0 .616-.03.891-.09.276-.06.57-.16.887-.3v.932c-.28.134-.563.228-.85.284a5.21 5.21 0 0 1-.981.083zm-.21-4.727c-.365 0-.657.116-.877.347-.22.23-.35.568-.393 1.01h2.451c-.006-.445-.114-.783-.322-1.013-.208-.23-.495-.344-.86-.344zm6.992 4.629l-.23-.752h-.039c-.26.329-.522.553-.786.671-.263.12-.602.179-1.015.179-.531 0-.945-.144-1.243-.43-.298-.286-.447-.692-.447-1.216 0-.556.207-.976.62-1.26.414-.283 1.044-.437 1.89-.463l.932-.03v-.288c0-.345-.08-.603-.241-.774-.161-.17-.411-.256-.75-.256-.276 0-.542.04-.796.122a6.006 6.006 0 0 0-.732.288l-.371-.82c.293-.153.613-.27.962-.35.348-.08.677-.119.986-.119.687 0 1.205.15 1.555.45.35.299.525.769.525 1.41V354h-.82zm-1.71-.781c.418 0 .752-.117 1.004-.35.253-.232.379-.558.379-.978v-.47l-.694.03c-.54.02-.933.11-1.179.271-.246.161-.368.408-.368.74 0 .24.071.427.214.559.144.132.358.198.645.198zm8.683.781h-1.153v-3.33c0-.413-.078-.722-.234-.925-.156-.204-.4-.306-.733-.306-.442 0-.767.144-.974.433-.206.288-.31.767-.31 1.438V354h-1.147v-5.4h.898l.161.708h.059c.15-.258.367-.456.652-.596.285-.14.598-.21.94-.21.83 0 1.38.283 1.65.85h.078c.16-.267.384-.476.674-.625.29-.15.622-.225.996-.225.645 0 1.114.163 1.409.488.294.326.442.822.442 1.49V354h-1.148v-3.33c0-.413-.079-.722-.237-.925-.157-.204-.402-.306-.734-.306-.446 0-.773.14-.98.418-.206.278-.31.705-.31 1.282V354zM52.52 286h-2.04v-26.16l-5.16 4.56v-2.44l5.16-4.44h2.04V286zm23.8-7.36c0 4.44-3.08 7.6-7.48 7.6s-7.48-3.16-7.48-7.6v-13.76c0-4.44 3.08-7.6 7.48-7.6s7.48 3.16 7.48 7.6v13.76zm-2.04-.2v-13.36c0-3.36-1.88-6-5.44-6-3.56 0-5.44 2.64-5.44 6v13.36c0 3.36 1.88 6 5.44 6 3.56 0 5.44-2.64 5.44-6zm18.52 4.96c0 1.72-1.24 2.74-2.8 2.74-1.56 0-2.8-1.02-2.8-2.74v-2.02c0-1.72 1.24-2.74 2.8-2.74 1.56 0 2.8 1.02 2.8 2.74v2.02zm-3.1-11.64L83 286h-1.64l6.72-14.24h1.62zm-5.82 4.62c0 1.72-1.24 2.72-2.8 2.72-1.56 0-2.8-1-2.8-2.72v-2.02c0-1.72 1.24-2.74 2.8-2.74 1.56 0 2.8 1.02 2.8 2.74v2.02zm7.38 6.96v-1.9c0-.9-.4-1.44-1.26-1.44s-1.26.52-1.26 1.44v1.9c0 .92.4 1.44 1.26 1.44s1.26-.54 1.26-1.44zm-8.92-7.02v-1.9c0-.9-.4-1.44-1.26-1.44s-1.26.52-1.26 1.44v1.9c0 .92.4 1.42 1.26 1.42s1.26-.52 1.26-1.42zM142.52 341h-2.04v-26.16l-5.16 4.56v-2.44l5.16-4.44h2.04V341zm23.8-7.36c0 4.44-3.08 7.6-7.48 7.6s-7.48-3.16-7.48-7.6v-13.76c0-4.44 3.08-7.6 7.48-7.6s7.48 3.16 7.48 7.6v13.76zm-2.04-.2v-13.36c0-3.36-1.88-6-5.44-6-3.56 0-5.44 2.64-5.44 6v13.36c0 3.36 1.88 6 5.44 6 3.56 0 5.44-2.64 5.44-6zm18.52 4.96c0 1.72-1.24 2.74-2.8 2.74-1.56 0-2.8-1.02-2.8-2.74v-2.02c0-1.72 1.24-2.74 2.8-2.74 1.56 0 2.8 1.02 2.8 2.74v2.02zm-3.1-11.64L173 341h-1.64l6.72-14.24h1.62zm-5.82 4.62c0 1.72-1.24 2.72-2.8 2.72-1.56 0-2.8-1-2.8-2.72v-2.02c0-1.72 1.24-2.74 2.8-2.74 1.56 0 2.8 1.02 2.8 2.74v2.02zm7.38 6.96v-1.9c0-.9-.4-1.44-1.26-1.44s-1.26.52-1.26 1.44v1.9c0 .92.4 1.44 1.26 1.44s1.26-.54 1.26-1.44zm-8.92-7.02v-1.9c0-.9-.4-1.44-1.26-1.44s-1.26.52-1.26 1.44v1.9c0 .92.4 1.42 1.26 1.42s1.26-.52 1.26-1.42z"/>
        </g>
    </g>
</svg>
