<svg xmlns="http://www.w3.org/2000/svg" width="385" height="394" viewBox="0 0 385 394">
    <defs>
        <linearGradient id="a" x1="86.052%" x2="74.281%" y1="24.321%" y2="79.657%">
            <stop offset="0%" stop-color="#D2F0E1"/>
            <stop offset="100%" stop-color="#B4D2F0"/>
        </linearGradient>
        <linearGradient id="b" x1="60.467%" x2="48.189%" y1="90.323%" y2="0%">
            <stop offset="0%" stop-color="#D2F0F0"/>
            <stop offset="100%" stop-color="#F0E6B4"/>
        </linearGradient>
    </defs>
    <g fill="none" fill-rule="evenodd">
        <g stroke="#FFF">
            <path stroke-width="4" d="M382.54 197.298c0 102.633-83.201 185.834-185.835 185.834-102.632 0-185.834-83.2-185.834-185.834S94.073 11.464 196.705 11.464c102.634 0 185.835 83.2 185.835 185.834"/>
            <path fill="url(#a)" d="M381.538 196.298c0 102.632-83.2 185.832-185.833 185.832-102.631 0-185.832-83.2-185.832-185.832 0-102.633 83.2-185.832 185.832-185.832 102.633 0 185.833 83.2 185.833 185.832" transform="translate(1 1)"/>
            <path fill="url(#b)" stroke-width="2" d="M334.659 57.913c-76.559-76.427-200.683-76.427-277.24 0-76.558 76.427-76.558 200.34 0 276.767 76.557 76.427 200.681 76.427 277.24 0l-138.62-138.383 138.62-138.384z" transform="translate(1 1)"/>
        </g>
        <g fill="#462405">
            <path d="M46.861 250h-3.034v-15.958h-5.459v-2.603H52.32v2.603h-5.459V250zm18.624-7.046c0 2.294-.588 4.084-1.764 5.37-1.177 1.287-2.814 1.93-4.913 1.93-1.312 0-2.472-.296-3.479-.889-1.007-.592-1.781-1.443-2.323-2.552-.542-1.108-.813-2.395-.813-3.859 0-2.277.584-4.054 1.752-5.332 1.168-1.278 2.814-1.917 4.939-1.917 2.031 0 3.64.654 4.824 1.962 1.185 1.307 1.777 3.07 1.777 5.287zm-10.22 0c0 3.242 1.198 4.862 3.593 4.862 2.37 0 3.555-1.62 3.555-4.862 0-3.208-1.193-4.811-3.58-4.811-1.253 0-2.16.414-2.723 1.244-.563.83-.844 2.018-.844 3.567zm16.53-.368l1.688-2.107 4.24-4.52h3.441l-5.65 6.03L81.52 250h-3.504l-4.507-6.157-1.638 1.345V250h-2.958v-19.754h2.958v9.636l-.152 2.704h.076zm17.596 7.668c-2.184 0-3.891-.637-5.123-1.91-1.231-1.275-1.847-3.029-1.847-5.263 0-2.294.571-4.096 1.714-5.408 1.142-1.312 2.712-1.968 4.71-1.968 1.853 0 3.317.563 4.392 1.689 1.075 1.125 1.613 2.674 1.613 4.646v1.612h-9.357c.042 1.363.41 2.41 1.105 3.142.694.733 1.671 1.099 2.932 1.099.83 0 1.602-.079 2.317-.235a12.145 12.145 0 0 0 2.304-.781v2.425a9.16 9.16 0 0 1-2.209.736c-.744.144-1.595.216-2.551.216zm-.546-12.29c-.948 0-1.708.301-2.28.902-.57.601-.911 1.477-1.021 2.628h6.373c-.017-1.16-.296-2.037-.838-2.634s-1.286-.895-2.234-.895zM110.592 250h-2.996v-8.633c0-1.083-.218-1.891-.654-2.425-.436-.533-1.128-.8-2.076-.8-1.26 0-2.183.373-2.767 1.118-.584.745-.876 1.993-.876 3.745V250h-2.984v-14.041h2.336l.42 1.84h.151c.424-.668 1.025-1.184 1.803-1.548.779-.364 1.642-.546 2.59-.546 3.369 0 5.053 1.714 5.053 5.142V250zm7.35 0l-5.332-14.041h3.149l2.856 8.163c.491 1.371.787 2.48.889 3.326h.101c.077-.61.373-1.718.89-3.326l2.856-8.163h3.173L121.167 250h-3.225zm16.847.254c-2.184 0-3.891-.637-5.122-1.91-1.232-1.275-1.848-3.029-1.848-5.263 0-2.294.572-4.096 1.714-5.408 1.143-1.312 2.713-1.968 4.71-1.968 1.854 0 3.318.563 4.393 1.689 1.075 1.125 1.612 2.674 1.612 4.646v1.612h-9.356c.042 1.363.41 2.41 1.104 3.142.694.733 1.672 1.099 2.933 1.099.83 0 1.601-.079 2.317-.235a12.145 12.145 0 0 0 2.304-.781v2.425a9.16 9.16 0 0 1-2.21.736c-.744.144-1.595.216-2.55.216zm-.546-12.29c-.948 0-1.707.301-2.279.902-.57.601-.912 1.477-1.022 2.628h6.373c-.016-1.16-.296-2.037-.837-2.634-.542-.597-1.287-.895-2.235-.895zm16.517-2.259c.6 0 1.096.042 1.485.127l-.292 2.78a5.639 5.639 0 0 0-1.32-.152c-1.194 0-2.16.39-2.901 1.168-.74.779-1.11 1.79-1.11 3.034V250h-2.984v-14.041h2.336l.393 2.476h.153c.465-.838 1.072-1.503 1.821-1.994a4.33 4.33 0 0 1 2.419-.736zm6.97 6.88l1.688-2.106 4.24-4.52h3.44l-5.649 6.03 6.005 8.011h-3.504l-4.507-6.157-1.637 1.345V250h-2.958v-19.754h2.958v9.636l-.153 2.704h.076zM178.498 250l-.597-1.955h-.101c-.677.855-1.359 1.437-2.044 1.746-.686.308-1.566.463-2.64.463-1.38 0-2.457-.372-3.232-1.117-.774-.745-1.161-1.799-1.161-3.161 0-1.448.537-2.54 1.612-3.276 1.075-.736 2.712-1.138 4.913-1.206l2.425-.076v-.75c0-.896-.21-1.567-.629-2.011-.419-.445-1.068-.667-1.948-.667-.72 0-1.41.106-2.07.318-.66.211-1.295.46-1.904.749l-.965-2.133c.762-.398 1.596-.7 2.501-.908a11.51 11.51 0 0 1 2.565-.31c1.785 0 3.133.388 4.043 1.167.91.779 1.365 2.002 1.365 3.669V250h-2.133zm-4.443-2.031c1.083 0 1.953-.303 2.609-.908.655-.605.983-1.454.983-2.545v-1.22l-1.802.077c-1.405.05-2.427.286-3.066.705-.64.419-.959 1.06-.959 1.923 0 .626.186 1.11.559 1.454.372.342.93.514 1.676.514zM194.698 250l-.419-1.84h-.152c-.415.65-1.005 1.163-1.771 1.535-.766.373-1.64.559-2.622.559-1.7 0-2.97-.423-3.808-1.27-.838-.846-1.257-2.128-1.257-3.846v-9.179h3.009v8.658c0 1.075.22 1.881.66 2.419.44.537 1.13.806 2.07.806 1.252 0 2.172-.375 2.76-1.124.589-.749.883-2.003.883-3.764v-6.995h2.996V250h-2.349zm13.648-11.781h-3.428V250h-2.996v-11.781h-2.31v-1.397l2.31-.914v-.914c0-1.659.39-2.888 1.168-3.688.778-.8 1.968-1.2 3.567-1.2a9.52 9.52 0 0 1 3.098.521l-.787 2.26a6.878 6.878 0 0 0-2.108-.356c-.677 0-1.17.21-1.479.629-.309.419-.463 1.047-.463 1.885v.914h3.428v2.26zM71.31 150.97L48.63 211h-4.68l22.68-60.03h-24.3v10.08h-4.59v-14.13h33.57v4.05zm43.54 39.06c0 6.12-.36 12.42-4.95 17.01-2.97 2.97-7.02 4.59-12.33 4.59-5.22 0-9.54-1.44-12.33-4.32-2.43-2.43-3.96-5.85-4.32-10.44h4.59c.9 6.84 4.59 10.71 12.06 10.71 3.51 0 6.75-1.17 8.82-3.24 3.78-3.78 3.87-9.54 3.87-14.31 0-8.01-1.44-17.1-11.97-17.1-5.85 0-10.26 2.43-11.61 6.75h-4.05v-32.76h30.78v4.05H86.68v22.68c2.79-3.24 6.93-4.77 12.15-4.77 4.59 0 8.28 1.35 10.8 3.87 4.5 4.5 5.22 11.25 5.22 17.28zm33.462 16.03c0 3.268-2.356 5.206-5.32 5.206-2.964 0-5.32-1.938-5.32-5.206v-3.838c0-3.268 2.356-5.206 5.32-5.206 2.964 0 5.32 1.938 5.32 5.206v3.838zm-5.89-22.116L129.692 211h-3.116l12.768-27.056h3.078zm-11.058 8.778c0 3.268-2.356 5.168-5.32 5.168-2.964 0-5.32-1.9-5.32-5.168v-3.838c0-3.268 2.356-5.206 5.32-5.206 2.964 0 5.32 1.938 5.32 5.206v3.838zm14.022 13.224v-3.61c0-1.71-.76-2.736-2.394-2.736-1.634 0-2.394.988-2.394 2.736v3.61c0 1.748.76 2.736 2.394 2.736 1.634 0 2.394-1.026 2.394-2.736zm-16.948-13.338v-3.61c0-1.71-.76-2.736-2.394-2.736-1.634 0-2.394.988-2.394 2.736v3.61c0 1.748.76 2.698 2.394 2.698 1.634 0 2.394-.988 2.394-2.698z"/>
        </g>
        <g fill="#462405">
            <path d="M267.648 218.273c0 1.86-.464 3.305-1.394 4.336-.93 1.032-2.246 1.547-3.95 1.547-1.723 0-3.047-.511-3.972-1.535-.924-1.023-1.387-2.478-1.387-4.363 0-1.886.465-3.334 1.395-4.344.93-1.01 2.256-1.516 3.98-1.516 1.698 0 3.01.513 3.938 1.54.927 1.026 1.39 2.47 1.39 4.335zm-8.718 0c0 1.407.284 2.473.851 3.2.568.726 1.41 1.09 2.524 1.09 1.11 0 1.946-.36 2.511-1.079.566-.718.848-1.789.848-3.21 0-1.402-.28-2.464-.84-3.188-.56-.724-1.394-1.086-2.504-1.086-1.12 0-1.965.362-2.535 1.086-.57.724-.855 1.786-.855 3.187zm.945-7.843c0-.323.087-.556.262-.7a.97.97 0 0 1 .636-.214c.276 0 .497.08.66.242.165.161.247.385.247.672 0 .276-.084.497-.25.664-.167.166-.386.25-.657.25a.94.94 0 0 1-.636-.227c-.175-.15-.262-.38-.262-.687zm3.07 0c0-.323.088-.556.262-.7a.97.97 0 0 1 .637-.214c.276 0 .497.08.664.242.166.161.25.385.25.672 0 .28-.086.504-.258.668a.912.912 0 0 1-.656.246.94.94 0 0 1-.637-.227c-.174-.15-.262-.38-.262-.687zm8.735 9.007l1.039-1.296 2.61-2.782h2.116l-3.476 3.711 3.695 4.93h-2.156l-2.774-3.79-1.007.83V224h-1.82v-12.156h1.82v5.93l-.094 1.663h.047zm14.718.227c0 1.412-.362 2.513-1.086 3.305-.723.791-1.731 1.187-3.023 1.187-.807 0-1.52-.182-2.14-.547a3.61 3.61 0 0 1-1.43-1.57c-.334-.682-.5-1.474-.5-2.375 0-1.401.36-2.495 1.078-3.281.719-.787 1.732-1.18 3.039-1.18 1.25 0 2.24.402 2.969 1.207.729.805 1.093 1.89 1.093 3.254zm-6.289 0c0 1.995.737 2.992 2.211 2.992 1.459 0 2.188-.997 2.188-2.992 0-1.974-.735-2.96-2.203-2.96-.771 0-1.33.254-1.676.765-.346.51-.52 1.242-.52 2.195zm14.204 1.875c0 .844-.308 1.49-.922 1.941-.615.451-1.495.676-2.641.676-1.151 0-2.076-.174-2.773-.523v-1.586c1.015.469 1.96.703 2.836.703 1.13 0 1.695-.341 1.695-1.023a.81.81 0 0 0-.188-.547c-.125-.146-.33-.297-.617-.453a10.621 10.621 0 0 0-1.195-.532c-.995-.385-1.668-.77-2.02-1.156-.351-.385-.527-.885-.527-1.5 0-.74.298-1.314.894-1.723.597-.408 1.408-.613 2.434-.613 1.016 0 1.977.206 2.883.617l-.594 1.383c-.932-.385-1.716-.578-2.351-.578-.97 0-1.454.276-1.454.828 0 .271.127.5.38.688.252.187.803.445 1.652.773.713.276 1.231.529 1.554.758.323.229.563.493.72.793.155.3.233.657.233 1.074zm.671-6.18h2l1.758 4.899c.266.698.443 1.354.531 1.969h.063c.047-.287.133-.635.258-1.043.125-.41.786-2.35 1.984-5.825h1.985l-3.696 9.79c-.672 1.796-1.791 2.695-3.36 2.695-.405 0-.801-.045-1.187-.133v-1.453c.276.062.591.094.946.094.885 0 1.507-.513 1.867-1.54l.32-.812-3.469-8.64zm15.696 6.18c0 .844-.308 1.49-.922 1.941-.615.451-1.495.676-2.64.676-1.152 0-2.076-.174-2.774-.523v-1.586c1.015.469 1.96.703 2.836.703 1.13 0 1.695-.341 1.695-1.023a.81.81 0 0 0-.188-.547c-.125-.146-.33-.297-.617-.453a10.621 10.621 0 0 0-1.195-.532c-.995-.385-1.668-.77-2.02-1.156-.351-.385-.527-.885-.527-1.5 0-.74.298-1.314.895-1.723.596-.408 1.407-.613 2.433-.613 1.016 0 1.977.206 2.883.617l-.594 1.383c-.932-.385-1.716-.578-2.351-.578-.969 0-1.453.276-1.453.828 0 .271.126.5.379.688.252.187.803.445 1.652.773.713.276 1.232.529 1.555.758.322.229.562.493.718.793.157.3.235.657.235 1.074zm5.203 1.133c.448 0 .896-.07 1.344-.211v1.383a3.706 3.706 0 0 1-.786.222c-.32.06-.652.09-.996.09-1.74 0-2.61-.916-2.61-2.75v-4.656h-1.179v-.813l1.266-.671.625-1.828h1.133v1.921h2.46v1.391h-2.46v4.625c0 .443.11.77.332.98.221.211.511.317.87.317zm6.844 1.484c-1.344 0-2.395-.392-3.153-1.176-.758-.783-1.137-1.863-1.137-3.238 0-1.411.352-2.52 1.055-3.328.703-.807 1.67-1.21 2.899-1.21 1.14 0 2.041.345 2.703 1.038.661.693.992 1.646.992 2.86v.992h-5.758c.026.838.253 1.483.68 1.933.427.45 1.028.676 1.805.676.51 0 .985-.048 1.425-.144.44-.097.913-.257 1.418-.48v1.491a5.637 5.637 0 0 1-1.36.453 8.336 8.336 0 0 1-1.57.133zm-.336-7.562c-.584 0-1.051.185-1.403.554-.351.37-.56.91-.629 1.618h3.922c-.01-.714-.182-1.254-.515-1.621-.334-.368-.792-.551-1.375-.551zM335.453 224h-1.844v-5.328c0-.662-.125-1.155-.375-1.48-.25-.326-.64-.489-1.171-.489-.709 0-1.228.23-1.56.692-.33.46-.495 1.227-.495 2.3V224h-1.836v-8.64h1.437l.258 1.132h.094c.24-.411.587-.729 1.043-.953a3.363 3.363 0 0 1 1.504-.336c1.328 0 2.208.453 2.64 1.36h.125c.256-.428.615-.76 1.079-1 .463-.24.994-.36 1.593-.36 1.032 0 1.783.26 2.254.781.472.521.707 1.315.707 2.383V224h-1.836v-5.328c0-.662-.126-1.155-.379-1.48-.252-.326-.644-.489-1.175-.489-.714 0-1.236.223-1.567.668-.33.445-.496 1.129-.496 2.05V224zm11.79.156c-1.345 0-2.395-.392-3.153-1.176-.758-.783-1.137-1.863-1.137-3.238 0-1.411.352-2.52 1.055-3.328.703-.807 1.67-1.21 2.898-1.21 1.14 0 2.042.345 2.703 1.038.662.693.993 1.646.993 2.86v.992h-5.758c.026.838.252 1.483.68 1.933.427.45 1.028.676 1.804.676.51 0 .986-.048 1.426-.144.44-.097.913-.257 1.418-.48v1.491a5.637 5.637 0 0 1-1.36.453 8.336 8.336 0 0 1-1.57.133zm-.337-7.562c-.583 0-1.05.185-1.402.554-.352.37-.561.91-.629 1.618h3.922c-.01-.714-.182-1.254-.516-1.621-.333-.368-.791-.551-1.375-.551zM360.29 224h-1.844v-5.313c0-.666-.134-1.164-.402-1.492-.268-.328-.694-.492-1.277-.492-.776 0-1.344.23-1.704.688-.359.458-.539 1.226-.539 2.304V224h-1.836v-8.64h1.438l.258 1.132h.094c.26-.411.63-.729 1.109-.953a3.718 3.718 0 0 1 1.594-.336c2.073 0 3.11 1.055 3.11 3.164V224zm5.774-1.328c.447 0 .895-.07 1.343-.211v1.383a3.706 3.706 0 0 1-.785.222c-.32.06-.652.09-.996.09-1.74 0-2.61-.916-2.61-2.75v-4.656h-1.18v-.813l1.267-.671.625-1.828h1.132v1.921h2.461v1.391h-2.46v4.625c0 .443.11.77.331.98.222.211.512.317.872.317zm2.32-2.18v-1.562h4.015v1.562h-4.015zM264.398 244l-1.117-4.031c-.135-.427-.38-1.42-.734-2.977h-.07c-.303 1.406-.542 2.404-.72 2.992L260.61 244h-2.03l-2.423-8.64h1.875l1.102 4.257a29.6 29.6 0 0 1 .531 2.703h.047c.052-.38.131-.816.238-1.308.107-.492.2-.861.278-1.106l1.312-4.547h2.016l1.273 4.547c.078.255.176.646.293 1.172.117.526.186.935.207 1.227h.063c.078-.64.26-1.537.546-2.688l1.118-4.258h1.843L266.461 244h-2.063zm7.82 0h-1.835v-8.64h1.836V244zm-1.945-10.93c0-.328.09-.58.27-.757.18-.178.436-.266.77-.266.322 0 .574.088.753.266.18.177.27.43.27.757 0 .313-.09.559-.27.739-.18.18-.43.27-.753.27-.334 0-.59-.09-.77-.27-.18-.18-.27-.426-.27-.739zm8.055 11.086c-1.307 0-2.3-.381-2.98-1.144-.68-.763-1.02-1.858-1.02-3.285 0-1.454.356-2.57 1.067-3.352.71-.781 1.738-1.172 3.082-1.172.911 0 1.731.17 2.46.508l-.554 1.476c-.776-.302-1.417-.453-1.922-.453-1.495 0-2.242.993-2.242 2.977 0 .969.186 1.697.558 2.184.373.487.918.73 1.637.73.818 0 1.591-.203 2.32-.61v1.602c-.328.193-.678.33-1.05.414a6.305 6.305 0 0 1-1.356.125zm6.211-4.719l1.04-1.296 2.608-2.782h2.118l-3.477 3.711 3.695 4.93h-2.156l-2.773-3.79-1.008.83V244h-1.82v-12.156h1.82v5.93l-.094 1.663h.047zM293.75 244h-1.836v-12.156h1.836V244zm8.719 0l-.258-1.133h-.094a2.605 2.605 0 0 1-1.09.946c-.471.229-1.009.343-1.613.343-1.047 0-1.828-.26-2.344-.781-.515-.52-.773-1.31-.773-2.367v-5.649h1.851v5.328c0 .662.136 1.158.407 1.489.27.33.695.496 1.273.496.771 0 1.337-.23 1.7-.692.361-.46.542-1.233.542-2.316v-4.305h1.844V244h-1.445zm11.664 0h-1.844v-5.313c0-.666-.134-1.164-.402-1.492-.269-.328-.694-.492-1.278-.492-.776 0-1.343.23-1.703.688-.36.458-.539 1.226-.539 2.304V244h-1.836v-8.64h1.438l.258 1.132h.093c.26-.411.63-.729 1.11-.953a3.718 3.718 0 0 1 1.593-.336c2.073 0 3.11 1.055 3.11 3.164V244zm9.851-8.64v1.007l-1.476.274c.135.182.247.406.336.672.088.265.133.546.133.843 0 .89-.308 1.591-.922 2.102-.615.51-1.461.765-2.54.765-.275 0-.525-.02-.75-.062-.395.245-.593.531-.593.86 0 .197.092.346.277.445.185.099.525.148 1.02.148h1.508c.953 0 1.677.203 2.171.61.495.406.743.992.743 1.757 0 .98-.404 1.735-1.211 2.266-.808.531-1.974.797-3.5.797-1.177 0-2.076-.209-2.696-.625-.62-.417-.93-1.01-.93-1.781 0-.532.169-.978.505-1.34.336-.362.806-.614 1.41-.754a1.38 1.38 0 0 1-.606-.504 1.272 1.272 0 0 1-.238-.73c0-.324.091-.597.273-.82.183-.225.454-.446.813-.665a2.407 2.407 0 0 1-1.09-.941c-.279-.435-.418-.944-.418-1.528 0-.937.296-1.664.887-2.18.591-.515 1.433-.773 2.527-.773.245 0 .501.017.77.05.268.035.47.07.605.106h2.992zm-6.789 9.984c0 .396.179.7.535.914.357.213.859.32 1.504.32 1 0 1.745-.143 2.235-.43.49-.286.734-.666.734-1.14 0-.375-.134-.642-.402-.801-.268-.159-.767-.238-1.496-.238h-1.39c-.527 0-.945.123-1.255.37-.31.248-.465.583-.465 1.005zm.79-7.188c0 .542.139.959.417 1.25.279.292.679.438 1.2.438 1.062 0 1.593-.568 1.593-1.703 0-.563-.131-.996-.394-1.301-.263-.305-.663-.457-1.2-.457-.53 0-.933.15-1.206.453-.274.302-.41.742-.41 1.32zM279.94 197h-22.62v-2.7l17.16-22.5c1.68-2.16 2.4-4.2 2.4-6.66 0-5.1-3.06-8.52-8.22-8.52-4.44 0-8.22 2.52-8.22 8.52h-3.06c0-6.36 4.2-11.22 11.28-11.22 6.84 0 11.28 4.44 11.28 11.22 0 3.18-.78 5.4-2.94 8.22l-16.02 20.94h18.96v2.7zm28.96-13.98c0 4.08-.24 8.28-3.3 11.34-1.98 1.98-4.68 3.06-8.22 3.06-3.48 0-6.36-.96-8.22-2.88-1.62-1.62-2.64-3.9-2.88-6.96h3.06c.6 4.56 3.06 7.14 8.04 7.14 2.34 0 4.5-.78 5.88-2.16 2.52-2.52 2.58-6.36 2.58-9.54 0-5.34-.96-11.4-7.98-11.4-3.9 0-6.84 1.62-7.74 4.5h-2.7v-21.84h20.52v2.7h-17.82v15.12c1.86-2.16 4.62-3.18 8.1-3.18 3.06 0 5.52.9 7.2 2.58 3 3 3.48 7.5 3.48 11.52zm25.3 10.08c0 2.58-1.86 4.11-4.2 4.11s-4.2-1.53-4.2-4.11v-3.03c0-2.58 1.86-4.11 4.2-4.11s4.2 1.53 4.2 4.11v3.03zm-4.65-17.46L319.5 197h-2.46l10.08-21.36h2.43zm-8.73 6.93c0 2.58-1.86 4.08-4.2 4.08s-4.2-1.5-4.2-4.08v-3.03c0-2.58 1.86-4.11 4.2-4.11s4.2 1.53 4.2 4.11v3.03zm11.07 10.44v-2.85c0-1.35-.6-2.16-1.89-2.16s-1.89.78-1.89 2.16v2.85c0 1.38.6 2.16 1.89 2.16s1.89-.81 1.89-2.16zm-13.38-10.53v-2.85c0-1.35-.6-2.16-1.89-2.16s-1.89.78-1.89 2.16v2.85c0 1.38.6 2.13 1.89 2.13s1.89-.78 1.89-2.13z"/>
        </g>
    </g>
</svg>
