<svg xmlns="http://www.w3.org/2000/svg" width="385" height="394" viewBox="0 0 385 394">
    <defs>
        <linearGradient id="a" x1="86.052%" x2="74.281%" y1="24.321%" y2="79.657%">
            <stop offset="0%" stop-color="#D2F0E1"/>
            <stop offset="100%" stop-color="#B4D2F0"/>
        </linearGradient>
        <linearGradient id="b" x1="60.467%" x2="48.189%" y1="90.323%" y2="0%">
            <stop offset="0%" stop-color="#D2F0F0"/>
            <stop offset="100%" stop-color="#F0E6B4"/>
        </linearGradient>
    </defs>
    <g fill="none" fill-rule="evenodd">
        <g stroke="#FFF">
            <path stroke-width="4" d="M382.54 197.298c0 102.633-83.201 185.834-185.835 185.834-102.632 0-185.834-83.2-185.834-185.834S94.073 11.464 196.705 11.464c102.634 0 185.835 83.2 185.835 185.834"/>
            <path fill="url(#a)" d="M381.538 196.298c0 102.632-83.2 185.832-185.833 185.832-102.631 0-185.832-83.2-185.832-185.832 0-102.633 83.2-185.832 185.832-185.832 102.633 0 185.833 83.2 185.833 185.832" transform="translate(1 1)"/>
            <path fill="url(#b)" stroke-width="2" d="M334.659 57.913c-76.559-76.427-200.683-76.427-277.24 0-76.558 76.427-76.558 200.34 0 276.767 76.557 76.427 200.681 76.427 277.24 0l-138.62-138.383 138.62-138.384z" transform="translate(1 1)"/>
        </g>
        <g fill="#462405">
            <path d="M64.025 231.44h3.149l-6.5 18.56h-3.2L51 231.44h3.123l3.872 11.54c.203.55.42 1.258.648 2.126.228.867.376 1.513.444 1.936.11-.643.28-1.388.508-2.234.228-.847.414-1.473.558-1.88l3.872-11.489zm10.893 18.814c-2.184 0-3.891-.637-5.123-1.91-1.231-1.275-1.847-3.029-1.847-5.263 0-2.294.572-4.096 1.714-5.408 1.143-1.312 2.713-1.968 4.71-1.968 1.854 0 3.318.563 4.393 1.689 1.075 1.125 1.612 2.674 1.612 4.646v1.612h-9.356c.042 1.363.41 2.41 1.104 3.142.694.733 1.672 1.099 2.933 1.099.829 0 1.601-.079 2.317-.235a12.145 12.145 0 0 0 2.304-.781v2.425a9.16 9.16 0 0 1-2.21.736c-.744.144-1.595.216-2.551.216zm-.546-12.29c-.948 0-1.707.301-2.279.902-.571.601-.912 1.477-1.022 2.628h6.373c-.017-1.16-.296-2.037-.838-2.634-.541-.597-1.286-.895-2.234-.895zM96.12 250h-2.996v-8.633c0-1.083-.218-1.891-.654-2.425-.436-.533-1.128-.8-2.075-.8-1.262 0-2.184.373-2.768 1.118-.584.745-.876 1.993-.876 3.745V250h-2.983v-14.041h2.336l.418 1.84h.153c.423-.668 1.024-1.184 1.803-1.548.778-.364 1.641-.546 2.59-.546 3.368 0 5.052 1.714 5.052 5.142V250zm9.382-2.158c.728 0 1.456-.114 2.184-.343v2.247c-.33.144-.756.265-1.276.362a8.79 8.79 0 0 1-1.619.146c-2.827 0-4.24-1.49-4.24-4.469v-7.566h-1.917v-1.32l2.056-1.092 1.016-2.971h1.84v3.123h4v2.26h-4v7.515c0 .72.18 1.25.54 1.594.36.342.832.514 1.416.514zM119.275 250l-.596-1.955h-.102c-.677.855-1.358 1.437-2.044 1.746-.685.308-1.566.463-2.64.463-1.38 0-2.457-.372-3.231-1.117-.775-.745-1.162-1.799-1.162-3.161 0-1.448.537-2.54 1.612-3.276 1.075-.736 2.713-1.138 4.913-1.206l2.425-.076v-.75c0-.896-.21-1.567-.628-2.011-.42-.445-1.069-.667-1.949-.667-.72 0-1.41.106-2.07.318-.66.211-1.294.46-1.904.749l-.964-2.133c.761-.398 1.595-.7 2.5-.908a11.51 11.51 0 0 1 2.565-.31c1.786 0 3.134.388 4.043 1.167.91.779 1.365 2.002 1.365 3.669V250h-2.133zm-4.443-2.031c1.083 0 1.953-.303 2.609-.908.656-.605.984-1.454.984-2.545v-1.22l-1.803.077c-1.405.05-2.427.286-3.066.705-.639.419-.958 1.06-.958 1.923 0 .626.186 1.11.558 1.454.373.342.931.514 1.676.514zm22.23 2.285c-1.752 0-3.12-.635-4.101-1.904-.982-1.27-1.473-3.051-1.473-5.345 0-2.302.498-4.094 1.492-5.377.994-1.282 2.372-1.923 4.132-1.923 1.845 0 3.25.681 4.215 2.044h.152c-.143-1.007-.215-1.803-.215-2.387v-5.116h2.996V250h-2.336l-.52-1.84h-.14c-.957 1.396-2.357 2.094-4.202 2.094zm.8-2.412c1.227 0 2.12-.345 2.678-1.035.559-.69.846-1.809.863-3.358v-.419c0-1.769-.287-3.025-.863-3.77-.575-.745-1.477-1.117-2.704-1.117-1.05 0-1.858.425-2.425 1.275-.567.851-.85 2.063-.85 3.638 0 1.557.275 2.744.825 3.56.55.817 1.375 1.226 2.475 1.226zm16.795 2.412c-2.183 0-3.89-.637-5.122-1.91-1.232-1.275-1.847-3.029-1.847-5.263 0-2.294.57-4.096 1.713-5.408 1.143-1.312 2.713-1.968 4.71-1.968 1.854 0 3.318.563 4.393 1.689 1.075 1.125 1.612 2.674 1.612 4.646v1.612h-9.356c.042 1.363.41 2.41 1.104 3.142.694.733 1.672 1.099 2.933 1.099.83 0 1.602-.079 2.317-.235a12.145 12.145 0 0 0 2.304-.781v2.425a9.16 9.16 0 0 1-2.209.736c-.745.144-1.595.216-2.552.216zm-.546-12.29c-.948 0-1.707.301-2.278.902-.572.601-.912 1.477-1.022 2.628h6.373c-.017-1.16-.297-2.037-.838-2.634-.542-.597-1.287-.895-2.235-.895zm-95.748 43.878c.728 0 1.456-.114 2.184-.343v2.247c-.33.144-.755.265-1.276.362a8.79 8.79 0 0 1-1.619.146c-2.826 0-4.24-1.49-4.24-4.469v-7.566h-1.917v-1.32l2.057-1.092 1.015-2.971h1.841v3.123h4v2.26h-4v7.515c0 .72.18 1.25.54 1.594.36.342.831.514 1.415.514zm17.444-4.888c0 2.294-.589 4.084-1.765 5.37-1.176 1.287-2.814 1.93-4.913 1.93-1.312 0-2.471-.296-3.479-.889-1.007-.592-1.781-1.443-2.323-2.552-.542-1.108-.812-2.395-.812-3.859 0-2.277.584-4.054 1.752-5.332 1.168-1.278 2.814-1.917 4.938-1.917 2.031 0 3.64.654 4.824 1.962 1.185 1.307 1.778 3.07 1.778 5.287zm-10.22 0c0 3.242 1.197 4.862 3.593 4.862 2.37 0 3.554-1.62 3.554-4.862 0-3.208-1.193-4.811-3.58-4.811-1.252 0-2.16.414-2.723 1.244-.563.83-.844 2.018-.844 3.567zm16.53-.368l1.688-2.107 4.24-4.52h3.44l-5.65 6.03L91.842 284h-3.504l-4.507-6.157-1.638 1.345V284h-2.958v-19.754h2.958v9.636l-.152 2.704h.076zm17.595 7.668c-2.184 0-3.891-.637-5.123-1.91-1.231-1.275-1.847-3.029-1.847-5.263 0-2.294.571-4.096 1.714-5.408 1.143-1.312 2.713-1.968 4.71-1.968 1.854 0 3.318.563 4.393 1.689 1.074 1.125 1.612 2.674 1.612 4.646v1.612h-9.357c.043 1.363.41 2.41 1.105 3.142.694.733 1.671 1.099 2.933 1.099.829 0 1.601-.079 2.316-.235a12.145 12.145 0 0 0 2.305-.781v2.425a9.16 9.16 0 0 1-2.21.736c-.744.144-1.595.216-2.551.216zm-.546-12.29c-.948 0-1.708.301-2.279.902s-.912 1.477-1.022 2.628h6.373c-.017-1.16-.296-2.037-.838-2.634-.541-.597-1.286-.895-2.234-.895zM120.913 284h-2.996v-8.633c0-1.083-.218-1.891-.654-2.425-.436-.533-1.128-.8-2.076-.8-1.26 0-2.183.373-2.767 1.118-.584.745-.876 1.993-.876 3.745V284h-2.983v-14.041h2.335l.42 1.84h.152c.423-.668 1.024-1.184 1.803-1.548.778-.364 1.641-.546 2.59-.546 3.368 0 5.052 1.714 5.052 5.142V284zm13.584-3.999c0 1.371-.5 2.423-1.498 3.155-.999.732-2.429 1.098-4.291 1.098-1.87 0-3.373-.284-4.507-.85v-2.578c1.65.762 3.187 1.143 4.609 1.143 1.836 0 2.754-.555 2.754-1.663 0-.356-.101-.652-.304-.889-.203-.237-.538-.482-1.003-.736-.466-.254-1.113-.542-1.943-.864-1.616-.626-2.71-1.252-3.281-1.879-.572-.626-.857-1.438-.857-2.437 0-1.202.484-2.135 1.453-2.8.97-.664 2.288-.996 3.955-.996a11.2 11.2 0 0 1 4.685 1.003l-.965 2.247c-1.515-.626-2.789-.94-3.822-.94-1.574 0-2.36.45-2.36 1.346 0 .44.204.813.615 1.118.41.304 1.305.723 2.685 1.256 1.16.449 2.002.86 2.526 1.232.525.372.914.802 1.168 1.288.254.487.381 1.069.381 1.746zM84.31 150.97L61.63 211h-4.68l22.68-60.03h-24.3v10.08h-4.59v-14.13h33.57v4.05zm43.54 39.06c0 6.12-.36 12.42-4.95 17.01-2.97 2.97-7.02 4.59-12.33 4.59-5.22 0-9.54-1.44-12.33-4.32-2.43-2.43-3.96-5.85-4.32-10.44h4.59c.9 6.84 4.59 10.71 12.06 10.71 3.51 0 6.75-1.17 8.82-3.24 3.78-3.78 3.87-9.54 3.87-14.31 0-8.01-1.44-17.1-11.97-17.1-5.85 0-10.26 2.43-11.61 6.75h-4.05v-32.76h30.78v4.05H99.68v22.68c2.79-3.24 6.93-4.77 12.15-4.77 4.59 0 8.28 1.35 10.8 3.87 4.5 4.5 5.22 11.25 5.22 17.28zm33.462 16.03c0 3.268-2.356 5.206-5.32 5.206-2.964 0-5.32-1.938-5.32-5.206v-3.838c0-3.268 2.356-5.206 5.32-5.206 2.964 0 5.32 1.938 5.32 5.206v3.838zm-5.89-22.116L142.692 211h-3.116l12.768-27.056h3.078zm-11.058 8.778c0 3.268-2.356 5.168-5.32 5.168-2.964 0-5.32-1.9-5.32-5.168v-3.838c0-3.268 2.356-5.206 5.32-5.206 2.964 0 5.32 1.938 5.32 5.206v3.838zm14.022 13.224v-3.61c0-1.71-.76-2.736-2.394-2.736-1.634 0-2.394.988-2.394 2.736v3.61c0 1.748.76 2.736 2.394 2.736 1.634 0 2.394-1.026 2.394-2.736zm-16.948-13.338v-3.61c0-1.71-.76-2.736-2.394-2.736-1.634 0-2.394.988-2.394 2.736v3.61c0 1.748.76 2.698 2.394 2.698 1.634 0 2.394-.988 2.394-2.698z"/>
        </g>
        <g fill="#462405">
            <path d="M266.797 218.18c0 1.885-.524 3.327-1.57 4.324-1.047.997-2.555 1.496-4.524 1.496h-3.195v-11.422h3.531c1.818 0 3.232.49 4.242 1.469 1.01.979 1.516 2.357 1.516 4.133zm-1.969.062c0-2.734-1.279-4.101-3.836-4.101h-1.617v8.289h1.328c2.75 0 4.125-1.396 4.125-4.188zm8 5.914c-1.344 0-2.394-.392-3.152-1.176-.758-.783-1.137-1.863-1.137-3.238 0-1.411.352-2.52 1.055-3.328.703-.807 1.669-1.21 2.898-1.21 1.14 0 2.042.345 2.703 1.038.662.693.993 1.646.993 2.86v.992h-5.758c.026.838.252 1.483.68 1.933.426.45 1.028.676 1.804.676.51 0 .986-.048 1.426-.144.44-.097.913-.257 1.418-.48v1.491a5.637 5.637 0 0 1-1.36.453 8.336 8.336 0 0 1-1.57.133zm-.336-7.562c-.583 0-1.05.185-1.402.554-.352.37-.561.91-.63 1.618h3.923c-.01-.714-.182-1.254-.516-1.621-.333-.368-.791-.551-1.375-.551zm11.586 4.945c0 .844-.307 1.49-.922 1.941-.614.451-1.495.676-2.64.676-1.151 0-2.076-.174-2.774-.523v-1.586c1.016.469 1.961.703 2.836.703 1.13 0 1.695-.341 1.695-1.023a.81.81 0 0 0-.187-.547c-.125-.146-.33-.297-.617-.453a10.621 10.621 0 0 0-1.196-.532c-.994-.385-1.668-.77-2.02-1.156-.35-.385-.526-.885-.526-1.5 0-.74.298-1.314.894-1.723.596-.408 1.408-.613 2.434-.613 1.015 0 1.976.206 2.882.617l-.593 1.383c-.933-.385-1.716-.578-2.352-.578-.969 0-1.453.276-1.453.828 0 .271.126.5.379.688.253.187.803.445 1.652.773.714.276 1.232.529 1.555.758.323.229.562.493.719.793.156.3.234.657.234 1.074zm7.39 2.461l-.366-1.203h-.063c-.417.526-.836.884-1.258 1.074-.422.19-.963.285-1.625.285-.849 0-1.511-.229-1.988-.687-.477-.459-.715-1.107-.715-1.946 0-.89.33-1.562.992-2.015.662-.453 1.67-.7 3.024-.742l1.492-.047v-.461c0-.552-.129-.965-.387-1.238-.258-.274-.657-.41-1.199-.41-.443 0-.867.064-1.273.195a9.61 9.61 0 0 0-1.172.46l-.594-1.312a6.39 6.39 0 0 1 1.539-.558 7.083 7.083 0 0 1 1.578-.192c1.1 0 1.929.24 2.488.719.56.479.84 1.232.84 2.258V224h-1.312zm-2.734-1.25c.667 0 1.202-.186 1.606-.559.403-.372.605-.894.605-1.566v-.75l-1.11.047c-.864.031-1.493.176-1.886.433-.393.258-.59.653-.59 1.184 0 .385.115.684.344.895.23.21.573.316 1.031.316zm10.993-7.547c.37 0 .674.026.914.078l-.18 1.711a3.47 3.47 0 0 0-.813-.094c-.734 0-1.329.24-1.785.72-.455.478-.683 1.1-.683 1.866V224h-1.836v-8.64h1.437l.242 1.523h.094c.287-.516.66-.925 1.121-1.227.461-.302.957-.453 1.489-.453zm6.898 0c.37 0 .674.026.914.078l-.18 1.711a3.47 3.47 0 0 0-.812-.094c-.735 0-1.33.24-1.785.72-.456.478-.684 1.1-.684 1.866V224h-1.836v-8.64h1.438l.242 1.523h.094c.286-.516.66-.925 1.12-1.227.462-.302.958-.453 1.489-.453zm9.86 4.461c0 1.412-.363 2.513-1.087 3.305-.724.791-1.731 1.187-3.023 1.187-.807 0-1.52-.182-2.14-.547a3.61 3.61 0 0 1-1.43-1.57c-.334-.682-.5-1.474-.5-2.375 0-1.401.36-2.495 1.078-3.281.719-.787 1.732-1.18 3.039-1.18 1.25 0 2.24.402 2.969 1.207.729.805 1.093 1.89 1.093 3.254zm-6.29 0c0 1.995.737 2.992 2.211 2.992 1.459 0 2.188-.997 2.188-2.992 0-1.974-.735-2.96-2.203-2.96-.771 0-1.33.254-1.676.765-.347.51-.52 1.242-.52 2.195zM320.43 224h-1.836v-12.156h1.836V224zm4.46 0h-1.835v-12.156h1.836V224zm10.29-4.336c0 1.412-.362 2.513-1.086 3.305-.724.791-1.732 1.187-3.024 1.187-.807 0-1.52-.182-2.14-.547a3.61 3.61 0 0 1-1.43-1.57c-.333-.682-.5-1.474-.5-2.375 0-1.401.36-2.495 1.078-3.281.719-.787 1.732-1.18 3.04-1.18 1.25 0 2.239.402 2.968 1.207.73.805 1.094 1.89 1.094 3.254zm-6.29 0c0 1.995.738 2.992 2.212 2.992 1.458 0 2.187-.997 2.187-2.992 0-1.974-.734-2.96-2.203-2.96-.77 0-1.33.254-1.676.765-.346.51-.52 1.242-.52 2.195zm15.47 4.492c-1.079 0-1.92-.39-2.524-1.172-.604-.78-.906-1.877-.906-3.289 0-1.416.306-2.52.918-3.308.612-.79 1.46-1.184 2.543-1.184 1.135 0 2 .42 2.593 1.258h.094c-.088-.62-.133-1.11-.133-1.469v-3.148h1.844V224h-1.437l-.32-1.133h-.087c-.588.86-1.45 1.29-2.586 1.29zm.492-1.484c.755 0 1.304-.212 1.648-.637.344-.424.52-1.113.531-2.066v-.258c0-1.089-.177-1.862-.531-2.32-.354-.459-.909-.688-1.664-.688-.646 0-1.143.262-1.492.785-.35.524-.524 1.27-.524 2.239 0 .958.17 1.688.508 2.191.339.503.846.754 1.524.754zm10.336 1.484c-1.344 0-2.395-.392-3.153-1.176-.758-.783-1.137-1.863-1.137-3.238 0-1.411.352-2.52 1.055-3.328.703-.807 1.67-1.21 2.899-1.21 1.14 0 2.041.345 2.703 1.038.661.693.992 1.646.992 2.86v.992h-5.758c.026.838.253 1.483.68 1.933.427.45 1.028.676 1.804.676.51 0 .986-.048 1.426-.144.44-.097.913-.257 1.418-.48v1.491a5.637 5.637 0 0 1-1.36.453 8.336 8.336 0 0 1-1.57.133zm-.336-7.562c-.584 0-1.051.185-1.403.554-.351.37-.561.91-.629 1.618h3.922c-.01-.714-.182-1.254-.515-1.621-.334-.368-.792-.551-1.375-.551zm-93.766 27.562c-1.344 0-2.395-.392-3.152-1.176-.758-.783-1.137-1.863-1.137-3.238 0-1.411.351-2.52 1.055-3.328.703-.807 1.669-1.21 2.898-1.21 1.14 0 2.042.345 2.703 1.038.662.693.992 1.646.992 2.86v.992h-5.757c.026.838.252 1.483.68 1.933.426.45 1.028.676 1.804.676.51 0 .986-.048 1.426-.144.44-.097.912-.257 1.418-.48v1.491a5.637 5.637 0 0 1-1.36.453 8.336 8.336 0 0 1-1.57.133zm-.336-7.562c-.583 0-1.05.185-1.402.554-.352.37-.562.91-.63 1.618h3.923c-.01-.714-.183-1.254-.516-1.621-.333-.368-.792-.551-1.375-.551zm9.266 7.562c-1.308 0-2.301-.381-2.98-1.144-.68-.763-1.02-1.858-1.02-3.285 0-1.454.355-2.57 1.066-3.352.711-.781 1.738-1.172 3.082-1.172.912 0 1.732.17 2.461.508l-.555 1.476c-.776-.302-1.416-.453-1.922-.453-1.494 0-2.242.993-2.242 2.977 0 .969.186 1.697.559 2.184.372.487.918.73 1.637.73.817 0 1.59-.203 2.32-.61v1.602c-.328.193-.679.33-1.05.414a6.305 6.305 0 0 1-1.356.125zm12.101-4.492c0 1.412-.362 2.513-1.086 3.305-.724.791-1.732 1.187-3.023 1.187-.807 0-1.521-.182-2.14-.547a3.61 3.61 0 0 1-1.43-1.57c-.334-.682-.5-1.474-.5-2.375 0-1.401.359-2.495 1.078-3.281.718-.787 1.731-1.18 3.039-1.18 1.25 0 2.24.402 2.968 1.207.73.805 1.094 1.89 1.094 3.254zm-6.289 0c0 1.995.737 2.992 2.211 2.992 1.458 0 2.188-.997 2.188-2.992 0-1.974-.735-2.96-2.204-2.96-.77 0-1.329.254-1.675.765-.347.51-.52 1.242-.52 2.195zm14.203 1.875c0 .844-.307 1.49-.922 1.941-.614.451-1.494.676-2.64.676-1.151 0-2.076-.174-2.774-.523v-1.586c1.016.469 1.961.703 2.836.703 1.13 0 1.696-.341 1.696-1.023a.81.81 0 0 0-.188-.547c-.125-.146-.33-.297-.617-.453a10.621 10.621 0 0 0-1.195-.532c-.995-.385-1.668-.77-2.02-1.156-.352-.385-.527-.885-.527-1.5 0-.74.298-1.314.894-1.723.597-.408 1.408-.613 2.434-.613 1.015 0 1.976.206 2.883.617l-.594 1.383c-.932-.385-1.716-.578-2.352-.578-.968 0-1.453.276-1.453.828 0 .271.126.5.38.688.252.187.802.445 1.651.773.714.276 1.232.529 1.555.758.323.229.563.493.719.793.156.3.234.657.234 1.074zm3.82 2.461h-1.835v-8.64h1.836V244zm-1.945-10.93c0-.328.09-.58.27-.757.18-.178.436-.266.77-.266.322 0 .574.088.753.266.18.177.27.43.27.757 0 .313-.09.559-.27.739-.18.18-.43.27-.754.27-.333 0-.59-.09-.77-.27-.179-.18-.269-.426-.269-.739zm10.375 8.47c0 .843-.307 1.49-.922 1.94-.614.451-1.494.676-2.64.676-1.151 0-2.076-.174-2.774-.523v-1.586c1.016.469 1.961.703 2.836.703 1.13 0 1.696-.341 1.696-1.023a.81.81 0 0 0-.188-.547c-.125-.146-.33-.297-.617-.453a10.621 10.621 0 0 0-1.195-.532c-.995-.385-1.668-.77-2.02-1.156-.352-.385-.527-.885-.527-1.5 0-.74.298-1.314.894-1.723.597-.408 1.408-.613 2.434-.613 1.015 0 1.976.206 2.883.617l-.594 1.383c-.932-.385-1.716-.578-2.352-.578-.968 0-1.453.276-1.453.828 0 .271.126.5.38.688.252.187.802.445 1.651.773.714.276 1.232.529 1.555.758.323.229.563.493.719.793.156.3.234.657.234 1.074zm5.203 1.132c.448 0 .896-.07 1.344-.211v1.383a3.706 3.706 0 0 1-.785.222c-.32.06-.652.09-.996.09-1.74 0-2.61-.916-2.61-2.75v-4.656h-1.18v-.813l1.266-.671.625-1.828h1.133v1.921h2.461v1.391h-2.46v4.625c0 .443.11.77.331.98.222.211.512.317.871.317zm6.844 1.484c-1.344 0-2.394-.392-3.152-1.176-.758-.783-1.137-1.863-1.137-3.238 0-1.411.352-2.52 1.055-3.328.703-.807 1.669-1.21 2.898-1.21 1.14 0 2.042.345 2.703 1.038.662.693.993 1.646.993 2.86v.992h-5.758c.026.838.252 1.483.68 1.933.426.45 1.028.676 1.804.676.51 0 .986-.048 1.426-.144.44-.097.913-.257 1.418-.48v1.491a5.637 5.637 0 0 1-1.36.453 8.336 8.336 0 0 1-1.57.133zm-.336-7.562c-.583 0-1.05.185-1.402.554-.352.37-.561.91-.63 1.618h3.923c-.01-.714-.182-1.254-.516-1.621-.333-.368-.791-.551-1.375-.551zM327.055 244h-1.844v-5.328c0-.662-.125-1.155-.375-1.48-.25-.326-.64-.489-1.172-.489-.708 0-1.228.23-1.559.692-.33.46-.496 1.227-.496 2.3V244h-1.836v-8.64h1.438l.258 1.132h.094c.24-.411.587-.729 1.042-.953a3.363 3.363 0 0 1 1.504-.336c1.329 0 2.209.453 2.641 1.36h.125c.255-.428.615-.76 1.078-1 .464-.24.995-.36 1.594-.36 1.031 0 1.782.26 2.254.781.471.521.707 1.315.707 2.383V244h-1.836v-5.328c0-.662-.126-1.155-.379-1.48-.253-.326-.645-.489-1.176-.489-.713 0-1.235.223-1.566.668-.33.445-.496 1.129-.496 2.05V244zm13.422 0l-.368-1.203h-.062c-.417.526-.836.884-1.258 1.074-.422.19-.963.285-1.625.285-.849 0-1.512-.229-1.988-.687-.477-.459-.715-1.107-.715-1.946 0-.89.33-1.562.992-2.015.662-.453 1.67-.7 3.024-.742l1.492-.047v-.461c0-.552-.13-.965-.387-1.238-.258-.274-.658-.41-1.2-.41-.442 0-.866.064-1.273.195a9.61 9.61 0 0 0-1.171.46l-.594-1.312a6.39 6.39 0 0 1 1.539-.558 7.083 7.083 0 0 1 1.578-.192c1.099 0 1.928.24 2.488.719s.84 1.232.84 2.258V244h-1.312zm-2.735-1.25c.667 0 1.202-.186 1.606-.559.403-.372.605-.894.605-1.566v-.75l-1.11.047c-.864.031-1.493.176-1.886.433-.393.258-.59.653-.59 1.184 0 .385.115.684.344.895.23.21.573.316 1.031.316zM279.94 197h-22.62v-2.7l17.16-22.5c1.68-2.16 2.4-4.2 2.4-6.66 0-5.1-3.06-8.52-8.22-8.52-4.44 0-8.22 2.52-8.22 8.52h-3.06c0-6.36 4.2-11.22 11.28-11.22 6.84 0 11.28 4.44 11.28 11.22 0 3.18-.78 5.4-2.94 8.22l-16.02 20.94h18.96v2.7zm28.96-13.98c0 4.08-.24 8.28-3.3 11.34-1.98 1.98-4.68 3.06-8.22 3.06-3.48 0-6.36-.96-8.22-2.88-1.62-1.62-2.64-3.9-2.88-6.96h3.06c.6 4.56 3.06 7.14 8.04 7.14 2.34 0 4.5-.78 5.88-2.16 2.52-2.52 2.58-6.36 2.58-9.54 0-5.34-.96-11.4-7.98-11.4-3.9 0-6.84 1.62-7.74 4.5h-2.7v-21.84h20.52v2.7h-17.82v15.12c1.86-2.16 4.62-3.18 8.1-3.18 3.06 0 5.52.9 7.2 2.58 3 3 3.48 7.5 3.48 11.52zm25.3 10.08c0 2.58-1.86 4.11-4.2 4.11s-4.2-1.53-4.2-4.11v-3.03c0-2.58 1.86-4.11 4.2-4.11s4.2 1.53 4.2 4.11v3.03zm-4.65-17.46L319.5 197h-2.46l10.08-21.36h2.43zm-8.73 6.93c0 2.58-1.86 4.08-4.2 4.08s-4.2-1.5-4.2-4.08v-3.03c0-2.58 1.86-4.11 4.2-4.11s4.2 1.53 4.2 4.11v3.03zm11.07 10.44v-2.85c0-1.35-.6-2.16-1.89-2.16s-1.89.78-1.89 2.16v2.85c0 1.38.6 2.16 1.89 2.16s1.89-.81 1.89-2.16zm-13.38-10.53v-2.85c0-1.35-.6-2.16-1.89-2.16s-1.89.78-1.89 2.16v2.85c0 1.38.6 2.13 1.89 2.13s1.89-.78 1.89-2.13z"/>
        </g>
    </g>
</svg>
