<svg xmlns="http://www.w3.org/2000/svg" width="385" height="394" viewBox="0 0 385 394">
    <defs>
        <linearGradient id="a" x1="62.121%" x2="67.844%" y1="-102.184%" y2="147.419%">
            <stop offset="0%" stop-color="#A8FF97"/>
            <stop offset="39.772%" stop-color="#69ECF1"/>
            <stop offset="50.664%" stop-color="#77C9F5"/>
            <stop offset="81.298%" stop-color="#B792FF"/>
            <stop offset="100%" stop-color="#FE7BA0"/>
        </linearGradient>
        <linearGradient id="b" x1="73.956%" x2="76.399%" y1="15.957%" y2="104.994%">
            <stop offset="0%" stop-color="#F0E7D2"/>
            <stop offset="100%" stop-color="#F0B4E4"/>
        </linearGradient>
        <linearGradient id="c" x1="93.413%" x2="63.069%" y1="11.947%" y2="107.986%">
            <stop offset="0%" stop-color="#F4F8D6"/>
            <stop offset="100%" stop-color="#EDDD9D"/>
        </linearGradient>
        <linearGradient id="d" x1="89.873%" x2="32.666%" y1="8.544%" y2="103.707%">
            <stop offset="0%" stop-color="#D2F0E1"/>
            <stop offset="100%" stop-color="#B4D2F0"/>
        </linearGradient>
        <linearGradient id="e" x1="45.919%" x2="90.523%" y1="106.839%" y2="-2.405%">
            <stop offset="0%" stop-color="#D2F0F0"/>
            <stop offset="100%" stop-color="#F0E6B4"/>
        </linearGradient>
    </defs>
    <g fill="none" fill-rule="evenodd">
        <g stroke="#FFF">
            <path fill="url(#a)" stroke-width="4" d="M382 197c0 102.173-82.828 185-185 185S12 299.173 12 197C12 94.828 94.828 12 197 12s185 82.828 185 185" transform="translate(2 1)"/>
            <path fill="url(#b)" d="M382 197c0 102.173-82.828 185-185 185S12 299.173 12 197C12 94.828 94.828 12 197 12s185 82.828 185 185" transform="translate(2 1)"/>
            <path fill="url(#c)" stroke-width="2" d="M88 346.668C118.598 368.884 156.26 382 197 382V197L88 346.668z" transform="translate(2 1)"/>
            <path fill="url(#d)" stroke-width="2" d="M21 254.924C33.182 292.269 57.02 324.377 88.247 347l106.936-146.51a1 1 0 0 0-1.115-1.542L21 254.924z" transform="translate(2 1)"/>
            <path fill="url(#e)" stroke-width="2" d="M9.625 258.974l187.086-60.78a1 1 0 0 0 .69-.95V.598C88.38.598.002 88.964.002 197.97c0 21.293 3.385 41.792 9.624 61.004z" transform="translate(2 1)"/>
        </g>
        <g fill="#462405">
            <path d="M69.522 157.581h2.786L66.558 174h-2.83L58 157.581h2.763l3.425 10.209c.18.486.37 1.113.573 1.88.202.768.333 1.339.393 1.713.097-.569.247-1.228.449-1.976.202-.749.367-1.303.494-1.662l3.425-10.164zm9.636 16.644c-1.931 0-3.442-.564-4.531-1.69-1.09-1.127-1.634-2.679-1.634-4.656 0-2.029.505-3.623 1.516-4.784 1.01-1.16 2.4-1.74 4.166-1.74 1.64 0 2.935.497 3.886 1.493.95.996 1.426 2.366 1.426 4.11v1.427H75.71c.038 1.205.364 2.132.977 2.78.614.647 1.48.97 2.595.97.733 0 1.417-.069 2.05-.207a10.743 10.743 0 0 0 2.038-.69v2.144a8.103 8.103 0 0 1-1.954.652c-.66.127-1.412.19-2.258.19zm-.483-10.871c-.838 0-1.51.265-2.016.797-.505.531-.806 1.306-.904 2.325h5.638c-.015-1.026-.262-1.803-.741-2.33-.48-.529-1.138-.792-1.977-.792zM97.913 174h-2.65v-7.637c0-.958-.193-1.673-.579-2.145-.385-.471-.997-.707-1.836-.707-1.115 0-1.931.33-2.448.988-.517.659-.775 1.763-.775 3.313V174h-2.64v-12.42h2.067l.37 1.628h.136c.374-.592.906-1.049 1.594-1.37.69-.323 1.453-.484 2.291-.484 2.98 0 4.47 1.517 4.47 4.549V174zm8.3-1.91c.643 0 1.287-.1 1.931-.302v1.987a5.328 5.328 0 0 1-1.129.32c-.46.087-.937.13-1.432.13-2.5 0-3.75-1.318-3.75-3.954v-6.693h-1.696v-1.168l1.82-.966.897-2.628h1.629v2.763h3.538v2h-3.538v6.648c0 .636.159 1.106.477 1.409.318.303.736.455 1.252.455zm9.837 2.135c-1.931 0-3.442-.564-4.531-1.69-1.09-1.127-1.634-2.679-1.634-4.656 0-2.029.505-3.623 1.516-4.784 1.01-1.16 2.4-1.74 4.166-1.74 1.64 0 2.935.497 3.886 1.493.951.996 1.426 2.366 1.426 4.11v1.427h-8.276c.037 1.205.363 2.132.977 2.78.614.647 1.478.97 2.594.97.734 0 1.417-.069 2.05-.207a10.743 10.743 0 0 0 2.038-.69v2.144a8.103 8.103 0 0 1-1.954.652c-.66.127-1.412.19-2.258.19zm-.483-10.871c-.838 0-1.51.265-2.015.797-.506.531-.807 1.306-.905 2.325h5.638c-.015-1.026-.262-1.803-.741-2.33-.48-.529-1.138-.792-1.977-.792zm16.655 7.108c0 1.213-.442 2.144-1.325 2.791-.883.648-2.149.972-3.796.972-1.655 0-2.983-.251-3.987-.753v-2.28c1.46.674 2.82 1.011 4.077 1.011 1.625 0 2.437-.49 2.437-1.471 0-.315-.09-.577-.27-.786-.18-.21-.475-.427-.887-.652-.412-.224-.984-.479-1.718-.763-1.43-.554-2.398-1.108-2.903-1.662-.506-.554-.758-1.273-.758-2.157 0-1.063.428-1.888 1.286-2.476.857-.588 2.023-.882 3.498-.882 1.46 0 2.841.296 4.144.888l-.853 1.987c-1.34-.554-2.467-.83-3.38-.83-1.393 0-2.09.396-2.09 1.19 0 .39.182.719.545.988.363.27 1.155.64 2.375 1.112 1.026.397 1.77.76 2.235 1.09.464.329.809.709 1.033 1.14.225.43.337.944.337 1.543zm13.016 3.763c-1.55 0-2.759-.562-3.627-1.685-.869-1.123-1.303-2.699-1.303-4.728 0-2.036.44-3.622 1.32-4.756.88-1.134 2.098-1.702 3.655-1.702 1.632 0 2.875.603 3.729 1.809h.134c-.127-.891-.19-1.595-.19-2.112v-4.526h2.65V174h-2.066l-.46-1.628h-.124c-.846 1.235-2.086 1.853-3.718 1.853zm.708-2.134c1.085 0 1.875-.305 2.37-.915.494-.61.748-1.6.763-2.97v-.372c0-1.564-.254-2.676-.764-3.335-.509-.659-1.306-.988-2.392-.988-.928 0-1.643.376-2.145 1.128-.501.753-.752 1.825-.752 3.218 0 1.378.243 2.428.73 3.15.487.723 1.216 1.084 2.19 1.084zm14.858 2.134c-1.932 0-3.442-.564-4.532-1.69-1.09-1.127-1.634-2.679-1.634-4.656 0-2.029.506-3.623 1.516-4.784 1.011-1.16 2.4-1.74 4.167-1.74 1.64 0 2.935.497 3.886 1.493.95.996 1.426 2.366 1.426 4.11v1.427h-8.277c.037 1.205.363 2.132.977 2.78.614.647 1.479.97 2.594.97.734 0 1.417-.069 2.05-.207a10.743 10.743 0 0 0 2.038-.69v2.144a8.103 8.103 0 0 1-1.954.652c-.659.127-1.411.19-2.257.19zm-.483-10.871c-.839 0-1.51.265-2.016.797-.505.531-.807 1.306-.904 2.325h5.638c-.015-1.026-.262-1.803-.742-2.33-.479-.529-1.138-.792-1.976-.792zM58.618 207.525c-.794 0-1.453-.093-1.977-.28v-2.09c.51.136 1.03.203 1.561.203 1.123 0 1.685-.636 1.685-1.91V189.58h2.639v14.05c0 1.28-.335 2.25-1.005 2.908-.67.659-1.638.988-2.903.988zm1.111-21.236c0-.472.13-.835.388-1.09.258-.254.627-.382 1.106-.382.464 0 .826.128 1.084.382.258.255.387.618.387 1.09 0 .449-.129.803-.387 1.06-.258.26-.62.388-1.084.388-.479 0-.848-.129-1.106-.387-.258-.258-.388-.612-.388-1.061zm11.995 15.936c-1.932 0-3.443-.564-4.532-1.69-1.09-1.127-1.634-2.679-1.634-4.656 0-2.029.505-3.623 1.516-4.784 1.011-1.16 2.4-1.74 4.167-1.74 1.64 0 2.935.497 3.885 1.493.951.996 1.427 2.366 1.427 4.11v1.427h-8.277c.037 1.205.363 2.132.977 2.78.614.647 1.479.97 2.594.97.734 0 1.417-.069 2.05-.207a10.743 10.743 0 0 0 2.038-.69v2.144a8.103 8.103 0 0 1-1.954.652c-.659.127-1.411.19-2.257.19zm-.483-10.871c-.839 0-1.51.265-2.016.797-.506.531-.807 1.306-.904 2.325h5.637c-.014-1.026-.262-1.803-.74-2.33-.48-.529-1.139-.792-1.977-.792zm12.937 8.737c.644 0 1.288-.101 1.932-.303v1.987a5.328 5.328 0 0 1-1.129.32c-.46.087-.938.13-1.432.13-2.5 0-3.75-1.318-3.75-3.954v-6.693h-1.696v-1.168l1.819-.966.898-2.628h1.629v2.763h3.537v2H82.45v6.648c0 .636.159 1.106.477 1.409.318.303.736.455 1.252.455zm15.43-4.324c0 2.03-.52 3.613-1.56 4.75-1.04 1.139-2.49 1.708-4.346 1.708-1.16 0-2.187-.262-3.077-.787-.891-.524-1.576-1.276-2.056-2.257-.479-.98-.718-2.119-.718-3.414 0-2.014.516-3.586 1.55-4.717 1.033-1.13 2.489-1.696 4.368-1.696 1.797 0 3.22.579 4.268 1.736 1.048 1.156 1.572 2.715 1.572 4.677zm-9.04 0c0 2.868 1.06 4.301 3.179 4.301 2.096 0 3.144-1.433 3.144-4.3 0-2.838-1.056-4.257-3.167-4.257-1.108 0-1.91.367-2.409 1.1-.498.734-.747 1.786-.747 3.156zm23 6.233h-2.65v-7.637c0-.958-.193-1.673-.578-2.145-.386-.471-.998-.707-1.837-.707-1.115 0-1.931.33-2.448.988-.516.659-.775 1.763-.775 3.313V202h-2.639v-12.42h2.067l.37 1.628h.135c.374-.592.906-1.049 1.595-1.37.688-.323 1.452-.484 2.29-.484 2.98 0 4.47 1.517 4.47 4.549V202zm12.017-3.538c0 1.213-.442 2.144-1.325 2.791-.884.648-2.149.972-3.796.972-1.655 0-2.984-.251-3.987-.753v-2.28c1.46.674 2.819 1.011 4.077 1.011 1.624 0 2.437-.49 2.437-1.471 0-.315-.09-.577-.27-.786-.18-.21-.475-.427-.887-.652-.412-.224-.985-.479-1.718-.763-1.43-.554-2.398-1.108-2.903-1.662-.506-.554-.758-1.273-.758-2.157 0-1.063.428-1.888 1.285-2.476.858-.588 2.024-.882 3.499-.882 1.46 0 2.841.296 4.144.888l-.854 1.987c-1.34-.554-2.467-.83-3.38-.83-1.393 0-2.089.396-2.089 1.19 0 .39.182.719.545.988.363.27 1.155.64 2.375 1.112 1.026.397 1.77.76 2.235 1.09.464.329.808.709 1.033 1.14.225.43.337.944.337 1.543zM92.654 126.42c0 10.414-7.216 16.154-16.564 16.154-9.102 0-16.072-4.674-16.646-14.76h4.182c.574 7.954 6.396 11.07 12.464 11.07 6.97 0 12.382-4.674 12.382-12.464 0-7.872-3.772-12.464-12.71-12.464h-.984v-3.69h.984c7.79 0 11.562-4.264 11.562-11.726 0-7.708-5.002-11.808-11.316-11.808-6.888 0-10.906 4.182-11.644 10.66h-4.182c.82-9.102 7.38-14.35 15.826-14.35 9.184 0 15.498 6.15 15.498 15.498 0 6.15-2.46 10.824-8.282 13.284 6.478 2.214 9.43 7.216 9.43 14.596zm39.902.492c0 9.102-6.314 15.58-15.334 15.58s-15.334-6.478-15.334-15.58V98.704c0-9.102 6.314-15.58 15.334-15.58s15.334 6.478 15.334 15.58v28.208zm-4.182-.41V99.114c0-6.888-3.854-12.3-11.152-12.3-7.298 0-11.152 5.412-11.152 12.3v27.388c0 6.888 3.854 12.3 11.152 12.3 7.298 0 11.152-5.412 11.152-12.3zm37.714 10.558c0 3.268-2.356 5.206-5.32 5.206-2.964 0-5.32-1.938-5.32-5.206v-3.838c0-3.268 2.356-5.206 5.32-5.206 2.964 0 5.32 1.938 5.32 5.206v3.838zm-5.89-22.116L147.468 142h-3.116l12.768-27.056h3.078zm-11.058 8.778c0 3.268-2.356 5.168-5.32 5.168-2.964 0-5.32-1.9-5.32-5.168v-3.838c0-3.268 2.356-5.206 5.32-5.206 2.964 0 5.32 1.938 5.32 5.206v3.838zm14.022 13.224v-3.61c0-1.71-.76-2.736-2.394-2.736-1.634 0-2.394.988-2.394 2.736v3.61c0 1.748.76 2.736 2.394 2.736 1.634 0 2.394-1.026 2.394-2.736zm-16.948-13.338v-3.61c0-1.71-.76-2.736-2.394-2.736-1.634 0-2.394.988-2.394 2.736v3.61c0 1.748.76 2.698 2.394 2.698 1.634 0 2.394-.988 2.394-2.698z"/>
        </g>
        <g fill="#462405">
            <path d="M236.522 221.581h2.786L233.558 238h-2.83L225 221.581h2.763l3.425 10.209c.18.486.37 1.113.573 1.88.202.768.333 1.339.393 1.713.097-.569.247-1.228.449-1.976.202-.749.367-1.303.494-1.662l3.425-10.164zM243.833 238h-2.639v-12.42h2.64V238zm-2.796-15.711c0-.472.13-.835.388-1.09.258-.254.627-.382 1.106-.382.464 0 .825.128 1.084.382.258.255.387.618.387 1.09 0 .449-.13.803-.387 1.06-.259.26-.62.388-1.084.388-.48 0-.848-.129-1.106-.387-.259-.258-.388-.612-.388-1.061zm9.4 15.711l-4.717-12.42h2.785l2.527 7.22c.434 1.213.697 2.194.786 2.943h.09c.068-.54.33-1.52.786-2.943l2.527-7.22h2.808l-4.74 12.42h-2.852zm12.118 0h-2.64v-12.42h2.64V238zm-2.797-15.711c0-.472.13-.835.388-1.09.258-.254.627-.382 1.106-.382.464 0 .825.128 1.084.382.258.255.387.618.387 1.09 0 .449-.129.803-.387 1.06-.259.26-.62.388-1.084.388-.48 0-.848-.129-1.106-.387-.259-.258-.388-.612-.388-1.061zm11.994 15.936c-1.931 0-3.442-.564-4.531-1.69-1.09-1.127-1.634-2.679-1.634-4.656 0-2.029.505-3.623 1.516-4.784 1.01-1.16 2.4-1.74 4.167-1.74 1.64 0 2.934.497 3.885 1.493.951.996 1.427 2.366 1.427 4.11v1.427h-8.277c.037 1.205.363 2.132.977 2.78.614.647 1.478.97 2.594.97.734 0 1.417-.069 2.05-.207a10.743 10.743 0 0 0 2.038-.69v2.144a8.103 8.103 0 0 1-1.954.652c-.66.127-1.412.19-2.258.19zm-.482-10.871c-.839 0-1.511.265-2.016.797-.506.531-.807 1.306-.904 2.325h5.637c-.015-1.026-.262-1.803-.74-2.33-.48-.529-1.139-.792-1.977-.792zm14.61-2c.532 0 .97.038 1.314.113l-.258 2.46a4.988 4.988 0 0 0-1.168-.135c-1.056 0-1.911.344-2.566 1.033-.655.689-.983 1.583-.983 2.684V238h-2.639v-12.42h2.066l.349 2.189h.134a4.921 4.921 0 0 1 1.612-1.763 3.83 3.83 0 0 1 2.14-.652zm13.78 12.87c-1.55 0-2.759-.56-3.627-1.684-.869-1.123-1.303-2.699-1.303-4.728 0-2.036.44-3.622 1.32-4.756.88-1.134 2.098-1.702 3.655-1.702 1.632 0 2.875.603 3.729 1.809h.134c-.127-.891-.19-1.595-.19-2.112v-4.526h2.65V238h-2.067l-.46-1.628h-.124c-.846 1.235-2.085 1.853-3.717 1.853zm.708-2.133c1.085 0 1.875-.305 2.37-.915.493-.61.748-1.6.763-2.97v-.372c0-1.564-.255-2.676-.764-3.335-.509-.659-1.306-.988-2.392-.988-.928 0-1.643.376-2.145 1.128-.501.753-.752 1.825-.752 3.218 0 1.378.243 2.428.73 3.15.486.723 1.216 1.084 2.19 1.084zm14.858 2.134c-1.932 0-3.443-.564-4.532-1.69-1.09-1.127-1.634-2.679-1.634-4.656 0-2.029.505-3.623 1.516-4.784 1.01-1.16 2.4-1.74 4.167-1.74 1.64 0 2.935.497 3.885 1.493.951.996 1.427 2.366 1.427 4.11v1.427h-8.277c.037 1.205.363 2.132.977 2.78.614.647 1.479.97 2.594.97.734 0 1.417-.069 2.05-.207a10.743 10.743 0 0 0 2.038-.69v2.144a8.103 8.103 0 0 1-1.954.652c-.659.127-1.411.19-2.257.19zm-.483-10.871c-.839 0-1.51.265-2.016.797-.506.531-.807 1.306-.904 2.325h5.637c-.015-1.026-.262-1.803-.74-2.33-.48-.529-1.139-.792-1.977-.792zm-82.847 39.87c-1.88 0-3.308-.548-4.285-1.645-.977-1.097-1.465-2.67-1.465-4.722 0-2.089.51-3.695 1.532-4.818 1.022-1.123 2.5-1.685 4.43-1.685 1.311 0 2.49.244 3.538.73l-.797 2.123c-1.115-.434-2.036-.651-2.763-.651-2.148 0-3.223 1.426-3.223 4.278 0 1.393.268 2.44.803 3.14.536.7 1.32 1.05 2.353 1.05a6.75 6.75 0 0 0 3.335-.877v2.303a5.212 5.212 0 0 1-1.51.595c-.535.12-1.185.18-1.948.18zm12.679-12.87c.531 0 .97.038 1.314.113l-.259 2.46a4.988 4.988 0 0 0-1.168-.135c-1.055 0-1.91.344-2.566 1.033-.655.689-.982 1.583-.982 2.684V267h-2.64v-12.42h2.067l.348 2.189h.135a4.921 4.921 0 0 1 1.611-1.763 3.83 3.83 0 0 1 2.14-.652zm8.58 12.87c-1.932 0-3.442-.563-4.532-1.69-1.09-1.126-1.634-2.678-1.634-4.655 0-2.029.506-3.623 1.516-4.784 1.011-1.16 2.4-1.74 4.167-1.74 1.64 0 2.935.497 3.886 1.493.95.996 1.426 2.366 1.426 4.11v1.427h-8.277c.037 1.205.363 2.132.977 2.78.614.647 1.479.97 2.594.97.734 0 1.417-.069 2.05-.207a10.743 10.743 0 0 0 2.038-.69v2.144a8.103 8.103 0 0 1-1.954.652c-.659.127-1.411.19-2.257.19zm-.483-10.87c-.839 0-1.51.265-2.016.797-.505.531-.807 1.306-.904 2.325h5.638c-.015-1.026-.262-1.803-.742-2.33-.479-.529-1.138-.792-1.976-.792zm-1.685-3.291v-.28a31.32 31.32 0 0 0 1.32-1.753c.453-.644.81-1.194 1.072-1.65h3.066v.235c-.389.457-.971 1.047-1.746 1.769-.775.723-1.428 1.282-1.96 1.679h-1.752zM268.754 267l-.528-1.73h-.09c-.599.757-1.201 1.271-1.808 1.545-.606.273-1.385.41-2.336.41-1.22 0-2.173-.33-2.858-.989s-1.028-1.59-1.028-2.796c0-1.28.476-2.246 1.427-2.898.95-.65 2.4-1.007 4.346-1.066l2.145-.068v-.662c0-.794-.185-1.387-.556-1.78-.37-.393-.945-.59-1.724-.59a5.96 5.96 0 0 0-1.83.28c-.584.188-1.146.409-1.685.663l-.854-1.886a9.186 9.186 0 0 1 2.213-.803 10.181 10.181 0 0 1 2.268-.276c1.58 0 2.772.345 3.577 1.034.805.689 1.208 1.77 1.208 3.245V267h-1.887zm-3.93-1.797c.958 0 1.727-.268 2.307-.803.58-.535.87-1.286.87-2.252v-1.078l-1.594.068c-1.243.045-2.147.252-2.712.623-.566.37-.848.938-.848 1.701 0 .554.164.983.494 1.286.33.304.823.455 1.482.455zm14.127-.112c.644 0 1.288-.101 1.932-.303v1.987a5.328 5.328 0 0 1-1.129.32c-.46.087-.938.13-1.432.13-2.5 0-3.75-1.318-3.75-3.954v-6.693h-1.697v-1.168l1.82-.966.898-2.628h1.629v2.763h3.537v2h-3.537v6.648c0 .636.159 1.106.477 1.409.318.303.736.455 1.252.455zm9.838 2.134c-1.932 0-3.442-.564-4.531-1.69-1.09-1.127-1.634-2.679-1.634-4.656 0-2.029.505-3.623 1.516-4.784 1.01-1.16 2.4-1.74 4.166-1.74 1.64 0 2.935.497 3.886 1.493.95.996 1.426 2.366 1.426 4.11v1.427h-8.277c.038 1.205.363 2.132.977 2.78.614.647 1.479.97 2.595.97.733 0 1.417-.069 2.05-.207a10.743 10.743 0 0 0 2.037-.69v2.144a8.103 8.103 0 0 1-1.954.652c-.658.127-1.41.19-2.257.19zm-.483-10.871c-.838 0-1.51.265-2.016.797-.505.531-.806 1.306-.904 2.325h5.638c-.015-1.026-.262-1.803-.741-2.33-.48-.529-1.138-.792-1.977-.792zM305.376 267l-.37-1.628h-.135c-.367.576-.889 1.029-1.567 1.358-.677.33-1.45.495-2.319.495-1.505 0-2.628-.375-3.369-1.123-.741-.75-1.112-1.883-1.112-3.403v-8.12h2.662v7.66c0 .95.195 1.663.584 2.139.39.475 1 .713 1.83.713 1.109 0 1.923-.331 2.443-.994s.78-1.773.78-3.33v-6.188h2.651V267h-2.078zm12.14-12.646c.532 0 .97.038 1.315.113l-.259 2.46a4.988 4.988 0 0 0-1.168-.135c-1.055 0-1.91.344-2.566 1.033-.655.689-.983 1.583-.983 2.684V267h-2.639v-12.42h2.067l.348 2.189h.135a4.921 4.921 0 0 1 1.611-1.763 3.83 3.83 0 0 1 2.14-.652zm11.961 9.108c0 1.213-.442 2.144-1.325 2.791-.884.648-2.149.972-3.796.972-1.655 0-2.984-.251-3.987-.753v-2.28c1.46.674 2.819 1.011 4.077 1.011 1.624 0 2.437-.49 2.437-1.471 0-.315-.09-.577-.27-.786-.18-.21-.475-.427-.887-.652-.412-.224-.984-.479-1.718-.763-1.43-.554-2.398-1.108-2.903-1.662-.506-.554-.758-1.273-.758-2.157 0-1.063.428-1.888 1.286-2.476.857-.588 2.023-.882 3.498-.882 1.46 0 2.841.296 4.144.888l-.854 1.987c-1.34-.554-2.467-.83-3.38-.83-1.393 0-2.089.396-2.089 1.19 0 .39.182.719.545.988.363.27 1.155.64 2.375 1.112 1.026.397 1.77.76 2.235 1.09.464.329.809.709 1.033 1.14.225.43.337.944.337 1.543zM255.982 182.894c0 5.576-.328 11.316-4.51 15.498-2.706 2.706-6.396 4.182-11.234 4.182-4.756 0-8.692-1.312-11.234-3.936-2.214-2.214-3.608-5.33-3.936-9.512h4.182c.82 6.232 4.182 9.758 10.988 9.758 3.198 0 6.15-1.066 8.036-2.952 3.444-3.444 3.526-8.692 3.526-13.038 0-7.298-1.312-15.58-10.906-15.58-5.33 0-9.348 2.214-10.578 6.15h-3.69v-29.848h28.044v3.69h-24.354v20.664c2.542-2.952 6.314-4.346 11.07-4.346 4.182 0 7.544 1.23 9.84 3.526 4.1 4.1 4.756 10.25 4.756 15.744zm39.574 4.018c0 9.102-6.314 15.58-15.334 15.58s-15.334-6.478-15.334-15.58v-28.208c0-9.102 6.314-15.58 15.334-15.58s15.334 6.478 15.334 15.58v28.208zm-4.182-.41v-27.388c0-6.888-3.854-12.3-11.152-12.3-7.298 0-11.152 5.412-11.152 12.3v27.388c0 6.888 3.854 12.3 11.152 12.3 7.298 0 11.152-5.412 11.152-12.3zm37.714 10.558c0 3.268-2.356 5.206-5.32 5.206-2.964 0-5.32-1.938-5.32-5.206v-3.838c0-3.268 2.356-5.206 5.32-5.206 2.964 0 5.32 1.938 5.32 5.206v3.838zm-5.89-22.116L310.468 202h-3.116l12.768-27.056h3.078zm-11.058 8.778c0 3.268-2.356 5.168-5.32 5.168-2.964 0-5.32-1.9-5.32-5.168v-3.838c0-3.268 2.356-5.206 5.32-5.206 2.964 0 5.32 1.938 5.32 5.206v3.838zm14.022 13.224v-3.61c0-1.71-.76-2.736-2.394-2.736-1.634 0-2.394.988-2.394 2.736v3.61c0 1.748.76 2.736 2.394 2.736 1.634 0 2.394-1.026 2.394-2.736zm-16.948-13.338v-3.61c0-1.71-.76-2.736-2.394-2.736-1.634 0-2.394.988-2.394 2.736v3.61c0 1.748.76 2.698 2.394 2.698 1.634 0 2.394-.988 2.394-2.698z"/>
        </g>
        <g fill="#462405">
            <path d="M57.748 298.362c0 1.179-.327 2.08-.981 2.703-.655.623-1.597.935-2.828.935h-1.997v-7.139h2.207c1.136 0 2.02.306 2.652.918.631.612.947 1.473.947 2.583zm-1.23.04c0-1.71-.8-2.564-2.398-2.564h-1.01v5.18h.83c1.718 0 2.578-.872 2.578-2.617zm5 3.696c-.84 0-1.497-.245-1.97-.735-.474-.49-.711-1.165-.711-2.024 0-.882.22-1.576.66-2.08.439-.505 1.042-.757 1.81-.757.714 0 1.277.216 1.69.65.413.432.62 1.028.62 1.786v.62H60.02c.016.525.157.928.424 1.21.267.28.643.421 1.128.421.32 0 .616-.03.891-.09s.57-.16.887-.3v.932c-.28.134-.564.228-.85.284a5.21 5.21 0 0 1-.981.083zm-.21-4.727c-.365 0-.657.116-.877.347-.22.23-.35.568-.393 1.01h2.451c-.006-.445-.114-.783-.322-1.013-.208-.23-.495-.344-.86-.344zm-.733-1.43v-.123c.186-.228.377-.481.574-.761.197-.28.352-.52.466-.718h1.333v.102c-.169.199-.422.455-.759.77-.337.314-.621.557-.852.73h-.762zM65.951 302l-2.05-5.4h1.21l1.099 3.14c.189.527.303.953.342 1.279h.039c.03-.235.143-.661.342-1.28l1.098-3.14h1.221L67.192 302h-1.24zm6.48.098c-.84 0-1.497-.245-1.97-.735-.474-.49-.711-1.165-.711-2.024 0-.882.22-1.576.66-2.08.439-.505 1.042-.757 1.81-.757.714 0 1.277.216 1.69.65.414.432.62 1.028.62 1.786v.62h-3.598c.016.525.158.928.424 1.21.267.28.643.421 1.128.421.32 0 .616-.03.891-.09.276-.06.571-.16.887-.3v.932c-.28.134-.563.228-.85.284a5.21 5.21 0 0 1-.981.083zm-.21-4.727c-.365 0-.657.116-.877.347-.22.23-.35.568-.393 1.01h2.451c-.006-.445-.114-.783-.322-1.013-.208-.23-.495-.344-.86-.344zM76.98 302h-1.147v-7.598h1.147V302zm6.431-2.71c0 .882-.226 1.57-.679 2.065-.452.495-1.082.743-1.89.743a2.59 2.59 0 0 1-1.337-.342 2.256 2.256 0 0 1-.894-.982c-.208-.426-.312-.92-.312-1.484 0-.876.224-1.56.674-2.05.449-.492 1.082-.738 1.899-.738.781 0 1.4.251 1.856.754.455.503.683 1.181.683 2.034zm-3.93 0c0 1.247.46 1.87 1.381 1.87.912 0 1.367-.623 1.367-1.87 0-1.234-.459-1.85-1.376-1.85-.482 0-.831.159-1.048.478-.216.319-.325.776-.325 1.372zm7.988 2.808c-.684 0-1.214-.246-1.592-.738h-.068c.045.456.068.733.068.83v2.212H84.73V296.6h.928c.026.1.08.341.161.722h.059c.358-.547.895-.82 1.611-.82.674 0 1.199.244 1.575.732.376.489.564 1.174.564 2.056 0 .882-.191 1.57-.574 2.065-.382.495-.91.743-1.584.743zm-.279-4.659c-.455 0-.788.134-.998.4-.21.268-.315.694-.315 1.28v.171c0 .658.104 1.134.312 1.428.209.295.549.442 1.02.442.398 0 .704-.163.919-.488.215-.326.322-.79.322-1.392 0-.605-.106-1.063-.32-1.374-.213-.311-.526-.467-.94-.467zm6.51 4.659c-.684 0-1.215-.246-1.593-.738h-.068c.046.456.068.733.068.83v2.212h-1.147V296.6h.928c.026.1.08.341.16.722h.06c.357-.547.895-.82 1.61-.82.675 0 1.2.244 1.575.732.376.489.564 1.174.564 2.056 0 .882-.19 1.57-.573 2.065-.383.495-.911.743-1.585.743zm-.28-4.659c-.455 0-.788.134-.998.4-.21.268-.315.694-.315 1.28v.171c0 .658.105 1.134.313 1.428.208.295.548.442 1.02.442.398 0 .704-.163.918-.488.215-.326.323-.79.323-1.392 0-.605-.107-1.063-.32-1.374-.213-.311-.527-.467-.94-.467zm6.129 4.659c-.84 0-1.497-.245-1.97-.735-.474-.49-.71-1.165-.71-2.024 0-.882.219-1.576.658-2.08.44-.505 1.044-.757 1.812-.757.713 0 1.276.216 1.69.65.413.432.62 1.028.62 1.786v.62h-3.6c.017.525.159.928.426 1.21.267.28.642.421 1.128.421.319 0 .616-.03.89-.09.276-.06.571-.16.887-.3v.932c-.28.134-.563.228-.85.284a5.21 5.21 0 0 1-.981.083zm-.21-4.727c-.365 0-.657.116-.877.347-.22.23-.35.568-.393 1.01h2.451c-.006-.445-.113-.783-.322-1.013-.208-.23-.495-.344-.86-.344zm8.164 4.629h-1.152v-3.33c0-.413-.079-.722-.235-.925-.156-.204-.4-.306-.732-.306-.443 0-.768.144-.974.433-.207.288-.31.767-.31 1.438V302h-1.148v-5.4h.899l.16.708h.06c.149-.258.366-.456.651-.596.285-.14.598-.21.94-.21.83 0 1.38.283 1.65.85h.079c.16-.267.384-.476.673-.625.29-.15.622-.225.997-.225.644 0 1.114.163 1.408.488.295.326.442.822.442 1.49V302h-1.147v-3.33c0-.413-.08-.722-.237-.925-.158-.204-.403-.306-.735-.306-.446 0-.772.14-.979.418-.207.278-.31.705-.31 1.282V302zm7.368.098c-.84 0-1.497-.245-1.97-.735-.474-.49-.71-1.165-.71-2.024 0-.882.22-1.576.659-2.08.439-.505 1.043-.757 1.811-.757.713 0 1.276.216 1.69.65.413.432.62 1.028.62 1.786v.62h-3.599c.016.525.158.928.425 1.21.267.28.643.421 1.128.421.319 0 .616-.03.89-.09.276-.06.571-.16.887-.3v.932c-.28.134-.563.228-.85.284a5.21 5.21 0 0 1-.98.083zm-.21-4.727c-.364 0-.657.116-.876.347-.22.23-.351.568-.393 1.01h2.45c-.006-.445-.113-.783-.322-1.013-.208-.23-.494-.344-.859-.344zm8.364 4.629h-1.152v-3.32c0-.417-.084-.728-.251-.933-.168-.205-.434-.308-.799-.308-.485 0-.84.144-1.064.43-.225.287-.337.767-.337 1.44V302h-1.148v-5.4h.899l.161.708h.059c.162-.258.393-.456.693-.596.3-.14.631-.21.996-.21 1.296 0 1.943.66 1.943 1.977V302zm3.609-.83c.28 0 .56-.044.84-.132v.864c-.127.056-.29.102-.491.14a3.38 3.38 0 0 1-.623.056c-1.087 0-1.63-.573-1.63-1.72v-2.91h-.738v-.507l.791-.42.39-1.143h.709v1.202h1.538v.869h-1.538v2.89c0 .277.069.481.207.613.139.132.32.198.545.198zm-72.993 13.928c-.674 0-1.2-.244-1.578-.733-.377-.488-.566-1.173-.566-2.055 0-.886.191-1.575.574-2.068.382-.493.912-.74 1.59-.74.709 0 1.25.262 1.62.786h.059a6.878 6.878 0 0 1-.083-.918v-1.968h1.152V315h-.898l-.2-.708h-.054c-.368.537-.907.806-1.616.806zm.307-.928c.472 0 .816-.133 1.03-.398.215-.265.326-.696.333-1.292v-.16c0-.681-.111-1.164-.333-1.45-.22-.287-.568-.43-1.04-.43-.403 0-.714.163-.932.49-.218.327-.327.794-.327 1.4 0 .598.105 1.055.317 1.369.212.314.529.47.952.47zm6.46.928c-.84 0-1.496-.245-1.97-.735s-.71-1.165-.71-2.024c0-.882.22-1.576.659-2.08.44-.505 1.043-.757 1.811-.757.713 0 1.276.216 1.69.65.413.432.62 1.028.62 1.786v.62H58.91c.016.525.158.928.425 1.21.267.28.643.421 1.128.421.319 0 .616-.03.891-.09s.57-.16.886-.3v.932c-.28.134-.563.228-.85.284a5.21 5.21 0 0 1-.98.083zm-.21-4.727c-.364 0-.657.116-.876.347-.22.23-.351.568-.393 1.01h2.45c-.006-.445-.113-.783-.321-1.013-.209-.23-.495-.344-.86-.344zM67.558 315H66.41v-7.598h1.148V315zm2.602-7.139l-.2 2.578h-.732l-.2-2.578h1.132zm3.228 7.237c-.84 0-1.497-.245-1.97-.735-.474-.49-.711-1.165-.711-2.024 0-.882.22-1.576.66-2.08.439-.505 1.043-.757 1.81-.757.714 0 1.277.216 1.69.65.414.432.62 1.028.62 1.786v.62H71.89c.016.525.158.928.424 1.21.267.28.643.421 1.128.421.32 0 .616-.03.892-.09.275-.06.57-.16.886-.3v.932c-.28.134-.563.228-.85.284a5.21 5.21 0 0 1-.981.083zm-.21-4.727c-.365 0-.657.116-.877.347-.22.23-.35.568-.393 1.01h2.451c-.006-.445-.114-.783-.322-1.013-.208-.23-.495-.344-.86-.344zm-.733-1.43v-.123c.186-.228.377-.481.574-.761.197-.28.352-.52.466-.718h1.333v.102c-.169.199-.422.455-.759.77-.337.314-.62.557-.852.73h-.762zm6.524 6.157c-.817 0-1.438-.239-1.863-.716-.425-.477-.637-1.161-.637-2.053 0-.908.222-1.606.666-2.095.445-.488 1.087-.732 1.927-.732.57 0 1.082.106 1.538.317l-.347.923c-.485-.189-.885-.283-1.201-.283-.934 0-1.402.62-1.402 1.86 0 .606.117 1.06.35 1.365.232.304.573.457 1.022.457.512 0 .995-.127 1.45-.381v1c-.204.121-.423.207-.656.26a3.94 3.94 0 0 1-.847.078zm7.563-2.808c0 .882-.226 1.57-.678 2.065-.453.495-1.083.743-1.89.743a2.59 2.59 0 0 1-1.338-.342 2.256 2.256 0 0 1-.894-.982c-.208-.426-.312-.92-.312-1.484 0-.876.225-1.56.674-2.05.449-.492 1.082-.738 1.9-.738.78 0 1.399.251 1.855.754.455.503.683 1.181.683 2.034zm-3.93 0c0 1.247.46 1.87 1.381 1.87.912 0 1.368-.623 1.368-1.87 0-1.234-.46-1.85-1.377-1.85-.482 0-.831.159-1.048.478-.216.319-.324.776-.324 1.372zm8.877 1.172c0 .527-.193.932-.577 1.213-.384.282-.934.423-1.65.423-.72 0-1.297-.11-1.733-.327v-.992c.634.293 1.225.44 1.772.44.706 0 1.06-.213 1.06-.64 0-.137-.04-.25-.118-.342a1.387 1.387 0 0 0-.385-.283 6.638 6.638 0 0 0-.747-.332c-.622-.24-1.043-.482-1.263-.723-.22-.24-.33-.553-.33-.937 0-.462.187-.821.56-1.077.373-.255.88-.383 1.52-.383.636 0 1.236.129 1.803.386l-.371.864c-.583-.24-1.073-.361-1.47-.361-.606 0-.908.172-.908.517 0 .17.079.313.236.43.158.117.503.278 1.033.483.446.173.77.33.972.474.202.143.351.308.449.496.098.187.147.41.147.67zm.42-3.862h1.25l1.098 3.061c.166.436.277.846.332 1.23h.04c.028-.178.082-.396.16-.651.078-.256.492-1.47 1.24-3.64h1.24l-2.309 6.118c-.42 1.123-1.12 1.684-2.1 1.684-.253 0-.5-.027-.742-.083v-.908c.173.04.37.059.591.059.554 0 .943-.32 1.167-.962l.2-.508-2.168-5.4zm9.809 3.862c0 .527-.192.932-.576 1.213-.384.282-.934.423-1.65.423-.72 0-1.298-.11-1.734-.327v-.992c.635.293 1.226.44 1.773.44.706 0 1.06-.213 1.06-.64 0-.137-.04-.25-.118-.342a1.387 1.387 0 0 0-.386-.283 6.638 6.638 0 0 0-.747-.332c-.622-.24-1.042-.482-1.262-.723-.22-.24-.33-.553-.33-.937 0-.462.187-.821.56-1.077.372-.255.88-.383 1.52-.383.635 0 1.236.129 1.802.386l-.371.864c-.583-.24-1.073-.361-1.47-.361-.605 0-.908.172-.908.517 0 .17.079.313.237.43.158.117.502.278 1.033.483.446.173.77.33.971.474.202.143.352.308.45.496.097.187.146.41.146.67zm3.252.708c.28 0 .56-.044.84-.132v.864c-.127.056-.29.102-.49.14a3.38 3.38 0 0 1-.623.056c-1.088 0-1.631-.573-1.631-1.72v-2.91h-.738v-.507l.791-.42.391-1.143h.708v1.202h1.538v.869h-1.538v2.89c0 .277.07.481.208.613.138.132.32.198.544.198zm4.277.928c-.84 0-1.496-.245-1.97-.735s-.71-1.165-.71-2.024c0-.882.22-1.576.659-2.08.44-.505 1.043-.757 1.811-.757.713 0 1.276.216 1.69.65.413.432.62 1.028.62 1.786v.62h-3.599c.017.525.158.928.425 1.21.267.28.643.421 1.128.421.319 0 .616-.03.891-.09s.57-.16.886-.3v.932c-.28.134-.563.228-.85.284a5.21 5.21 0 0 1-.98.083zm-.21-4.727c-.364 0-.656.116-.876.347-.22.23-.35.568-.393 1.01h2.451c-.007-.445-.114-.783-.322-1.013-.209-.23-.495-.344-.86-.344zm.005-1.43c-.224-.17-.508-.415-.852-.735a9.022 9.022 0 0 1-.75-.765v-.102h1.334c.123.228.292.49.505.786.213.296.391.527.535.693v.122h-.772zm8.16 6.059h-1.153v-3.33c0-.413-.078-.722-.234-.925-.157-.204-.4-.306-.733-.306-.442 0-.767.144-.974.433-.207.288-.31.767-.31 1.438V315h-1.147v-5.4h.898l.161.708h.059c.15-.258.367-.456.652-.596.284-.14.598-.21.94-.21.83 0 1.38.283 1.65.85h.078c.16-.267.384-.476.674-.625.29-.15.622-.225.996-.225.645 0 1.114.163 1.409.488.294.326.442.822.442 1.49V315h-1.148v-3.33c0-.413-.079-.722-.237-.925-.158-.204-.402-.306-.735-.306-.445 0-.772.14-.979.418-.206.278-.31.705-.31 1.282V315zm7.368.098c-.84 0-1.497-.245-1.97-.735-.474-.49-.711-1.165-.711-2.024 0-.882.22-1.576.66-2.08.439-.505 1.042-.757 1.81-.757.714 0 1.277.216 1.69.65.413.432.62 1.028.62 1.786v.62h-3.598c.016.525.157.928.424 1.21.267.28.643.421 1.128.421.32 0 .616-.03.891-.09s.57-.16.887-.3v.932c-.28.134-.564.228-.85.284a5.21 5.21 0 0 1-.981.083zm-.21-4.727c-.365 0-.657.116-.877.347-.22.23-.35.568-.393 1.01h2.451c-.006-.445-.114-.783-.322-1.013-.208-.23-.495-.344-.86-.344zM141.98 357h-4.038v-7.139h4.038v.987h-2.87v1.943h2.69v.977h-2.69v2.24h2.87V357zm-2.832-7.71v-.122c.186-.228.377-.482.574-.762.197-.28.353-.519.466-.718h1.333v.103c-.169.199-.422.455-.759.77-.337.313-.62.557-.852.729h-.762zm6.392 6.89c.482 0 .828-.14 1.038-.418.21-.278.315-.699.315-1.262v-.18c0-.668-.109-1.148-.325-1.441-.217-.293-.566-.44-1.047-.44-.41 0-.723.163-.938.489-.215.325-.322.792-.322 1.401 0 1.234.426 1.85 1.279 1.85zm-.327.918c-.667 0-1.19-.245-1.567-.735-.378-.49-.567-1.175-.567-2.053 0-.88.192-1.567.576-2.063.384-.497.913-.745 1.587-.745.339 0 .642.063.91.188.27.125.51.331.721.618h.04l.126-.708h.952v7.802h-1.152v-2.29c0-.143.006-.294.02-.454.012-.16.024-.281.034-.366h-.064c-.338.537-.877.806-1.616.806zm8.227-.098l-.16-.708h-.06c-.159.25-.386.448-.68.59-.295.144-.631.216-1.009.216-.654 0-1.142-.163-1.465-.489-.322-.325-.483-.818-.483-1.48v-3.53h1.157v3.33c0 .414.085.724.254.93.17.208.435.31.796.31.482 0 .836-.143 1.062-.431.226-.288.34-.77.34-1.448v-2.69h1.152v5.4h-.904zm3.687 0h-1.148v-5.4h1.148v5.4zm-1.216-6.831c0-.205.056-.363.169-.474.112-.11.272-.166.48-.166.202 0 .36.056.472.166.112.111.168.269.168.474 0 .195-.056.35-.168.461-.113.113-.27.169-.471.169-.209 0-.37-.056-.481-.169-.113-.112-.169-.266-.169-.461zm5.596 6.929c-.684 0-1.214-.246-1.592-.738h-.068c.045.456.068.733.068.83v2.212h-1.147V351.6h.927c.026.1.08.341.161.722h.059c.358-.547.895-.82 1.611-.82.674 0 1.2.244 1.575.732.376.489.564 1.174.564 2.056 0 .882-.191 1.57-.574 2.065-.382.495-.91.743-1.584.743zm-.278-4.659c-.456 0-.79.134-.999.4-.21.268-.315.694-.315 1.28v.171c0 .658.104 1.134.313 1.428.208.295.548.442 1.02.442.397 0 .703-.163.918-.488.215-.326.322-.79.322-1.392 0-.605-.106-1.063-.32-1.374-.213-.311-.526-.467-.94-.467zm6.127 4.659c-.84 0-1.496-.245-1.97-.735-.473-.49-.71-1.165-.71-2.024 0-.882.22-1.576.659-2.08.44-.505 1.043-.757 1.811-.757.713 0 1.277.216 1.69.65.413.432.62 1.028.62 1.786v.62h-3.599c.017.525.158.928.425 1.21.267.28.643.421 1.128.421.32 0 .616-.03.891-.09s.57-.16.886-.3v.932c-.28.134-.563.228-.85.284a5.21 5.21 0 0 1-.98.083zm-.21-4.727c-.364 0-.656.116-.876.347-.22.23-.35.568-.393 1.01h2.451c-.006-.445-.114-.783-.322-1.013-.208-.23-.495-.344-.86-.344zM54.52 286h-2.04v-26.16l-5.16 4.56v-2.44l5.16-4.44h2.04V286zm23.8-7.36c0 4.44-3.08 7.6-7.48 7.6s-7.48-3.16-7.48-7.6v-13.76c0-4.44 3.08-7.6 7.48-7.6s7.48 3.16 7.48 7.6v13.76zm-2.04-.2v-13.36c0-3.36-1.88-6-5.44-6-3.56 0-5.44 2.64-5.44 6v13.36c0 3.36 1.88 6 5.44 6 3.56 0 5.44-2.64 5.44-6zm18.52 4.96c0 1.72-1.24 2.74-2.8 2.74-1.56 0-2.8-1.02-2.8-2.74v-2.02c0-1.72 1.24-2.74 2.8-2.74 1.56 0 2.8 1.02 2.8 2.74v2.02zm-3.1-11.64L85 286h-1.64l6.72-14.24h1.62zm-5.82 4.62c0 1.72-1.24 2.72-2.8 2.72-1.56 0-2.8-1-2.8-2.72v-2.02c0-1.72 1.24-2.74 2.8-2.74 1.56 0 2.8 1.02 2.8 2.74v2.02zm7.38 6.96v-1.9c0-.9-.4-1.44-1.26-1.44s-1.26.52-1.26 1.44v1.9c0 .92.4 1.44 1.26 1.44s1.26-.54 1.26-1.44zm-8.92-7.02v-1.9c0-.9-.4-1.44-1.26-1.44s-1.26.52-1.26 1.44v1.9c0 .92.4 1.42 1.26 1.42s1.26-.52 1.26-1.42zM141.52 343h-2.04v-26.16l-5.16 4.56v-2.44l5.16-4.44h2.04V343zm23.8-7.36c0 4.44-3.08 7.6-7.48 7.6s-7.48-3.16-7.48-7.6v-13.76c0-4.44 3.08-7.6 7.48-7.6s7.48 3.16 7.48 7.6v13.76zm-2.04-.2v-13.36c0-3.36-1.88-6-5.44-6-3.56 0-5.44 2.64-5.44 6v13.36c0 3.36 1.88 6 5.44 6 3.56 0 5.44-2.64 5.44-6zm18.52 4.96c0 1.72-1.24 2.74-2.8 2.74-1.56 0-2.8-1.02-2.8-2.74v-2.02c0-1.72 1.24-2.74 2.8-2.74 1.56 0 2.8 1.02 2.8 2.74v2.02zm-3.1-11.64L172 343h-1.64l6.72-14.24h1.62zm-5.82 4.62c0 1.72-1.24 2.72-2.8 2.72-1.56 0-2.8-1-2.8-2.72v-2.02c0-1.72 1.24-2.74 2.8-2.74 1.56 0 2.8 1.02 2.8 2.74v2.02zm7.38 6.96v-1.9c0-.9-.4-1.44-1.26-1.44s-1.26.52-1.26 1.44v1.9c0 .92.4 1.44 1.26 1.44s1.26-.54 1.26-1.44zm-8.92-7.02v-1.9c0-.9-.4-1.44-1.26-1.44s-1.26.52-1.26 1.44v1.9c0 .92.4 1.42 1.26 1.42s1.26-.52 1.26-1.42z"/>
        </g>
    </g>
</svg>
