<svg xmlns="http://www.w3.org/2000/svg" width="385" height="394" viewBox="0 0 385 394">
    <defs>
        <linearGradient id="a" x1="86.052%" x2="74.281%" y1="24.321%" y2="79.657%">
            <stop offset="0%" stop-color="#D2F0E1"/>
            <stop offset="100%" stop-color="#B4D2F0"/>
        </linearGradient>
        <linearGradient id="b" x1="60.467%" x2="48.189%" y1="90.323%" y2="0%">
            <stop offset="0%" stop-color="#D2F0F0"/>
            <stop offset="100%" stop-color="#F0E6B4"/>
        </linearGradient>
    </defs>
    <g fill="none" fill-rule="evenodd">
        <g stroke="#FFF">
            <path stroke-width="4" d="M382.54 197.298c0 102.633-83.201 185.834-185.835 185.834-102.632 0-185.834-83.2-185.834-185.834S94.073 11.464 196.705 11.464c102.634 0 185.835 83.2 185.835 185.834"/>
            <path fill="url(#a)" d="M381.538 196.298c0 102.632-83.2 185.832-185.833 185.832-102.631 0-185.832-83.2-185.832-185.832 0-102.633 83.2-185.832 185.832-185.832 102.633 0 185.833 83.2 185.833 185.832" transform="translate(1 1)"/>
            <path fill="url(#b)" stroke-width="2" d="M334.659 57.913c-76.559-76.427-200.683-76.427-277.24 0-76.558 76.427-76.558 200.34 0 276.767 76.557 76.427 200.681 76.427 277.24 0l-138.62-138.383 138.62-138.384z" transform="translate(1 1)"/>
        </g>
        <g fill="#462405">
            <path d="M75.336 232.736l-1.924 1.274c-.754-1.196-2.444-2.99-3.9-4.29l1.794-1.144c1.482 1.222 3.198 2.964 4.03 4.16zm-16.458-4.316l2.288.754c-.728 1.716-1.638 3.432-2.626 5.044v17.784h-2.496V237.78c-.988 1.274-2.028 2.418-3.12 3.406-.234-.598-.962-1.872-1.378-2.418 2.886-2.444 5.668-6.344 7.332-10.348zm16.9 8.762l-7.696.988c.832 6.37 2.392 10.66 4.862 10.946.65.026 1.04-1.404 1.274-4.342.468.494 1.534 1.144 2.002 1.326-.598 4.706-1.794 5.98-3.172 5.902-4.342-.364-6.37-5.512-7.358-13.494l-5.694.728-.364-2.288 5.824-.728a154.931 154.931 0 0 1-.468-7.644h2.444c.078 2.6.208 5.07.416 7.306l7.618-.962.312 2.262zm21.528 12.35h-2.418l-.65-2.47 2.262.104c.546 0 .832-.286.832-.858v-7.644H91.3v14.066h-2.496v-14.066h-6.058v10.92h-2.444v-13.312h8.502v-3.51c-2.912.208-6.058.312-9.438.312l-.754-2.314c8.346 0 15.366-.676 21.086-1.976l1.248 2.158c-2.756.728-5.98 1.248-9.646 1.612v3.718h8.476v10.582c0 1.768-.832 2.678-2.47 2.678zm28.21-17.472l-1.95 1.274c-.676-.962-2.106-2.6-3.172-3.77l1.898-1.118c1.066 1.092 2.522 2.678 3.224 3.614zm-3.588 8.944h-7.384a15.458 15.458 0 0 0 3.77 4.628c1.482-1.274 2.73-2.808 3.614-4.628zm1.716-2.444l1.638.754c-1.04 3.276-2.782 5.824-4.94 7.774 2.158 1.326 4.758 2.288 7.774 2.834-.546.52-1.196 1.534-1.534 2.184-3.224-.676-5.928-1.846-8.19-3.458-2.314 1.586-4.966 2.678-7.8 3.432-.26-.624-.832-1.56-1.3-2.106 2.574-.598 5.044-1.56 7.124-2.938-1.326-1.248-2.444-2.704-3.38-4.342-1.794 2.964-4.186 5.408-7.436 7.332-.338-.52-1.196-1.456-1.794-1.924 4.654-2.652 7.488-6.708 9.178-11.908h-3.51c-1.508 0-2.47.182-2.704.494a26.361 26.361 0 0 0-.806-2.236c.364-.078.676-.468 1.014-1.04.286-.52 1.3-2.574 1.742-4.576l2.548.442c-.442 1.586-1.144 3.25-1.82 4.602h4.186c.442-1.82.78-3.77 1.04-5.798l2.678.416a52.543 52.543 0 0 1-.936 5.382h10.842l-.026 2.314h-11.414c-.26.832-.546 1.69-.858 2.47h8.216l.468-.104zm24.856 7.462h-12.636v2.99H148.5v-2.99zm-15.028 6.084v-8.034h17.55v8.034H148.5v-1.17h-12.636v1.17h-2.392zm2.418-13.156v1.638h6.084v-1.638h-6.084zm6.084-4.758v-1.508h-6.084v1.508h6.084zm0 3.12v-1.482h-6.084v1.482h6.084zm2.366 3.276h8.19v1.846h-16.64v.936h-2.366v-7.852a30.815 30.815 0 0 1-2.002 2.08c-.338-.468-1.196-1.404-1.664-1.846 2.236-1.846 4.368-4.732 5.668-7.644l2.236.728c-.286.676-.676 1.404-1.066 2.08h5.33c-.312-.702-.65-1.482-1.014-2.132l2.21-.65c.52.858 1.066 1.924 1.404 2.782h7.28v1.768h-7.566v1.508h6.292v1.638h-6.292v1.482h6.344v1.638h-6.344v1.638zM84.31 150.97L61.63 211h-4.68l22.68-60.03h-24.3v10.08h-4.59v-14.13h33.57v4.05zm43.54 39.06c0 6.12-.36 12.42-4.95 17.01-2.97 2.97-7.02 4.59-12.33 4.59-5.22 0-9.54-1.44-12.33-4.32-2.43-2.43-3.96-5.85-4.32-10.44h4.59c.9 6.84 4.59 10.71 12.06 10.71 3.51 0 6.75-1.17 8.82-3.24 3.78-3.78 3.87-9.54 3.87-14.31 0-8.01-1.44-17.1-11.97-17.1-5.85 0-10.26 2.43-11.61 6.75h-4.05v-32.76h30.78v4.05H99.68v22.68c2.79-3.24 6.93-4.77 12.15-4.77 4.59 0 8.28 1.35 10.8 3.87 4.5 4.5 5.22 11.25 5.22 17.28zm33.462 16.03c0 3.268-2.356 5.206-5.32 5.206-2.964 0-5.32-1.938-5.32-5.206v-3.838c0-3.268 2.356-5.206 5.32-5.206 2.964 0 5.32 1.938 5.32 5.206v3.838zm-5.89-22.116L142.692 211h-3.116l12.768-27.056h3.078zm-11.058 8.778c0 3.268-2.356 5.168-5.32 5.168-2.964 0-5.32-1.9-5.32-5.168v-3.838c0-3.268 2.356-5.206 5.32-5.206 2.964 0 5.32 1.938 5.32 5.206v3.838zm14.022 13.224v-3.61c0-1.71-.76-2.736-2.394-2.736-1.634 0-2.394.988-2.394 2.736v3.61c0 1.748.76 2.736 2.394 2.736 1.634 0 2.394-1.026 2.394-2.736zm-16.948-13.338v-3.61c0-1.71-.76-2.736-2.394-2.736-1.634 0-2.394.988-2.394 2.736v3.61c0 1.748.76 2.698 2.394 2.698 1.634 0 2.394-.988 2.394-2.698z"/>
        </g>
        <g fill="#462405">
            <path d="M271.45 235.202h7.524v1.71h-16.872v-1.71h7.524v-4.37h-5.415v-1.691h5.415v-3.8h-4.218c-.589 1.14-1.216 2.147-1.881 2.945-.361-.304-1.14-.817-1.615-1.064 1.539-1.615 2.736-4.218 3.439-6.878l1.824.418a33.536 33.536 0 0 1-.988 2.85h3.439v-3.534h1.824v3.534h6.612v1.729h-6.612v3.8h5.909v1.691h-5.909v4.37zm17.119-14.972l1.805.19c-.076.665-.19 1.273-.323 1.843h7.163v1.729h-5.795c.912 1.9 3.173 3.401 6.783 4.503l-.95 1.558c-4.18-1.52-6.726-3.534-7.657-6.061h-.076a10.164 10.164 0 0 1-1.634 2.755l-.057.057a37.25 37.25 0 0 1 2.622 2.128l-1.254 1.254a26.887 26.887 0 0 0-2.546-2.337c-1.292.912-3.04 1.672-5.282 2.261l-.703-1.672c2.66-.665 4.56-1.615 5.738-2.85a7.304 7.304 0 0 0 1.121-1.596h-5.909v-1.729h6.574c.171-.646.304-1.311.38-2.033zm-6.061 11.248l1.767.399c-.456 1.976-1.083 3.686-1.881 5.13l-1.558-.969a16.177 16.177 0 0 0 1.672-4.56zm7.619-.722c.665.95 1.235 1.995 1.729 3.116l-1.653.741c-.513-1.273-1.064-2.394-1.653-3.344l1.577-.513zm5.719.418a28.985 28.985 0 0 1 2.337 4.522l-1.653.741a28.68 28.68 0 0 0-2.413-4.712l1.729-.551zm-3.667 6.384h-4.864c-1.368 0-2.033-.722-2.033-2.166v-3.971h1.824v3.61c0 .513.247.779.779.779h3.952c.342 0 .57-.114.722-.342.19-.209.323-.893.399-2.071l1.71.551c-.152 1.748-.418 2.774-.836 3.116-.361.323-.912.494-1.653.494zm14.003-9.728l.304 1.577c-.779.285-1.558.551-2.337.798v5.206c0 .912-.209 1.368-.741 1.615-.551.285-1.406.323-2.698.323-.057-.437-.304-1.159-.532-1.596.836.019 1.653.019 1.881.019.266-.019.361-.095.361-.38v-4.579l-2.204.722-.532-1.691c.76-.228 1.71-.513 2.736-.817v-3.61h-2.565v-1.634h2.565v-3.724h1.729v3.724h2.147v1.634h-2.147v3.059c.665-.209 1.368-.418 2.033-.646zm8.531 6.935v-5.244h-5.035v5.244h5.035zm2.413-11.742h-5.643c-.437 1.615-1.007 3.268-1.729 4.826h6.688v9.576h-1.729v-.988h-5.035v1.064h-1.653v-6.631a12.888 12.888 0 0 1-1.805 2.109 8.695 8.695 0 0 0-1.159-1.349c2.28-2.09 3.762-5.51 4.56-8.607h-3.306v-1.691h10.811v1.691zm16.036-.57h-10.735v1.615h10.735v-1.615zm1.767 3.116h-12.502v.893c0 3.249-.285 7.961-2.242 11.058-.342-.285-1.121-.741-1.577-.912 1.881-2.926 2.052-7.125 2.052-10.146v-5.529h14.269v4.636zm-1.14 6.346h-3.8a7.01 7.01 0 0 0 1.292 1.691c.874-.494 1.862-1.159 2.508-1.691zm-6.574-3.173v1.691h3.382v-1.691h-3.382zm6.669 3.173l1.273.874a20.018 20.018 0 0 1-2.755 1.71c1.064.722 2.337 1.235 3.838 1.539-.38.342-.836.988-1.064 1.463-3.344-.836-5.586-2.736-6.878-5.586h-2.299v3.477l3.686-.779c-.076.456-.133 1.121-.114 1.482-4.484 1.026-5.092 1.197-5.472 1.444v.019c-.114-.437-.456-1.14-.703-1.463.38-.209.969-.703.969-1.577v-2.603h-1.881v-1.482h3.116v-1.691h-2.641v-1.501h2.641v-1.653h1.615v1.653h3.382v-1.653h1.653v1.653h2.983v1.501h-2.983v1.691h3.762v1.482h-2.128zM289.43 206h-26.39v-3.15l20.02-26.25c1.96-2.52 2.8-4.9 2.8-7.77 0-5.95-3.57-9.94-9.59-9.94-5.18 0-9.59 2.94-9.59 9.94h-3.57c0-7.42 4.9-13.09 13.16-13.09 7.98 0 13.16 5.18 13.16 13.09 0 3.71-.91 6.3-3.43 9.59l-18.69 24.43h22.12V206zm34.12-16.31c0 4.76-.28 9.66-3.85 13.23-2.31 2.31-5.46 3.57-9.59 3.57-4.06 0-7.42-1.12-9.59-3.36-1.89-1.89-3.08-4.55-3.36-8.12h3.57c.7 5.32 3.57 8.33 9.38 8.33 2.73 0 5.25-.91 6.86-2.52 2.94-2.94 3.01-7.42 3.01-11.13 0-6.23-1.12-13.3-9.31-13.3-4.55 0-7.98 1.89-9.03 5.25h-3.15v-25.48h23.94v3.15h-20.79v17.64c2.17-2.52 5.39-3.71 9.45-3.71 3.57 0 6.44 1.05 8.4 3.01 3.5 3.5 4.06 8.75 4.06 13.44zm25.93 12.41c0 2.58-1.86 4.11-4.2 4.11s-4.2-1.53-4.2-4.11v-3.03c0-2.58 1.86-4.11 4.2-4.11s4.2 1.53 4.2 4.11v3.03zm-4.65-17.46L334.78 206h-2.46l10.08-21.36h2.43zm-8.73 6.93c0 2.58-1.86 4.08-4.2 4.08s-4.2-1.5-4.2-4.08v-3.03c0-2.58 1.86-4.11 4.2-4.11s4.2 1.53 4.2 4.11v3.03zm11.07 10.44v-2.85c0-1.35-.6-2.16-1.89-2.16s-1.89.78-1.89 2.16v2.85c0 1.38.6 2.16 1.89 2.16s1.89-.81 1.89-2.16zm-13.38-10.53v-2.85c0-1.35-.6-2.16-1.89-2.16s-1.89.78-1.89 2.16v2.85c0 1.38.6 2.13 1.89 2.13s1.89-.78 1.89-2.13z"/>
        </g>
    </g>
</svg>
