<svg xmlns="http://www.w3.org/2000/svg" width="385" height="394" viewBox="0 0 385 394">
    <defs>
        <linearGradient id="a" x1="62.121%" x2="67.844%" y1="-102.184%" y2="147.419%">
            <stop offset="0%" stop-color="#A8FF97"/>
            <stop offset="39.772%" stop-color="#69ECF1"/>
            <stop offset="50.664%" stop-color="#77C9F5"/>
            <stop offset="81.298%" stop-color="#B792FF"/>
            <stop offset="100%" stop-color="#FE7BA0"/>
        </linearGradient>
        <linearGradient id="b" x1="73.956%" x2="76.399%" y1="15.957%" y2="104.994%">
            <stop offset="0%" stop-color="#F0E7D2"/>
            <stop offset="100%" stop-color="#F0B4E4"/>
        </linearGradient>
        <linearGradient id="c" x1="93.413%" x2="63.069%" y1="11.947%" y2="107.986%">
            <stop offset="0%" stop-color="#F4F8D6"/>
            <stop offset="100%" stop-color="#EDDD9D"/>
        </linearGradient>
        <linearGradient id="d" x1="89.873%" x2="32.666%" y1="8.544%" y2="103.707%">
            <stop offset="0%" stop-color="#D2F0E1"/>
            <stop offset="100%" stop-color="#B4D2F0"/>
        </linearGradient>
        <linearGradient id="e" x1="45.919%" x2="90.523%" y1="106.839%" y2="-2.405%">
            <stop offset="0%" stop-color="#D2F0F0"/>
            <stop offset="100%" stop-color="#F0E6B4"/>
        </linearGradient>
    </defs>
    <g fill="none" fill-rule="evenodd">
        <g stroke="#FFF">
            <path fill="url(#a)" stroke-width="4" d="M382 197c0 102.173-82.828 185-185 185S12 299.173 12 197C12 94.828 94.828 12 197 12s185 82.828 185 185" transform="translate(2 1)"/>
            <path fill="url(#b)" d="M382 197c0 102.173-82.828 185-185 185S12 299.173 12 197C12 94.828 94.828 12 197 12s185 82.828 185 185" transform="translate(2 1)"/>
            <path fill="url(#c)" stroke-width="2" d="M88 346.668C118.598 368.884 156.26 382 197 382V197L88 346.668z" transform="translate(2 1)"/>
            <path fill="url(#d)" stroke-width="2" d="M21 254.924C33.182 292.269 57.02 324.377 88.247 347l106.936-146.51a1 1 0 0 0-1.115-1.542L21 254.924z" transform="translate(2 1)"/>
            <path fill="url(#e)" stroke-width="2" d="M9.625 258.974l187.086-60.78a1 1 0 0 0 .69-.95V.598C88.38.598.002 88.964.002 197.97c0 21.293 3.385 41.792 9.624 61.004z" transform="translate(2 1)"/>
        </g>
        <g fill="#462405">
            <path d="M74.528 176.728l-1.702 1.127c-.667-1.058-2.162-2.645-3.45-3.795l1.587-1.012c1.311 1.081 2.829 2.622 3.565 3.68zm-14.559-3.818l2.024.667a34.267 34.267 0 0 1-2.323 4.462v15.732h-2.208V181.19a23.344 23.344 0 0 1-2.76 3.013c-.207-.529-.851-1.656-1.219-2.139 2.553-2.162 5.014-5.612 6.486-9.154zm14.95 7.751l-6.808.874c.736 5.635 2.116 9.43 4.301 9.683.575.023.92-1.242 1.127-3.841.414.437 1.357 1.012 1.771 1.173-.529 4.163-1.587 5.29-2.806 5.221-3.841-.322-5.635-4.876-6.509-11.937l-5.037.644-.322-2.024 5.152-.644a137.054 137.054 0 0 1-.414-6.762h2.162c.069 2.3.184 4.485.368 6.463l6.739-.851.276 2.001zm19.044 10.925h-2.139l-.575-2.185 2.001.092c.483 0 .736-.253.736-.759v-6.762H88.65v12.443h-2.208v-12.443h-5.359v9.66h-2.162v-11.776h7.521v-3.105c-2.576.184-5.359.276-8.349.276l-.667-2.047c7.383 0 13.593-.598 18.653-1.748l1.104 1.909c-2.438.644-5.29 1.104-8.533 1.426v3.289h7.498v9.361c0 1.564-.736 2.369-2.185 2.369zm24.955-15.456l-1.725 1.127c-.598-.851-1.863-2.3-2.806-3.335l1.679-.989c.943.966 2.231 2.369 2.852 3.197zm-3.174 7.912h-6.532a13.675 13.675 0 0 0 3.335 4.094c1.311-1.127 2.415-2.484 3.197-4.094zm1.518-2.162l1.449.667c-.92 2.898-2.461 5.152-4.37 6.877 1.909 1.173 4.209 2.024 6.877 2.507-.483.46-1.058 1.357-1.357 1.932-2.852-.598-5.244-1.633-7.245-3.059-2.047 1.403-4.393 2.369-6.9 3.036a8.321 8.321 0 0 0-1.15-1.863c2.277-.529 4.462-1.38 6.302-2.599-1.173-1.104-2.162-2.392-2.99-3.841-1.587 2.622-3.703 4.784-6.578 6.486-.299-.46-1.058-1.288-1.587-1.702 4.117-2.346 6.624-5.934 8.119-10.534h-3.105c-1.334 0-2.185.161-2.392.437a23.32 23.32 0 0 0-.713-1.978c.322-.069.598-.414.897-.92.253-.46 1.15-2.277 1.541-4.048l2.254.391c-.391 1.403-1.012 2.875-1.61 4.071h3.703c.391-1.61.69-3.335.92-5.129l2.369.368a46.48 46.48 0 0 1-.828 4.761h9.591l-.023 2.047h-10.097a30.47 30.47 0 0 1-.759 2.185h7.268l.414-.092zm21.988 6.601h-11.178v2.645h11.178v-2.645zm-13.294 5.382v-7.107h15.525v7.107h-2.231v-1.035h-11.178v1.035h-2.116zm2.139-11.638v1.449h5.382v-1.449h-5.382zm5.382-4.209v-1.334h-5.382v1.334h5.382zm0 2.76v-1.311h-5.382v1.311h5.382zm2.093 2.898h7.245v1.633h-14.72v.828h-2.093v-6.946a27.26 27.26 0 0 1-1.771 1.84c-.299-.414-1.058-1.242-1.472-1.633 1.978-1.633 3.864-4.186 5.014-6.762l1.978.644a17.416 17.416 0 0 1-.943 1.84h4.715c-.276-.621-.575-1.311-.897-1.886l1.955-.575c.46.759.943 1.702 1.242 2.461h6.44v1.564h-6.693v1.334h5.566v1.449h-5.566v1.311h5.612v1.449h-5.612v1.449zM87.654 142.42c0 10.414-7.216 16.154-16.564 16.154-9.102 0-16.072-4.674-16.646-14.76h4.182c.574 7.954 6.396 11.07 12.464 11.07 6.97 0 12.382-4.674 12.382-12.464 0-7.872-3.772-12.464-12.71-12.464h-.984v-3.69h.984c7.79 0 11.562-4.264 11.562-11.726 0-7.708-5.002-11.808-11.316-11.808-6.888 0-10.906 4.182-11.644 10.66h-4.182c.82-9.102 7.38-14.35 15.826-14.35 9.184 0 15.498 6.15 15.498 15.498 0 6.15-2.46 10.824-8.282 13.284 6.478 2.214 9.43 7.216 9.43 14.596zm39.902.492c0 9.102-6.314 15.58-15.334 15.58s-15.334-6.478-15.334-15.58v-28.208c0-9.102 6.314-15.58 15.334-15.58s15.334 6.478 15.334 15.58v28.208zm-4.182-.41v-27.388c0-6.888-3.854-12.3-11.152-12.3-7.298 0-11.152 5.412-11.152 12.3v27.388c0 6.888 3.854 12.3 11.152 12.3 7.298 0 11.152-5.412 11.152-12.3zm37.714 10.558c0 3.268-2.356 5.206-5.32 5.206-2.964 0-5.32-1.938-5.32-5.206v-3.838c0-3.268 2.356-5.206 5.32-5.206 2.964 0 5.32 1.938 5.32 5.206v3.838zm-5.89-22.116L142.468 158h-3.116l12.768-27.056h3.078zm-11.058 8.778c0 3.268-2.356 5.168-5.32 5.168-2.964 0-5.32-1.9-5.32-5.168v-3.838c0-3.268 2.356-5.206 5.32-5.206 2.964 0 5.32 1.938 5.32 5.206v3.838zm14.022 13.224v-3.61c0-1.71-.76-2.736-2.394-2.736-1.634 0-2.394.988-2.394 2.736v3.61c0 1.748.76 2.736 2.394 2.736 1.634 0 2.394-1.026 2.394-2.736zm-16.948-13.338v-3.61c0-1.71-.76-2.736-2.394-2.736-1.634 0-2.394.988-2.394 2.736v3.61c0 1.748.76 2.698 2.394 2.698 1.634 0 2.394-.988 2.394-2.698z"/>
        </g>
        <g fill="#462405">
            <path d="M243.545 235.363h-4.278v8.763c0 .552.299.851.92.851h4.002c.69 0 1.127-.184 1.288-.529.184-.368.322-1.15.414-2.323l2.047.69c-.184 2.001-.46 3.22-.874 3.634-.368.368-1.127.552-2.231.552h-5.589c-1.449 0-2.162-.69-2.162-2.07v-10.925l-1.104 1.104-1.288-1.771c2.185-2.001 4.186-4.37 6.003-7.084h1.61a87.198 87.198 0 0 1 5.75 6.624l-1.426 1.495c-1.978-2.622-3.611-4.646-4.945-6.049a41.923 41.923 0 0 1-4.048 5.106h8.05v6.348c-.023 1.265-.713 1.932-2.093 2.024-.897 0-1.748-.023-2.553-.069l-.529-2.047c.851.092 1.587.138 2.231.138.529 0 .805-.276.805-.782v-3.68zm5.543-7.199h2.139v14.191h-2.139v-14.191zm3.979 18.998h-3.473l-.506-2.093c1.127.092 2.208.138 3.22.138.552 0 .828-.345.828-1.012v-17.986h2.185v18.538c0 1.61-.759 2.415-2.254 2.415zm10.235-21.367l2.047.644a36.574 36.574 0 0 1-2.277 4.807v15.525h-2.162v-12.144a20.788 20.788 0 0 1-1.886 2.254c-.207-.529-.828-1.725-1.196-2.208 2.185-2.162 4.232-5.52 5.474-8.878zm15.801 5.727h-6.808v2.921h6.256v1.955h-6.256v3.059h6.578v2.001h-6.578v5.336h-2.185v-15.272h-1.288c-.966 1.794-2.024 3.404-3.128 4.623-.345-.368-1.173-1.127-1.656-1.449 2.024-2.116 3.864-5.428 4.968-8.74l2.047.552a47.002 47.002 0 0 1-1.196 2.967h9.246v2.047zm11.937 1.311h1.495c1.081-.805 2.07-1.679 3.013-2.576h-4.508v2.576zm5.704 7.751v-1.909h-8.671v1.909h8.671zm-8.671 3.703h8.671v-2.024h-8.671v2.024zm13.616-9.545h-8.441c-1.035.782-2.116 1.472-3.22 2.162h8.924v9.821h-2.208v-.621h-8.671v.713h-2.116v-7.728a64.17 64.17 0 0 1-3.91 1.656c-.253-.483-.92-1.334-1.311-1.771 3.174-1.058 6.233-2.484 8.993-4.232h-8.418v-1.909h7.613v-2.576h-5.612v-1.863h5.612v-2.691h2.116v2.691h5.359v1.012a25.192 25.192 0 0 0 2.507-2.967l1.84.966c-1.449 1.978-3.174 3.772-5.083 5.428h6.026v1.909zM263.982 189.894c0 5.576-.328 11.316-4.51 15.498-2.706 2.706-6.396 4.182-11.234 4.182-4.756 0-8.692-1.312-11.234-3.936-2.214-2.214-3.608-5.33-3.936-9.512h4.182c.82 6.232 4.182 9.758 10.988 9.758 3.198 0 6.15-1.066 8.036-2.952 3.444-3.444 3.526-8.692 3.526-13.038 0-7.298-1.312-15.58-10.906-15.58-5.33 0-9.348 2.214-10.578 6.15h-3.69v-29.848h28.044v3.69h-24.354v20.664c2.542-2.952 6.314-4.346 11.07-4.346 4.182 0 7.544 1.23 9.84 3.526 4.1 4.1 4.756 10.25 4.756 15.744zm39.574 4.018c0 9.102-6.314 15.58-15.334 15.58s-15.334-6.478-15.334-15.58v-28.208c0-9.102 6.314-15.58 15.334-15.58s15.334 6.478 15.334 15.58v28.208zm-4.182-.41v-27.388c0-6.888-3.854-12.3-11.152-12.3-7.298 0-11.152 5.412-11.152 12.3v27.388c0 6.888 3.854 12.3 11.152 12.3 7.298 0 11.152-5.412 11.152-12.3zm37.714 10.558c0 3.268-2.356 5.206-5.32 5.206-2.964 0-5.32-1.938-5.32-5.206v-3.838c0-3.268 2.356-5.206 5.32-5.206 2.964 0 5.32 1.938 5.32 5.206v3.838zm-5.89-22.116L318.468 209h-3.116l12.768-27.056h3.078zm-11.058 8.778c0 3.268-2.356 5.168-5.32 5.168-2.964 0-5.32-1.9-5.32-5.168v-3.838c0-3.268 2.356-5.206 5.32-5.206 2.964 0 5.32 1.938 5.32 5.206v3.838zm14.022 13.224v-3.61c0-1.71-.76-2.736-2.394-2.736-1.634 0-2.394.988-2.394 2.736v3.61c0 1.748.76 2.736 2.394 2.736 1.634 0 2.394-1.026 2.394-2.736zm-16.948-13.338v-3.61c0-1.71-.76-2.736-2.394-2.736-1.634 0-2.394.988-2.394 2.736v3.61c0 1.748.76 2.698 2.394 2.698 1.634 0 2.394-.988 2.394-2.698z"/>
        </g>
        <g fill="#462405">
            <path d="M64.7 303.412h5.544v1.26H57.812v-1.26h5.544v-3.22h-3.99v-1.246h3.99v-2.8h-3.108c-.434.84-.896 1.582-1.386 2.17a8.338 8.338 0 0 0-1.19-.784c1.134-1.19 2.016-3.108 2.534-5.068l1.344.308a24.71 24.71 0 0 1-.728 2.1h2.534v-2.604H64.7v2.604h4.872v1.274H64.7v2.8h4.354v1.246H64.7v3.22zm12.614-11.032l1.33.14c-.056.49-.14.938-.238 1.358h5.278v1.274h-4.27c.672 1.4 2.338 2.506 4.998 3.318l-.7 1.148c-3.08-1.12-4.956-2.604-5.642-4.466h-.056a7.49 7.49 0 0 1-1.204 2.03l-.042.042c.574.42 1.218.938 1.932 1.568l-.924.924a19.812 19.812 0 0 0-1.876-1.722c-.952.672-2.24 1.232-3.892 1.666l-.518-1.232c1.96-.49 3.36-1.19 4.228-2.1.322-.35.602-.742.826-1.176H72.19v-1.274h4.844c.126-.476.224-.966.28-1.498zm-4.466 8.288l1.302.294c-.336 1.456-.798 2.716-1.386 3.78l-1.148-.714a11.92 11.92 0 0 0 1.232-3.36zm5.614-.532c.49.7.91 1.47 1.274 2.296l-1.218.546c-.378-.938-.784-1.764-1.218-2.464l1.162-.378zm4.214.308a21.357 21.357 0 0 1 1.722 3.332l-1.218.546a21.133 21.133 0 0 0-1.778-3.472l1.274-.406zm-2.702 4.704H76.39c-1.008 0-1.498-.532-1.498-1.596v-2.926h1.344v2.66c0 .378.182.574.574.574h2.912c.252 0 .42-.084.532-.252.14-.154.238-.658.294-1.526l1.26.406c-.112 1.288-.308 2.044-.616 2.296-.266.238-.672.364-1.218.364zm10.318-7.168l.224 1.162c-.574.21-1.148.406-1.722.588v3.836c0 .672-.154 1.008-.546 1.19-.406.21-1.036.238-1.988.238-.042-.322-.224-.854-.392-1.176.616.014 1.218.014 1.386.014.196-.014.266-.07.266-.28v-3.374l-1.624.532-.392-1.246c.56-.168 1.26-.378 2.016-.602v-2.66h-1.89v-1.204h1.89v-2.744h1.274v2.744h1.582v1.204h-1.582v2.254c.49-.154 1.008-.308 1.498-.476zm6.286 5.11v-3.864h-3.71v3.864h3.71zm1.778-8.652h-4.158a22.488 22.488 0 0 1-1.274 3.556h4.928v7.056h-1.274v-.728h-3.71v.784H91.65v-4.886a9.496 9.496 0 0 1-1.33 1.554 6.407 6.407 0 0 0-.854-.994c1.68-1.54 2.772-4.06 3.36-6.342H90.39v-1.246h7.966v1.246zm11.816-.42h-7.91v1.19h7.91v-1.19zm1.302 2.296h-9.212v.658c0 2.394-.21 5.866-1.652 8.148a5.253 5.253 0 0 0-1.162-.672c1.386-2.156 1.512-5.25 1.512-7.476v-4.074h10.514v3.416zm-.84 4.676h-2.8c.252.462.574.882.952 1.246a14.134 14.134 0 0 0 1.848-1.246zm-4.844-2.338v1.246h2.492v-1.246h-2.492zm4.914 2.338l.938.644a14.75 14.75 0 0 1-2.03 1.26c.784.532 1.722.91 2.828 1.134-.28.252-.616.728-.784 1.078-2.464-.616-4.116-2.016-5.068-4.116h-1.694v2.562l2.716-.574a6.202 6.202 0 0 0-.084 1.092c-3.304.756-3.752.882-4.032 1.064v.014a3.845 3.845 0 0 0-.518-1.078c.28-.154.714-.518.714-1.162v-1.918h-1.386v-1.092h2.296v-1.246h-1.946v-1.106h1.946v-1.218h1.19v1.218h2.492v-1.218h1.218v1.218h2.198v1.106H109.5v1.246h2.772v1.092h-1.568zM62.52 285h-2.04v-26.16l-5.16 4.56v-2.44l5.16-4.44h2.04V285zm23.8-7.36c0 4.44-3.08 7.6-7.48 7.6s-7.48-3.16-7.48-7.6v-13.76c0-4.44 3.08-7.6 7.48-7.6s7.48 3.16 7.48 7.6v13.76zm-2.04-.2v-13.36c0-3.36-1.88-6-5.44-6-3.56 0-5.44 2.64-5.44 6v13.36c0 3.36 1.88 6 5.44 6 3.56 0 5.44-2.64 5.44-6zm18.52 4.96c0 1.72-1.24 2.74-2.8 2.74-1.56 0-2.8-1.02-2.8-2.74v-2.02c0-1.72 1.24-2.74 2.8-2.74 1.56 0 2.8 1.02 2.8 2.74v2.02zm-3.1-11.64L93 285h-1.64l6.72-14.24h1.62zm-5.82 4.62c0 1.72-1.24 2.72-2.8 2.72-1.56 0-2.8-1-2.8-2.72v-2.02c0-1.72 1.24-2.74 2.8-2.74 1.56 0 2.8 1.02 2.8 2.74v2.02zm7.38 6.96v-1.9c0-.9-.4-1.44-1.26-1.44s-1.26.52-1.26 1.44v1.9c0 .92.4 1.44 1.26 1.44s1.26-.54 1.26-1.44zm-8.92-7.02v-1.9c0-.9-.4-1.44-1.26-1.44s-1.26.52-1.26 1.44v1.9c0 .92.4 1.42 1.26 1.42s1.26-.52 1.26-1.42z"/>
        </g>
        <g fill="#462405">
            <path d="M145.766 345.202v1.148h-1.96v4.046c0 .616-.112.952-.532 1.134-.406.196-.994.224-1.862.224a5.32 5.32 0 0 0-.434-1.162c.602.028 1.162.028 1.33.014.182 0 .238-.056.238-.224v-2.646a15.798 15.798 0 0 1-3.696 2.926 5.516 5.516 0 0 0-.84-.896c1.414-.756 2.982-1.988 4.088-3.416h-3.808v-1.148h4.256v-1.666h1.26v1.666h1.96zm-8.26 7.182h8.932v-9.352h-8.932v9.352zm-1.33-10.542h11.648v12.264h-1.386v-.546h-8.932v.546h-1.33v-12.264zm13.874.154h4.48v1.05a64.55 64.55 0 0 1-1.456 3.808c.868 1.274 1.344 2.394 1.414 3.36 0 .644-.14 1.12-.42 1.4-.42.364-1.12.546-2.114.56l-.448-1.344c.294.042.532.07.714.07.392-.028.644-.084.77-.182.14-.098.21-.266.21-.504 0-.952-.49-2.002-1.442-3.164a32.086 32.086 0 0 0 1.484-3.794h-1.904v11.2h-1.288v-12.46zm7.28-.378h1.302c0 1.386-.056 2.66-.168 3.822.784 3.248 2.142 5.824 4.088 7.742l-.966 1.148c-1.54-1.68-2.73-3.71-3.556-6.09a.431.431 0 0 0-.042.182c-.518 2.408-1.764 4.382-3.738 5.95l-.868-1.05c1.68-1.386 2.772-3.08 3.304-5.096.42-1.708.63-3.906.644-6.608zM140.52 334h-2.04v-26.16l-5.16 4.56v-2.44l5.16-4.44h2.04V334zm23.8-7.36c0 4.44-3.08 7.6-7.48 7.6s-7.48-3.16-7.48-7.6v-13.76c0-4.44 3.08-7.6 7.48-7.6s7.48 3.16 7.48 7.6v13.76zm-2.04-.2v-13.36c0-3.36-1.88-6-5.44-6-3.56 0-5.44 2.64-5.44 6v13.36c0 3.36 1.88 6 5.44 6 3.56 0 5.44-2.64 5.44-6zm18.52 4.96c0 1.72-1.24 2.74-2.8 2.74-1.56 0-2.8-1.02-2.8-2.74v-2.02c0-1.72 1.24-2.74 2.8-2.74 1.56 0 2.8 1.02 2.8 2.74v2.02zm-3.1-11.64L171 334h-1.64l6.72-14.24h1.62zm-5.82 4.62c0 1.72-1.24 2.72-2.8 2.72-1.56 0-2.8-1-2.8-2.72v-2.02c0-1.72 1.24-2.74 2.8-2.74 1.56 0 2.8 1.02 2.8 2.74v2.02zm7.38 6.96v-1.9c0-.9-.4-1.44-1.26-1.44s-1.26.52-1.26 1.44v1.9c0 .92.4 1.44 1.26 1.44s1.26-.54 1.26-1.44zm-8.92-7.02v-1.9c0-.9-.4-1.44-1.26-1.44s-1.26.52-1.26 1.44v1.9c0 .92.4 1.42 1.26 1.42s1.26-.52 1.26-1.42z"/>
        </g>
    </g>
</svg>
