<svg xmlns="http://www.w3.org/2000/svg" width="385" height="394" viewBox="0 0 385 394">
    <defs>
        <linearGradient id="a" x1="62.121%" x2="67.844%" y1="-102.184%" y2="147.419%">
            <stop offset="0%" stop-color="#A8FF97"/>
            <stop offset="39.772%" stop-color="#69ECF1"/>
            <stop offset="50.664%" stop-color="#77C9F5"/>
            <stop offset="81.298%" stop-color="#B792FF"/>
            <stop offset="100%" stop-color="#FE7BA0"/>
        </linearGradient>
        <linearGradient id="b" x1="73.956%" x2="76.399%" y1="15.957%" y2="104.994%">
            <stop offset="0%" stop-color="#F0E7D2"/>
            <stop offset="100%" stop-color="#F0B4E4"/>
        </linearGradient>
        <linearGradient id="c" x1="93.413%" x2="63.069%" y1="11.947%" y2="107.986%">
            <stop offset="0%" stop-color="#F4F8D6"/>
            <stop offset="100%" stop-color="#EDDD9D"/>
        </linearGradient>
        <linearGradient id="d" x1="89.873%" x2="32.666%" y1="8.544%" y2="103.707%">
            <stop offset="0%" stop-color="#D2F0E1"/>
            <stop offset="100%" stop-color="#B4D2F0"/>
        </linearGradient>
        <linearGradient id="e" x1="45.919%" x2="90.523%" y1="106.839%" y2="-2.405%">
            <stop offset="0%" stop-color="#D2F0F0"/>
            <stop offset="100%" stop-color="#F0E6B4"/>
        </linearGradient>
    </defs>
    <g fill="none" fill-rule="evenodd">
        <g stroke="#FFF">
            <path fill="url(#a)" stroke-width="4" d="M382 197c0 102.173-82.828 185-185 185S12 299.173 12 197C12 94.828 94.828 12 197 12s185 82.828 185 185" transform="translate(2 1)"/>
            <path fill="url(#b)" d="M382 197c0 102.173-82.828 185-185 185S12 299.173 12 197C12 94.828 94.828 12 197 12s185 82.828 185 185" transform="translate(2 1)"/>
            <path fill="url(#c)" stroke-width="2" d="M88 346.668C118.598 368.884 156.26 382 197 382V197L88 346.668z" transform="translate(2 1)"/>
            <path fill="url(#d)" stroke-width="2" d="M21 254.924C33.182 292.269 57.02 324.377 88.247 347l106.936-146.51a1 1 0 0 0-1.115-1.542L21 254.924z" transform="translate(2 1)"/>
            <path fill="url(#e)" stroke-width="2" d="M9.625 258.974l187.086-60.78a1 1 0 0 0 .69-.95V.598C88.38.598.002 88.964.002 197.97c0 21.293 3.385 41.792 9.624 61.004z" transform="translate(2 1)"/>
        </g>
        <g fill="#462405">
            <path d="M74.528 176.728l-1.702 1.127c-.667-1.058-2.162-2.645-3.45-3.795l1.587-1.012c1.311 1.081 2.829 2.622 3.565 3.68zm-14.559-3.818l2.024.667a34.267 34.267 0 0 1-2.323 4.462v15.732h-2.208V181.19a23.344 23.344 0 0 1-2.76 3.013c-.207-.529-.851-1.656-1.219-2.139 2.553-2.162 5.014-5.612 6.486-9.154zm14.95 7.751l-6.808.874c.736 5.635 2.116 9.43 4.301 9.683.575.023.92-1.242 1.127-3.841.414.437 1.357 1.012 1.771 1.173-.529 4.163-1.587 5.29-2.806 5.221-3.841-.322-5.635-4.876-6.509-11.937l-5.037.644-.322-2.024 5.152-.644a137.054 137.054 0 0 1-.414-6.762h2.162c.069 2.3.184 4.485.368 6.463l6.739-.851.276 2.001zm20.884 4.945v4.968c0 .989-.253 1.541-1.035 1.817-.805.299-2.024.276-3.864.276-.115-.506-.437-1.265-.69-1.748 1.311.046 2.645.046 2.99.023.368-.023.483-.092.483-.391V187.4h-5.198v6.394h-2.116V187.4h-4.784v5.313h-2.07v-7.107h6.854v-1.357h2.116v1.357h7.314zm-15.226-7.13l1.15.253c-.184 1.357-.552 2.829-1.012 3.795-.184-.161-.713-.414-1.012-.529.483-.989.736-2.254.874-3.519zm3.45.276l.989-.276c.437 1.15.828 2.691.92 3.657l-1.035.322c-.092-.989-.437-2.53-.874-3.703zm2.231-5.635l1.748.644c-.667.966-1.357 2.001-1.909 2.645l-1.288-.552a17.394 17.394 0 0 0 1.449-2.737zm8.326 3.519h-3.381a10.941 10.941 0 0 0 1.748 2.898c.69-.828 1.265-1.771 1.633-2.898zm3.243 0h-1.265c-.506 1.679-1.288 3.059-2.323 4.209a10.06 10.06 0 0 0 3.887 2.162c-.414.368-.92 1.035-1.173 1.518a12.005 12.005 0 0 1-3.979-2.484c-1.104.897-2.415 1.61-3.91 2.162-.184-.391-.713-1.242-1.058-1.61 1.449-.46 2.691-1.081 3.726-1.909a13.724 13.724 0 0 1-1.656-2.76 14.46 14.46 0 0 1-1.173 1.196 8.293 8.293 0 0 0-1.104-1.15v5.911h-1.61v-6.141h-2.553v6.486h-1.403v-6.486h-2.576v6.716h-1.564v-8.05h1.449c-.276-.69-.851-1.771-1.426-2.576l1.495-.644c.621.759 1.265 1.794 1.518 2.507l-1.541.713h2.392v-3.68h1.886v3.68h3.933v1.196c1.38-1.196 2.438-2.967 2.99-4.899l1.794.391a22.793 22.793 0 0 1-.69 1.886h5.934v1.656zm18.538 10.994h-5.612c1.15.621 2.484 1.334 3.772 2.093a9.938 9.938 0 0 0 1.84-2.093zm1.311-1.564l1.196.437c-.621 1.702-1.564 3.059-2.76 4.14 1.127.667 2.162 1.311 2.898 1.817l-1.104 1.403c-.805-.598-1.955-1.334-3.243-2.116-1.495.966-3.243 1.633-5.175 2.093a6.032 6.032 0 0 0-.943-1.564 14.9 14.9 0 0 0 4.439-1.541 126.927 126.927 0 0 0-3.427-2.001l.966-1.104h-.805v-1.518h7.636l.322-.046zm1.311-10.925l1.564 1.081a31.617 31.617 0 0 1-3.013 2.369 16.422 16.422 0 0 0 3.634 1.449c-.414.391-.989 1.173-1.288 1.679a14.482 14.482 0 0 1-2.99-1.288v2.599c0 .529.069.69.391.69h1.426c.322 0 .874-.023 1.127-.092.023.437.069 1.058.138 1.495-.253.092-.759.115-1.219.115h-1.679c-1.61 0-1.932-.644-1.932-2.231v-1.817h-2.691v.092c0 1.541-.46 3.381-2.484 4.577-.253-.345-.874-.943-1.288-1.242v.368h-4.692c-.092.667-.184 1.357-.299 1.978h5.037s-.023.552-.069.828c-.276 3.151-.529 4.531-1.104 5.129-.437.437-.92.575-1.633.621-.621.069-1.794.046-3.036 0-.046-.552-.299-1.311-.644-1.817 1.219.115 2.415.138 2.875.138.391 0 .621-.023.828-.207.299-.276.529-1.15.713-3.082h-5.037c.299-1.403.644-3.519.828-5.221h4.324v-2.07h-3.565v-.322c-.782.391-1.587.736-2.369 1.012-.253-.46-.759-1.219-1.15-1.587a16.35 16.35 0 0 0 4.209-1.978c-.644-.575-1.587-1.242-2.369-1.725l1.219-1.15c.851.483 1.909 1.196 2.599 1.771a10.603 10.603 0 0 0 1.817-2.001h-4.968V173.6h6.095l.345-.069 1.357.644c-.989 2.254-2.622 4.048-4.554 5.428h3.243v4.853c1.702-.943 1.955-2.139 1.955-3.22v-1.725h4.784c-2.208-1.587-3.91-3.68-5.06-6.21l1.702-.506c.414.874.92 1.702 1.518 2.484.92-.713 1.978-1.679 2.599-2.415l1.541 1.104a28.861 28.861 0 0 1-3.082 2.461c.46.46.943.851 1.472 1.242a26.803 26.803 0 0 0 2.875-2.53zm20.263 13.34h-11.178v2.645h11.178v-2.645zm-13.294 5.382v-7.107h15.525v7.107h-2.231v-1.035h-11.178v1.035h-2.116zm2.139-11.638v1.449h5.382v-1.449h-5.382zm5.382-4.209v-1.334h-5.382v1.334h5.382zm0 2.76v-1.311h-5.382v1.311h5.382zm2.093 2.898h7.245v1.633h-14.72v.828h-2.093v-6.946a27.26 27.26 0 0 1-1.771 1.84c-.299-.414-1.058-1.242-1.472-1.633 1.978-1.633 3.864-4.186 5.014-6.762l1.978.644a17.416 17.416 0 0 1-.943 1.84h4.715c-.276-.621-.575-1.311-.897-1.886l1.955-.575c.46.759.943 1.702 1.242 2.461h6.44v1.564h-6.693v1.334h5.566v1.449h-5.566v1.311h5.612v1.449h-5.612v1.449zM87.654 142.42c0 10.414-7.216 16.154-16.564 16.154-9.102 0-16.072-4.674-16.646-14.76h4.182c.574 7.954 6.396 11.07 12.464 11.07 6.97 0 12.382-4.674 12.382-12.464 0-7.872-3.772-12.464-12.71-12.464h-.984v-3.69h.984c7.79 0 11.562-4.264 11.562-11.726 0-7.708-5.002-11.808-11.316-11.808-6.888 0-10.906 4.182-11.644 10.66h-4.182c.82-9.102 7.38-14.35 15.826-14.35 9.184 0 15.498 6.15 15.498 15.498 0 6.15-2.46 10.824-8.282 13.284 6.478 2.214 9.43 7.216 9.43 14.596zm39.902.492c0 9.102-6.314 15.58-15.334 15.58s-15.334-6.478-15.334-15.58v-28.208c0-9.102 6.314-15.58 15.334-15.58s15.334 6.478 15.334 15.58v28.208zm-4.182-.41v-27.388c0-6.888-3.854-12.3-11.152-12.3-7.298 0-11.152 5.412-11.152 12.3v27.388c0 6.888 3.854 12.3 11.152 12.3 7.298 0 11.152-5.412 11.152-12.3zm37.714 10.558c0 3.268-2.356 5.206-5.32 5.206-2.964 0-5.32-1.938-5.32-5.206v-3.838c0-3.268 2.356-5.206 5.32-5.206 2.964 0 5.32 1.938 5.32 5.206v3.838zm-5.89-22.116L142.468 158h-3.116l12.768-27.056h3.078zm-11.058 8.778c0 3.268-2.356 5.168-5.32 5.168-2.964 0-5.32-1.9-5.32-5.168v-3.838c0-3.268 2.356-5.206 5.32-5.206 2.964 0 5.32 1.938 5.32 5.206v3.838zm14.022 13.224v-3.61c0-1.71-.76-2.736-2.394-2.736-1.634 0-2.394.988-2.394 2.736v3.61c0 1.748.76 2.736 2.394 2.736 1.634 0 2.394-1.026 2.394-2.736zm-16.948-13.338v-3.61c0-1.71-.76-2.736-2.394-2.736-1.634 0-2.394.988-2.394 2.736v3.61c0 1.748.76 2.698 2.394 2.698 1.634 0 2.394-.988 2.394-2.698z"/>
        </g>
        <g fill="#462405">
            <path d="M244.557 234.351h-5.75v1.219h5.75v-1.219zm-5.842 3.841h5.842v-1.288h-5.773l-.069 1.288zm6.44 3.956h-4.945v2.07h4.945v-2.07zm1.334-2.415h-7.935l-.138.897h8.625v6.003h-1.886v-.782h-4.945v.828h-1.817v-5.773c-.322 1.771-.851 3.565-1.748 5.037-.391-.299-1.311-.713-1.84-.897 1.794-2.829 2.001-6.739 2.001-9.338v-2.898h9.683v6.923zm-5.06-13.938l1.955.736c-.115.207-.253.391-.391.598 1.748 1.035 3.772 2.277 4.853 3.105l-1.104 1.794c-1.104-.897-3.174-2.254-4.945-3.381a20.942 20.942 0 0 1-1.932 1.84h4.393v1.334h-4.761v-1.012a23.828 23.828 0 0 1-3.519 2.323c-.207-.483-.782-1.541-1.15-2.001 2.576-1.196 5.175-3.105 6.601-5.336zm9.338 2.369v12.65h-2.001v-12.65h2.001zm2.208-2.369h2.07v18.331c0 1.242-.276 1.863-1.012 2.185-.713.368-1.909.437-3.772.437a8.893 8.893 0 0 0-.69-2.139c1.311.046 2.507.046 2.875.023.391 0 .529-.115.529-.529v-18.308zm10.327 0l2.047.644a36.574 36.574 0 0 1-2.277 4.807v15.525h-2.162v-12.144a20.788 20.788 0 0 1-1.886 2.254c-.207-.529-.828-1.725-1.196-2.208 2.185-2.162 4.232-5.52 5.474-8.878zm15.801 5.727h-6.808v2.921h6.256v1.955h-6.256v3.059h6.578v2.001h-6.578v5.336h-2.185v-15.272h-1.288c-.966 1.794-2.024 3.404-3.128 4.623-.345-.368-1.173-1.127-1.656-1.449 2.024-2.116 3.864-5.428 4.968-8.74l2.047.552a47.002 47.002 0 0 1-1.196 2.967h9.246v2.047zm11.937 1.311h1.495c1.081-.805 2.07-1.679 3.013-2.576h-4.508v2.576zm5.704 7.751v-1.909h-8.671v1.909h8.671zm-8.671 3.703h8.671v-2.024h-8.671v2.024zm13.616-9.545h-8.441c-1.035.782-2.116 1.472-3.22 2.162h8.924v9.821h-2.208v-.621h-8.671v.713h-2.116v-7.728a64.17 64.17 0 0 1-3.91 1.656c-.253-.483-.92-1.334-1.311-1.771 3.174-1.058 6.233-2.484 8.993-4.232h-8.418v-1.909h7.613v-2.576h-5.612v-1.863h5.612v-2.691h2.116v2.691h5.359v1.012a25.192 25.192 0 0 0 2.507-2.967l1.84.966c-1.449 1.978-3.174 3.772-5.083 5.428h6.026v1.909zM263.982 189.894c0 5.576-.328 11.316-4.51 15.498-2.706 2.706-6.396 4.182-11.234 4.182-4.756 0-8.692-1.312-11.234-3.936-2.214-2.214-3.608-5.33-3.936-9.512h4.182c.82 6.232 4.182 9.758 10.988 9.758 3.198 0 6.15-1.066 8.036-2.952 3.444-3.444 3.526-8.692 3.526-13.038 0-7.298-1.312-15.58-10.906-15.58-5.33 0-9.348 2.214-10.578 6.15h-3.69v-29.848h28.044v3.69h-24.354v20.664c2.542-2.952 6.314-4.346 11.07-4.346 4.182 0 7.544 1.23 9.84 3.526 4.1 4.1 4.756 10.25 4.756 15.744zm39.574 4.018c0 9.102-6.314 15.58-15.334 15.58s-15.334-6.478-15.334-15.58v-28.208c0-9.102 6.314-15.58 15.334-15.58s15.334 6.478 15.334 15.58v28.208zm-4.182-.41v-27.388c0-6.888-3.854-12.3-11.152-12.3-7.298 0-11.152 5.412-11.152 12.3v27.388c0 6.888 3.854 12.3 11.152 12.3 7.298 0 11.152-5.412 11.152-12.3zm37.714 10.558c0 3.268-2.356 5.206-5.32 5.206-2.964 0-5.32-1.938-5.32-5.206v-3.838c0-3.268 2.356-5.206 5.32-5.206 2.964 0 5.32 1.938 5.32 5.206v3.838zm-5.89-22.116L318.468 209h-3.116l12.768-27.056h3.078zm-11.058 8.778c0 3.268-2.356 5.168-5.32 5.168-2.964 0-5.32-1.9-5.32-5.168v-3.838c0-3.268 2.356-5.206 5.32-5.206 2.964 0 5.32 1.938 5.32 5.206v3.838zm14.022 13.224v-3.61c0-1.71-.76-2.736-2.394-2.736-1.634 0-2.394.988-2.394 2.736v3.61c0 1.748.76 2.736 2.394 2.736 1.634 0 2.394-1.026 2.394-2.736zm-16.948-13.338v-3.61c0-1.71-.76-2.736-2.394-2.736-1.634 0-2.394.988-2.394 2.736v3.61c0 1.748.76 2.698 2.394 2.698 1.634 0 2.394-.988 2.394-2.698z"/>
        </g>
        <g fill="#462405">
            <path d="M64.7 303.412h5.544v1.26H57.812v-1.26h5.544v-3.22h-3.99v-1.246h3.99v-2.8h-3.108c-.434.84-.896 1.582-1.386 2.17a8.338 8.338 0 0 0-1.19-.784c1.134-1.19 2.016-3.108 2.534-5.068l1.344.308a24.71 24.71 0 0 1-.728 2.1h2.534v-2.604H64.7v2.604h4.872v1.274H64.7v2.8h4.354v1.246H64.7v3.22zm17.948-6.958h-2.254c-1.274 0-1.596-.434-1.596-1.596v-2.506h1.204v.952h3.346v.994h-3.346v.574c0 .406.07.546.448.546h2.142c.336 0 .882-.028 1.148-.098.028.336.07.77.112 1.05-.224.07-.756.084-1.204.084zm-.014 4.732h-2.1c-1.4 0-1.736-.308-1.736-1.442v-2.87h1.204v1.008h3.36v1.008h-3.36v.84c0 .364.098.406.658.406h1.848c.406 0 .504-.112.56-.84.252.168.728.35 1.064.42-.14 1.176-.476 1.47-1.498 1.47zm-8.904-3.528l.49-.602c.672.238 1.568.588 2.072.84l-.504.7c-.462-.252-1.372-.658-2.058-.938zm-.056-.882v1.246c0 .378-.014.798-.07 1.218.728-.168 1.708-.448 2.758-.728v-1.736h-2.688zm3.808-.938v4.396c0 .518-.098.742-.462.91-.35.154-.896.154-1.666.154-.056-.28-.224-.63-.336-.882.504.014.994.014 1.134 0 .154 0 .21-.042.21-.182v-.952c-.868.308-1.708.644-2.464.91l-.322-.756c-.126.728-.35 1.47-.84 2.044-.196-.21-.672-.588-.924-.7.7-.812.77-1.89.77-2.786v-2.156h4.9zm1.96 6.776l-.938.644a22.91 22.91 0 0 0-1.372-1.708l.896-.574c.476.518 1.092 1.218 1.414 1.638zm-1.078-7.462l-.938.518c-.112-.182-.252-.42-.42-.686-4.018.364-4.536.434-4.858.56-.07-.224-.238-.756-.378-1.064.224-.028.462-.182.742-.392.28-.21 1.176-1.022 1.778-1.876l1.176.378a12.688 12.688 0 0 1-1.75 1.722l2.646-.196c-.224-.266-.448-.546-.672-.784l.896-.476c.63.7 1.414 1.68 1.778 2.296zm-5.474 9.562l-1.134-.574c.476-.644.882-1.68 1.092-2.492l1.12.42c-.266.868-.616 1.946-1.078 2.646zm4.116-.882h2.604c.644 0 .756-.182.826-1.428.28.196.784.364 1.106.434-.14 1.652-.504 2.044-1.82 2.044h-2.814c-1.666 0-2.1-.308-2.1-1.442v-1.596h1.26v1.582c0 .35.14.406.938.406zm4.83-1.904l1.12-.322c.392.784.896 1.862 1.092 2.492l-1.19.406c-.196-.658-.644-1.75-1.022-2.576zm8.456-3.948l.224 1.162c-.574.21-1.148.406-1.722.588v3.836c0 .672-.154 1.008-.546 1.19-.406.21-1.036.238-1.988.238-.042-.322-.224-.854-.392-1.176.616.014 1.218.014 1.386.014.196-.014.266-.07.266-.28v-3.374l-1.624.532-.392-1.246c.56-.168 1.26-.378 2.016-.602v-2.66h-1.89v-1.204h1.89v-2.744h1.274v2.744h1.582v1.204h-1.582v2.254c.49-.154 1.008-.308 1.498-.476zm6.286 5.11v-3.864h-3.71v3.864h3.71zm1.778-8.652h-4.158a22.488 22.488 0 0 1-1.274 3.556h4.928v7.056h-1.274v-.728h-3.71v.784H91.65v-4.886a9.496 9.496 0 0 1-1.33 1.554 6.407 6.407 0 0 0-.854-.994c1.68-1.54 2.772-4.06 3.36-6.342H90.39v-1.246h7.966v1.246zm11.816-.42h-7.91v1.19h7.91v-1.19zm1.302 2.296h-9.212v.658c0 2.394-.21 5.866-1.652 8.148a5.253 5.253 0 0 0-1.162-.672c1.386-2.156 1.512-5.25 1.512-7.476v-4.074h10.514v3.416zm-.84 4.676h-2.8c.252.462.574.882.952 1.246a14.134 14.134 0 0 0 1.848-1.246zm-4.844-2.338v1.246h2.492v-1.246h-2.492zm4.914 2.338l.938.644a14.75 14.75 0 0 1-2.03 1.26c.784.532 1.722.91 2.828 1.134-.28.252-.616.728-.784 1.078-2.464-.616-4.116-2.016-5.068-4.116h-1.694v2.562l2.716-.574a6.202 6.202 0 0 0-.084 1.092c-3.304.756-3.752.882-4.032 1.064v.014a3.845 3.845 0 0 0-.518-1.078c.28-.154.714-.518.714-1.162v-1.918h-1.386v-1.092h2.296v-1.246h-1.946v-1.106h1.946v-1.218h1.19v1.218h2.492v-1.218h1.218v1.218h2.198v1.106H109.5v1.246h2.772v1.092h-1.568zM62.52 285h-2.04v-26.16l-5.16 4.56v-2.44l5.16-4.44h2.04V285zm23.8-7.36c0 4.44-3.08 7.6-7.48 7.6s-7.48-3.16-7.48-7.6v-13.76c0-4.44 3.08-7.6 7.48-7.6s7.48 3.16 7.48 7.6v13.76zm-2.04-.2v-13.36c0-3.36-1.88-6-5.44-6-3.56 0-5.44 2.64-5.44 6v13.36c0 3.36 1.88 6 5.44 6 3.56 0 5.44-2.64 5.44-6zm18.52 4.96c0 1.72-1.24 2.74-2.8 2.74-1.56 0-2.8-1.02-2.8-2.74v-2.02c0-1.72 1.24-2.74 2.8-2.74 1.56 0 2.8 1.02 2.8 2.74v2.02zm-3.1-11.64L93 285h-1.64l6.72-14.24h1.62zm-5.82 4.62c0 1.72-1.24 2.72-2.8 2.72-1.56 0-2.8-1-2.8-2.72v-2.02c0-1.72 1.24-2.74 2.8-2.74 1.56 0 2.8 1.02 2.8 2.74v2.02zm7.38 6.96v-1.9c0-.9-.4-1.44-1.26-1.44s-1.26.52-1.26 1.44v1.9c0 .92.4 1.44 1.26 1.44s1.26-.54 1.26-1.44zm-8.92-7.02v-1.9c0-.9-.4-1.44-1.26-1.44s-1.26.52-1.26 1.44v1.9c0 .92.4 1.42 1.26 1.42s1.26-.52 1.26-1.42z"/>
        </g>
        <g fill="#462405">
            <path d="M141.258 351.474l-.868.476c-.224-.378-.686-.924-1.106-1.302l.826-.42c.42.364.924.882 1.148 1.246zm1.218-3.192l1.47-.028-.252-.21.518-.336h-1.736v.574zm-2.926-1.176h1.848v-.532h-1.848v.532zm0-1.624V346h1.848v-.518h-1.848zm4.858 0h-1.932V346h1.932v-.518zm-1.932 1.624h1.932v-.532h-1.932v.532zm2.982.602h-.924c.504.378 1.05.896 1.344 1.232l-.7.532c-.14-.182-.336-.378-.546-.588-2.38.07-4.774.14-6.496.182l-.056-.756c.924 0 2.072-.014 3.318-.028v-.574h-2.87v-2.814h2.87v-.504h-3.346v-.77h3.346v-.574h1.078v.574h3.416v.77h-3.416v.504h2.982v2.814zm.63 1.764v.756h-1.904v1.12c0 .462-.112.616-.448.714-.35.112-.868.112-1.68.112-.042-.238-.168-.49-.28-.7.476.014.98.014 1.12.014.154-.014.196-.056.196-.182v-1.078h-5.194v-.756h5.194v-.462h1.092v.462h1.904zm-8.596 2.912h8.988v-9.562h-8.988v9.562zm-1.19-10.57h11.424v12.25h-1.246v-.658h-8.988v.714h-1.19v-12.306zm17.122 0l.854.49c-.392 1.162-.882 2.618-1.316 3.71.938 1.12 1.148 2.072 1.148 2.912 0 .798-.168 1.386-.574 1.68-.21.126-.462.224-.756.266a6.599 6.599 0 0 1-.924.014c-.014-.308-.112-.812-.294-1.12.28.028.518.028.714.014a.71.71 0 0 0 .42-.126c.196-.14.266-.462.266-.882 0-.7-.238-1.596-1.148-2.618.364-.952.728-2.184.98-3.122h-1.498v11.088h-1.148v-12.264h3.094l.182-.042zm7.882 3.416l.826.868c-.532.392-1.162.812-1.764 1.176.476 1.512 1.4 3.164 2.282 4.046a4.505 4.505 0 0 0-.84.868c-.896-1.008-1.806-2.744-2.352-4.368l-.168.084c.7 2.268.392 4.662-.42 5.404-.42.462-.84.602-1.484.616-.266 0-.728-.014-1.106-.028-.028-.336-.126-.826-.322-1.162.462.042.91.056 1.19.056.336 0 .574-.056.784-.35.336-.322.56-1.26.518-2.394-1.064.882-2.534 1.736-3.78 2.24-.182-.308-.476-.714-.77-.938 1.554-.49 3.416-1.54 4.41-2.562a7.849 7.849 0 0 0-.266-.938 18.09 18.09 0 0 1-2.926 1.876 6.043 6.043 0 0 0-.7-.938c1.036-.392 2.464-1.176 3.248-1.862a8.39 8.39 0 0 0-.602-.952 14.118 14.118 0 0 1-2.45 1.484c-.154-.238-.518-.714-.77-.938 1.12-.434 2.282-1.092 3.15-1.862h-2.828v-1.134h2.506c-.336-.49-.938-1.134-1.484-1.582l.966-.616c.644.504 1.344 1.204 1.666 1.722l-.7.476 1.428.014c.504-.616 1.078-1.568 1.4-2.254l1.246.378a18.287 18.287 0 0 1-1.288 1.876h2.394v1.12h-3.794c-.182.224-.406.42-.63.63.448.504.784 1.078 1.05 1.666.84-.504 1.764-1.19 2.38-1.722zM140.52 334h-2.04v-26.16l-5.16 4.56v-2.44l5.16-4.44h2.04V334zm23.8-7.36c0 4.44-3.08 7.6-7.48 7.6s-7.48-3.16-7.48-7.6v-13.76c0-4.44 3.08-7.6 7.48-7.6s7.48 3.16 7.48 7.6v13.76zm-2.04-.2v-13.36c0-3.36-1.88-6-5.44-6-3.56 0-5.44 2.64-5.44 6v13.36c0 3.36 1.88 6 5.44 6 3.56 0 5.44-2.64 5.44-6zm18.52 4.96c0 1.72-1.24 2.74-2.8 2.74-1.56 0-2.8-1.02-2.8-2.74v-2.02c0-1.72 1.24-2.74 2.8-2.74 1.56 0 2.8 1.02 2.8 2.74v2.02zm-3.1-11.64L171 334h-1.64l6.72-14.24h1.62zm-5.82 4.62c0 1.72-1.24 2.72-2.8 2.72-1.56 0-2.8-1-2.8-2.72v-2.02c0-1.72 1.24-2.74 2.8-2.74 1.56 0 2.8 1.02 2.8 2.74v2.02zm7.38 6.96v-1.9c0-.9-.4-1.44-1.26-1.44s-1.26.52-1.26 1.44v1.9c0 .92.4 1.44 1.26 1.44s1.26-.54 1.26-1.44zm-8.92-7.02v-1.9c0-.9-.4-1.44-1.26-1.44s-1.26.52-1.26 1.44v1.9c0 .92.4 1.42 1.26 1.42s1.26-.52 1.26-1.42z"/>
        </g>
    </g>
</svg>
