<svg xmlns="http://www.w3.org/2000/svg" width="385" height="394" viewBox="0 0 385 394">
    <defs>
        <linearGradient id="a" x1="86.052%" x2="74.281%" y1="24.321%" y2="79.657%">
            <stop offset="0%" stop-color="#D2F0E1"/>
            <stop offset="100%" stop-color="#B4D2F0"/>
        </linearGradient>
        <linearGradient id="b" x1="60.467%" x2="48.189%" y1="90.323%" y2="0%">
            <stop offset="0%" stop-color="#D2F0F0"/>
            <stop offset="100%" stop-color="#F0E6B4"/>
        </linearGradient>
    </defs>
    <g fill="none" fill-rule="evenodd">
        <g stroke="#FFF">
            <path stroke-width="4" d="M382.54 197.298c0 102.633-83.201 185.834-185.835 185.834-102.632 0-185.834-83.2-185.834-185.834S94.073 11.464 196.705 11.464c102.634 0 185.835 83.2 185.835 185.834"/>
            <path fill="url(#a)" d="M381.538 196.298c0 102.632-83.2 185.832-185.833 185.832-102.631 0-185.832-83.2-185.832-185.832 0-102.633 83.2-185.832 185.832-185.832 102.633 0 185.833 83.2 185.833 185.832" transform="translate(1 1)"/>
            <path fill="url(#b)" stroke-width="2" d="M334.659 57.913c-76.559-76.427-200.683-76.427-277.24 0-76.558 76.427-76.558 200.34 0 276.767 76.557 76.427 200.681 76.427 277.24 0l-138.62-138.383 138.62-138.384z" transform="translate(1 1)"/>
        </g>
        <g fill="#462405">
            <path d="M75.336 232.736l-1.924 1.274c-.754-1.196-2.444-2.99-3.9-4.29l1.794-1.144c1.482 1.222 3.198 2.964 4.03 4.16zm-16.458-4.316l2.288.754c-.728 1.716-1.638 3.432-2.626 5.044v17.784h-2.496V237.78c-.988 1.274-2.028 2.418-3.12 3.406-.234-.598-.962-1.872-1.378-2.418 2.886-2.444 5.668-6.344 7.332-10.348zm16.9 8.762l-7.696.988c.832 6.37 2.392 10.66 4.862 10.946.65.026 1.04-1.404 1.274-4.342.468.494 1.534 1.144 2.002 1.326-.598 4.706-1.794 5.98-3.172 5.902-4.342-.364-6.37-5.512-7.358-13.494l-5.694.728-.364-2.288 5.824-.728a154.931 154.931 0 0 1-.468-7.644h2.444c.078 2.6.208 5.07.416 7.306l7.618-.962.312 2.262zm23.608 5.59v5.616c0 1.118-.286 1.742-1.17 2.054-.91.338-2.288.312-4.368.312-.13-.572-.494-1.43-.78-1.976 1.482.052 2.99.052 3.38.026.416-.026.546-.104.546-.442V244.8h-5.876v7.228h-2.392V244.8h-5.408v6.006h-2.34v-8.034h7.748v-1.534h2.392v1.534h8.268zm-17.212-8.06l1.3.286c-.208 1.534-.624 3.198-1.144 4.29-.208-.182-.806-.468-1.144-.598.546-1.118.832-2.548.988-3.978zm3.9.312l1.118-.312c.494 1.3.936 3.042 1.04 4.134l-1.17.364c-.104-1.118-.494-2.86-.988-4.186zm2.522-6.37l1.976.728c-.754 1.092-1.534 2.262-2.158 2.99l-1.456-.624c.572-.858 1.274-2.184 1.638-3.094zm9.412 3.978h-3.822a12.368 12.368 0 0 0 1.976 3.276c.78-.936 1.43-2.002 1.846-3.276zm3.666 0h-1.43c-.572 1.898-1.456 3.458-2.626 4.758a11.372 11.372 0 0 0 4.394 2.444c-.468.416-1.04 1.17-1.326 1.716a13.571 13.571 0 0 1-4.498-2.808c-1.248 1.014-2.73 1.82-4.42 2.444-.208-.442-.806-1.404-1.196-1.82 1.638-.52 3.042-1.222 4.212-2.158a15.514 15.514 0 0 1-1.872-3.12c-.442.494-.858.936-1.326 1.352a9.375 9.375 0 0 0-1.248-1.3v6.682h-1.82v-6.942h-2.886v7.332h-1.586v-7.332h-2.912v7.592h-1.768v-9.1h1.638c-.312-.78-.962-2.002-1.612-2.912l1.69-.728c.702.858 1.43 2.028 1.716 2.834l-1.742.806h2.704v-4.16h2.132v4.16h4.446v1.352c1.56-1.352 2.756-3.354 3.38-5.538l2.028.442a25.766 25.766 0 0 1-.78 2.132h6.708v1.872zm20.956 12.428h-6.344c1.3.702 2.808 1.508 4.264 2.366a11.235 11.235 0 0 0 2.08-2.366zm1.482-1.768l1.352.494c-.702 1.924-1.768 3.458-3.12 4.68 1.274.754 2.444 1.482 3.276 2.054l-1.248 1.586c-.91-.676-2.21-1.508-3.666-2.392-1.69 1.092-3.666 1.846-5.85 2.366-.208-.546-.676-1.326-1.066-1.768 1.846-.338 3.536-.936 5.018-1.742a143.483 143.483 0 0 0-3.874-2.262l1.092-1.248h-.91v-1.716h8.632l.364-.052zm1.482-12.35l1.768 1.222a35.741 35.741 0 0 1-3.406 2.678 18.564 18.564 0 0 0 4.108 1.638c-.468.442-1.118 1.326-1.456 1.898a16.371 16.371 0 0 1-3.38-1.456v2.938c0 .598.078.78.442.78h1.612c.364 0 .988-.026 1.274-.104.026.494.078 1.196.156 1.69-.286.104-.858.13-1.378.13h-1.898c-1.82 0-2.184-.728-2.184-2.522v-2.054h-3.042v.104c0 1.742-.52 3.822-2.808 5.174-.286-.39-.988-1.066-1.456-1.404v.416h-5.304c-.104.754-.208 1.534-.338 2.236h5.694s-.026.624-.078.936c-.312 3.562-.598 5.122-1.248 5.798-.494.494-1.04.65-1.846.702-.702.078-2.028.052-3.432 0-.052-.624-.338-1.482-.728-2.054 1.378.13 2.73.156 3.25.156.442 0 .702-.026.936-.234.338-.312.598-1.3.806-3.484h-5.694c.338-1.586.728-3.978.936-5.902h4.888v-2.34h-4.03v-.364c-.884.442-1.794.832-2.678 1.144-.286-.52-.858-1.378-1.3-1.794a18.483 18.483 0 0 0 4.758-2.236c-.728-.65-1.794-1.404-2.678-1.95l1.378-1.3c.962.546 2.158 1.352 2.938 2.002a11.986 11.986 0 0 0 2.054-2.262h-5.616V229.2h6.89l.39-.078 1.534.728c-1.118 2.548-2.964 4.576-5.148 6.136h3.666v5.486c1.924-1.066 2.21-2.418 2.21-3.64v-1.95h5.408c-2.496-1.794-4.42-4.16-5.72-7.02l1.924-.572c.468.988 1.04 1.924 1.716 2.808 1.04-.806 2.236-1.898 2.938-2.73l1.742 1.248a32.626 32.626 0 0 1-3.484 2.782c.52.52 1.066.962 1.664 1.404a30.299 30.299 0 0 0 3.25-2.86zm22.906 15.08h-12.636v2.99H148.5v-2.99zm-15.028 6.084v-8.034h17.55v8.034H148.5v-1.17h-12.636v1.17h-2.392zm2.418-13.156v1.638h6.084v-1.638h-6.084zm6.084-4.758v-1.508h-6.084v1.508h6.084zm0 3.12v-1.482h-6.084v1.482h6.084zm2.366 3.276h8.19v1.846h-16.64v.936h-2.366v-7.852a30.815 30.815 0 0 1-2.002 2.08c-.338-.468-1.196-1.404-1.664-1.846 2.236-1.846 4.368-4.732 5.668-7.644l2.236.728c-.286.676-.676 1.404-1.066 2.08h5.33c-.312-.702-.65-1.482-1.014-2.132l2.21-.65c.52.858 1.066 1.924 1.404 2.782h7.28v1.768h-7.566v1.508h6.292v1.638h-6.292v1.482h6.344v1.638h-6.344v1.638zM84.31 150.97L61.63 211h-4.68l22.68-60.03h-24.3v10.08h-4.59v-14.13h33.57v4.05zm43.54 39.06c0 6.12-.36 12.42-4.95 17.01-2.97 2.97-7.02 4.59-12.33 4.59-5.22 0-9.54-1.44-12.33-4.32-2.43-2.43-3.96-5.85-4.32-10.44h4.59c.9 6.84 4.59 10.71 12.06 10.71 3.51 0 6.75-1.17 8.82-3.24 3.78-3.78 3.87-9.54 3.87-14.31 0-8.01-1.44-17.1-11.97-17.1-5.85 0-10.26 2.43-11.61 6.75h-4.05v-32.76h30.78v4.05H99.68v22.68c2.79-3.24 6.93-4.77 12.15-4.77 4.59 0 8.28 1.35 10.8 3.87 4.5 4.5 5.22 11.25 5.22 17.28zm33.462 16.03c0 3.268-2.356 5.206-5.32 5.206-2.964 0-5.32-1.938-5.32-5.206v-3.838c0-3.268 2.356-5.206 5.32-5.206 2.964 0 5.32 1.938 5.32 5.206v3.838zm-5.89-22.116L142.692 211h-3.116l12.768-27.056h3.078zm-11.058 8.778c0 3.268-2.356 5.168-5.32 5.168-2.964 0-5.32-1.9-5.32-5.168v-3.838c0-3.268 2.356-5.206 5.32-5.206 2.964 0 5.32 1.938 5.32 5.206v3.838zm14.022 13.224v-3.61c0-1.71-.76-2.736-2.394-2.736-1.634 0-2.394.988-2.394 2.736v3.61c0 1.748.76 2.736 2.394 2.736 1.634 0 2.394-1.026 2.394-2.736zm-16.948-13.338v-3.61c0-1.71-.76-2.736-2.394-2.736-1.634 0-2.394.988-2.394 2.736v3.61c0 1.748.76 2.698 2.394 2.698 1.634 0 2.394-.988 2.394-2.698z"/>
        </g>
        <g fill="#462405">
            <path d="M271.45 235.202h7.524v1.71h-16.872v-1.71h7.524v-4.37h-5.415v-1.691h5.415v-3.8h-4.218c-.589 1.14-1.216 2.147-1.881 2.945-.361-.304-1.14-.817-1.615-1.064 1.539-1.615 2.736-4.218 3.439-6.878l1.824.418a33.536 33.536 0 0 1-.988 2.85h3.439v-3.534h1.824v3.534h6.612v1.729h-6.612v3.8h5.909v1.691h-5.909v4.37zm24.358-9.443h-3.059c-1.729 0-2.166-.589-2.166-2.166v-3.401h1.634v1.292h4.541v1.349h-4.541v.779c0 .551.095.741.608.741h2.907c.456 0 1.197-.038 1.558-.133.038.456.095 1.045.152 1.425-.304.095-1.026.114-1.634.114zm-.019 6.422h-2.85c-1.9 0-2.356-.418-2.356-1.957v-3.895h1.634v1.368h4.56v1.368h-4.56v1.14c0 .494.133.551.893.551h2.508c.551 0 .684-.152.76-1.14.342.228.988.475 1.444.57-.19 1.596-.646 1.995-2.033 1.995zm-12.084-4.788l.665-.817c.912.323 2.128.798 2.812 1.14l-.684.95c-.627-.342-1.862-.893-2.793-1.273zm-.076-1.197v1.691c0 .513-.019 1.083-.095 1.653.988-.228 2.318-.608 3.743-.988v-2.356h-3.648zm5.168-1.273v5.966c0 .703-.133 1.007-.627 1.235-.475.209-1.216.209-2.261.209-.076-.38-.304-.855-.456-1.197.684.019 1.349.019 1.539 0 .209 0 .285-.057.285-.247v-1.292c-1.178.418-2.318.874-3.344 1.235l-.437-1.026c-.171.988-.475 1.995-1.14 2.774-.266-.285-.912-.798-1.254-.95.95-1.102 1.045-2.565 1.045-3.781v-2.926h6.65zm2.66 9.196l-1.273.874a31.092 31.092 0 0 0-1.862-2.318l1.216-.779c.646.703 1.482 1.653 1.919 2.223zm-1.463-10.127l-1.273.703c-.152-.247-.342-.57-.57-.931-5.453.494-6.156.589-6.593.76-.095-.304-.323-1.026-.513-1.444.304-.038.627-.247 1.007-.532.38-.285 1.596-1.387 2.413-2.546l1.596.513a17.22 17.22 0 0 1-2.375 2.337l3.591-.266c-.304-.361-.608-.741-.912-1.064l1.216-.646c.855.95 1.919 2.28 2.413 3.116zm-7.429 12.977l-1.539-.779c.646-.874 1.197-2.28 1.482-3.382l1.52.57c-.361 1.178-.836 2.641-1.463 3.591zm5.586-1.197h3.534c.874 0 1.026-.247 1.121-1.938.38.266 1.064.494 1.501.589-.19 2.242-.684 2.774-2.47 2.774h-3.819c-2.261 0-2.85-.418-2.85-1.957v-2.166h1.71v2.147c0 .475.19.551 1.273.551zm6.555-2.584l1.52-.437c.532 1.064 1.216 2.527 1.482 3.382l-1.615.551c-.266-.893-.874-2.375-1.387-3.496zm11.476-5.358l.304 1.577c-.779.285-1.558.551-2.337.798v5.206c0 .912-.209 1.368-.741 1.615-.551.285-1.406.323-2.698.323-.057-.437-.304-1.159-.532-1.596.836.019 1.653.019 1.881.019.266-.019.361-.095.361-.38v-4.579l-2.204.722-.532-1.691c.76-.228 1.71-.513 2.736-.817v-3.61h-2.565v-1.634h2.565v-3.724h1.729v3.724h2.147v1.634h-2.147v3.059c.665-.209 1.368-.418 2.033-.646zm8.531 6.935v-5.244h-5.035v5.244h5.035zm2.413-11.742h-5.643c-.437 1.615-1.007 3.268-1.729 4.826h6.688v9.576h-1.729v-.988h-5.035v1.064h-1.653v-6.631a12.888 12.888 0 0 1-1.805 2.109 8.695 8.695 0 0 0-1.159-1.349c2.28-2.09 3.762-5.51 4.56-8.607h-3.306v-1.691h10.811v1.691zm16.036-.57h-10.735v1.615h10.735v-1.615zm1.767 3.116h-12.502v.893c0 3.249-.285 7.961-2.242 11.058-.342-.285-1.121-.741-1.577-.912 1.881-2.926 2.052-7.125 2.052-10.146v-5.529h14.269v4.636zm-1.14 6.346h-3.8a7.01 7.01 0 0 0 1.292 1.691c.874-.494 1.862-1.159 2.508-1.691zm-6.574-3.173v1.691h3.382v-1.691h-3.382zm6.669 3.173l1.273.874a20.018 20.018 0 0 1-2.755 1.71c1.064.722 2.337 1.235 3.838 1.539-.38.342-.836.988-1.064 1.463-3.344-.836-5.586-2.736-6.878-5.586h-2.299v3.477l3.686-.779c-.076.456-.133 1.121-.114 1.482-4.484 1.026-5.092 1.197-5.472 1.444v.019c-.114-.437-.456-1.14-.703-1.463.38-.209.969-.703.969-1.577v-2.603h-1.881v-1.482h3.116v-1.691h-2.641v-1.501h2.641v-1.653h1.615v1.653h3.382v-1.653h1.653v1.653h2.983v1.501h-2.983v1.691h3.762v1.482h-2.128zM289.43 206h-26.39v-3.15l20.02-26.25c1.96-2.52 2.8-4.9 2.8-7.77 0-5.95-3.57-9.94-9.59-9.94-5.18 0-9.59 2.94-9.59 9.94h-3.57c0-7.42 4.9-13.09 13.16-13.09 7.98 0 13.16 5.18 13.16 13.09 0 3.71-.91 6.3-3.43 9.59l-18.69 24.43h22.12V206zm34.12-16.31c0 4.76-.28 9.66-3.85 13.23-2.31 2.31-5.46 3.57-9.59 3.57-4.06 0-7.42-1.12-9.59-3.36-1.89-1.89-3.08-4.55-3.36-8.12h3.57c.7 5.32 3.57 8.33 9.38 8.33 2.73 0 5.25-.91 6.86-2.52 2.94-2.94 3.01-7.42 3.01-11.13 0-6.23-1.12-13.3-9.31-13.3-4.55 0-7.98 1.89-9.03 5.25h-3.15v-25.48h23.94v3.15h-20.79v17.64c2.17-2.52 5.39-3.71 9.45-3.71 3.57 0 6.44 1.05 8.4 3.01 3.5 3.5 4.06 8.75 4.06 13.44zm25.93 12.41c0 2.58-1.86 4.11-4.2 4.11s-4.2-1.53-4.2-4.11v-3.03c0-2.58 1.86-4.11 4.2-4.11s4.2 1.53 4.2 4.11v3.03zm-4.65-17.46L334.78 206h-2.46l10.08-21.36h2.43zm-8.73 6.93c0 2.58-1.86 4.08-4.2 4.08s-4.2-1.5-4.2-4.08v-3.03c0-2.58 1.86-4.11 4.2-4.11s4.2 1.53 4.2 4.11v3.03zm11.07 10.44v-2.85c0-1.35-.6-2.16-1.89-2.16s-1.89.78-1.89 2.16v2.85c0 1.38.6 2.16 1.89 2.16s1.89-.81 1.89-2.16zm-13.38-10.53v-2.85c0-1.35-.6-2.16-1.89-2.16s-1.89.78-1.89 2.16v2.85c0 1.38.6 2.13 1.89 2.13s1.89-.78 1.89-2.13z"/>
        </g>
    </g>
</svg>
