<svg xmlns="http://www.w3.org/2000/svg" width="385" height="394" viewBox="0 0 385 394">
    <defs>
        <linearGradient id="a" x1="62.121%" x2="67.844%" y1="-102.184%" y2="147.419%">
            <stop offset="0%" stop-color="#A8FF97"/>
            <stop offset="39.772%" stop-color="#69ECF1"/>
            <stop offset="50.664%" stop-color="#77C9F5"/>
            <stop offset="81.298%" stop-color="#B792FF"/>
            <stop offset="100%" stop-color="#FE7BA0"/>
        </linearGradient>
        <linearGradient id="b" x1="73.956%" x2="76.399%" y1="15.957%" y2="104.994%">
            <stop offset="0%" stop-color="#F0E7D2"/>
            <stop offset="100%" stop-color="#F0B4E4"/>
        </linearGradient>
        <linearGradient id="c" x1="93.413%" x2="63.069%" y1="11.947%" y2="107.986%">
            <stop offset="0%" stop-color="#F4F8D6"/>
            <stop offset="100%" stop-color="#EDDD9D"/>
        </linearGradient>
        <linearGradient id="d" x1="89.873%" x2="32.666%" y1="8.544%" y2="103.707%">
            <stop offset="0%" stop-color="#D2F0E1"/>
            <stop offset="100%" stop-color="#B4D2F0"/>
        </linearGradient>
        <linearGradient id="e" x1="45.919%" x2="90.523%" y1="106.839%" y2="-2.405%">
            <stop offset="0%" stop-color="#D2F0F0"/>
            <stop offset="100%" stop-color="#F0E6B4"/>
        </linearGradient>
    </defs>
    <g fill="none" fill-rule="evenodd">
        <g stroke="#FFF">
            <path fill="url(#a)" stroke-width="4" d="M382 197c0 102.173-82.828 185-185 185S12 299.173 12 197C12 94.828 94.828 12 197 12s185 82.828 185 185" transform="translate(2 1)"/>
            <path fill="url(#b)" d="M382 197c0 102.173-82.828 185-185 185S12 299.173 12 197C12 94.828 94.828 12 197 12s185 82.828 185 185" transform="translate(2 1)"/>
            <path fill="url(#c)" stroke-width="2" d="M88 346.668C118.598 368.884 156.26 382 197 382V197L88 346.668z" transform="translate(2 1)"/>
            <path fill="url(#d)" stroke-width="2" d="M21 254.924C33.182 292.269 57.02 324.377 88.247 347l106.936-146.51a1 1 0 0 0-1.115-1.542L21 254.924z" transform="translate(2 1)"/>
            <path fill="url(#e)" stroke-width="2" d="M9.625 258.974l187.086-60.78a1 1 0 0 0 .69-.95V.598C88.38.598.002 88.964.002 197.97c0 21.293 3.385 41.792 9.624 61.004z" transform="translate(2 1)"/>
        </g>
        <g fill="#462405">
            <path d="M84.425 158.15l-1.125 2.725c-2.65-1.425-6.7-3-9.45-3.9v7.725c0 .775.075 2.3.2 3.2h-3.075c.125-.875.2-2.225.2-3.2v-14.45c0-.8-.075-1.95-.225-2.8h3.075c-.075.825-.175 1.925-.175 2.8v3.9c3.3 1 8.075 2.775 10.575 4zm6.025.775v-3.075c.8.075 2.35.15 3.7.15h13.575c1.225 0 2.2-.1 2.8-.15v3.075c-.55-.025-1.675-.1-2.775-.1h-13.6c-1.4 0-2.875.05-3.7.1zm42.6-8.775l2.05 1.25c-.25.4-.525 1.025-.7 1.525-.675 2.4-2.15 5.75-4.4 8.5-2.3 2.825-5.325 5.125-10 6.925l-2.325-2.075c4.825-1.45 7.8-3.675 10.025-6.25 1.85-2.125 3.35-5.275 3.8-7.375h-7.8c-1.6 2.15-3.725 4.35-6.35 6.1l-2.2-1.625c4.35-2.6 6.675-6.075 7.85-8.275.3-.5.725-1.525.925-2.25l2.9.95c-.5.75-1.025 1.725-1.3 2.225-.1.2-.225.425-.35.625h6c.7 0 1.4-.075 1.875-.25zm10.775-1.775c1.775 1.175 5 3.775 6.4 5.225l-1.975 2.025c-1.3-1.325-4.4-4.025-6.25-5.3l1.825-1.95zM141.25 165.1c4.175-.625 7.425-2.025 9.825-3.5 4.025-2.475 7.15-6.225 8.675-9.425l1.525 2.725c-1.8 3.225-4.875 6.65-8.775 9.05-2.525 1.55-5.7 3.025-9.575 3.725l-1.675-2.575zm-70.525 19.525v-2.75h-3.45v2.75h3.45zm0 4.6v-2.8h-3.45v2.8h3.45zm0 4.6v-2.85h-3.45v2.85h3.45zm2.175-13.85V195.7h-7.725v-15.725H72.9zm-6.45 16.1l2.15.525c-.65 2.05-1.775 4.1-2.975 5.425-.425-.35-1.3-.975-1.825-1.275 1.2-1.15 2.15-2.9 2.65-4.675zm17.15-7.5h-4.825c.575 2.35 1.4 4.5 2.525 6.3 1.05-1.75 1.825-3.85 2.3-6.3zm1.075-2.1l1.375.325c-.55 4.2-1.7 7.5-3.35 10.025 1.225 1.425 2.725 2.575 4.5 3.35-.475.4-1.175 1.275-1.5 1.85-1.725-.85-3.15-2.025-4.375-3.425-1.25 1.4-2.725 2.5-4.375 3.325-.3-.55-.875-1.475-1.35-1.875 1.65-.725 3.125-1.825 4.375-3.3-1.35-2.1-2.325-4.6-3.025-7.45v.125c0 3.85-.325 9.2-2.7 12.625-.425-.4-1.35-1-1.85-1.25.35-.5.625-1.025.9-1.575l-1.925.95c-.325-.925-1.125-2.3-1.825-3.35l1.825-.775c.75 1 1.55 2.3 1.925 3.175 1.375-3.025 1.5-6.775 1.5-9.8v-9.15h11.55v2.125h-9.4v4.125h7.35l.375-.05zm14.525-.95V183.4h-9.525v-2.15H99.2v-2.2h2.4v2.2h9.775v2.15H101.6v2.125h7.525v2.05H92v-2.05h7.2zm11.65 8.7h-2.35v-2.9H92.45v2.9h-2.275v-4.975h20.675v4.975zm-14.825-1.85h2.4c-.4 5.05-1.6 8.075-8.075 9.65-.2-.6-.8-1.55-1.275-2 5.8-1.2 6.625-3.525 6.95-7.65zm9.55 7.075h2.925c.875 0 1.05-.375 1.125-3.075.475.375 1.45.725 2.1.875-.25 3.45-.875 4.325-3 4.325h-3.45c-2.525 0-3.15-.675-3.15-2.925v-6.275h2.325v6.25c0 .725.175.825 1.125.825zM97.654 118.42c0 10.414-7.216 16.154-16.564 16.154-9.102 0-16.072-4.674-16.646-14.76h4.182c.574 7.954 6.396 11.07 12.464 11.07 6.97 0 12.382-4.674 12.382-12.464 0-7.872-3.772-12.464-12.71-12.464h-.984v-3.69h.984c7.79 0 11.562-4.264 11.562-11.726 0-7.708-5.002-11.808-11.316-11.808-6.888 0-10.906 4.182-11.644 10.66h-4.182c.82-9.102 7.38-14.35 15.826-14.35 9.184 0 15.498 6.15 15.498 15.498 0 6.15-2.46 10.824-8.282 13.284 6.478 2.214 9.43 7.216 9.43 14.596zm39.902.492c0 9.102-6.314 15.58-15.334 15.58s-15.334-6.478-15.334-15.58V90.704c0-9.102 6.314-15.58 15.334-15.58s15.334 6.478 15.334 15.58v28.208zm-4.182-.41V91.114c0-6.888-3.854-12.3-11.152-12.3-7.298 0-11.152 5.412-11.152 12.3v27.388c0 6.888 3.854 12.3 11.152 12.3 7.298 0 11.152-5.412 11.152-12.3zm37.714 10.558c0 3.268-2.356 5.206-5.32 5.206-2.964 0-5.32-1.938-5.32-5.206v-3.838c0-3.268 2.356-5.206 5.32-5.206 2.964 0 5.32 1.938 5.32 5.206v3.838zm-5.89-22.116L152.468 134h-3.116l12.768-27.056h3.078zm-11.058 8.778c0 3.268-2.356 5.168-5.32 5.168-2.964 0-5.32-1.9-5.32-5.168v-3.838c0-3.268 2.356-5.206 5.32-5.206 2.964 0 5.32 1.938 5.32 5.206v3.838zm14.022 13.224v-3.61c0-1.71-.76-2.736-2.394-2.736-1.634 0-2.394.988-2.394 2.736v3.61c0 1.748.76 2.736 2.394 2.736 1.634 0 2.394-1.026 2.394-2.736zm-16.948-13.338v-3.61c0-1.71-.76-2.736-2.394-2.736-1.634 0-2.394.988-2.394 2.736v3.61c0 1.748.76 2.698 2.394 2.698 1.634 0 2.394-.988 2.394-2.698z"/>
        </g>
        <g fill="#462405">
            <path d="M236.05 232.15l2.05 1.25c-.25.4-.525 1.025-.7 1.525-.675 2.4-2.15 5.75-4.4 8.5-2.3 2.825-5.325 5.125-10 6.925l-2.325-2.075c4.825-1.45 7.8-3.675 10.025-6.25 1.85-2.125 3.35-5.275 3.8-7.375h-7.8c-1.6 2.15-3.725 4.35-6.35 6.1l-2.2-1.625c4.35-2.6 6.675-6.075 7.85-8.275.3-.5.725-1.525.925-2.25l2.9.95c-.5.75-1.025 1.725-1.3 2.225-.1.2-.225.425-.35.625h6c.7 0 1.4-.075 1.875-.25zm10.2-2.1h2.9c-.05.525-.1 1.15-.1 1.85v8.375c0 .65.05 1.525.1 2.025h-2.925c.025-.425.125-1.3.125-2.025V231.9c0-.45-.05-1.325-.1-1.85zm11.525-.2h2.925c-.05.65-.1 1.4-.1 2.3v4.45c0 5.725-.9 7.85-2.75 9.95-1.625 1.9-4.15 3.025-5.975 3.65l-2.075-2.175c2.375-.6 4.525-1.55 6.05-3.275 1.75-1.975 2.075-3.925 2.075-8.3v-4.3c0-.9-.075-1.65-.15-2.3zm22 15.675h7.05c.8 0 1.525-.1 2.175-.175v2.85c-.675-.075-1.65-.1-2.175-.1h-16.5c-.725 0-1.525.025-2.325.1v-2.85c.75.125 1.6.175 2.325.175h6.725V234.6h-5.275c-.55 0-1.575.025-2.2.1v-2.725c.65.075 1.625.125 2.2.125h13.675c.775 0 1.575-.05 2.25-.125v2.725c-.7-.075-1.525-.1-2.25-.1h-5.675v10.925zm13.675-4.6v-3.075c.8.075 2.35.15 3.7.15h13.575c1.225 0 2.2-.1 2.8-.15v3.075c-.55-.025-1.675-.1-2.775-.1h-13.6c-1.4 0-2.875.05-3.7.1zm42.625-9.175L338.1 233c-.225.425-.525 1.05-.7 1.55-.625 2.075-1.85 4.725-3.55 7.175.925.6 1.775 1.15 2.4 1.6l-1.75 2.3c-.6-.5-1.425-1.1-2.375-1.75-2.225 2.525-5.275 4.85-9.525 6.475l-2.275-2c4.4-1.325 7.45-3.6 9.625-5.925-1.85-1.2-3.775-2.375-5.125-3.125l1.65-1.875c1.4.725 3.325 1.825 5.15 2.925 1.375-1.975 2.5-4.325 2.95-6.075h-7.95c-1.65 2.275-3.9 4.675-6.575 6.5l-2.15-1.625c4.35-2.675 6.825-6.3 8-8.525.325-.5.775-1.525.95-2.25l2.85.9c-.475.75-1.025 1.7-1.275 2.2l-.3.55h6.075c.7 0 1.4-.1 1.875-.275zm7.375 9.175v-3.075c.8.075 2.35.15 3.7.15h13.575c1.225 0 2.2-.1 2.8-.15v3.075c-.55-.025-1.675-.1-2.775-.1h-13.6c-1.4 0-2.875.05-3.7.1zM235.625 265.5l.25.2c-.175.225-.55.875-.725 1.275-.875 2.075-2.375 4.9-4.1 7.15 2.575 2.2 5.6 5.425 7.15 7.325l-2.225 1.925c-1.625-2.225-4.15-5-6.6-7.275-2.675 2.85-6.025 5.525-9.625 7.175l-2.025-2.125c4.05-1.525 7.8-4.55 10.275-7.3 1.7-1.9 3.375-4.65 3.975-6.6H222.8c-.975 0-2.325.125-2.725.15v-2.825c.5.075 1.95.175 2.725.175h9.275c.925 0 1.75-.125 2.175-.275l.975.75c-.5-1-1.2-2.225-1.8-3.1l1.625-.675c.625.95 1.55 2.5 2 3.425l-1.425.625zm.8-4.25l1.6-.675c.65.925 1.6 2.5 2.05 3.4l-1.625.725c-.525-1.075-1.35-2.5-2.025-3.45zm26.225 4.175c.875 0 1.575-.675 1.575-1.55a1.563 1.563 0 0 0-3.125 0c0 .875.7 1.55 1.55 1.55zm-15.975-.825H258.8c.3 0 .675 0 1.05-.05a2.892 2.892 0 0 1 2.8-3.55c1.6 0 2.9 1.3 2.9 2.875 0 1.6-1.3 2.875-2.9 2.875-.225 0-.45-.025-.65-.075l-.125.475c-.55 2.55-1.725 6.5-3.75 9.175-2.275 2.95-5.4 5.35-9.925 6.775l-2.15-2.35c4.9-1.2 7.725-3.35 9.775-5.95 1.725-2.2 2.8-5.4 3.125-7.675h-12.275c-1.075 0-2.075.05-2.7.075v-2.775c.7.1 1.875.175 2.7.175zm21.775 9.325v-3.075c.8.075 2.35.15 3.7.15h13.575c1.225 0 2.2-.1 2.8-.15v3.075c-.55-.025-1.675-.1-2.775-.1h-13.6c-1.4 0-2.875.05-3.7.1zm26.3 8.9l-2.375-1.6c2.15-1.525 3.575-3.775 4.3-6.075.725-2.225.725-7.1.725-9.975 0-.85-.05-1.45-.2-2.025h2.9c-.025.2-.125 1.125-.125 2 0 2.85-.1 8.175-.775 10.675-.75 2.75-2.325 5.2-4.45 7zm10.775 0l-1.65-1.375c.1-.425.175-1 .175-1.575v-14.8c0-1.025-.15-1.85-.15-2h2.9c-.025.15-.125.975-.125 2V278.9c2.175-.975 5-3.1 6.8-5.75l1.5 2.15c-2.125 2.825-5.625 5.45-8.5 6.9-.425.2-.675.425-.95.625zM247.982 189.894c0 5.576-.328 11.316-4.51 15.498-2.706 2.706-6.396 4.182-11.234 4.182-4.756 0-8.692-1.312-11.234-3.936-2.214-2.214-3.608-5.33-3.936-9.512h4.182c.82 6.232 4.182 9.758 10.988 9.758 3.198 0 6.15-1.066 8.036-2.952 3.444-3.444 3.526-8.692 3.526-13.038 0-7.298-1.312-15.58-10.906-15.58-5.33 0-9.348 2.214-10.578 6.15h-3.69v-29.848h28.044v3.69h-24.354v20.664c2.542-2.952 6.314-4.346 11.07-4.346 4.182 0 7.544 1.23 9.84 3.526 4.1 4.1 4.756 10.25 4.756 15.744zm39.574 4.018c0 9.102-6.314 15.58-15.334 15.58s-15.334-6.478-15.334-15.58v-28.208c0-9.102 6.314-15.58 15.334-15.58s15.334 6.478 15.334 15.58v28.208zm-4.182-.41v-27.388c0-6.888-3.854-12.3-11.152-12.3-7.298 0-11.152 5.412-11.152 12.3v27.388c0 6.888 3.854 12.3 11.152 12.3 7.298 0 11.152-5.412 11.152-12.3zm37.714 10.558c0 3.268-2.356 5.206-5.32 5.206-2.964 0-5.32-1.938-5.32-5.206v-3.838c0-3.268 2.356-5.206 5.32-5.206 2.964 0 5.32 1.938 5.32 5.206v3.838zm-5.89-22.116L302.468 209h-3.116l12.768-27.056h3.078zm-11.058 8.778c0 3.268-2.356 5.168-5.32 5.168-2.964 0-5.32-1.9-5.32-5.168v-3.838c0-3.268 2.356-5.206 5.32-5.206 2.964 0 5.32 1.938 5.32 5.206v3.838zm14.022 13.224v-3.61c0-1.71-.76-2.736-2.394-2.736-1.634 0-2.394.988-2.394 2.736v3.61c0 1.748.76 2.736 2.394 2.736 1.634 0 2.394-1.026 2.394-2.736zm-16.948-13.338v-3.61c0-1.71-.76-2.736-2.394-2.736-1.634 0-2.394.988-2.394 2.736v3.61c0 1.748.76 2.698 2.394 2.698 1.634 0 2.394-.988 2.394-2.698z"/>
        </g>
        <g fill="#462405">
            <path d="M51.918 303.498h5.076c.576 0 1.098-.072 1.566-.126v2.052a16.686 16.686 0 0 0-1.566-.072h-11.88c-.522 0-1.098.018-1.674.072v-2.052c.54.09 1.152.126 1.674.126h4.842v-7.866h-3.798c-.396 0-1.134.018-1.584.072v-1.962c.468.054 1.17.09 1.584.09h9.846c.558 0 1.134-.036 1.62-.09v1.962a16.02 16.02 0 0 0-1.62-.072h-4.086v7.866zm23.562 2.772h-2.052c0-.252.018-.594.018-.972h-8.532c-.738 0-1.638.036-2.16.072v-2.034c.522.036 1.314.09 2.088.09h8.622v-8.028h-8.406c-.702 0-1.62.036-2.088.054v-1.98c.63.054 1.494.108 2.088.108h8.946c.486 0 1.116-.018 1.44-.036a38.642 38.642 0 0 0-.036 1.512v9.306c0 .63.036 1.512.072 1.908zm7.992-14.292c1.116.63 3.15 1.962 3.996 2.574l-1.062 1.548c-.918-.666-2.844-1.944-3.96-2.574l1.026-1.548zm-2.97 12.834c1.998-.342 4.194-1.008 6.084-2.052 3.006-1.71 5.436-4.122 6.894-6.678l1.08 1.908c-1.602 2.448-4.104 4.752-7.02 6.444-1.818 1.062-4.338 1.926-5.976 2.232l-1.062-1.854zm.234-8.748c1.134.612 3.186 1.872 4.032 2.466l-1.044 1.602c-.954-.684-2.862-1.908-4.014-2.52l1.026-1.548zm28.764-3.042l1.17.864c-.126.18-.396.63-.522.936-.63 1.476-1.692 3.51-2.952 5.13 1.854 1.584 4.032 3.906 5.148 5.274l-1.602 1.404c-1.17-1.62-2.97-3.6-4.752-5.256-1.926 2.052-4.338 3.978-6.93 5.166l-1.458-1.512c2.916-1.116 5.616-3.276 7.398-5.274 1.224-1.368 2.43-3.348 2.862-4.752h-6.606c-.702 0-1.674.09-1.962.108v-2.034c.36.054 1.404.126 1.962.126h6.678c.666 0 1.26-.072 1.566-.18zm-54.72 21.242h-7.254c-.594 0-1.26.018-1.764.054v-1.854c.54.072 1.17.126 1.764.126h7.254c.558 0 1.224-.036 1.8-.126v1.854a30.503 30.503 0 0 0-1.8-.054zm-9.504 2.862h11.772c.378 0 1.062-.036 1.512-.09v1.854a20.124 20.124 0 0 0-1.512-.054h-4.626c-.072 1.908-.432 3.492-1.116 4.806-.648 1.206-2.016 2.556-3.582 3.348l-1.656-1.224c1.332-.54 2.61-1.566 3.33-2.682.774-1.206 1.008-2.628 1.08-4.248h-5.202c-.54 0-1.134.018-1.638.054v-1.854c.504.054 1.08.09 1.638.09zm31.14 8.712l-1.908.864a34.61 34.61 0 0 0-.936-2.25c-2.862.342-8.622.972-10.962 1.188-.45.054-1.044.144-1.584.216l-.324-2.088c.558 0 1.26 0 1.8-.036.216-.018.468-.018.738-.036 1.008-2.574 2.718-7.938 3.222-9.774.252-.864.324-1.35.396-1.872l2.25.468c-.198.486-.432 1.026-.684 1.818-.54 1.71-2.178 6.804-3.078 9.18 2.448-.216 5.49-.558 7.416-.81-.684-1.368-1.422-2.682-2.052-3.51l1.746-.756c1.26 1.89 3.186 5.472 3.96 7.398zm7.758-12.978h-3.456v1.206h3.456v-1.206zm-3.456 3.672h3.456v-1.314h-3.456v1.314zm5.022 1.224h-5.022v9.666h-1.656v-15.804h6.678v6.138zm-.432 4.086h2.142v-1.71h-2.142v1.71zm5.868 1.386h-2.232v3.87H87.45v-3.87h-2.178c-.144 1.206-.72 3.042-2.358 4.14-.234-.306-.738-.756-1.08-.99 1.332-.81 1.836-2.16 1.98-3.15h-2.052v-1.386h2.106v-1.71h-1.782V318.8h8.73v1.332h-1.872v1.71h2.232v1.386zm-2.448-6.66h3.564v-1.35h-3.564v1.35zm3.564-3.708h-3.564v1.206h3.564v-1.206zm1.656-1.242v13.752c0 .918-.18 1.404-.774 1.692-.576.27-1.476.324-2.826.306-.054-.45-.288-1.206-.54-1.656.918.018 1.836.018 2.124.018.27-.018.36-.108.36-.378v-7.56h-5.166v-6.174h6.822zm11.79 9.45v-2.376h-2.736v2.376h2.736zm3.6-2.376h-1.872v2.376h4.068v1.548h-4.068v2.466c0 .612.09.702.666.702h1.746c.522 0 .612-.36.684-2.142.378.27 1.044.558 1.494.648-.144 2.322-.612 2.988-2.016 2.988h-2.196c-1.692 0-2.106-.486-2.106-2.196v-2.466h-2.862c-.342 1.908-1.476 3.708-4.878 4.878-.198-.378-.72-1.026-1.062-1.314 2.772-.918 3.834-2.214 4.212-3.564h-3.816v-1.548h4.014v-2.376H99.6v-.648a14.234 14.234 0 0 1-2.556 1.512c-.198-.378-.684-.972-1.008-1.26 1.17-.486 2.322-1.224 3.348-2.124-.504-.54-1.332-1.224-1.98-1.728l1.044-.882c.648.432 1.458 1.062 1.98 1.566a11.4 11.4 0 0 0 1.44-2.052h-4.104v-1.458h4.914l.306-.054 1.098.522c-.702 2.016-1.908 3.69-3.348 5.022h7.542c-1.566-1.548-2.808-3.528-3.654-5.742l1.476-.432c.288.738.63 1.44 1.044 2.124.702-.612 1.458-1.35 1.926-1.926l1.26.882a28.462 28.462 0 0 1-2.466 2.106c.306.414.648.81.99 1.188.828-.648 1.746-1.494 2.322-2.142l1.242.864a26.529 26.529 0 0 1-2.628 2.16c.936.792 1.98 1.44 3.114 1.89-.378.324-.9.99-1.152 1.44a11.403 11.403 0 0 1-2.412-1.476v.648zM47.52 285h-2.04v-26.16l-5.16 4.56v-2.44l5.16-4.44h2.04V285zm23.8-7.36c0 4.44-3.08 7.6-7.48 7.6s-7.48-3.16-7.48-7.6v-13.76c0-4.44 3.08-7.6 7.48-7.6s7.48 3.16 7.48 7.6v13.76zm-2.04-.2v-13.36c0-3.36-1.88-6-5.44-6-3.56 0-5.44 2.64-5.44 6v13.36c0 3.36 1.88 6 5.44 6 3.56 0 5.44-2.64 5.44-6zm18.52 4.96c0 1.72-1.24 2.74-2.8 2.74-1.56 0-2.8-1.02-2.8-2.74v-2.02c0-1.72 1.24-2.74 2.8-2.74 1.56 0 2.8 1.02 2.8 2.74v2.02zm-3.1-11.64L78 285h-1.64l6.72-14.24h1.62zm-5.82 4.62c0 1.72-1.24 2.72-2.8 2.72-1.56 0-2.8-1-2.8-2.72v-2.02c0-1.72 1.24-2.74 2.8-2.74 1.56 0 2.8 1.02 2.8 2.74v2.02zm7.38 6.96v-1.9c0-.9-.4-1.44-1.26-1.44s-1.26.52-1.26 1.44v1.9c0 .92.4 1.44 1.26 1.44s1.26-.54 1.26-1.44zm-8.92-7.02v-1.9c0-.9-.4-1.44-1.26-1.44s-1.26.52-1.26 1.44v1.9c0 .92.4 1.42 1.26 1.42s1.26-.52 1.26-1.42z"/>
        </g>
        <g fill="#462405">
            <path d="M142.242 349.684h4.788c.378 0 1.116-.036 1.512-.072v1.836a19.5 19.5 0 0 0-1.476-.054h-4.86c-.234 3.186-1.548 5.67-4.608 7.47l-1.8-1.224c2.79-1.314 4.266-3.276 4.536-6.246h-5.184c-.558 0-1.188.018-1.638.054v-1.854c.432.054 1.062.09 1.62.09h5.256v-2.97c-1.782.18-3.744.234-5.058.252l-.45-1.656c1.368.054 4.14 0 6.102-.288 1.71-.234 3.69-.648 4.59-1.044l1.17 1.566c-.486.126-.882.216-1.17.288-.9.234-2.124.486-3.33.666v3.186zm9.522 2.502v-2.214a33.45 33.45 0 0 0 2.664.108h9.774c.882 0 1.584-.072 2.016-.108v2.214c-.396-.018-1.206-.072-1.998-.072h-9.792c-1.008 0-2.07.036-2.664.072zm32.652 5.652l-1.908.864a34.61 34.61 0 0 0-.936-2.25c-2.862.342-8.622.972-10.962 1.188-.45.054-1.044.144-1.584.216l-.324-2.088c.558 0 1.26 0 1.8-.036.216-.018.468-.018.738-.036 1.008-2.574 2.718-7.938 3.222-9.774.252-.864.324-1.35.396-1.872l2.25.468c-.198.486-.432 1.026-.684 1.818-.54 1.71-2.178 6.804-3.078 9.18 2.448-.216 5.49-.558 7.416-.81-.684-1.368-1.422-2.682-2.052-3.51l1.746-.756c1.26 1.89 3.186 5.472 3.96 7.398zM138.52 336h-2.04v-26.16l-5.16 4.56v-2.44l5.16-4.44h2.04V336zm23.8-7.36c0 4.44-3.08 7.6-7.48 7.6s-7.48-3.16-7.48-7.6v-13.76c0-4.44 3.08-7.6 7.48-7.6s7.48 3.16 7.48 7.6v13.76zm-2.04-.2v-13.36c0-3.36-1.88-6-5.44-6-3.56 0-5.44 2.64-5.44 6v13.36c0 3.36 1.88 6 5.44 6 3.56 0 5.44-2.64 5.44-6zm18.52 4.96c0 1.72-1.24 2.74-2.8 2.74-1.56 0-2.8-1.02-2.8-2.74v-2.02c0-1.72 1.24-2.74 2.8-2.74 1.56 0 2.8 1.02 2.8 2.74v2.02zm-3.1-11.64L169 336h-1.64l6.72-14.24h1.62zm-5.82 4.62c0 1.72-1.24 2.72-2.8 2.72-1.56 0-2.8-1-2.8-2.72v-2.02c0-1.72 1.24-2.74 2.8-2.74 1.56 0 2.8 1.02 2.8 2.74v2.02zm7.38 6.96v-1.9c0-.9-.4-1.44-1.26-1.44s-1.26.52-1.26 1.44v1.9c0 .92.4 1.44 1.26 1.44s1.26-.54 1.26-1.44zm-8.92-7.02v-1.9c0-.9-.4-1.44-1.26-1.44s-1.26.52-1.26 1.44v1.9c0 .92.4 1.42 1.26 1.42s1.26-.52 1.26-1.42z"/>
        </g>
    </g>
</svg>
