<svg xmlns="http://www.w3.org/2000/svg" width="385" height="394" viewBox="0 0 385 394">
    <defs>
        <linearGradient id="a" x1="86.052%" x2="74.281%" y1="24.321%" y2="79.657%">
            <stop offset="0%" stop-color="#D2F0E1"/>
            <stop offset="100%" stop-color="#B4D2F0"/>
        </linearGradient>
        <linearGradient id="b" x1="60.467%" x2="48.189%" y1="90.323%" y2="0%">
            <stop offset="0%" stop-color="#D2F0F0"/>
            <stop offset="100%" stop-color="#F0E6B4"/>
        </linearGradient>
    </defs>
    <g fill="none" fill-rule="evenodd">
        <g stroke="#FFF">
            <path stroke-width="4" d="M382.54 197.298c0 102.633-83.201 185.834-185.835 185.834-102.632 0-185.834-83.2-185.834-185.834S94.073 11.464 196.705 11.464c102.634 0 185.835 83.2 185.835 185.834"/>
            <path fill="url(#a)" d="M381.538 196.298c0 102.632-83.2 185.832-185.833 185.832-102.631 0-185.832-83.2-185.832-185.832 0-102.633 83.2-185.832 185.832-185.832 102.633 0 185.833 83.2 185.833 185.832" transform="translate(1 1)"/>
            <path fill="url(#b)" stroke-width="2" d="M334.659 57.913c-76.559-76.427-200.683-76.427-277.24 0-76.558 76.427-76.558 200.34 0 276.767 76.557 76.427 200.681 76.427 277.24 0l-138.62-138.383 138.62-138.384z" transform="translate(1 1)"/>
        </g>
        <g fill="#462405">
            <path d="M73.282 240.796l-1.17 2.834c-2.756-1.482-6.968-3.12-9.828-4.056v8.034c0 .806.078 2.392.208 3.328h-3.198c.13-.91.208-2.314.208-3.328V232.58c0-.832-.078-2.028-.234-2.912h3.198c-.078.858-.182 2.002-.182 2.912v4.056c3.432 1.04 8.398 2.886 10.998 4.16zm6.266.806v-3.198c.832.078 2.444.156 3.848.156h14.118c1.274 0 2.288-.104 2.912-.156v3.198c-.572-.026-1.742-.104-2.886-.104H83.396c-1.456 0-2.99.052-3.848.104zm44.304-9.126l2.132 1.3c-.26.416-.546 1.066-.728 1.586-.702 2.496-2.236 5.98-4.576 8.84-2.392 2.938-5.538 5.33-10.4 7.202l-2.418-2.158c5.018-1.508 8.112-3.822 10.426-6.5 1.924-2.21 3.484-5.486 3.952-7.67h-8.112c-1.664 2.236-3.874 4.524-6.604 6.344l-2.288-1.69c4.524-2.704 6.942-6.318 8.164-8.606.312-.52.754-1.586.962-2.34l3.016.988c-.52.78-1.066 1.794-1.352 2.314a8.158 8.158 0 0 1-.364.65h6.24c.728 0 1.456-.078 1.95-.26zm11.206-1.846c1.846 1.222 5.2 3.926 6.656 5.434l-2.054 2.106c-1.352-1.378-4.576-4.186-6.5-5.512l1.898-2.028zm-2.678 17.394c4.342-.65 7.722-2.106 10.218-3.64 4.186-2.574 7.436-6.474 9.022-9.802l1.586 2.834c-1.872 3.354-5.07 6.916-9.126 9.412-2.626 1.612-5.928 3.146-9.958 3.874l-1.742-2.678zM59.034 272.01v-2.86h-3.588v2.86h3.588zm0 4.784v-2.912h-3.588v2.912h3.588zm0 4.784v-2.964h-3.588v2.964h3.588zm2.262-14.404v16.354h-8.034v-16.354h8.034zm-6.708 16.744l2.236.546c-.676 2.132-1.846 4.264-3.094 5.642-.442-.364-1.352-1.014-1.898-1.326 1.248-1.196 2.236-3.016 2.756-4.862zm17.836-7.8h-5.018c.598 2.444 1.456 4.68 2.626 6.552 1.092-1.82 1.898-4.004 2.392-6.552zm1.118-2.184l1.43.338c-.572 4.368-1.768 7.8-3.484 10.426 1.274 1.482 2.834 2.678 4.68 3.484-.494.416-1.222 1.326-1.56 1.924-1.794-.884-3.276-2.106-4.55-3.562a15.094 15.094 0 0 1-4.55 3.458c-.312-.572-.91-1.534-1.404-1.95 1.716-.754 3.25-1.898 4.55-3.432-1.404-2.184-2.418-4.784-3.146-7.748v.13c0 4.004-.338 9.568-2.808 13.13-.442-.416-1.404-1.04-1.924-1.3.364-.52.65-1.066.936-1.638l-2.002.988c-.338-.962-1.17-2.392-1.898-3.484l1.898-.806c.78 1.04 1.612 2.392 2.002 3.302 1.43-3.146 1.56-7.046 1.56-10.192v-9.516h12.012v2.21h-9.776v4.29h7.644l.39-.052zm15.106-.988v-2.21h-9.906V268.5h9.906v-2.288h2.496v2.288h10.166v2.236H91.144v2.21h7.826v2.132H81.16v-2.132h7.488zm12.116 9.048H98.32v-3.016H81.628v3.016h-2.366v-5.174h21.502v5.174zm-15.418-1.924h2.496c-.416 5.252-1.664 8.398-8.398 10.036-.208-.624-.832-1.612-1.326-2.08 6.032-1.248 6.89-3.666 7.228-7.956zm9.932 7.358h3.042c.91 0 1.092-.39 1.17-3.198.494.39 1.508.754 2.184.91-.26 3.588-.91 4.498-3.12 4.498h-3.588c-2.626 0-3.276-.702-3.276-3.042v-6.526h2.418v6.5c0 .754.182.858 1.17.858zM84.31 150.97L61.63 211h-4.68l22.68-60.03h-24.3v10.08h-4.59v-14.13h33.57v4.05zm43.54 39.06c0 6.12-.36 12.42-4.95 17.01-2.97 2.97-7.02 4.59-12.33 4.59-5.22 0-9.54-1.44-12.33-4.32-2.43-2.43-3.96-5.85-4.32-10.44h4.59c.9 6.84 4.59 10.71 12.06 10.71 3.51 0 6.75-1.17 8.82-3.24 3.78-3.78 3.87-9.54 3.87-14.31 0-8.01-1.44-17.1-11.97-17.1-5.85 0-10.26 2.43-11.61 6.75h-4.05v-32.76h30.78v4.05H99.68v22.68c2.79-3.24 6.93-4.77 12.15-4.77 4.59 0 8.28 1.35 10.8 3.87 4.5 4.5 5.22 11.25 5.22 17.28zm33.462 16.03c0 3.268-2.356 5.206-5.32 5.206-2.964 0-5.32-1.938-5.32-5.206v-3.838c0-3.268 2.356-5.206 5.32-5.206 2.964 0 5.32 1.938 5.32 5.206v3.838zm-5.89-22.116L142.692 211h-3.116l12.768-27.056h3.078zm-11.058 8.778c0 3.268-2.356 5.168-5.32 5.168-2.964 0-5.32-1.9-5.32-5.168v-3.838c0-3.268 2.356-5.206 5.32-5.206 2.964 0 5.32 1.938 5.32 5.206v3.838zm14.022 13.224v-3.61c0-1.71-.76-2.736-2.394-2.736-1.634 0-2.394.988-2.394 2.736v3.61c0 1.748.76 2.736 2.394 2.736 1.634 0 2.394-1.026 2.394-2.736zm-16.948-13.338v-3.61c0-1.71-.76-2.736-2.394-2.736-1.634 0-2.394.988-2.394 2.736v3.61c0 1.748.76 2.698 2.394 2.698 1.634 0 2.394-.988 2.394-2.698z"/>
        </g>
        <g fill="#462405">
            <path d="M260.571 234.081h5.922c.672 0 1.281-.084 1.827-.147v2.394a19.468 19.468 0 0 0-1.827-.084h-13.86c-.609 0-1.281.021-1.953.084v-2.394c.63.105 1.344.147 1.953.147h5.649v-9.177h-4.431c-.462 0-1.323.021-1.848.084v-2.289c.546.063 1.365.105 1.848.105h11.487c.651 0 1.323-.042 1.89-.105v2.289a18.69 18.69 0 0 0-1.89-.084h-4.767v9.177zm27.489 3.234h-2.394c0-.294.021-.693.021-1.134h-9.954c-.861 0-1.911.042-2.52.084v-2.373c.609.042 1.533.105 2.436.105h10.059v-9.366h-9.807c-.819 0-1.89.042-2.436.063v-2.31c.735.063 1.743.126 2.436.126h10.437c.567 0 1.302-.021 1.68-.042a45.083 45.083 0 0 0-.042 1.764v10.857c0 .735.042 1.764.084 2.226zm9.324-16.674c1.302.735 3.675 2.289 4.662 3.003l-1.239 1.806c-1.071-.777-3.318-2.268-4.62-3.003l1.197-1.806zm-3.465 14.973c2.331-.399 4.893-1.176 7.098-2.394 3.507-1.995 6.342-4.809 8.043-7.791l1.26 2.226c-1.869 2.856-4.788 5.544-8.19 7.518-2.121 1.239-5.061 2.247-6.972 2.604l-1.239-2.163zm.273-10.206c1.323.714 3.717 2.184 4.704 2.877l-1.218 1.869c-1.113-.798-3.339-2.226-4.683-2.94l1.197-1.806zm33.558-3.549l1.365 1.008c-.147.21-.462.735-.609 1.092-.735 1.722-1.974 4.095-3.444 5.985 2.163 1.848 4.704 4.557 6.006 6.153l-1.869 1.638c-1.365-1.89-3.465-4.2-5.544-6.132-2.247 2.394-5.061 4.641-8.085 6.027l-1.701-1.764c3.402-1.302 6.552-3.822 8.631-6.153 1.428-1.596 2.835-3.906 3.339-5.544h-7.707c-.819 0-1.953.105-2.289.126v-2.373c.42.063 1.638.147 2.289.147h7.791c.777 0 1.47-.084 1.827-.21zm20.16 1.449h-8.463c-.693 0-1.47.021-2.058.063v-2.163c.63.084 1.365.147 2.058.147h8.463c.651 0 1.428-.042 2.1-.147v2.163a35.586 35.586 0 0 0-2.1-.063zm-11.088 3.339h13.734c.441 0 1.239-.042 1.764-.105v2.163a23.477 23.477 0 0 0-1.764-.063h-5.397c-.084 2.226-.504 4.074-1.302 5.607-.756 1.407-2.352 2.982-4.179 3.906l-1.932-1.428c1.554-.63 3.045-1.827 3.885-3.129.903-1.407 1.176-3.066 1.26-4.956h-6.069c-.63 0-1.323.021-1.911.063v-2.163c.588.063 1.26.105 1.911.105zm36.33 10.164l-2.226 1.008a40.38 40.38 0 0 0-1.092-2.625c-3.339.399-10.059 1.134-12.789 1.386-.525.063-1.218.168-1.848.252l-.378-2.436c.651 0 1.47 0 2.1-.042.252-.021.546-.021.861-.042 1.176-3.003 3.171-9.261 3.759-11.403.294-1.008.378-1.575.462-2.184l2.625.546c-.231.567-.504 1.197-.798 2.121-.63 1.995-2.541 7.938-3.591 10.71a233.46 233.46 0 0 0 8.652-.945c-.798-1.596-1.659-3.129-2.394-4.095l2.037-.882c1.47 2.205 3.717 6.384 4.62 8.631zm-116.319 9.859h-4.032v1.407h4.032v-1.407zm-4.032 4.284h4.032v-1.533h-4.032v1.533zm5.859 1.428h-5.859v11.277h-1.932v-18.438h7.791v7.161zm-.504 4.767h2.499v-1.995h-2.499v1.995zm6.846 1.617h-2.604v4.515h-1.743v-4.515h-2.541c-.168 1.407-.84 3.549-2.751 4.83-.273-.357-.861-.882-1.26-1.155 1.554-.945 2.142-2.52 2.31-3.675h-2.394v-1.617h2.457v-1.995h-2.079V253.6h10.185v1.554h-2.184v1.995h2.604v1.617zm-2.856-7.77h4.158v-1.575h-4.158v1.575zm4.158-4.326h-4.158v1.407h4.158v-1.407zm1.932-1.449v16.044c0 1.071-.21 1.638-.903 1.974-.672.315-1.722.378-3.297.357-.063-.525-.336-1.407-.63-1.932 1.071.021 2.142.021 2.478.021.315-.021.42-.126.42-.441v-8.82h-6.027v-7.203h7.959zm13.755 11.025v-2.772h-3.192v2.772h3.192zm4.2-2.772h-2.184v2.772h4.746v1.806h-4.746v2.877c0 .714.105.819.777.819h2.037c.609 0 .714-.42.798-2.499.441.315 1.218.651 1.743.756-.168 2.709-.714 3.486-2.352 3.486h-2.562c-1.974 0-2.457-.567-2.457-2.562v-2.877h-3.339c-.399 2.226-1.722 4.326-5.691 5.691-.231-.441-.84-1.197-1.239-1.533 3.234-1.071 4.473-2.583 4.914-4.158h-4.452v-1.806h4.683v-2.772h-2.037v-.756a16.607 16.607 0 0 1-2.982 1.764c-.231-.441-.798-1.134-1.176-1.47 1.365-.567 2.709-1.428 3.906-2.478-.588-.63-1.554-1.428-2.31-2.016l1.218-1.029c.756.504 1.701 1.239 2.31 1.827a13.3 13.3 0 0 0 1.68-2.394h-4.788v-1.701h5.733l.357-.063 1.281.609c-.819 2.352-2.226 4.305-3.906 5.859h8.799c-1.827-1.806-3.276-4.116-4.263-6.699l1.722-.504c.336.861.735 1.68 1.218 2.478.819-.714 1.701-1.575 2.247-2.247l1.47 1.029c-.903.861-1.974 1.785-2.877 2.457.357.483.756.945 1.155 1.386.966-.756 2.037-1.743 2.709-2.499l1.449 1.008c-.924.882-2.079 1.806-3.066 2.52 1.092.924 2.31 1.68 3.633 2.205-.441.378-1.05 1.155-1.344 1.68a13.303 13.303 0 0 1-2.814-1.722v.756zM277.43 206h-26.39v-3.15l20.02-26.25c1.96-2.52 2.8-4.9 2.8-7.77 0-5.95-3.57-9.94-9.59-9.94-5.18 0-9.59 2.94-9.59 9.94h-3.57c0-7.42 4.9-13.09 13.16-13.09 7.98 0 13.16 5.18 13.16 13.09 0 3.71-.91 6.3-3.43 9.59l-18.69 24.43h22.12V206zm34.12-16.31c0 4.76-.28 9.66-3.85 13.23-2.31 2.31-5.46 3.57-9.59 3.57-4.06 0-7.42-1.12-9.59-3.36-1.89-1.89-3.08-4.55-3.36-8.12h3.57c.7 5.32 3.57 8.33 9.38 8.33 2.73 0 5.25-.91 6.86-2.52 2.94-2.94 3.01-7.42 3.01-11.13 0-6.23-1.12-13.3-9.31-13.3-4.55 0-7.98 1.89-9.03 5.25h-3.15v-25.48h23.94v3.15h-20.79v17.64c2.17-2.52 5.39-3.71 9.45-3.71 3.57 0 6.44 1.05 8.4 3.01 3.5 3.5 4.06 8.75 4.06 13.44zm25.93 12.41c0 2.58-1.86 4.11-4.2 4.11s-4.2-1.53-4.2-4.11v-3.03c0-2.58 1.86-4.11 4.2-4.11s4.2 1.53 4.2 4.11v3.03zm-4.65-17.46L322.78 206h-2.46l10.08-21.36h2.43zm-8.73 6.93c0 2.58-1.86 4.08-4.2 4.08s-4.2-1.5-4.2-4.08v-3.03c0-2.58 1.86-4.11 4.2-4.11s4.2 1.53 4.2 4.11v3.03zm11.07 10.44v-2.85c0-1.35-.6-2.16-1.89-2.16s-1.89.78-1.89 2.16v2.85c0 1.38.6 2.16 1.89 2.16s1.89-.81 1.89-2.16zm-13.38-10.53v-2.85c0-1.35-.6-2.16-1.89-2.16s-1.89.78-1.89 2.16v2.85c0 1.38.6 2.13 1.89 2.13s1.89-.78 1.89-2.13z"/>
        </g>
    </g>
</svg>
