<svg xmlns="http://www.w3.org/2000/svg" width="385" height="394" viewBox="0 0 385 394">
    <defs>
        <linearGradient id="a" x1="86.052%" x2="74.281%" y1="24.321%" y2="79.657%">
            <stop offset="0%" stop-color="#D2F0E1"/>
            <stop offset="100%" stop-color="#B4D2F0"/>
        </linearGradient>
        <linearGradient id="b" x1="60.467%" x2="48.189%" y1="90.323%" y2="0%">
            <stop offset="0%" stop-color="#D2F0F0"/>
            <stop offset="100%" stop-color="#F0E6B4"/>
        </linearGradient>
    </defs>
    <g fill="none" fill-rule="evenodd">
        <g stroke="#FFF">
            <path stroke-width="4" d="M382.54 197.298c0 102.633-83.201 185.834-185.835 185.834-102.632 0-185.834-83.2-185.834-185.834S94.073 11.464 196.705 11.464c102.634 0 185.835 83.2 185.835 185.834"/>
            <path fill="url(#a)" d="M381.538 196.298c0 102.632-83.2 185.832-185.833 185.832-102.631 0-185.832-83.2-185.832-185.832 0-102.633 83.2-185.832 185.832-185.832 102.633 0 185.833 83.2 185.833 185.832" transform="translate(1 1)"/>
            <path fill="url(#b)" stroke-width="2" d="M334.659 57.913c-76.559-76.427-200.683-76.427-277.24 0-76.558 76.427-76.558 200.34 0 276.767 76.557 76.427 200.681 76.427 277.24 0l-138.62-138.383 138.62-138.384z" transform="translate(1 1)"/>
        </g>
        <g fill="#462405">
            <path d="M64.286 247.036h9.308v2.21H52.326v-2.21h9.256v-4.42h-6.63v-12.324H71.02v2.184H57.682v2.834H70.5v2.106H57.682v3.068h13.546v2.132h-6.942v4.42zm17.238-2.86v5.2h13.754v2.184H78.82v-7.384h2.704zm12.714-4.238h3.276v2.158H76.22v-2.158h15.314c.286-1.3.416-2.444.52-3.536L78.612 237l-.312-2.21 13.91-.39c.026-.884.026-1.716.026-2.548H78.924v-2.184h15.938v2.106c0 2.262 0 4.758-.624 8.164zm17.082-7.176v7.462c1.014-.026 2.08-.078 3.12-.13v-7.332h-3.12zm8.814 6.89l.182 1.95c-4.654.754-10.036.884-14.04.884l-.286-2.21c.858 0 1.794 0 2.756-.026v-7.488h-2.132v-2.184h12.558v2.184h-2.132v7.202a54.112 54.112 0 0 0 3.094-.312zm-7.956 4.55v5.174h13.104v2.184h-15.808v-7.358h2.704zm12.168-8.736h3.328v2.21h-3.328v8.138h-2.678v-17.29h2.678v6.942zm8.866-2.236v10.53h4.056v-10.53h-4.056zm-2.496 12.662v-14.794h9.048v14.794h-9.048zm16.718-17.368h2.548v23.452h-2.548V239.86h-2.678v11.024h-2.522v-21.918h2.522v8.71h2.678v-9.152zM84.31 150.97L61.63 211h-4.68l22.68-60.03h-24.3v10.08h-4.59v-14.13h33.57v4.05zm43.54 39.06c0 6.12-.36 12.42-4.95 17.01-2.97 2.97-7.02 4.59-12.33 4.59-5.22 0-9.54-1.44-12.33-4.32-2.43-2.43-3.96-5.85-4.32-10.44h4.59c.9 6.84 4.59 10.71 12.06 10.71 3.51 0 6.75-1.17 8.82-3.24 3.78-3.78 3.87-9.54 3.87-14.31 0-8.01-1.44-17.1-11.97-17.1-5.85 0-10.26 2.43-11.61 6.75h-4.05v-32.76h30.78v4.05H99.68v22.68c2.79-3.24 6.93-4.77 12.15-4.77 4.59 0 8.28 1.35 10.8 3.87 4.5 4.5 5.22 11.25 5.22 17.28zm33.462 16.03c0 3.268-2.356 5.206-5.32 5.206-2.964 0-5.32-1.938-5.32-5.206v-3.838c0-3.268 2.356-5.206 5.32-5.206 2.964 0 5.32 1.938 5.32 5.206v3.838zm-5.89-22.116L142.692 211h-3.116l12.768-27.056h3.078zm-11.058 8.778c0 3.268-2.356 5.168-5.32 5.168-2.964 0-5.32-1.9-5.32-5.168v-3.838c0-3.268 2.356-5.206 5.32-5.206 2.964 0 5.32 1.938 5.32 5.206v3.838zm14.022 13.224v-3.61c0-1.71-.76-2.736-2.394-2.736-1.634 0-2.394.988-2.394 2.736v3.61c0 1.748.76 2.736 2.394 2.736 1.634 0 2.394-1.026 2.394-2.736zm-16.948-13.338v-3.61c0-1.71-.76-2.736-2.394-2.736-1.634 0-2.394.988-2.394 2.736v3.61c0 1.748.76 2.698 2.394 2.698 1.634 0 2.394-.988 2.394-2.698z"/>
        </g>
        <g fill="#462405">
            <path d="M274.062 226.29v4.41h-2.037v-10.689h2.037v4.515h1.995v-4.851h2.058v11.634h-2.058v-5.019h-1.995zm-2.478 2.058l-1.155 1.617c-1.68-.651-2.856-1.911-3.57-3.423-.693 1.743-1.932 3.213-3.759 4.011l-1.134-1.659c2.541-1.155 3.822-3.528 3.822-5.691v-2.394h2.1v2.394c0 2.1 1.239 4.179 3.696 5.145zm.21 8.61c2.667 0 4.263-.651 4.263-1.806 0-1.176-1.596-1.827-4.263-1.827s-4.263.651-4.263 1.827c0 1.155 1.596 1.806 4.263 1.806zm0-5.292c3.948 0 6.426 1.302 6.426 3.486 0 2.163-2.478 3.465-6.426 3.465s-6.426-1.302-6.426-3.465c0-2.184 2.478-3.486 6.426-3.486zm12.348-3.234v3.864c2.436-.021 4.074-.105 6.006-.441l.189 1.764c-2.184.399-4.032.462-6.993.462h-1.281v-12.348h7.56v1.743h-5.481v3.255h5.145v1.701h-5.145zm11.382-8.778h2.058v18.942h-2.058v-9.681h-2.121v8.799h-2.016v-17.703h2.016v7.14h2.121v-7.497zm15.498 5.124v-4.662h2.016v17.577h-2.016v-6.384h-3.108v-1.764h3.108v-3.003h-2.772c-.882 3.192-2.877 5.943-6.426 8.064l-1.239-1.533c3.906-2.373 5.796-5.46 6.111-9.345h-5.187v-1.743h7.329c0 .966-.063 1.911-.21 2.793h2.394zm3.822-5.124h2.079v18.963h-2.079v-18.963zm10.605 2.394h7.455c0 5.061-1.659 9.534-6.993 12.6l-1.26-1.533c4.095-2.373 5.817-5.481 6.111-9.303h-5.313v-1.764zm13.377-2.394h2.058v18.963h-2.058v-9.786h-2.163v8.904h-2.037v-17.577h2.037v6.909h2.163v-7.413zm12.705 7.371v-2.415h-4.641v2.415h4.641zm2.142-6.573v8.295h-8.946v-8.295h2.163v2.499h4.641v-2.499h2.142zm-4.872 14.616v1.68h10.71v1.701H346.68v-4.977h10.059v-1.575h-10.101v-1.68h12.243v4.851h-10.08zm10.08-11.529h2.667v1.785h-2.667v4.053h-2.163v-9.723h2.163v3.885zM289.43 206h-26.39v-3.15l20.02-26.25c1.96-2.52 2.8-4.9 2.8-7.77 0-5.95-3.57-9.94-9.59-9.94-5.18 0-9.59 2.94-9.59 9.94h-3.57c0-7.42 4.9-13.09 13.16-13.09 7.98 0 13.16 5.18 13.16 13.09 0 3.71-.91 6.3-3.43 9.59l-18.69 24.43h22.12V206zm34.12-16.31c0 4.76-.28 9.66-3.85 13.23-2.31 2.31-5.46 3.57-9.59 3.57-4.06 0-7.42-1.12-9.59-3.36-1.89-1.89-3.08-4.55-3.36-8.12h3.57c.7 5.32 3.57 8.33 9.38 8.33 2.73 0 5.25-.91 6.86-2.52 2.94-2.94 3.01-7.42 3.01-11.13 0-6.23-1.12-13.3-9.31-13.3-4.55 0-7.98 1.89-9.03 5.25h-3.15v-25.48h23.94v3.15h-20.79v17.64c2.17-2.52 5.39-3.71 9.45-3.71 3.57 0 6.44 1.05 8.4 3.01 3.5 3.5 4.06 8.75 4.06 13.44zm25.93 12.41c0 2.58-1.86 4.11-4.2 4.11s-4.2-1.53-4.2-4.11v-3.03c0-2.58 1.86-4.11 4.2-4.11s4.2 1.53 4.2 4.11v3.03zm-4.65-17.46L334.78 206h-2.46l10.08-21.36h2.43zm-8.73 6.93c0 2.58-1.86 4.08-4.2 4.08s-4.2-1.5-4.2-4.08v-3.03c0-2.58 1.86-4.11 4.2-4.11s4.2 1.53 4.2 4.11v3.03zm11.07 10.44v-2.85c0-1.35-.6-2.16-1.89-2.16s-1.89.78-1.89 2.16v2.85c0 1.38.6 2.16 1.89 2.16s1.89-.81 1.89-2.16zm-13.38-10.53v-2.85c0-1.35-.6-2.16-1.89-2.16s-1.89.78-1.89 2.16v2.85c0 1.38.6 2.13 1.89 2.13s1.89-.78 1.89-2.13z"/>
        </g>
    </g>
</svg>
