<svg xmlns="http://www.w3.org/2000/svg" width="385" height="394" viewBox="0 0 385 394">
    <defs>
        <linearGradient id="a" x1="62.121%" x2="67.844%" y1="-102.184%" y2="147.419%">
            <stop offset="0%" stop-color="#A8FF97"/>
            <stop offset="39.772%" stop-color="#69ECF1"/>
            <stop offset="50.664%" stop-color="#77C9F5"/>
            <stop offset="81.298%" stop-color="#B792FF"/>
            <stop offset="100%" stop-color="#FE7BA0"/>
        </linearGradient>
        <linearGradient id="b" x1="73.956%" x2="76.399%" y1="15.957%" y2="104.994%">
            <stop offset="0%" stop-color="#F0E7D2"/>
            <stop offset="100%" stop-color="#F0B4E4"/>
        </linearGradient>
        <linearGradient id="c" x1="93.413%" x2="63.069%" y1="11.947%" y2="107.986%">
            <stop offset="0%" stop-color="#F4F8D6"/>
            <stop offset="100%" stop-color="#EDDD9D"/>
        </linearGradient>
        <linearGradient id="d" x1="89.873%" x2="32.666%" y1="8.544%" y2="103.707%">
            <stop offset="0%" stop-color="#D2F0E1"/>
            <stop offset="100%" stop-color="#B4D2F0"/>
        </linearGradient>
        <linearGradient id="e" x1="45.919%" x2="90.523%" y1="106.839%" y2="-2.405%">
            <stop offset="0%" stop-color="#D2F0F0"/>
            <stop offset="100%" stop-color="#F0E6B4"/>
        </linearGradient>
    </defs>
    <g fill="none" fill-rule="evenodd">
        <g stroke="#FFF">
            <path fill="url(#a)" stroke-width="4" d="M382 197c0 102.173-82.828 185-185 185S12 299.173 12 197C12 94.828 94.828 12 197 12s185 82.828 185 185" transform="translate(2 1)"/>
            <path fill="url(#b)" d="M382 197c0 102.173-82.828 185-185 185S12 299.173 12 197C12 94.828 94.828 12 197 12s185 82.828 185 185" transform="translate(2 1)"/>
            <path fill="url(#c)" stroke-width="2" d="M88 346.668C118.598 368.884 156.26 382 197 382V197L88 346.668z" transform="translate(2 1)"/>
            <path fill="url(#d)" stroke-width="2" d="M21 254.924C33.182 292.269 57.02 324.377 88.247 347l106.936-146.51a1 1 0 0 0-1.115-1.542L21 254.924z" transform="translate(2 1)"/>
            <path fill="url(#e)" stroke-width="2" d="M9.625 258.974l187.086-60.78a1 1 0 0 0 .69-.95V.598C88.38.598.002 88.964.002 197.97c0 21.293 3.385 41.792 9.624 61.004z" transform="translate(2 1)"/>
        </g>
        <g fill="#462405">
            <path d="M66.286 191.036h9.308v2.21H54.326v-2.21h9.256v-4.42h-6.63v-12.324H73.02v2.184H59.682v2.834H72.5v2.106H59.682v3.068h13.546v2.132h-6.942v4.42zm17.238-2.86v5.2h13.754v2.184H80.82v-7.384h2.704zm12.714-4.238h3.276v2.158H78.22v-2.158h15.314c.286-1.3.416-2.444.52-3.536L80.612 181l-.312-2.21 13.91-.39c.026-.884.026-1.716.026-2.548H80.924v-2.184h15.938v2.106c0 2.262 0 4.758-.624 8.164zm17.082-7.176v7.462c1.014-.026 2.08-.078 3.12-.13v-7.332h-3.12zm8.814 6.89l.182 1.95c-4.654.754-10.036.884-14.04.884l-.286-2.21c.858 0 1.794 0 2.756-.026v-7.488h-2.132v-2.184h12.558v2.184h-2.132v7.202a54.112 54.112 0 0 0 3.094-.312zm-7.956 4.55v5.174h13.104v2.184h-15.808v-7.358h2.704zm12.168-8.736h3.328v2.21h-3.328v8.138h-2.678v-17.29h2.678v6.942zm8.866-2.236v10.53h4.056v-10.53h-4.056zm-2.496 12.662v-14.794h9.048v14.794h-9.048zm16.718-17.368h2.548v23.452h-2.548V183.86h-2.678v11.024h-2.522v-21.918h2.522v8.71h2.678v-9.152zM87.654 142.42c0 10.414-7.216 16.154-16.564 16.154-9.102 0-16.072-4.674-16.646-14.76h4.182c.574 7.954 6.396 11.07 12.464 11.07 6.97 0 12.382-4.674 12.382-12.464 0-7.872-3.772-12.464-12.71-12.464h-.984v-3.69h.984c7.79 0 11.562-4.264 11.562-11.726 0-7.708-5.002-11.808-11.316-11.808-6.888 0-10.906 4.182-11.644 10.66h-4.182c.82-9.102 7.38-14.35 15.826-14.35 9.184 0 15.498 6.15 15.498 15.498 0 6.15-2.46 10.824-8.282 13.284 6.478 2.214 9.43 7.216 9.43 14.596zm39.902.492c0 9.102-6.314 15.58-15.334 15.58s-15.334-6.478-15.334-15.58v-28.208c0-9.102 6.314-15.58 15.334-15.58s15.334 6.478 15.334 15.58v28.208zm-4.182-.41v-27.388c0-6.888-3.854-12.3-11.152-12.3-7.298 0-11.152 5.412-11.152 12.3v27.388c0 6.888 3.854 12.3 11.152 12.3 7.298 0 11.152-5.412 11.152-12.3zm37.714 10.558c0 3.268-2.356 5.206-5.32 5.206-2.964 0-5.32-1.938-5.32-5.206v-3.838c0-3.268 2.356-5.206 5.32-5.206 2.964 0 5.32 1.938 5.32 5.206v3.838zm-5.89-22.116L142.468 158h-3.116l12.768-27.056h3.078zm-11.058 8.778c0 3.268-2.356 5.168-5.32 5.168-2.964 0-5.32-1.9-5.32-5.168v-3.838c0-3.268 2.356-5.206 5.32-5.206 2.964 0 5.32 1.938 5.32 5.206v3.838zm14.022 13.224v-3.61c0-1.71-.76-2.736-2.394-2.736-1.634 0-2.394.988-2.394 2.736v3.61c0 1.748.76 2.736 2.394 2.736 1.634 0 2.394-1.026 2.394-2.736zm-16.948-13.338v-3.61c0-1.71-.76-2.736-2.394-2.736-1.634 0-2.394.988-2.394 2.736v3.61c0 1.748.76 2.698 2.394 2.698 1.634 0 2.394-.988 2.394-2.698z"/>
        </g>
        <g fill="#462405">
            <path d="M221.146 236.78l14.326-.546c.052-1.248.052-2.444.052-3.64v-.676h-13.728v-2.158h16.354v2.834c0 3.406 0 6.63-1.04 11.57l-2.652-.234c.494-2.106.754-3.952.884-5.668l-13.858.702-.338-2.184zm-1.82 8.97h21.216v2.21h-21.216v-2.21zm27.95-7.436v4.94c3.718-.026 6.968-.208 10.686-.806l.286 2.184c-4.03.702-7.54.832-11.674.832h-2.002v-9.308h8.19v-4.368h-8.242v-2.184h10.946v8.71h-8.19zm12.636-10.842h2.704v23.582h-2.704v-23.582zm12.532 16.016c1.612 0 2.6-2.106 2.6-5.824s-.988-5.798-2.6-5.798-2.6 2.08-2.6 5.798.988 5.824 2.6 5.824zm7.514-7.072v-8.45h2.496v21.918h-2.496v-11.258h-2.496c-.234 4.576-2.158 7.384-5.018 7.384-3.042 0-5.044-3.198-5.044-8.346s2.002-8.32 5.044-8.32c2.808 0 4.706 2.678 4.992 7.072h2.522zm4.706-8.892h2.548v23.452h-2.548v-23.452zm23.036-.026h2.704v23.556H307.7v-23.556zm-9.802 1.742c3.51 0 6.058 3.224 6.058 8.268 0 5.096-2.548 8.294-6.058 8.294-3.484 0-6.032-3.198-6.032-8.294 0-5.044 2.548-8.268 6.032-8.268zm0 2.418c-2.028 0-3.458 2.21-3.458 5.85 0 3.692 1.43 5.902 3.458 5.902 2.054 0 3.484-2.21 3.484-5.902 0-3.64-1.43-5.85-3.484-5.85zm20.826 6.63v5.07c3.744-.026 6.422-.156 9.49-.676l.234 2.158c-3.354.598-6.292.702-10.556.702h-1.846v-15.99h10.894v2.21h-8.216v4.394h7.254v2.132h-7.254zm13.078-10.816h2.704v23.556h-2.704v-12.714h-4.498v-2.21h4.498v-8.632zm26.26 6.396v-3.718h-5.408v3.718h5.408zm-8.086 0v-3.718h-3.328v-2.054h17.394v2.054h-3.302v3.718h3.172v2.054h-17.134v-2.054h3.198zm16.042 5.798h-9.308v1.898h6.63v5.46h-13.364v1.768h14.04v2.002h-16.692v-5.616h13.39v-1.638h-13.468v-1.976h6.76v-1.898h-9.282v-2.132h21.294v2.132zM249.982 189.894c0 5.576-.328 11.316-4.51 15.498-2.706 2.706-6.396 4.182-11.234 4.182-4.756 0-8.692-1.312-11.234-3.936-2.214-2.214-3.608-5.33-3.936-9.512h4.182c.82 6.232 4.182 9.758 10.988 9.758 3.198 0 6.15-1.066 8.036-2.952 3.444-3.444 3.526-8.692 3.526-13.038 0-7.298-1.312-15.58-10.906-15.58-5.33 0-9.348 2.214-10.578 6.15h-3.69v-29.848h28.044v3.69h-24.354v20.664c2.542-2.952 6.314-4.346 11.07-4.346 4.182 0 7.544 1.23 9.84 3.526 4.1 4.1 4.756 10.25 4.756 15.744zm39.574 4.018c0 9.102-6.314 15.58-15.334 15.58s-15.334-6.478-15.334-15.58v-28.208c0-9.102 6.314-15.58 15.334-15.58s15.334 6.478 15.334 15.58v28.208zm-4.182-.41v-27.388c0-6.888-3.854-12.3-11.152-12.3-7.298 0-11.152 5.412-11.152 12.3v27.388c0 6.888 3.854 12.3 11.152 12.3 7.298 0 11.152-5.412 11.152-12.3zm37.714 10.558c0 3.268-2.356 5.206-5.32 5.206-2.964 0-5.32-1.938-5.32-5.206v-3.838c0-3.268 2.356-5.206 5.32-5.206 2.964 0 5.32 1.938 5.32 5.206v3.838zm-5.89-22.116L304.468 209h-3.116l12.768-27.056h3.078zm-11.058 8.778c0 3.268-2.356 5.168-5.32 5.168-2.964 0-5.32-1.9-5.32-5.168v-3.838c0-3.268 2.356-5.206 5.32-5.206 2.964 0 5.32 1.938 5.32 5.206v3.838zm14.022 13.224v-3.61c0-1.71-.76-2.736-2.394-2.736-1.634 0-2.394.988-2.394 2.736v3.61c0 1.748.76 2.736 2.394 2.736 1.634 0 2.394-1.026 2.394-2.736zm-16.948-13.338v-3.61c0-1.71-.76-2.736-2.394-2.736-1.634 0-2.394.988-2.394 2.736v3.61c0 1.748.76 2.698 2.394 2.698 1.634 0 2.394-.988 2.394-2.698z"/>
        </g>
        <g fill="#462405">
            <path d="M67.196 294.82v3.78H65.45v-9.162h1.746v3.87h1.71v-4.158h1.764v9.972h-1.764v-4.302h-1.71zm-2.124 1.764l-.99 1.386c-1.44-.558-2.448-1.638-3.06-2.934-.594 1.494-1.656 2.754-3.222 3.438l-.972-1.422c2.178-.99 3.276-3.024 3.276-4.878v-2.052h1.8v2.052c0 1.8 1.062 3.582 3.168 4.41zm.18 7.38c2.286 0 3.654-.558 3.654-1.548 0-1.008-1.368-1.566-3.654-1.566-2.286 0-3.654.558-3.654 1.566 0 .99 1.368 1.548 3.654 1.548zm0-4.536c3.384 0 5.508 1.116 5.508 2.988 0 1.854-2.124 2.97-5.508 2.97s-5.508-1.116-5.508-2.97c0-1.872 2.124-2.988 5.508-2.988zm10.584-2.772v3.312c2.088-.018 3.492-.09 5.148-.378l.162 1.512c-1.872.342-3.456.396-5.994.396h-1.098v-10.584h6.48v1.494h-4.698v2.79h4.41v1.458h-4.41zm9.756-7.524h1.764v16.236h-1.764v-8.298h-1.818v7.542h-1.728v-15.174h1.728v6.12h1.818v-6.426zm13.284 4.392v-3.996h1.728v15.066h-1.728v-5.472h-2.664v-1.512h2.664v-2.574H96.5c-.756 2.736-2.466 5.094-5.508 6.912l-1.062-1.314c3.348-2.034 4.968-4.68 5.238-8.01h-4.446v-1.494h6.282c0 .828-.054 1.638-.18 2.394h2.052zm3.276-4.392h1.782v16.254h-1.782v-16.254zm-44.64 22.052h6.39c0 4.338-1.422 8.172-5.994 10.8l-1.08-1.314c3.51-2.034 4.986-4.698 5.238-7.974h-4.554v-1.512zm11.466-2.052h1.764v16.254h-1.764v-8.388h-1.854v7.632h-1.746v-15.066h1.746v5.922h1.854v-6.354zm10.89 6.318v-2.07H75.89v2.07h3.978zm1.836-5.634v7.11h-7.668v-7.11h1.854v2.142h3.978v-2.142h1.836zm-4.176 12.528v1.44h9.18v1.458H75.71v-4.266h8.622v-1.35h-8.658v-1.44h10.494v4.158h-8.64zm8.64-9.882h2.286v1.53h-2.286v3.474h-1.854v-8.334h1.854v3.33zM61.52 281h-2.04v-26.16l-5.16 4.56v-2.44l5.16-4.44h2.04V281zm23.8-7.36c0 4.44-3.08 7.6-7.48 7.6s-7.48-3.16-7.48-7.6v-13.76c0-4.44 3.08-7.6 7.48-7.6s7.48 3.16 7.48 7.6v13.76zm-2.04-.2v-13.36c0-3.36-1.88-6-5.44-6-3.56 0-5.44 2.64-5.44 6v13.36c0 3.36 1.88 6 5.44 6 3.56 0 5.44-2.64 5.44-6zm18.52 4.96c0 1.72-1.24 2.74-2.8 2.74-1.56 0-2.8-1.02-2.8-2.74v-2.02c0-1.72 1.24-2.74 2.8-2.74 1.56 0 2.8 1.02 2.8 2.74v2.02zm-3.1-11.64L92 281h-1.64l6.72-14.24h1.62zm-5.82 4.62c0 1.72-1.24 2.72-2.8 2.72-1.56 0-2.8-1-2.8-2.72v-2.02c0-1.72 1.24-2.74 2.8-2.74 1.56 0 2.8 1.02 2.8 2.74v2.02zm7.38 6.96v-1.9c0-.9-.4-1.44-1.26-1.44s-1.26.52-1.26 1.44v1.9c0 .92.4 1.44 1.26 1.44s1.26-.54 1.26-1.44zm-8.92-7.02v-1.9c0-.9-.4-1.44-1.26-1.44s-1.26.52-1.26 1.44v1.9c0 .92.4 1.42 1.26 1.42s1.26-.52 1.26-1.42z"/>
        </g>
        <g fill="#462405">
            <path d="M144.818 348.026l.18 1.476c-2.322.378-4.32.432-7.812.432h-1.35v-7.866h7.776v1.494h-5.94v1.674h5.472v1.458h-5.472v1.764c3.132 0 4.986-.072 7.146-.432zm-5.328 5.022v2.664h7.002v-2.664h-7.002zm-1.818 4.14v-5.616h10.638v5.616h-10.638zm8.784-16.056h1.854v9.684h-1.854v-9.684zM140.52 334h-2.04v-26.16l-5.16 4.56v-2.44l5.16-4.44h2.04V334zm23.8-7.36c0 4.44-3.08 7.6-7.48 7.6s-7.48-3.16-7.48-7.6v-13.76c0-4.44 3.08-7.6 7.48-7.6s7.48 3.16 7.48 7.6v13.76zm-2.04-.2v-13.36c0-3.36-1.88-6-5.44-6-3.56 0-5.44 2.64-5.44 6v13.36c0 3.36 1.88 6 5.44 6 3.56 0 5.44-2.64 5.44-6zm18.52 4.96c0 1.72-1.24 2.74-2.8 2.74-1.56 0-2.8-1.02-2.8-2.74v-2.02c0-1.72 1.24-2.74 2.8-2.74 1.56 0 2.8 1.02 2.8 2.74v2.02zm-3.1-11.64L171 334h-1.64l6.72-14.24h1.62zm-5.82 4.62c0 1.72-1.24 2.72-2.8 2.72-1.56 0-2.8-1-2.8-2.72v-2.02c0-1.72 1.24-2.74 2.8-2.74 1.56 0 2.8 1.02 2.8 2.74v2.02zm7.38 6.96v-1.9c0-.9-.4-1.44-1.26-1.44s-1.26.52-1.26 1.44v1.9c0 .92.4 1.44 1.26 1.44s1.26-.54 1.26-1.44zm-8.92-7.02v-1.9c0-.9-.4-1.44-1.26-1.44s-1.26.52-1.26 1.44v1.9c0 .92.4 1.42 1.26 1.42s1.26-.52 1.26-1.42z"/>
        </g>
    </g>
</svg>
