<svg xmlns="http://www.w3.org/2000/svg" width="385" height="394" viewBox="0 0 385 394">
    <defs>
        <linearGradient id="a" x1="86.052%" x2="74.281%" y1="24.321%" y2="79.657%">
            <stop offset="0%" stop-color="#D2F0E1"/>
            <stop offset="100%" stop-color="#B4D2F0"/>
        </linearGradient>
        <linearGradient id="b" x1="60.467%" x2="48.189%" y1="90.323%" y2="0%">
            <stop offset="0%" stop-color="#D2F0F0"/>
            <stop offset="100%" stop-color="#F0E6B4"/>
        </linearGradient>
    </defs>
    <g fill="none" fill-rule="evenodd">
        <g stroke="#FFF">
            <path stroke-width="4" d="M382.54 197.298c0 102.633-83.201 185.834-185.835 185.834-102.632 0-185.834-83.2-185.834-185.834S94.073 11.464 196.705 11.464c102.634 0 185.835 83.2 185.835 185.834"/>
            <path fill="url(#a)" d="M381.538 196.298c0 102.632-83.2 185.832-185.833 185.832-102.631 0-185.832-83.2-185.832-185.832 0-102.633 83.2-185.832 185.832-185.832 102.633 0 185.833 83.2 185.833 185.832" transform="translate(1 1)"/>
            <path fill="url(#b)" stroke-width="2" d="M334.659 57.913c-76.559-76.427-200.683-76.427-277.24 0-76.558 76.427-76.558 200.34 0 276.767 76.557 76.427 200.681 76.427 277.24 0l-138.62-138.383 138.62-138.384z" transform="translate(1 1)"/>
        </g>
        <g fill="#462405">
            <path d="M59.861 250h-3.034v-15.958h-5.459v-2.603H65.32v2.603h-5.459V250zm18.624-7.046c0 2.294-.588 4.084-1.764 5.37-1.177 1.287-2.814 1.93-4.913 1.93-1.312 0-2.472-.296-3.479-.889-1.007-.592-1.781-1.443-2.323-2.552-.542-1.108-.813-2.395-.813-3.859 0-2.277.584-4.054 1.752-5.332 1.168-1.278 2.814-1.917 4.939-1.917 2.031 0 3.64.654 4.824 1.962 1.185 1.307 1.777 3.07 1.777 5.287zm-10.22 0c0 3.242 1.198 4.862 3.593 4.862 2.37 0 3.555-1.62 3.555-4.862 0-3.208-1.193-4.811-3.58-4.811-1.253 0-2.16.414-2.723 1.244-.563.83-.844 2.018-.844 3.567zm16.53-.368l1.688-2.107 4.24-4.52h3.441l-5.65 6.03L94.52 250h-3.504l-4.507-6.157-1.638 1.345V250h-2.958v-19.754h2.958v9.636l-.152 2.704h.076zm17.596 7.668c-2.184 0-3.891-.637-5.123-1.91-1.231-1.275-1.847-3.029-1.847-5.263 0-2.294.571-4.096 1.714-5.408 1.142-1.312 2.712-1.968 4.71-1.968 1.853 0 3.317.563 4.392 1.689 1.075 1.125 1.613 2.674 1.613 4.646v1.612h-9.357c.042 1.363.41 2.41 1.105 3.142.694.733 1.671 1.099 2.932 1.099.83 0 1.602-.079 2.317-.235a12.145 12.145 0 0 0 2.304-.781v2.425a9.16 9.16 0 0 1-2.209.736c-.744.144-1.595.216-2.551.216zm-.546-12.29c-.948 0-1.708.301-2.28.902-.57.601-.911 1.477-1.021 2.628h6.373c-.017-1.16-.296-2.037-.838-2.634s-1.286-.895-2.234-.895zM123.592 250h-2.996v-8.633c0-1.083-.218-1.891-.654-2.425-.436-.533-1.128-.8-2.076-.8-1.26 0-2.183.373-2.767 1.118-.584.745-.876 1.993-.876 3.745V250h-2.984v-14.041h2.336l.42 1.84h.151c.424-.668 1.025-1.184 1.803-1.548.779-.364 1.642-.546 2.59-.546 3.369 0 5.053 1.714 5.053 5.142V250zm21.925-5.04c0 1.65-.597 2.945-1.79 3.885-1.194.94-2.84 1.409-4.939 1.409s-3.817-.326-5.154-.978v-2.869c.846.398 1.745.711 2.698.94.952.228 1.838.342 2.66.342 1.201 0 2.088-.228 2.659-.685.571-.457.857-1.07.857-1.84 0-.695-.263-1.283-.787-1.766-.525-.482-1.608-1.053-3.25-1.713-1.693-.686-2.886-1.469-3.58-2.35-.694-.88-1.041-1.937-1.041-3.173 0-1.549.55-2.767 1.65-3.656 1.1-.889 2.577-1.333 4.43-1.333 1.778 0 3.547.39 5.307 1.168l-.965 2.475c-1.65-.694-3.123-1.04-4.418-1.04-.981 0-1.726.213-2.234.64-.508.428-.762.993-.762 1.695 0 .483.102.895.305 1.238.203.343.538.667 1.003.971.466.305 1.303.707 2.514 1.206 1.362.567 2.361 1.096 2.996 1.587.635.491 1.1 1.046 1.396 1.663.296.618.445 1.346.445 2.184zm12.06 5.04l-.597-1.955h-.101c-.677.855-1.358 1.437-2.044 1.746-.686.308-1.566.463-2.64.463-1.38 0-2.457-.372-3.232-1.117-.774-.745-1.161-1.799-1.161-3.161 0-1.448.537-2.54 1.612-3.276 1.075-.736 2.713-1.138 4.913-1.206l2.425-.076v-.75c0-.896-.21-1.567-.628-2.011-.42-.445-1.069-.667-1.95-.667-.719 0-1.408.106-2.069.318-.66.211-1.294.46-1.904.749l-.965-2.133c.762-.398 1.596-.7 2.501-.908a11.51 11.51 0 0 1 2.565-.31c1.786 0 3.133.388 4.043 1.167.91.779 1.365 2.002 1.365 3.669V250h-2.133zm-4.443-2.031c1.083 0 1.953-.303 2.609-.908.656-.605.984-1.454.984-2.545v-1.22l-1.803.077c-1.405.05-2.427.286-3.066.705-.64.419-.959 1.06-.959 1.923 0 .626.187 1.11.559 1.454.372.342.931.514 1.676.514zM166.857 250h-2.983v-19.754h2.983V250zm10.398.254c-2.184 0-3.891-.637-5.123-1.91-1.231-1.275-1.847-3.029-1.847-5.263 0-2.294.571-4.096 1.714-5.408 1.143-1.312 2.713-1.968 4.71-1.968 1.854 0 3.318.563 4.393 1.689 1.074 1.125 1.612 2.674 1.612 4.646v1.612h-9.357c.043 1.363.41 2.41 1.105 3.142.694.733 1.671 1.099 2.933 1.099.829 0 1.601-.079 2.316-.235a12.145 12.145 0 0 0 2.305-.781v2.425a9.16 9.16 0 0 1-2.21.736c-.744.144-1.595.216-2.551.216zm-.546-12.29c-.948 0-1.708.301-2.279.902s-.912 1.477-1.022 2.628h6.373c-.017-1.16-.296-2.037-.838-2.634-.541-.597-1.286-.895-2.234-.895zM84.31 150.97L61.63 211h-4.68l22.68-60.03h-24.3v10.08h-4.59v-14.13h33.57v4.05zm43.54 39.06c0 6.12-.36 12.42-4.95 17.01-2.97 2.97-7.02 4.59-12.33 4.59-5.22 0-9.54-1.44-12.33-4.32-2.43-2.43-3.96-5.85-4.32-10.44h4.59c.9 6.84 4.59 10.71 12.06 10.71 3.51 0 6.75-1.17 8.82-3.24 3.78-3.78 3.87-9.54 3.87-14.31 0-8.01-1.44-17.1-11.97-17.1-5.85 0-10.26 2.43-11.61 6.75h-4.05v-32.76h30.78v4.05H99.68v22.68c2.79-3.24 6.93-4.77 12.15-4.77 4.59 0 8.28 1.35 10.8 3.87 4.5 4.5 5.22 11.25 5.22 17.28zm33.462 16.03c0 3.268-2.356 5.206-5.32 5.206-2.964 0-5.32-1.938-5.32-5.206v-3.838c0-3.268 2.356-5.206 5.32-5.206 2.964 0 5.32 1.938 5.32 5.206v3.838zm-5.89-22.116L142.692 211h-3.116l12.768-27.056h3.078zm-11.058 8.778c0 3.268-2.356 5.168-5.32 5.168-2.964 0-5.32-1.9-5.32-5.168v-3.838c0-3.268 2.356-5.206 5.32-5.206 2.964 0 5.32 1.938 5.32 5.206v3.838zm14.022 13.224v-3.61c0-1.71-.76-2.736-2.394-2.736-1.634 0-2.394.988-2.394 2.736v3.61c0 1.748.76 2.736 2.394 2.736 1.634 0 2.394-1.026 2.394-2.736zm-16.948-13.338v-3.61c0-1.71-.76-2.736-2.394-2.736-1.634 0-2.394.988-2.394 2.736v3.61c0 1.748.76 2.698 2.394 2.698 1.634 0 2.394-.988 2.394-2.698z"/>
        </g>
        <g fill="#462405">
            <path d="M268.969 225h-6.461v-11.422h6.46v1.578h-4.593v3.11h4.305v1.562h-4.305v3.586h4.594V225zm5.758.156c-1.308 0-2.301-.381-2.98-1.144-.68-.763-1.02-1.858-1.02-3.285 0-1.454.355-2.57 1.066-3.352.71-.781 1.738-1.172 3.082-1.172.911 0 1.732.17 2.46.508l-.554 1.476c-.776-.302-1.416-.453-1.922-.453-1.494 0-2.242.993-2.242 2.977 0 .969.186 1.697.559 2.184.372.487.918.73 1.637.73.817 0 1.59-.203 2.32-.61v1.602c-.328.193-.679.33-1.051.414a6.305 6.305 0 0 1-1.355.125zm12.101-4.492c0 1.412-.362 2.513-1.086 3.305-.724.791-1.732 1.187-3.023 1.187-.808 0-1.521-.182-2.14-.547a3.61 3.61 0 0 1-1.43-1.57c-.334-.682-.5-1.474-.5-2.375 0-1.401.359-2.495 1.078-3.281.718-.787 1.731-1.18 3.039-1.18 1.25 0 2.24.402 2.968 1.207.73.805 1.094 1.89 1.094 3.254zm-6.289 0c0 1.995.737 2.992 2.211 2.992 1.458 0 2.188-.997 2.188-2.992 0-1.974-.735-2.96-2.204-2.96-.77 0-1.33.254-1.675.765-.347.51-.52 1.242-.52 2.195zm14.203 1.875c0 .844-.307 1.49-.922 1.941-.614.451-1.494.676-2.64.676-1.151 0-2.076-.174-2.774-.523v-1.586c1.016.469 1.961.703 2.836.703 1.13 0 1.695-.341 1.695-1.023a.81.81 0 0 0-.187-.547c-.125-.146-.33-.297-.617-.453a10.621 10.621 0 0 0-1.195-.532c-.995-.385-1.668-.77-2.02-1.156-.352-.385-.527-.885-.527-1.5 0-.74.298-1.314.894-1.723.597-.408 1.408-.613 2.434-.613 1.015 0 1.976.206 2.883.617l-.594 1.383c-.932-.385-1.716-.578-2.352-.578-.969 0-1.453.276-1.453.828 0 .271.126.5.379.688.253.187.803.445 1.652.773.714.276 1.232.529 1.555.758.323.229.563.493.719.793.156.3.234.657.234 1.074zm.672-6.18h2l1.758 4.899c.266.698.443 1.354.531 1.969h.063c.047-.287.132-.635.257-1.043.125-.41.787-2.35 1.985-5.825h1.984l-3.695 9.79c-.672 1.796-1.792 2.695-3.36 2.695-.406 0-.802-.045-1.187-.133v-1.453c.276.062.591.094.945.094.886 0 1.508-.513 1.868-1.54l.32-.812-3.469-8.64zm15.695 6.18c0 .844-.307 1.49-.921 1.941-.615.451-1.495.676-2.641.676-1.151 0-2.076-.174-2.774-.523v-1.586c1.016.469 1.961.703 2.836.703 1.13 0 1.696-.341 1.696-1.023a.81.81 0 0 0-.188-.547c-.125-.146-.33-.297-.617-.453a10.621 10.621 0 0 0-1.195-.532c-.995-.385-1.668-.77-2.02-1.156-.351-.385-.527-.885-.527-1.5 0-.74.298-1.314.894-1.723.597-.408 1.408-.613 2.434-.613 1.016 0 1.976.206 2.883.617l-.594 1.383c-.932-.385-1.716-.578-2.352-.578-.968 0-1.453.276-1.453.828 0 .271.127.5.38.688.252.187.803.445 1.652.773.713.276 1.231.529 1.554.758.323.229.563.493.719.793.156.3.234.657.234 1.074zm5.204 1.133c.447 0 .895-.07 1.343-.211v1.383a3.706 3.706 0 0 1-.785.222c-.32.06-.652.09-.996.09-1.74 0-2.61-.916-2.61-2.75v-4.656h-1.18v-.813l1.267-.671.625-1.828h1.132v1.921h2.461v1.391h-2.46v4.625c0 .443.11.77.331.98.222.211.512.317.872.317zm6.843 1.484c-1.344 0-2.394-.392-3.152-1.176-.758-.783-1.137-1.863-1.137-3.238 0-1.411.352-2.52 1.055-3.328.703-.807 1.67-1.21 2.898-1.21 1.14 0 2.042.345 2.703 1.038.662.693.993 1.646.993 2.86v.992h-5.758c.026.838.252 1.483.68 1.933.427.45 1.028.676 1.804.676.51 0 .986-.048 1.426-.144.44-.097.913-.257 1.418-.48v1.491a5.637 5.637 0 0 1-1.36.453 8.336 8.336 0 0 1-1.57.133zm-.336-7.562c-.583 0-1.05.185-1.402.554-.352.37-.561.91-.629 1.618h3.922c-.01-.714-.182-1.254-.516-1.621-.333-.368-.791-.551-1.375-.551zM335.883 225h-1.844v-5.328c0-.662-.125-1.155-.375-1.48-.25-.326-.64-.489-1.172-.489-.708 0-1.228.23-1.558.692-.331.46-.497 1.227-.497 2.3V225h-1.835v-8.64h1.437l.258 1.132h.094c.24-.411.587-.729 1.043-.953a3.363 3.363 0 0 1 1.503-.336c1.329 0 2.209.453 2.641 1.36h.125c.255-.428.615-.76 1.078-1 .464-.24.995-.36 1.594-.36 1.031 0 1.783.26 2.254.781.471.521.707 1.315.707 2.383V225H339.5v-5.328c0-.662-.126-1.155-.379-1.48-.253-.326-.644-.489-1.176-.489-.713 0-1.235.223-1.566.668-.33.445-.496 1.129-.496 2.05V225zm-64.086 14.18c0 1.885-.524 3.327-1.57 4.324-1.047.997-2.555 1.496-4.524 1.496h-3.195v-11.422h3.531c1.818 0 3.232.49 4.242 1.469 1.01.979 1.516 2.357 1.516 4.133zm-1.969.062c0-2.734-1.279-4.101-3.836-4.101h-1.617v8.289h1.328c2.75 0 4.125-1.396 4.125-4.188zm8 5.914c-1.344 0-2.394-.392-3.152-1.176-.758-.783-1.137-1.863-1.137-3.238 0-1.411.352-2.52 1.055-3.328.703-.807 1.669-1.21 2.898-1.21 1.14 0 2.042.345 2.703 1.038.662.693.993 1.646.993 2.86v.992h-5.758c.026.838.252 1.483.68 1.933.426.45 1.028.676 1.804.676.51 0 .986-.048 1.426-.144.44-.097.913-.257 1.418-.48v1.491a5.637 5.637 0 0 1-1.36.453 8.336 8.336 0 0 1-1.57.133zm-.336-7.562c-.583 0-1.05.185-1.402.554-.352.37-.561.91-.63 1.618h3.923c-.01-.714-.182-1.254-.516-1.621-.333-.368-.791-.551-1.375-.551zm7.43 7.406l-3.281-8.64h1.937l1.758 5.023c.302.844.484 1.526.547 2.047h.062c.047-.375.23-1.058.547-2.047l1.758-5.024h1.953L286.906 245h-1.984zm10.367.156c-1.344 0-2.394-.392-3.152-1.176-.758-.783-1.137-1.863-1.137-3.238 0-1.411.352-2.52 1.055-3.328.703-.807 1.669-1.21 2.898-1.21 1.14 0 2.042.345 2.703 1.038.662.693.992 1.646.992 2.86v.992h-5.757c.026.838.252 1.483.68 1.933.426.45 1.028.676 1.804.676.51 0 .986-.048 1.426-.144.44-.097.913-.257 1.418-.48v1.491a5.637 5.637 0 0 1-1.36.453 8.336 8.336 0 0 1-1.57.133zm-.336-7.562c-.583 0-1.05.185-1.402.554-.352.37-.561.91-.63 1.618h3.923c-.01-.714-.183-1.254-.516-1.621-.333-.368-.792-.551-1.375-.551zM302.57 245h-1.836v-12.156h1.836V245zm10.29-4.336c0 1.412-.363 2.513-1.087 3.305-.724.791-1.731 1.187-3.023 1.187-.807 0-1.52-.182-2.14-.547a3.61 3.61 0 0 1-1.43-1.57c-.334-.682-.5-1.474-.5-2.375 0-1.401.36-2.495 1.078-3.281.719-.787 1.732-1.18 3.039-1.18 1.25 0 2.24.402 2.969 1.207.729.805 1.093 1.89 1.093 3.254zm-6.29 0c0 1.995.737 2.992 2.211 2.992 1.459 0 2.188-.997 2.188-2.992 0-1.974-.735-2.96-2.203-2.96-.771 0-1.33.254-1.676.765-.347.51-.52 1.242-.52 2.195zm12.782 4.492c-1.094 0-1.943-.393-2.547-1.18h-.11c.073.73.11 1.172.11 1.329v3.539h-1.836v-12.485h1.484c.042.162.128.547.258 1.157h.094c.573-.875 1.432-1.313 2.578-1.313 1.078 0 1.918.39 2.52 1.172.6.781.902 1.878.902 3.29 0 1.41-.306 2.512-.918 3.304-.612.791-1.457 1.187-2.535 1.187zm-.446-7.453c-.729 0-1.261.214-1.597.64-.336.428-.504 1.11-.504 2.048v.273c0 1.052.166 1.814.5 2.285.333.472.877.707 1.632.707.636 0 1.125-.26 1.47-.781.343-.52.515-1.263.515-2.227 0-.968-.17-1.701-.512-2.199-.341-.497-.842-.746-1.504-.746zM332.22 245h-1.844v-5.328c0-.662-.125-1.155-.375-1.48-.25-.326-.64-.489-1.172-.489-.708 0-1.228.23-1.558.692-.331.46-.497 1.227-.497 2.3V245h-1.836v-8.64h1.438l.258 1.132h.094c.24-.411.587-.729 1.043-.953a3.363 3.363 0 0 1 1.503-.336c1.329 0 2.209.453 2.641 1.36h.125c.255-.428.615-.76 1.078-1 .464-.24.995-.36 1.594-.36 1.031 0 1.782.26 2.254.781.471.521.707 1.315.707 2.383V245h-1.836v-5.328c0-.662-.126-1.155-.379-1.48-.253-.326-.644-.489-1.176-.489-.713 0-1.235.223-1.566.668-.33.445-.496 1.129-.496 2.05V245zm11.789.156c-1.344 0-2.395-.392-3.153-1.176-.757-.783-1.136-1.863-1.136-3.238 0-1.411.351-2.52 1.054-3.328.704-.807 1.67-1.21 2.899-1.21 1.14 0 2.042.345 2.703 1.038.661.693.992 1.646.992 2.86v.992h-5.758c.026.838.253 1.483.68 1.933.427.45 1.029.676 1.805.676.51 0 .985-.048 1.426-.144.44-.097.912-.257 1.418-.48v1.491a5.637 5.637 0 0 1-1.36.453 8.336 8.336 0 0 1-1.57.133zm-.336-7.562c-.583 0-1.05.185-1.402.554-.352.37-.562.91-.63 1.618h3.923c-.01-.714-.183-1.254-.516-1.621-.333-.368-.792-.551-1.375-.551zM357.055 245h-1.844v-5.313c0-.666-.134-1.164-.402-1.492-.269-.328-.694-.492-1.278-.492-.776 0-1.343.23-1.703.688-.36.458-.539 1.226-.539 2.304V245h-1.836v-8.64h1.438l.257 1.132h.094c.26-.411.63-.729 1.11-.953a3.718 3.718 0 0 1 1.593-.336c2.073 0 3.11 1.055 3.11 3.164V245zm5.773-1.328c.448 0 .896-.07 1.344-.211v1.383a3.706 3.706 0 0 1-.785.222c-.32.06-.653.09-.996.09-1.74 0-2.61-.916-2.61-2.75v-4.656h-1.18v-.813l1.266-.671.625-1.828h1.133v1.921h2.46v1.391h-2.46v4.625c0 .443.11.77.332.98.221.211.512.317.871.317zM284.94 198h-22.62v-2.7l17.16-22.5c1.68-2.16 2.4-4.2 2.4-6.66 0-5.1-3.06-8.52-8.22-8.52-4.44 0-8.22 2.52-8.22 8.52h-3.06c0-6.36 4.2-11.22 11.28-11.22 6.84 0 11.28 4.44 11.28 11.22 0 3.18-.78 5.4-2.94 8.22l-16.02 20.94h18.96v2.7zm28.96-13.98c0 4.08-.24 8.28-3.3 11.34-1.98 1.98-4.68 3.06-8.22 3.06-3.48 0-6.36-.96-8.22-2.88-1.62-1.62-2.64-3.9-2.88-6.96h3.06c.6 4.56 3.06 7.14 8.04 7.14 2.34 0 4.5-.78 5.88-2.16 2.52-2.52 2.58-6.36 2.58-9.54 0-5.34-.96-11.4-7.98-11.4-3.9 0-6.84 1.62-7.74 4.5h-2.7v-21.84h20.52v2.7h-17.82v15.12c1.86-2.16 4.62-3.18 8.1-3.18 3.06 0 5.52.9 7.2 2.58 3 3 3.48 7.5 3.48 11.52zm25.3 10.08c0 2.58-1.86 4.11-4.2 4.11s-4.2-1.53-4.2-4.11v-3.03c0-2.58 1.86-4.11 4.2-4.11s4.2 1.53 4.2 4.11v3.03zm-4.65-17.46L324.5 198h-2.46l10.08-21.36h2.43zm-8.73 6.93c0 2.58-1.86 4.08-4.2 4.08s-4.2-1.5-4.2-4.08v-3.03c0-2.58 1.86-4.11 4.2-4.11s4.2 1.53 4.2 4.11v3.03zm11.07 10.44v-2.85c0-1.35-.6-2.16-1.89-2.16s-1.89.78-1.89 2.16v2.85c0 1.38.6 2.16 1.89 2.16s1.89-.81 1.89-2.16zm-13.38-10.53v-2.85c0-1.35-.6-2.16-1.89-2.16s-1.89.78-1.89 2.16v2.85c0 1.38.6 2.13 1.89 2.13s1.89-.78 1.89-2.13z"/>
        </g>
    </g>
</svg>
