<svg xmlns="http://www.w3.org/2000/svg" width="385" height="394" viewBox="0 0 385 394">
    <defs>
        <linearGradient id="a" x1="86.052%" x2="74.281%" y1="24.321%" y2="79.657%">
            <stop offset="0%" stop-color="#D2F0E1"/>
            <stop offset="100%" stop-color="#B4D2F0"/>
        </linearGradient>
        <linearGradient id="b" x1="60.467%" x2="48.189%" y1="90.323%" y2="0%">
            <stop offset="0%" stop-color="#D2F0F0"/>
            <stop offset="100%" stop-color="#F0E6B4"/>
        </linearGradient>
    </defs>
    <g fill="none" fill-rule="evenodd">
        <g stroke="#FFF">
            <path stroke-width="4" d="M382.54 197.298c0 102.633-83.201 185.834-185.835 185.834-102.632 0-185.834-83.2-185.834-185.834S94.073 11.464 196.705 11.464c102.634 0 185.835 83.2 185.835 185.834"/>
            <path fill="url(#a)" d="M381.538 196.298c0 102.632-83.2 185.832-185.833 185.832-102.631 0-185.832-83.2-185.832-185.832 0-102.633 83.2-185.832 185.832-185.832 102.633 0 185.833 83.2 185.833 185.832" transform="translate(1 1)"/>
            <path fill="url(#b)" stroke-width="2" d="M334.659 57.913c-76.559-76.427-200.683-76.427-277.24 0-76.558 76.427-76.558 200.34 0 276.767 76.557 76.427 200.681 76.427 277.24 0l-138.62-138.383 138.62-138.384z" transform="translate(1 1)"/>
        </g>
        <g fill="#462405">
            <path d="M67.72 247h-3.047v-15.958h-8.189V247H53.45v-18.56h14.27V247zm11.692.254c-1.777 0-3.157-.64-4.139-1.917h-.177c.118 1.185.177 1.904.177 2.158v5.751H72.29V232.96h2.412c.068.262.208.889.42 1.879h.151c.931-1.422 2.328-2.133 4.19-2.133 1.752 0 3.117.635 4.094 1.904.978 1.27 1.466 3.051 1.466 5.345 0 2.294-.497 4.084-1.491 5.37-.995 1.287-2.368 1.93-4.12 1.93zm-.724-12.111c-1.184 0-2.05.347-2.596 1.04-.546.695-.819 1.803-.819 3.327v.444c0 1.71.271 2.948.813 3.713.542.766 1.426 1.15 2.653 1.15 1.033 0 1.828-.424 2.387-1.27.559-.846.838-2.053.838-3.618 0-1.575-.277-2.766-.832-3.574-.554-.808-1.369-1.212-2.444-1.212zm22.255 4.811c0 2.294-.588 4.084-1.764 5.37-1.177 1.287-2.814 1.93-4.913 1.93-1.312 0-2.472-.296-3.479-.889-1.007-.592-1.781-1.443-2.323-2.552-.542-1.108-.813-2.395-.813-3.859 0-2.277.584-4.054 1.752-5.332 1.168-1.278 2.814-1.917 4.939-1.917 2.031 0 3.64.654 4.824 1.962 1.185 1.307 1.777 3.07 1.777 5.287zm-10.22 0c0 3.242 1.198 4.862 3.593 4.862 2.37 0 3.555-1.62 3.555-4.862 0-3.208-1.193-4.811-3.58-4.811-1.253 0-2.16.414-2.723 1.244-.563.83-.844 2.018-.844 3.567zm27.118 12.01h-2.78V247h-9.624v4.964h-2.754v-7.275h1.142c.999-1.43 1.792-3.159 2.38-5.186.589-2.027.938-4.208 1.048-6.544h8.531v11.73h2.057v7.275zm-4.99-7.275v-9.445h-3.02a26.008 26.008 0 0 1-1.01 5.154c-.512 1.693-1.136 3.123-1.873 4.291h5.904zM129.23 247l-.597-1.955h-.102c-.677.855-1.358 1.437-2.044 1.746-.685.308-1.565.463-2.64.463-1.38 0-2.457-.372-3.231-1.117-.775-.745-1.162-1.799-1.162-3.161 0-1.448.538-2.54 1.612-3.276 1.075-.736 2.713-1.138 4.914-1.206l2.424-.076v-.75c0-.896-.21-1.567-.628-2.011-.419-.445-1.069-.667-1.949-.667-.72 0-1.409.106-2.07.318-.66.211-1.294.46-1.903.749l-.965-2.133c.761-.398 1.595-.7 2.5-.908a11.51 11.51 0 0 1 2.565-.31c1.786 0 3.134.388 4.044 1.167.91.779 1.364 2.002 1.364 3.669V247h-2.132zm-4.444-2.031c1.083 0 1.953-.303 2.609-.908.656-.605.984-1.454.984-2.545v-1.22l-1.803.077c-1.405.05-2.427.286-3.066.705-.639.419-.958 1.06-.958 1.923 0 .626.186 1.11.558 1.454.373.342.931.514 1.676.514zm17.66-5.193v-6.817h2.78v6.817l5.408-6.817h3.148l-5.522 6.792 6.017 7.249h-3.288l-5.763-7.122V247h-2.78v-7.122L136.692 247h-3.275l6.005-7.249-5.51-6.792h3.149l5.382 6.817zM165.22 247l-.597-1.955h-.102c-.677.855-1.358 1.437-2.043 1.746-.686.308-1.566.463-2.641.463-1.38 0-2.457-.372-3.231-1.117s-1.162-1.799-1.162-3.161c0-1.448.538-2.54 1.613-3.276 1.075-.736 2.712-1.138 4.913-1.206l2.425-.076v-.75c0-.896-.21-1.567-.629-2.011-.419-.445-1.068-.667-1.949-.667-.719 0-1.409.106-2.069.318-.66.211-1.295.46-1.904.749l-.965-2.133c.762-.398 1.595-.7 2.5-.908a11.51 11.51 0 0 1 2.565-.31c1.786 0 3.134.388 4.044 1.167.91.779 1.365 2.002 1.365 3.669V247h-2.133zm-4.444-2.031c1.084 0 1.953-.303 2.61-.908.655-.605.983-1.454.983-2.545v-1.22l-1.803.077c-1.405.05-2.427.286-3.066.705-.639.419-.958 1.06-.958 1.923 0 .626.186 1.11.559 1.454.372.342.93.514 1.675.514zm-97.093 17.99v2.336h-4.57V277h-2.997v-11.705h-4.57v-2.336h12.137zm14.904 6.995c0 2.294-.588 4.084-1.765 5.37-1.176 1.287-2.814 1.93-4.913 1.93-1.312 0-2.471-.296-3.478-.889-1.008-.592-1.782-1.443-2.324-2.552-.541-1.108-.812-2.395-.812-3.859 0-2.277.584-4.054 1.752-5.332 1.168-1.278 2.814-1.917 4.938-1.917 2.032 0 3.64.654 4.825 1.962 1.184 1.307 1.777 3.07 1.777 5.287zm-10.22 0c0 3.242 1.198 4.862 3.593 4.862 2.37 0 3.555-1.62 3.555-4.862 0-3.208-1.194-4.811-3.58-4.811-1.253 0-2.16.414-2.724 1.244-.562.83-.844 2.018-.844 3.567zm22.357-6.995h3.275l-5.802 6.767L94.494 277h-3.428l-6.068-7.122V277h-2.983v-14.041h2.983v6.817l5.726-6.817zm11.692 14.295c-2.184 0-3.891-.637-5.123-1.91-1.231-1.275-1.847-3.029-1.847-5.263 0-2.294.572-4.096 1.714-5.408 1.143-1.312 2.713-1.968 4.71-1.968 1.854 0 3.318.563 4.393 1.689 1.075 1.125 1.612 2.674 1.612 4.646v1.612h-9.356c.042 1.363.41 2.41 1.104 3.142.694.733 1.672 1.099 2.933 1.099.83 0 1.601-.079 2.317-.235a12.145 12.145 0 0 0 2.304-.781v2.425a9.16 9.16 0 0 1-2.21.736c-.744.144-1.595.216-2.551.216zm-.546-12.29c-.948 0-1.707.301-2.279.902-.571.601-.912 1.477-1.022 2.628h6.373c-.017-1.16-.296-2.037-.838-2.634-.541-.597-1.286-.895-2.234-.895zm12.378-2.005v5.637h6.614v-5.637h2.984V277h-2.984v-6.056h-6.614V277h-2.983v-14.041h2.983zm26.317 6.995c0 2.294-.588 4.084-1.764 5.37-1.177 1.287-2.814 1.93-4.913 1.93-1.312 0-2.472-.296-3.479-.889-1.007-.592-1.781-1.443-2.323-2.552-.542-1.108-.813-2.395-.813-3.859 0-2.277.584-4.054 1.752-5.332 1.168-1.278 2.815-1.917 4.939-1.917 2.031 0 3.64.654 4.824 1.962 1.185 1.307 1.777 3.07 1.777 5.287zm-10.22 0c0 3.242 1.198 4.862 3.593 4.862 2.37 0 3.555-1.62 3.555-4.862 0-3.208-1.193-4.811-3.58-4.811-1.253 0-2.16.414-2.723 1.244-.563.83-.844 2.018-.844 3.567zm25.836-3.402c0 1.659-.97 2.662-2.908 3.009v.101c1.084.127 1.913.47 2.489 1.028.575.559.863 1.283.863 2.171 0 1.33-.506 2.351-1.517 3.066-1.011.715-2.482 1.073-4.412 1.073h-6.703v-14.041h6.678c3.673 0 5.51 1.198 5.51 3.593zm-2.616 6.132c0-.677-.262-1.158-.787-1.441-.524-.284-1.312-.426-2.361-.426h-3.44v3.974h3.516c2.048 0 3.072-.702 3.072-2.107zm-.368-5.878c0-.559-.218-.963-.654-1.213-.435-.25-1.085-.374-1.948-.374h-3.618v3.377h3.173c1 0 1.757-.13 2.273-.388.516-.258.774-.725.774-1.402zM84.31 150.97L61.63 211h-4.68l22.68-60.03h-24.3v10.08h-4.59v-14.13h33.57v4.05zm43.54 39.06c0 6.12-.36 12.42-4.95 17.01-2.97 2.97-7.02 4.59-12.33 4.59-5.22 0-9.54-1.44-12.33-4.32-2.43-2.43-3.96-5.85-4.32-10.44h4.59c.9 6.84 4.59 10.71 12.06 10.71 3.51 0 6.75-1.17 8.82-3.24 3.78-3.78 3.87-9.54 3.87-14.31 0-8.01-1.44-17.1-11.97-17.1-5.85 0-10.26 2.43-11.61 6.75h-4.05v-32.76h30.78v4.05H99.68v22.68c2.79-3.24 6.93-4.77 12.15-4.77 4.59 0 8.28 1.35 10.8 3.87 4.5 4.5 5.22 11.25 5.22 17.28zm33.462 16.03c0 3.268-2.356 5.206-5.32 5.206-2.964 0-5.32-1.938-5.32-5.206v-3.838c0-3.268 2.356-5.206 5.32-5.206 2.964 0 5.32 1.938 5.32 5.206v3.838zm-5.89-22.116L142.692 211h-3.116l12.768-27.056h3.078zm-11.058 8.778c0 3.268-2.356 5.168-5.32 5.168-2.964 0-5.32-1.9-5.32-5.168v-3.838c0-3.268 2.356-5.206 5.32-5.206 2.964 0 5.32 1.938 5.32 5.206v3.838zm14.022 13.224v-3.61c0-1.71-.76-2.736-2.394-2.736-1.634 0-2.394.988-2.394 2.736v3.61c0 1.748.76 2.736 2.394 2.736 1.634 0 2.394-1.026 2.394-2.736zm-16.948-13.338v-3.61c0-1.71-.76-2.736-2.394-2.736-1.634 0-2.394.988-2.394 2.736v3.61c0 1.748.76 2.698 2.394 2.698 1.634 0 2.394-.988 2.394-2.698z"/>
        </g>
        <g fill="#462405">
            <path d="M266.07 217.031c0 1.193-.39 2.107-1.172 2.742-.78.636-1.893.954-3.336.954h-1.187V225h-1.867v-11.422h3.289c1.427 0 2.496.292 3.207.875.71.583 1.066 1.443 1.066 2.578zm-5.695 2.125h.992c.959 0 1.662-.166 2.11-.5.447-.333.671-.854.671-1.562 0-.657-.2-1.146-.601-1.469-.401-.323-1.026-.484-1.875-.484h-1.297v4.015zM273.563 225l-.368-1.203h-.062c-.417.526-.836.884-1.258 1.074-.422.19-.964.285-1.625.285-.849 0-1.512-.229-1.988-.687-.477-.459-.715-1.107-.715-1.946 0-.89.33-1.562.992-2.015.662-.453 1.67-.7 3.024-.742l1.492-.047v-.461c0-.552-.13-.965-.387-1.238-.258-.274-.658-.41-1.2-.41-.442 0-.866.064-1.273.195a9.61 9.61 0 0 0-1.172.46l-.593-1.312a6.39 6.39 0 0 1 1.539-.558 7.083 7.083 0 0 1 1.578-.192c1.099 0 1.928.24 2.488.719s.84 1.232.84 2.258V225h-1.313zm-2.735-1.25c.667 0 1.202-.186 1.606-.559.403-.372.605-.894.605-1.566v-.75l-1.11.047c-.864.031-1.493.176-1.886.433-.393.258-.59.653-.59 1.184 0 .385.115.684.344.895.229.21.573.316 1.031.316zm10.094 1.406c-1.307 0-2.3-.381-2.98-1.144-.68-.763-1.02-1.858-1.02-3.285 0-1.454.355-2.57 1.066-3.352.711-.781 1.739-1.172 3.082-1.172.912 0 1.732.17 2.461.508l-.554 1.476c-.776-.302-1.417-.453-1.922-.453-1.495 0-2.243.993-2.243 2.977 0 .969.187 1.697.56 2.184.371.487.917.73 1.636.73.818 0 1.591-.203 2.32-.61v1.602c-.328.193-.678.33-1.05.414a6.305 6.305 0 0 1-1.356.125zm16.68-.156h-12.243v-8.64h1.836v7.187h3.368v-7.188h1.835v7.188h3.36v-7.188h1.844V225zm4.382-8.64v4.43c0 .515-.041 1.272-.125 2.273l4.336-6.704h2.243V225h-1.766v-4.352c0-.24.014-.627.043-1.164.028-.536.053-.927.074-1.172L302.47 225h-2.242v-8.64h1.757zm13.454 8.796c-1.094 0-1.943-.393-2.547-1.18h-.11c.073.73.11 1.172.11 1.329v3.539h-1.836v-12.485h1.484c.042.162.128.547.258 1.157h.094c.573-.875 1.432-1.313 2.578-1.313 1.078 0 1.918.39 2.52 1.172.6.781.902 1.878.902 3.29 0 1.41-.306 2.512-.918 3.304-.612.791-1.457 1.187-2.535 1.187zm-.446-7.453c-.729 0-1.262.214-1.597.64-.336.428-.504 1.11-.504 2.048v.273c0 1.052.166 1.814.5 2.285.333.472.877.707 1.632.707.636 0 1.125-.26 1.47-.781.343-.52.515-1.263.515-2.227 0-.968-.17-1.701-.512-2.199-.341-.497-.842-.746-1.504-.746zm9.805 7.453c-1.344 0-2.395-.392-3.152-1.176-.758-.783-1.137-1.863-1.137-3.238 0-1.411.351-2.52 1.055-3.328.703-.807 1.669-1.21 2.898-1.21 1.14 0 2.042.345 2.703 1.038.662.693.992 1.646.992 2.86v.992h-5.758c.026.838.253 1.483.68 1.933.427.45 1.029.676 1.805.676.51 0 .985-.048 1.426-.144.44-.097.912-.257 1.418-.48v1.491a5.637 5.637 0 0 1-1.36.453 8.336 8.336 0 0 1-1.57.133zm-.336-7.562c-.583 0-1.05.185-1.402.554-.352.37-.562.91-.63 1.618h3.923c-.01-.714-.183-1.254-.516-1.621-.333-.368-.792-.551-1.375-.551zm7.617-1.235v3.47h4.07v-3.47h1.836V225h-1.836v-3.727h-4.07V225h-1.836v-8.64h1.836zm10.29 0v4.43c0 .516-.042 1.273-.126 2.274l4.336-6.704h2.242V225h-1.765v-4.352c0-.24.014-.627.043-1.164.028-.536.053-.927.074-1.172l-4.32 6.688h-2.243v-8.64h1.758zm12.843 8.797c-1.344 0-2.395-.392-3.152-1.176-.758-.783-1.137-1.863-1.137-3.238 0-1.411.351-2.52 1.055-3.328.703-.807 1.669-1.21 2.898-1.21 1.14 0 2.042.345 2.703 1.038.662.693.992 1.646.992 2.86v.992h-5.757c.026.838.252 1.483.68 1.933.426.45 1.028.676 1.804.676.51 0 .986-.048 1.426-.144.44-.097.912-.257 1.418-.48v1.491a5.637 5.637 0 0 1-1.36.453 8.336 8.336 0 0 1-1.57.133zm-.336-7.562c-.583 0-1.05.185-1.402.554-.352.37-.562.91-.63 1.618h3.923c-.01-.714-.183-1.254-.516-1.621-.333-.368-.792-.551-1.375-.551zm-94.914 27.562c-.964 0-1.779-.164-2.445-.492v-1.508c.828.365 1.632.547 2.414.547 1.49 0 2.284-.815 2.382-2.445h-3.804v-1.344h3.805c-.063-.776-.274-1.346-.633-1.71-.36-.365-.88-.548-1.563-.548-.51 0-1.182.149-2.015.446l-.508-1.36a5.814 5.814 0 0 1 1.207-.39 6.338 6.338 0 0 1 1.347-.149c1.36 0 2.378.375 3.055 1.125s1.016 1.852 1.016 3.305-.364 2.57-1.09 3.351c-.727.782-1.783 1.172-3.168 1.172zm11.742-8.797h2.016l-3.57 4.164 3.874 4.477h-2.109l-3.734-4.383V245h-1.836v-8.64h1.836v4.195l3.523-4.196zm11.086 4.305c0 1.412-.362 2.513-1.086 3.305-.724.791-1.732 1.187-3.023 1.187-.808 0-1.521-.182-2.14-.547a3.61 3.61 0 0 1-1.43-1.57c-.334-.682-.5-1.474-.5-2.375 0-1.401.359-2.495 1.077-3.281.72-.787 1.732-1.18 3.04-1.18 1.25 0 2.24.402 2.968 1.207.73.805 1.094 1.89 1.094 3.254zm-6.289 0c0 1.995.737 2.992 2.21 2.992 1.46 0 2.188-.997 2.188-2.992 0-1.974-.734-2.96-2.203-2.96-.77 0-1.33.254-1.675.765-.347.51-.52 1.242-.52 2.195zm11.883 4.492c-1.307 0-2.301-.381-2.98-1.144-.68-.763-1.02-1.858-1.02-3.285 0-1.454.355-2.57 1.066-3.352.711-.781 1.738-1.172 3.082-1.172.912 0 1.732.17 2.461.508l-.555 1.476c-.776-.302-1.416-.453-1.921-.453-1.495 0-2.243.993-2.243 2.977 0 .969.187 1.697.559 2.184.372.487.918.73 1.637.73.817 0 1.59-.203 2.32-.61v1.602c-.328.193-.678.33-1.05.414a6.305 6.305 0 0 1-1.356.125zm6.195-8.797v4.43c0 .516-.042 1.273-.125 2.274l4.336-6.704h2.242V245h-1.765v-4.352c0-.24.014-.627.043-1.164.028-.536.053-.927.074-1.172l-4.32 6.688h-2.243v-8.64h1.758zm12.555 8.797c-1.307 0-2.301-.381-2.98-1.144-.68-.763-1.02-1.858-1.02-3.285 0-1.454.355-2.57 1.066-3.352.711-.781 1.738-1.172 3.082-1.172.912 0 1.732.17 2.461.508l-.555 1.476c-.776-.302-1.416-.453-1.921-.453-1.495 0-2.243.993-2.243 2.977 0 .969.187 1.697.559 2.184.372.487.918.73 1.637.73.817 0 1.59-.203 2.32-.61v1.602c-.328.193-.678.33-1.05.414a6.305 6.305 0 0 1-1.356.125zm10.93-8.797v1.438h-2.813V245h-1.844v-7.203h-2.812v-1.438h7.469zm5.28 8.797c-1.343 0-2.394-.392-3.152-1.176-.757-.783-1.136-1.863-1.136-3.238 0-1.411.351-2.52 1.054-3.328.704-.807 1.67-1.21 2.899-1.21 1.14 0 2.041.345 2.703 1.038.661.693.992 1.646.992 2.86v.992h-5.758c.026.838.253 1.483.68 1.933.427.45 1.029.676 1.805.676.51 0 .985-.048 1.425-.144.44-.097.913-.257 1.418-.48v1.491a5.637 5.637 0 0 1-1.359.453 8.336 8.336 0 0 1-1.57.133zm-.335-7.562c-.584 0-1.051.185-1.403.554-.351.37-.56.91-.628 1.618h3.921c-.01-.714-.182-1.254-.515-1.621-.334-.368-.792-.551-1.375-.551zm10.742 5.648l.102-.375c.213-.776.398-1.372.554-1.789l1.938-4.719h2.445V245h-1.695v-6.977l-.14.47c-.235.838-.433 1.455-.595 1.85L334.47 245h-1.39l-1.892-4.688a21 21 0 0 1-.718-2.289V245h-1.68v-8.64h2.43l1.875 4.577c.166.422.385 1.19.656 2.305zm9.5-3.43H345c1.208 0 2.102.209 2.68.625.578.417.867 1.042.867 1.875 0 .891-.3 1.562-.902 2.012-.602.45-1.484.676-2.645.676h-3.586v-8.64h1.836v3.452zm3.477 2.547c0-.432-.16-.734-.48-.906-.321-.172-.78-.258-1.38-.258h-1.617v2.446h1.383c.74 0 1.273-.105 1.601-.313.329-.208.493-.531.493-.969zM351.75 245h-1.844v-8.64h1.844V245zM280.94 198h-22.62v-2.7l17.16-22.5c1.68-2.16 2.4-4.2 2.4-6.66 0-5.1-3.06-8.52-8.22-8.52-4.44 0-8.22 2.52-8.22 8.52h-3.06c0-6.36 4.2-11.22 11.28-11.22 6.84 0 11.28 4.44 11.28 11.22 0 3.18-.78 5.4-2.94 8.22l-16.02 20.94h18.96v2.7zm28.96-13.98c0 4.08-.24 8.28-3.3 11.34-1.98 1.98-4.68 3.06-8.22 3.06-3.48 0-6.36-.96-8.22-2.88-1.62-1.62-2.64-3.9-2.88-6.96h3.06c.6 4.56 3.06 7.14 8.04 7.14 2.34 0 4.5-.78 5.88-2.16 2.52-2.52 2.58-6.36 2.58-9.54 0-5.34-.96-11.4-7.98-11.4-3.9 0-6.84 1.62-7.74 4.5h-2.7v-21.84h20.52v2.7h-17.82v15.12c1.86-2.16 4.62-3.18 8.1-3.18 3.06 0 5.52.9 7.2 2.58 3 3 3.48 7.5 3.48 11.52zm25.3 10.08c0 2.58-1.86 4.11-4.2 4.11s-4.2-1.53-4.2-4.11v-3.03c0-2.58 1.86-4.11 4.2-4.11s4.2 1.53 4.2 4.11v3.03zm-4.65-17.46L320.5 198h-2.46l10.08-21.36h2.43zm-8.73 6.93c0 2.58-1.86 4.08-4.2 4.08s-4.2-1.5-4.2-4.08v-3.03c0-2.58 1.86-4.11 4.2-4.11s4.2 1.53 4.2 4.11v3.03zm11.07 10.44v-2.85c0-1.35-.6-2.16-1.89-2.16s-1.89.78-1.89 2.16v2.85c0 1.38.6 2.16 1.89 2.16s1.89-.81 1.89-2.16zm-13.38-10.53v-2.85c0-1.35-.6-2.16-1.89-2.16s-1.89.78-1.89 2.16v2.85c0 1.38.6 2.13 1.89 2.13s1.89-.78 1.89-2.13z"/>
        </g>
    </g>
</svg>
