<svg xmlns="http://www.w3.org/2000/svg" width="385" height="394" viewBox="0 0 385 394">
    <defs>
        <linearGradient id="a" x1="62.121%" x2="67.844%" y1="-102.184%" y2="147.419%">
            <stop offset="0%" stop-color="#A8FF97"/>
            <stop offset="39.772%" stop-color="#69ECF1"/>
            <stop offset="50.664%" stop-color="#77C9F5"/>
            <stop offset="81.298%" stop-color="#B792FF"/>
            <stop offset="100%" stop-color="#FE7BA0"/>
        </linearGradient>
        <linearGradient id="b" x1="73.956%" x2="76.399%" y1="15.957%" y2="104.994%">
            <stop offset="0%" stop-color="#F0E7D2"/>
            <stop offset="100%" stop-color="#F0B4E4"/>
        </linearGradient>
        <linearGradient id="c" x1="93.413%" x2="63.069%" y1="11.947%" y2="107.986%">
            <stop offset="0%" stop-color="#F4F8D6"/>
            <stop offset="100%" stop-color="#EDDD9D"/>
        </linearGradient>
        <linearGradient id="d" x1="89.873%" x2="32.666%" y1="8.544%" y2="103.707%">
            <stop offset="0%" stop-color="#D2F0E1"/>
            <stop offset="100%" stop-color="#B4D2F0"/>
        </linearGradient>
        <linearGradient id="e" x1="45.919%" x2="90.523%" y1="106.839%" y2="-2.405%">
            <stop offset="0%" stop-color="#D2F0F0"/>
            <stop offset="100%" stop-color="#F0E6B4"/>
        </linearGradient>
    </defs>
    <g fill="none" fill-rule="evenodd">
        <g stroke="#FFF">
            <path fill="url(#a)" stroke-width="4" d="M382 197c0 102.173-82.828 185-185 185S12 299.173 12 197C12 94.828 94.828 12 197 12s185 82.828 185 185" transform="translate(2 1)"/>
            <path fill="url(#b)" d="M382 197c0 102.173-82.828 185-185 185S12 299.173 12 197C12 94.828 94.828 12 197 12s185 82.828 185 185" transform="translate(2 1)"/>
            <path fill="url(#c)" stroke-width="2" d="M88 346.668C118.598 368.884 156.26 382 197 382V197L88 346.668z" transform="translate(2 1)"/>
            <path fill="url(#d)" stroke-width="2" d="M21 254.924C33.182 292.269 57.02 324.377 88.247 347l106.936-146.51a1 1 0 0 0-1.115-1.542L21 254.924z" transform="translate(2 1)"/>
            <path fill="url(#e)" stroke-width="2" d="M9.625 258.974l187.086-60.78a1 1 0 0 0 .69-.95V.598C88.38.598.002 88.964.002 197.97c0 21.293 3.385 41.792 9.624 61.004z" transform="translate(2 1)"/>
        </g>
        <g fill="#462405">
            <path d="M64.79 190h-2.695v-14.117h-7.243V190h-2.685v-16.419h12.624V190zm10.344.225c-1.572 0-2.793-.566-3.661-1.696h-.158c.105 1.048.158 1.684.158 1.909v5.087h-2.64V177.58h2.134c.06.232.184.786.37 1.662h.136c.823-1.258 2.059-1.887 3.706-1.887 1.55 0 2.757.562 3.622 1.685.864 1.123 1.297 2.7 1.297 4.728 0 2.03-.44 3.613-1.32 4.75-.88 1.139-2.094 1.708-3.644 1.708zm-.64-10.714c-1.049 0-1.814.307-2.297.92-.483.615-.724 1.595-.724 2.943v.393c0 1.512.24 2.607.718 3.285.48.678 1.262 1.016 2.348 1.016.913 0 1.617-.374 2.11-1.123.495-.748.742-1.815.742-3.2 0-1.393-.245-2.447-.735-3.162-.49-.715-1.211-1.072-2.162-1.072zm19.687 4.256c0 2.03-.52 3.613-1.561 4.75-1.041 1.139-2.49 1.708-4.347 1.708-1.16 0-2.186-.262-3.077-.787-.89-.524-1.576-1.276-2.055-2.257-.48-.98-.719-2.119-.719-3.414 0-2.014.517-3.586 1.55-4.717 1.033-1.13 2.49-1.696 4.369-1.696 1.797 0 3.22.579 4.267 1.736 1.049 1.156 1.573 2.715 1.573 4.677zm-9.04 0c0 2.868 1.059 4.301 3.177 4.301 2.097 0 3.145-1.433 3.145-4.3 0-2.838-1.056-4.257-3.167-4.257-1.108 0-1.911.367-2.409 1.1-.498.734-.747 1.786-.747 3.156zm23.987 10.624h-2.46V190h-8.512v4.391H95.72v-6.435h1.011c.883-1.265 1.585-2.794 2.106-4.588.52-1.793.829-3.722.926-5.789h7.547v10.377h1.82v6.435zm-4.413-6.435v-8.355h-2.673a23.007 23.007 0 0 1-.893 4.56c-.453 1.497-1.005 2.762-1.656 3.795h5.222zM119.202 190l-.528-1.73h-.09c-.598.757-1.201 1.271-1.808 1.545-.606.273-1.385.41-2.336.41-1.22 0-2.173-.33-2.858-.989s-1.027-1.59-1.027-2.796c0-1.28.475-2.246 1.426-2.898.95-.65 2.4-1.007 4.346-1.066l2.145-.068v-.662c0-.794-.185-1.387-.556-1.78-.37-.393-.945-.59-1.724-.59a5.96 5.96 0 0 0-1.83.28c-.584.188-1.146.409-1.685.663l-.853-1.886a9.186 9.186 0 0 1 2.212-.803 10.181 10.181 0 0 1 2.269-.276c1.58 0 2.772.345 3.577 1.034.804.689 1.207 1.77 1.207 3.245V190h-1.887zm-3.93-1.797c.958 0 1.727-.268 2.307-.803.58-.535.87-1.286.87-2.252v-1.078l-1.594.068c-1.243.045-2.147.252-2.712.623-.565.37-.848.938-.848 1.701 0 .554.165.983.494 1.286.33.304.824.455 1.482.455zm15.621-4.593v-6.03h2.46v6.03l4.784-6.03h2.785l-4.885 6.007L141.36 190h-2.909l-5.098-6.3v6.3h-2.46v-6.3l-5.087 6.3h-2.898l5.312-6.413-4.874-6.008h2.785l4.762 6.03zm20.148 6.39l-.528-1.73h-.09c-.6.757-1.202 1.271-1.808 1.545-.607.273-1.385.41-2.336.41-1.22 0-2.173-.33-2.858-.989s-1.028-1.59-1.028-2.796c0-1.28.475-2.246 1.426-2.898.951-.65 2.4-1.007 4.347-1.066l2.145-.068v-.662c0-.794-.186-1.387-.556-1.78-.371-.393-.946-.59-1.724-.59a5.96 5.96 0 0 0-1.83.28c-.585.188-1.146.409-1.685.663l-.854-1.886a9.186 9.186 0 0 1 2.213-.803 10.181 10.181 0 0 1 2.268-.276c1.58 0 2.772.345 3.577 1.034.805.689 1.207 1.77 1.207 3.245V190h-1.886zm-3.931-1.797c.958 0 1.727-.268 2.308-.803.58-.535.87-1.286.87-2.252v-1.078l-1.595.068c-1.242.045-2.147.252-2.712.623-.565.37-.848.938-.848 1.701 0 .554.165.983.494 1.286.33.304.824.455 1.483.455zM61.22 203.58v2.067h-4.044V216h-2.65v-10.354h-4.043v-2.067h10.736zm13.184 6.188c0 2.03-.52 3.613-1.561 4.75-1.04 1.139-2.49 1.708-4.346 1.708-1.16 0-2.187-.262-3.078-.787-.89-.524-1.576-1.276-2.055-2.257-.479-.98-.718-2.119-.718-3.414 0-2.014.516-3.586 1.55-4.717 1.033-1.13 2.489-1.696 4.368-1.696 1.797 0 3.22.579 4.268 1.736 1.048 1.156 1.572 2.715 1.572 4.677zm-9.04 0c0 2.868 1.059 4.301 3.178 4.301 2.096 0 3.144-1.433 3.144-4.3 0-2.838-1.056-4.257-3.167-4.257-1.108 0-1.911.367-2.409 1.1-.498.734-.747 1.786-.747 3.156zm19.776-6.188h2.898l-5.133 5.986 5.57 6.435h-3.032l-5.368-6.3v6.3h-2.639v-12.42h2.64v6.03l5.064-6.03zm10.343 12.646c-1.931 0-3.442-.564-4.531-1.69-1.09-1.127-1.634-2.679-1.634-4.656 0-2.029.505-3.623 1.516-4.784 1.01-1.16 2.4-1.74 4.166-1.74 1.64 0 2.935.497 3.886 1.493.951.996 1.427 2.366 1.427 4.11v1.427h-8.277c.037 1.205.363 2.132.977 2.78.614.647 1.478.97 2.594.97.734 0 1.417-.069 2.05-.207a10.743 10.743 0 0 0 2.038-.69v2.144a8.103 8.103 0 0 1-1.954.652c-.66.127-1.412.19-2.258.19zM95 205.354c-.838 0-1.51.265-2.015.797-.506.531-.807 1.306-.904 2.325h5.637c-.015-1.026-.262-1.803-.74-2.33-.48-.529-1.139-.792-1.978-.792zm10.95-1.775v4.986h5.851v-4.986h2.64V216h-2.64v-5.357h-5.85V216h-2.64v-12.42h2.64zm23.281 6.188c0 2.03-.52 3.613-1.561 4.75-1.04 1.139-2.49 1.708-4.346 1.708-1.16 0-2.186-.262-3.077-.787-.891-.524-1.576-1.276-2.056-2.257-.479-.98-.718-2.119-.718-3.414 0-2.014.516-3.586 1.55-4.717 1.033-1.13 2.489-1.696 4.368-1.696 1.797 0 3.22.579 4.268 1.736 1.048 1.156 1.572 2.715 1.572 4.677zm-9.04 0c0 2.868 1.059 4.301 3.178 4.301 2.096 0 3.144-1.433 3.144-4.3 0-2.838-1.055-4.257-3.167-4.257-1.108 0-1.91.367-2.409 1.1-.498.734-.747 1.786-.747 3.156zm22.853-3.01c0 1.468-.857 2.355-2.571 2.662v.09c.958.112 1.692.415 2.2.91.51.494.764 1.134.764 1.92 0 1.175-.447 2.08-1.342 2.712-.894.633-2.195.949-3.902.949h-5.93v-12.42h5.907c3.25 0 4.874 1.058 4.874 3.177zm-2.313 5.425c0-.6-.232-1.024-.696-1.275-.465-.25-1.16-.376-2.09-.376h-3.043v3.515h3.111c1.812 0 2.718-.622 2.718-1.864zm-.326-5.2c0-.494-.193-.852-.578-1.073-.386-.22-.96-.33-1.724-.33h-3.2v2.986h2.807c.883 0 1.554-.114 2.01-.342.457-.228.685-.642.685-1.241zM84.654 142.42c0 10.414-7.216 16.154-16.564 16.154-9.102 0-16.072-4.674-16.646-14.76h4.182c.574 7.954 6.396 11.07 12.464 11.07 6.97 0 12.382-4.674 12.382-12.464 0-7.872-3.772-12.464-12.71-12.464h-.984v-3.69h.984c7.79 0 11.562-4.264 11.562-11.726 0-7.708-5.002-11.808-11.316-11.808-6.888 0-10.906 4.182-11.644 10.66h-4.182c.82-9.102 7.38-14.35 15.826-14.35 9.184 0 15.498 6.15 15.498 15.498 0 6.15-2.46 10.824-8.282 13.284 6.478 2.214 9.43 7.216 9.43 14.596zm39.902.492c0 9.102-6.314 15.58-15.334 15.58s-15.334-6.478-15.334-15.58v-28.208c0-9.102 6.314-15.58 15.334-15.58s15.334 6.478 15.334 15.58v28.208zm-4.182-.41v-27.388c0-6.888-3.854-12.3-11.152-12.3-7.298 0-11.152 5.412-11.152 12.3v27.388c0 6.888 3.854 12.3 11.152 12.3 7.298 0 11.152-5.412 11.152-12.3zm37.714 10.558c0 3.268-2.356 5.206-5.32 5.206-2.964 0-5.32-1.938-5.32-5.206v-3.838c0-3.268 2.356-5.206 5.32-5.206 2.964 0 5.32 1.938 5.32 5.206v3.838zm-5.89-22.116L139.468 158h-3.116l12.768-27.056h3.078zm-11.058 8.778c0 3.268-2.356 5.168-5.32 5.168-2.964 0-5.32-1.9-5.32-5.168v-3.838c0-3.268 2.356-5.206 5.32-5.206 2.964 0 5.32 1.938 5.32 5.206v3.838zm14.022 13.224v-3.61c0-1.71-.76-2.736-2.394-2.736-1.634 0-2.394.988-2.394 2.736v3.61c0 1.748.76 2.736 2.394 2.736 1.634 0 2.394-1.026 2.394-2.736zm-16.948-13.338v-3.61c0-1.71-.76-2.736-2.394-2.736-1.634 0-2.394.988-2.394 2.736v3.61c0 1.748.76 2.698 2.394 2.698 1.634 0 2.394-.988 2.394-2.698z"/>
        </g>
        <g fill="#462405">
            <path d="M232.79 243h-2.695v-14.117h-7.243V243h-2.685v-16.419h12.624V243zm2.157-12.42h2.875l2.527 7.04c.381 1.004.636 1.947.763 2.83h.09c.068-.411.191-.91.37-1.499.18-.587 1.131-3.378 2.853-8.372h2.853l-5.312 14.072c-.966 2.583-2.576 3.874-4.83 3.874a7.6 7.6 0 0 1-1.706-.19v-2.09c.396.09.85.135 1.359.135 1.272 0 2.167-.737 2.684-2.212l.46-1.168-4.986-12.42zM258.913 243h-2.662v-10.354h-3.425c-.21 2.665-.493 4.746-.848 6.244-.356 1.497-.82 2.59-1.393 3.279-.573.689-1.316 1.033-2.229 1.033-.577 0-1.06-.082-1.449-.247v-2.066c.277.104.554.157.831.157.764 0 1.365-.86 1.803-2.577.438-1.719.78-4.349 1.027-7.89h8.345V243zm17.52 0l-.529-1.73h-.09c-.599.757-1.201 1.271-1.808 1.545-.606.273-1.385.41-2.336.41-1.22 0-2.173-.33-2.858-.989s-1.027-1.59-1.027-2.796c0-1.28.475-2.246 1.426-2.898.95-.65 2.4-1.007 4.346-1.066l2.145-.068v-.662c0-.794-.185-1.387-.556-1.78-.37-.393-.945-.59-1.724-.59a5.96 5.96 0 0 0-1.83.28c-.584.188-1.146.409-1.685.663l-.853-1.886a9.186 9.186 0 0 1 2.212-.803 10.181 10.181 0 0 1 2.269-.276c1.58 0 2.772.345 3.577 1.034.804.689 1.207 1.77 1.207 3.245V243h-1.887zm-3.932-1.797c.959 0 1.728-.268 2.308-.803.58-.535.87-1.286.87-2.252v-1.078l-1.594.068c-1.243.045-2.147.252-2.712.623-.565.37-.848.938-.848 1.701 0 .554.165.983.494 1.286.33.304.824.455 1.482.455zm20.283-7.446c0 1.468-.858 2.355-2.572 2.662v.09c.958.112 1.692.415 2.201.91.51.494.764 1.134.764 1.92 0 1.175-.448 2.08-1.342 2.712-.895.633-2.196.949-3.903.949h-5.93v-12.42h5.908c3.249 0 4.874 1.058 4.874 3.177zm-2.314 5.425c0-.6-.232-1.024-.696-1.275-.464-.25-1.16-.376-2.089-.376h-3.043v3.515h3.11c1.812 0 2.718-.622 2.718-1.864zm-.325-5.2c0-.494-.193-.852-.579-1.073-.385-.22-.96-.33-1.724-.33h-3.2v2.986h2.807c.884 0 1.554-.114 2.01-.342.457-.228.686-.642.686-1.241zm15.082-3.403v2.067h-4.043V243h-2.65v-10.354h-4.043v-2.067h10.736zm13.185 6.188c0 2.03-.52 3.613-1.561 4.75-1.041 1.139-2.49 1.708-4.347 1.708-1.16 0-2.186-.262-3.077-.787-.89-.524-1.576-1.276-2.055-2.257-.48-.98-.719-2.119-.719-3.414 0-2.014.517-3.586 1.55-4.717 1.033-1.13 2.49-1.696 4.369-1.696 1.797 0 3.22.579 4.267 1.736 1.049 1.156 1.573 2.715 1.573 4.677zm-9.04 0c0 2.868 1.058 4.301 3.177 4.301 2.097 0 3.145-1.433 3.145-4.3 0-2.838-1.056-4.257-3.167-4.257-1.108 0-1.911.367-2.41 1.1-.497.734-.746 1.786-.746 3.156zm18.372 6.458c-1.572 0-2.792-.566-3.661-1.696h-.157c.105 1.048.157 1.684.157 1.909v5.087h-2.64V230.58h2.135c.06.232.183.786.37 1.662h.135c.824-1.258 2.059-1.887 3.706-1.887 1.55 0 2.757.562 3.622 1.685.865 1.123 1.297 2.7 1.297 4.728 0 2.03-.44 3.613-1.32 4.75-.88 1.139-2.094 1.708-3.644 1.708zm-.64-10.714c-1.048 0-1.814.307-2.297.92-.483.615-.724 1.595-.724 2.943v.393c0 1.512.24 2.607.719 3.285.479.678 1.261 1.016 2.347 1.016.913 0 1.617-.374 2.111-1.123.494-.748.741-1.815.741-3.2 0-1.393-.245-2.447-.735-3.162-.49-.715-1.211-1.072-2.162-1.072zm19.687 4.256c0 2.03-.52 3.613-1.561 4.75-1.04 1.139-2.49 1.708-4.346 1.708-1.16 0-2.186-.262-3.077-.787-.891-.524-1.576-1.276-2.056-2.257-.479-.98-.718-2.119-.718-3.414 0-2.014.516-3.586 1.55-4.717 1.033-1.13 2.489-1.696 4.368-1.696 1.797 0 3.22.579 4.268 1.736 1.048 1.156 1.572 2.715 1.572 4.677zm-9.04 0c0 2.868 1.059 4.301 3.178 4.301 2.096 0 3.144-1.433 3.144-4.3 0-2.838-1.055-4.257-3.167-4.257-1.108 0-1.91.367-2.409 1.1-.498.734-.747 1.786-.747 3.156zm22.853-3.01c0 1.468-.857 2.355-2.571 2.662v.09c.958.112 1.692.415 2.2.91.51.494.765 1.134.765 1.92 0 1.175-.448 2.08-1.342 2.712-.895.633-2.196.949-3.903.949h-5.93v-12.42h5.907c3.25 0 4.874 1.058 4.874 3.177zm-2.313 5.425c0-.6-.232-1.024-.696-1.275-.464-.25-1.16-.376-2.09-.376h-3.043v3.515h3.111c1.812 0 2.718-.622 2.718-1.864zm-.326-5.2c0-.494-.192-.852-.578-1.073-.386-.22-.96-.33-1.724-.33h-3.2v2.986h2.807c.883 0 1.554-.114 2.01-.342.457-.228.685-.642.685-1.241zM250.982 190.894c0 5.576-.328 11.316-4.51 15.498-2.706 2.706-6.396 4.182-11.234 4.182-4.756 0-8.692-1.312-11.234-3.936-2.214-2.214-3.608-5.33-3.936-9.512h4.182c.82 6.232 4.182 9.758 10.988 9.758 3.198 0 6.15-1.066 8.036-2.952 3.444-3.444 3.526-8.692 3.526-13.038 0-7.298-1.312-15.58-10.906-15.58-5.33 0-9.348 2.214-10.578 6.15h-3.69v-29.848h28.044v3.69h-24.354v20.664c2.542-2.952 6.314-4.346 11.07-4.346 4.182 0 7.544 1.23 9.84 3.526 4.1 4.1 4.756 10.25 4.756 15.744zm39.574 4.018c0 9.102-6.314 15.58-15.334 15.58s-15.334-6.478-15.334-15.58v-28.208c0-9.102 6.314-15.58 15.334-15.58s15.334 6.478 15.334 15.58v28.208zm-4.182-.41v-27.388c0-6.888-3.854-12.3-11.152-12.3-7.298 0-11.152 5.412-11.152 12.3v27.388c0 6.888 3.854 12.3 11.152 12.3 7.298 0 11.152-5.412 11.152-12.3zm37.714 10.558c0 3.268-2.356 5.206-5.32 5.206-2.964 0-5.32-1.938-5.32-5.206v-3.838c0-3.268 2.356-5.206 5.32-5.206 2.964 0 5.32 1.938 5.32 5.206v3.838zm-5.89-22.116L305.468 210h-3.116l12.768-27.056h3.078zm-11.058 8.778c0 3.268-2.356 5.168-5.32 5.168-2.964 0-5.32-1.9-5.32-5.168v-3.838c0-3.268 2.356-5.206 5.32-5.206 2.964 0 5.32 1.938 5.32 5.206v3.838zm14.022 13.224v-3.61c0-1.71-.76-2.736-2.394-2.736-1.634 0-2.394.988-2.394 2.736v3.61c0 1.748.76 2.736 2.394 2.736 1.634 0 2.394-1.026 2.394-2.736zm-16.948-13.338v-3.61c0-1.71-.76-2.736-2.394-2.736-1.634 0-2.394.988-2.394 2.736v3.61c0 1.748.76 2.698 2.394 2.698 1.634 0 2.394-.988 2.394-2.698z"/>
        </g>
        <g fill="#462405">
            <path d="M62.803 295.023c0 .895-.293 1.58-.88 2.057-.585.477-1.42.715-2.501.715h-.89V301H57.13v-8.566h2.467c1.07 0 1.872.218 2.405.656.533.437.8 1.082.8 1.933zm-4.272 1.594h.744c.72 0 1.246-.125 1.582-.375.336-.25.504-.64.504-1.172 0-.492-.15-.86-.45-1.101-.302-.242-.77-.364-1.407-.364h-.973v3.012zm9.89 4.383l-.275-.902H68.1c-.313.394-.627.663-.944.805-.316.143-.722.214-1.219.214-.636 0-1.133-.172-1.49-.515-.358-.344-.537-.83-.537-1.46 0-.667.248-1.171.744-1.511.496-.34 1.252-.526 2.268-.557l1.119-.035v-.346c0-.414-.097-.723-.29-.928-.193-.205-.493-.308-.9-.308-.331 0-.65.049-.955.147a7.207 7.207 0 0 0-.878.345l-.446-.984a4.792 4.792 0 0 1 1.155-.42 5.312 5.312 0 0 1 1.183-.143c.824 0 1.446.18 1.866.54.42.359.63.923.63 1.693V301h-.984zm-2.05-.938c.5 0 .901-.14 1.204-.418.303-.28.454-.671.454-1.175v-.563l-.832.035c-.648.024-1.12.132-1.415.326-.295.193-.442.489-.442.887 0 .29.086.513.258.671.172.158.43.238.773.238zm7.57 1.055c-.98 0-1.725-.286-2.235-.858-.51-.572-.765-1.394-.765-2.464 0-1.09.267-1.928.8-2.514.533-.586 1.304-.879 2.312-.879.683 0 1.299.127 1.845.381l-.416 1.108c-.582-.227-1.062-.34-1.441-.34-1.121 0-1.682.744-1.682 2.232 0 .727.14 1.273.42 1.638.279.365.688.548 1.227.548.613 0 1.193-.153 1.74-.457v1.2a2.72 2.72 0 0 1-.788.311c-.28.063-.618.094-1.017.094zm12.51-.117H77.27v-6.48h1.376v5.39h2.526v-5.39h1.377v5.39h2.52v-5.39h1.382V301zm3.287-6.48v3.322c0 .387-.031.955-.093 1.705l3.251-5.027h1.682V301h-1.324v-3.264c0-.18.01-.47.032-.873.022-.402.04-.695.056-.879L90.102 301H88.42v-6.48h1.318zm10.09 6.597c-.82 0-1.457-.295-1.91-.885h-.082c.055.547.082.88.082.997v2.654h-1.377v-9.363h1.113c.032.12.096.41.194.867h.07c.43-.657 1.074-.985 1.934-.985.808 0 1.438.293 1.89.88.45.585.676 1.407.676 2.466 0 1.059-.23 1.885-.689 2.479-.458.593-1.092.89-1.9.89zm-.334-5.59c-.547 0-.946.16-1.198.48-.252.321-.378.833-.378 1.536v.205c0 .79.125 1.36.375 1.714.25.353.658.53 1.225.53.476 0 .843-.195 1.101-.586.258-.39.387-.947.387-1.67 0-.726-.128-1.276-.384-1.65-.256-.372-.632-.559-1.128-.559zm7.354 5.59c-1.008 0-1.796-.294-2.365-.882-.568-.588-.852-1.397-.852-2.428 0-1.059.264-1.891.79-2.496.528-.606 1.253-.909 2.175-.909.855 0 1.531.26 2.027.78.496.52.744 1.234.744 2.144v.744h-4.318c.02.63.19 1.113.51 1.45.32.338.771.507 1.353.507.383 0 .74-.036 1.07-.108.33-.072.684-.192 1.063-.36v1.119c-.336.16-.676.273-1.02.34-.343.066-.736.1-1.177.1zm-.252-5.672c-.438 0-.788.139-1.052.416-.264.278-.421.682-.472 1.213h2.942c-.008-.535-.137-.94-.387-1.216-.25-.275-.594-.413-1.031-.413zm5.713-.925v2.601h3.052v-2.601h1.377V301h-1.377v-2.795h-3.052V301h-1.377v-6.48h1.377zm7.716 0v3.322c0 .387-.03.955-.093 1.705l3.252-5.027h1.681V301h-1.324v-3.264c0-.18.01-.47.032-.873.022-.402.04-.695.056-.879l-3.24 5.016h-1.682v-6.48h1.318zm9.633 6.597c-1.008 0-1.796-.294-2.364-.882-.568-.588-.853-1.397-.853-2.428 0-1.059.264-1.891.791-2.496.528-.606 1.252-.909 2.174-.909.856 0 1.531.26 2.028.78.496.52.744 1.234.744 2.144v.744h-4.319c.02.63.19 1.113.51 1.45.32.338.772.507 1.354.507.382 0 .739-.036 1.069-.108.33-.072.685-.192 1.063-.36v1.119c-.335.16-.675.273-1.02.34-.343.066-.735.1-1.177.1zm-.252-5.672c-.437 0-.788.139-1.052.416-.263.278-.42.682-.471 1.213h2.941c-.008-.535-.136-.94-.387-1.216-.25-.275-.593-.413-1.03-.413zm-71.185 18.672c-.723 0-1.334-.123-1.834-.369v-1.13c.62.273 1.224.41 1.81.41 1.117 0 1.713-.612 1.787-1.835h-2.853v-1.007h2.853c-.047-.582-.205-1.01-.474-1.284-.27-.273-.66-.41-1.172-.41-.383 0-.887.112-1.512.334l-.38-1.02a4.36 4.36 0 0 1 .905-.292 4.753 4.753 0 0 1 1.01-.112c1.02 0 1.784.282 2.291.844.508.563.762 1.389.762 2.479s-.272 1.927-.817 2.513c-.545.586-1.337.88-2.376.88zm8.806-6.597h1.512l-2.678 3.123L68.768 314h-1.582l-2.801-3.287V314h-1.377v-6.48h1.377v3.146l2.642-3.146zm8.315 3.228c0 1.059-.272 1.885-.815 2.479-.543.593-1.298.89-2.267.89-.606 0-1.14-.137-1.606-.41a2.708 2.708 0 0 1-1.072-1.178c-.25-.511-.375-1.105-.375-1.781 0-1.05.27-1.871.809-2.46.539-.59 1.298-.886 2.279-.886.937 0 1.68.302 2.226.906.547.603.82 1.417.82 2.44zm-4.717 0c0 1.496.553 2.244 1.658 2.244 1.094 0 1.64-.748 1.64-2.244 0-1.48-.55-2.22-1.652-2.22-.578 0-.997.19-1.256.574-.26.382-.39.931-.39 1.646zm8.912 3.37c-.98 0-1.725-.287-2.235-.86-.51-.571-.765-1.393-.765-2.463 0-1.09.267-1.928.8-2.514.533-.586 1.304-.879 2.311-.879.684 0 1.3.127 1.846.381l-.416 1.108c-.582-.227-1.062-.34-1.441-.34-1.121 0-1.682.744-1.682 2.232 0 .727.14 1.273.419 1.638.28.365.688.548 1.228.548.613 0 1.193-.153 1.74-.457v1.2a2.72 2.72 0 0 1-.788.311c-.28.063-.618.094-1.017.094zm4.647-6.598v3.322c0 .387-.032.955-.094 1.705l3.252-5.027h1.681V314H87.7v-3.264c0-.18.011-.47.032-.873.022-.402.04-.695.056-.879L84.547 314h-1.682v-6.48h1.319zm9.416 6.597c-.98 0-1.726-.286-2.236-.858-.51-.572-.764-1.394-.764-2.464 0-1.09.266-1.928.8-2.514.533-.586 1.303-.879 2.31-.879.685 0 1.3.127 1.847.381l-.416 1.108c-.582-.227-1.063-.34-1.442-.34-1.12 0-1.681.744-1.681 2.232 0 .727.14 1.273.419 1.638.279.365.688.548 1.227.548.613 0 1.193-.153 1.74-.457v1.2a2.72 2.72 0 0 1-.788.311c-.28.063-.618.094-1.016.094zm8.197-6.597v1.078h-2.11V314h-1.382v-5.402h-2.11v-1.078h5.602zm3.96 6.597c-1.007 0-1.795-.294-2.363-.882-.569-.588-.853-1.397-.853-2.428 0-1.059.264-1.891.791-2.496.527-.606 1.252-.909 2.174-.909.855 0 1.531.26 2.027.78.496.52.744 1.234.744 2.144v.744h-4.318c.02.63.19 1.113.51 1.45.32.338.771.507 1.353.507.383 0 .74-.036 1.07-.108.33-.072.684-.192 1.063-.36v1.119c-.336.16-.676.273-1.02.34-.343.066-.736.1-1.177.1zm-.251-5.672c-.438 0-.788.139-1.052.416-.264.278-.42.682-.472 1.213h2.942c-.008-.535-.137-.94-.387-1.216-.25-.275-.594-.413-1.031-.413zm8.056 4.237l.077-.282c.16-.582.298-1.029.416-1.341l1.453-3.54h1.834V314h-1.272v-5.232l-.105.351c-.176.629-.324 1.092-.445 1.389L114.102 314h-1.043l-1.418-3.516a15.75 15.75 0 0 1-.54-1.716V314h-1.26v-6.48h1.823l1.406 3.433c.125.317.29.893.493 1.729zm7.126-2.573H122c.906 0 1.576.157 2.01.47.433.312.65.78.65 1.405 0 .668-.225 1.171-.677 1.51-.45.337-1.112.506-1.983.506h-2.69v-6.48h1.377v2.59zm2.607 1.91c0-.324-.12-.55-.36-.68-.24-.128-.585-.193-1.035-.193h-1.213v1.834h1.038c.554 0 .955-.078 1.2-.234.247-.156.37-.398.37-.726zm3.767 1.981h-1.382v-6.48h1.382V314zM145.705 356h-1.646l-3.528-4.342V356h-1.4v-8.566h1.4v4.148l3.469-4.148h1.535l-3.457 4.136 3.627 4.43zm6.732-3.252c0 1.059-.271 1.885-.814 2.479-.543.593-1.299.89-2.268.89-.605 0-1.14-.137-1.605-.41a2.708 2.708 0 0 1-1.072-1.178c-.25-.511-.375-1.105-.375-1.781 0-1.05.27-1.871.808-2.46.54-.59 1.3-.886 2.28-.886.937 0 1.68.302 2.226.906.547.603.82 1.417.82 2.44zm-4.716 0c0 1.496.552 2.244 1.658 2.244 1.094 0 1.64-.748 1.64-2.244 0-1.48-.55-2.22-1.652-2.22-.578 0-.997.19-1.257.574-.26.382-.39.931-.39 1.646zm10.02 1.934l.075-.282c.16-.582.3-1.029.416-1.341l1.454-3.54h1.834V356h-1.272v-5.232l-.105.351c-.176.629-.325 1.092-.446 1.389L158.28 356h-1.043l-1.418-3.516a15.75 15.75 0 0 1-.539-1.716V356h-1.26v-6.48h1.823l1.406 3.433c.125.317.29.893.492 1.729zm9.802 1.318l-.275-.902h-.047c-.313.394-.627.663-.944.805-.316.143-.722.214-1.218.214-.637 0-1.134-.172-1.492-.515-.357-.344-.536-.83-.536-1.46 0-.667.248-1.171.744-1.511.496-.34 1.252-.526 2.268-.557l1.12-.035v-.346c0-.414-.098-.723-.29-.928-.194-.205-.494-.308-.9-.308-.332 0-.65.049-.955.147a7.207 7.207 0 0 0-.88.345l-.445-.984a4.792 4.792 0 0 1 1.155-.42 5.312 5.312 0 0 1 1.183-.143c.824 0 1.447.18 1.866.54.42.359.63.923.63 1.693V356h-.984zm-2.05-.938c.5 0 .9-.14 1.203-.418.303-.28.454-.671.454-1.175v-.563l-.832.035c-.648.024-1.12.132-1.415.326-.295.193-.442.489-.442.887 0 .29.086.513.258.671.172.158.43.238.773.238zm6.333-5.542v2.601h3.053v-2.601h1.377V356h-1.377v-2.795h-3.053V356h-1.377v-6.48h1.377zm12.615 8.771h-1.283V356h-4.441v2.291h-1.272v-3.357h.528c.46-.66.827-1.458 1.098-2.394.272-.936.433-1.942.484-3.02h3.937v5.414h.95v3.357zm-2.302-3.357v-4.36h-1.395c-.074.805-.23 1.598-.466 2.38-.236.78-.524 1.44-.864 1.98h2.725zm7.558 1.066l-.275-.902h-.047c-.313.394-.627.663-.943.805-.317.143-.723.214-1.22.214-.636 0-1.133-.172-1.49-.515-.358-.344-.536-.83-.536-1.46 0-.667.248-1.171.744-1.511.496-.34 1.252-.526 2.267-.557l1.12-.035v-.346c0-.414-.097-.723-.29-.928-.194-.205-.494-.308-.9-.308-.332 0-.65.049-.955.147a7.207 7.207 0 0 0-.879.345l-.445-.984a4.792 4.792 0 0 1 1.154-.42 5.312 5.312 0 0 1 1.184-.143c.824 0 1.446.18 1.866.54.42.359.63.923.63 1.693V356h-.985zm-2.05-.938c.5 0 .9-.14 1.204-.418.302-.28.454-.671.454-1.175v-.563l-.832.035c-.649.024-1.12.132-1.415.326-.295.193-.443.489-.443.887 0 .29.086.513.258.671.172.158.43.238.773.238zM59.52 285h-2.04v-26.16l-5.16 4.56v-2.44l5.16-4.44h2.04V285zm23.8-7.36c0 4.44-3.08 7.6-7.48 7.6s-7.48-3.16-7.48-7.6v-13.76c0-4.44 3.08-7.6 7.48-7.6s7.48 3.16 7.48 7.6v13.76zm-2.04-.2v-13.36c0-3.36-1.88-6-5.44-6-3.56 0-5.44 2.64-5.44 6v13.36c0 3.36 1.88 6 5.44 6 3.56 0 5.44-2.64 5.44-6zm18.52 4.96c0 1.72-1.24 2.74-2.8 2.74-1.56 0-2.8-1.02-2.8-2.74v-2.02c0-1.72 1.24-2.74 2.8-2.74 1.56 0 2.8 1.02 2.8 2.74v2.02zm-3.1-11.64L90 285h-1.64l6.72-14.24h1.62zm-5.82 4.62c0 1.72-1.24 2.72-2.8 2.72-1.56 0-2.8-1-2.8-2.72v-2.02c0-1.72 1.24-2.74 2.8-2.74 1.56 0 2.8 1.02 2.8 2.74v2.02zm7.38 6.96v-1.9c0-.9-.4-1.44-1.26-1.44s-1.26.52-1.26 1.44v1.9c0 .92.4 1.44 1.26 1.44s1.26-.54 1.26-1.44zm-8.92-7.02v-1.9c0-.9-.4-1.44-1.26-1.44s-1.26.52-1.26 1.44v1.9c0 .92.4 1.42 1.26 1.42s1.26-.52 1.26-1.42zM142.52 341h-2.04v-26.16l-5.16 4.56v-2.44l5.16-4.44h2.04V341zm23.8-7.36c0 4.44-3.08 7.6-7.48 7.6s-7.48-3.16-7.48-7.6v-13.76c0-4.44 3.08-7.6 7.48-7.6s7.48 3.16 7.48 7.6v13.76zm-2.04-.2v-13.36c0-3.36-1.88-6-5.44-6-3.56 0-5.44 2.64-5.44 6v13.36c0 3.36 1.88 6 5.44 6 3.56 0 5.44-2.64 5.44-6zm18.52 4.96c0 1.72-1.24 2.74-2.8 2.74-1.56 0-2.8-1.02-2.8-2.74v-2.02c0-1.72 1.24-2.74 2.8-2.74 1.56 0 2.8 1.02 2.8 2.74v2.02zm-3.1-11.64L173 341h-1.64l6.72-14.24h1.62zm-5.82 4.62c0 1.72-1.24 2.72-2.8 2.72-1.56 0-2.8-1-2.8-2.72v-2.02c0-1.72 1.24-2.74 2.8-2.74 1.56 0 2.8 1.02 2.8 2.74v2.02zm7.38 6.96v-1.9c0-.9-.4-1.44-1.26-1.44s-1.26.52-1.26 1.44v1.9c0 .92.4 1.44 1.26 1.44s1.26-.54 1.26-1.44zm-8.92-7.02v-1.9c0-.9-.4-1.44-1.26-1.44s-1.26.52-1.26 1.44v1.9c0 .92.4 1.42 1.26 1.42s1.26-.52 1.26-1.42z"/>
        </g>
    </g>
</svg>
