<svg xmlns="http://www.w3.org/2000/svg" width="57" height="48" viewBox="0 0 57 48">
    <g fill="#4A4A4A" fill-rule="nonzero">
        <path d="M54 10.757L55.273 10s.454 1.73 1.727 2.919c-.545.649-1 1.081-1 1.081s-1.455-1.405-2-3.243z"/>
        <path d="M53.439 9C53.049 11.982 51 12.947 51 12.947s.488.614.878 1.053c1.268-.702 2.732-2.105 3.122-4.65L53.439 9zM46 10.778c.4 1 .8 2 1.9 3.222l1.1-1.222c-.8-.667-1.3-1.667-1.7-2.778-.2.222-1 .667-1.3.778z"/>
        <path d="M44 12.947c.195.264.585.79.878 1.053 1.073-.614 2.634-1.93 3.122-4.65-.293-.087-1.17-.35-1.463-.35-.293 2.018-1.366 3.421-2.537 3.947z"/>
        <path d="M56 7.548c-.26-.967-.26-1.16-.435-1.548C53.913 6.484 48.87 7.355 44 7.161c0 0 .087.871.174 1.452 1.565.097 3.304.097 5.043 0V15h1.479V8.42c2.26-.194 4.26-.485 5.304-.872zM44 2l.095 4H55.81L56 2H44zm3.524 2.756h-2.095V3.244h2.095v1.512zm3.524 0h-2.096V3.244h2.096v1.512zm3.523 0h-2.095V3.244h2.095v1.512zM0 40l2.174 8c.85-.293 17.96-6.244 35.826-2.244v-8.488A74.11 74.11 0 0 0 24.483 36C12.1 36 2.647 39.024 0 40"/>
        <path d="M26 16.18C32.347 34.131 44.474 45.53 47.316 48L53 42.11c-.663-.57-14.21-12.537-19.8-30.11-1.326.76-7.2 4.18-7.2 4.18"/>
        <path d="M7 32.75c1.383.772 7.51 4.25 7.51 4.25C27.356 22.316 31.21 5.7 32 2.029L23.798 0C23.601.87 19.846 18.935 7 32.75"/>
    </g>
</svg>
