<svg xmlns="http://www.w3.org/2000/svg" width="83" height="65" viewBox="0 0 83 65">
    <g fill="#4A4A4A" fill-rule="evenodd">
        <path d="M0 45.075v3.358h69.184l-9.502 16.409 22.406-16.41v-3.357zM0 28.787v1.777A2.746 2.746 0 0 1 1.668 30a2.76 2.76 0 0 1 2.69 2.144H35.16a2.76 2.76 0 0 1 5.324 0h41.604v-3.357H0zM36.449 35.153v7.41h2.695v-7.378a2.65 2.65 0 0 1-2.695-.032M.382 35.207v7.356h2.696v-7.431a2.654 2.654 0 0 1-2.696.075M9.695 34.982c-.284-.192-.648-.286-1.095-.286-.357 0-.67.07-.944.214a1.864 1.864 0 0 0-.692.642l.05-.71H4.34v7.721h2.623v-5.23c0-.584.023-.942.069-1.078.046-.132.16-.2.34-.2.17 0 .275.059.311.174.039.117.058.442.058.975v5.36h2.622v-5.417c0-.676-.04-1.157-.121-1.446-.082-.29-.265-.529-.548-.72M20.24 34.987c-.29-.194-.66-.29-1.103-.29-.338 0-.644.071-.92.218a2.242 2.242 0 0 0-.745.658c-.4-.585-.95-.877-1.646-.877-.358 0-.676.072-.957.22-.28.145-.52.364-.722.657l.048-.731h-2.574v7.721h2.526v-5.366c0-.371.004-.616.014-.73a.434.434 0 0 1 .135-.292.407.407 0 0 1 .298-.12c.188 0 .3.077.342.228.04.151.061.606.061 1.364v4.916h2.527V37.52c0-.665.027-1.074.081-1.23.056-.157.177-.234.365-.234.185 0 .302.078.352.237.05.158.076.566.076 1.227v5.044h2.525v-5.491c0-.634-.04-1.091-.122-1.371-.082-.283-.268-.52-.56-.714M25.44 37.586h-.752v-.571c0-.44.022-.709.064-.81.042-.1.152-.15.331-.15.144 0 .24.059.287.177.048.117.07.378.07.783v.57zm1.333-2.514c-.477-.25-1.083-.376-1.815-.376-.601 0-1.131.104-1.593.31-.462.21-.795.507-.997.9-.202.39-.304.923-.304 1.599v2.255c0 .575.045 1.011.136 1.313.09.302.253.578.488.83.236.249.565.446.988.59.422.144.91.216 1.463.216.57 0 1.043-.073 1.42-.218.378-.145.689-.362.935-.652.246-.29.402-.562.469-.818.066-.255.1-.62.1-1.096v-.568h-2.476v1.017c0 .384-.034.64-.1.775-.067.133-.199.2-.395.2-.158 0-.265-.05-.321-.153-.056-.1-.083-.325-.083-.676v-1.672h3.376V37.82c0-.752-.096-1.334-.288-1.75-.192-.414-.527-.747-1.003-.998zM32.565 40.367c0 .432-.027.704-.08.814-.057.113-.166.168-.33.168-.144 0-.24-.05-.29-.15-.051-.098-.077-.306-.077-.623v-3.801c0-.305.027-.5.08-.589.052-.086.154-.13.305-.13.157 0 .26.047.313.146.053.097.079.288.079.573v3.592zm0-5.04a2.196 2.196 0 0 0-.732-.473 2.403 2.403 0 0 0-.886-.158c-.419 0-.779.093-1.078.282-.301.189-.495.406-.578.656-.084.248-.127.67-.127 1.265v3.618c0 .57.043.984.127 1.236.083.253.274.475.57.667.297.193.647.289 1.052.289.302 0 .59-.06.865-.177.276-.117.537-.293.787-.527v.558h2.623v-9.421h-2.623v2.185zM43.566 40.486c0 .391-.027.633-.075.724-.05.093-.157.139-.319.139-.174 0-.288-.058-.347-.177-.057-.117-.086-.377-.086-.779 0-.35.032-.62.099-.809.067-.187.31-.42.728-.697v1.599zm1.676-5.37c-.45-.28-1.117-.42-2.002-.42-.738 0-1.338.124-1.8.372-.464.248-.771.533-.924.86-.153.323-.23.784-.23 1.382v.518h2.453v-.814c0-.432.023-.7.065-.805.044-.102.153-.154.33-.154.153 0 .264.062.33.184.069.123.102.388.102.794 0 .323-.033.538-.092.642-.06.107-.518.31-1.377.613-.803.28-1.304.525-1.508.735-.202.21-.303.604-.303 1.185v.636c0 .78.19 1.286.572 1.518.382.23.803.347 1.26.347.348 0 .649-.07.901-.209.252-.138.46-.345.62-.621v.684h2.55v-3.879c0-1.276-.046-2.12-.136-2.53-.093-.41-.363-.755-.81-1.038zM52.765 35.01c-.322-.21-.71-.314-1.167-.314-.296 0-.577.046-.837.14a2.397 2.397 0 0 0-.726.42v-2.114H47.41v9.421h2.625v-5.522c0-.393.026-.656.082-.787.056-.133.16-.199.318-.199.17 0 .279.064.327.193.05.128.074.417.074.869v5.446h2.623v-5.328c0-.726-.036-1.225-.106-1.5-.072-.273-.267-.516-.588-.726M73.922 37.014c0-.439.022-.708.064-.808.042-.1.154-.15.332-.15.143 0 .24.058.288.177.046.116.07.377.07.781v.572h-.754v-.572zm-1.998 4.888c.235.25.564.448.986.591.422.144.912.216 1.464.216.57 0 1.043-.073 1.42-.218a2.27 2.27 0 0 0 .936-.652c.245-.29.4-.562.467-.818.068-.255.101-.62.101-1.096v-.568h-2.477v1.017c0 .383-.032.64-.099.774-.066.134-.198.2-.395.2-.16 0-.266-.05-.32-.152-.057-.1-.085-.326-.085-.676v-1.672h3.376V37.82c0-.752-.095-1.334-.287-1.75-.192-.413-.527-.747-1.004-.998-.476-.25-1.082-.376-1.815-.376-.6 0-1.131.104-1.593.31-.46.21-.794.507-.997.9-.202.39-.303.923-.303 1.599v2.255c0 .575.045 1.011.136 1.313.091.302.253.578.489.829zM78.618 40.171c0 .768.024 1.256.072 1.464.046.207.167.392.36.553.194.16.417.264.672.309.253.044.677.066 1.27.066h1.05v-1.24c-.419 0-.657-.027-.714-.086-.058-.059-.086-.343-.086-.85V36.25h.68v-1.214h-.68v-1.24h-2.624v1.24h-.56v1.214h.56v3.921zM60.11 41.532c0-.17.027-.334.067-.493l-.932-3.126 1.07-3.071H58.14l-.827 2.252-.01-3.953h-2.625v9.422h2.624l.011-3.369.827 3.37H60.4a2.017 2.017 0 0 1-.29-1.032M66.74 37.332c0-.583.023-.941.067-1.077.047-.132.16-.2.34-.2.171 0 .275.059.313.174.038.117.056.442.056.975v5.36h2.624v-5.417c0-.676-.04-1.157-.123-1.447-.081-.289-.263-.528-.547-.718-.283-.193-.649-.286-1.095-.286-.356 0-.67.07-.943.214a1.852 1.852 0 0 0-.692.642l.047-.71h-2.67v6.212c.037.154.062.313.062.478 0 .166-.025.325-.063.479v.552h2.624v-5.23z"/>
        <path d="M69.184 48.433l-9.503 16.409 22.407-16.41zM1.669 31.203c-.483 0-.916.21-1.221.539A1.656 1.656 0 0 0 0 32.869c0 .4.147.761.382 1.049.15.182.334.331.547.438.224.112.473.18.74.18.266 0 .515-.068.739-.18a1.669 1.669 0 0 0 .928-1.487c0-.436-.173-.83-.447-1.127a1.657 1.657 0 0 0-1.22-.539M37.823 31.203c-.484 0-.916.21-1.22.539a1.652 1.652 0 0 0 .48 2.614c.224.112.473.18.74.18s.515-.068.738-.18c.23-.115.429-.28.583-.483a1.65 1.65 0 0 0 .345-1.004c0-.436-.171-.83-.447-1.127a1.657 1.657 0 0 0-1.219-.539M62.145 40.263c-.7 0-1.271.57-1.271 1.269 0 .7.57 1.27 1.27 1.27.701 0 1.27-.57 1.27-1.27a1.27 1.27 0 0 0-1.27-1.269M10.87 15.945H8.932c.352-.337.652-.71.901-1.121h1.035v1.12zm-1.255 3.21h1.254V17.55H9.615v1.606zm-.11-9.215h1.21V8.137h-1.21V9.94zm3.609 10.823h.68l.616 1.032c-.131.031-.313.06-.549.088-.263.03-.514.06-.747.09v-1.21zm0-1.607h1.296V17.55h-1.296v1.606zm0-4.332h4.18c0 1.613-.008 2.94-.023 3.98a64.792 64.792 0 0 1-.175 4.047c-.44-.615-.954-1.311-1.54-2.088h.924v-4.818h-3.366v-1.121zM12.54 9.94h1.32V8.137h-1.32V9.94zm3.146-.021h1.409V8.115h-1.41v1.804zm-4.136 1.87h7.944V6.222H7.084v5.565h1.893a6.995 6.995 0 0 1-2.552 3.123c-.089-1.95-.352-3.504-.791-4.663.556-.615 1.033-1.4 1.43-2.353L5.038 6.553a5.563 5.563 0 0 1-.837 1.54c-.543-.748-1.313-1.379-2.31-1.892L.352 7.85c.953.601 1.693 1.29 2.223 2.068a10.026 10.026 0 0 1-2.531 1.957L1.65 13.92c.865-.673 1.534-1.26 2.002-1.759.147.514.221 1.078.221 1.693-.25.631-.757 1.43-1.519 2.398C1.576 17.22.791 17.976 0 18.518l1.715 2.135c.455-.397.984-.976 1.585-1.738.601-.763.902-1.196.902-1.299v.484c0 2.053-.067 3.395-.198 4.025-.131.631-.536.947-1.21.947-.544 0-1.166-.066-1.87-.198l.572 2.859c.337.029.711.044 1.122.044 1.57 0 2.625-.374 3.168-1.122.514-.748.77-2.632.77-5.653 0-1.187-.015-2.236-.043-3.145l1.1 1.297v3.609h3.256v1.428c-1.086.103-2.53.192-4.334.265l.417 2.287c3.726-.426 6.55-.873 8.471-1.342l.286.55-.902-.066.484 1.936c.294.029.616.044.968.044 1.497 0 2.435-.381 2.817-1.144.382-.762.61-4.765.682-12.01H11.11c.176-.322.322-.63.44-.923zM52.816 13.855h4.135v-1.34h-4.135v1.34zm0-3.343h4.135V9.368h-4.135v1.144zm-7.46 8.028c-.162-.146-.542-.417-1.145-.813.397-1.482.75-3.344 1.056-5.587h1.257c-.208 2.859-.596 4.992-1.168 6.4zm13.202.726h2.706v-2.2h-4.951V16.01h3.389V9.368h1.496V7.235h-1.496v-1.32h-2.75v1.32h-4.136v-1.32h-2.728v1.32H48.81v2.133h1.277v6.642h3.54v1.057h-5.016v2.199h2.794c-.307 1.261-1.246 2.36-2.816 3.3l.617-1.056a24.561 24.561 0 0 0-1.695-1.364c.94-2.566 1.46-6.071 1.562-10.514H45.73c.103-.91.213-2.083.33-3.519l-2.596-.088a33.221 33.221 0 0 1-.31 3.607h-1.913v2.508h1.52c-.191 1.965-.646 4.128-1.365 6.489a19.55 19.55 0 0 1 2.882 2.265c-.484 1.07-1.503 2.03-3.058 2.881l1.98 2.199c1.38-.909 2.427-2.039 3.146-3.387.426.382.88.895 1.364 1.54l.683-1.144 1.408 2.265c.806-.528 1.612-1.385 2.42-2.573.793-1.187 1.26-2.28 1.408-3.277v6.753h2.684v-6.753c.588 2.463 1.798 4.435 3.63 5.917l1.54-2.552c-1.627-.953-2.602-2.119-2.925-3.497zM64.332 15.22h3.565v-.815h-3.565v.814zm.682 2.902h2.2v-.924h-2.2v.924zm0 2.596h2.2v-.925h-2.2v.925zm1.716-8.359h.726v-1.473h-.726v1.473zm-2.09-3.87h2.816v.813h-2.222v3.057h-.594V8.49zm5.346 8.665h11.97V15H70.14v-2.64h-.658V6.333h-6.867v6.026h-.527v3.718h.725V26.15h2.201V22.39h2.2v.461c0 .455-.242.682-.725.682l-.837-.065.418 2.419h1.496c1.187 0 1.782-.764 1.782-2.288v-7.522h.638v1.077z"/>
        <path d="M73.419 20.63h5.15V19.55h-5.15v1.078zm3.61 3.078H75.09a9.866 9.866 0 0 0-.482-1.406h2.947a7.317 7.317 0 0 1-.527 1.406zm3.1-1.406h1.013v-4.4H70.89v4.4h1.033c.25.512.427.981.53 1.406h-2.708v2.156h12.344v-2.156h-2.486c.235-.585.41-1.055.528-1.406zM75.333 9.852h1.122V8.797h-1.122v1.055zm2.728 2.64h1.167v-1.188h-1.167v1.188zm0-2.64h1.167V8.797h-1.167v1.055zm-2.728 2.64h1.122v-1.188h-1.122v1.188zm-2.618-2.64h.99V8.797h-.99v1.055zm0 2.64h.99v-1.188h-.99v1.188zm.462-6.577v1.122H70.47v7.215h10.98V7.037h-2.882V5.915h-2.222v1.122h-.902V5.915h-2.267zM0 3.674h82.088V.317H0zM36.293 17.959a119.282 119.282 0 0 0 1.785-3.812l-3.65-1.378c-1.19 3.515-2.38 6.515-3.57 9h-9.895v3h19.305v-3h-5.76c.433-.864 1.027-2.134 1.785-3.81"/>
        <path d="M23.477 14.067c1.136 2.703 2.082 5.135 2.839 7.297l3.245-1.298a167.27 167.27 0 0 0-2.515-5.919c-.27-.594-.46-1.026-.568-1.297l-3 1.217zM28.993 6.2v3.083h-7.382v3.162H39.7V9.283h-7.22V6.2z"/>
    </g>
</svg>
