<svg xmlns="http://www.w3.org/2000/svg" width="120" height="25" viewBox="0 0 120 25">
    <path fill="#4A4A4A" fill-rule="evenodd" d="M60.62 5.364h2.745V0h4.339v5.364h3.055v4.022h-3.055v10.967h2.95v4.022h-7.29V9.386h-5.798v10.967h2.95v4.022h-7.29V9.386h-2.95V5.364h2.95V0h4.34v5.364h3.055zM0 24.375V0h5.913l6.639 18.565h.103L19.295 0h5.947v24.375h-4.254V7.151h-.138c-.207.757-.415 1.582-.795 2.613l-5.429 14.611H10.65L5.22 9.765a20.867 20.867 0 0 1-.795-2.614h-.139v17.224H0zM37.314 25c-5.396 0-9.383-4.452-9.383-10 0-5.547 3.987-10 9.383-10 3.368 0 5.98 1.815 7.183 4.315h.137V5.548h4.194v18.939h-4.194v-3.699h-.137C42.847 23.768 40.373 25 37.314 25zm.72-3.958c3.449 0 5.828-2.604 5.828-6.042 0-3.472-2.38-6.041-5.828-6.041-3.413 0-5.758 2.57-5.758 6.041 0 3.438 2.345 6.042 5.758 6.042zm44 3.958c-5.866 0-10.448-4.528-10.448-10.085C71.586 9.357 76.168 5 82.034 5c5.867 0 10.449 4.357 10.449 10.052 0 .308-.035.858-.139 1.372H76.238c.486 2.607 2.95 4.562 5.866 4.562 2.29 0 4.2-1.063 5.103-2.984h4.79C90.643 22.084 86.825 25 82.034 25zm-5.689-11.874h11.38c-.384-2.387-2.646-4.376-5.708-4.376-3.062 0-5.359 1.844-5.672 4.376zm18 11.25V5.416h11.38v4.011H98.65v14.947h-4.306zm18.552.624c-4.108 0-7.173-2.744-7.173-6.072h4.353c.034 1.235 1.288 2.127 2.89 2.127 1.706 0 2.785-.823 2.785-2.058 0-1.578-1.706-1.921-3.447-2.367-3.621-.892-6.198-2.367-6.198-5.832 0-3.259 2.995-5.798 6.93-5.798 3.794 0 6.928 2.573 6.928 5.935l-4.353-.034c0-1.27-1.218-1.99-2.576-1.99-1.393 0-2.576.686-2.576 1.853 0 1.406 1.67 1.75 3.412 2.195 2.576.652 6.128 1.51 6.128 5.97 0 3.361-3.203 6.071-7.103 6.071z"/>
</svg>
