<svg xmlns="http://www.w3.org/2000/svg" width="63" height="65" viewBox="0 0 63 65">
    <g fill="#4A4A4A" fill-rule="evenodd">
        <path d="M2.452 65C1.326 65 .585 64.751 0 64.175l.928-.959c.476.41 1.222.456 1.534.456.908 0 1.098-.41 1.098-.754 0-.209-.054-.371-.165-.497-.115-.12-.29-.196-.522-.226l-.83-.12c-.584-.087-1.029-.286-1.318-.594-.294-.314-.443-.768-.443-1.348 0-1.296.944-2.133 2.403-2.133.956 0 1.628.227 2.16.735l-.907.937c-.427-.373-.951-.373-1.184-.373h-.118c-.647 0-.942.401-.942.774 0 .089.022.26.168.41.127.132.308.214.539.243l.829.12c.58.084 1.013.272 1.29.556.323.325.48.807.48 1.476C5 64.343 3.72 65 2.452 65M7.743 65v-5.648H6V58h5v1.352H9.256V65zM13.647 62.674h1.758l-.85-2.425-.908 2.425zM16.216 65l-.372-1.076H13.18L12.786 65H11l2.83-7h1.34L18 65h-1.784zM23.479 65l-2.768-3.92V65H19v-7h1.522l2.767 3.922V58H25v7zM28.499 63.65h.871c.428 0 .72-.146.924-.46.162-.238.205-.476.205-1.69 0-1.213-.043-1.451-.206-1.692-.202-.31-.496-.456-.923-.456H28.5v4.297zM27 65v-7h2.489c.756 0 1.383.234 1.812.678.71.731.705 1.52.698 2.518v.61c.007.997.013 1.786-.698 2.519-.43.44-1.056.675-1.812.675H27zM37.478 65l-2.767-3.92V65H33v-7h1.521l2.768 3.922V58H39v7zM41 65v-7h5v1.352h-3.351v1.443h2.864v1.352h-2.864v1.502H46V65zM52.767 65L51.5 61.176 50.233 65h-1.285L47 58h1.633l1.035 4.144L50.951 58h1.098l1.282 4.143L54.367 58H56l-1.94 7zM59.452 65c-1.126 0-1.868-.249-2.452-.825l.928-.959c.476.41 1.222.456 1.534.456.908 0 1.097-.41 1.097-.754 0-.209-.053-.371-.164-.497-.115-.12-.29-.196-.522-.226l-.83-.12c-.584-.087-1.029-.286-1.318-.594-.294-.314-.443-.768-.443-1.348 0-1.296.944-2.133 2.403-2.133.956 0 1.628.227 2.161.735l-.908.937c-.427-.373-.952-.373-1.185-.373h-.117c-.647 0-.942.401-.942.774 0 .089.021.26.167.41.129.132.31.214.54.243l.829.12c.58.084 1.013.272 1.29.556.323.325.48.807.48 1.476C62 64.343 60.72 65 59.452 65M25.188 2.82H2.805v29.127L37.836 47.19h22.36V18.064L25.188 2.82zM37.228 50L0 33.79V.01L25.748 0 63 16.222V50H37.228z"/>
        <path d="M48.084 34.707H56v-2.183H43.081v2.183h1.9l-1.28 2.599-.423-1.206-1.72.62v-5.168h1.666v-2.376h-1.667V25h-2.185v4.176h-1.868v2.376h1.868v5.956L37 38.364l.792 2.251 5.203-1.876-.785 1.595h2.385l1.26-2.572h1.115L44.4 43h2.15l2.554-5.24h1.127L47.661 43h2.158l2.521-5.172.07-.068h.692v2.785c0 .631-.43 1.054-1.07 1.054h-.473L52.123 44c2.233-.03 3.274-.992 3.274-3.023v-5.238h-8.545l.496-1.032h.736z"/>
        <path d="M47.103 30.345h4.678v-1.1h-4.678v1.1zm0-2.589h4.678v-1.099h-4.678v1.099zM45 32h9v-7h-9v7zM7 11V8.644h6.733V6h2.398v2.644H23V11zM10.359 21L9 13h2.577L13 21z"/>
        <path d="M6 25v-2.62h9.29L17.733 13h2.703l-2.41 9.38H23V25z"/>
    </g>
</svg>
