<svg xmlns="http://www.w3.org/2000/svg" width="140" height="25" viewBox="0 0 140 25">
    <g fill="#4A4A4A" fill-rule="nonzero">
        <path d="M46.89 19.699L41.135 5.38a1.456 1.456 0 0 0-1.345-.93h-2.818L45.4 24.256H48.3L56.774 4.45H54.01a1.456 1.456 0 0 0-1.345.93L46.89 19.698zM68.26 4.06a10 10 0 0 0-7.19 2.97 10.193 10.193 0 0 0-2.942 7.258v.074c.02 5.648 4.573 10.21 10.168 10.19 5.596-.02 10.115-4.616 10.095-10.264v-.075a10.146 10.146 0 0 0-2.956-7.222 9.954 9.954 0 0 0-7.176-2.93zm0 17.322a6.722 6.722 0 0 1-4.787-2.128 6.852 6.852 0 0 1-1.845-4.939v-.074c0-4.007 2.846-7.029 6.53-7.029A6.76 6.76 0 0 1 72.97 9.35a6.89 6.89 0 0 1 1.856 4.965v.075a6.721 6.721 0 0 1-1.81 4.906 6.593 6.593 0 0 1-4.757 2.086zM96.858 19.076a7.109 7.109 0 0 1-5.103 2.306 6.714 6.714 0 0 1-4.77-2.135 6.843 6.843 0 0 1-1.834-4.932v-.074c0-3.942 2.819-7.029 6.448-7.029a6.72 6.72 0 0 1 4.77 2.055l.231.223a.981.981 0 0 0 1.418 0l1.594-1.701-.203-.224a10.068 10.068 0 0 0-11.198-2.823c-3.95 1.506-6.56 5.329-6.55 9.592v.074c-.011 4.312 2.677 8.16 6.705 9.598a10 10 0 0 0 11.19-3.21l.212-.233-1.565-1.478a.917.917 0 0 0-1.317 0l-.028-.01zM133.322 12.642h-.073c-2.33-.716-4.541-1.395-4.541-2.938v-.075c0-1.46 1.335-2.436 3.325-2.436a9.879 9.879 0 0 1 4.79 1.414c.497.285 1.129.12 1.427-.372l1.05-1.767-.221-.176a13.038 13.038 0 0 0-6.954-2.157c-3.96 0-6.724 2.37-6.724 5.764v.074c0 3.831 3.685 4.9 6.448 5.681 2.533.716 4.467 1.395 4.467 3.031v.075c0 1.608-1.437 2.696-3.574 2.696a10.26 10.26 0 0 1-5.646-1.86 1.181 1.181 0 0 0-1.64.298l-1.114 1.543.24.186a13.195 13.195 0 0 0 7.994 2.864c4.2 0 7.019-2.417 7.019-6.016v-.074c0-3.85-3.777-4.993-6.273-5.755zM111.632 21.456c-3.058 0-4.882-2.027-4.882-5.411V6.078c0-.806-.647-1.46-1.446-1.46h-1.999v12.087c0 4.816 2.957 7.93 7.525 7.93a7.239 7.239 0 0 0 5.388-2.082v-3.719a5.066 5.066 0 0 1-4.586 2.622zM119.46 4.618h-1.97v18.26a1.397 1.397 0 0 0 1.39 1.395h2.027V6.078c0-.806-.648-1.46-1.446-1.46zM23.293.239H0v18.325c.03 3.33 2.716 6.012 6.014 6.007h23.294V6.245c-.03-3.33-2.716-6.011-6.015-6.006zm-7.12 13.481H6.218c-1.36-.025-2.443-1.156-2.422-2.529V3.958h9.966c1.356.03 2.433 1.16 2.413 2.529v7.233zm9.395 7.02h-6.447a1.526 1.526 0 0 1-1.566-1.478v-4.25h6.448a1.526 1.526 0 0 1 1.556 1.488l.01 4.24z"/>
    </g>
</svg>
