<?xml version="1.0" encoding="UTF-8"?>
<svg width="80px" height="80px" viewBox="0 0 40 40" version="1.1" xmlns="http://www.w3.org/2000/svg" xmlns:xlink="http://www.w3.org/1999/xlink">
    <g fill="#4a4a4a" stroke="none" stroke-width="1" fill-rule="evenodd">
        <g transform="translate(-128.000000, -396.000000)">
            <g transform="translate(64.000000, 296.000000)">
                <g transform="translate(64.000000, 100.000000)">
                    <path d="M19.990003,0.019988006 C8.94982309,0.019988006 1.79910045e-05,8.9697931 1.79910045e-05,20.009973 C1.79910045e-05,31.0501529 8.94982309,40.000018 19.990003,40.000018 C31.0301829,40.000018 39.979988,31.0501529 39.979988,20.009973 C39.979988,8.9697931 31.0301829,0.019988006 19.990003,0.019988006 M19.990003,1.21938831 C22.5272744,1.21938831 24.987964,1.71605997 27.3037661,2.69555022 C28.4169895,3.16637481 29.4906927,3.74922339 30.4951904,4.42778411 C31.4904528,5.10022789 32.4263448,5.8724018 33.2770195,6.72301649 C34.1275742,7.57363118 34.8998081,8.50958321 35.5721919,9.50484558 C36.2507526,10.5093433 36.8336012,11.5830465 37.3044858,12.6962099 C38.283976,15.012072 38.7805877,17.4727616 38.7805877,20.009973 C38.7805877,22.5472444 38.283976,25.007934 37.3044858,27.3237961 C36.8336012,28.4369595 36.2507526,29.5106627 35.5721919,30.5151604 C34.8998081,31.5104228 34.1275742,32.4463148 33.2770195,33.2969295 C32.4263448,34.1476042 31.4904528,34.9198381 30.4951904,35.5922219 C29.4906927,36.2707826 28.4169895,36.8536312 27.3037661,37.3243958 C24.987964,38.303946 22.5272744,38.8006177 19.990003,38.8006177 C17.4527316,38.8006177 14.992042,38.303946 12.6762399,37.3243958 C11.5630165,36.8536312 10.4893133,36.2707826 9.48481559,35.5922219 C8.48955322,34.9198381 7.55366117,34.1476042 6.70298651,33.2969295 C5.85243178,32.4463148 5.0801979,31.5104228 4.40781409,30.5151604 C3.72925337,29.5106627 3.1464048,28.4369595 2.67552024,27.3237961 C1.69602999,25.007934 1.19941829,22.5472444 1.19941829,20.009973 C1.19941829,17.4727616 1.69602999,15.012072 2.67552024,12.6962099 C3.1464048,11.5830465 3.72925337,10.5093433 4.40781409,9.50484558 C5.0801979,8.50958321 5.85243178,7.57363118 6.70298651,6.72301649 C7.55366117,5.8724018 8.48955322,5.10022789 9.48481559,4.42778411 C10.4893133,3.74922339 11.5630165,3.16637481 12.6762399,2.69555022 C14.992042,1.71605997 17.4527316,1.21938831 19.990003,1.21938831" id="Fill-1"></path>
                    <path d="M34.5126803,12.1011876 C34.5840919,12.6306993 34.6244966,13.19882 34.6244966,13.8108771 C34.6244966,15.497461 34.3085016,17.3942094 33.3596784,19.7661775 L28.2813106,34.4494419 C33.2246368,31.5674162 36.5490196,26.2119018 36.5490196,20.0778029 C36.5490196,17.1869779 35.8103011,14.4692649 34.5126803,12.1011876 Z M20.21365,21.532254 L15.2241128,36.0283995 C16.71418,36.466806 18.2895461,36.7058824 19.9215387,36.7058824 C21.8578539,36.7058824 23.7153349,36.3717501 25.4435207,35.7631648 C25.3989857,35.6919926 25.3580422,35.6165105 25.3241621,35.534025 L20.21365,21.532254 Z M31.1465159,19.2392398 C31.1465159,17.1836258 30.4081566,15.7609598 29.7757475,14.65375 C28.9328147,13.2834604 28.142438,12.1241734 28.142438,10.7539437 C28.142438,9.22574645 29.301306,7.80296065 30.9346754,7.80296065 C31.0084215,7.80296065 31.0782768,7.81187962 31.1499279,7.8164289 C28.191642,5.10589894 24.2502937,3.45098039 19.9215387,3.45098039 C14.1122939,3.45098039 9.00202133,6.43165349 6.02883059,10.945133 C6.41923023,10.9575238 6.78706307,10.9653055 7.09892785,10.9653055 C8.83776856,10.9653055 11.5306401,10.7539437 11.5306401,10.7539437 C12.4264283,10.7014475 12.5323786,12.0182831 11.6368897,12.1241734 C11.6368897,12.1241734 10.7358339,12.2296448 9.73409548,12.282141 L15.7887617,30.2927213 L19.4280621,19.3798483 L16.8376689,12.282141 C15.9418208,12.2296448 15.0936803,12.1241734 15.0936803,12.1241734 C14.1973534,12.0712582 14.3024057,10.7014475 15.1991517,10.7539437 C15.1991517,10.7539437 17.9444596,10.9653055 19.578248,10.9653055 C21.3170288,10.9653055 24.0103194,10.7539437 24.0103194,10.7539437 C24.9066464,10.7014475 25.0120579,12.0182831 24.11615,12.1241734 C24.11615,12.1241734 23.2142562,12.2296448 22.2132959,12.282141 L28.2222898,30.1555247 L29.9376059,24.7202184 C30.6997292,22.3448982 31.1465159,20.6620256 31.1465159,19.2392398 Z M3.29411765,20.0778029 C3.29411765,26.6589878 7.11850171,32.3469585 12.6655646,35.0418653 L4.73384351,13.3110554 C3.8112984,15.3787608 3.29411765,17.6671659 3.29411765,20.0778029 Z" id="Fill-4"></path>
                </g>
            </g>
        </g>
    </g>
</svg>
