<svg xmlns="http://www.w3.org/2000/svg" xmlns:xlink="http://www.w3.org/1999/xlink" width="256" height="118" viewBox="0 0 256 118">
    <defs>
        <path id="a" d="M.092.075h25.462v25.558H.092z"/>
        <path id="c" d="M.086.075h24.51v25.558H.085z"/>
    </defs>
    <g fill="none" fill-rule="evenodd">
        <path fill="#E94F4F" d="M80.633 44.816c0 7.079-5.738 12.817-12.817 12.817C60.738 57.633 55 51.895 55 44.816 55 37.738 60.738 32 67.816 32c7.079 0 12.817 5.738 12.817 12.816"/>
        <path fill="#0097E8" d="M110.063 44.816c0 7.079-5.738 12.817-12.816 12.817S84.43 51.895 84.43 44.816C84.43 37.738 90.17 32 97.247 32s12.816 5.738 12.816 12.816"/>
        <path fill="#16A122" d="M80.633 74.247c0 7.078-5.738 12.816-12.817 12.816C60.738 87.063 55 81.325 55 74.247S60.738 61.43 67.816 61.43c7.079 0 12.817 5.739 12.817 12.817"/>
        <path fill="#353434" d="M97.247 85.782c-6.37 0-11.535-5.165-11.535-11.535s5.164-11.535 11.535-11.535c6.37 0 11.535 5.164 11.535 11.535 0 6.37-5.165 11.535-11.535 11.535m0-24.352c-7.078 0-12.817 5.739-12.817 12.817s5.739 12.816 12.817 12.816 12.816-5.738 12.816-12.816-5.738-12.817-12.816-12.817"/>
        <path fill="#353434" d="M92.975 80.887V68.556c0-.37.396-.6.712-.414l10.445 6.166a.482.482 0 0 1 0 .828L93.687 81.3a.474.474 0 0 1-.712-.414"/>
        <g transform="translate(115.76 61.43)">
            <mask id="b" fill="#fff">
                <use xlink:href="#a"/>
            </mask>
            <path fill="#353434" d="M18.302 18.707c-1.44 1.508-3.266 2.262-5.48 2.262-2.212 0-4.038-.754-5.478-2.262-1.44-1.508-2.16-3.459-2.16-5.853 0-2.394.72-4.345 2.16-5.853 1.44-1.508 3.266-2.262 5.479-2.262s4.039.754 5.479 2.262c1.44 1.508 2.16 3.46 2.16 5.853 0 2.394-.72 4.345-2.16 5.853M12.822.075c-3.637 0-6.668 1.236-9.093 3.708C1.304 6.255.092 9.28.092 12.854c0 3.576 1.212 6.6 3.637 9.071 2.425 2.472 5.456 3.708 9.094 3.708 3.637 0 6.668-1.236 9.093-3.708 2.425-2.472 3.638-5.495 3.638-9.07 0-3.576-1.213-6.6-3.638-9.072C19.491 1.311 16.46.075 12.823.075" mask="url(#b)"/>
        </g>
        <g transform="translate(180.316 61.43)">
            <mask id="d" fill="#fff">
                <use xlink:href="#c"/>
            </mask>
            <path fill="#353434" d="M5.275 11.035c0-1.99.757-3.568 2.27-4.733 1.514-1.166 3.22-1.75 5.12-1.75s3.498.56 4.795 1.68c1.298 1.119 1.946 2.72 1.946 4.803H5.275zm19.32.513c0-3.575-1.173-6.381-3.52-8.418-2.348-2.036-5.198-3.055-8.55-3.055-3.35 0-6.262 1.15-8.733 3.452C1.322 5.827.086 8.929.086 12.83s1.212 7.011 3.637 9.327c2.425 2.317 5.367 3.475 8.826 3.475 4.263 0 7.722-1.384 10.378-4.15l-2.965-3.265c-1.606 1.958-3.953 2.938-7.042 2.938-1.946 0-3.676-.552-5.19-1.656-1.513-1.104-2.332-2.557-2.455-4.36h19.32v-3.592z" mask="url(#d)"/>
        </g>
        <path fill="#353434" d="M175.38 78.457c-2.025 2.042-4.181 3.063-6.467 3.063-2.287 0-4.212-.766-5.777-2.298-1.565-1.531-2.348-3.4-2.348-5.608 0-2.207.79-4.008 2.37-5.405 1.581-1.396 3.445-2.094 5.593-2.094 2.149 0 5.525.9 7.643 2.702l1.794-3.648c-2.547-2.492-5.662-3.739-9.345-3.739-3.682 0-6.804 1.15-9.367 3.446-2.562 2.297-3.843 5.278-3.843 8.941 0 3.664 1.227 6.63 3.682 8.896 2.455 2.267 5.386 3.4 8.792 3.4 3.897 0 7.334-1.47 10.31-4.413l-1.162-1.242-1.875-2.001zM146.14 87.063h4.746V62.38h-4.747zM148.513 58.582c.904 0 1.684-.327 2.34-.983.655-.655.982-1.435.982-2.34 0-.904-.327-1.684-.982-2.34-.656-.655-1.436-.982-2.34-.982-.905 0-1.685.327-2.34.983-.656.655-.983 1.435-.983 2.34 0 .904.327 1.684.983 2.34.655.655 1.435.982 2.34.982"/>
    </g>
</svg>
