<?xml version="1.0" encoding="UTF-8"?>
<svg width="28px" height="28px" viewBox="0 0 28 28" version="1.1" xmlns="http://www.w3.org/2000/svg" xmlns:xlink="http://www.w3.org/1999/xlink">
    <g id="Post_ico" stroke="none" stroke-width="1" fill="none" fill-rule="evenodd">
        <g id="like_linksocal_setting" transform="translate(-521.000000, -1728.000000)" fill="#4A4A4A">
            <g id="icon-2" transform="translate(521.000000, 1728.000000)">
                <path d="M20.5762,11.0687 L16.8982,7.3907 C17.9322,6.6247 19.3912,6.7017 20.3272,7.6377 C21.2652,8.5747 21.3412,10.0367 20.5762,11.0687 Z M13.2202,18.3227 L9.4862,14.5897 L16.0672,8.1537 L17.5402,9.6267 L12.5862,14.5817 C12.3662,14.8017 12.3662,15.1587 12.5862,15.3787 C12.6962,15.4887 12.8402,15.5437 12.9842,15.5437 C13.1282,15.5437 13.2722,15.4887 13.3832,15.3787 L18.3372,10.4227 L19.8012,11.8877 L13.2202,18.3227 Z M6.9872,21.6157 C6.6072,21.7767 6.2242,21.3947 6.3862,21.0147 L8.9512,15.8317 L12.0292,18.9087 L6.9872,21.6157 Z M14.0002,-0.0003 C6.2682,-0.0003 0.0002,6.2677 0.0002,13.9997 C0.0002,21.7327 6.2682,27.9997 14.0002,27.9997 C21.7322,27.9997 28.0002,21.7327 28.0002,13.9997 C28.0002,6.2677 21.7322,-0.0003 14.0002,-0.0003 Z" id="Fill-1"></path>
            </g>
        </g>
    </g>
</svg>
