<?xml version="1.0" encoding="UTF-8"?>
<svg width="28px" height="28px" viewBox="0 0 28 28" version="1.1" xmlns="http://www.w3.org/2000/svg" xmlns:xlink="http://www.w3.org/1999/xlink">
    <defs>
        <polygon id="path-1" points="0.0001 0 28 0 28 27.9995 0.0001 27.9995"></polygon>
    </defs>
    <g id="Post_ico" stroke="none" stroke-width="1" fill="none" fill-rule="evenodd">
        <g id="like_linksocal_setting" transform="translate(-653.000000, -1728.000000)">
            <g id="icon-5" transform="translate(653.000000, 1728.000000)">
                <mask id="mask-2" fill="white">
                    <use xlink:href="#path-1"></use>
                </mask>
                <g id="Clip-2"></g>
                <path d="M20.1401,20.2645 C18.4591,20.8805 15.7891,19.6555 15.2201,18.5195 C14.6681,18.6215 14.0951,18.6825 13.5001,18.6825 C9.5941,18.6825 6.4281,16.3255 6.4281,13.4175 C6.4281,10.5105 9.5941,8.1535 13.5001,8.1535 C17.4061,8.1535 20.5721,10.5105 20.5721,13.4175 C20.5721,14.7705 19.8811,16.0005 18.7541,16.9325 C18.3441,18.0785 19.0611,19.6585 20.1401,20.2645 M14.0001,-0.0005 C6.2681,-0.0005 0.0001,6.2675 0.0001,13.9995 C0.0001,21.7315 6.2681,27.9995 14.0001,27.9995 C21.7321,27.9995 28.0001,21.7315 28.0001,13.9995 C28.0001,6.2675 21.7321,-0.0005 14.0001,-0.0005" id="Fill-1" fill="#4A4A4A" mask="url(#mask-2)"></path>
            </g>
        </g>
    </g>
</svg>
