<?xml version="1.0" encoding="UTF-8"?>
<svg width="28px" height="28px" viewBox="0 0 28 28" version="1.1" xmlns="http://www.w3.org/2000/svg" xmlns:xlink="http://www.w3.org/1999/xlink">
    <g id="Post_ico" stroke="none" stroke-width="1" fill="none" fill-rule="evenodd">
        <g id="like_linksocal_setting" transform="translate(-697.000000, -1728.000000)" fill="#4A4A4A">
            <g id="icon-6" transform="translate(697.000000, 1728.000000)">
                <path d="M14,20.4843 C15.149,20.4843 16.095,17.9633 16.219,14.7233 L11.781,14.7233 C11.905,17.9633 12.851,20.4843 14,20.4843" id="Fill-1"></path>
                <path d="M16.3418,20.0414 C18.5488,19.1854 20.1708,17.1614 20.4418,14.7234 L17.5078,14.7234 C17.4358,16.7454 17.0568,18.7024 16.3418,20.0414" id="Fill-3"></path>
                <path d="M14,7.5156 C12.851,7.5156 11.905,10.0366 11.781,13.2766 L16.219,13.2766 C16.095,10.0366 15.149,7.5156 14,7.5156" id="Fill-5"></path>
                <path d="M7.5581,13.2763 L10.4931,13.2763 C10.5641,11.2543 10.9431,9.2973 11.6581,7.9583 C9.4511,8.8143 7.8291,10.8383 7.5581,13.2763" id="Fill-7"></path>
                <path d="M7.5581,14.7236 C7.8291,17.1616 9.4511,19.1856 11.6581,20.0416 C10.9421,18.7026 10.5641,16.7456 10.4931,14.7236 L7.5581,14.7236 Z" id="Fill-9"></path>
                <path d="M14,21.7714 C9.715,21.7714 6.229,18.2854 6.229,14.0004 C6.229,9.7144 9.715,6.2284 14,6.2284 C18.285,6.2284 21.771,9.7144 21.771,14.0004 C21.771,18.2854 18.285,21.7714 14,21.7714 M14,0.0004 C6.268,0.0004 0,6.2684 0,14.0004 C0,21.7314 6.268,28.0004 14,28.0004 C21.732,28.0004 28,21.7314 28,14.0004 C28,6.2684 21.732,0.0004 14,0.0004" id="Fill-13"></path>
                <path d="M16.3418,7.9584 C17.0568,9.2974 17.4358,11.2544 17.5078,13.2764 L20.4418,13.2764 C20.1708,10.8384 18.5488,8.8144 16.3418,7.9584" id="Fill-16"></path>
            </g>
        </g>
    </g>
</svg>
