<?xml version="1.0" encoding="UTF-8"?>
<svg width="28px" height="28px" viewBox="0 0 28 28" version="1.1" xmlns="http://www.w3.org/2000/svg" xmlns:xlink="http://www.w3.org/1999/xlink">
    <g id="Post_ico" stroke="none" stroke-width="1" fill="none" fill-rule="evenodd">
        <g id="like_linksocal_setting" transform="translate(-609.000000, -1728.000000)" fill="#4A4A4A">
            <g id="Icon-4" transform="translate(609.000000, 1728.000000)">
                <path d="M13.4248,13.0715 L6.5898,10.3885 L13.1558,15.5615 C13.6708,15.8885 14.3288,15.8885 14.8438,15.5615 L21.4098,10.3885 L14.5748,13.0715 C14.2048,13.2165 13.7948,13.2165 13.4248,13.0715" id="Fill-1"></path>
                <path d="M21.8613,18.6857 C21.8613,19.0167 21.5923,19.2847 21.2623,19.2847 L6.7373,19.2847 C6.4073,19.2847 6.1383,19.0167 6.1383,18.6857 L6.1383,9.3147 C6.1383,8.9837 6.4073,8.7157 6.7373,8.7157 L21.2623,8.7157 C21.5923,8.7157 21.8613,8.9837 21.8613,9.3147 L21.8613,18.6857 Z M14.0003,-0.0003 C6.2683,-0.0003 0.0003,6.2687 0.0003,13.9997 C0.0003,21.7317 6.2683,27.9997 14.0003,27.9997 C21.7323,27.9997 28.0003,21.7317 28.0003,13.9997 C28.0003,6.2687 21.7323,-0.0003 14.0003,-0.0003 Z" id="Fill-3"></path>
            </g>
        </g>
    </g>
</svg>
