<?xml version="1.0" encoding="UTF-8"?>
<svg width="28px" height="28px" viewBox="0 0 28 28" version="1.1" xmlns="http://www.w3.org/2000/svg" xmlns:xlink="http://www.w3.org/1999/xlink">
    <g id="Post_ico" stroke="none" stroke-width="1" fill="none" fill-rule="evenodd">
        <g id="like_linksocal_setting" transform="translate(-565.000000, -1728.000000)" fill="#4A4A4A">
            <g id="icon-3" transform="translate(565.000000, 1728.000000)">
                <path d="M14,11.3466 C11.906,11.3466 10.208,13.0446 10.208,15.1386 C10.208,17.2326 11.906,18.9296 14,18.9296 C16.094,18.9296 17.792,17.2326 17.792,15.1386 C17.792,13.0446 16.094,11.3466 14,11.3466" id="Fill-1"></path>
                <path d="M21.8613,19.0292 C21.8613,19.4342 21.5323,19.7632 21.1273,19.7632 L6.8723,19.7632 C6.4673,19.7632 6.1383,19.4342 6.1383,19.0292 L6.1383,10.7562 C6.1383,10.3512 6.4673,10.0222 6.8723,10.0222 L7.1383,10.0222 L7.1383,9.3462 L10.0073,9.3462 L10.0073,10.0222 L14.3133,10.0222 L14.9683,7.9172 L20.1703,7.9172 L20.8253,10.0222 L21.1273,10.0222 C21.5323,10.0222 21.8613,10.3512 21.8613,10.7562 L21.8613,19.0292 Z M14.0003,0.0002 C6.2683,0.0002 0.0003,6.2682 0.0003,14.0002 C0.0003,21.7322 6.2683,28.0002 14.0003,28.0002 C21.7323,28.0002 28.0003,21.7322 28.0003,14.0002 C28.0003,6.2682 21.7323,0.0002 14.0003,0.0002 Z" id="Fill-3"></path>
            </g>
        </g>
    </g>
</svg>
