<?xml version="1.0" encoding="UTF-8"?>
<svg width="28px" height="28px" viewBox="0 0 28 28" version="1.1" xmlns="http://www.w3.org/2000/svg" xmlns:xlink="http://www.w3.org/1999/xlink">
    <g id="Post_ico" stroke="none" stroke-width="1" fill="none" fill-rule="evenodd">
        <g id="like_linksocal_setting" transform="translate(-477.000000, -1728.000000)" fill="#4A4A4A">
            <g id="icon-1" transform="translate(477.000000, 1728.000000)">
                <path d="M18.0972,20.5966 L9.9032,20.5966 C8.9762,20.5966 8.2562,19.9256 8.3602,19.1596 L8.6662,16.9236 C8.9342,14.9626 10.9302,13.4806 13.3032,13.4806 L14.6972,13.4806 C17.0702,13.4806 19.0652,14.9626 19.3332,16.9236 L19.6392,19.1596 C19.7442,19.9256 19.0242,20.5966 18.0972,20.5966 M14.0002,6.6026 C15.6112,6.6026 16.9172,7.9086 16.9172,9.5196 C16.9172,11.1316 15.6112,12.4376 14.0002,12.4376 C12.3892,12.4376 11.0822,11.1316 11.0822,9.5196 C11.0822,7.9086 12.3892,6.6026 14.0002,6.6026 M14.0002,-0.0004 C6.2682,-0.0004 0.0002,6.2676 0.0002,13.9996 C0.0002,21.7316 6.2682,27.9996 14.0002,27.9996 C21.7322,27.9996 28.0002,21.7316 28.0002,13.9996 C28.0002,6.2676 21.7322,-0.0004 14.0002,-0.0004" id="Fill-1"></path>
            </g>
        </g>
    </g>
</svg>
