<svg width="256" height="90" viewBox="0 0 256 90" fill="none" xmlns="http://www.w3.org/2000/svg">
<rect width="256" height="90" fill="white"/>
<path d="M83.3999 36.7354L76.7888 64.0004H82.1722L88.6888 36.7354H83.3999Z" fill="#1D2085"/>
<path d="M107.578 36.7354H90.8611L89.7278 41.4854H91.1444C93.6944 41.6754 94.8278 42.8154 94.45 45.0004L89.9167 64.0004H95.4889L100.872 41.4854H106.444L107.578 36.7354Z" fill="#1D2085"/>
<path d="M150.456 48.0404H144.128L145.639 41.4854H157.067L158.106 36.7354H146.678C143.278 36.7354 141.2 38.2554 140.444 41.2954L138.839 48.4204C138.178 51.2704 139.406 52.7904 142.617 52.7904H145.261C147.717 52.9804 148.85 54.0254 148.567 55.8304L147.717 59.5354H136.383L135.344 64.0004H146.394C149.983 63.9054 152.156 62.3854 152.911 59.3454L154.422 52.6954C154.989 49.6554 153.667 48.1354 150.456 48.0404Z" fill="#1D2085"/>
<path d="M169.911 48.0404H163.583L165.094 41.4854H176.522L177.561 36.7354H166.133C162.733 36.7354 160.655 38.2554 159.9 41.2954L158.294 48.4204C157.633 51.2704 158.955 52.7904 162.167 52.7904H164.811C167.267 52.9804 168.4 54.0254 168.211 55.8304L167.361 59.5354H156.028L154.989 64.0004H165.944C169.533 63.9054 171.705 62.3854 172.461 59.3454L173.972 52.6954C174.539 49.6554 173.217 48.1354 169.911 48.0404Z" fill="#1D2085"/>
<path d="M197.583 36.7354H196.545H185.778C182.472 36.9254 180.3 38.7304 179.356 42.1504L175.483 59.6304C174.822 62.5754 176.145 64.0004 179.45 64.0004H191.539L192.483 59.5354H180.583L182.095 52.7904H193.333L194.372 47.9454H183.322L184.078 44.5254C184.739 42.7204 186.061 41.6754 188.139 41.4854H195.6H196.639H199.756C202.306 41.6754 203.439 42.8154 203.156 45.0004L199 64.0004H204.572L209.389 41.4854H214.961L216 36.7354H197.583Z" fill="#1D2085"/>
<path d="M112.961 49.7497C112.489 49.5597 112.017 49.2747 111.544 49.1797L104.367 63.9997H111.356L116.833 52.2197C116.267 51.7447 115.606 51.3647 114.944 50.8897C114.283 50.4147 113.622 50.0347 112.961 49.7497Z" fill="#1D2085"/>
<path fill-rule="evenodd" clip-rule="evenodd" d="M122.689 26.0947H131.472L133.361 63.9047H126.561C126.467 62.7647 125.994 61.4347 125.994 61.4347C125.805 60.9597 125.522 60.3897 125.239 59.8197C125.144 59.5347 124.955 59.2497 124.767 58.9647C124.672 58.8222 124.578 58.656 124.483 58.4897C124.389 58.3235 124.294 58.1572 124.2 58.0147C124.011 57.7297 123.822 57.4447 123.633 57.0647C123.565 56.9624 123.485 56.8602 123.402 56.7535C123.253 56.5629 123.093 56.3583 122.972 56.1147C122.748 55.8892 122.583 55.6637 122.383 55.3911C122.331 55.3192 122.276 55.244 122.217 55.1647C122.114 55.0104 121.984 54.8561 121.842 54.6868C121.721 54.5433 121.591 54.389 121.461 54.2147C121.319 54.0722 121.178 53.906 121.036 53.7397C120.894 53.5735 120.753 53.4072 120.611 53.2647L119.667 52.3147C119.1 51.6497 118.439 51.0797 117.778 50.6047C117.738 50.6047 117.715 50.6047 117.694 50.5975C117.666 50.5876 117.643 50.5644 117.589 50.5097C117.391 50.3675 117.201 50.2253 117.015 50.0856C116.58 49.7588 116.163 49.446 115.7 49.1797C115.039 48.7047 114.378 48.3247 113.717 48.0397L112.3 47.4697C112.247 47.4164 112.164 47.393 112.068 47.3659C111.993 47.3448 111.91 47.3214 111.828 47.2797C110.6 46.8047 109.561 46.5197 108.805 46.4247C108.144 46.2347 107.672 46.2347 107.672 46.2347C107.672 46.2347 108.144 46.1397 108.9 46.1397C109.655 46.1397 110.694 46.1397 112.017 46.4247C112.158 46.4722 112.276 46.496 112.394 46.5197C112.512 46.5435 112.63 46.5672 112.772 46.6147L122.689 26.0947ZM125.664 54.4047C125.805 54.571 125.947 54.7372 126.089 54.8797L126.372 55.1647L125.617 33.2197L118.439 48.7047C118.486 48.7522 118.533 48.776 118.58 48.7997C118.628 48.8235 118.675 48.8472 118.722 48.8947C119.34 49.1709 119.908 49.5474 120.462 49.9148C120.67 50.053 120.877 50.1899 121.083 50.3197L122.217 51.1747C122.5 51.4597 122.878 51.7447 123.255 52.0297C123.458 52.2334 123.66 52.4097 123.848 52.5734C124.011 52.7152 124.163 52.8475 124.294 52.9797L125.239 53.9297C125.38 54.0722 125.522 54.2385 125.664 54.4047Z" fill="#1D2085"/>
<path fill-rule="evenodd" clip-rule="evenodd" d="M55.35 26H73.3889C78.3 26.095 80.2833 28.47 79.3389 32.84L77.9222 38.73C77.2611 41.58 76.2222 44.24 73.3889 45.57C74.9944 46.9 75.4667 48.8 74.9 51.175L73.2944 57.635C72.0667 61.53 69.3278 63.62 64.8889 63.905H46L52.0444 39.395C53.5556 39.775 57.3333 41.295 58.4667 42.435L54.7833 57.73H66.0222L67.3444 51.65C67.6278 49.56 66.5889 47.66 66.5889 47.66C64.3222 44.24 58.5611 37.59 48.9278 36.83C48.9278 36.83 50.25 36.64 52.7056 36.83L55.35 26ZM60.9222 32.555L59.5056 38.445C62.4333 39.49 65.7389 41.105 69.3278 43.67L71.2167 36.355C71.4056 34.075 69.8944 32.84 66.8722 32.555H60.9222Z" fill="#1D2085"/>
<path d="M110.522 47.3002C110.522 48.4002 109.566 49.4002 108.515 49.4002C107.368 49.4002 106.507 48.5002 106.507 47.3002C106.507 46.1002 107.463 45.2002 108.515 45.2002C109.566 45.2002 110.522 46.1002 110.522 47.3002Z" fill="#E3004A"/>
<path d="M50.8751 37.3998C50.8751 38.5998 50.0148 39.4998 48.7721 39.4998C47.6251 39.4998 46.8604 38.5998 46.8604 37.3998C46.8604 36.1998 47.7206 35.2998 48.9633 35.2998C50.1104 35.2998 50.8751 36.2998 50.8751 37.3998Z" fill="#E3004A"/>
<path d="M83.3999 36.7354L76.7888 64.0004H82.1722L88.6888 36.7354H83.3999Z" fill="#1D2085"/>
<path d="M107.578 36.7354H90.8611L89.7278 41.4854H91.1444C93.6944 41.6754 94.8278 42.8154 94.45 45.0004L89.9167 64.0004H95.4889L100.872 41.4854H106.444L107.578 36.7354Z" fill="#1D2085"/>
<path d="M150.456 48.0404H144.128L145.639 41.4854H157.067L158.106 36.7354H146.678C143.278 36.7354 141.2 38.2554 140.444 41.2954L138.839 48.4204C138.178 51.2704 139.406 52.7904 142.617 52.7904H145.261C147.717 52.9804 148.85 54.0254 148.567 55.8304L147.717 59.5354H136.383L135.344 64.0004H146.394C149.983 63.9054 152.156 62.3854 152.911 59.3454L154.422 52.6954C154.989 49.6554 153.667 48.1354 150.456 48.0404Z" fill="#1D2085"/>
<path d="M169.911 48.0404H163.583L165.094 41.4854H176.522L177.561 36.7354H166.133C162.733 36.7354 160.655 38.2554 159.9 41.2954L158.294 48.4204C157.633 51.2704 158.955 52.7904 162.167 52.7904H164.811C167.267 52.9804 168.4 54.0254 168.211 55.8304L167.361 59.5354H156.028L154.989 64.0004H165.944C169.533 63.9054 171.705 62.3854 172.461 59.3454L173.972 52.6954C174.539 49.6554 173.217 48.1354 169.911 48.0404Z" fill="#1D2085"/>
<path d="M197.583 36.7354H196.545H185.778C182.472 36.9254 180.3 38.7304 179.356 42.1504L175.483 59.6304C174.822 62.5754 176.145 64.0004 179.45 64.0004H191.539L192.483 59.5354H180.583L182.095 52.7904H193.333L194.372 47.9454H183.322L184.078 44.5254C184.739 42.7204 186.061 41.6754 188.139 41.4854H195.6H196.639H199.756C202.306 41.6754 203.439 42.8154 203.156 45.0004L199 64.0004H204.572L209.389 41.4854H214.961L216 36.7354H197.583Z" fill="#1D2085"/>
<path d="M112.961 49.7497C112.489 49.5597 112.017 49.2747 111.544 49.1797L104.367 63.9997H111.356L116.833 52.2197C116.267 51.7447 115.606 51.3647 114.944 50.8897C114.283 50.4147 113.622 50.0347 112.961 49.7497Z" fill="#1D2085"/>
<path fill-rule="evenodd" clip-rule="evenodd" d="M122.689 26.0947H131.472L133.361 63.9047H126.561C126.467 62.7647 125.994 61.4347 125.994 61.4347C125.805 60.9597 125.522 60.3897 125.239 59.8197C125.144 59.5347 124.955 59.2497 124.767 58.9647C124.672 58.8222 124.578 58.656 124.483 58.4897C124.389 58.3235 124.294 58.1572 124.2 58.0147C124.011 57.7297 123.822 57.4447 123.633 57.0647C123.565 56.9624 123.485 56.8602 123.402 56.7535C123.253 56.5629 123.093 56.3583 122.972 56.1147C122.748 55.8892 122.583 55.6637 122.383 55.3911C122.331 55.3192 122.276 55.244 122.217 55.1647C122.114 55.0104 121.984 54.8561 121.842 54.6868C121.721 54.5433 121.591 54.389 121.461 54.2147C121.319 54.0722 121.178 53.906 121.036 53.7397C120.894 53.5735 120.753 53.4072 120.611 53.2647L119.667 52.3147C119.1 51.6497 118.439 51.0797 117.778 50.6047C117.738 50.6047 117.715 50.6047 117.694 50.5975C117.666 50.5876 117.643 50.5644 117.589 50.5097C117.391 50.3675 117.201 50.2253 117.015 50.0856C116.58 49.7588 116.163 49.446 115.7 49.1797C115.039 48.7047 114.378 48.3247 113.717 48.0397L112.3 47.4697C112.247 47.4164 112.164 47.393 112.068 47.3659C111.993 47.3448 111.91 47.3214 111.828 47.2797C110.6 46.8047 109.561 46.5197 108.805 46.4247C108.144 46.2347 107.672 46.2347 107.672 46.2347C107.672 46.2347 108.144 46.1397 108.9 46.1397C109.655 46.1397 110.694 46.1397 112.017 46.4247C112.158 46.4722 112.276 46.496 112.394 46.5197C112.512 46.5435 112.63 46.5672 112.772 46.6147L122.689 26.0947ZM125.664 54.4047C125.805 54.571 125.947 54.7372 126.089 54.8797L126.372 55.1647L125.617 33.2197L118.439 48.7047C118.486 48.7522 118.533 48.776 118.58 48.7997C118.628 48.8235 118.675 48.8472 118.722 48.8947C119.34 49.1709 119.908 49.5474 120.462 49.9148C120.67 50.053 120.877 50.1899 121.083 50.3197L122.217 51.1747C122.5 51.4597 122.878 51.7447 123.255 52.0297C123.458 52.2334 123.66 52.4097 123.848 52.5734C124.011 52.7152 124.163 52.8475 124.294 52.9797L125.239 53.9297C125.38 54.0722 125.522 54.2385 125.664 54.4047Z" fill="#1D2085"/>
<path fill-rule="evenodd" clip-rule="evenodd" d="M55.35 26H73.3889C78.3 26.095 80.2833 28.47 79.3389 32.84L77.9222 38.73C77.2611 41.58 76.2222 44.24 73.3889 45.57C74.9944 46.9 75.4667 48.8 74.9 51.175L73.2944 57.635C72.0667 61.53 69.3278 63.62 64.8889 63.905H46L52.0444 39.395C53.5556 39.775 57.3333 41.295 58.4667 42.435L54.7833 57.73H66.0222L67.3444 51.65C67.6278 49.56 66.5889 47.66 66.5889 47.66C64.3222 44.24 58.5611 37.59 48.9278 36.83C48.9278 36.83 50.25 36.64 52.7056 36.83L55.35 26ZM60.9222 32.555L59.5056 38.445C62.4333 39.49 65.7389 41.105 69.3278 43.67L71.2167 36.355C71.4056 34.075 69.8944 32.84 66.8722 32.555H60.9222Z" fill="#1D2085"/>
<path d="M110.522 47.3002C110.522 48.4002 109.566 49.4002 108.515 49.4002C107.368 49.4002 106.507 48.5002 106.507 47.3002C106.507 46.1002 107.463 45.2002 108.515 45.2002C109.566 45.2002 110.522 46.1002 110.522 47.3002Z" fill="#E3004A"/>
<path d="M50.8751 37.3998C50.8751 38.5998 50.0148 39.4998 48.7721 39.4998C47.6251 39.4998 46.8604 38.5998 46.8604 37.3998C46.8604 36.1998 47.7206 35.2998 48.9633 35.2998C50.1104 35.2998 50.8751 36.2998 50.8751 37.3998Z" fill="#E3004A"/>
</svg>
