<svg width="256" height="90" viewBox="0 0 256 90" fill="none" xmlns="http://www.w3.org/2000/svg">
<rect width="256" height="90" fill="#001550"/>
<path fill-rule="evenodd" clip-rule="evenodd" d="M101.12 29.1398V50.6403C101.12 51.7156 102.009 52.5967 103.096 52.5967H114.112V57.557H101.014C98.0767 57.557 95.6953 55.2005 95.6953 52.296V29.1387H101.12V29.1398ZM116.328 57.557H121.342V37.4336H116.328V57.557ZM117.633 33.9961H119.956C120.674 33.9974 121.258 33.42 121.26 32.7057V30.4302C121.26 29.718 120.677 29.1398 119.956 29.1398H117.633C116.914 29.1385 116.33 29.7159 116.328 30.4302V32.7057C116.328 33.418 116.912 33.9961 117.633 33.9961ZM174.26 33.9961H171.937C171.216 33.9961 170.633 33.418 170.633 32.7057V30.4302C170.635 29.7159 171.219 29.1385 171.937 29.1398H174.26C174.981 29.1398 175.565 29.718 175.565 30.4302V32.7057C175.563 33.42 174.979 33.9974 174.26 33.9961ZM134.078 41.8644C137.694 41.8644 139.831 44.4255 139.831 47.5554C139.831 50.6865 137.488 53.2476 134.078 53.2476C130.667 53.2476 128.324 50.6865 128.324 47.5554C128.324 44.4255 130.462 41.8644 134.078 41.8644ZM140.284 65.9305V55.1982C138.845 57.394 135.68 58.0438 133.544 58.0438C127.051 58.0438 123.312 53.4095 123.312 47.5566C123.312 41.6609 127.462 37.0671 133.708 37.0671C136.01 37.0671 138.722 38.043 140.284 40.2791L140.613 37.5145H145.298V65.9305H140.284ZM152.733 48.0029V37.5145H147.719V48.0434C147.719 54.2628 151.253 57.8819 156.102 57.8819C158.938 57.8819 160.87 56.906 162.965 54.8733L163.294 57.5963H167.773V37.5145H162.801V47.7589C162.801 50.808 160.705 53.369 157.623 53.369C154.417 53.369 152.733 51.0519 152.733 48.0029ZM170.633 57.557H175.646V37.4336H170.633V57.557ZM188.76 53.4095C185.555 53.4095 183.007 51.0115 183.007 47.515C183.007 43.897 185.555 41.6609 188.76 41.6609C191.926 41.6609 194.637 44.0185 194.637 47.515C194.637 51.1329 191.926 53.4095 188.76 53.4095ZM199.98 29.1398V57.557H195.294L194.966 54.7924C193.405 57.1905 190.896 58.0033 188.431 58.0033C182.473 58.0033 177.994 54.101 177.994 47.5161C177.994 40.604 182.391 37.0266 188.308 37.0266C190.445 37.0266 193.773 38.1655 194.966 40.2387V29.1387H199.98V29.1398ZM179.365 63.0862C179.266 62.8932 179.114 62.7326 178.926 62.6237C178.737 62.5127 178.52 62.4583 178.273 62.4583C178.093 62.4542 177.915 62.4927 177.752 62.5705C177.603 62.6456 177.476 62.7589 177.385 62.8989V61.4848H176.744V65.0414H177.385V64.624C177.479 64.7638 177.608 64.877 177.759 64.9524C177.922 65.03 178.102 65.0684 178.283 65.0645C178.51 65.0697 178.735 65.0138 178.934 64.9026C179.119 64.7956 179.27 64.6374 179.367 64.4471C179.47 64.2517 179.52 64.0262 179.52 63.7718C179.52 63.5128 179.469 63.2839 179.365 63.0862ZM178.663 64.3106C178.803 64.159 178.878 63.9582 178.87 63.7522C178.878 63.5472 178.803 63.3475 178.663 63.1972C178.524 63.0529 178.331 62.9743 178.13 62.981C177.928 62.973 177.732 63.0513 177.592 63.196C177.451 63.3466 177.377 63.5468 177.385 63.7522C177.385 63.9823 177.455 64.1684 177.592 64.313C177.732 64.4577 177.928 64.5359 178.13 64.528C178.331 64.5349 178.525 64.4557 178.663 64.3106ZM180.051 65.9999C180.245 66.0048 180.436 65.9486 180.596 65.8392C180.759 65.719 180.882 65.5531 180.949 65.3628L182.133 62.4768H181.486L180.801 64.3419L180.051 62.478H179.386L180.476 64.9986L180.395 65.1663C180.314 65.3385 180.186 65.4253 180.012 65.4253C179.954 65.4256 179.897 65.415 179.844 65.394C179.783 65.3684 179.724 65.3354 179.671 65.2958L179.395 65.7698C179.488 65.8443 179.592 65.9033 179.703 65.9444C179.815 65.9826 179.933 66.0014 180.051 65.9999ZM187.01 65.4253C186.879 65.5409 186.728 65.6299 186.557 65.6958C186.397 65.7593 186.226 65.7926 186.053 65.7941C185.837 65.7941 185.626 65.7296 185.448 65.6091C185.25 65.4749 185.086 65.2968 184.969 65.0888C184.643 65.0928 184.323 65.0136 184.037 64.8587C183.765 64.7125 183.537 64.497 183.377 64.2343C183.215 63.9707 183.132 63.6675 183.135 63.359C183.135 63.0399 183.216 62.7485 183.377 62.4872C183.537 62.2253 183.766 62.0116 184.04 61.8686C184.321 61.7183 184.633 61.6432 184.974 61.6432C185.316 61.6432 185.627 61.7183 185.908 61.8686C186.189 62.019 186.41 62.2248 186.571 62.4872C186.733 62.7485 186.813 63.0399 186.813 63.359C186.817 63.8451 186.608 64.3089 186.241 64.6298C186.059 64.7899 185.846 64.9118 185.615 64.9882C185.79 65.1674 185.962 65.2576 186.133 65.2576C186.31 65.2576 186.516 65.1674 186.753 64.9882L187.009 65.4253H187.01ZM185.56 64.3557C185.005 64.6676 184.3 64.4831 183.971 63.9395C183.864 63.7637 183.81 63.5695 183.81 63.359C183.808 63.1556 183.862 62.9555 183.967 62.7809C184.299 62.238 185.005 62.0556 185.56 62.3693C185.919 62.5705 186.14 62.9494 186.137 63.359C186.14 63.7704 185.919 64.1513 185.56 64.3557ZM189.677 62.4768V65.0414H189.03V64.5673C188.852 64.8992 188.548 65.0645 188.113 65.0645C187.817 65.0645 187.584 64.9778 187.413 64.802C187.242 64.6263 187.157 64.3858 187.157 64.0829V62.4768H187.802V63.9002C187.794 64.0553 187.848 64.2074 187.953 64.3222C188.065 64.4289 188.215 64.4846 188.37 64.476C188.554 64.4809 188.731 64.4033 188.852 64.2644C188.974 64.1181 189.037 63.9325 189.03 63.7429V62.4768H189.677ZM192.676 63.0792C192.559 62.8827 192.396 62.73 192.187 62.6214L192.186 62.6202C191.978 62.5127 191.737 62.4583 191.465 62.4583C191.188 62.4583 190.944 62.5127 190.735 62.6214C190.524 62.73 190.36 62.8827 190.244 63.0792C190.128 63.2758 190.07 63.5013 190.07 63.7568C190.065 63.9968 190.125 64.2337 190.244 64.4425C190.36 64.6396 190.53 64.7994 190.735 64.9026C190.945 65.0113 191.188 65.0645 191.465 65.0645C191.715 65.0699 191.963 65.0144 192.187 64.9026C192.396 64.794 192.559 64.6402 192.676 64.4425C192.792 64.2447 192.85 64.0158 192.85 63.7568C192.85 63.5013 192.792 63.2758 192.676 63.0792ZM190.922 63.2053C190.781 63.3574 190.706 63.5592 190.715 63.766C190.715 63.9973 190.785 64.1835 190.922 64.3268C191.064 64.4726 191.261 64.5512 191.465 64.543C191.665 64.5497 191.859 64.4711 191.998 64.3268C192.139 64.1747 192.213 63.9729 192.205 63.766C192.205 63.536 192.135 63.3498 191.998 63.2053C191.859 63.0614 191.665 62.9832 191.465 62.9902C191.262 62.9817 191.064 63.0599 190.922 63.2053ZM193.884 62.4768H193.243V65.0414H193.884V62.4768ZM193.82 61.4801C193.889 61.5507 193.924 61.6397 193.924 61.7484C193.924 61.8548 193.889 61.9426 193.82 62.012C193.751 62.0822 193.656 62.1204 193.558 62.1172C193.46 62.1203 193.366 62.0826 193.298 62.0132C193.228 61.9428 193.19 61.8472 193.193 61.7484C193.193 61.6397 193.228 61.5507 193.298 61.4801C193.366 61.4103 193.46 61.3721 193.558 61.3749C193.656 61.3718 193.751 61.41 193.82 61.4801ZM197.078 63.4411C197.078 63.137 196.991 62.8965 196.816 62.7196C196.642 62.5416 196.403 62.4537 196.101 62.4537C195.651 62.4595 195.335 62.6271 195.153 62.9567V62.4768H194.514V65.0414H195.153V63.7811C195.146 63.5883 195.213 63.3999 195.34 63.2538C195.469 63.1136 195.653 63.0364 195.844 63.0422C196.003 63.0335 196.158 63.09 196.274 63.1983C196.383 63.3123 196.44 63.4658 196.431 63.6227V65.0414H197.078V63.4411ZM199.681 62.8075C199.894 63.0411 200 63.3683 200 63.7903C200 63.8736 199.999 63.936 199.995 63.9776H198.048C198.083 64.1465 198.176 64.2978 198.312 64.4055C198.452 64.5122 198.626 64.5673 198.802 64.5615C198.935 64.5619 199.066 64.5368 199.188 64.4875C199.31 64.4395 199.42 64.3671 199.512 64.2748L199.857 64.624C199.726 64.765 199.566 64.8737 199.377 64.95C199.187 65.0275 198.978 65.0657 198.748 65.0657C198.478 65.0657 198.241 65.0113 198.035 64.9026C197.835 64.7994 197.669 64.6403 197.558 64.4448C197.444 64.2369 197.387 64.0029 197.392 63.766C197.392 63.5117 197.448 63.2839 197.562 63.0862C197.676 62.8873 197.834 62.7335 198.038 62.6237C198.252 62.5106 198.491 62.4537 198.733 62.4583C199.153 62.4583 199.47 62.574 199.681 62.8075ZM199.221 63.1093C199.345 63.2265 199.415 63.3898 199.414 63.5602H199.413H198.033C198.053 63.386 198.136 63.225 198.266 63.107C198.397 62.9953 198.565 62.9363 198.737 62.9416C198.914 62.9331 199.088 62.9932 199.221 63.1093Z" fill="white"/>
<path fill-rule="evenodd" clip-rule="evenodd" d="M60.557 30.4302C60.557 29.718 61.1407 29.1398 61.8616 29.1398V29.1387H85.9302C86.6512 29.1387 87.2337 29.7168 87.2337 30.4314V54.2397C87.2337 54.9531 86.65 55.5312 85.9291 55.5312H80.4581C79.3488 55.5312 78.4512 54.6421 78.4512 53.5448V49.6737C78.4512 48.5764 77.5523 47.6884 76.4442 47.6884H70.493C69.3837 47.6884 68.486 46.7992 68.486 45.702V39.8155C68.486 38.7194 67.5872 37.8302 66.4779 37.8302H62.564C61.4558 37.8302 60.557 36.941 60.557 35.8449V30.4302ZM60.4221 41.9407V54.2917V54.2929C60.4253 55.3921 61.3237 56.2807 62.4291 56.2782H74.714C75.8221 56.2782 76.7209 57.1673 76.7209 58.2646V64.6402C76.7209 65.3524 76.1372 65.9305 75.4163 65.9305H51.3488C50.6305 65.9318 50.0468 65.3545 50.0442 64.6402V41.2458C50.0442 40.5335 50.6279 39.9554 51.3488 39.9554H58.4151C58.9462 39.9535 59.4561 40.1618 59.8326 40.5342C60.2091 40.9066 60.4212 41.4126 60.4221 41.9407Z" fill="#0090FF"/>
</svg>
