<svg width="120" height="40" viewBox="0 0 120 40" fill="none" xmlns="http://www.w3.org/2000/svg">
<path d="M110.135 -0.000114141H9.53468C9.16798 -0.000114141 8.80568 -0.000114141 8.43995 0.00188586C8.1338 0.00388586 7.83009 0.00969586 7.521 0.0145859C6.84951 0.0224877 6.17961 0.0815621 5.5171 0.191296C4.85552 0.303418 4.21467 0.514802 3.61622 0.818296C3.0185 1.12436 2.47235 1.52205 1.99757 1.99696C1.5203 2.47052 1.12246 3.0179 0.81935 3.61805C0.5154 4.21699 0.304641 4.85882 0.19435 5.52137C0.0830109 6.18307 0.0230984 6.85241 0.01515 7.52337C0.00587 7.82997 0.00489 8.13759 0 8.44423V31.5585C0.00489 31.869 0.00587 32.1698 0.01515 32.4804C0.0231008 33.1513 0.0830134 33.8206 0.19435 34.4823C0.304336 35.1452 0.515108 35.7874 0.81935 36.3866C1.12233 36.9848 1.52022 37.53 1.99757 38.0009C2.47054 38.4779 3.01705 38.8759 3.61622 39.1796C4.21467 39.4839 4.85545 39.6965 5.5171 39.8104C6.17972 39.9192 6.84956 39.9783 7.521 39.9872C7.83009 39.994 8.1338 39.9979 8.43995 39.9979C8.80567 39.9999 9.168 39.9999 9.53468 39.9999H110.135C110.494 39.9999 110.859 39.9999 111.219 39.9979C111.523 39.9979 111.836 39.994 112.141 39.9872C112.811 39.9788 113.479 39.9197 114.141 39.8104C114.804 39.6957 115.448 39.4831 116.049 39.1796C116.647 38.8757 117.193 38.4777 117.666 38.0009C118.142 37.5281 118.541 36.9833 118.848 36.3866C119.15 35.787 119.358 35.1448 119.467 34.4823C119.578 33.8205 119.64 33.1514 119.652 32.4804C119.656 32.1698 119.656 31.869 119.656 31.5585C119.664 31.1952 119.664 30.8339 119.664 30.4647V9.53602C119.664 9.16981 119.664 8.80653 119.656 8.44423C119.656 8.13759 119.656 7.82997 119.652 7.52333C119.64 6.85231 119.578 6.18312 119.467 5.52133C119.358 4.85917 119.149 4.21739 118.848 3.61801C118.23 2.41508 117.252 1.43591 116.049 0.818206C115.448 0.515453 114.804 0.304126 114.141 0.191206C113.48 0.0809886 112.811 0.0218936 112.141 0.0144459C111.836 0.00956586 111.523 0.00370586 111.219 0.00175586C110.859 -0.000244141 110.494 -0.000244141 110.135 -0.000244141V-0.000114141Z" fill="#A6A6A6"/>
<path d="M8.44487 39.125C8.14019 39.125 7.84287 39.1211 7.54058 39.1143C6.91436 39.1061 6.2896 39.0516 5.67144 38.9512C5.09503 38.8519 4.53664 38.6673 4.0147 38.4033C3.49754 38.1415 3.02585 37.7983 2.6177 37.3867C2.20364 36.98 1.85891 36.5082 1.59719 35.9902C1.33258 35.4688 1.14945 34.9099 1.05419 34.333C0.951311 33.7131 0.895651 33.0863 0.887687 32.458C0.881347 32.2471 0.873047 31.5449 0.873047 31.5449V8.44434C0.873047 8.44434 0.881887 7.75293 0.887737 7.5498C0.895363 6.92248 0.950699 6.29665 1.05327 5.67773C1.14871 5.09925 1.33197 4.53875 1.59673 4.01563C1.85749 3.49794 2.2003 3.02586 2.61187 2.61768C3.02297 2.20562 3.49617 1.8606 4.01421 1.59521C4.53495 1.33209 5.09228 1.14873 5.66753 1.05127C6.28772 0.949836 6.91465 0.894996 7.54304 0.88721L8.44536 0.875H111.214L112.127 0.8877C112.75 0.895099 113.371 0.94945 113.985 1.05029C114.566 1.14898 115.13 1.33362 115.656 1.59814C116.694 2.13299 117.539 2.97916 118.071 4.01807C118.332 4.53758 118.512 5.09351 118.607 5.66699C118.71 6.29099 118.768 6.92174 118.78 7.5542C118.783 7.8374 118.783 8.1416 118.783 8.44434C118.791 8.81934 118.791 9.17627 118.791 9.53613V30.4648C118.791 30.8281 118.791 31.1826 118.783 31.54C118.783 31.8652 118.783 32.1631 118.779 32.4697C118.768 33.0909 118.711 33.7104 118.608 34.3232C118.515 34.9043 118.333 35.4675 118.068 35.9932C117.805 36.5056 117.462 36.9733 117.053 37.3789C116.644 37.7927 116.172 38.1379 115.653 38.4014C115.128 38.6674 114.566 38.8527 113.985 38.9512C113.367 39.0522 112.742 39.1067 112.116 39.1143C111.823 39.1211 111.517 39.125 111.219 39.125L110.135 39.127L8.44487 39.125Z" fill="black"/>
<path d="M24.769 20.3006C24.7908 18.6041 25.6802 17.0371 27.1256 16.1485C26.2096 14.8404 24.7305 14.0408 23.1344 13.9908C21.4552 13.8146 19.8272 14.9957 18.9715 14.9957C18.0992 14.9957 16.7817 14.0083 15.363 14.0375C13.4963 14.0978 11.7982 15.1334 10.8901 16.7654C8.95607 20.1138 10.3987 25.0349 12.2513 27.7415C13.1782 29.0668 14.2615 30.5473 15.6789 30.4948C17.066 30.4372 17.584 29.6103 19.2583 29.6103C20.9171 29.6103 21.4031 30.4948 22.8493 30.4614C24.3377 30.4372 25.2754 29.1302 26.1698 27.7923C26.8358 26.8479 27.3483 25.8042 27.6882 24.6997C25.9205 23.9521 24.7711 22.2199 24.769 20.3006Z" fill="white"/>
<path d="M22.0373 12.2108C22.8489 11.2366 23.2487 9.98445 23.1519 8.72021C21.912 8.85044 20.7668 9.44299 19.9443 10.3798C19.1321 11.3041 18.7207 12.5134 18.8006 13.7412C20.057 13.7542 21.25 13.1901 22.0373 12.2108Z" fill="white"/>
<path fill-rule="evenodd" clip-rule="evenodd" d="M37.5688 27.1397H42.3022L43.438 30.4961H45.477L40.9936 18.0781H38.9106L34.4272 30.4961H36.4321L37.5688 27.1397ZM41.8111 25.5908H38.0591L39.9097 20.1436H39.9615L41.8111 25.5908Z" fill="white"/>
<path fill-rule="evenodd" clip-rule="evenodd" d="M51.3814 30.5908C53.6538 30.5908 55.1597 28.7832 55.1597 25.9697C55.1597 23.164 53.645 21.3476 51.3472 21.3476C50.1648 21.3095 49.0572 21.9245 48.4644 22.9482H48.4302V21.4424H46.6313V33.4912H48.4897V29.0068H48.5327C49.1003 30.037 50.2068 30.6522 51.3814 30.5908ZM50.857 22.9316C52.3023 22.9316 53.2495 24.1367 53.2495 25.9697C53.2495 27.8193 52.3023 29.0156 50.857 29.0156C49.437 29.0156 48.482 27.7939 48.482 25.9697C48.482 24.1621 49.437 22.9316 50.857 22.9316Z" fill="white"/>
<path fill-rule="evenodd" clip-rule="evenodd" d="M61.3462 30.5908C63.6187 30.5908 65.1245 28.7832 65.1245 25.9697C65.1245 23.164 63.6099 21.3476 61.312 21.3476C60.1296 21.3095 59.022 21.9245 58.4292 22.9482H58.395V21.4423H56.5962V33.4912H58.4546V29.0068H58.4976C59.0652 30.037 60.1716 30.6522 61.3462 30.5908ZM60.8218 22.9316C62.2671 22.9316 63.2144 24.1367 63.2144 25.9697H63.2144C63.2144 27.8193 62.2671 29.0156 60.8218 29.0156C59.4019 29.0156 58.4468 27.7939 58.4468 25.9697C58.4468 24.1621 59.4019 22.9316 60.8218 22.9316Z" fill="white"/>
<path d="M71.7105 27.0362C71.8482 28.2676 73.0445 29.0762 74.6792 29.0762C76.2456 29.0762 77.3726 28.2676 77.3726 27.1572C77.3726 26.1934 76.6929 25.6162 75.0835 25.2207L73.4742 24.833C71.1939 24.2822 70.1353 23.2158 70.1353 21.4854C70.1353 19.3428 72.0025 17.8711 74.6538 17.8711C77.2778 17.8711 79.0767 19.3428 79.1372 21.4854H77.2612C77.1489 20.2461 76.1245 19.4981 74.6274 19.4981C73.1304 19.4981 72.106 20.2549 72.106 21.3565C72.106 22.2344 72.7603 22.751 74.3608 23.1465L75.729 23.4824C78.2769 24.0849 79.3355 25.1084 79.3355 26.9248C79.3355 29.248 77.4849 30.7031 74.5415 30.7031C71.7876 30.7031 69.9282 29.2822 69.8081 27.0361L71.7105 27.0362Z" fill="white"/>
<path d="M83.3462 19.2998V21.4424H85.0679V22.9141H83.3462V27.9053C83.3462 28.6807 83.6909 29.042 84.4477 29.042C84.6521 29.0384 84.8562 29.0241 85.0591 28.999V30.4619C84.7188 30.5255 84.3729 30.5543 84.0268 30.5478C82.1938 30.5478 81.479 29.8593 81.479 28.1035V22.9141H80.1626V21.4424H81.479V19.2998H83.3462Z" fill="white"/>
<path fill-rule="evenodd" clip-rule="evenodd" d="M90.3589 21.3311C87.7427 21.3311 86.0649 23.1211 86.0649 25.9697C86.0649 28.8262 87.726 30.6084 90.3589 30.6084C92.9927 30.6084 94.6538 28.8262 94.6538 25.9697C94.6538 23.1211 92.9839 21.3311 90.3589 21.3311ZM90.3589 22.8623C91.8647 22.8623 92.7603 24.0156 92.7603 25.9697H92.7602C92.7602 27.9316 91.8647 29.0762 90.3589 29.0762C88.853 29.0762 87.9585 27.9316 87.9585 25.9697C87.9585 24.0244 88.853 22.8623 90.3589 22.8623Z" fill="white"/>
<path d="M96.186 21.4423H97.9585V22.9833H98.0015C98.2487 21.9913 99.1576 21.3085 100.179 21.3475C100.393 21.3468 100.607 21.37 100.816 21.4169V23.1552C100.546 23.0725 100.264 23.0346 99.981 23.0429C99.4346 23.0207 98.9059 23.2384 98.5335 23.6389C98.1612 24.0394 97.9826 24.5826 98.0444 25.1259V30.496H96.186L96.186 21.4423Z" fill="white"/>
<path fill-rule="evenodd" clip-rule="evenodd" d="M105.486 30.6084C107.534 30.6084 109.134 29.4805 109.384 27.8369L107.62 27.8369C107.281 28.677 106.431 29.1948 105.529 29.1103C104.853 29.1352 104.198 28.8684 103.732 28.3778C103.266 27.8871 103.034 27.2199 103.093 26.5459V26.4336H109.488V25.7969C109.488 23.0518 107.913 21.3311 105.408 21.3311C102.861 21.3311 101.217 23.1729 101.217 26.0127C101.217 28.8437 102.852 30.6084 105.486 30.6084ZM107.628 25.1348L103.102 25.1348C103.1 24.5235 103.343 23.9369 103.776 23.5054C104.209 23.0739 104.796 22.8333 105.408 22.8369C106.014 22.8239 106.599 23.0644 107.02 23.5006C107.442 23.9368 107.662 24.5291 107.628 25.1348Z" fill="white"/>
<path fill-rule="evenodd" clip-rule="evenodd" d="M39.9317 9.54877C39.3879 8.97445 38.6151 8.67429 37.8262 8.7309H35.6709V14.6977H37.8262C39.6035 14.6977 40.6338 13.602 40.6338 11.6957C40.7333 10.911 40.4756 10.1231 39.9317 9.54877ZM37.7226 13.8539H36.5976V9.57411H37.7226C38.2835 9.54299 38.8289 9.76412 39.2096 10.177C39.5904 10.5899 39.7668 11.1514 39.6904 11.7079C39.7728 12.2667 39.5989 12.8328 39.2172 13.2492C38.8355 13.6655 38.2865 13.8876 37.7226 13.8539Z" fill="white"/>
<path fill-rule="evenodd" clip-rule="evenodd" d="M42.6795 10.4285C41.9905 10.8561 41.6035 11.6372 41.6807 12.4443C41.6021 13.2523 41.9887 14.0349 42.6783 14.4633C43.3678 14.8918 44.2407 14.8918 44.9303 14.4633C45.6198 14.0349 46.0065 13.2523 45.9278 12.4443C46.005 11.6372 45.618 10.8561 44.9291 10.4285C44.2401 10.001 43.3684 10.001 42.6795 10.4285ZM43.8057 10.8974C44.5753 10.8974 45.0137 11.4682 45.0137 12.4443H45.0137C45.0137 13.4243 44.5753 13.9946 43.8057 13.9946C43.0333 13.9946 42.5987 13.4282 42.5987 12.4443C42.5987 11.4682 43.0333 10.8974 43.8057 10.8974Z" fill="white"/>
<path d="M51.5732 14.6978H50.6514L49.7207 11.3813H49.6504L48.7236 14.6978H47.8105L46.5693 10.1948H47.4707L48.2773 13.6308H48.3438L49.2695 10.1948H50.1221L51.0479 13.6308H51.1182L51.9209 10.1948H52.8096L51.5732 14.6978Z" fill="white"/>
<path d="M53.8535 10.1949H54.709V10.9102H54.7754C55.0063 10.3836 55.546 10.0614 56.1191 10.108C56.563 10.0746 56.9979 10.2449 57.3011 10.5707C57.6043 10.8965 57.7429 11.3425 57.6777 11.7828V14.6978H56.7891V12.0059C56.7891 11.2823 56.4746 10.9224 55.8174 10.9224C55.5164 10.9084 55.2242 11.0266 55.0175 11.2459C54.8109 11.4652 54.7103 11.7639 54.7422 12.0635V14.6978H53.8535L53.8535 10.1949Z" fill="white"/>
<path d="M59.0938 8.43701H59.9824V14.6978H59.0938V8.43701Z" fill="white"/>
<path fill-rule="evenodd" clip-rule="evenodd" d="M62.2167 10.4286C61.5277 10.8561 61.1407 11.6372 61.2178 12.4444C61.1392 13.2524 61.526 14.035 62.2155 14.4634C62.9051 14.8918 63.7781 14.8918 64.4676 14.4634C65.1572 14.035 65.544 13.2524 65.4654 12.4444C65.5425 11.6372 65.1555 10.8561 64.4665 10.4286C63.7775 10.001 62.9057 10.001 62.2167 10.4286ZM63.3428 10.8975C64.1123 10.8975 64.5508 11.4683 64.5508 12.4444H64.5508C64.5508 13.4244 64.1123 13.9947 63.3428 13.9947C62.5704 13.9947 62.1358 13.4283 62.1358 12.4444C62.1358 11.4683 62.5704 10.8975 63.3428 10.8975Z" fill="white"/>
<path fill-rule="evenodd" clip-rule="evenodd" d="M68.0757 12.0801C67.0044 12.1465 66.4009 12.6138 66.4009 13.4243C66.4024 13.8086 66.5664 14.1744 66.8524 14.4311C67.1384 14.6879 67.5196 14.8117 67.9019 14.7719C68.4472 14.7972 68.9638 14.5271 69.2544 14.0649H69.3247V14.6978H70.1802V11.6211C70.1802 10.6699 69.5435 10.1079 68.4145 10.1079C67.3931 10.1079 66.6655 10.604 66.5747 11.3774H67.4351C67.5337 11.0591 67.8774 10.877 68.3735 10.877C68.981 10.877 69.2954 11.1455 69.2954 11.6211V12.0098L68.0757 12.0801ZM69.2954 12.6631V13.0395C69.276 13.3265 69.1409 13.5933 68.9211 13.7789C68.7013 13.9645 68.4156 14.0529 68.1294 14.0239C67.646 14.0239 67.2944 13.7881 67.2944 13.3828C67.2944 12.9858 67.5757 12.7749 68.1958 12.7334L69.2954 12.6631Z" fill="white"/>
<path fill-rule="evenodd" clip-rule="evenodd" d="M73.2173 10.1201C72.0796 10.1201 71.3481 11.0215 71.3481 12.4444C71.3481 13.8706 72.0718 14.772 73.2173 14.772C73.7981 14.7934 74.3427 14.4907 74.6314 13.9863H74.7017V14.6978H75.5532V8.43701H74.6646V10.9101H74.5981C74.3298 10.4015 73.7918 10.0937 73.2173 10.1201ZM73.4693 13.9741C72.7163 13.9741 72.2661 13.3994 72.2661 12.4444H72.2661C72.2661 11.4971 72.7212 10.9185 73.4693 10.9185C74.2134 10.9185 74.6812 11.5098 74.6812 12.4483C74.6812 13.3911 74.2183 13.9741 73.4693 13.9741Z" fill="white"/>
<path fill-rule="evenodd" clip-rule="evenodd" d="M80.2288 10.4285C79.5399 10.8561 79.1528 11.6372 79.23 12.4443C79.1514 13.2523 79.538 14.0349 80.2276 14.4633C80.9171 14.8918 81.7901 14.8918 82.4796 14.4633C83.1691 14.0349 83.5558 13.2523 83.4771 12.4443C83.5543 11.6372 83.1673 10.8561 82.4784 10.4285C81.7895 10.001 80.9177 10.001 80.2288 10.4285ZM81.355 10.8974C82.1246 10.8974 82.563 11.4682 82.563 12.4443C82.563 13.4243 82.1246 13.9946 81.355 13.9946C80.5826 13.9946 80.148 13.4282 80.148 12.4443C80.148 11.4682 80.5826 10.8974 81.355 10.8974Z" fill="white"/>
<path d="M84.6694 10.1949H85.5249V10.9102H85.5913C85.8222 10.3836 86.3619 10.0614 86.9351 10.108C87.3789 10.0746 87.8138 10.2449 88.117 10.5707C88.4202 10.8965 88.5588 11.3425 88.4937 11.7828V14.6978H87.605V12.0059C87.605 11.2823 87.2905 10.9224 86.6333 10.9224C86.3323 10.9084 86.0401 11.0266 85.8335 11.2459C85.6268 11.4652 85.5262 11.7639 85.5581 12.0635V14.6978H84.6694V10.1949Z" fill="white"/>
<path d="M93.5151 9.07373V10.2153H94.4907V10.9639H93.5151V13.2793C93.5151 13.751 93.7095 13.9575 94.1519 13.9575C94.2651 13.9572 94.3783 13.9503 94.4907 13.937V14.6772C94.3311 14.7058 94.1694 14.721 94.0073 14.7227C93.019 14.7227 92.6255 14.375 92.6255 13.5068V10.9638H91.9106V10.2153H92.6255V9.07373H93.5151Z" fill="white"/>
<path d="M95.7046 8.43701H96.5854V10.9185H96.6558C96.8978 10.3872 97.4469 10.0646 98.0288 10.1118C98.4701 10.0878 98.8991 10.2618 99.199 10.5864C99.4989 10.9111 99.6384 11.3525 99.5795 11.7905V14.6978H98.69V12.0098C98.69 11.2905 98.355 10.9263 97.7271 10.9263C97.4179 10.9009 97.1133 11.0133 96.8947 11.2334C96.6761 11.4535 96.5658 11.7589 96.5933 12.0679V14.6977H95.7046L95.7046 8.43701Z" fill="white"/>
<path fill-rule="evenodd" clip-rule="evenodd" d="M102.81 14.7847C103.69 14.8802 104.512 14.3314 104.761 13.482L103.906 13.482C103.692 13.8644 103.269 14.0801 102.834 14.0279C102.499 14.0316 102.178 13.8937 101.949 13.6481C101.721 13.4025 101.607 13.072 101.635 12.7379V12.6881H104.815V12.378C104.815 10.964 104.059 10.108 102.806 10.108C102.204 10.1029 101.63 10.3592 101.231 10.8105C100.833 11.2619 100.65 11.8639 100.73 12.4605C100.648 13.0555 100.831 13.6566 101.232 14.1041C101.633 14.5517 102.21 14.8006 102.81 14.7847ZM103.91 12.0308H101.635C101.631 11.7203 101.753 11.4214 101.972 11.2017C102.192 10.9821 102.491 10.8604 102.801 10.8643C103.108 10.8573 103.403 10.98 103.614 11.2021C103.825 11.4243 103.932 11.7252 103.91 12.0308Z" fill="white"/>
</svg>
