<svg width="145" height="40" viewBox="0 0 145 40" fill="none" xmlns="http://www.w3.org/2000/svg">
<rect width="40" height="40" rx="8" fill="#28646E"/>
<path fill-rule="evenodd" clip-rule="evenodd" d="M18.7347 15.5996C18.5679 15.5996 18.4021 15.531 18.2824 15.396C18.0634 15.1463 18.087 14.7666 18.3366 14.5466C20.0363 13.0476 20.7873 11.8125 20.9214 11.5802C21.4207 10.7094 22.224 10.2582 23.0682 10.3728C23.3966 10.4178 23.6279 10.7217 23.5829 11.0512C23.5378 11.3797 23.235 11.612 22.9055 11.5659C22.4133 11.5004 22.0838 11.9732 21.9651 12.1799C21.8147 12.4408 20.9736 13.8263 19.1327 15.4492C19.0181 15.5505 18.8759 15.5996 18.7347 15.5996Z" fill="white"/>
<path fill-rule="evenodd" clip-rule="evenodd" d="M8.60232 25.8017C8.42939 25.8017 8.25851 25.728 8.13981 25.5847C7.92697 25.3299 7.96074 24.9503 8.21655 24.7375C8.81209 24.2412 10.0185 23.4635 10.4319 23.2568C10.7297 23.1084 11.0909 23.2292 11.2393 23.5259C11.3876 23.8227 11.2669 24.1849 10.9701 24.3333C10.658 24.4888 9.52018 25.2184 8.98707 25.6625C8.87451 25.7556 8.73841 25.8017 8.60232 25.8017Z" fill="white"/>
<path fill-rule="evenodd" clip-rule="evenodd" d="M23.735 20.0906C23.9744 20.3147 24.2517 20.2185 24.5065 19.975C26.2502 18.3081 28.0982 15.7039 28.7121 14.3492C28.8431 14.0596 29.1102 13.8989 29.3956 14.0135C29.7313 14.1486 29.7251 14.7257 29.4222 15.353C28.62 17.0117 27.4985 18.8382 25.2914 21.1231C25.0796 21.3431 25.1102 21.6317 25.3016 21.8036C25.496 21.9796 25.8132 21.9673 26.1079 21.6675C27.254 20.4979 28.0255 19.5892 28.6896 18.656C28.8595 18.4084 29.0641 18.3143 29.2677 18.3542C29.5573 18.4125 29.6034 18.6898 29.5154 19.0254C29.3721 19.5667 27.8485 21.5641 27.2458 22.2364C25.6106 24.0609 23.9744 25.0606 20.8259 26.6968C19.7269 27.2678 18.9052 27.8152 18.4069 28.6563C17.9536 29.4207 17.8185 29.6714 17.7725 29.7676C17.5924 30.139 17.7346 30.6087 18.1071 30.7857C18.2115 30.8359 18.3199 30.8584 18.4274 30.8584C18.718 30.8584 18.9942 30.6865 19.1119 30.401C19.116 30.3907 19.0884 30.4122 19.6819 29.4115C19.9674 28.9285 20.5854 28.2102 21.536 27.7773C24.6836 26.3417 25.9739 25.2059 27.8014 23.3784C28.6354 22.5444 29.7876 20.7578 30.1017 20.2298C30.9817 18.7481 30.5192 17.4783 29.7251 17.2624C29.6596 17.245 29.6279 17.1713 29.6617 17.113C30.2767 16.059 30.557 15.3315 30.6727 14.7656C30.8292 13.9992 30.6123 13.068 29.5594 12.8419C29.5031 12.8296 29.4703 12.7713 29.4847 12.716C29.5512 12.4735 29.6167 12.1665 29.6617 11.965C29.8827 10.9693 29.2524 10.0668 28.4962 9.90413C27.9641 9.79055 27.4903 9.91232 27.0769 10.1999C27.0196 10.2408 26.9419 10.2295 26.8938 10.1773C26.7301 10.0024 26.4681 9.81818 26.1079 9.81204C25.4479 9.79976 24.8002 10.0024 24.3254 11.0154C23.9857 11.7409 23.4802 12.714 21.9985 14.3573C20.6243 15.881 18.7108 17.3667 17.531 18.1424C17.3233 18.2785 17.0327 18.2467 17.0675 17.9684C17.1227 17.5274 17.5965 14.5599 17.6773 13.6861C17.8083 12.2658 17.0439 11.6181 16.1875 11.5014C15.4824 11.4063 14.4131 11.6099 13.8258 13.2154C13.482 14.1558 12.7657 15.7019 12.1589 18.1925C11.7332 19.9443 11.6616 21.9867 12.0525 24.3331C12.076 24.4743 12.0494 24.6206 11.9747 24.7424C11.5081 25.5119 10.8225 26.5249 10.4409 27.4069C10.2884 27.762 10.4163 28.1887 10.755 28.3729C10.8686 28.4353 10.9903 28.465 11.1111 28.465C11.3884 28.465 11.6544 28.3074 11.7813 28.0393C12.0075 27.5604 12.4751 26.6599 12.6582 26.2875C12.9765 25.6367 13.1873 25.2069 13.2732 24.9368C13.352 24.6892 13.3981 24.4037 13.2558 23.7549C13.0164 22.6611 12.9325 20.6064 13.3776 18.7962C13.9701 16.3936 14.9729 13.7076 15.1519 13.2645C15.331 12.8214 15.5858 12.6823 15.8406 12.7058C16.0954 12.7293 16.5814 12.8521 16.4422 13.7557C16.1926 15.3775 15.8406 17.4363 15.7249 18.1301C15.6676 18.4708 15.6022 19.2649 16.2304 19.6292C16.7206 19.9136 17.2588 19.755 17.8543 19.358C19.1948 18.4637 21.5043 16.6423 22.9553 15.0132C24.4789 13.3024 24.9639 12.2842 25.3558 11.3633C25.5339 10.9427 25.9923 10.9458 26.154 10.9919C26.3156 11.0389 26.5131 11.2589 26.374 11.7214C26.0363 12.846 24.6457 15.4225 21.9678 17.8374C21.6639 18.1117 21.7069 18.435 21.8614 18.6039C22.0077 18.7625 22.2891 18.875 22.6002 18.609C25.0079 16.5563 26.3822 14.1025 26.9992 12.7907C27.3082 12.1348 27.4249 11.745 27.5282 11.4441C27.6592 11.0614 27.9529 10.9264 28.1565 10.9693C28.4502 11.0307 28.6425 11.3316 28.5504 11.8258C28.4696 12.2556 28.223 12.9575 27.8945 13.6544C27.123 15.2926 25.4929 17.4854 23.735 19.3672C23.5467 19.5688 23.5027 19.8747 23.735 20.0906Z" fill="white"/>
<path fill-rule="evenodd" clip-rule="evenodd" d="M12.8517 11.9341C12.9448 11.8522 12.9079 11.7468 12.8824 11.664C12.7524 11.2506 12.0136 9.51921 11.8202 9.17233C11.723 8.99735 11.6002 8.97279 11.4672 9.02293C11.2932 9.09046 11.0784 9.25009 10.7489 9.53967C10.4194 9.82823 10.2321 10.0206 10.1431 10.1853C10.0756 10.3102 10.0848 10.435 10.2444 10.5537C10.5637 10.7911 12.1835 11.7489 12.5774 11.932C12.6562 11.9679 12.7565 12.018 12.8496 11.9361L12.8517 11.9341Z" fill="white"/>
<path fill-rule="evenodd" clip-rule="evenodd" d="M12.2201 13.0677C12.1986 12.9449 12.0901 12.9214 12.0052 12.9009C11.5836 12.7966 9.7213 12.5275 9.32428 12.5121C9.12474 12.5049 9.03981 12.597 9.01423 12.7362C8.98046 12.9204 9.00502 13.1864 9.08074 13.6193C9.15646 14.0501 9.224 14.31 9.31814 14.4716C9.38874 14.5934 9.50028 14.6517 9.68549 14.577C10.0539 14.4276 11.7146 13.5415 12.0748 13.3C12.1474 13.2519 12.2416 13.1926 12.2201 13.0698V13.0677Z" fill="white"/>
<path fill-rule="evenodd" clip-rule="evenodd" d="M26.2008 27.2485C26.077 27.2567 26.0422 27.3631 26.0125 27.445C25.8641 27.8522 25.3996 29.6757 25.3423 30.0696C25.3126 30.2671 25.3965 30.3613 25.5316 30.4022C25.7106 30.4544 25.9787 30.4585 26.4167 30.4288C26.8536 30.3991 27.1186 30.3602 27.2895 30.2835C27.4185 30.2252 27.488 30.1208 27.4328 29.9284C27.3233 29.5468 26.6183 27.8021 26.4167 27.4174C26.3758 27.3406 26.3277 27.2403 26.2038 27.2485H26.2008Z" fill="white"/>
<path fill-rule="evenodd" clip-rule="evenodd" d="M27.2535 26.4031C27.1962 26.5136 27.2688 26.5975 27.3231 26.6661C27.5942 27.0048 28.9101 28.3493 29.2171 28.6031C29.3706 28.73 29.4944 28.7085 29.5998 28.6133C29.738 28.4875 29.8802 28.2603 30.0818 27.8715C30.2844 27.4826 30.3887 27.235 30.4113 27.0498C30.4297 26.9096 30.3765 26.796 30.1831 26.7428C29.8004 26.6374 27.9432 26.3335 27.5103 26.3069C27.4234 26.3008 27.3118 26.2905 27.2545 26.401L27.2535 26.4031Z" fill="white"/>
<path fill-rule="evenodd" clip-rule="evenodd" d="M115.098 27.3684H110.885C110.366 27.3684 110.069 27.0715 110.069 26.5519V16.8473C110.069 16.5873 110.217 16.4387 110.477 16.4387H111.185C111.445 16.4387 111.593 16.5873 111.593 16.8473V25.6401C111.593 25.8999 111.742 26.0482 112.001 26.0482H115.098C115.358 26.0482 115.507 26.1968 115.507 26.4566V26.9601C115.507 27.2201 115.358 27.3684 115.098 27.3684Z" fill="#28646E"/>
<path fill-rule="evenodd" clip-rule="evenodd" d="M121.495 22.8585C120.455 22.8585 119.862 23.712 119.862 24.5473C119.862 25.3825 120.455 26.2362 121.495 26.2362C122.534 26.2362 123.128 25.3825 123.128 24.5473C123.128 23.712 122.534 22.8585 121.495 22.8585ZM124.149 27.3684H123.666C123.518 27.3684 123.425 27.2941 123.369 27.2014C123.295 27.0714 123.184 27.0714 123.109 27.1271C122.775 27.3313 122.237 27.5539 121.495 27.5539C119.657 27.5539 118.432 26.1434 118.432 24.5473C118.432 22.9511 119.657 21.5408 121.495 21.5408C121.977 21.5408 122.478 21.6522 122.868 21.8377C123.017 21.9118 123.128 21.8004 123.128 21.6151C123.128 20.7798 122.534 19.9259 121.495 19.9259C120.845 19.9259 120.326 20.1116 119.954 20.3156C119.713 20.4457 119.565 20.353 119.435 20.1303L119.193 19.7034C119.063 19.4621 119.23 19.2393 119.398 19.1467C119.991 18.8126 120.678 18.6084 121.495 18.6084C123.332 18.6084 124.557 20.0189 124.557 21.6151V26.96C124.557 27.2198 124.408 27.3684 124.149 27.3684Z" fill="#28646E"/>
<path fill-rule="evenodd" clip-rule="evenodd" d="M134.152 27.3684H133.539C133.279 27.3684 133.131 27.22 133.131 26.96V21.6151C133.131 20.7798 132.537 19.9261 131.498 19.9261C130.458 19.9261 129.865 20.7798 129.865 21.6151V26.96C129.865 27.22 129.716 27.3684 129.456 27.3684H128.844C128.584 27.3684 128.435 27.22 128.435 26.96V19.2023C128.435 18.9425 128.584 18.7939 128.844 18.7939H129.326C129.475 18.7939 129.568 18.8682 129.623 18.961C129.698 19.0909 129.809 19.0909 129.883 19.0353C130.217 18.8311 130.755 18.6084 131.498 18.6084C133.335 18.6084 134.56 20.0189 134.56 21.6151V26.96C134.56 27.22 134.412 27.3684 134.152 27.3684Z" fill="#28646E"/>
<path fill-rule="evenodd" clip-rule="evenodd" d="M142.658 21.6151C142.658 20.7799 142.064 19.9261 141.025 19.9261C139.985 19.9261 139.391 20.7799 139.391 21.6151V24.5475C139.391 25.3825 139.985 26.2364 141.025 26.2364C142.064 26.2364 142.658 25.3825 142.658 24.5475V21.6151ZM143.678 27.3684H143.196C143.047 27.3684 142.955 27.2941 142.899 27.2014C142.825 27.0715 142.713 27.0715 142.639 27.1271C142.305 27.3315 141.767 27.5541 141.025 27.5541C139.187 27.5541 137.962 26.1435 137.962 24.5475V21.6151C137.962 20.0189 139.187 18.6084 141.025 18.6084C141.47 18.6084 141.915 18.7199 142.361 18.9054C142.528 18.9797 142.658 18.8869 142.658 18.7381V16.8471C142.658 16.5873 142.806 16.4387 143.066 16.4387H143.678C143.938 16.4387 144.087 16.5873 144.087 16.8471V26.9602C144.087 27.2201 143.938 27.3684 143.678 27.3684Z" fill="#28646E"/>
<path fill-rule="evenodd" clip-rule="evenodd" d="M62.795 25.2682H58.9283C58.7805 25.2682 58.6959 25.1839 58.6959 25.0359V16.9035C58.6959 16.6077 58.527 16.4387 58.2312 16.4387H56.8999C56.6041 16.4387 56.4352 16.6077 56.4352 16.9035V26.4433C56.4352 27.0349 56.7733 27.3732 57.3649 27.3732H62.795C63.091 27.3732 63.2599 27.2041 63.2599 26.9082V25.7332C63.2599 25.4374 63.091 25.2682 62.795 25.2682Z" fill="#28646E"/>
<path fill-rule="evenodd" clip-rule="evenodd" d="M69.1714 20.6731H67.676C67.3889 20.6731 67.2247 20.842 67.2247 21.1377V24.0771V24.4782V26.9083C67.2247 27.2041 67.3889 27.3733 67.676 27.3733H69.1714C69.4586 27.3733 69.6228 27.2041 69.6228 26.9083V24.4782V24.0771V21.1377C69.6228 20.842 69.4586 20.6731 69.1714 20.6731Z" fill="#28646E"/>
<path fill-rule="evenodd" clip-rule="evenodd" d="M67.7295 19.1695C67.8565 19.0929 67.8358 18.9613 67.8224 18.8575C67.7571 18.343 67.252 16.1508 67.0973 15.7013C67.0196 15.4754 66.8796 15.4203 66.7133 15.4521C66.4939 15.494 66.2076 15.6373 65.7586 15.9083C65.3097 16.1794 65.0497 16.3658 64.9104 16.5405C64.8049 16.6731 64.7883 16.8226 64.9522 16.9965C65.2779 17.3426 66.9826 18.8106 67.4074 19.1083C67.4929 19.1681 67.5998 19.2477 67.7266 19.1712L67.7295 19.1695Z" fill="#28646E"/>
<path fill-rule="evenodd" clip-rule="evenodd" d="M69.0498 16.2702C69.1807 16.3402 69.283 16.255 69.3653 16.1906C69.8552 15.8074 71.2708 14.4661 71.7058 13.9523C71.8601 13.7699 71.8355 13.6217 71.7232 13.4948C71.575 13.3278 71.3054 13.1552 70.843 12.9082C70.3803 12.6613 70.087 12.5333 69.8656 12.5032C69.6978 12.4803 69.5609 12.5426 69.4952 12.7722C69.3645 13.2291 68.9757 15.4451 68.9376 15.9624C68.9298 16.0666 68.9161 16.199 69.047 16.2687L69.0498 16.2702Z" fill="#28646E"/>
<path fill-rule="evenodd" clip-rule="evenodd" d="M81.3841 27.3652H80.0524C79.7566 27.3652 79.5875 27.196 79.5875 26.9002V24.9343C79.5875 24.1945 79.038 23.4126 78.0444 23.4126C77.0511 23.4126 76.5016 24.1945 76.5016 24.9343V26.9002C76.5016 27.196 76.3324 27.3652 76.0364 27.3652H74.705C74.409 27.3652 74.2399 27.196 74.2399 26.9002V17.101C74.2399 16.8052 74.409 16.6362 74.705 16.6362H76.0364C76.3324 16.6362 76.5016 16.8052 76.5016 17.101V21.2568C76.5016 21.4258 76.6282 21.5739 76.8397 21.5739C77.0241 21.5739 77.2837 21.4048 77.4315 21.1722L79.2235 18.5307C79.4397 18.2326 79.6252 18.0869 79.9212 18.0869H81.4686C81.8069 18.0869 81.9759 18.3616 81.7856 18.6576L79.7778 21.3837C79.6719 21.5526 79.6509 21.7006 79.9044 21.8275C80.9614 22.3347 81.849 23.476 81.849 24.9343V26.9002C81.849 27.196 81.6801 27.3652 81.3841 27.3652Z" fill="#28646E"/>
<path fill-rule="evenodd" clip-rule="evenodd" d="M90.3336 21.5703C90.3336 21.7103 90.2536 21.7905 90.1136 21.7905H87.633C87.493 21.7905 87.4128 21.7103 87.4128 21.5703V21.2101C87.4128 20.5103 87.933 19.77 88.8732 19.77C89.8134 19.77 90.3336 20.5103 90.3336 21.2101V21.5703ZM88.8732 17.8694C86.7128 17.8694 85.2725 19.43 85.2725 21.2101V24.1709C85.2725 25.9515 86.7128 27.5117 88.8732 27.5117C90.8416 27.5117 91.5974 26.5823 91.982 25.8075C92.0496 25.6711 92.102 25.3677 91.8618 25.2075L90.9216 24.5873C90.7016 24.4473 90.4614 24.4673 90.3214 24.6873C89.9414 25.3275 89.4982 25.6113 88.8732 25.6113C87.933 25.6113 87.4128 24.8711 87.4128 24.1709V23.8109C87.4128 23.6707 87.493 23.5907 87.633 23.5907H91.594C92.1542 23.5907 92.4742 23.2707 92.4742 22.7105V21.2101C92.4742 19.43 91.0338 17.8694 88.8732 17.8694Z" fill="#28646E"/>
<path fill-rule="evenodd" clip-rule="evenodd" d="M106.444 27.0788C106.444 26.6158 106.069 26.2407 105.606 26.2407C105.143 26.2407 104.768 26.6158 104.768 27.0788C104.768 27.5417 105.143 27.9167 105.606 27.9167C106.069 27.9167 106.444 27.5417 106.444 27.0788Z" fill="#28646E"/>
<path fill-rule="evenodd" clip-rule="evenodd" d="M103.259 20.04C102.851 19.0548 101.771 17.9645 99.8594 17.9645C99.7752 17.9645 99.8424 17.9708 99.7603 17.9748V17.9644C99.1262 17.9644 98.6392 18.1122 98.1664 18.3472C98.0994 18.3775 98.0342 18.4101 97.9701 18.4438C97.8977 18.4689 97.8139 18.4642 97.7297 18.3463C97.6495 18.2259 97.5287 18.1653 97.368 18.1653H96.5838C96.3022 18.1653 96.1415 18.3263 96.1415 18.6076V21.3219V24.2025V26.9167C96.1415 27.1981 96.3022 27.359 96.5838 27.359H96.6141H97.7024H97.819C98.1198 27.359 98.2916 27.1981 98.2916 26.9167V24.2025V21.3219C98.2916 20.5268 99.0072 19.8745 99.8594 19.8745C100.804 19.8745 101.259 20.3428 101.67 21.0461C101.805 21.2769 102.078 21.2874 102.315 21.1468L103.13 20.643C103.388 20.4823 103.324 20.1807 103.259 20.04Z" fill="#28646E"/>
</svg>
