<svg xmlns="http://www.w3.org/2000/svg" viewBox="0 0 100 100">
  <rect width="100" height="100" style="fill: #fff"/>
  <g>
    <path d="M38.72,55.32a.61.61,0,0,0,.86.08h0a15.85,15.85,0,0,1,2-1.34.59.59,0,0,0,.27-.8h0A.61.61,0,0,0,41,53l0,0a17.89,17.89,0,0,0-2.25,1.49A.59.59,0,0,0,38.72,55.32Z" style="fill: #1d1d1b;fill-rule: evenodd"/>
    <path d="M59.92,42.77a.08.08,0,0,1-.07-.1v0c.06-.24.13-.54.17-.75a1.69,1.69,0,0,0-1.15-2,1.74,1.74,0,0,0-1.4.29.15.15,0,0,1-.18,0,1.1,1.1,0,0,0-.78-.36A1.75,1.75,0,0,0,54.75,41a12.39,12.39,0,0,1-2.3,3.3A25.43,25.43,0,0,1,48,48c-.2.14-.49.11-.45-.17s.52-3.36.6-4.22a1.77,1.77,0,0,0-1.47-2.16c-.85-.16-1.75.1-2.34,1.69a37.21,37.21,0,0,0-1.64,4.91,15.32,15.32,0,0,0-.11,6.07.56.56,0,0,1-.07.4A23.64,23.64,0,0,0,41,57.15a.73.73,0,0,0,1.33.62h0c.22-.47.68-1.36.86-1.72a10.79,10.79,0,0,0,.61-1.34,2,2,0,0,0,0-1.17,12.21,12.21,0,0,1,.12-4.89,55,55,0,0,1,1.75-5.46c.18-.44.43-.58.68-.55s.74.14.6,1c-.25,1.61-.6,3.64-.71,4.32a1.4,1.4,0,0,0,.5,1.48,1.45,1.45,0,0,0,1.6-.27,29.67,29.67,0,0,0,5-4.29,11.38,11.38,0,0,0,2.37-3.6.68.68,0,0,1,.8-.36c.16,0,.35.26.21.72a15.63,15.63,0,0,1-4.35,6,.53.53,0,0,0-.13.74l0,0a.49.49,0,0,0,.69,0l0,0a17.55,17.55,0,0,0,4.35-5.75,10.77,10.77,0,0,0,.52-1.33.6.6,0,0,1,.62-.47c.29.06.48.36.39.85a8.24,8.24,0,0,1-.65,1.8,25,25,0,0,1-4.11,5.64.51.51,0,0,0,0,.72c.24.22.51.12.77-.12A22.13,22.13,0,0,0,59,44.19a.51.51,0,0,1,.64-.34h0c.34.13.33.7,0,1.32a21.18,21.18,0,0,1-4,5.82.45.45,0,0,0,0,.64l0,0c.19.17.51.16.8-.14a24.35,24.35,0,0,0,2.55-3,.57.57,0,0,1,.57-.3c.29.06.33.34.24.67a17.62,17.62,0,0,1-2.24,3.17c-1.61,1.8-3.23,2.78-6.34,4.4a5.38,5.38,0,0,0-2.39,1.93c-.45.76-.58,1-.63,1.1a.75.75,0,0,0,.34,1,.68.68,0,0,0,.31.08.73.73,0,0,0,.68-.46c.17-.34.36-.68.56-1A4.19,4.19,0,0,1,52,57.51a17.9,17.9,0,0,0,6.19-4.34,19.2,19.2,0,0,0,2.27-3.11c.87-1.46.42-2.71-.37-2.92A.1.1,0,0,1,60,47v0a7.59,7.59,0,0,0,1-2.32,1.5,1.5,0,0,0-1-1.88Z" style="fill: #1d1d1b;fill-rule: evenodd"/>
    <path d="M52.32,42.08c.11-.2.43-.68.91-.61a.58.58,0,0,0,.65-.5v0a.6.6,0,0,0-.5-.67,2,2,0,0,0-2.07,1.2,12.6,12.6,0,0,1-2.49,3,.63.63,0,0,0,0,.85.55.55,0,0,0,.43.2.58.58,0,0,0,.39-.15A13.52,13.52,0,0,0,52.32,42.08Z" style="fill: #1d1d1b;fill-rule: evenodd"/>
    <path d="M43.54,41.89a.23.23,0,0,0,0-.27c-.32-.81-.69-1.61-1.09-2.39a.26.26,0,0,0-.35-.14h0a2.75,2.75,0,0,0-.73.49,2.61,2.61,0,0,0-.62.62c-.07.12-.06.24.1.36.33.22,2,1.15,2.39,1.32A.24.24,0,0,0,43.54,41.89Z" style="fill: #1d1d1b;fill-rule: evenodd"/>
    <path d="M39.54,42.64a3,3,0,0,0,.07.9,3.36,3.36,0,0,0,.23.88.25.25,0,0,0,.32.12l0,0a22.77,22.77,0,0,0,2.31-1.3c.07-.06.16-.12.14-.24h0c0-.13-.13-.15-.21-.17a24.71,24.71,0,0,0-2.58-.4.26.26,0,0,0-.31.2Z" style="fill: #1d1d1b;fill-rule: evenodd"/>
    <path d="M56.44,57h0c-.13,0-.16.12-.19.2-.15.39-.62,2.16-.68,2.54a.27.27,0,0,0,.17.33h0a3.39,3.39,0,0,0,.9,0,3,3,0,0,0,.89-.14.25.25,0,0,0,.16-.32v0c-.12-.37-.83-2.07-1-2.44C56.62,57.06,56.57,57,56.44,57Z" style="fill: #1d1d1b;fill-rule: evenodd"/>
    <path d="M59.41,58.32a.27.27,0,0,0,.37,0h0a3,3,0,0,0,.47-.74,3,3,0,0,0,.32-.82.25.25,0,0,0-.18-.3h0C60,56.34,58.17,56,57.75,56a.28.28,0,0,0-.26.09h0a.21.21,0,0,0,.07.26A24.89,24.89,0,0,0,59.41,58.32Z" style="fill: #1d1d1b;fill-rule: evenodd"/>
  </g>
  <g>
    <path d="M58.65,11.35v2.56h10V9h2.49v9.91H68.65v2.42H66.2V16.48H63.67v2.41H61.22V16.47H58.71v2.45H56.25v2.45h4.93v9.94h2.47V23.93h2.51v2.39h2.48V23.93h2.51v7.38h2.44V28.9h2.5v2.41H78.6V28.89H81v4.93h-2.4v9.94h-5l0,0,0-4.9,2.38-.12V31.41H73.62c0,1.86,0,3.67,0,5.47,0,.67.05,1.35.08,2l-2.48,0,0,0-.15-2.52H68.67V33.85H61.22V31.42h-5v2.36H53.75v-5h2.48V26.34h2.43v-2.4H56.25v2.42l-2.43-.05c0-.79-.08-1.57-.12-2.38H51.28v2.48l2.56-.12-.07,2.52h-5v2.53H46.25v2.45H36.34V31.37h-5V28.85H28.88V23.92h2.41v-2.5h-2.4V19h2.4V16.44h-2.4V14H31.3V11.45H28.88V9h4.91v2.36h2.53V9h4.93v2.35l-2.4.13V13.9h2.39V11.34c1.12,0,2.25.07,3.38.09.5,0,1,0,1.6,0v4.91h5V14H48.81V9h7.37v2.36h2.48ZM46.21,23.9V21.42h2.5V18.9L46.16,19V16.39h-2.4V14H41.28v2.37H38.79V14H36.3V19H33.89v2.38h7.43V19h4.86c0,.81,0,1.62,0,2.43H43.76V23.9H41.34v5H43.8V31.3h2.41v-5h2.5V23.9Zm-9.84,4.9h2.39V23.94H36.37ZM51.28,16.46v4.89H53.7V16.46ZM33.76,28.81V23.94H31.42v4.87Zm32.47.08v2.4H68.6v-2.4ZM56.27,14v2.37h2.39V14Zm14.84,19.8V31.42H68.7v2.37ZM31.43,14v2.36h2.33V14Z"/>
    <path d="M88.66,61.11v5H91v2.42h-2.4V66.23H86.07v2.4H83.65v2.51h2.4v2.43l2.61.15,0,0v4.9H91V86H86.11v2.52h2.42V91H86.08V88.61h-5V86.07H78.61V83.6h-2.5V81.12H73.67v2.41H71.16V81.09H68.65V78.61c-.77,0-1.46,0-2.15,0-.12,0-.3.33-.31.51,0,.62,0,1.25,0,1.84H61.12V78.66H53.78V81H51.3V76.13h2.41V73.68h2.5v2.4h7.38V73.7l0,0,3.32-.09h1.7V71.19H66.24V68.68H78.55v-5H76.13V58.75h-2.5V61.2h-5v2.42H66.23V61.2h2.36V58.72H66.23V46.29H68.6v4.93h2.5c.05,1,.1,1.78.15,2.62H68.7v2.32h2.41l.12-2.33H73.7V56.2h4.88v2.46H81V53.78h7.5V51.29H91v9.83H88.64c0-.79-.08-1.57-.12-2.38H83.59v2.46H81.13v2.4h5V61.25ZM71.2,78.55h7.35V71.21H71.2Zm17.33,2.51H86v-2.4H81.11v2.41h2.48v2.47h4.94Zm-5-7.47V71.21H81.14v2.38Z"/>
    <path d="M19,58.76h2.36v2.37h2.47l0,0v2.54h2.54v2.51H41.27v2.43h2.49V66.24h2.45v2.39H43.82v2.5h-5v7.4H36.41V73.68H33.79v2.46H31.41v2.38h5L36.28,81h-4.9v-2.4H28.89v-2.5h2.42V73.63H28.8V71.18c.67,0,1.35,0,2,0,.18,0,.49-.19.5-.31.05-.71,0-1.42,0-2.19-.72,0-1.35,0-2,0-.4,0-.56.13-.55.54,0,.68,0,1.35,0,2l-10.73,0H16.42V68.7H14v2.42H9V53.8H11.4v2.37h2.53v-2.4h2.42v-2.5H14V48.84h2.4v2.38h2.48v2.52H16.46V56.2h2.4c.06.91.11,1.74.16,2.57H16.41v-2.5h-2.5v2.48H11.48v9.84H14V66.16h2.45V63.72l2.6-.14v2.55h2.33V63.71L19,63.59Zm2.42,7.45v2.37h4.89V66.21Zm12.44,4.9h2.42V68.7H33.87Z"/>
    <path d="M26.33,26.34H9V9H26.33Zm-14.86-2.5H23.84V11.48H11.47Z"/>
    <path d="M73.66,26.34V9H91V26.34Zm2.47-2.49H88.5V11.49H76.13Z"/>
    <path d="M9,73.66H26.33V91H9Zm14.85,2.5H11.49V88.52H23.86Z"/>
    <path d="M19,38.82H16.44V36.4h-2.5v4.89H11.49v2.46h2.4v2.49H11.46v5H9V36.35h2.36V33.83H9V31.4h7.41v2.37h2.5V31.38h2.44V28.9h5v2.44H28.8v2.47H26.33v2.57l0,0h-5V33.89H18.94v5Zm7.35-5V31.42H21.44v2.36Z"/>
    <path d="M61.11,81l.14,2.59h2.37v5H61.16l0,0v-2.5H58.69v2.5l0,0H53.77V91H51.25V88.62H48.78V91h-5V88.59H41.31V86.07H38.84V81.12h2.43v2.43h2.5v-5l0,0h2.49l0,0v5h2.53V86h2.47V83.63h5V86H58.7V81.13L61.12,81ZM46.22,83.64H43.83V86h2.39Z"/>
    <path d="M73.71,53.84l-.12-2.6h2.49V48.78H71.2v-5h2.47l0,0v2.47h2.44v2.48h5V36.34h2.52V28.9H86v4.92h2.52v2.5H86.06v2.49H83.63v7.4h2.42V43.77H88.6l0,0v2.48H91v2.53h-9.9v2.47H78.62v2.59H73.71Z"/>
    <path d="M23.84,61.13V58.75h2.47v-2.5H21.46V53.78h7.35l0,0V56.2h5v7.42H28.9l-.15-2.51h2.57V58.77H28.88l-.12,2.35H23.84Z"/>
    <path d="M63.59,73.7l-3.83-.07h-1V71.17H56.21V68.69H53.75v2.47H51.24v2.42H48.82V71.16h2.36v-2.5H48.81V66.24h2.38v2.34h2.53V66.22H61.2v4.93h2.49c0,.9-.08,1.73-.12,2.57Z"/>
    <path d="M23.92,46.18V43.84h4.91v4.91H31.3v5H28.79l0,0v-5H26.39V51.2h-5V48.78H18.89L19,46.17h4.93v2.55h2.39V46.3Z"/>
    <path d="M26.33,36.38h2.48v2.4H31.3v2.48H19V38.82l0,0h7.42V36.36Z"/>
    <path d="M66.22,91V88.63h9.85V91Z"/>
    <path d="M36.37,88.59H33.83V91H31.4V88.6h2.35V86.1H31.42V83.64h2.37V86h2.56v2.57Z"/>
    <path d="M43.77,78.57H41.34v-4.9h4.87v2.46l0,0H43.75v2.48Z"/>
    <path d="M71.23,38.88l-.12,2.4H68.65v2.45H66.22V41.28h2.43V38.77l2.6.13Z"/>
    <path d="M46.21,76.13h2.5v2.44h-2.5l0,0V76.11Z"/>
    <path d="M88.6,31.3V28.9H91v2.4Z"/>
    <path d="M63.7,9h2.42v2.4H63.7Z"/>
    <path d="M19,46.17l-2.55.12V43.82h2.41c0,.8.09,1.58.13,2.36Z"/>
    <path d="M31.41,43.81h2.36v2.4H31.41Z"/>
    <path d="M88.66,73.72l-.13-2.5H91v2.35l-2.35.13Z"/>
    <path d="M88.6,43.77V41.35H91v2.4H88.58Z"/>
    <path d="M58.66,11.37V9h2.48v2.44l-2.49-.11Z"/>
    <path d="M36.35,88.61h2.41V91H36.37V88.59Z"/>
    <path d="M61.16,88.59V91H58.71V88.59l0,0h2.49Z"/>
    <path d="M43.75,23.88h2.48v2.48H43.75Z"/>
    <path d="M73.66,76.08V73.67h2.42v2.41Z"/>
    <path d="M21.36,21.36H14V14h7.35Z"/>
    <path d="M86,14.05v7.32H78.67V14.05Z"/>
    <path d="M21.35,78.65V86H14V78.65Z"/>
  </g>
</svg>
