<svg xmlns="http://www.w3.org/2000/svg" viewBox="0 0 100 100">
  <rect width="100" height="100" style="fill: #fff"/>
  <g>
    <path d="M34.3,10.89V9.26a.61.61,0,0,0-.61-.61H32.06a.61.61,0,0,0-.61.61h0V11.5H34.3Z"/>
    <path d="M43.46,8.65a.61.61,0,0,0-.61.61h0V11.5H45.7V8.65Z"/>
    <rect x="45.7" y="8.65" width="2.85" height="2.85"/>
    <path d="M50.79,8.65a.61.61,0,0,1,.61.61V11.5H48.55V8.65Z"/>
    <rect x="59.95" y="8.65" width="2.85" height="2.85" rx="0.61"/>
    <rect x="31.45" y="11.5" width="2.85" height="2.85"/>
    <path d="M34.91,14.35a.61.61,0,0,1-.61-.61v.61Z"/>
    <path d="M42.24,14.35a.61.61,0,0,0,.61-.61v.61Z"/>
    <rect x="42.85" y="11.5" width="2.85" height="2.85"/>
    <path d="M46.31,11.5H45.7v.61a.61.61,0,0,1,.61-.61Z"/>
    <path d="M48.55,12.11V11.5h-.61A.61.61,0,0,1,48.55,12.11Z"/>
    <path d="M46.31,14.35a.61.61,0,0,1-.61-.61v.61Z"/>
    <path d="M48.55,13.74a.61.61,0,0,0,.61.61h1.63a.61.61,0,0,0,.61-.61V11.5H48.55Z"/>
    <rect x="57.1" y="11.5" width="2.85" height="2.85" rx="0.61"/>
    <path d="M63.41,11.5a.61.61,0,0,0-.61.61h0v2.24h2.85V11.5Z"/>
    <path d="M67.89,11.5a.61.61,0,0,1,.61.61v2.24H65.65V11.5Z"/>
    <path d="M31.45,16.59a.61.61,0,0,0,.61.61H34.3V14.35H31.45Z"/>
    <path d="M34.91,17.2h1.63a.61.61,0,0,0,.61-.61V15a.61.61,0,0,0-.61-.61H34.3V17.2Z"/>
    <path d="M42.24,14.35H40.61A.61.61,0,0,0,40,15h0v1.63a.61.61,0,0,0,.61.61h2.24V14.35Z"/>
    <rect x="42.85" y="14.35" width="2.85" height="2.85"/>
    <path d="M47.94,14.35a.61.61,0,0,1,.61.61V17.2H45.7V14.35Z"/>
    <path d="M49.16,17.2a.61.61,0,0,1-.61-.61v.61Z"/>
    <path d="M62.8,16.59a.61.61,0,0,0,.61.61h2.24V14.35H62.8Z"/>
    <rect x="65.65" y="14.35" width="2.85" height="2.85"/>
    <path d="M40,19.44V17.81a.61.61,0,0,0-.61-.61H37.76a.61.61,0,0,0-.61.61h0v2.24H40Z"/>
    <path d="M45.7,17.81V17.2h-.61A.61.61,0,0,1,45.7,17.81Z"/>
    <path d="M45.09,20.05a.61.61,0,0,0,.61-.61v.61Z"/>
    <rect x="45.7" y="17.2" width="2.85" height="2.85"/>
    <path d="M49.16,20.05h1.63a.61.61,0,0,0,.61-.61V17.81a.61.61,0,0,0-.61-.61H48.55v2.85Z"/>
    <path d="M59.34,17.2H57.71a.61.61,0,0,0-.61.61h0v1.63a.61.61,0,0,0,.61.61H60V17.2Z"/>
    <path d="M62.19,17.2a.61.61,0,0,1,.61.61v2.24H60V17.2Z"/>
    <path d="M65.65,17.81V17.2H65A.61.61,0,0,1,65.65,17.81Z"/>
    <path d="M65.65,19.44a.61.61,0,0,0,.61.61h1.63a.61.61,0,0,0,.61-.61V17.2H65.65Z"/>
    <path d="M36.54,22.9a.61.61,0,0,0,.61-.61v.61Z"/>
    <rect x="37.15" y="20.05" width="2.85" height="2.85"/>
    <path d="M43.46,20.05a.61.61,0,0,0-.61.61h0V22.9H45.7V20.05Z"/>
    <path d="M48.55,22.29a.61.61,0,0,1-.61.61H45.7V20.05h2.85Z"/>
    <path d="M49.16,20.05h-.61v.61a.61.61,0,0,1,.61-.61Z"/>
    <path d="M60,20.66v-.61h-.61A.61.61,0,0,1,60,20.66Z"/>
    <rect x="59.95" y="20.05" width="2.85" height="2.85"/>
    <path d="M32.06,22.9a.61.61,0,0,0-.61.61h0v2.24H34.3V22.9Z"/>
    <rect x="34.3" y="22.9" width="2.85" height="2.85"/>
    <rect x="37.15" y="22.9" width="2.85" height="2.85"/>
    <rect x="42.85" y="22.9" width="2.85" height="2.85"/>
    <path d="M46.31,22.9H45.7v.61a.61.61,0,0,1,.61-.61Z"/>
    <path d="M49.16,22.9a.61.61,0,0,0-.61.61h0v2.24H51.4V22.9Z"/>
    <path d="M52,25.75h1.63a.61.61,0,0,0,.61-.61V23.51a.61.61,0,0,0-.61-.61H51.4v2.85Z"/>
    <rect x="59.95" y="22.9" width="2.85" height="2.85"/>
    <path d="M68.5,25.14V23.51a.61.61,0,0,0-.61-.61H66.26a.61.61,0,0,0-.61.61h0v2.24H68.5Z"/>
    <rect x="31.45" y="25.75" width="2.85" height="2.85"/>
    <path d="M34.91,25.75H34.3v.61a.61.61,0,0,1,.61-.61Z"/>
    <path d="M37.15,26.36v-.61h-.61A.61.61,0,0,1,37.15,26.36Z"/>
    <path d="M34.91,28.6A.61.61,0,0,1,34.3,28v.61Z"/>
    <path d="M37.15,28a.61.61,0,0,0,.61.61h1.63A.61.61,0,0,0,40,28V25.75H37.15Z"/>
    <path d="M42.85,28a.61.61,0,0,0,.61.61h1.63A.61.61,0,0,0,45.7,28V25.75H42.85Z"/>
    <path d="M47.94,28.6a.61.61,0,0,0,.61-.61v.61Z"/>
    <rect x="48.55" y="25.75" width="2.85" height="2.85"/>
    <path d="M52,25.75H51.4v.61a.61.61,0,0,1,.61-.61Z"/>
    <path d="M53.64,28.6a.61.61,0,0,0,.61-.61v.61Z"/>
    <path d="M52,28.6A.61.61,0,0,1,51.4,28v.61Z"/>
    <path d="M57.1,28V26.36a.61.61,0,0,0-.61-.61H54.86a.61.61,0,0,0-.61.61h0V28.6H57.1Z"/>
    <rect x="59.95" y="25.75" width="2.85" height="2.85"/>
    <path d="M65,28.6a.61.61,0,0,0,.61-.61v.61Z"/>
    <path d="M63.41,28.6A.61.61,0,0,1,62.8,28v.61Z"/>
    <rect x="65.65" y="25.75" width="2.85" height="2.85"/>
    <rect x="31.45" y="28.6" width="2.85" height="2.85"/>
    <path d="M34.91,31.45h1.63a.61.61,0,0,0,.61-.61V29.21a.61.61,0,0,0-.61-.61H34.3v2.85Z"/>
    <path d="M47.94,28.6H46.31a.61.61,0,0,0-.61.61h0v1.63a.61.61,0,0,0,.61.61h2.24V28.6Z"/>
    <rect x="48.55" y="28.6" width="2.85" height="2.85"/>
    <rect x="51.4" y="28.6" width="2.85" height="2.85"/>
    <rect x="54.25" y="28.6" width="2.85" height="2.85"/>
    <rect x="59.95" y="28.6" width="2.85" height="2.85"/>
    <rect x="62.8" y="28.6" width="2.85" height="2.85"/>
    <path d="M68.5,30.84a.61.61,0,0,1-.61.61H65.65V28.6H68.5Z"/>
    <path d="M13.74,34.3a.61.61,0,0,0,.61-.61v.61Z"/>
    <path d="M15,31.45a.61.61,0,0,0-.61.61h0V34.3H17.2V31.45Z"/>
    <rect x="17.2" y="31.45" width="2.85" height="2.85"/>
    <path d="M22.29,31.45a.61.61,0,0,1,.61.61V34.3H20.05V31.45Z"/>
    <rect x="25.75" y="31.45" width="2.85" height="2.85" rx="0.61"/>
    <rect x="31.45" y="31.45" width="2.85" height="2.85"/>
    <path d="M34.91,31.45H34.3v.61a.61.61,0,0,1,.61-.61Z"/>
    <path d="M39.39,31.45H37.76a.61.61,0,0,0-.61.61h0v1.63a.61.61,0,0,0,.61.61H40V31.45Z"/>
    <path d="M40.61,34.3h1.63a.61.61,0,0,0,.61-.61V32.06a.61.61,0,0,0-.61-.61H40V34.3Z"/>
    <path d="M48.55,32.06v-.61h-.61A.61.61,0,0,1,48.55,32.06Z"/>
    <path d="M48.55,33.69a.61.61,0,0,0,.61.61h1.63a.61.61,0,0,0,.61-.61V31.45H48.55Z"/>
    <path d="M52,31.45H51.4v.61a.61.61,0,0,1,.61-.61Z"/>
    <path d="M54.25,32.06v-.61h-.61A.61.61,0,0,1,54.25,32.06Z"/>
    <path d="M54.25,33.69a.61.61,0,0,0,.61.61h1.63a.61.61,0,0,0,.61-.61V31.45H54.25Z"/>
    <path d="M60,33.69a.61.61,0,0,0,.61.61h1.63a.61.61,0,0,0,.61-.61V31.45H60Z"/>
    <path d="M63.41,31.45H62.8v.61a.61.61,0,0,1,.61-.61Z"/>
    <path d="M69.11,31.45a.61.61,0,0,0-.61.61h0V34.3h2.85V31.45Z"/>
    <rect x="71.35" y="31.45" width="2.85" height="2.85"/>
    <path d="M74.81,34.3h1.63a.61.61,0,0,0,.61-.61V32.06a.61.61,0,0,0-.61-.61H74.2V34.3Z"/>
    <path d="M85,31.45H83.36a.61.61,0,0,0-.61.61h0v1.63a.61.61,0,0,0,.61.61H85.6V31.45Z"/>
    <rect x="85.6" y="31.45" width="2.85" height="2.85"/>
    <path d="M90.69,31.45a.61.61,0,0,1,.61.61V34.3H88.45V31.45Z"/>
    <path d="M10.89,34.3H9.26a.61.61,0,0,0-.61.61h0v1.63a.61.61,0,0,0,.61.61H11.5V34.3Z"/>
    <rect x="11.5" y="34.3" width="2.85" height="2.85"/>
    <rect x="14.35" y="34.3" width="2.85" height="2.85"/>
    <rect x="17.2" y="34.3" width="2.85" height="2.85"/>
    <rect x="20.05" y="34.3" width="2.85" height="2.85"/>
    <path d="M23.51,37.15a.61.61,0,0,1-.61-.61v.61Z"/>
    <path d="M31.45,36.54a.61.61,0,0,0,.61.61h1.63a.61.61,0,0,0,.61-.61V34.3H31.45Z"/>
    <path d="M68.5,36.54a.61.61,0,0,0,.61.61h2.24V34.3H68.5Z"/>
    <path d="M74.2,36.54a.61.61,0,0,1-.61.61H71.35V34.3H74.2Z"/>
    <path d="M74.81,34.3H74.2v.61a.61.61,0,0,1,.61-.61Z"/>
    <rect x="77.05" y="34.3" width="2.85" height="2.85" rx="0.61"/>
    <path d="M85.6,34.91V34.3H85A.61.61,0,0,1,85.6,34.91Z"/>
    <path d="M85.6,36.54a.61.61,0,0,0,.61.61h2.24V34.3H85.6Z"/>
    <path d="M91.3,36.54a.61.61,0,0,1-.61.61H88.45V34.3H91.3Z"/>
    <path d="M11.5,37.76v-.61h-.61A.61.61,0,0,1,11.5,37.76Z"/>
    <path d="M11.5,39.39a.61.61,0,0,0,.61.61h1.63a.61.61,0,0,0,.61-.61V37.15H11.5Z"/>
    <path d="M15,37.15h-.61v.61a.61.61,0,0,1,.61-.61Z"/>
    <path d="M20.05,37.76v-.61h-.61A.61.61,0,0,1,20.05,37.76Z"/>
    <path d="M19.44,40a.61.61,0,0,0,.61-.61V40Z"/>
    <rect x="20.05" y="37.15" width="2.85" height="2.85"/>
    <rect x="22.9" y="37.15" width="2.85" height="2.85"/>
    <path d="M26.36,40H28a.61.61,0,0,0,.61-.61V37.76a.61.61,0,0,0-.61-.61H25.75V40Z"/>
    <path d="M82.14,40a.61.61,0,0,0,.61-.61V40Z"/>
    <path d="M85.6,39.39V37.76a.61.61,0,0,0-.61-.61H83.36a.61.61,0,0,0-.61.61h0V40H85.6Z"/>
    <path d="M19.44,40H17.81a.61.61,0,0,0-.61.61h0v1.63a.61.61,0,0,0,.61.61h2.24V40Z"/>
    <rect x="20.05" y="40" width="2.85" height="2.85"/>
    <rect x="22.9" y="40" width="2.85" height="2.85"/>
    <path d="M26.36,40h-.61v.61a.61.61,0,0,1,.61-.61Z"/>
    <path d="M26.36,42.85a.61.61,0,0,1-.61-.61v.61Z"/>
    <path d="M68.5,42.24V40.61a.61.61,0,0,0-.61-.61H66.26a.61.61,0,0,0-.61.61h0v2.24H68.5Z"/>
    <path d="M69.11,42.85a.61.61,0,0,1-.61-.61v.61Z"/>
    <path d="M73.59,40H72a.61.61,0,0,0-.61.61h0v1.63a.61.61,0,0,0,.61.61H74.2V40Z"/>
    <rect x="74.2" y="40" width="2.85" height="2.85"/>
    <rect x="77.05" y="40" width="2.85" height="2.85"/>
    <rect x="79.9" y="40" width="2.85" height="2.85"/>
    <rect x="82.75" y="40" width="2.85" height="2.85"/>
    <path d="M86.21,42.85a.61.61,0,0,1-.61-.61v.61Z"/>
    <path d="M10.89,42.85H9.26a.61.61,0,0,0-.61.61h0v1.63a.61.61,0,0,0,.61.61H11.5V42.85Z"/>
    <rect x="11.5" y="42.85" width="2.85" height="2.85"/>
    <path d="M15,45.7h1.63a.61.61,0,0,0,.61-.61V43.46a.61.61,0,0,0-.61-.61H14.35V45.7Z"/>
    <path d="M22.9,43.46v-.61h-.61A.61.61,0,0,1,22.9,43.46Z"/>
    <path d="M22.9,45.09a.61.61,0,0,0,.61.61h2.24V42.85H22.9Z"/>
    <path d="M26.36,45.7H28a.61.61,0,0,0,.61-.61V43.46a.61.61,0,0,0-.61-.61H25.75V45.7Z"/>
    <rect x="65.65" y="42.85" width="2.85" height="2.85"/>
    <path d="M69.11,45.7h1.63a.61.61,0,0,0,.61-.61V43.46a.61.61,0,0,0-.61-.61H68.5V45.7Z"/>
    <path d="M77.05,43.46v-.61h-.61A.61.61,0,0,1,77.05,43.46Z"/>
    <rect x="77.05" y="42.85" width="2.85" height="2.85"/>
    <path d="M80.51,42.85H79.9v.61a.61.61,0,0,1,.61-.61Z"/>
    <path d="M82.75,43.46v-.61h-.61A.61.61,0,0,1,82.75,43.46Z"/>
    <path d="M80.51,45.7a.61.61,0,0,1-.61-.61v.61Z"/>
    <path d="M82.75,45.09a.61.61,0,0,0,.61.61H85.6V42.85H82.75Z"/>
    <path d="M86.21,45.7h1.63a.61.61,0,0,0,.61-.61V43.46a.61.61,0,0,0-.61-.61H85.6V45.7Z"/>
    <path d="M28,48.55a.61.61,0,0,0,.61-.61v.61Z"/>
    <path d="M29.21,45.7a.61.61,0,0,0-.61.61h0v2.24h2.85V45.7Z"/>
    <path d="M33.69,45.7a.61.61,0,0,1,.61.61v2.24H31.45V45.7Z"/>
    <path d="M65.65,47.94a.61.61,0,0,0,.61.61h1.63a.61.61,0,0,0,.61-.61V45.7H65.65Z"/>
    <path d="M69.11,45.7H68.5v.61a.61.61,0,0,1,.61-.61Z"/>
    <rect x="71.35" y="45.7" width="2.85" height="2.85" rx="0.61"/>
    <path d="M77.05,47.94a.61.61,0,0,0,.61.61H79.9V45.7H77.05Z"/>
    <path d="M80.51,48.55h1.63a.61.61,0,0,0,.61-.61V46.31a.61.61,0,0,0-.61-.61H79.9v2.85Z"/>
    <path d="M91.3,47.94V46.31a.61.61,0,0,0-.61-.61H89.06a.61.61,0,0,0-.61.61h0v2.24H91.3Z"/>
    <rect x="11.5" y="48.55" width="2.85" height="2.85" rx="0.61"/>
    <path d="M19.44,48.55H17.81a.61.61,0,0,0-.61.61h0v1.63a.61.61,0,0,0,.61.61h2.24V48.55Z"/>
    <rect x="20.05" y="48.55" width="2.85" height="2.85"/>
    <rect x="22.9" y="48.55" width="2.85" height="2.85"/>
    <rect x="25.75" y="48.55" width="2.85" height="2.85"/>
    <rect x="28.6" y="48.55" width="2.85" height="2.85"/>
    <path d="M34.3,50.79a.61.61,0,0,1-.61.61H31.45V48.55H34.3Z"/>
    <path d="M73.59,51.4a.61.61,0,0,0,.61-.61v.61Z"/>
    <path d="M77.05,50.79V49.16a.61.61,0,0,0-.61-.61H74.81a.61.61,0,0,0-.61.61h0V51.4h2.85Z"/>
    <path d="M77.66,51.4a.61.61,0,0,1-.61-.61v.61Z"/>
    <path d="M85.6,50.79V49.16a.61.61,0,0,0-.61-.61H83.36a.61.61,0,0,0-.61.61h0V51.4H85.6Z"/>
    <path d="M87.84,51.4a.61.61,0,0,0,.61-.61v.61Z"/>
    <path d="M86.21,51.4a.61.61,0,0,1-.61-.61v.61Z"/>
    <rect x="88.45" y="48.55" width="2.85" height="2.85"/>
    <rect x="8.65" y="51.4" width="2.85" height="2.85" rx="0.61"/>
    <rect x="14.35" y="51.4" width="2.85" height="2.85" rx="0.61"/>
    <path d="M28.6,52V51.4H28A.61.61,0,0,1,28.6,52Z"/>
    <path d="M28,54.25a.61.61,0,0,0,.61-.61v.61Z"/>
    <rect x="28.6" y="51.4" width="2.85" height="2.85"/>
    <path d="M32.06,51.4h-.61V52a.61.61,0,0,1,.61-.61Z"/>
    <path d="M67.89,54.25a.61.61,0,0,0,.61-.61v.61Z"/>
    <path d="M69.11,51.4a.61.61,0,0,0-.61.61h0v2.24h2.85V51.4Z"/>
    <rect x="71.35" y="51.4" width="2.85" height="2.85"/>
    <rect x="74.2" y="51.4" width="2.85" height="2.85"/>
    <path d="M77.66,54.25h1.63a.61.61,0,0,0,.61-.61V52a.61.61,0,0,0-.61-.61H77.05v2.85Z"/>
    <path d="M82.75,53.64a.61.61,0,0,0,.61.61H85.6V51.4H82.75Z"/>
    <rect x="85.6" y="51.4" width="2.85" height="2.85"/>
    <path d="M91.3,53.64a.61.61,0,0,1-.61.61H88.45V51.4H91.3Z"/>
    <path d="M10.89,57.1a.61.61,0,0,0,.61-.61v.61Z"/>
    <path d="M14.35,56.49V54.86a.61.61,0,0,0-.61-.61H12.11a.61.61,0,0,0-.61.61h0V57.1h2.85Z"/>
    <path d="M28,54.25H26.36a.61.61,0,0,0-.61.61h0v1.63a.61.61,0,0,0,.61.61H28.6V54.25Z"/>
    <rect x="28.6" y="54.25" width="2.85" height="2.85"/>
    <path d="M32.06,57.1a.61.61,0,0,1-.61-.61v.61Z"/>
    <path d="M67.89,54.25H66.26a.61.61,0,0,0-.61.61h0v1.63a.61.61,0,0,0,.61.61H68.5V54.25Z"/>
    <rect x="68.5" y="54.25" width="2.85" height="2.85"/>
    <path d="M72,54.25h-.61v.61a.61.61,0,0,1,.61-.61Z"/>
    <path d="M74.2,54.86v-.61h-.61A.61.61,0,0,1,74.2,54.86Z"/>
    <path d="M73.59,57.1a.61.61,0,0,0,.61-.61v.61Z"/>
    <path d="M72,57.1a.61.61,0,0,1-.61-.61v.61Z"/>
    <rect x="74.2" y="54.25" width="2.85" height="2.85"/>
    <path d="M77.66,54.25h-.61v.61a.61.61,0,0,1,.61-.61Z"/>
    <path d="M9.26,57.1a.61.61,0,0,0-.61.61h0V60H11.5V57.1Z"/>
    <path d="M14.35,59.34a.61.61,0,0,1-.61.61H11.5V57.1h2.85Z"/>
    <rect x="17.2" y="57.1" width="2.85" height="2.85" rx="0.61"/>
    <path d="M28.6,57.71V57.1H28A.61.61,0,0,1,28.6,57.71Z"/>
    <path d="M28,60a.61.61,0,0,0,.61-.61V60Z"/>
    <rect x="28.6" y="57.1" width="2.85" height="2.85"/>
    <path d="M33.69,57.1a.61.61,0,0,1,.61.61V60H31.45V57.1Z"/>
    <path d="M68.5,57.71V57.1h-.61A.61.61,0,0,1,68.5,57.71Z"/>
    <rect x="68.5" y="57.1" width="2.85" height="2.85"/>
    <rect x="71.35" y="57.1" width="2.85" height="2.85"/>
    <path d="M77.05,59.34a.61.61,0,0,1-.61.61H74.2V57.1h2.85Z"/>
    <rect x="79.9" y="57.1" width="2.85" height="2.85" rx="0.61"/>
    <rect x="85.6" y="57.1" width="2.85" height="2.85" rx="0.61"/>
    <rect x="8.65" y="59.95" width="2.85" height="2.85"/>
    <path d="M12.11,60H11.5v.61a.61.61,0,0,1,.61-.61Z"/>
    <rect x="14.35" y="59.95" width="2.85" height="2.85" rx="0.61"/>
    <rect x="20.05" y="59.95" width="2.85" height="2.85" rx="0.61"/>
    <path d="M28,60H26.36a.61.61,0,0,0-.61.61h0v1.63a.61.61,0,0,0,.61.61H28.6V60Z"/>
    <rect x="28.6" y="59.95" width="2.85" height="2.85"/>
    <rect x="31.45" y="59.95" width="2.85" height="2.85"/>
    <path d="M68.5,62.19a.61.61,0,0,0,.61.61h1.63a.61.61,0,0,0,.61-.61V60H68.5Z"/>
    <path d="M72,60h-.61v.61A.61.61,0,0,1,72,60Z"/>
    <rect x="82.75" y="59.95" width="2.85" height="2.85" rx="0.61"/>
    <rect x="8.65" y="62.8" width="2.85" height="2.85"/>
    <path d="M20.05,65V63.41a.61.61,0,0,0-.61-.61H17.81a.61.61,0,0,0-.61.61h0v2.24h2.85Z"/>
    <rect x="22.9" y="62.8" width="2.85" height="2.85" rx="0.61"/>
    <path d="M31.45,63.41V62.8h-.61A.61.61,0,0,1,31.45,63.41Z"/>
    <path d="M31.45,65a.61.61,0,0,0,.61.61h1.63A.61.61,0,0,0,34.3,65V62.8H31.45Z"/>
    <path d="M68.5,65V63.41a.61.61,0,0,0-.61-.61H66.26a.61.61,0,0,0-.61.61h0v2.24H68.5Z"/>
    <path d="M70.74,65.65a.61.61,0,0,0,.61-.61v.61Z"/>
    <path d="M69.11,65.65A.61.61,0,0,1,68.5,65v.61Z"/>
    <path d="M74.2,65V63.41a.61.61,0,0,0-.61-.61H72a.61.61,0,0,0-.61.61h0v2.24H74.2Z"/>
    <path d="M76.44,65.65a.61.61,0,0,0,.61-.61v.61Z"/>
    <path d="M74.81,65.65A.61.61,0,0,1,74.2,65v.61Z"/>
    <path d="M77.66,62.8a.61.61,0,0,0-.61.61h0v2.24H79.9V62.8Z"/>
    <path d="M80.51,65.65h1.63a.61.61,0,0,0,.61-.61V63.41a.61.61,0,0,0-.61-.61H79.9v2.85Z"/>
    <path d="M86.21,62.8a.61.61,0,0,0-.61.61h0v2.24h2.85V62.8Z"/>
    <path d="M90.69,62.8a.61.61,0,0,1,.61.61v2.24H88.45V62.8Z"/>
    <path d="M8.65,67.89a.61.61,0,0,0,.61.61h1.63a.61.61,0,0,0,.61-.61V65.65H8.65Z"/>
    <path d="M17.2,67.89a.61.61,0,0,0,.61.61h1.63a.61.61,0,0,0,.61-.61V65.65H17.2Z"/>
    <path d="M28,65.65H26.36a.61.61,0,0,0-.61.61h0v1.63a.61.61,0,0,0,.61.61H28.6V65.65Z"/>
    <path d="M29.21,68.5h1.63a.61.61,0,0,0,.61-.61V66.26a.61.61,0,0,0-.61-.61H28.6V68.5Z"/>
    <path d="M42.24,65.65H40.61a.61.61,0,0,0-.61.61h0v1.63a.61.61,0,0,0,.61.61h2.24V65.65Z"/>
    <rect x="42.85" y="65.65" width="2.85" height="2.85"/>
    <path d="M47.94,65.65a.61.61,0,0,1,.61.61V68.5H45.7V65.65Z"/>
    <path d="M49.16,68.5a.61.61,0,0,1-.61-.61v.61Z"/>
    <path d="M59.34,68.5a.61.61,0,0,0,.61-.61v.61Z"/>
    <path d="M62.8,67.89V66.26a.61.61,0,0,0-.61-.61H60.56a.61.61,0,0,0-.61.61h0V68.5H62.8Z"/>
    <path d="M65,68.5a.61.61,0,0,0,.61-.61v.61Z"/>
    <path d="M63.41,68.5a.61.61,0,0,1-.61-.61v.61Z"/>
    <rect x="65.65" y="65.65" width="2.85" height="2.85"/>
    <rect x="68.5" y="65.65" width="2.85" height="2.85"/>
    <rect x="71.35" y="65.65" width="2.85" height="2.85"/>
    <rect x="74.2" y="65.65" width="2.85" height="2.85"/>
    <rect x="77.05" y="65.65" width="2.85" height="2.85"/>
    <path d="M80.51,65.65H79.9v.61a.61.61,0,0,1,.61-.61Z"/>
    <path d="M80.51,68.5a.61.61,0,0,1-.61-.61v.61Z"/>
    <path d="M85.6,67.89a.61.61,0,0,0,.61.61h2.24V65.65H85.6Z"/>
    <rect x="88.45" y="65.65" width="2.85" height="2.85"/>
    <rect x="31.45" y="68.5" width="2.85" height="2.85" rx="0.61"/>
    <path d="M42.85,69.11V68.5h-.61A.61.61,0,0,1,42.85,69.11Z"/>
    <path d="M42.85,70.74a.61.61,0,0,0,.61.61H45.7V68.5H42.85Z"/>
    <rect x="45.7" y="68.5" width="2.85" height="2.85"/>
    <rect x="48.55" y="68.5" width="2.85" height="2.85"/>
    <rect x="51.4" y="68.5" width="2.85" height="2.85"/>
    <rect x="54.25" y="68.5" width="2.85" height="2.85"/>
    <rect x="57.1" y="68.5" width="2.85" height="2.85"/>
    <rect x="59.95" y="68.5" width="2.85" height="2.85"/>
    <rect x="62.8" y="68.5" width="2.85" height="2.85"/>
    <rect x="65.65" y="68.5" width="2.85" height="2.85"/>
    <path d="M69.11,68.5H68.5v.61a.61.61,0,0,1,.61-.61Z"/>
    <path d="M77.05,69.11V68.5h-.61A.61.61,0,0,1,77.05,69.11Z"/>
    <rect x="77.05" y="68.5" width="2.85" height="2.85"/>
    <path d="M82.14,68.5a.61.61,0,0,1,.61.61v2.24H79.9V68.5Z"/>
    <path d="M83.36,71.35a.61.61,0,0,1-.61-.61v.61Z"/>
    <path d="M88.45,69.11V68.5h-.61A.61.61,0,0,1,88.45,69.11Z"/>
    <path d="M88.45,70.74a.61.61,0,0,0,.61.61h1.63a.61.61,0,0,0,.61-.61V68.5H88.45Z"/>
    <path d="M34.91,71.35a.61.61,0,0,0-.61.61h0V74.2h2.85V71.35Z"/>
    <path d="M37.76,74.2h1.63a.61.61,0,0,0,.61-.61V72a.61.61,0,0,0-.61-.61H37.15V74.2Z"/>
    <path d="M45.7,72v-.61h-.61A.61.61,0,0,1,45.7,72Z"/>
    <path d="M45.7,73.59a.61.61,0,0,0,.61.61h2.24V71.35H45.7Z"/>
    <rect x="48.55" y="71.35" width="2.85" height="2.85"/>
    <path d="M52,71.35H51.4V72a.61.61,0,0,1,.61-.61Z"/>
    <path d="M57.1,72v-.61h-.61A.61.61,0,0,1,57.1,72Z"/>
    <path d="M57.1,73.59a.61.61,0,0,0,.61.61h1.63a.61.61,0,0,0,.61-.61V71.35H57.1Z"/>
    <path d="M60.56,71.35H60V72a.61.61,0,0,1,.61-.61Z"/>
    <path d="M62.8,72v-.61h-.61A.61.61,0,0,1,62.8,72Z"/>
    <path d="M62.19,74.2a.61.61,0,0,0,.61-.61v.61Z"/>
    <rect x="62.8" y="71.35" width="2.85" height="2.85"/>
    <rect x="65.65" y="71.35" width="2.85" height="2.85"/>
    <rect x="71.35" y="71.35" width="2.85" height="2.85" rx="0.61"/>
    <rect x="77.05" y="71.35" width="2.85" height="2.85"/>
    <rect x="79.9" y="71.35" width="2.85" height="2.85"/>
    <rect x="82.75" y="71.35" width="2.85" height="2.85"/>
    <path d="M87.84,71.35a.61.61,0,0,1,.61.61V74.2H85.6V71.35Z"/>
    <path d="M89.06,74.2a.61.61,0,0,1-.61-.61v.61Z"/>
    <path d="M33.69,77.05a.61.61,0,0,0,.61-.61v.61Z"/>
    <rect x="34.3" y="74.2" width="2.85" height="2.85"/>
    <path d="M37.76,74.2h-.61v.61a.61.61,0,0,1,.61-.61Z"/>
    <path d="M37.76,77.05a.61.61,0,0,1-.61-.61v.61Z"/>
    <path d="M48.55,74.81V74.2h-.61A.61.61,0,0,1,48.55,74.81Z"/>
    <rect x="48.55" y="74.2" width="2.85" height="2.85"/>
    <path d="M52,77.05a.61.61,0,0,1-.61-.61v.61Z"/>
    <path d="M60.56,74.2a.61.61,0,0,0-.61.61h0v2.24H62.8V74.2Z"/>
    <rect x="62.8" y="74.2" width="2.85" height="2.85"/>
    <rect x="65.65" y="74.2" width="2.85" height="2.85"/>
    <path d="M69.11,77.05a.61.61,0,0,1-.61-.61v.61Z"/>
    <path d="M76.44,77.05a.61.61,0,0,0,.61-.61v.61Z"/>
    <rect x="77.05" y="74.2" width="2.85" height="2.85"/>
    <path d="M82.75,76.44a.61.61,0,0,1-.61.61H79.9V74.2h2.85Z"/>
    <path d="M83.36,74.2h-.61v.61a.61.61,0,0,1,.61-.61Z"/>
    <path d="M85.6,74.81V74.2H85A.61.61,0,0,1,85.6,74.81Z"/>
    <path d="M85.6,76.44a.61.61,0,0,0,.61.61h2.24V74.2H85.6Z"/>
    <path d="M89.06,77.05h1.63a.61.61,0,0,0,.61-.61V74.81a.61.61,0,0,0-.61-.61H88.45v2.85Z"/>
    <path d="M32.06,77.05a.61.61,0,0,0-.61.61h0V79.9H34.3V77.05Z"/>
    <rect x="34.3" y="77.05" width="2.85" height="2.85"/>
    <rect x="37.15" y="77.05" width="2.85" height="2.85"/>
    <path d="M42.24,77.05a.61.61,0,0,1,.61.61V79.9H40V77.05Z"/>
    <path d="M43.46,79.9a.61.61,0,0,1-.61-.61v.61Z"/>
    <path d="M47.94,79.9a.61.61,0,0,0,.61-.61v.61Z"/>
    <rect x="48.55" y="77.05" width="2.85" height="2.85"/>
    <path d="M52,79.9h1.63a.61.61,0,0,0,.61-.61V77.66a.61.61,0,0,0-.61-.61H51.4V79.9Z"/>
    <path d="M59.34,79.9a.61.61,0,0,0,.61-.61v.61Z"/>
    <rect x="59.95" y="77.05" width="2.85" height="2.85"/>
    <rect x="62.8" y="77.05" width="2.85" height="2.85"/>
    <rect x="65.65" y="77.05" width="2.85" height="2.85"/>
    <rect x="68.5" y="77.05" width="2.85" height="2.85"/>
    <rect x="71.35" y="77.05" width="2.85" height="2.85"/>
    <rect x="74.2" y="77.05" width="2.85" height="2.85"/>
    <rect x="77.05" y="77.05" width="2.85" height="2.85"/>
    <path d="M80.51,77.05H79.9v.61a.61.61,0,0,1,.61-.61Z"/>
    <path d="M80.51,79.9a.61.61,0,0,1-.61-.61v.61Z"/>
    <rect x="31.45" y="79.9" width="2.85" height="2.85"/>
    <rect x="34.3" y="79.9" width="2.85" height="2.85"/>
    <rect x="37.15" y="79.9" width="2.85" height="2.85"/>
    <rect x="40" y="79.9" width="2.85" height="2.85"/>
    <rect x="42.85" y="79.9" width="2.85" height="2.85"/>
    <rect x="45.7" y="79.9" width="2.85" height="2.85"/>
    <rect x="48.55" y="79.9" width="2.85" height="2.85"/>
    <path d="M52,79.9H51.4v.61A.61.61,0,0,1,52,79.9Z"/>
    <path d="M56.49,82.75a.61.61,0,0,0,.61-.61v.61Z"/>
    <path d="M57.71,79.9a.61.61,0,0,0-.61.61h0v2.24H60V79.9Z"/>
    <rect x="59.95" y="79.9" width="2.85" height="2.85"/>
    <path d="M63.41,79.9H62.8v.61a.61.61,0,0,1,.61-.61Z"/>
    <path d="M65.65,80.51V79.9H65A.61.61,0,0,1,65.65,80.51Z"/>
    <path d="M65.65,82.14a.61.61,0,0,0,.61.61H68.5V79.9H65.65Z"/>
    <rect x="68.5" y="79.9" width="2.85" height="2.85"/>
    <rect x="71.35" y="79.9" width="2.85" height="2.85"/>
    <path d="M74.81,79.9H74.2v.61a.61.61,0,0,1,.61-.61Z"/>
    <path d="M77.05,80.51V79.9h-.61A.61.61,0,0,1,77.05,80.51Z"/>
    <path d="M76.44,82.75a.61.61,0,0,0,.61-.61v.61Z"/>
    <path d="M74.81,82.75a.61.61,0,0,1-.61-.61v.61Z"/>
    <rect x="77.05" y="79.9" width="2.85" height="2.85"/>
    <path d="M80.51,82.75h1.63a.61.61,0,0,0,.61-.61V80.51a.61.61,0,0,0-.61-.61H79.9v2.85Z"/>
    <path d="M31.45,85a.61.61,0,0,0,.61.61H34.3V82.75H31.45Z"/>
    <rect x="34.3" y="82.75" width="2.85" height="2.85"/>
    <path d="M37.76,82.75h-.61v.61a.61.61,0,0,1,.61-.61Z"/>
    <path d="M45.7,83.36v-.61h-.61A.61.61,0,0,1,45.7,83.36Z"/>
    <path d="M45.7,85a.61.61,0,0,0,.61.61h2.24V82.75H45.7Z"/>
    <rect x="48.55" y="82.75" width="2.85" height="2.85"/>
    <path d="M52,85.6A.61.61,0,0,1,51.4,85v.61Z"/>
    <path d="M56.49,82.75H54.86a.61.61,0,0,0-.61.61h0V85a.61.61,0,0,0,.61.61H57.1V82.75Z"/>
    <rect x="57.1" y="82.75" width="2.85" height="2.85"/>
    <rect x="59.95" y="82.75" width="2.85" height="2.85"/>
    <path d="M68.5,83.36v-.61h-.61A.61.61,0,0,1,68.5,83.36Z"/>
    <path d="M68.5,85a.61.61,0,0,0,.61.61h2.24V82.75H68.5Z"/>
    <rect x="71.35" y="82.75" width="2.85" height="2.85"/>
    <rect x="74.2" y="82.75" width="2.85" height="2.85"/>
    <path d="M79.9,85a.61.61,0,0,1-.61.61H77.05V82.75H79.9Z"/>
    <path d="M80.51,82.75H79.9v.61a.61.61,0,0,1,.61-.61Z"/>
    <path d="M85,82.75H83.36a.61.61,0,0,0-.61.61h0V85a.61.61,0,0,0,.61.61H85.6V82.75Z"/>
    <path d="M86.21,85.6h1.63a.61.61,0,0,0,.61-.61V83.36a.61.61,0,0,0-.61-.61H85.6V85.6Z"/>
    <path d="M34.3,86.21V85.6h-.61A.61.61,0,0,1,34.3,86.21Z"/>
    <path d="M34.3,87.84a.61.61,0,0,0,.61.61h1.63a.61.61,0,0,0,.61-.61V85.6H34.3Z"/>
    <path d="M48.55,86.21V85.6h-.61A.61.61,0,0,1,48.55,86.21Z"/>
    <rect x="48.55" y="85.6" width="2.85" height="2.85"/>
    <path d="M52,88.45h1.63a.61.61,0,0,0,.61-.61V86.21a.61.61,0,0,0-.61-.61H51.4v2.85Z"/>
    <path d="M57.1,86.21V85.6h-.61A.61.61,0,0,1,57.1,86.21Z"/>
    <rect x="57.1" y="85.6" width="2.85" height="2.85"/>
    <rect x="59.95" y="85.6" width="2.85" height="2.85"/>
    <path d="M63.41,88.45a.61.61,0,0,1-.61-.61v.61Z"/>
    <path d="M74.2,86.21V85.6h-.61A.61.61,0,0,1,74.2,86.21Z"/>
    <rect x="74.2" y="85.6" width="2.85" height="2.85"/>
    <path d="M77.66,85.6h-.61v.61a.61.61,0,0,1,.61-.61Z"/>
    <path d="M79.29,88.45a.61.61,0,0,0,.61-.61v.61Z"/>
    <path d="M77.66,88.45a.61.61,0,0,1-.61-.61v.61Z"/>
    <path d="M82.75,87.84V86.21a.61.61,0,0,0-.61-.61H80.51a.61.61,0,0,0-.61.61h0v2.24h2.85Z"/>
    <rect x="88.45" y="85.6" width="2.85" height="2.85" rx="0.61"/>
    <path d="M39.39,88.45H37.76a.61.61,0,0,0-.61.61h0v1.63a.61.61,0,0,0,.61.61H40V88.45Z"/>
    <path d="M40.61,91.3h1.63a.61.61,0,0,0,.61-.61V89.06a.61.61,0,0,0-.61-.61H40V91.3Z"/>
    <path d="M48.55,90.69a.61.61,0,0,0,.61.61h1.63a.61.61,0,0,0,.61-.61V88.45H48.55Z"/>
    <path d="M52,88.45H51.4v.61a.61.61,0,0,1,.61-.61Z"/>
    <path d="M57.1,90.69a.61.61,0,0,0,.61.61H60V88.45H57.1Z"/>
    <rect x="59.95" y="88.45" width="2.85" height="2.85"/>
    <rect x="62.8" y="88.45" width="2.85" height="2.85"/>
    <rect x="65.65" y="88.45" width="2.85" height="2.85"/>
    <path d="M69.11,91.3h1.63a.61.61,0,0,0,.61-.61V89.06a.61.61,0,0,0-.61-.61H68.5V91.3Z"/>
    <path d="M74.2,90.69a.61.61,0,0,0,.61.61h2.24V88.45H74.2Z"/>
    <rect x="77.05" y="88.45" width="2.85" height="2.85"/>
    <path d="M82.75,90.69a.61.61,0,0,1-.61.61H79.9V88.45h2.85Z"/>
    <path d="M9.25,8.65a.6.6,0,0,0-.6.6V28a.6.6,0,0,0,.6.6H28a.6.6,0,0,0,.6-.6V9.25a.6.6,0,0,0-.6-.6Zm16.5,5.7v11a.35.35,0,0,1-.35.35H11.85a.35.35,0,0,1-.35-.35V11.85a.35.35,0,0,1,.35-.35H25.4a.35.35,0,0,1,.35.35Z"/>
    <path d="M22.9,20.05V15a.6.6,0,0,0-.61-.6H15a.6.6,0,0,0-.6.6V22.3a.6.6,0,0,0,.6.6h7.34a.6.6,0,0,0,.61-.6Z"/>
    <path d="M72,8.65a.6.6,0,0,0-.6.6V28a.6.6,0,0,0,.6.6H90.7a.6.6,0,0,0,.6-.6V9.25a.6.6,0,0,0-.6-.6Zm16.5,5.7v11a.35.35,0,0,1-.35.35H74.55a.35.35,0,0,1-.35-.35V11.85a.35.35,0,0,1,.35-.35H88.1a.35.35,0,0,1,.35.35Z"/>
    <path d="M85.6,20.05V15a.6.6,0,0,0-.61-.6H77.65a.6.6,0,0,0-.6.6V22.3a.6.6,0,0,0,.6.6H85a.6.6,0,0,0,.61-.6Z"/>
    <path d="M9.25,71.35a.6.6,0,0,0-.6.6V90.7a.6.6,0,0,0,.6.6H28a.6.6,0,0,0,.6-.6V72a.6.6,0,0,0-.6-.6Zm16.5,5.7v11a.35.35,0,0,1-.35.35H11.85a.35.35,0,0,1-.35-.35V74.55a.35.35,0,0,1,.35-.35H25.4a.35.35,0,0,1,.35.35Z"/>
    <path d="M22.9,82.75v-5.1a.6.6,0,0,0-.61-.6H15a.6.6,0,0,0-.6.6V85a.6.6,0,0,0,.6.6h7.34a.6.6,0,0,0,.61-.6Z"/>
  </g>
  <g>
    <path d="M38.72,55.32a.61.61,0,0,0,.86.08,16.15,16.15,0,0,1,2-1.34.6.6,0,0,0,.27-.81A.61.61,0,0,0,41,53a17.62,17.62,0,0,0-2.25,1.49A.59.59,0,0,0,38.72,55.32Z" style="fill: #1d1d1b;fill-rule: evenodd"/>
    <path d="M59.92,42.77a.09.09,0,0,1-.07-.12c.06-.24.13-.54.17-.75a1.69,1.69,0,0,0-1.15-2,1.74,1.74,0,0,0-1.4.29.14.14,0,0,1-.18,0,1.13,1.13,0,0,0-.78-.36A1.75,1.75,0,0,0,54.75,41a12.55,12.55,0,0,1-2.3,3.3A25.09,25.09,0,0,1,48,48c-.2.14-.49.11-.45-.17s.52-3.36.6-4.22c.13-1.41-.62-2-1.47-2.16s-1.75.1-2.34,1.69a37.18,37.18,0,0,0-1.64,4.91,15.23,15.23,0,0,0-.11,6.07.56.56,0,0,1-.07.4A23.15,23.15,0,0,0,41,57.15a.73.73,0,1,0,1.33.62c.22-.47.68-1.36.86-1.72a11.25,11.25,0,0,0,.61-1.34,2,2,0,0,0,0-1.17,12.2,12.2,0,0,1,.12-4.89,54.15,54.15,0,0,1,1.75-5.46c.18-.44.43-.58.68-.55s.74.14.6,1c-.25,1.61-.6,3.64-.71,4.32a1.4,1.4,0,0,0,.5,1.48,1.45,1.45,0,0,0,1.6-.27,29.71,29.71,0,0,0,5-4.29,11.43,11.43,0,0,0,2.37-3.6.68.68,0,0,1,.8-.36c.16,0,.35.26.21.72a15.6,15.6,0,0,1-4.35,6,.53.53,0,0,0-.11.76.49.49,0,0,0,.73,0,17.51,17.51,0,0,0,4.35-5.75,11.06,11.06,0,0,0,.52-1.33.6.6,0,0,1,.62-.47c.29.06.48.36.39.85a8.2,8.2,0,0,1-.65,1.8,24.9,24.9,0,0,1-4.11,5.64.51.51,0,0,0,0,.72c.24.22.51.12.77-.12a22.24,22.24,0,0,0,4.15-5.55.51.51,0,0,1,.67-.33c.34.13.33.7,0,1.32A21,21,0,0,1,55.7,51a.45.45,0,0,0,0,.67c.19.17.51.16.8-.14a24.53,24.53,0,0,0,2.55-3,.56.56,0,0,1,.57-.3c.29.06.33.34.24.67a17.48,17.48,0,0,1-2.24,3.17c-1.61,1.8-3.23,2.78-6.34,4.4a5.44,5.44,0,0,0-2.39,1.93c-.45.76-.58,1-.63,1.1a.75.75,0,0,0,.34,1,.68.68,0,0,0,.31.08.73.73,0,0,0,.68-.46,10.6,10.6,0,0,1,.56-1A4.2,4.2,0,0,1,52,57.51a17.86,17.86,0,0,0,6.19-4.34,19.67,19.67,0,0,0,2.27-3.11c.87-1.46.42-2.71-.37-2.92A.11.11,0,0,1,60,47a7.67,7.67,0,0,0,1-2.32A1.49,1.49,0,0,0,59.92,42.77Z" style="fill: #1d1d1b;fill-rule: evenodd"/>
    <path d="M52.32,42.08c.11-.2.43-.68.91-.61a.58.58,0,0,0,.65-.52.6.6,0,0,0-.5-.67,2.05,2.05,0,0,0-2.07,1.2,12.41,12.41,0,0,1-2.49,3,.62.62,0,0,0,0,.85.57.57,0,0,0,.43.2.58.58,0,0,0,.39-.15A13.61,13.61,0,0,0,52.32,42.08Z" style="fill: #1d1d1b;fill-rule: evenodd"/>
    <path d="M43.54,41.89a.23.23,0,0,0,0-.27,26,26,0,0,0-1.09-2.39.27.27,0,0,0-.36-.14,2.74,2.74,0,0,0-.73.49,2.88,2.88,0,0,0-.62.62c-.07.12-.06.24.1.36.33.22,2,1.15,2.39,1.32A.24.24,0,0,0,43.54,41.89Z" style="fill: #1d1d1b;fill-rule: evenodd"/>
    <path d="M39.54,42.64a3.24,3.24,0,0,0,.07.9,3.39,3.39,0,0,0,.23.88.24.24,0,0,0,.35.1c.36-.15,2-1.06,2.31-1.3.07-.06.16-.12.14-.24h0c0-.13-.13-.15-.21-.17a24.13,24.13,0,0,0-2.58-.4A.26.26,0,0,0,39.54,42.64Z" style="fill: #1d1d1b;fill-rule: evenodd"/>
    <path d="M56.44,57h0c-.13,0-.16.12-.19.2-.15.39-.62,2.16-.68,2.54a.26.26,0,0,0,.19.33,3.39,3.39,0,0,0,.9,0,2.9,2.9,0,0,0,.89-.14.25.25,0,0,0,.15-.34c-.12-.37-.83-2.07-1-2.44C56.62,57.06,56.57,57,56.44,57Z" style="fill: #1d1d1b;fill-rule: evenodd"/>
    <path d="M59.41,58.32a.26.26,0,0,0,.38,0,3.05,3.05,0,0,0,.47-.74,3,3,0,0,0,.32-.82.25.25,0,0,0-.22-.31c-.38-.11-2.19-.41-2.61-.44-.09,0-.2,0-.26.09h0c-.05.11,0,.19.07.26C57.83,56.72,59.11,58.07,59.41,58.32Z" style="fill: #1d1d1b;fill-rule: evenodd"/>
  </g>
</svg>
