<svg xmlns="http://www.w3.org/2000/svg" viewBox="0 0 24 24" fill="black">
  <path d="M11.34,15.3h1.32V14H11.34Z" />
  <path d="M15.34,7.33H18V6H14V8.66h1.34Z" />
  <path d="M16.66,11.32H18V8.66H16.66Z" />
  <path d="M16.66,18H18V16.64H16.66Z" />
  <path d="M6,14v4h4V16.64H7.34V15.3H10V14Z" />
  <path d="M15.34,16.64V15.3H14v1.34H11.34V18h4Z" />
  <path d="M16.66,14V15.3H18V12.64H15.34V11.32H14V14Z" />
  <path d="M7.34,11.32h4v-4h-4ZM6,12.64h6.66V6H6Z" style="fill-rule: evenodd" />
  <path d="M8.66,10H10V8.66H8.66Z" />
  <path d="M3,8.65a1,1,0,0,0,1-1H4V4.5A.53.53,0,0,1,4.5,4H7.62a1,1,0,1,0,0-2H4A2,2,0,0,0,2,4V7.65A1,1,0,0,0,3,8.65Z" />
  <path d="M20,2H16.34a1,1,0,0,0-1,1h0a1,1,0,0,0,1,1H19.5a.53.53,0,0,1,.5.5V7.61a1,1,0,0,0,2,0V4a2,2,0,0,0-2-2Z" />
  <path d="M21,15.31a1,1,0,0,0-1,1h0v3.16a.54.54,0,0,1-.54.53H16.34a1,1,0,0,0,0,2H20a2,2,0,0,0,2-2V16.31a1,1,0,0,0-1-1Z" />
  <path d="M7.66,20H4.5a.54.54,0,0,1-.5-.5V16.35a1,1,0,1,0-2,0H2V20a2,2,0,0,0,2,2H7.66a1,1,0,1,0,0-2Z" />
</svg>
