<svg viewBox="0 0 64 64" fill="none" xmlns="http://www.w3.org/2000/svg">
  <path d="M11.7259 4H52.2741C56.5415 4 60 7.45852 60 11.7259V52.2741C60 56.5415 56.5415 60 52.2741 60H11.7259C7.45852 60 4 56.5415 4 52.2741V11.7259C4 7.45852 7.45852 4 11.7259 4Z" fill="#28646E" />
  <path d="M21.9925 20.7067C22.1192 20.5952 22.0726 20.4491 22.0365 20.336L22.034 20.3281C21.8525 19.7474 20.8207 17.3259 20.5459 16.8385C20.4733 16.6518 20.2659 16.5533 20.0792 16.6259C20.074 16.6285 20.0701 16.6298 20.0662 16.6311L20.0662 16.6311C20.0623 16.6324 20.0585 16.6337 20.0533 16.6363C19.8096 16.7296 19.5088 16.9526 19.0422 17.357C18.5755 17.7615 18.3214 18.0311 18.1918 18.2593C18.0881 18.4304 18.1399 18.6585 18.311 18.7622C18.3162 18.7674 18.3266 18.7726 18.3318 18.7726C18.7777 19.1044 21.0436 20.4474 21.5985 20.7015C21.7073 20.7533 21.8525 20.8207 21.9822 20.7015L21.9925 20.7067ZM38.3104 31.9689C37.9526 32.3112 37.5689 32.4408 37.2319 32.1297C37.2215 32.1141 37.2111 32.1038 37.18 32.0778C36.9156 31.7978 36.9311 31.3623 37.2111 31.103C39.6741 28.4689 41.9556 25.3993 43.0341 23.1075C43.4385 22.2934 43.7445 21.4326 43.9519 20.546C44.0815 19.8563 43.8067 19.4363 43.4022 19.3482C43.1171 19.286 42.7022 19.4778 42.5208 20.0119C42.3185 20.66 42.0696 21.2874 41.7793 21.8993C40.317 25.0156 38.217 27.7897 35.6193 30.0504C35.1941 30.4289 34.8052 30.2889 34.5874 30.0504C34.3748 29.8119 34.3126 29.3608 34.7378 28.9771C38.4867 25.5963 40.4363 21.9875 40.9082 20.4163C41.1 19.7682 40.8252 19.4571 40.597 19.3949C40.3741 19.3274 39.7311 19.3274 39.4822 19.9134C38.9326 21.2045 38.2585 22.6304 36.1222 25.026C34.0948 27.3075 30.8593 29.8586 28.9822 31.1082C28.1526 31.663 27.3955 31.8912 26.7111 31.4867C25.8348 30.9734 25.9229 29.8638 26.0059 29.3867C26.177 28.4171 26.6696 25.5341 27.017 23.263C27.2141 21.9978 26.5348 21.8215 26.177 21.7956C25.8192 21.7697 25.4615 21.9563 25.2126 22.5786C24.2378 25.1089 23.4081 27.6963 22.7289 30.3201C22.1066 32.8556 22.2207 35.7282 22.5578 37.263C22.7548 38.1704 22.6926 38.5697 22.5837 38.9171C22.3348 39.5652 22.0444 40.1978 21.7229 40.8097C21.6319 40.9936 21.4922 41.2684 21.3356 41.5765C21.0463 42.1456 20.6992 42.8283 20.494 43.2623C20.4837 43.2882 20.4733 43.309 20.4629 43.3297C20.1881 43.8275 19.5607 44.0089 19.0629 43.7341C18.5911 43.4645 18.3992 42.8786 18.6222 42.3808C19.027 41.4324 19.6869 40.3807 20.2671 39.4558C20.4451 39.1722 20.6155 38.9006 20.7689 38.6475C20.8726 38.4764 20.914 38.2741 20.8778 38.0771C20.3333 34.7897 20.4318 31.9326 21.0281 29.48C21.6967 26.7365 22.4582 24.8135 22.9876 23.4765C23.1316 23.113 23.2584 22.7927 23.3615 22.5112C24.1859 20.2608 25.6844 19.9756 26.6696 20.1104C27.8674 20.2763 28.9355 21.1786 28.7541 23.1697C28.6752 24.0157 28.3336 26.2669 28.1046 27.7765L28.1046 27.7766C28.0023 28.4505 27.9225 28.9765 27.8985 29.1638C27.8518 29.5526 28.2563 29.5993 28.5467 29.4075C30.2007 28.3238 32.8815 26.2393 34.8104 24.1186C36.8844 21.8215 37.5896 20.4526 38.0667 19.4415C38.7304 18.0208 39.6378 17.7356 40.5607 17.7563C40.9808 17.7719 41.38 17.9534 41.66 18.2697C41.7222 18.3423 41.8311 18.3526 41.9141 18.3008C42.4845 17.8808 43.2104 17.7304 43.9 17.886C44.9578 18.1089 45.8445 19.3741 45.5334 20.7689C45.5109 20.8623 45.4861 20.9725 45.4596 21.0903L45.4595 21.0904C45.4065 21.3258 45.3467 21.5918 45.2845 21.8163V21.8215C45.2637 21.8993 45.3104 21.9719 45.3882 21.9926C46.8659 22.3037 47.1667 23.6104 46.9489 24.6837C46.783 25.4771 46.3941 26.4934 45.5334 27.9712C45.5308 27.9763 45.5295 27.9815 45.5282 27.9867L45.5282 27.9867C45.5269 27.9919 45.5256 27.9971 45.523 28.0023C45.5022 28.0749 45.5437 28.1526 45.6215 28.1734C46.7363 28.4741 47.3845 30.2526 46.1504 32.3267C45.7097 33.063 44.0971 35.5675 42.9304 36.7341C40.3689 39.2956 38.5644 40.8771 34.157 42.8941C33.0889 43.3815 32.1867 44.1801 31.5644 45.1808C30.7531 46.533 30.7544 46.5502 30.7555 46.5638L30.7555 46.5653C30.5948 46.949 30.2163 47.203 29.7963 47.203C29.6459 47.2082 29.4904 47.1719 29.3504 47.1045C28.8318 46.8349 28.6244 46.2023 28.8837 45.6786C28.9459 45.5386 29.1326 45.1912 29.7704 44.123C30.4652 42.946 31.6163 42.1786 33.1563 41.3801C37.5637 39.0882 39.8556 37.6934 42.1422 35.1371C42.9874 34.1986 45.1185 31.3986 45.3208 30.6415C45.4452 30.1749 45.3778 29.786 44.9734 29.703C44.6882 29.646 44.403 29.7756 44.1645 30.123C43.0756 31.6215 41.8674 33.0319 40.5504 34.3386C40.1356 34.7586 39.6948 34.7793 39.42 34.5304L39.3733 34.4838C39.1296 34.2245 39.1452 33.8201 39.4045 33.5764C42.5 30.3771 44.0659 27.8208 45.1911 25.4978C45.6163 24.6163 45.6267 23.8126 45.1548 23.6208C44.7504 23.4652 44.3771 23.6882 44.1956 24.0926C43.34 25.9904 40.7526 29.6356 38.3104 31.9689ZM30.2318 25.84C29.7652 25.84 29.3918 25.4615 29.3866 25C29.3866 24.7563 29.4904 24.5282 29.6718 24.3674C32.0518 22.2674 33.1044 20.5304 33.2911 20.2141C33.9911 19.0008 35.1059 18.363 36.2985 18.5237C36.76 18.6015 37.0711 19.0319 36.9933 19.4933C36.9207 19.9341 36.5163 20.2452 36.0704 20.1933C35.3807 20.1 34.9192 20.7637 34.7533 21.0489C34.5511 21.4119 33.3637 23.3563 30.7866 25.6274C30.6311 25.7674 30.4341 25.84 30.2318 25.84ZM16.0451 40.1201C15.5785 40.1201 15.1999 39.7467 15.1999 39.2801C15.1999 39.0312 15.3088 38.7926 15.5059 38.6319C16.4859 37.8593 17.5229 37.1697 18.6066 36.5578C19.0214 36.3504 19.5296 36.5163 19.737 36.9363C19.9444 37.3512 19.7785 37.8593 19.3585 38.0667C18.3888 38.6163 17.4607 39.2386 16.5844 39.9282C16.434 40.0578 16.2422 40.1304 16.0451 40.1304V40.1201ZM20.8266 22.0642C20.9429 22.0942 21.0814 22.1299 21.1111 22.2934C21.137 22.4697 21.0074 22.5526 20.9089 22.6148C20.4059 22.9519 18.0829 24.2015 17.5644 24.4037C17.5592 24.4063 17.5553 24.4089 17.5514 24.4115C17.5476 24.4141 17.5437 24.4167 17.5385 24.4193C17.357 24.5126 17.1392 24.44 17.0459 24.2586C16.8696 23.88 16.7607 23.4808 16.714 23.066C16.6052 22.4593 16.574 22.086 16.6207 21.8267C16.6518 21.6348 16.7763 21.5052 17.0563 21.5156C17.6111 21.5363 20.2192 21.9148 20.8103 22.06L20.8266 22.0642ZM40.68 42.1474C40.5117 42.1576 40.4587 42.3033 40.4176 42.4166L40.4155 42.4222C40.2133 42.9926 39.56 45.5437 39.477 46.0985C39.4148 46.2903 39.5237 46.4978 39.7207 46.56C39.7259 46.56 39.7298 46.5613 39.7337 46.5626C39.7376 46.5639 39.7415 46.5652 39.7466 46.5652C40.1563 46.6429 40.5711 46.6533 40.9859 46.6015C41.5926 46.56 41.9711 46.5081 42.2096 46.3992C42.3963 46.3266 42.4948 46.1192 42.4222 45.9274L42.4196 45.9216C42.4186 45.919 42.4178 45.9167 42.417 45.9144C42.4157 45.9105 42.4144 45.9066 42.4118 45.9015C42.2563 45.3674 41.2711 42.9252 40.9859 42.3859L40.9805 42.3756C40.9246 42.2684 40.8561 42.1374 40.6903 42.1474H40.68ZM42.2517 41.3279C42.1745 41.2354 42.0764 41.1177 42.1577 40.9652C42.226 40.8286 42.3583 40.8319 42.4703 40.8348C42.4858 40.8352 42.501 40.8356 42.5155 40.8356C43.1222 40.8718 45.7251 41.297 46.2592 41.4422C46.534 41.5148 46.6066 41.6704 46.5807 41.8726C46.5496 42.1319 46.4044 42.4793 46.1192 43.0237C45.9533 43.4022 45.7251 43.7548 45.4451 44.0608C45.4423 44.0622 45.4399 44.0636 45.4377 44.065C45.4319 44.0688 45.4282 44.0725 45.4244 44.0763C45.274 44.2111 45.0407 44.1956 44.9059 44.0452C44.4755 43.6874 42.6348 41.8104 42.2562 41.3333L42.2517 41.3279Z" fill="white" fill-rule="evenodd" clip-rule="evenodd" />
</svg>
