<svg id="lines" xmlns="http://www.w3.org/2000/svg" viewBox="0 0 360 360"><title>LikeCoin_team_member_icon</title><path d="M204.48,135.6a4.47,4.47,0,0,1,.7,3.14,4.67,4.67,0,0,1-3,4.29c-2.12.64-4.94-.2-5.47-2.58a6.28,6.28,0,0,1,1.3-5.79,3.94,3.94,0,0,1,5.08-.35A5.33,5.33,0,0,1,204.48,135.6Z"/><path d="M148.84,130.85a4.37,4.37,0,0,1,1.13,3,4.66,4.66,0,0,1-2.37,4.67c-2,.93-4.92.5-5.78-1.79s-.73-4.79,1.46-6.25A4.35,4.35,0,0,1,148.84,130.85Z"/><path d="M215.87,187.31s-2.5,1.58-3,5.78" style="fill:none;stroke:#000;stroke-linecap:round;stroke-linejoin:round;stroke-width:2px"/><path d="M158,195.87s8.11,3.91,19.68,1.5" style="fill:none;stroke:#000;stroke-linecap:round;stroke-linejoin:round;stroke-width:2px"/><path d="M150,70.89c-4.33.55-14,3-22.73,15.91s-12.79,32.48-12.62,52.31c.12,14.21,1.11,47.22,9.78,62.17,8.46,14.59,24.06,30.33,44.6,32,19.93,1.6,38-9.45,47.76-21.18,9-10.81,13.79-25.83,13.79-25.83s10.21,2.4,16.22-10.21,8.71-20.73,6-27.63-6.31-7.81-12.32-6.31" style="fill:none;stroke:#000;stroke-linecap:round;stroke-linejoin:round;stroke-width:4px"/><path d="M180.54,144.66c-1.5-5.55-3.59-12.31,4.36-14.12s23.27-1.2,31.08,0,11,6,6.16,16.67" style="fill:none;stroke:#000;stroke-linecap:round;stroke-linejoin:round;stroke-width:4px"/><path d="M163.88,143.23s4.21-7.28,3.16-11.18-18.62-7.36-30.64-7.51-15.62-.84-13.21,13.77" style="fill:none;stroke:#000;stroke-linecap:round;stroke-linejoin:round;stroke-width:4px"/><path d="M167.21,134.32a16,16,0,0,1,11.91,0" style="fill:none;stroke:#000;stroke-linecap:round;stroke-linejoin:round;stroke-width:4px"/><path d="M186,123.86a36.28,36.28,0,0,1,30-.7" style="fill:none;stroke:#000;stroke-linecap:round;stroke-linejoin:round;stroke-width:4px"/><path d="M161.63,121.52s-9.76-8.21-26.73-4" style="fill:none;stroke:#000;stroke-linecap:round;stroke-linejoin:round;stroke-width:4px"/><path d="M157.28,154.57c-1.06,1.35-7.21,8,2.4,12.32s23.28,4.65,28.23-2.56" style="fill:none;stroke:#000;stroke-linecap:round;stroke-linejoin:round;stroke-width:4px"/><path d="M144.06,183.71s21.63,14.11,51.66,3.75" style="fill:none;stroke:#000;stroke-linecap:round;stroke-linejoin:round;stroke-width:4px"/><path d="M221.56,205s-1.19,29.92,2.85,38.93,19.67,12.31,19.67,12.31c17.33,23.39-18,48.11-37.16,54.42-17.41,5.71-36.58,3.4-53.11-3.74a74,74,0,0,1-19.58-12.4c-8-7-19.06-18.49-13.95-30.15,1.43-3.26,5.08-5.4,7.26-8.13,3.61-4.5,3.61-18.32,3.3-25.53" style="fill:none;stroke:#000;stroke-linecap:round;stroke-linejoin:round;stroke-width:4px"/><path d="M231.5,251.23s5.14-.84,19.34,1.18,45.06,11.53,59.54,16.84c18.74,6.87,43.12,26.75,54.87,50" style="fill:none;stroke:#000;stroke-linecap:round;stroke-linejoin:round;stroke-width:4px"/><path d="M58.23,281.7s25.46-7.21,34.47-11.94,14.64-10.05,20.5-9.87" style="fill:none;stroke:#000;stroke-linecap:round;stroke-linejoin:round;stroke-width:4px"/><path d="M258.2,253.86s6.83,6.89,6.15,20.18-10.13,29.73-34.24,43.48-74.56,23.87-112.63-16.45" style="fill:none;stroke:#000;stroke-linecap:round;stroke-linejoin:round;stroke-width:4px"/><path d="M165.46,73.78s-15.48-9.24-9.69-21" style="fill:none;stroke:#000;stroke-linecap:round;stroke-linejoin:round;stroke-width:4px"/><path d="M183.71,76c-6.79-4.09-15.86-9.78-16.46-18.64-.62-9.33,5.36-19.54,15.48-19.88" style="fill:none;stroke:#000;stroke-linecap:round;stroke-linejoin:round;stroke-width:4px"/><path d="M161.74,41.34A49.38,49.38,0,0,0,155,43c-10.48,3.32-20.37,7.79-28.79,14.9a53.33,53.33,0,0,0-11.5,14.48,50.9,50.9,0,0,0-5.4,12.9,96.22,96.22,0,0,0-2.4,25.67c.68,20.72,1.13,23.37,1.13,23.37-4.5.58-9.46,17,7.35,37.65" style="fill:none;stroke:#000;stroke-linecap:round;stroke-linejoin:round;stroke-width:4px"/><path d="M238.45,135.28a33.31,33.31,0,0,0,0-13.85c-6.54-9.57-7-19.27-9.46-29s-16.9-19.14-23.78-18.69a83.83,83.83,0,0,1-11.82,0S177.8,58,191.59,45.39" style="fill:none;stroke:#000;stroke-linecap:round;stroke-linejoin:round;stroke-width:4px"/><path d="M202.63,42.54s28.53,3.23,43.4,25.31c5.23,7.77,9.18,16.54,9.55,26a77.19,77.19,0,0,1-1.33,15.39c-1.34,8.32-2.79,16.75-5.44,25.06" style="fill:none;stroke:#000;stroke-linecap:round;stroke-linejoin:round;stroke-width:4px"/><path d="M236,167.34s2.1-13.22,9.46-16.07" style="fill:none;stroke:#000;stroke-linecap:round;stroke-linejoin:round;stroke-width:4px"/></svg>