<svg id="lines" xmlns="http://www.w3.org/2000/svg" viewBox="0 0 360 360"><title>LikeCoin_team_member_icon</title><path d="M171.75,200.94a24.61,24.61,0,0,0,16.61,2" style="fill:none;stroke:#000;stroke-linecap:round;stroke-linejoin:round;stroke-width:2px"/><path d="M211.62,135.71a3.53,3.53,0,0,0-.6,2.6,3.86,3.86,0,0,0,2.59,3.55c1.83.53,4.25-.16,4.71-2.14a5,5,0,0,0-1.12-4.79,3.47,3.47,0,0,0-4.37-.3A4.62,4.62,0,0,0,211.62,135.71Z"/><path d="M165.43,129.42a3.56,3.56,0,0,1,.6,2.6,3.88,3.88,0,0,1-2.58,3.56c-1.84.53-4.26-.16-4.72-2.14a5,5,0,0,1,1.12-4.8,3.5,3.5,0,0,1,4.38-.3A4.73,4.73,0,0,1,165.43,129.42Z"/><circle cx="222.53" cy="198.95" r="1.37"/><path d="M191.56,141.17c3.35,10.32,6.27,12.14,8.06,16,2.49,5.32-3,8.22-12.41,8.54" style="fill:none;stroke:#000;stroke-linecap:round;stroke-linejoin:round;stroke-width:4px"/><path d="M157.27,180c8.69-2.57,30.29-4,50.07,6.87,0,0-7.19,11.82-25,10.48C159.51,195.65,157.27,180,157.27,180Z" style="fill:none;stroke:#000;stroke-linecap:round;stroke-linejoin:round;stroke-width:4px"/><path d="M250.28,141.17c-3,15.4-9.1,49.73-21.06,64.52C216,222,192,238.36,161.63,227.42c-32.46-11.69-41-50.14-41-50.14-11.31-4.11-13.32-10.64-15.58-18.62s-4.84-20.7,2-26.93c6.4-5.83,11.56.82,13.57,10.31" style="fill:none;stroke:#000;stroke-linecap:round;stroke-linejoin:round;stroke-width:4px"/><path d="M112.07,140.17s3.65,4.59,5.48,14.92" style="fill:none;stroke:#000;stroke-linecap:round;stroke-linejoin:round;stroke-width:4px"/><path d="M210.49,120.9s7.54-3.7,20.1-1.77" style="fill:none;stroke:#000;stroke-linecap:round;stroke-linejoin:round;stroke-width:4px"/><path d="M170.12,116s-9.05-7.53-20.1-5.4" style="fill:none;stroke:#000;stroke-linecap:round;stroke-linejoin:round;stroke-width:4px"/><path d="M173,87.46c-2.07-9.67-.82-21.25,4.62-29" style="fill:none;stroke:#000;stroke-linecap:round;stroke-linejoin:round;stroke-width:4px"/><path d="M154,82.67c-1.46-4.69-1.12-9.54,0-14.25a38.15,38.15,0,0,1,10.29-17.75,37.79,37.79,0,0,1,8.11-6.35c11.15-6.23,24.69-3,36.2.28a113.53,113.53,0,0,1,40,21.7c8.73,7.43,14.3,17.68,18.43,28a59.63,59.63,0,0,1,3.83,18.82" style="fill:none;stroke:#000;stroke-linecap:round;stroke-linejoin:round;stroke-width:4px"/><path d="M141,66.79s-6.86,6.29-8.57,19.34" style="fill:none;stroke:#000;stroke-linecap:round;stroke-linejoin:round;stroke-width:4px"/><path d="M155.58,45.4a88.32,88.32,0,0,0-18.66,6c-15.37,7.17-29.78,20-34.3,37.55" style="fill:none;stroke:#000;stroke-linecap:round;stroke-linejoin:round;stroke-width:4px"/><path d="M188.91,56.4s-7,12.69-3.24,27.51" style="fill:none;stroke:#000;stroke-linecap:round;stroke-linejoin:round;stroke-width:4px"/><path d="M218.49,65s10.09,12.37,12.44,28.17" style="fill:none;stroke:#000;stroke-linecap:round;stroke-linejoin:round;stroke-width:4px"/><path d="M240.23,86.54a43.82,43.82,0,0,1,6,17.36c1.38,10.52,3,31.43,3,31.43" style="fill:none;stroke:#000;stroke-linecap:round;stroke-linejoin:round;stroke-width:4px"/><path d="M265.48,117.41S262,135.21,257.56,148" style="fill:none;stroke:#000;stroke-linecap:round;stroke-linejoin:round;stroke-width:4px"/><path d="M253.54,148.87a7.24,7.24,0,0,1,8,3.5c3.21,5-2.07,17.41-4.71,22.25s-5.28,11.72-13.82,15.71" style="fill:none;stroke:#000;stroke-linecap:round;stroke-linejoin:round;stroke-width:4px"/><path d="M130.42,97s-2.52,10.48-5.2,15c0,0-3.18,12.69-2.68,17.55" style="fill:none;stroke:#000;stroke-linecap:round;stroke-linejoin:round;stroke-width:4px"/><path d="M108.87,96.37a102.49,102.49,0,0,0-.06,25.46" style="fill:none;stroke:#000;stroke-linecap:round;stroke-linejoin:round;stroke-width:4px"/><path d="M137.22,124.58c1.08-1.48,3.35-2.07,5.11-2.42,6-1.18,12.55-.71,18.58.32,9.46,1.63,16.47,2.63,20.59,7.15,3.09,3.37-2.11,16.15-7.08,18.74s-20.19,1.94-28.56-1.4-9-9.8-9.49-14.77c-.22-2.26-.49-5,.57-7.16A3.14,3.14,0,0,1,137.22,124.58Z" style="fill:none;stroke:#000;stroke-linecap:round;stroke-linejoin:round;stroke-width:4px"/><path d="M239.86,136.48c-.72-1.59-2.74-2.57-4.32-3.21-5.44-2.23-11.66-3-17.52-3.12-9.21-.21-16-.55-20.77,2.93-3.57,2.6-1.22,15.56,2.94,18.91s18.58,5.53,27.1,3.93,10.42-7.55,11.86-12.13c.65-2.08,1.45-4.65.88-6.83A2.48,2.48,0,0,0,239.86,136.48Z" style="fill:none;stroke:#000;stroke-linecap:round;stroke-linejoin:round;stroke-width:4px"/><path d="M182.35,131.73s8-1,13.65,2.27" style="fill:none;stroke:#000;stroke-linecap:round;stroke-linejoin:round;stroke-width:4px"/><path d="M133.43,217.89s-.22,8.68-1.41,12.59c-1.7,5.54-10,10.38-14.78,11.1,0,0-1.46,45.45,47.86,52s68.66-27.08,71-47c0,0,18.61,6.64,29.13,9.55,10.23,2.83,45.74,17.72,54.88,45.94,9.6,29.64,13.26,83.64,13.26,83.64" style="fill:none;stroke:#000;stroke-linecap:round;stroke-linejoin:round;stroke-width:4px"/><path d="M221.67,213.77a155.15,155.15,0,0,0-1.45,15.85,16.86,16.86,0,0,0,8.71,14.26" style="fill:none;stroke:#000;stroke-linecap:round;stroke-linejoin:round;stroke-width:4px"/><path d="M118.09,241.58a170.87,170.87,0,0,0-21,4.84c-11.36,3.38-30,9.67-30,9.67" style="fill:none;stroke:#000;stroke-linecap:round;stroke-linejoin:round;stroke-width:4px"/></svg>