<svg id="lines" xmlns="http://www.w3.org/2000/svg" viewBox="0 0 360 360"><title>LikeCoin_team_member_icon</title><path d="M186.75,201.25s12.08,4.75,22-.75" style="fill:none;stroke:#000;stroke-linecap:round;stroke-linejoin:round;stroke-width:2px"/><path d="M142.91,133.78a7.22,7.22,0,0,1,2.05-3.84,18.45,18.45,0,0,1,7.54-4.11,51.25,51.25,0,0,1,18.83-1.25c6.17.67,12.7,3,14.89,8.53,2.08,5.29-.33,13.21-3.68,17.51A19.57,19.57,0,0,1,169.25,158c-5.63.68-11.81.14-16.77-2.79a17.32,17.32,0,0,1-7-8C143.45,143.15,142,138.37,142.91,133.78Z" style="fill:none;stroke:#000;stroke-linecap:round;stroke-linejoin:round;stroke-width:4px"/><path d="M246.1,134.19a7.24,7.24,0,0,0-2-3.86,17.85,17.85,0,0,0-7.35-4.16,48.78,48.78,0,0,0-18.4-1.38c-6,.63-12.43,2.87-14.61,8.42-2.07,5.28.23,13.22,3.48,17.54a19,19,0,0,0,12.94,7.47c5.49.72,11.53.22,16.41-2.68a17.07,17.07,0,0,0,6.91-7.92C245.51,143.55,247,138.78,246.1,134.19Z" style="fill:none;stroke:#000;stroke-linecap:round;stroke-linejoin:round;stroke-width:4px"/><path d="M185.75,131s1.49-1.62,8.75-1.88,9,.88,10,2.13" style="fill:none;stroke:#000;stroke-linecap:round;stroke-linejoin:round;stroke-width:4px"/><path d="M209.42,153.17s7.08,6.08,3.58,12.16c-3.3,5.74-18,6.21-25.38,5s-9.74-5.38-9.74-5.38" style="fill:none;stroke:#000;stroke-linecap:round;stroke-linejoin:round;stroke-width:4px"/><path d="M171.5,188.75S197,199,220,187.17" style="fill:none;stroke:#000;stroke-linecap:round;stroke-linejoin:round;stroke-width:4px"/><path d="M212.5,119.67S223.33,113,234.17,116" style="fill:none;stroke:#000;stroke-linecap:round;stroke-linejoin:round;stroke-width:4px"/><path d="M177.33,119s-11.5-7.5-25.33-2.67" style="fill:none;stroke:#000;stroke-linecap:round;stroke-linejoin:round;stroke-width:4px"/><path d="M251.25,151.5s5,35.25-7.75,52.25-23.74,25.31-45.25,27.5c-12.25,1.25-32-4-46.5-13.25-16.23-10.36-23.58-30-23.58-30s2.16,19.33,3.16,25.67,26.34,58,53.67,74,39.67,2.66,42.33-3,3-13.38,2.42-20.42" style="fill:none;stroke:#000;stroke-linecap:round;stroke-linejoin:round;stroke-width:4px"/><path d="M125.5,177s-7.75,1.5-12.75-10.25S99.25,137,103.25,129s11.75-6.75,16.5-2a98.17,98.17,0,0,1-3.5-21" style="fill:none;stroke:#000;stroke-linecap:round;stroke-linejoin:round;stroke-width:4px"/><path d="M112.29,135.17a4.42,4.42,0,0,1,2.1.71c3.84,2.87,4.23,7.65,5,12a80.25,80.25,0,0,1,1.09,8" style="fill:none;stroke:#000;stroke-linecap:round;stroke-linejoin:round;stroke-width:4px"/><path d="M213.75,280.75c13.5-24.5,14.25-50.42,14.25-50.42s17.5.17,33.25,3.42,28,19.75,35,36.5S313,325,313,325" style="fill:none;stroke:#000;stroke-linecap:round;stroke-linejoin:round;stroke-width:4px"/><path d="M221,69.67c-5.5-4.5-36-18-56.33,6.33" style="fill:none;stroke:#000;stroke-linecap:round;stroke-linejoin:round;stroke-width:4px"/><path d="M164.75,44.75s-44,14.75-32,68.75" style="fill:none;stroke:#000;stroke-linecap:round;stroke-linejoin:round;stroke-width:4px"/><path d="M239.75,57c-2.25-7.25-11-23.25-30.5-29.5-18.9-6.06-49.75-6-68.75,7.75s-36,34.25-31.25,62.5" style="fill:none;stroke:#000;stroke-linecap:round;stroke-linejoin:round;stroke-width:4px"/><path d="M207.67,53.33S187.08,46.5,169.33,58,150,87,150,87" style="fill:none;stroke:#000;stroke-linecap:round;stroke-linejoin:round;stroke-width:4px"/><path d="M246,64s3.23,2.88,7,10c4.5,8.5,4,33.75,2,51" style="fill:none;stroke:#000;stroke-linecap:round;stroke-linejoin:round;stroke-width:4px"/><path d="M229,75.25s15.25,13.5,19.25,47.75" style="fill:none;stroke:#000;stroke-linecap:round;stroke-linejoin:round;stroke-width:4px"/><path d="M121,208.5s-2.75,9.25-22,21.75-26.25,16-45.75,33.5" style="fill:none;stroke:#000;stroke-linecap:round;stroke-linejoin:round;stroke-width:4px"/><path d="M162.72,132.6a4.21,4.21,0,0,0-.73,3.13,4.65,4.65,0,0,0,3.14,4.27c2.22.64,5.16-.19,5.72-2.57a6.06,6.06,0,0,0-1.36-5.76,4.25,4.25,0,0,0-5.31-.36A5.34,5.34,0,0,0,162.72,132.6Z"/><path d="M218.05,132.6a4.25,4.25,0,0,0-.73,3.13,4.65,4.65,0,0,0,3.14,4.27c2.22.64,5.16-.19,5.72-2.57a6,6,0,0,0-1.36-5.76,4.25,4.25,0,0,0-5.31-.36A5.5,5.5,0,0,0,218.05,132.6Z"/><circle cx="177.78" cy="147.02" r="1.37"/></svg>