<svg id="lines" xmlns="http://www.w3.org/2000/svg" viewBox="0 0 360 360"><title>LikeCoin_team_member_icon</title><path d="M176.24,133.93a4,4,0,0,0-.68,2.95,4.4,4.4,0,0,0,2.95,4c2.1.6,4.87-.19,5.4-2.43a5.68,5.68,0,0,0-1.29-5.43,4,4,0,0,0-5-.34A5.59,5.59,0,0,0,176.24,133.93Z"/><path d="M229.43,135.71a4,4,0,0,0-.69,2.94,4.4,4.4,0,0,0,3,4c2.09.6,4.87-.18,5.39-2.42a5.7,5.7,0,0,0-1.28-5.44,4,4,0,0,0-5-.33A5.23,5.23,0,0,0,229.43,135.71Z"/><path d="M216.74,136.8l.12-.44c.89-2.89,4.1-3.92,6.71-4.67a54,54,0,0,1,16-1.62c13.53.32,20.63,1.93,22.24,4.67s-.65,16.92-3.71,20.47-10,4.35-20,3.87c-4.66-.23-9.88-.47-14.06-2.78-3.73-2.07-5.38-5.9-6.6-9.71A17.79,17.79,0,0,1,216.74,136.8Z" style="fill:none;stroke:#000;stroke-linecap:round;stroke-linejoin:round;stroke-width:4px"/><path d="M158.05,141.1c-.61-6.54,0-11.36,8.86-12.32S190,127.41,197.37,130c6.64,2.37,9,3.09,7.9,10s-4.19,14.5-9.35,16.28-13.25,3.13-25.17,1.19S158.25,143.27,158.05,141.1Z" style="fill:none;stroke:#000;stroke-linecap:round;stroke-linejoin:round;stroke-width:4px"/><path d="M206.07,136s7-2,10.79.37" style="fill:none;stroke:#000;stroke-linecap:round;stroke-linejoin:round;stroke-width:4px"/><path d="M217.19,157.33a26.74,26.74,0,0,0,6.45,5.91,5.49,5.49,0,0,1,2.5,3.23c.92,3.6-4,6-6.77,6.81-7.31,2.16-23,1-26.34-4.4" style="fill:none;stroke:#000;stroke-linecap:round;stroke-linejoin:round;stroke-width:4px"/><path d="M255.26,167c.86,5.65-1.56,20.88-10,32.48s-14.76,21.76-19,27.8-17,15.23-36.62,7.5-47.38-27.81-59.71-55.37c0,0-10.15,1.94-20.06-15.23S97,136.35,106.23,132s19.1,7.74,19.1,7.74" style="fill:none;stroke:#000;stroke-linecap:round;stroke-linejoin:round;stroke-width:4px"/><path d="M108.89,142.88s4.59-6.29,13.3,7.49" style="fill:none;stroke:#000;stroke-linecap:round;stroke-linejoin:round;stroke-width:4px"/><path d="M224.45,125s14.91-7.66,23.45-1.21" style="fill:none;stroke:#000;stroke-linecap:round;stroke-linejoin:round;stroke-width:4px"/><path d="M167.88,122.33s9.42-9.91,30.46.76" style="fill:none;stroke:#000;stroke-linecap:round;stroke-linejoin:round;stroke-width:4px"/><path d="M178.05,188.91s26.43-2.27,48.9,3c0,0-3.37,9.06-12.33,12.33S186.15,203.49,178.05,188.91Z" style="fill:none;stroke:#000;stroke-linecap:round;stroke-linejoin:round;stroke-width:4px"/><path d="M213.87,211.54s-7.14,4.35-17.06-1" style="fill:none;stroke:#000;stroke-linecap:round;stroke-linejoin:round;stroke-width:2px"/><path d="M131.61,182.91s.9,39.46-10.79,49.18a48.19,48.19,0,0,1-14.27,8s-2.58,39.39,19.9,57.28c30.24,24.06,68.51,14.89,83.65,2.9,16.27-12.89,20.63-37.55,12.9-53.67,0,0,22.27,7.66,42.31,11.64,21.29,4.24,42.92,13.42,52.15,25.85s16.68,47.57,16.68,47.57" style="fill:none;stroke:#000;stroke-linecap:round;stroke-linejoin:round;stroke-width:4px"/><path d="M193,321.74c10.81-2.83,20.16-7.27,26.17-12,16.28-12.9,22.39-38.8,18.12-58.2" style="fill:none;stroke:#000;stroke-linecap:round;stroke-linejoin:round;stroke-width:4px"/><path d="M106.55,240.08S79.27,245.5,57.4,254" style="fill:none;stroke:#000;stroke-linecap:round;stroke-linejoin:round;stroke-width:4px"/><path d="M139.91,86a44.37,44.37,0,0,0,3.55,26.19S136,116.61,134,123.09s-3.14,13.5-1.93,27.28" style="fill:none;stroke:#000;stroke-linecap:round;stroke-linejoin:round;stroke-width:4px"/><path d="M106.47,123.09s-.48-9.7,0-17.92S102.84,84.38,110.1,73,129.2,46.3,155,40.74" style="fill:none;stroke:#000;stroke-linecap:round;stroke-linejoin:round;stroke-width:4px"/><path d="M180.64,56.09s-.12-19.82,13.83-30.94" style="fill:none;stroke:#000;stroke-linecap:round;stroke-linejoin:round;stroke-width:4px"/><path d="M190.36,53s3.28-16.68,15.18-24.42" style="fill:none;stroke:#000;stroke-linecap:round;stroke-linejoin:round;stroke-width:4px"/><path d="M205.54,51.26s1.74-9.43,18.91-16.2" style="fill:none;stroke:#000;stroke-linecap:round;stroke-linejoin:round;stroke-width:4px"/><path d="M226.25,44.24S263.93,53,254,102.89" style="fill:none;stroke:#000;stroke-linecap:round;stroke-linejoin:round;stroke-width:4px"/><path d="M169.49,67.45s-11.24,1-22.48,10.4" style="fill:none;stroke:#000;stroke-linecap:round;stroke-linejoin:round;stroke-width:4px"/><path d="M166.67,53s-1.45-13.54,8.86-21.76" style="fill:none;stroke:#000;stroke-linecap:round;stroke-linejoin:round;stroke-width:4px"/><path d="M179.24,65.84s47-7.82,68.66,22.67c0,0,10.71,11.26,6.29,41.53" style="fill:none;stroke:#000;stroke-linecap:round;stroke-linejoin:round;stroke-width:4px"/></svg>