<svg id="lines" xmlns="http://www.w3.org/2000/svg" viewBox="0 0 360 360"><title>LikeCoin_team_member_icon</title><path d="M152.21,154.43c-.73,8.22-5.87,15.42-9.78,20.4s-1.65,9.64,9.78,12.8" style="fill:none;stroke:#000;stroke-linecap:round;stroke-linejoin:round;stroke-width:4px"/><path d="M116.82,166.41s-4,25.73,4.82,45.88,13.94,32.26,30.57,34.87,39.86-5.93,56.74-24.43" style="fill:none;stroke:#000;stroke-linecap:round;stroke-linejoin:round;stroke-width:4px"/><path d="M136.56,203.28s13.7,9.49,33.75,4.27" style="fill:none;stroke:#000;stroke-linecap:round;stroke-linejoin:round;stroke-width:4px"/><ellipse cx="208.95" cy="170.03" rx="1.38" ry="1.34"/><ellipse cx="205.77" cy="175.96" rx="1.38" ry="1.34"/><ellipse cx="187.87" cy="191.85" rx="1.97" ry="1.91"/><path d="M184.9,151.36a6.5,6.5,0,0,1,1.33,2.93,5.15,5.15,0,0,1-.7,4.14,3.88,3.88,0,0,1-3.61,2,4,4,0,0,1-3.24-2.43,5.86,5.86,0,0,1,1-6.68A3.66,3.66,0,0,1,184.9,151.36Z"/><path d="M135.92,144.93a6.18,6.18,0,0,1,1.24,2.8,4.83,4.83,0,0,1-.71,3.92,3.68,3.68,0,0,1-3.45,1.87,3.88,3.88,0,0,1-3.07-2.36,5.59,5.59,0,0,1,1-6.34A3.49,3.49,0,0,1,135.92,144.93Z"/><path d="M147.5,148.24a8.89,8.89,0,0,0-2.58-3.9,19,19,0,0,0-3.71-2.59c-5.48-3-12-3.59-18.19-3.35-5.09.2-11.24,1.62-12.34,7.26a24,24,0,0,0,.83,11.56,23.2,23.2,0,0,0,3.06,6.58,12.38,12.38,0,0,0,7,4.41c5,1.33,10.8,1.54,15.69-.33,4-1.52,7.79-4.29,9.14-8.41C147.64,155.8,148.65,151.75,147.5,148.24Z" style="fill:none;stroke:#000;stroke-linecap:round;stroke-linejoin:round;stroke-width:4px"/><path d="M164.35,153.55c1.52-4.92,6.93-6.84,12-7.42a51.82,51.82,0,0,1,17.3,1.12c4.68,1,9.76,3.81,10.2,8.9.33,3.87-.64,7.08-2.28,10.62a22.42,22.42,0,0,1-4,6.19,13.19,13.19,0,0,1-7.87,3.57c-5.37.75-11.47.29-16.36-2.13-4-2-7.65-5.16-8.58-9.41C164.11,162,163.23,157.21,164.35,153.55Z" style="fill:none;stroke:#000;stroke-linecap:round;stroke-linejoin:round;stroke-width:4px"/><path d="M147.93,149.75s7.53-3,17,1.95" style="fill:none;stroke:#000;stroke-linecap:round;stroke-linejoin:round;stroke-width:4px"/><path d="M175,136.53s13.21-4.41,25.44,1.82" style="fill:none;stroke:#000;stroke-linecap:round;stroke-linejoin:round;stroke-width:4px"/><path d="M120.67,129c10-2.49,20,3.32,20,3.32" style="fill:none;stroke:#000;stroke-linecap:round;stroke-linejoin:round;stroke-width:4px"/><path d="M242.45,148.85s5.38-7.07,12.23-4.85,7.49,8.22,5.54,14.7-8.64,17.23-11.41,22a26.07,26.07,0,0,1-15.33,11.17s-3.1,11.72-3.58,17.27a29.78,29.78,0,0,0,5.38,19.93s-.47,51.07-45.44,77.63" style="fill:none;stroke:#000;stroke-linecap:round;stroke-linejoin:round;stroke-width:4px"/><path d="M240.49,170s2.86-12.84,10.76-16.5" style="fill:none;stroke:#000;stroke-linecap:round;stroke-linejoin:round;stroke-width:4px"/><path d="M160.12,255.14s0,6.84,5.09,9.45" style="fill:none;stroke:#000;stroke-linecap:round;stroke-linejoin:round;stroke-width:4px"/><path d="M238.78,220.46a51.58,51.58,0,0,0,10.27,2.74c5.87,1,26.9,1.43,48.18,7.83,17.85,5.37,39.67,20.56,50.7,37.36" style="fill:none;stroke:#000;stroke-linecap:round;stroke-linejoin:round;stroke-width:4px"/><path d="M154.56,72.14s-8.33,24.13,7.88,41.5a57.32,57.32,0,0,0,22.49,14.7" style="fill:none;stroke:#000;stroke-linecap:round;stroke-linejoin:round;stroke-width:4px"/><path d="M168.67,83.29s-3.77,32.25,37.38,47.9" style="fill:none;stroke:#000;stroke-linecap:round;stroke-linejoin:round;stroke-width:4px"/><path d="M206.91,87.24s-3.43,18,3.42,32.09a69.09,69.09,0,0,0,8.86,13.37c7.89,9.69,9.62,23.11,7.28,35" style="fill:none;stroke:#000;stroke-linecap:round;stroke-linejoin:round;stroke-width:4px"/><path d="M152.21,58.15c1.71-4.51,8.87-14.23,25.83-17.08s35.8-1.42,57.32,12.34,34,32.49,37.66,53.83-5.14,23.58-6.85,31.11" style="fill:none;stroke:#000;stroke-linecap:round;stroke-linejoin:round;stroke-width:4px"/><path d="M144.39,57s-7.95.95-22.2,17.55S103.3,98,100.61,108.66s.64,20.39,6.85,26.36" style="fill:none;stroke:#000;stroke-linecap:round;stroke-linejoin:round;stroke-width:4px"/><path d="M146.43,75s-26.64,9.72-25.76,54" style="fill:none;stroke:#000;stroke-linecap:round;stroke-linejoin:round;stroke-width:4px"/><path d="M249.05,223.2A123.64,123.64,0,0,1,241.47,263c-7.83,21.42-24.7,38-24.7,38" style="fill:none;stroke:#000;stroke-linecap:round;stroke-linejoin:round;stroke-width:4px"/><path d="M56.6,228.18c7.33-3.55,24-6.4,34.72-7.72s24.6-2.78,24.6-2.78-16.28,12.4-7.24,40.15C113.75,273.36,124,285.7,132,293.55" style="fill:none;stroke:#000;stroke-linecap:round;stroke-linejoin:round;stroke-width:4px"/><path d="M143.59,214.67s4.77,5,14.3,2.13" style="fill:none;stroke:#000;stroke-linecap:round;stroke-linejoin:round;stroke-width:2px"/><path d="M147.93,234.8s-.72,7.57,2,12" style="fill:none;stroke:#000;stroke-linecap:round;stroke-linejoin:round;stroke-width:2px"/><path d="M152.49,236.08s-.37,7.64,2.17,11.37" style="fill:none;stroke:#000;stroke-linecap:round;stroke-linejoin:round;stroke-width:2px"/><path d="M156.84,237.13s-.16,7.34,2.1,10.48" style="fill:none;stroke:#000;stroke-linecap:round;stroke-linejoin:round;stroke-width:2px"/><path d="M143.69,235.17s-.62,5.85,1.24,10" style="fill:none;stroke:#000;stroke-linecap:round;stroke-linejoin:round;stroke-width:2px"/></svg>