<svg id="lines" xmlns="http://www.w3.org/2000/svg" viewBox="0 0 360 360"><title>LikeCoin_team_member_icon</title><circle cx="262.78" cy="157.02" r="1.37"/><path d="M192.4,139.81a7.48,7.48,0,0,0-1,4.84c.23,2.31,2.24,4.72,4.86,4a4.44,4.44,0,0,0,2.94-3,7.6,7.6,0,0,0,.3-3.52C199,138.75,194.67,136.51,192.4,139.81Z"/><path d="M246.86,144a7.17,7.17,0,0,0-.77,4.66c.32,2.2,2.34,4.41,4.81,3.64a4.24,4.24,0,0,0,2.68-3,7.09,7.09,0,0,0,.13-3.37C253.15,142.7,248.88,140.74,246.86,144Z"/><path d="M229.91,212s-5.08,2-14.35,0" style="fill:none;stroke:#000;stroke-linecap:round;stroke-linejoin:round;stroke-width:2px"/><line x1="223.26" y1="190.68" x2="220.6" y2="194.19" style="fill:none;stroke:#000;stroke-linecap:round;stroke-linejoin:round;stroke-width:2px"/><line x1="231.49" y1="191.45" x2="232.87" y2="195.63" style="fill:none;stroke:#000;stroke-linecap:round;stroke-linejoin:round;stroke-width:2px"/><line x1="235.72" y1="193.25" x2="237.1" y2="197.42" style="fill:none;stroke:#000;stroke-linecap:round;stroke-linejoin:round;stroke-width:2px"/><line x1="240.18" y1="195.62" x2="241.17" y2="199.91" style="fill:none;stroke:#000;stroke-linecap:round;stroke-linejoin:round;stroke-width:2px"/><line x1="244.11" y1="198.94" x2="244.58" y2="203.32" style="fill:none;stroke:#000;stroke-linecap:round;stroke-linejoin:round;stroke-width:2px"/><line x1="218.37" y1="191.11" x2="216.11" y2="194.89" style="fill:none;stroke:#000;stroke-linecap:round;stroke-linejoin:round;stroke-width:2px"/><line x1="213.59" y1="192.19" x2="211.76" y2="196.19" style="fill:none;stroke:#000;stroke-linecap:round;stroke-linejoin:round;stroke-width:2px"/><line x1="208.97" y1="193.54" x2="207.75" y2="197.77" style="fill:none;stroke:#000;stroke-linecap:round;stroke-linejoin:round;stroke-width:2px"/><line x1="204.4" y1="194.86" x2="203.41" y2="199.15" style="fill:none;stroke:#000;stroke-linecap:round;stroke-linejoin:round;stroke-width:2px"/><line x1="200.06" y1="197.42" x2="199.22" y2="201.74" style="fill:none;stroke:#000;stroke-linecap:round;stroke-linejoin:round;stroke-width:2px"/><line x1="196.12" y1="199.76" x2="195.43" y2="204.11" style="fill:none;stroke:#000;stroke-linecap:round;stroke-linejoin:round;stroke-width:2px"/><path d="M223.78,228.15s-.35,6-4,10.12" style="fill:none;stroke:#000;stroke-linecap:round;stroke-linejoin:round;stroke-width:2px"/><path d="M219.27,229.6a21.92,21.92,0,0,1-3.71,8.67" style="fill:none;stroke:#000;stroke-linecap:round;stroke-linejoin:round;stroke-width:2px"/><path d="M214.44,230.81a14,14,0,0,1-4.6,6.89" style="fill:none;stroke:#000;stroke-linecap:round;stroke-linejoin:round;stroke-width:2px"/><path d="M228,229.26s-.24,4.48-1.69,6.77" style="fill:none;stroke:#000;stroke-linecap:round;stroke-linejoin:round;stroke-width:2px"/><path d="M205,150.8s-2.7,3-13.66,1.67" style="fill:none;stroke:#000;stroke-linecap:round;stroke-linejoin:round;stroke-width:2px"/><path d="M246,154a15,15,0,0,0,8.75,1.51" style="fill:none;stroke:#000;stroke-linecap:round;stroke-linejoin:round;stroke-width:2px"/><path d="M98.3,220.66s-4.84-1.45-8,0-2,6.52,4,13.28c8.19,9.17,59.27,46.18,94.33,56.39" style="fill:none;stroke:#000;stroke-linecap:round;stroke-linejoin:round;stroke-width:4px"/><path d="M244.58,75.25s12.3,9.17,17.21,20.26,8.61,27.74,7.87,48.24-7.37,46.8-14,61.27-15,33.78-44,33.78c-31.23,0-59.75-25.82-72.29-57.66-5.92,3.49-13.12-1.81-16.49-6.29s-5.21-10.14-7.44-15.11c-3.25-7.29-4.87-19,3.27-24A9.85,9.85,0,0,1,132,138.93" style="fill:none;stroke:#000;stroke-linecap:round;stroke-linejoin:round;stroke-width:4px"/><path d="M121.15,146.21c1-1.4,2.69-2.63,5.61-1.33,5.41,2.41,5.41,13.19,5.41,13.19" style="fill:none;stroke:#000;stroke-linecap:round;stroke-linejoin:round;stroke-width:4px"/><path d="M236,145.39c-1.32,2.33-1.72,7.82.37,14.41s6.21,16.43,6,19.15c-.36,4.77-8.76,8.87-18.76,4.68" style="fill:none;stroke:#000;stroke-linecap:round;stroke-linejoin:round;stroke-width:4px"/><path d="M204.77,202.69a67.1,67.1,0,0,0,33.52,1.4" style="fill:none;stroke:#000;stroke-linecap:round;stroke-linejoin:round;stroke-width:4px"/><path d="M209.14,131.67a29,29,0,0,0-22.75-5.61" style="fill:none;stroke:#000;stroke-linecap:round;stroke-linejoin:round;stroke-width:4px"/><path d="M245.32,135.18s9.1-5.09,17.46-3" style="fill:none;stroke:#000;stroke-linecap:round;stroke-linejoin:round;stroke-width:4px"/><path d="M263.5,99.73s11-17-10.07-31.1c0,0-6.11-21.95-23.6-25.22-26.74-5-75.85-13.83-91.91,34.09" style="fill:none;stroke:#000;stroke-linecap:round;stroke-linejoin:round;stroke-width:4px"/><path d="M136.11,62s-22.35,10.37-16.69,49.44" style="fill:none;stroke:#000;stroke-linecap:round;stroke-linejoin:round;stroke-width:4px"/><path d="M142.78,142.32c1.15-17.63,12.13-26.71,12.13-26.71.19-3,.45-6,.74-9,.43-4.5.86-8.72,2.65-13a41.62,41.62,0,0,1,6.83-10.65,58,58,0,0,1,16.92-13.51q2.2-1.17,4.5-2.14C201.34,61,221.94,63.12,236,70.66c0,0-1.56-14.71-15-18.24s-23.6-.65-33.44,7.39" style="fill:none;stroke:#000;stroke-linecap:round;stroke-linejoin:round;stroke-width:4px"/><path d="M181.79,51.77s-18.52,1.93-29,25.73" style="fill:none;stroke:#000;stroke-linecap:round;stroke-linejoin:round;stroke-width:4px"/><path d="M149.17,91s-22.24,8.36-22.51,36.5" style="fill:none;stroke:#000;stroke-linecap:round;stroke-linejoin:round;stroke-width:4px"/><path d="M134.63,182.25s-5.29,23.4-12.54,30.66a80.92,80.92,0,0,1-20.31,15.24" style="fill:none;stroke:#000;stroke-linecap:round;stroke-linejoin:round;stroke-width:4px"/><path d="M188.64,290.33c-2.68,6.95-4.42,15.13-3.46,23.16,2.18,18.13,10.15,50.51,10.15,50.51" style="fill:none;stroke:#000;stroke-linecap:round;stroke-linejoin:round;stroke-width:4px"/><path d="M215.56,245.8c-3.54,4.6-5.78,10.64-7.2,15.23s-3.7,7.74-8.72,11.61c-1.87,1.44-4.65,4.95-7.3,9.74" style="fill:none;stroke:#000;stroke-linecap:round;stroke-linejoin:round;stroke-width:4px"/><path d="M104.51,261.68s36.59,27.24,79.46,41.1" style="fill:none;stroke:#000;stroke-linecap:round;stroke-linejoin:round;stroke-width:4px"/></svg>