<svg id="lines" xmlns="http://www.w3.org/2000/svg" viewBox="0 0 360 360"><title>LikeCoin_team_member_icon</title><path d="M209.81,148.17a4,4,0,0,1,.7,3,4.47,4.47,0,0,1-3,4.11c-2.14.62-5-.18-5.51-2.47a5.81,5.81,0,0,1,1.31-5.55,4.08,4.08,0,0,1,5.11-.35A5.3,5.3,0,0,1,209.81,148.17Z"/><path d="M145.29,148.17a4,4,0,0,0-.7,3,4.48,4.48,0,0,0,3,4.11c2.14.62,5-.18,5.51-2.47a5.81,5.81,0,0,0-1.31-5.55,4.08,4.08,0,0,0-5.11-.35A5.47,5.47,0,0,0,145.29,148.17Z"/><path d="M168.52,220a43.5,43.5,0,0,0,19.64,0" style="fill:none;stroke:#000;stroke-linecap:round;stroke-linejoin:round;stroke-width:2px"/><path d="M228.59,188.23s-6.74,8.65-9.09,16.13" style="fill:none;stroke:#000;stroke-linecap:round;stroke-linejoin:round;stroke-width:2px"/><path d="M118,122.61c-3,10-8.39,32.23-4,53.54s8.87,32,14,40.77c6,10.24,19.63,32.94,50,32.94,38,0,53.56-38,57.28-54.63,0,0,10.51.62,13.9-18" style="fill:none;stroke:#000;stroke-linecap:round;stroke-linejoin:round;stroke-width:4px"/><path d="M156.57,208.94s23.66,4,43.54,0" style="fill:none;stroke:#000;stroke-linecap:round;stroke-linejoin:round;stroke-width:4px"/><path d="M175.7,148.72c.16,6.77-4,21.16-7.18,29.28-2.24,5.68-1.13,9,9.82,10.23" style="fill:none;stroke:#000;stroke-linecap:round;stroke-linejoin:round;stroke-width:4px"/><path d="M196.09,131.34s17.37-7.07,26.43,4" style="fill:none;stroke:#000;stroke-linecap:round;stroke-linejoin:round;stroke-width:4px"/><path d="M158.93,132.34s-17.37-7.07-26.43,4" style="fill:none;stroke:#000;stroke-linecap:round;stroke-linejoin:round;stroke-width:4px"/><path d="M193.9,145.51a16.1,16.1,0,0,0-3.84,2.79l-.11.1a9.63,9.63,0,0,0-3,7.78c.58,5,5.17,8.1,9.65,9.71a31.67,31.67,0,0,0,9.05,1.77" style="fill:none;stroke:#000;stroke-linecap:round;stroke-linejoin:round;stroke-width:4px"/><path d="M225.93,161.73a11.33,11.33,0,0,0,2.37-9.93c-.93-4.47-5.35-7-9.31-8.43a25.62,25.62,0,0,0-13-1.24" style="fill:none;stroke:#000;stroke-linecap:round;stroke-linejoin:round;stroke-width:4px"/><path d="M168.14,153.55s10.05-3.83,19,0" style="fill:none;stroke:#000;stroke-linecap:round;stroke-linejoin:round;stroke-width:4px"/><path d="M218.24,88.17s13.09,23.71,14.1,37.68,7.8,33.43,22.15,45.41" style="fill:none;stroke:#000;stroke-linecap:round;stroke-linejoin:round;stroke-width:4px"/><path d="M240.25,176.15a53.72,53.72,0,0,0,1.38-5.36,55.94,55.94,0,0,0,1.25-12.25" style="fill:none;stroke:#000;stroke-linecap:round;stroke-linejoin:round;stroke-width:4px"/><path d="M194.58,61.48s16.58,8.48,16,24-17.42,27.7-37.59,28.94" style="fill:none;stroke:#000;stroke-linecap:round;stroke-linejoin:round;stroke-width:4px"/><path d="M191.76,74S180,117.62,135.17,116.12" style="fill:none;stroke:#000;stroke-linecap:round;stroke-linejoin:round;stroke-width:4px"/><path d="M158.93,63.22s-18.92,6.34-26.43,29c-6,18.21-23.51,25.2-23.51,25.2" style="fill:none;stroke:#000;stroke-linecap:round;stroke-linejoin:round;stroke-width:4px"/><path d="M215.06,55.36s18,1.63,29.11,16.85,16.32,29.46,24.38,39.44" style="fill:none;stroke:#000;stroke-linecap:round;stroke-linejoin:round;stroke-width:4px"/><path d="M262.45,117.37s1,21-7,41.17" style="fill:none;stroke:#000;stroke-linecap:round;stroke-linejoin:round;stroke-width:4px"/><path d="M207.79,52.25s-10.32-11.73-33.35-9.87C159.35,43.6,146.15,47.19,127,63.66s-22.41,12.22-30.21,37.67S88.43,138,103.9,165.47c0,0-7.61,7.27,5.09,22.76" style="fill:none;stroke:#000;stroke-linecap:round;stroke-linejoin:round;stroke-width:4px"/><path d="M128.36,230.42s.15,20-1.9,30.63" style="fill:none;stroke:#000;stroke-linecap:round;stroke-linejoin:round;stroke-width:4px"/><path d="M225.46,220s0,13.16,1.22,15.64,27.81,10.12,27.81,10.12-.06,19.93-5.29,34.59-14.59,24.87-20.61,33.76" style="fill:none;stroke:#000;stroke-linecap:round;stroke-linejoin:round;stroke-width:4px"/><path d="M254.49,245.73s34.6,8.07,50.09,15.32" style="fill:none;stroke:#000;stroke-linecap:round;stroke-linejoin:round;stroke-width:4px"/><path d="M265.79,248.55s3.14,29-16.59,56.64" style="fill:none;stroke:#000;stroke-linecap:round;stroke-linejoin:round;stroke-width:4px"/><path d="M127.87,238c-1.94,2.33-5.61,3.17-8.24,4.55-2.79,1.46-5.6,3.25-7.26,6-3.78,6.24-4.11,25.35,9.4,45.77S152.4,327.91,158,333.18" style="fill:none;stroke:#000;stroke-linecap:round;stroke-linejoin:round;stroke-width:4px"/><path d="M118.12,243.39s-8,3-28.3,12.47c-22.51,10.54-33.84,15.33-42.24,21" style="fill:none;stroke:#000;stroke-linecap:round;stroke-linejoin:round;stroke-width:4px"/><path d="M174.39,264.08a12.94,12.94,0,0,0,2.44,6.9" style="fill:none;stroke:#000;stroke-linecap:round;stroke-linejoin:round;stroke-width:4px"/><path d="M147.41,142.77c1.19,0,2.37,0,3.54.08,4.94.19,10.67,1.9,14.25,5.44l.1.11a9.63,9.63,0,0,1,3,7.76c-.57,5.05-5.15,8.12-9.62,9.75" style="fill:none;stroke:#000;stroke-linecap:round;stroke-linejoin:round;stroke-width:4px"/><path d="M140.49,167.15C125.27,164.4,126.4,154.7,127,151.93a8.59,8.59,0,0,1,3.8-5" style="fill:none;stroke:#000;stroke-linecap:round;stroke-linejoin:round;stroke-width:4px"/><line x1="181.75" y1="196.89" x2="184.68" y2="200.17" style="fill:none;stroke:#000;stroke-linecap:round;stroke-linejoin:round;stroke-width:2px"/><line x1="187.66" y1="196.93" x2="190.2" y2="200.52" style="fill:none;stroke:#000;stroke-linecap:round;stroke-linejoin:round;stroke-width:2px"/><line x1="193.51" y1="197.62" x2="195.64" y2="201.47" style="fill:none;stroke:#000;stroke-linecap:round;stroke-linejoin:round;stroke-width:2px"/><line x1="199.22" y1="198.61" x2="200.77" y2="202.72" style="fill:none;stroke:#000;stroke-linecap:round;stroke-linejoin:round;stroke-width:2px"/><line x1="204.88" y1="199.56" x2="206.21" y2="203.75" style="fill:none;stroke:#000;stroke-linecap:round;stroke-linejoin:round;stroke-width:2px"/><line x1="171.2" y1="197.43" x2="168.35" y2="200.78" style="fill:none;stroke:#000;stroke-linecap:round;stroke-linejoin:round;stroke-width:2px"/><line x1="165.29" y1="197.59" x2="162.83" y2="201.23" style="fill:none;stroke:#000;stroke-linecap:round;stroke-linejoin:round;stroke-width:2px"/><line x1="159.46" y1="198.39" x2="157.41" y2="202.29" style="fill:none;stroke:#000;stroke-linecap:round;stroke-linejoin:round;stroke-width:2px"/><line x1="153.77" y1="199.49" x2="152.31" y2="203.64" style="fill:none;stroke:#000;stroke-linecap:round;stroke-linejoin:round;stroke-width:2px"/><line x1="148.13" y1="200.55" x2="146.9" y2="204.77" style="fill:none;stroke:#000;stroke-linecap:round;stroke-linejoin:round;stroke-width:2px"/><path d="M178.25,235s-1,9-3.5,13.88" style="fill:none;stroke:#000;stroke-linecap:round;stroke-linejoin:round;stroke-width:2px"/><path d="M172.77,235.35a39.6,39.6,0,0,1-4.89,12.9" style="fill:none;stroke:#000;stroke-linecap:round;stroke-linejoin:round;stroke-width:2px"/><path d="M166.75,236.31a27.5,27.5,0,0,1-5,9.69" style="fill:none;stroke:#000;stroke-linecap:round;stroke-linejoin:round;stroke-width:2px"/><path d="M183.17,234.75s.08,10.25-1.09,14.54" style="fill:none;stroke:#000;stroke-linecap:round;stroke-linejoin:round;stroke-width:2px"/><path d="M188.12,235.88a100.3,100.3,0,0,0,1.38,11.87" style="fill:none;stroke:#000;stroke-linecap:round;stroke-linejoin:round;stroke-width:2px"/><path d="M192.69,236.88s1.89,5.45,4.06,8.29" style="fill:none;stroke:#000;stroke-linecap:round;stroke-linejoin:round;stroke-width:2px"/><path d="M161.12,236.12s-3.24,6.19-5.81,7.94" style="fill:none;stroke:#000;stroke-linecap:round;stroke-linejoin:round;stroke-width:2px"/></svg>