<svg id="lines" xmlns="http://www.w3.org/2000/svg" viewBox="0 0 360 360"><title>LikeCoin_team_member_icon</title><path d="M172.2,200.55a31.1,31.1,0,0,0,13.78,0" style="fill:none;stroke:#000;stroke-linecap:round;stroke-linejoin:round;stroke-width:2px"/><path d="M217,283.66l21.28-31" style="fill:none;stroke:#000;stroke-linecap:round;stroke-linejoin:round;stroke-width:2px"/><path d="M156.66,138.85a4.25,4.25,0,0,1,.73,3.13,4.65,4.65,0,0,1-3.14,4.27c-2.22.64-5.16-.19-5.72-2.57a6.06,6.06,0,0,1,1.36-5.77,4.26,4.26,0,0,1,5.31-.35A5.5,5.5,0,0,1,156.66,138.85Z"/><path d="M151.16,138.84s-3.94-.42-4.42-3.64c0,0-2.05,4.14,2.3,5.76S151.16,138.84,151.16,138.84Z"/><path d="M203.88,139.6a4.25,4.25,0,0,0-.73,3.13,4.65,4.65,0,0,0,3.14,4.27c2.22.64,5.17-.19,5.72-2.57a6,6,0,0,0-1.36-5.76,4.23,4.23,0,0,0-5.3-.36A5.55,5.55,0,0,0,203.88,139.6Z"/><path d="M209.38,139.85s3.94-.42,4.42-3.65c0,0,2,4.15-2.3,5.77S209.38,139.85,209.38,139.85Z"/><path d="M196.79,76.07c-13.21-1.93-35.57-1.39-48.46,8s-22.47,27-25.05,44.08c-1.21,8-1,17.56-.53,25.63,1,19.15,2.69,33.25,10.53,47.57a61,61,0,0,0,29.56,26.57c12.55,5.35,22.22,5.63,34.87.43,11.8-4.85,26.62-14.62,32.55-26.36a45.08,45.08,0,0,0,3.37-8.92,41.34,41.34,0,0,0,.94-4.66c.15-1.07.73-3.37,1.55-4.17,0,0,9.67-9.49,15.15-17.23s11.93-18.37,9.67-26.75-10-6.13-10-6.13" style="fill:none;stroke:#000;stroke-linecap:round;stroke-linejoin:round;stroke-width:4px"/><path d="M207.11,79.3a45.55,45.55,0,0,1,25.46,28c5,15.74,8.06,37.71,7.74,49.64,0,0,5.8-16.44,12.25-14.51" style="fill:none;stroke:#000;stroke-linecap:round;stroke-linejoin:round;stroke-width:4px"/><path d="M105.25,133.45s-3.22-16.12,0-30,12.07-39.71,37.53-55.82,52.08-14.13,63-3.81-2.58,27.08-2.58,27.08" style="fill:none;stroke:#000;stroke-linecap:round;stroke-linejoin:round;stroke-width:4px"/><path d="M116.21,137s-5.77-8.7-12.39,0,4.46,24.47,12.39,32.56" style="fill:none;stroke:#000;stroke-linecap:round;stroke-linejoin:round;stroke-width:4px"/><path d="M216.78,50.29s9-1,21.6,13.53,18.69,30.3,24.82,66.08" style="fill:none;stroke:#000;stroke-linecap:round;stroke-linejoin:round;stroke-width:4px"/><path d="M196.31,126.9s15.23-5.92,25.63,1.21" style="fill:none;stroke:#000;stroke-linecap:round;stroke-linejoin:round;stroke-width:4px"/><path d="M164.65,127s-15.48-6-25.62,1.21" style="fill:none;stroke:#000;stroke-linecap:round;stroke-linejoin:round;stroke-width:4px"/><path d="M193.79,64.79c-5.44-7.93-15.17-6.23-23.35-4.55s-17.12,5.23-23.61,10.43c-13.09,10.5-21.21,20.34-26.7,40" style="fill:none;stroke:#000;stroke-linecap:round;stroke-linejoin:round;stroke-width:4px"/><path d="M260,167.91s-9.87,16.29-7.41,26.78,8.84,12.9,8.84,12.9" style="fill:none;stroke:#000;stroke-linecap:round;stroke-linejoin:round;stroke-width:4px"/><path d="M241.18,195.16s.31,14.74,12.73,20.67" style="fill:none;stroke:#000;stroke-linecap:round;stroke-linejoin:round;stroke-width:4px"/><path d="M225.91,219.35s-.12,20.15,0,27.56-21,24.82-21.25,29,.74,8.71,3.32,11.93c0,0,.64,11.93-7.42,18.37S183,333.3,183.72,342.65" style="fill:none;stroke:#000;stroke-linecap:round;stroke-linejoin:round;stroke-width:4px"/><path d="M241.18,217.91s20,8.69,39,16.75,36.1,17.73,42.23,35.46,8.06,43.52,8.06,63.18" style="fill:none;stroke:#000;stroke-linecap:round;stroke-linejoin:round;stroke-width:4px"/><path d="M53.58,246.59c10.64-7.41,29.33-15.79,38.68-21.92s28.69-9.67,36.1-11.6,10.8-1.64,10.8-1.64l0,8.44c-.38,9.27.43,19.16,3.28,28,2.34,7.29,6.29,14,9.35,21q5.49,12.59,9.78,25.65" style="fill:none;stroke:#000;stroke-linecap:round;stroke-linejoin:round;stroke-width:4px"/><path d="M116.21,180.35s5,18.37,0,25.14" style="fill:none;stroke:#000;stroke-linecap:round;stroke-linejoin:round;stroke-width:4px"/><path d="M158.34,189.86s18.4,9.37,43.39,0" style="fill:none;stroke:#000;stroke-linecap:round;stroke-linejoin:round;stroke-width:4px"/><path d="M176.4,146.46s-1.48,12.9-8.74,20c-4.92,4.83,5.37,9.23,11.85,9.23" style="fill:none;stroke:#000;stroke-linecap:round;stroke-linejoin:round;stroke-width:4px"/><circle cx="138.52" cy="158.27" r="1.35"/><circle cx="161.08" cy="155.21" r="1.35"/><circle cx="213" cy="164.4" r="1.35"/><circle cx="196.35" cy="160.07" r="1.35"/><circle cx="146.09" cy="164.64" r="1.93"/><circle cx="220.96" cy="156.03" r="1.93"/></svg>