<svg id="lines" xmlns="http://www.w3.org/2000/svg" viewBox="0 0 360 360"><title>LikeCoin_team_member_icon</title><path d="M227.5,110.5s5,13.81,9.88,29,8.23,39.92,1.79,61.3c-5.66,18.77-24.61,38.71-46.17,42.67-16.64,3.05-36,2.26-57-16.61C117.23,210,113.3,180,111.59,163.38a6.8,6.8,0,0,0-9.19,2.7c-3.59,5.79-1.11,11.2-.4,17.75a26.85,26.85,0,0,0,9,17.75" style="fill:none;stroke:#000;stroke-linecap:round;stroke-linejoin:round;stroke-width:4px"/><path d="M157.33,198.89s21.67,7.61,41.7-7" style="fill:none;stroke:#000;stroke-linecap:round;stroke-linejoin:round;stroke-width:4px"/><path d="M158.77,163.66c-.76,1.56-5.55,9.47,5.27,11.41s24.84-1,28.26-9.24" style="fill:none;stroke:#000;stroke-linecap:round;stroke-linejoin:round;stroke-width:4.09722805023193px"/><path d="M112.83,143.17c-.45-4.34,5.84-7,16.84-9.5s29.83-3,31.5,3.5.26,16.55-8.84,19c-8.66,2.33-19.83,4-28,3.5S113.33,148,112.83,143.17Z" style="fill:none;stroke:#000;stroke-linecap:round;stroke-linejoin:round;stroke-width:4.09722805023193px"/><path d="M225,127.07c-.79-4.29-7.56-5.08-18.82-4.39s-29.48,5.51-29.25,12.21,4.4,16,13.82,15.75c9-.19,20.15-1.73,27.85-4.5S225.89,131.85,225,127.07Z" style="fill:none;stroke:#000;stroke-linecap:round;stroke-linejoin:round;stroke-width:4.09722805023193px"/><path d="M161.17,137.17s6.21-3.22,15.77-2.28" style="fill:none;stroke:#000;stroke-linecap:round;stroke-linejoin:round;stroke-width:4.09722805023193px"/><path d="M122.17,129.83s7.83-10.16,21.5-10.33" style="fill:none;stroke:#000;stroke-linecap:round;stroke-linejoin:round;stroke-width:4.09722805023193px"/><path d="M185.5,112.33s14.83-3.33,27,2.67" style="fill:none;stroke:#000;stroke-linecap:round;stroke-linejoin:round;stroke-width:4.09722805023193px"/><path d="M245.56,140.16a9.11,9.11,0,0,1,11,.8c5.78,4.59,2.79,21.34,1.79,27.92s-.2,11.76-8.57,17.14" style="fill:none;stroke:#000;stroke-linecap:round;stroke-linejoin:round;stroke-width:4px"/><path d="M159.33,44.67s-29.33-2-52,28-16,63.33-10,84.33" style="fill:none;stroke:#000;stroke-linecap:round;stroke-linejoin:round;stroke-width:4px"/><path d="M170,43.67s21.33-7.34,49,10.66S254.33,91.67,256.33,106s.67,23.67.67,23.67" style="fill:none;stroke:#000;stroke-linecap:round;stroke-linejoin:round;stroke-width:4px"/><path d="M161.54,57.85a42.19,42.19,0,0,0,6.7,31.81,83.87,83.87,0,0,0,11.09,13" style="fill:none;stroke:#000;stroke-linecap:round;stroke-linejoin:round;stroke-width:4px"/><path d="M172,72.33s3.61,15.65,22.33,32.34" style="fill:none;stroke:#000;stroke-linecap:round;stroke-linejoin:round;stroke-width:4px"/><path d="M196.5,72.75s22,30.25,45.25,51.5" style="fill:none;stroke:#000;stroke-linecap:round;stroke-linejoin:round;stroke-width:4px"/><path d="M218.5,74s16,14,21.5,25.5" style="fill:none;stroke:#000;stroke-linecap:round;stroke-linejoin:round;stroke-width:4px"/><path d="M147,65.83s-12,25.34-3.33,53.67" style="fill:none;stroke:#000;stroke-linecap:round;stroke-linejoin:round;stroke-width:4px"/><path d="M116.7,89.08s-6.41,13-7.5,33" style="fill:none;stroke:#000;stroke-linecap:round;stroke-linejoin:round;stroke-width:4px"/><path d="M172.42,210.75s8.91,2.33,15.41-1.92" style="fill:none;stroke:#000;stroke-linecap:round;stroke-linejoin:round;stroke-width:2px"/><path d="M241,193.5s1,43.83,4.33,53.5,15,13.33,15,13.33" style="fill:none;stroke:#000;stroke-linecap:round;stroke-linejoin:round;stroke-width:4px"/><path d="M145.33,246s4,19.67,3,30.67" style="fill:none;stroke:#000;stroke-linecap:round;stroke-linejoin:round;stroke-width:4px"/><path d="M252.33,244s7.34,2,9.67,8.67,4.33,43-22.67,74.33" style="fill:none;stroke:#000;stroke-linecap:round;stroke-linejoin:round;stroke-width:4px"/><path d="M250.5,231.25s12.5.75,18.83,7.42S291.67,275.33,294.67,339" style="fill:none;stroke:#000;stroke-linecap:round;stroke-linejoin:round;stroke-width:4px"/><path d="M290.83,261s20.17,8.67,51.84,34" style="fill:none;stroke:#000;stroke-linecap:round;stroke-linejoin:round;stroke-width:4px"/><path d="M123.5,291c-7.5-8.75-16.25-18.5-8.75-27.5S137,243.25,137,243.25s-24.67,4-44,6S62,253.5,46.5,272" style="fill:none;stroke:#000;stroke-linecap:round;stroke-linejoin:round;stroke-width:4px"/><path d="M119,272.75c4-4,9.5-6.25,13.75.75s2,13,2,19.5,20,10.5,29,27.75" style="fill:none;stroke:#000;stroke-linecap:round;stroke-linejoin:round;stroke-width:4px"/><path d="M183.67,257.67c0,3.66,0,7,5.66,11.66" style="fill:none;stroke:#000;stroke-linecap:round;stroke-linejoin:round;stroke-width:4px"/><path d="M199.33,135a28.71,28.71,0,0,1,6,0" style="fill:none;stroke:#000;stroke-linecap:round;stroke-linejoin:round;stroke-width:4px"/><path d="M140,144.25a29.19,29.19,0,0,1,5.88-1" style="fill:none;stroke:#000;stroke-linecap:round;stroke-linejoin:round;stroke-width:4px"/></svg>