<svg id="lines" xmlns="http://www.w3.org/2000/svg" viewBox="0 0 360 360"><title>LikeCoin_team_member_icon</title><path d="M148.28,198.75s7.7,2.74,13.91,0" style="fill:none;stroke:#000;stroke-linecap:round;stroke-linejoin:round;stroke-width:2px"/><path d="M181.39,125.55a9.66,9.66,0,0,1,.62,4.91c-.33,2.26-2.37,4.54-4.87,3.75a4.34,4.34,0,0,1-2.71-3.13,7.56,7.56,0,0,1-.13-3.48,4.51,4.51,0,0,1,4-3.82,5.94,5.94,0,0,1,1.12,0A2.83,2.83,0,0,1,181.39,125.55Z"/><path d="M125.55,131.88a9.45,9.45,0,0,1,.62,4.91c-.32,2.26-2.36,4.55-4.86,3.75a4.35,4.35,0,0,1-2.72-3.13,7.56,7.56,0,0,1-.13-3.48,4.52,4.52,0,0,1,4-3.82,5.26,5.26,0,0,1,1.12,0A2.78,2.78,0,0,1,125.55,131.88Z"/><path d="M105,145.13s-5.37,38.5,8.29,59.81c13,20.3,30.24,30.79,53.14,30.79,21.4,0,39.58-8.18,50.51-20" style="fill:none;stroke:#000;stroke-linecap:round;stroke-linejoin:round;stroke-width:4px"/><path d="M147.08,137.94s-3.54,13.37-7,19.33,4.47,9.43,8.45,9.93" style="fill:none;stroke:#000;stroke-linecap:round;stroke-linejoin:round;stroke-width:4px"/><path d="M177.56,185.62c-19.37,10.68-39.73,2.46-39.73,2.46" style="fill:none;stroke:#000;stroke-linecap:round;stroke-linejoin:round;stroke-width:4px"/><path d="M215.05,79.55s.5,26.57,18.63,39c0,0,6.21,15.15,6.21,31.54" style="fill:none;stroke:#000;stroke-linecap:round;stroke-linejoin:round;stroke-width:4px"/><path d="M224.49,54s42.21-2.73,48.42,44.45" style="fill:none;stroke:#000;stroke-linecap:round;stroke-linejoin:round;stroke-width:4px"/><path d="M188.49,58.94s-16.15,4.72-8.7,26.07" style="fill:none;stroke:#000;stroke-linecap:round;stroke-linejoin:round;stroke-width:4px"/><path d="M165.14,58.94s-12.26,9.68-3.39,28.3" style="fill:none;stroke:#000;stroke-linecap:round;stroke-linejoin:round;stroke-width:4px"/><path d="M155.72,52.71c-6.07,5.53-13.49,17-6.22,37.64" style="fill:none;stroke:#000;stroke-linecap:round;stroke-linejoin:round;stroke-width:4px"/><path d="M129.64,72s-10.93,9.81-7.21,28.68" style="fill:none;stroke:#000;stroke-linecap:round;stroke-linejoin:round;stroke-width:4px"/><path d="M165.14,111.5s7.48-7.45,18-5.22" style="fill:none;stroke:#000;stroke-linecap:round;stroke-linejoin:round;stroke-width:4px"/><path d="M133.61,118.28s-6-6.45-14.65-3.47" style="fill:none;stroke:#000;stroke-linecap:round;stroke-linejoin:round;stroke-width:4px"/><path d="M213.73,50.33s-28.22-17.47-63.24-10-49.16,34-58.85,57.12,0,35.5,0,35.5" style="fill:none;stroke:#000;stroke-linecap:round;stroke-linejoin:round;stroke-width:4px"/><path d="M235.31,313c13.27-13.93,21.59-32.43,23.69-43.75,4-21.36,3.48-28.81,3.48-28.81-6-4-14.4-13.66-16.14-22.59s-1.74-37-1.74-37c3,1.74,12.17,2.73,16.39-6.46s2.73-28.55,0-37.49-9.19-10.18-14.4-4" style="fill:none;stroke:#000;stroke-linecap:round;stroke-linejoin:round;stroke-width:4px"/><path d="M143.86,244.42a29.21,29.21,0,0,1,2.07,18.88c-2.39,10.67,3.57,61.33,43.3,67.78a44.67,44.67,0,0,0,20.85-1.47" style="fill:none;stroke:#000;stroke-linecap:round;stroke-linejoin:round;stroke-width:4px"/><path d="M262.48,240.45s24.75,13,51.57,20.28" style="fill:none;stroke:#000;stroke-linecap:round;stroke-linejoin:round;stroke-width:4px"/><path d="M39.25,306c12.91-19.62,27.56-29.8,46.68-33.77s48.85-16.3,48.85-16.3-2.08,17.33-.43,26,2.82,18.71,11.09,34.6" style="fill:none;stroke:#000;stroke-linecap:round;stroke-linejoin:round;stroke-width:4px"/><path d="M159.48,127a7.69,7.69,0,0,1,2.25-4.57c3.79-3.51,9.26-4.56,14.16-5.51a80.08,80.08,0,0,1,13.55-1.43c2.66-.06,5.43.06,7.83,1.35,4.22,2.26,5,8.09,5.34,12.4.34,4.87-.28,10.42-3.3,14.44-2.72,3.62-8.74,4.76-13,5.28a66.43,66.43,0,0,1-10.83.59c-4.52-.18-10.44-1.07-12.58-5.7C161.31,140.41,158.76,131.62,159.48,127Z" style="fill:none;stroke:#000;stroke-linecap:round;stroke-linejoin:round;stroke-width:4px"/><path d="M104.46,129.51c2.28-2.95,7.66-4.13,10.81-4.62,5.13-.8,11-1.43,16.2-.72,3.5.49,7.87,1.29,9.46,4.9,1.49,3.37,1.62,14.66,0,18.76-1.28,3.27-5.15,5.13-8.23,6.25a33.74,33.74,0,0,1-10.39,1.83c-3.27.11-6.64.36-9.69-.83-3.82-1.48-5.92-5.11-7.24-8.73a30,30,0,0,1-1.94-14.51A4.87,4.87,0,0,1,104.46,129.51Z" style="fill:none;stroke:#000;stroke-linecap:round;stroke-linejoin:round;stroke-width:4px"/><path d="M140.93,129.07s5-5,18.55-2.06" style="fill:none;stroke:#000;stroke-linecap:round;stroke-linejoin:round;stroke-width:4px"/><path d="M248.82,156s-.49-16.73,5.72-15.31" style="fill:none;stroke:#000;stroke-linecap:round;stroke-linejoin:round;stroke-width:4px"/><path d="M263.63,97.43s-.28,20.48-5.56,33.95" style="fill:none;stroke:#000;stroke-linecap:round;stroke-linejoin:round;stroke-width:4px"/></svg>