<?xml version="1.0" encoding="UTF-8"?>
<svg enable-background="new 0 0 290 270" version="1.1" viewBox="0 0 290 270" xml:space="preserve" xmlns="http://www.w3.org/2000/svg">
<path d="m34 103c0-3.3-2.7-6-6-6s-6 2.7-6 6 2.7 6 6 6 6-2.7 6-6"/>
<path d="m282 155c-3.3 0-6 2.7-6 6s2.7 6 6 6 6-2.7 6-6-2.7-6-6-6"/>
<path d="m218 238c-1.7 0-3 1.3-3 3s1.3 3 3 3 3-1.3 3-3-1.3-3-3-3"/>
<path d="m74 258c-1.7 0-3 1.3-3 3s1.3 3 3 3 3-1.3 3-3-1.3-3-3-3"/>
<path d="m264 50c1.7 0 3-1.3 3-3s-1.3-3-3-3-3 1.3-3 3 1.3 3 3 3"/>
<path d="m100 12c1.7 0 3-1.3 3-3s-1.3-3-3-3-3 1.3-3 3 1.3 3 3 3"/>
<path d="m7 127c-1.7 0-3 1.3-3 3s1.3 3 3 3 3-1.3 3-3-1.3-3-3-3"/>
<path d="m206.5 139.9h-125.4v-67.4c0-1.4-1.1-2.5-2.6-2.5-1.4 0-2.5 1.1-2.5 2.5v69.9c0 1.4 1.1 2.5 2.5 2.5h127.9c1.4 0 2.5-1.1 2.5-2.5 0.1-1.3-1-2.5-2.4-2.5"/>
<path d="m219.5 57h-127.9c-1.4 0-2.5 1.1-2.6 2.5 0 1.4 1.1 2.5 2.5 2.5h125.4v67.4c0 1.4 1.1 2.5 2.6 2.5 1.4 0 2.5-1.1 2.5-2.5v-69.9c0-1.4-1.1-2.5-2.5-2.5"/>
<path d="m251.5 179.9c-1.6-3.4-5.6-4.9-9-3.3s-4.9 5.6-3.3 9.1l13.4 28.7h-208.1l13.4-28.7c1.6-3.4 0.1-7.5-3.3-9.1s-7.4-0.1-9 3.3l-17.9 38.4c-1 2.1-0.8 4.6 0.4 6.5 1.2 2 3.4 3.2 5.7 3.2h229.4c2.3 0 4.5-1.2 5.7-3.2s1.4-4.4 0.4-6.5l-17.8-38.4z"/>
<path d="m130.5 201c-1.4 0-2.5 1.1-2.5 2.5s1.1 2.5 2.5 2.5h36.9c1.4 0 2.5-1.1 2.5-2.5s-1.1-2.5-2.5-2.5h-36.9z"/>
<path d="m65 192.5c0 1.4 1.1 2.5 2.5 2.5h10.9c1.4 0 2.5-1.1 2.5-2.5s-1.1-2.5-2.5-2.5h-10.9c-1.4 0-2.5 1.1-2.5 2.5"/>
<path d="m69.6 185h7.8c1.4 0 2.6-1.1 2.6-2.5s-1.2-2.5-2.6-2.5h-7.8c-1.4 0-2.6 1.1-2.6 2.5s1.2 2.5 2.6 2.5"/>
<path d="m96.4 185c1.4 0 2.6-1.1 2.6-2.5s-1.2-2.5-2.6-2.5h-7.8c-1.4 0-2.6 1.1-2.6 2.5s1.2 2.5 2.6 2.5h7.8z"/>
<path d="m118 182.5c0-1.4-1.2-2.5-2.6-2.5h-7.8c-1.4 0-2.6 1.1-2.6 2.5s1.2 2.5 2.6 2.5h7.8c1.4 0 2.6-1.1 2.6-2.5"/>
<path d="m134.4 185c1.4 0 2.6-1.1 2.6-2.5s-1.2-2.5-2.6-2.5h-7.8c-1.4 0-2.6 1.1-2.6 2.5s1.2 2.5 2.6 2.5h7.8z"/>
<path d="m153.4 185c1.4 0 2.6-1.1 2.6-2.5s-1.2-2.5-2.6-2.5h-7.8c-1.4 0-2.6 1.1-2.6 2.5s1.2 2.5 2.6 2.5h7.8z"/>
<path d="m173.4 185c1.4 0 2.6-1.1 2.6-2.5s-1.2-2.5-2.6-2.5h-7.8c-1.4 0-2.6 1.1-2.6 2.5s1.2 2.5 2.6 2.5h7.8z"/>
<path d="m195 182.5c0-1.4-1.2-2.5-2.6-2.5h-7.8c-1.4 0-2.6 1.1-2.6 2.5s1.2 2.5 2.6 2.5h7.8c1.4 0 2.6-1.1 2.6-2.5"/>
<path d="m221 182.5c0-1.4-1.2-2.5-2.6-2.5h-16.8c-1.4 0-2.6 1.1-2.6 2.5s1.2 2.5 2.6 2.5h16.8c1.4 0 2.6-1.1 2.6-2.5"/>
<path d="m228.3 185c1.5 0 2.7-1.1 2.7-2.5s-1.2-2.5-2.7-2.5h-2.6c-1.5 0-2.7 1.1-2.7 2.5s1.2 2.5 2.7 2.5h2.6z"/>
<path d="m89.5 195h10.9c1.4 0 2.5-1.1 2.5-2.5s-1.1-2.5-2.5-2.5h-10.9c-1.4 0-2.5 1.1-2.5 2.5s1.1 2.5 2.5 2.5"/>
<path d="m191 192.5c0-1.4-1.1-2.5-2.6-2.5h-76.9c-1.4 0-2.6 1.1-2.6 2.5s1.1 2.5 2.6 2.5h76.9c1.5 0 2.6-1.1 2.6-2.5"/>
<path d="m198.5 190c-1.4 0-2.5 1.1-2.5 2.5s1.1 2.5 2.5 2.5h10.9c1.4 0 2.5-1.1 2.5-2.5s-1.1-2.5-2.5-2.5h-10.9z"/>
<path d="m220.5 195h10.9c1.4 0 2.5-1.1 2.5-2.5s-1.1-2.5-2.5-2.5h-10.9c-1.4 0-2.5 1.1-2.5 2.5s1.1 2.5 2.5 2.5"/>
<path d="M238.2,35H60.8C57,35,54,38,54,41.8v118.4c0,3.7,3,6.8,6.8,6.8h177.4c3.8,0,6.8-3,6.8-6.8V41.8C245,38,242,35,238.2,35z   M231.4,153.4H67.6V48.6h163.8V153.4z"/>
</svg>