<?xml version="1.0" encoding="utf-8"?>
<svg version="1.1" xmlns="http://www.w3.org/2000/svg" xmlns:xlink="http://www.w3.org/1999/xlink" x="0px" y="0px"
	 viewBox="0 0 32 32" style="enable-background:new 0 0 32 32;" xml:space="preserve">
<path d="M23,5.5h0.2c0.7,0,1.2-0.6,1.2-1.2S23.9,3,23.2,3H8.8C8.1,3,7.5,3.6,7.5,4.2s0.6,1.2,1.2,1.2H9v6.6c0,1.8,0.9,3.5,2.5,4.4
	l0.1,0.1c0.1,0,0.1,0.1,0,0.2c0,0,0,0-0.1,0.1C10,17.4,9,19,9,20.7v6.4c0,0,0,0.1,0,0.1H8.5c-0.7,0-1.2,0.6-1.2,1.2s0.6,1.2,1.2,1.2
	H23c0.7,0,1.2-0.6,1.2-1.2s-0.6-1.2-1.2-1.2h0c0,0,0-0.1,0-0.1v-6.4c0-1.7-1-3.3-2.6-4c-0.1,0-0.1-0.1-0.1-0.2c0,0,0,0,0.1-0.1
	l0.1-0.1c1.5-0.9,2.5-2.6,2.5-4.4V5.5z M21,5.5v6.6c0,1.1-0.6,2.1-1.5,2.7l-0.1,0.1c-1,0.6-1.3,1.9-0.7,2.9c0.2,0.4,0.6,0.7,1,0.9
	c0.9,0.4,1.4,1.2,1.4,2.2v6.4c0,0,0,0.1,0,0.1H11c0,0,0-0.1,0-0.1v-6.4c0-0.9,0.6-1.8,1.4-2.2c1.1-0.5,1.6-1.7,1.1-2.8
	c-0.2-0.4-0.5-0.7-0.9-1l-0.1-0.1c-0.9-0.6-1.5-1.6-1.5-2.7V5.5H21z M19.6,25.7l-1.8-3.4c-0.5-1-1.7-1.3-2.7-0.8
	c-0.3,0.2-0.6,0.5-0.8,0.8l-1.8,3.4c-0.1,0.2,0,0.5,0.2,0.7c0.1,0,0.2,0.1,0.2,0.1h6.3c0.3,0,0.5-0.2,0.5-0.5
	C19.7,25.8,19.6,25.7,19.6,25.7z M18.6,13.8c0.2-0.2,0.1-0.5-0.1-0.7C18.4,13,18.3,13,18.2,13h-4.5c-0.3,0-0.5,0.2-0.5,0.5
	c0,0.1,0,0.2,0.1,0.3l1.1,1.6c0.6,0.9,1.8,1.1,2.6,0.5c0.2-0.1,0.4-0.3,0.5-0.5L18.6,13.8z"/>
</svg>
