<svg xmlns="http://www.w3.org/2000/svg" width="28" height="28" viewBox="0 0 28 28">
    <g fill="none" fill-rule="evenodd">
        <path fill="#FFBE18" d="M14 0C6.268 0 0 6.269 0 14c0 7.733 6.268 14 14 14s14-6.267 14-14c0-7.731-6.268-14-14-14z"/>
        <path fill="#FFF" fill-rule="nonzero" d="M18.179 13.406c.856-.436 1.392-1.204 1.267-2.482-.169-1.747-1.679-2.333-3.585-2.5V6h-1.478v2.36c-.389 0-.785.008-1.18.016V6h-1.475v2.423c-.32.007-.634.013-.94.013v-.007L8.75 8.428v1.575s1.091-.02 1.073 0c.598 0 .793.347.85.647v6.64c-.026.187-.137.488-.555.488.019.017-1.075 0-1.075 0L8.75 19.54h1.922c.358 0 .71.006 1.055.008L11.728 22h1.476v-2.425c.405.008.797.011 1.18.01V22h1.476v-2.447c2.483-.143 4.221-.767 4.438-3.097.174-1.875-.71-2.712-2.12-3.05zm-4.94-3.296c.833 0 3.453-.265 3.453 1.473 0 1.667-2.619 1.472-3.453 1.472V10.11zm0 7.68v-3.248c1.001 0 4.14-.287 4.14 1.624 0 1.832-3.139 1.623-4.14 1.624z"/>
    </g>
</svg>
