<svg viewBox="0 0 32 32" fill="none" xmlns="http://www.w3.org/2000/svg">
<rect width="32" height="32" rx="16" fill="#AAF1E7"/>
<path fill-rule="evenodd" clip-rule="evenodd" d="M9 8C8.44772 8 8 8.44772 8 9V10C8 10.5523 8.44772 11 9 11C9.55228 11 10 10.5523 10 10H11V14C10.4477 14 10 14.4477 10 15C10 15.5523 10.4477 16 11 16H12H13C13.5523 16 14 15.5523 14 15C14 14.4477 13.5523 14 13 14V10H14C14 10.5523 14.4477 11 15 11C15.5523 11 16 10.5523 16 10V9C16 8.44772 15.5523 8 15 8H9ZM17 11C17 10.4477 17.4477 10 18 10H23C23.5523 10 24 10.4477 24 11C24 11.5523 23.5523 12 23 12H18C17.4477 12 17 11.5523 17 11ZM17 15C17 14.4477 17.4477 14 18 14H23C23.5523 14 24 14.4477 24 15C24 15.5523 23.5523 16 23 16H18C17.4477 16 17 15.5523 17 15ZM9 19C9 18.4477 9.44772 18 10 18H23C23.5523 18 24 18.4477 24 19C24 19.5523 23.5523 20 23 20H10C9.44772 20 9 19.5523 9 19ZM10 22C9.44772 22 9 22.4477 9 23C9 23.5523 9.44772 24 10 24H23C23.5523 24 24 23.5523 24 23C24 22.4477 23.5523 22 23 22H10Z" fill="#28646E"/>
</svg>
