<svg xmlns="http://www.w3.org/2000/svg" xmlns:xlink="http://www.w3.org/1999/xlink" width="42" height="36" viewBox="0 0 42 36">
    <defs>
        <path id="a" d="M0 .341h41.367V35.25H0z"/>
    </defs>
    <g fill="none" fill-rule="evenodd">
        <g transform="translate(0 .41)">
            <mask id="b" fill="#fff">
                <use xlink:href="#a"/>
            </mask>
            <path fill="#28646E" d="M29.203 29.688c.266 0 .527.11.716.313 3.21 3.468 4.84 3.499 7.722 3.16-1.475-1.325-2.65-3.111-3.1-4.852-.363-1.408-.196-2.632.484-3.538 1.741-2.322 2.662-4.998 2.662-7.739 0-8.128-8.016-14.741-17.869-14.741C9.966 2.29 1.95 8.904 1.95 17.032c0 8.129 8.016 14.742 17.868 14.742 3.153 0 6.252-.688 8.964-1.99a.977.977 0 0 1 .421-.096m6.576 5.562c-2.102 0-4.096-.648-6.802-3.41-2.813 1.235-5.964 1.883-9.159 1.883C8.891 33.723 0 26.236 0 17.033 0 7.828 8.89.34 19.818.34s19.818 7.488 19.818 16.691c0 3.167-1.055 6.247-3.05 8.909-.395.525-.303 1.313-.157 1.881.519 2.008 2.435 4.26 4.363 5.127a.974.974 0 0 1-.32 1.862c-.74.06-1.41.142-2.034.218-.94.115-1.81.221-2.659.221" mask="url(#b)"/>
        </g>
        <path fill="#28646E" d="M18.709 12.617a.527.527 0 1 0 .699.793c1.616-1.425 2.354-2.64 2.486-2.87.104-.182.393-.596.825-.539a.528.528 0 1 0 .143-1.047c-.74-.1-1.446.295-1.884 1.06-.117.203-.777 1.288-2.269 2.603M9.759 22.307a.526.526 0 0 0 .744.067c.468-.39 1.467-1.029 1.74-1.165a.53.53 0 0 0-.472-.946c-.363.181-1.422.864-1.945 1.3a.527.527 0 0 0-.067.744"/>
        <path fill="#28646E" d="M14.75 11.449c-.3.826-.93 2.183-1.463 4.37-.374 1.536-.437 3.33-.093 5.389a.53.53 0 0 1-.069.36c-.41.675-1.011 1.564-1.346 2.338a.666.666 0 0 0 .275.848.649.649 0 0 0 .901-.293c.199-.42.61-1.21.77-1.538.28-.57.465-.948.54-1.186.069-.216.11-.467-.015-1.037-.211-.96-.284-2.763.107-4.352.519-2.11 1.4-4.466 1.557-4.855.157-.39.38-.511.604-.491.224.02.65.129.528.92-.219 1.425-.528 3.232-.63 3.842-.05.298-.107.996.444 1.315.43.25.903.11 1.426-.238 1.176-.785 3.204-2.383 4.478-3.814 1.336-1.5 1.762-2.395 2.106-3.203.157-.37.56-.366.7-.326.143.04.317.233.194.64-.296.988-1.517 3.248-3.867 5.368-.267.24-.23.525-.093.673.127.14.375.238.648.005 2.113-1.802 3.32-3.956 3.861-5.108.27-.575.373-.917.464-1.182.115-.335.373-.454.552-.416.257.054.427.318.345.752-.07.377-.287.993-.575 1.605-.678 1.438-2.108 3.362-3.651 5.014-.165.177-.204.445 0 .635.21.197.454.113.678-.101 1.53-1.463 3.152-3.749 3.69-4.938.116-.254.35-.396.6-.295.295.119.29.625.024 1.175-.705 1.457-1.689 3.06-3.626 5.065-.187.194-.159.447.008.598.171.154.45.144.71-.12 1.005-1.027 1.682-1.824 2.264-2.644.15-.216.33-.3.509-.264.254.051.294.295.216.59-.126.475-1.463 2.228-1.992 2.817-1.435 1.602-2.871 2.48-5.635 3.915-.964.501-1.685.982-2.123 1.72-.398.671-.516.891-.558.976-.156.326-.032.738.295.894a.65.65 0 0 0 .882-.338c.004-.009-.02.01.5-.868a3.766 3.766 0 0 1 1.627-1.436c2.764-1.259 3.896-2.256 5.5-3.86.732-.732 1.744-2.3 2.019-2.764.772-1.3.367-2.415-.33-2.604a.089.089 0 0 1-.056-.132c.54-.925.786-1.563.887-2.06.138-.673-.053-1.49-.977-1.689a.088.088 0 0 1-.065-.11c.058-.213.116-.482.155-.66.194-.873-.359-1.666-1.023-1.808-.468-.1-.882.007-1.246.26a.123.123 0 0 1-.16-.02.961.961 0 0 0-.69-.321c-.58-.01-1.149.167-1.565 1.056-.298.637-.742 1.49-2.042 2.934-1.206 1.338-2.886 2.641-3.922 3.322-.182.12-.437.092-.407-.153.048-.388.465-2.992.535-3.759.116-1.246-.555-1.816-1.307-1.917-.619-.083-1.558.095-2.072 1.504M12.99 7.9c-.086-.153-.194-.175-.31-.13-.153.059-.342.199-.631.452-.29.255-.453.423-.531.567-.06.11-.052.22.088.324.281.209 1.703 1.049 2.048 1.21.07.032.157.075.24.003v-.001c.082-.072.05-.165.028-.237-.114-.364-.762-1.883-.933-2.188M11.116 12.644c.323-.131 1.78-.908 2.097-1.12.064-.043.147-.095.127-.202v-.002c-.018-.108-.114-.129-.189-.147-.37-.091-2.004-.327-2.352-.34-.176-.008-.25.073-.273.196-.03.16-.007.395.059.774.066.38.125.607.208.749.063.107.16.158.323.092M25.615 23.767h-.003c-.108.008-.14.1-.165.172-.13.358-.538 1.959-.59 2.304-.024.174.049.256.168.292.158.046.392.05.776.024.384-.027.617-.061.767-.128.113-.051.174-.143.126-.312-.096-.335-.716-1.867-.892-2.203-.036-.069-.079-.156-.187-.149M28.26 24.956c.135.112.243.093.335.009.122-.11.246-.31.424-.651.178-.342.27-.558.289-.72.016-.124-.032-.224-.2-.271-.337-.091-1.967-.36-2.347-.383-.077-.005-.173-.014-.224.083l-.001.002c-.05.097.013.171.061.23.238.298 1.394 1.478 1.662 1.7"/>
    </g>
</svg>
