<?xml version="1.0" encoding="UTF-8"?>
<svg enable-background="new 0 0 512 512" version="1.1" viewBox="0 0 512 512" xml:space="preserve" xmlns="http://www.w3.org/2000/svg">
<path fill="#28646e" d="m48.6 257.5c0 4.7-3.8 8.5-8.5 8.5s-8.5-3.8-8.5-8.5 3.8-8.5 8.5-8.5 8.5 3.8 8.5 8.5zm331.3 173.8c-4.7 0-8.5 3.8-8.5 8.5s3.8 8.5 8.5 8.5 8.5-3.8 8.5-8.5-3.8-8.5-8.5-8.5zm30.6-339.8c-4.7 0-8.5 3.8-8.5 8.5s3.8 8.5 8.5 8.5 8.5-3.8 8.5-8.5-3.8-8.5-8.5-8.5zm-71.7 6.2c4.7 0 8.5-3.8 8.5-8.5s-3.8-8.5-8.5-8.5-8.5 3.8-8.5 8.5c0 4.6 3.8 8.5 8.5 8.5zm-163.7 323c-2.4 0-4.3 1.9-4.3 4.3s1.9 4.3 4.3 4.3 4.3-1.9 4.3-4.3-1.9-4.3-4.3-4.3zm-71.7-260.7c0-2.4-1.9-4.3-4.3-4.3s-4.3 1.9-4.3 4.3 1.9 4.3 4.3 4.3c2.4 0.1 4.3-1.9 4.3-4.3zm337.8 25.2c-2.4 0-4.3 1.9-4.3 4.3s1.9 4.3 4.3 4.3 4.3-1.9 4.3-4.3-1.9-4.3-4.3-4.3zm-30.3 70.1c0 85.8-69.8 155.6-155.6 155.6s-155.6-69.8-155.6-155.6 69.8-155.6 155.6-155.6 155.6 69.8 155.6 155.6zm-195.3-101.3c-4.5 5.7-8.6 12-12.4 18.8l56.4 7.5 7.6-57.3h-0.1c-17.6 0.1-35.7 10.9-51.5 31zm-17.7 29.4c-6.6 14.2-11.7 30-15.1 46.7 4.2 2.3 7.2 6.2 8.3 11l59.4 7.9 7.7-57.6-60.3-8zm-16.8 126.3 50.2 6.7c2.3-4.3 6.5-7.4 11.4-8.4l6.4-47.9-59.2-7.9c-2.2 4.4-6.2 7.8-11.1 8.9-1.2 16.9-0.4 33.4 2.3 48.6zm2.4 11.6c1.9 7.5 4.2 14.7 7 21.4 9.9 23.6 24.6 38.8 41.7 43.4l6.2-46.6c-4.6-2.3-8-6.7-9-12l-45.9-6.2zm111.5 35.3c4.5-5.7 8.6-12 12.4-18.8l-46.2-6.2c-2.2 4.6-6.4 8.1-11.6 9.2l-6.2 46.7c17.7 0.1 35.8-10.7 51.6-30.9zm17.7-29.4c7.9-16.8 13.6-36 16.8-56.4l-69.5-9.2-6.4 48c4.2 2.2 7.4 6.2 8.5 10.9l50.6 6.7zm18.3-67.4c1.8-16.4 1.8-32.4 0.1-47.6-5.8-1.8-10.2-6.6-11.5-12.6l-50.4-6.7-7.7 57.6 69.5 9.3zm-5.5-76.6c-1.5-5.3-3.3-10.4-5.4-15.2-9.9-23.6-24.6-38.8-41.7-43.4l-7.6 57.3 50.4 6.7c1-2.1 2.5-4 4.3-5.4zm-121.9 199c-9.3-8.6-17.2-20.5-23.4-35.2-3.6-8.5-6.4-17.7-8.5-27.3l-22.3-3c-3.1-0.4-5.2-3.2-4.8-6.3s3.2-5.2 6.3-4.8l18.6 2.5c-2.4-15.3-3-31.5-1.9-48.2-4.7-2.3-8.2-6.7-9.3-12l-24.4-3.2c-3.1-0.4-5.2-3.2-4.8-6.3s3.2-5.2 6.3-4.8l24.6 3.4c2.4-4.4 6.7-7.7 11.8-8.6 3.3-16.6 8.2-32.3 14.6-46.5l-24.3-3.2c-3.1-0.4-5.2-3.2-4.8-6.3s3.2-5.2 6.3-4.8l27.9 3.7c4.6-8.8 9.7-16.9 15.4-24.1 9.8-12.6 20.6-21.9 31.8-27.8-67.7 8.2-120.3 66.1-120.3 136-0.1 57.2 35.2 106.3 85.2 126.8zm188.7-126.9c0-57.3-35.3-106.4-85.3-126.9 9.3 8.6 17.2 20.5 23.4 35.2 2.1 5 4 10.3 5.6 15.8h0.1c8.1 0 14.8 5.7 16.4 13.3l7.5 1c3.1 0.4 5.2 3.2 4.8 6.3-0.4 2.8-2.8 4.8-5.5 4.8h-0.7l-7.5-1c-1.8 3.6-4.9 6.4-8.6 7.9 1.7 15.8 1.7 32.5-0.2 49.5l32.3 4.3c3.1 0.4 5.2 3.2 4.8 6.3-0.4 2.8-2.8 4.8-5.5 4.8h-0.7l-32.3-4.3c-3.2 20.2-8.7 39.4-16.4 56.5l23.4 3.1c3.1 0.4 5.2 3.2 4.8 6.3-0.4 2.8-2.8 4.8-5.5 4.8h-0.7l-27.1-3.6c-4.6 8.8-9.7 16.9-15.4 24.1-9.8 12.6-20.6 21.9-31.8 27.8 67.5-8.2 120.1-66.1 120.1-136z"/>
</svg>
