<?xml version="1.0" encoding="UTF-8"?>
<svg width="24px" height="24px" viewBox="0 0 24 24" version="1.1" xmlns="http://www.w3.org/2000/svg" xmlns:xlink="http://www.w3.org/1999/xlink">
    <g id="Post_ico" stroke="none" stroke-width="1" fill="none" fill-rule="evenodd">
        <g id="like_linksocal_setting" transform="translate(-800.000000, -1695.000000)" fill="#6E2828">
            <g id="Group-11" transform="translate(200.000000, 1686.000000)">
                <g id="Group-9-Copy-2">
                    <g id="Group-5-Copy-4" transform="translate(0.000000, 5.000000)">
                        <g id="Group-12" transform="translate(532.000000, 4.000000)">
                            <g id="bin-icon-(temp" transform="translate(68.000000, 0.000000)">
                                <g id="bin" transform="translate(5.000000, 4.500000)">
                                    <path d="M11.1533,12.416 C11.1533,12.999 10.6793,13.473 10.0973,13.473 L3.7033,13.473 C3.1213,13.473 2.6473,12.999 2.6473,12.416 L2.6473,3.639 L11.1533,3.639 L11.1533,12.416 Z M5.0693,1.704 C5.0693,1.536 5.2053,1.4 5.3733,1.4 L8.3813,1.4 C8.5493,1.4 8.6843,1.536 8.6843,1.704 L8.6843,2.238 L5.0693,2.238 L5.0693,1.704 Z M13.1353,2.238 L10.0853,2.238 L10.0853,1.704 C10.0853,0.765 9.3203,0 8.3813,0 L5.3733,0 C4.4333,0 3.6693,0.765 3.6693,1.704 L3.6693,2.238 L0.7003,2.238 C0.3133,2.238 0.0003,2.552 0.0003,2.938 C0.0003,3.325 0.3133,3.639 0.7003,3.639 L1.2473,3.639 L1.2473,12.416 C1.2473,13.77 2.3493,14.873 3.7033,14.873 L10.0973,14.873 C11.4523,14.873 12.5533,13.77 12.5533,12.416 L12.5533,3.639 L13.1353,3.639 C13.5223,3.639 13.8363,3.325 13.8363,2.938 C13.8363,2.552 13.5223,2.238 13.1353,2.238 Z" id="Fill-1"></path>
                                    <path d="M5.2534,5.1289 C4.8664,5.1289 4.5534,5.4419 4.5534,5.8289 L4.5534,11.1619 C4.5534,11.5489 4.8664,11.8619 5.2534,11.8619 C5.6404,11.8619 5.9534,11.5489 5.9534,11.1619 L5.9534,5.8289 C5.9534,5.4419 5.6404,5.1289 5.2534,5.1289" id="Fill-4"></path>
                                    <path d="M8.5479,5.1289 C8.1609,5.1289 7.8479,5.4419 7.8479,5.8289 L7.8479,11.1619 C7.8479,11.5489 8.1609,11.8619 8.5479,11.8619 C8.9349,11.8619 9.2479,11.5489 9.2479,11.1619 L9.2479,5.8289 C9.2479,5.4419 8.9349,5.1289 8.5479,5.1289" id="Fill-6"></path>
                                </g>
                            </g>
                        </g>
                    </g>
                </g>
            </g>
        </g>
    </g>
</svg>
