<svg xmlns="http://www.w3.org/2000/svg" viewBox="0 0 28 28">
<circle cx="14" cy="14" r="14" fill="#5865f2"/>
<path d="M20.09,8.48c-1.14-.52-2.35-.9-3.62-1.11-.16,.27-.34,.65-.46,.94-1.35-.19-2.68-.19-4.01,0-.12-.29-.31-.66-.46-.94-1.27,.21-2.49,.59-3.62,1.11-2.29,3.38-2.91,6.68-2.6,9.93,1.52,1.11,2.99,1.78,4.43,2.22,.35-.48,.67-.99,.95-1.53-.52-.19-1.02-.43-1.49-.72,.12-.09,.25-.19,.36-.28,2.88,1.32,6.01,1.32,8.86,0,.12,.1,.24,.19,.36,.28-.48,.28-.97,.52-1.49,.72,.27,.54,.59,1.05,.95,1.53,1.44-.44,2.92-1.11,4.43-2.22,.38-3.77-.6-7.04-2.58-9.93Zm-8.99,7.93c-.87,0-1.57-.79-1.57-1.75s.69-1.75,1.57-1.75,1.59,.79,1.57,1.75c0,.96-.7,1.75-1.57,1.75Zm5.81,0c-.87,0-1.58-.79-1.58-1.75s.69-1.75,1.58-1.75,1.59,.79,1.57,1.75c0,.96-.69,1.75-1.57,1.75Z" fill="#fff"/>
</svg>
