<svg xmlns="http://www.w3.org/2000/svg" width="24" height="24" viewBox="0 0 24 24">
    <g fill="#9B9B9B" fill-rule="evenodd">
        <path d="M8.743 15.691a.502.502 0 0 1-.354-.854l5.657-5.656a.5.5 0 0 1 .707.707l-5.656 5.657a.502.502 0 0 1-.354.146"/>
        <path d="M18.643 8.762l-.707.707L14.4 5.933l.707-.707a1.004 1.004 0 0 1 1.415 0l2.12 2.121c.39.39.39 1.025 0 1.415zM9.45 17.954l-3.537-3.536 7.779-7.778 3.536 3.536-7.778 7.778zm-3.89-2.475l2.829 2.829-3.301.472.472-3.301zM19.35 6.64l-2.121-2.121a2.004 2.004 0 0 0-2.83 0l-9.545 9.546a.488.488 0 0 0-.127.254c-.003.01-.013.018-.015.029l-.707 4.95a.502.502 0 0 0 .495.57c.024 0 .047-.002.07-.004l4.95-.707a.508.508 0 0 0 .284-.142l9.546-9.546a2.004 2.004 0 0 0 0-2.829z"/>
    </g>
</svg>
