<svg xmlns="http://www.w3.org/2000/svg" width="28" height="28" viewBox="0 0 28 28">
    <g fill="none" fill-rule="evenodd">
        <circle cx="14" cy="14" r="14" fill="#323131" fill-rule="nonzero"/>
        <path fill="#FFF" d="M14 6.354a7.84 7.84 0 0 0-2.478 15.279c.391.072.535-.17.535-.377 0-.187-.007-.805-.01-1.46-2.181.474-2.642-.925-2.642-.925-.356-.906-.87-1.147-.87-1.147-.712-.487.053-.477.053-.477.787.056 1.202.809 1.202.809.7 1.198 1.834.851 2.282.651.07-.507.273-.853.497-1.048-1.74-.199-3.572-.87-3.572-3.875 0-.856.307-1.555.808-2.104-.081-.198-.35-.995.076-2.075 0 0 .659-.21 2.157.804A7.518 7.518 0 0 1 14 10.145c.666.003 1.338.09 1.964.264 1.496-1.015 2.154-.804 2.154-.804.427 1.08.158 1.877.077 2.075.503.549.807 1.248.807 2.104 0 3.011-1.834 3.674-3.58 3.869.281.243.531.72.531 1.451 0 1.05-.008 1.893-.008 2.152 0 .208.14.453.538.376A7.841 7.841 0 0 0 14 6.354z"/>
    </g>
</svg>
