<?xml version="1.0" encoding="utf-8"?>
<svg version="1.1" xmlns="http://www.w3.org/2000/svg" xmlns:xlink="http://www.w3.org/1999/xlink" x="0px" y="0px" viewBox="0 0 24 24" style="enable-background:new 0 0 24 24;" xml:space="preserve">
<path d="M17.3,21.7H6.7c-0.7,0-1.2-0.5-1.2-1.2v-6.8c0-0.7,0.5-1.2,1.2-1.2s1.2,0.5,1.2,1.2v5.6h8.2v-5.5c0-0.7,0.5-1.2,1.2-1.2s1.2,0.5,1.2,1.2v6.7C18.5,21.2,18,21.7,17.3,21.7z M22.3,14c-0.3,0-0.6-0.1-0.8-0.3L12,5.1l-9.5,8.6c-0.5,0.4-1.3,0.4-1.7-0.1c-0.4-0.5-0.4-1.2,0.1-1.7l10.3-9.3c0.5-0.4,1.2-0.4,1.6,0l4.1,3.7V3.7c0-0.7,0.5-1.2,1.2-1.2s1.2,0.5,1.2,1.2v4.7c0,0,0,0,0,0.1l3.8,3.4c0.5,0.4,0.5,1.2,0.1,1.7C23,13.9,22.6,14,22.3,14z"/>
</svg>