<svg xmlns="http://www.w3.org/2000/svg" xmlns:xlink="http://www.w3.org/1999/xlink" width="24" height="24" viewBox="0 0 24 24">
    <g fill-rule="evenodd" transform="translate(3 3)">
        <path d="M13.943 15.277l-.516-.588.88-2.347a.499.499 0 0 0-.286-.64l-1.694-.662c-.14-.055-.346-.557-.424-1.025.14-.612.621-2.027 1.488-2.423.573-.26 1.206-.269 1.82-.277.534-.007 1.08-.022 1.55-.219A7.92 7.92 0 0 1 17.001 9a7.984 7.984 0 0 1-3.058 6.277M1 9c0-.28.015-.558.043-.83.178.457.391.92.673 1.385.605.995 1.706 1.192 2.031 1.23a.64.64 0 0 1 .38.543l.045.772c.03.49.274.935.67 1.225L6.74 14.71l.111.088c.175.141.504.408.931.408.22 0 .463-.07.725-.264.372-.273.46-.6.471-.825.026-.589-.455-1.043-.489-1.064-.097-.12-.035-.424-.006-.47.155-.068.422-.254.473-.762.053-.55-.169-1.329-.748-1.72-.423-.212-1.574-.795-1.888-.988-.475-.288-.73-.495-.757-.59.006-.057.075-.237.604-.716l1.275-1.162c.401-.366.596-.906.52-1.442l-.275-1.916a1.629 1.629 0 0 0-1.11-1.326l-.82-.267a7.955 7.955 0 0 1 4.103-.645c.011.011.016.027.027.038.377.348.21 2.096-.085 3.06-.146.48-.04.997.278 1.35.26.285.63.437 1.048.437.118 0 .24-.012.364-.037 1.12-.22 2.474-1.795 3.107-2.6a8 8 0 0 1 1.858 2.831c-.286.166-.737.181-1.26.188-.683.01-1.456.02-2.22.367-1.556.711-2.052 3.117-2.072 3.22a.496.496 0 0 0-.006.163c.035.263.25 1.588 1.065 1.906l1.234.482-.812 2.165a.502.502 0 0 0 .092.506l.636.724A7.942 7.942 0 0 1 9 17c-4.41 0-8-3.589-8-8m3.548-6.643c.532.166 1.215.39 1.716.553a.634.634 0 0 1 .433.516l.273 1.917a.637.637 0 0 1-.202.562L5.475 7.083c-.343.31-1.055.958-.886 1.648.142.587.787.978 1.275 1.275.328.202 1.735.91 1.837.955.192.13.288.571.261.77-.22.145-.389.401-.472.726-.114.448-.034.902.273 1.28.12.108.224.281.151.4-.136.1-.15.111-.433-.117l-2.05-1.503a.636.636 0 0 1-.26-.477l-.047-.774a1.634 1.634 0 0 0-1.096-1.445.49.49 0 0 0-.137-.027c-.009 0-.899-.065-1.319-.757-.24-.398-.957-1.589-.989-3.02a8.041 8.041 0 0 1 2.965-3.66m6.211 2.08c.007-.023.543-1.872.268-3.167a7.952 7.952 0 0 1 2.812 1.375c-.728.933-1.858 2.136-2.54 2.271-.125.023-.353.047-.477-.092-.083-.092-.108-.24-.063-.387m4.133-2.224c-.02-.023-.037-.05-.063-.069-.007-.005-.016-.006-.024-.01A8.954 8.954 0 0 0 9 0C5.205 0 1.96 2.363.637 5.692a.581.581 0 0 0-.033.091A8.933 8.933 0 0 0 0 9c0 4.963 4.037 9 9 9s9-4.037 9-9a8.972 8.972 0 0 0-3.108-6.787" mask="url(#b)"/>
    </g>
</svg>
