<svg xmlns="http://www.w3.org/2000/svg" xmlns:xlink="http://www.w3.org/1999/xlink" width="96" height="124" viewBox="0 0 96 124">
    <defs>
        <path id="a" d="M47.98.108C21.48.108 0 21.589 0 48.088c0 26.498 21.481 47.978 47.98 47.978 26.497 0 47.978-21.48 47.978-47.979 0-26.498-21.48-47.98-47.979-47.98z"/>
        <linearGradient id="b" x1="0%" y1="50%" y2="50%">
            <stop offset="0%" stop-color="#D1EFEF"/>
            <stop offset="100%" stop-color="#EFE6B3"/>
        </linearGradient>
        <path id="d" d="M.226.136h8.545v11.44H.226z"/>
        <path id="f" d="M.184.21h8.591v13.343H.184z"/>
        <path id="h" d="M.084.256h8.545v11.32H.084z"/>
    </defs>
    <g fill="none" fill-rule="evenodd">
        <g transform="translate(0 .174)">
            <mask id="c" fill="#fff">
                <use xlink:href="#a"/>
            </mask>
            <path fill="url(#b)" d="M47.98.108C21.48.108 0 21.589 0 48.088c0 26.498 21.481 47.978 47.98 47.978 26.497 0 47.978-21.48 47.978-47.979 0-26.498-21.48-47.98-47.979-47.98z" mask="url(#c)"/>
        </g>
        <path fill="#28646E" d="M10.545 121.183H5.957c-.175 0-.276-.1-.276-.276v-9.649c0-.351-.2-.551-.551-.551H3.55c-.35 0-.551.2-.551.551v11.319c0 .702.4 1.103 1.103 1.103h6.443c.35 0 .551-.2.551-.551v-1.394c0-.352-.2-.552-.551-.552M78.067 115.73h-1.774c-.34 0-.536.201-.536.552V123.129c0 .35.195.551.536.551h1.774c.341 0 .536-.2.536-.551V116.282c0-.351-.195-.551-.536-.551M76.356 113.946c.151-.09.126-.246.111-.37-.078-.61-.677-3.211-.86-3.744-.092-.268-.259-.334-.456-.296-.26.05-.6.22-1.133.54-.532.323-.841.544-1.006.751-.125.157-.145.335.05.541.386.41 2.408 2.153 2.912 2.506.102.07.229.165.38.075l.002-.003zM77.923 110.507c.155.083.277-.018.374-.095.582-.454 2.261-2.046 2.777-2.656.184-.216.154-.392.021-.543-.176-.198-.495-.403-1.045-.696-.548-.293-.897-.444-1.159-.48-.199-.028-.362.046-.44.32-.155.541-.616 3.17-.661 3.784-.01.124-.025.28.13.364l.003.002zM18.11 115.73h-1.774c-.34 0-.536.201-.536.552V123.129c0 .35.195.551.536.551h1.774c.341 0 .536-.2.536-.551V116.282c0-.351-.195-.551-.536-.551M16.4 113.946c.15-.09.125-.246.11-.37-.078-.61-.677-3.211-.86-3.744-.092-.268-.259-.334-.456-.296-.26.05-.6.22-1.133.54-.532.323-.841.544-1.006.751-.125.157-.145.335.05.541.386.41 2.408 2.153 2.912 2.506.102.07.229.165.38.075l.002-.003zM17.966 110.507c.156.083.277-.018.374-.095.582-.454 2.261-2.046 2.777-2.656.184-.216.154-.392.021-.543-.176-.198-.495-.403-1.044-.696-.55-.293-.898-.444-1.16-.48-.199-.028-.362.046-.44.32-.154.541-.616 3.17-.661 3.784-.01.124-.025.28.13.364l.003.002zM32.6 123.67h-1.58c-.35 0-.55-.2-.55-.55v-2.333c0-.878-.653-1.806-1.832-1.806-1.178 0-1.83.928-1.83 1.806v2.332c0 .351-.201.552-.552.552h-1.58c-.351 0-.552-.2-.552-.552v-11.627c0-.35.2-.551.552-.551h1.58c.35 0 .552.2.552.551v4.931c0 .2.15.376.4.376.22 0 .528-.2.703-.476l2.126-3.134c.257-.354.477-.527.828-.527h1.836c.401 0 .602.326.376.677l-2.382 3.235c-.126.2-.15.376.15.526a4.097 4.097 0 0 1 2.308 3.687v2.332c0 .351-.201.552-.552.552"/>
        <g transform="translate(36.988 112.268)">
            <mask id="e" fill="#fff">
                <use xlink:href="#d"/>
            </mask>
            <path fill="#28646E" d="M6.231 4.527c0 .166-.095.261-.261.261H3.027c-.166 0-.261-.095-.261-.26V4.1c0-.83.617-1.71 1.732-1.71 1.116 0 1.733.88 1.733 1.71v.427zM4.498.136C1.935.136.226 1.987.226 4.1v3.513c0 2.112 1.71 3.964 4.272 3.964 2.336 0 3.233-1.103 3.689-2.023.08-.162.142-.522-.143-.712L6.93 8.107c-.261-.167-.546-.143-.712.118-.451.76-.977 1.096-1.719 1.096-1.115 0-1.732-.878-1.732-1.708v-.428c0-.166.095-.26.261-.26h4.7c.664 0 1.044-.38 1.044-1.045V4.1c0-2.113-1.71-3.964-4.273-3.964z" mask="url(#e)"/>
        </g>
        <g transform="translate(49.976 110.292)">
            <mask id="g" fill="#fff">
                <use xlink:href="#f"/>
            </mask>
            <path fill="#28646E" d="M4.645 2.564c1.09 0 1.536.72 2.007 1.512.174.273.47.298.743.124l1.165-.768c.298-.198.223-.57.149-.744C8.239 1.474 6.85.21 4.645.21 1.968.21.184 2.143.184 4.35v5.066c0 2.205 1.784 4.138 4.46 4.138 2.206 0 3.594-1.264 4.065-2.478.074-.174.149-.545-.149-.744l-1.165-.768c-.272-.173-.57-.148-.743.124-.471.793-.917 1.512-2.007 1.512-1.165 0-1.81-.917-1.81-1.784V4.349c0-.867.645-1.785 1.81-1.785" mask="url(#g)"/>
        </g>
        <g transform="translate(62.118 112.268)">
            <mask id="i" fill="#fff">
                <use xlink:href="#h"/>
            </mask>
            <path fill="#28646E" d="M6.089 7.613c0 .83-.617 1.709-1.733 1.709-1.115 0-1.732-.879-1.732-1.71V4.22c0-.83.617-1.71 1.732-1.71 1.116 0 1.733.88 1.733 1.71v3.393zM4.356.256C1.793.256.084 2.107.084 4.22v3.393c0 2.112 1.709 3.964 4.272 3.964 2.564 0 4.273-1.852 4.273-3.964V4.22c0-2.113-1.71-3.964-4.273-3.964z" mask="url(#i)"/>
        </g>
        <path fill="#28646E" d="M88.447 112.532c-.877 0-1.53.225-2.181.576-.1.05-.226.076-.351-.1a.505.505 0 0 0-.451-.226h-.978c-.35 0-.551.201-.551.552v9.795c0 .35.2.551.551.551h1.58c.35 0 .551-.2.551-.551v-6.41c0-.878.652-1.806 1.83-1.806s1.83.928 1.83 1.805v6.41c0 .352.2.552.552.552h1.579c.351 0 .551-.2.551-.551v-6.41c0-2.232-1.804-4.187-4.512-4.187M47.98 7.089c-22.703 0-41.173 18.47-41.173 41.172 0 22.703 18.47 41.173 41.172 41.173 22.703 0 41.173-18.47 41.173-41.173 0-22.702-18.47-41.172-41.173-41.172m0 86.153C23.177 93.242 3 73.064 3 48.262c0-24.803 20.178-44.98 44.98-44.98 24.803 0 44.98 20.177 44.98 44.98 0 24.802-20.177 44.98-44.98 44.98"/>
        <path fill="#28646E" d="M45.006 40.045a1.279 1.279 0 0 1-.846-2.24c3.611-3.184 5.209-5.81 5.493-6.303 1.063-1.851 2.77-2.81 4.562-2.565a1.28 1.28 0 0 1-.346 2.535c-1.046-.14-1.745.864-1.998 1.304-.318.555-2.107 3.498-6.02 6.949-.243.214-.545.32-.845.32M23.472 61.726a1.279 1.279 0 0 1-.82-2.262c1.267-1.055 3.83-2.708 4.708-3.146a1.28 1.28 0 0 1 1.144 2.288c-.662.331-3.082 1.88-4.214 2.823-.239.2-.53.297-.818.297"/>
        <path fill="#28646E" d="M55.632 49.59c.509.475 1.1.27 1.64-.247 3.707-3.542 7.634-9.076 8.939-11.955.279-.616.845-.958 1.451-.714.714.287.702 1.513.058 2.846-1.706 3.526-4.088 7.408-8.779 12.263-.45.467-.385 1.082.02 1.448.415.373 1.087.348 1.715-.292 2.437-2.484 4.075-4.415 5.486-6.4.36-.525.797-.726 1.23-.64.615.123.713.714.525 1.427-.305 1.15-3.543 5.396-4.822 6.823-3.477 3.877-6.954 6.002-13.645 9.48-2.335 1.213-4.082 2.376-5.141 4.165-.963 1.624-1.25 2.156-1.35 2.36-.38.79-.077 1.788.714 2.165a1.574 1.574 0 0 0 2.136-.818c.008-.022-.051.024 1.209-2.103.608-1.026 1.921-2.553 3.94-3.474 6.692-3.05 9.433-5.463 13.318-9.348 1.77-1.771 4.22-5.569 4.887-6.691 1.87-3.15.888-5.848-.8-6.306a.217.217 0 0 1-.134-.318c1.307-2.241 1.903-3.787 2.148-4.988.332-1.63-.13-3.608-2.366-4.09a.214.214 0 0 1-.158-.266c.14-.517.28-1.168.375-1.597.47-2.116-.87-4.035-2.476-4.38-1.132-.241-2.137.017-3.017.63a.298.298 0 0 1-.388-.048c-.348-.373-.905-.764-1.671-.778-1.402-.025-2.78.405-3.789 2.558-.721 1.542-1.796 3.609-4.945 7.102-2.92 3.239-6.986 6.396-9.495 8.044-.44.29-1.058.222-.985-.369.118-.939 1.125-7.245 1.296-9.102.279-3.017-1.345-4.395-3.165-4.641-1.499-.203-3.772.23-5.019 3.64-.73 2-2.253 5.286-3.542 10.579-.907 3.723-1.057 8.063-.228 13.05.05.301-.005.61-.164.871-.993 1.635-2.449 3.787-3.26 5.663-.325.752-.053 1.66.667 2.052a1.574 1.574 0 0 0 2.18-.71c.481-1.017 1.476-2.93 1.865-3.723.677-1.383 1.124-2.296 1.307-2.87.167-.526.265-1.133-.037-2.512-.51-2.325-.687-6.69.26-10.538 1.257-5.107 3.39-10.814 3.77-11.756.38-.942.922-1.237 1.463-1.188.541.05 1.574.312 1.28 2.23-.531 3.449-1.28 7.824-1.526 9.3-.12.723-.26 2.411 1.074 3.184 1.042.604 2.187.268 3.452-.577 2.848-1.9 7.757-5.77 10.841-9.233 3.237-3.635 4.268-5.8 5.1-7.757.38-.893 1.354-.886 1.698-.787.345.098.763.565.467 1.55-.717 2.39-3.673 7.863-9.364 12.996-.646.583-.555 1.271-.225 1.63.309.336.908.575 1.57.01 5.117-4.362 8.036-9.577 9.348-12.365.656-1.394.904-2.223 1.123-2.862.28-.812.902-1.1 1.337-1.009.623.131 1.033.771.836 1.82-.17.913-.696 2.406-1.394 3.888-1.64 3.48-5.103 8.139-8.84 12.14-.399.427-.492 1.077 0 1.537M32.503 32.255c.198-.174.12-.398.065-.575-.275-.88-1.846-4.558-2.257-5.296-.206-.37-.469-.423-.75-.315-.37.141-.827.482-1.527 1.096-.701.615-1.098 1.023-1.287 1.372-.143.265-.125.532.216.785.678.504 4.12 2.539 4.957 2.927.169.078.38.184.578.01l.005-.004zM24.991 33.49c-.424-.016-.605.181-.66.477-.07.391-.017.957.144 1.876.161.918.304 1.468.504 1.811.152.26.389.384.782.224.783-.318 4.31-2.201 5.077-2.714.154-.104.354-.23.309-.49v-.005M60.873 64.801c-.263.018-.337.243-.4.417-.316.867-1.304 4.742-1.426 5.578-.06.42.116.621.404.706.381.113.95.12 1.88.057.93-.062 1.493-.145 1.855-.308.275-.123.423-.346.306-.754-.233-.813-1.73-4.52-2.16-5.337-.086-.164-.19-.377-.453-.36l-.006.001zM63.11 63.005c-.122.234.032.414.148.559.576.72 3.374 3.577 4.025 4.116.327.27.59.224.813.022.294-.267.596-.75 1.026-1.577.43-.827.651-1.351.7-1.745.038-.299-.076-.54-.485-.653-.815-.223-4.762-.87-5.682-.928-.185-.012-.42-.033-.542.2l-.003.006zM49.407 84.537a1.428 1.428 0 1 1-2.856 0 1.428 1.428 0 0 1 2.856 0M49.407 11.985a1.428 1.428 0 1 1-2.856 0 1.428 1.428 0 0 1 2.856 0M58.747 82.932a1.427 1.427 0 1 1-2.757.739 1.427 1.427 0 0 1 2.757-.739M39.97 12.852a1.427 1.427 0 1 1-2.758.738 1.427 1.427 0 0 1 2.757-.738M67.353 78.964a1.427 1.427 0 1 1-2.471 1.427 1.427 1.427 0 0 1 2.471-1.427M31.077 16.132a1.427 1.427 0 1 1-2.472 1.427 1.427 1.427 0 0 1 2.472-1.427M74.64 72.903a1.427 1.427 0 1 1-2.017 2.019 1.427 1.427 0 0 1 2.016-2.019M23.337 21.601a1.427 1.427 0 1 1-2.016 2.018 1.427 1.427 0 0 1 2.016-2.018M80.109 65.163a1.427 1.427 0 1 1-1.427 2.473 1.427 1.427 0 0 1 1.427-2.473M17.277 28.887a1.427 1.427 0 1 1-1.427 2.472 1.427 1.427 0 0 1 1.427-2.472M83.389 56.272a1.427 1.427 0 1 1-.739 2.757 1.427 1.427 0 0 1 .739-2.757M13.309 37.494a1.428 1.428 0 1 1-.74 2.758 1.428 1.428 0 0 1 .74-2.758M84.255 46.834a1.427 1.427 0 1 1 0 2.855 1.427 1.427 0 0 1 0-2.855M11.703 46.834a1.427 1.427 0 1 1 0 2.855 1.427 1.427 0 0 1 0-2.855M82.65 37.494a1.427 1.427 0 1 1 .739 2.757 1.427 1.427 0 0 1-.74-2.757M12.57 56.272a1.427 1.427 0 1 1 .739 2.757 1.427 1.427 0 0 1-.74-2.757M78.682 28.887a1.427 1.427 0 1 1 1.427 2.472 1.427 1.427 0 0 1-1.427-2.472M15.85 65.163a1.427 1.427 0 1 1 1.427 2.472 1.427 1.427 0 0 1-1.427-2.472M72.621 21.601a1.427 1.427 0 1 1 2.018 2.017 1.427 1.427 0 0 1-2.018-2.017M21.319 72.903a1.427 1.427 0 1 1 2.018 2.017 1.427 1.427 0 0 1-2.018-2.017M64.881 16.132a1.427 1.427 0 1 1 2.472 1.427 1.427 1.427 0 0 1-2.472-1.427M28.605 78.964a1.427 1.427 0 1 1 2.472 1.427 1.427 1.427 0 0 1-2.472-1.427M55.99 12.852a1.427 1.427 0 1 1 2.757.739 1.427 1.427 0 0 1-2.757-.739M37.212 82.932a1.427 1.427 0 1 1 2.756.738 1.427 1.427 0 0 1-2.756-.738"/>
    </g>
</svg>
