<?xml version="1.0" encoding="UTF-8"?>
<svg width="28px" height="28px" viewBox="0 0 28 28" version="1.1" xmlns="http://www.w3.org/2000/svg" xmlns:xlink="http://www.w3.org/1999/xlink">
    <!-- Generator: Sketch 50.2 (55047) - http://www.bohemiancoding.com/sketch -->
    <title>LikeCoin_Coin_Ticker</title>
    <desc>Created with Sketch.</desc>
    <defs></defs>
    <g id="Page-1" stroke="none" stroke-width="1" fill="none" fill-rule="evenodd">
        <g id="LikeCoin_Coin_Ticker" fill-rule="nonzero">
            <circle id="Oval" fill="#28646E" cx="14" cy="14" r="14"></circle>
            <g id="Group" transform="translate(3.555556, 4.644444)" fill="#FFFFFF">
                <path d="M9.59083772,5.83621741 C9.45038612,5.83621741 9.28987001,5.77631255 9.18954744,5.65650284 C8.9889023,5.4368517 9.00896681,5.09739085 9.22967646,4.89770799 C10.734515,3.57980114 11.4167085,2.48154544 11.5370956,2.28186258 C11.9785149,1.50309944 12.7008374,1.10373373 13.4432244,1.22354344 C13.7441921,1.26348002 13.9448373,1.52306773 13.9047082,1.82259201 C13.8645792,2.1221163 13.6037405,2.32179915 13.3027728,2.28186258 C12.8613535,2.22195772 12.5804503,2.64129172 12.4600632,2.82100629 C12.3196116,3.06062572 11.5772246,4.27869114 9.95199897,5.7164077 C9.8516764,5.79628084 9.7112248,5.83621741 9.59083772,5.83621741 Z" id="Shape"></path>
                <path d="M0.581870908,14.8618825 C0.421354795,14.8618825 0.280903197,14.8019776 0.180580626,14.6621996 C2.11636264e-15,14.4425485 0.0200645141,14.1030876 0.240774169,13.9034048 C0.762451534,13.4641025 1.84593529,12.7851808 2.20709655,12.5854979 C2.46793523,12.4457199 2.78896745,12.5655296 2.92941905,12.8251174 C3.06987065,13.0847051 2.94948357,13.4041976 2.68864488,13.5439756 C2.40774169,13.6837536 1.40451598,14.3227388 0.922967646,14.7221045 C0.822645076,14.8219459 0.702257992,14.8618825 0.581870908,14.8618825 Z" id="Shape"></path>
                <path d="M14.0451598,9.80990624 C14.2658695,10.0095891 14.5066437,9.92971595 14.7273533,9.71006481 C16.2723209,8.23241168 17.917611,5.93605884 18.4593529,4.7379617 C18.57974,4.47837399 18.8205142,4.33859599 19.0612884,4.43843742 C19.3622561,4.55824713 19.3622561,5.07742256 19.0813529,5.61656627 C18.3590304,7.07425112 17.3758692,8.69168225 15.4095468,10.7284474 C15.2289662,10.9281302 15.2490307,11.1877179 15.4095468,11.3274959 C15.5901274,11.4872422 15.8710306,11.4672739 16.1318693,11.2076862 C17.1551595,10.1693354 17.837353,9.37060396 18.4192239,8.55190425 C18.57974,8.33225311 18.7603206,8.25237996 18.9409013,8.29231654 C19.2017399,8.35222139 19.241869,8.59184082 19.1616109,8.8913651 C19.0412238,9.37060396 17.6768369,11.1278131 17.1551595,11.7268617 C15.7105145,13.3442928 14.245805,14.2228973 11.4568375,15.6805822 C10.4736763,16.1797893 9.75135383,16.6789965 9.30993452,17.417823 C8.90864424,18.0967447 8.78825716,18.3163959 8.74812813,18.396269 C8.58761202,18.7157616 8.7079991,19.1350956 9.04909584,19.2948419 C9.14941841,19.3347785 9.22967646,19.3547467 9.32999903,19.3547467 C9.59083772,19.3547467 9.83161189,19.1950005 9.93193446,18.955381 C9.93193446,18.955381 9.91186994,18.9753493 10.4335473,18.0767765 C10.694386,17.6574425 11.2361279,17.0184573 12.0788375,16.6390599 C14.8678049,15.3610896 16.0315467,14.3626753 17.6567724,12.7452442 C18.3991594,12.0064177 19.4224496,10.4289231 19.7033528,9.96965252 C20.4858688,8.65174568 20.0845786,7.53352168 19.3622561,7.35380711 C19.3020625,7.33383883 19.281998,7.27393397 19.3020625,7.21402912 C19.8438044,6.27551969 20.1046431,5.63653456 20.2049657,5.13732742 C20.3454173,4.45840571 20.1447721,3.639706 19.2218045,3.44002314 C19.1816754,3.42005486 19.1415464,3.38011829 19.1616109,3.32021343 C19.2218045,3.10056229 19.281998,2.84097458 19.322127,2.66126001 C19.5227722,1.78265544 18.9609658,0.983924018 18.2787723,0.844146019 C17.797224,0.744304591 17.3758692,0.844146019 17.0147079,1.10373373 C16.9545144,1.1436703 16.8943208,1.12370202 16.8541918,1.08376545 C16.7137402,0.924019161 16.472966,0.764272877 16.1519338,0.764272877 C15.5700629,0.744304591 14.988192,0.924019161 14.5668372,1.82259201 C14.2658695,2.46157715 13.8244502,3.32021343 12.5001923,4.77789828 C11.2762569,6.13574169 9.5707732,7.43368026 8.52741847,8.13257025 C8.34683785,8.25237996 8.08599916,8.23241168 8.10606368,7.97282397 C8.14619271,7.57345826 8.5675475,4.95761285 8.64780556,4.17884971 C8.76819264,2.92084772 8.08599916,2.34176744 7.32354763,2.24192601 C6.70154769,2.16205287 5.73845102,2.34176744 5.21677365,3.75951571 C4.91580594,4.59818371 4.27374149,5.95602712 3.73199961,8.15253854 C3.35077385,9.71006481 3.2905803,11.5072105 3.63167704,13.5839122 C3.65174156,13.7037219 3.63167704,13.8434999 3.5714835,13.9433414 C3.15012871,14.6222631 2.54819328,15.5208359 2.20709655,16.299599 C2.06664495,16.6190916 2.18703203,16.998489 2.48799974,17.1582353 C2.58832231,17.2181402 2.68864488,17.2381085 2.80903197,17.2381085 C3.04980614,17.2381085 3.2905803,17.0983305 3.41096739,16.858711 C3.61161253,16.439377 4.03296732,15.6406456 4.19348344,15.3011848 C4.47438663,14.7221045 4.65496726,14.3427071 4.73522532,14.1030876 C4.79541886,13.8834365 4.8556124,13.6238488 4.7151608,13.0647368 C4.49445115,12.1062591 4.43425761,10.2891451 4.81548337,8.67171396 C5.33716074,6.55507569 6.24006387,4.17884971 6.40057998,3.779484 C6.5610961,3.38011829 6.78180575,3.26030857 7.0025154,3.28027686 C7.22322506,3.30024514 7.66464437,3.40008657 7.54425728,4.19881799 C7.32354763,5.63653456 7.02257992,7.45364854 6.92225735,8.07266539 C6.86206381,8.37218968 6.82193478,9.07107967 7.36367666,9.39057224 C7.80509597,9.65015995 8.2866443,9.51038196 8.80832167,9.15095282 C9.992128,8.35222139 12.0587729,6.75475855 13.3429018,5.31704199 C14.6872243,3.79945228 15.1286436,2.90087943 15.4697403,2.08217972 C15.6302564,1.7027823 16.0315467,1.72275058 16.1719983,1.76268716 C16.3124499,1.80262373 16.4930306,2.00230658 16.3726435,2.40167229 C16.0716758,3.40008657 14.8276759,5.67647113 12.4600632,7.81307768 C12.1992245,8.05269711 12.2192891,8.33225311 12.3597407,8.49199939 C12.4801277,8.63177739 12.7409664,8.73161882 13.0218696,8.49199939 C15.1687726,6.67488541 16.3726435,4.49834228 16.9344499,3.34018172 C17.2153531,2.76110143 17.3156756,2.42164058 17.3959337,2.14208458 C17.5163208,1.80262373 17.7771595,1.68281401 17.9577401,1.72275058 C18.2185788,1.78265544 18.3991594,2.04224315 18.2988368,2.48154544 C18.2185788,2.86094286 17.9978691,3.47995971 17.7169659,4.09897657 C17.0347724,5.55666141 15.5901274,7.49358511 14.0250953,9.15095282 C13.8645792,9.35063567 13.8244502,9.61022338 14.0451598,9.80990624 Z" id="Shape"></path>
                <path d="M4.26427424,2.61129659 C4.34359086,2.53087886 4.32376171,2.45046112 4.2841034,2.37004338 C4.16512846,2.00816357 3.53059547,0.460122133 3.35213307,0.15855562 C3.27281645,-0.00227985381 3.15384151,-0.022384288 3.03486657,0.0178245804 C2.87623333,0.078137883 2.69777092,0.218868923 2.40033359,0.480226567 C2.10289625,0.741584212 1.944263,0.902419686 1.86494638,1.06325516 C1.80545891,1.18388176 1.80545891,1.28440394 1.944263,1.38492611 C2.22187118,1.58597045 3.64957041,2.45046112 3.98666606,2.61129659 C4.10564099,2.65150546 4.18495762,2.69171433 4.26427424,2.61129659 Z" id="Shape"></path>
                <path d="M1.28345665,3.15604938 C1.10388898,3.15604938 1.02408112,3.23447198 1.00412916,3.35210588 C0.984177196,3.50895107 1.00412916,3.74421886 1.06398505,4.1167262 C1.12384094,4.48923353 1.18369683,4.72450132 1.26350469,4.86174087 C1.32336058,4.95976911 1.4231204,5.01858606 1.58273611,4.95976911 C1.90196753,4.82252957 3.37841284,4.05790925 3.69764426,3.84224711 C3.75750015,3.80303581 3.83730801,3.74421886 3.81735604,3.64619061" id="Shape"></path>
                <path d="M16.1954021,16.1150394 C16.0975518,16.1150394 16.0584116,16.21462 16.0388416,16.2942846 C15.9018511,16.652775 15.5104499,18.2659819 15.4517397,18.6045562 C15.4321697,18.7838014 15.4908798,18.8634659 15.6083002,18.9032982 C15.7648607,18.9431304 15.9997014,18.9431304 16.3715326,18.9232143 C16.7433638,18.9032982 16.9782045,18.8634659 17.134765,18.8037175 C17.2521854,18.7439691 17.3108956,18.6643046 17.2521854,18.4850593 C17.1543351,18.1464851 16.5476632,16.6129427 16.3715326,16.2743684 C16.3519626,16.1947039 16.2932524,16.0951232 16.1954021,16.1150394 Z" id="Shape"></path>
                <path d="M17.1306736,15.3649048 C17.0707045,15.4665571 17.1506633,15.5478789 17.1906427,15.6088703 C17.4305193,15.9138272 18.5899227,17.1336548 18.8697787,17.3572898 C19.0097067,17.4792726 19.1096553,17.4589421 19.2096039,17.3572898 C19.3295421,17.2353071 19.4494804,17.0320025 19.6293878,16.6863847 C19.8092953,16.3407669 19.9092438,16.1171318 19.9292336,15.9544881 C19.9492233,15.8325054 19.8892541,15.7308531 19.7293364,15.6698617 C19.3895113,15.5682094 17.7503547,15.3039134 17.3705502,15.283583 C17.2905913,15.283583 17.1906427,15.2632525 17.1306736,15.3649048 Z" id="Shape"></path>
            </g>
        </g>
    </g>
</svg>