<svg xmlns="http://www.w3.org/2000/svg" width="28" height="28" viewBox="0 0 28 28">
    <g fill="none" fill-rule="evenodd">
        <path fill="#28646E" d="M14 0C6.268 0 0 6.267 0 14c0 7.732 6.268 14 14 14s14-6.268 14-14c0-7.733-6.268-14-14-14z"/>
        <g fill="#FFF" fill-rule="nonzero">
            <path d="M25.434 11.924c-.311-.902-1.148-1.05-1.886-1a2.276 2.276 0 0 0-.05-.624 1.144 1.144 0 0 0-.574-.722c-.46-.262-1.05-.262-1.51-.197l.05-.426c.033-.673-.328-1.28-.902-1.542a1.48 1.48 0 0 0-.361-.099c.033-.246.049-.443.049-.59.016-.969-.69-1.543-1.378-1.592a1.338 1.338 0 0 0-1.198.492 1.559 1.559 0 0 0-.623-.295c-.673-.131-1.33.213-1.493.755-.148.475-.755 2.001-1.444 3.494a4.517 4.517 0 0 1-.443.755c-.279.016-.46.016-.558 0a6.633 6.633 0 0 1-.508-.05c.065-.098.147-.196.197-.278.41-.542.886-1.28 1.394-2.642.361-.984-.033-1.64-.492-1.903-.607-.344-1.395-.164-1.87.443-.214.263-.41.558-.624.87a14.141 14.141 0 0 1-1.23 1.624 1.525 1.525 0 0 0-.92-.394c-.77-.05-1.443.394-1.541 1.034-.033.164-.082.46-.164.853-.066.36-.164.787-.263 1.28-.853.787-1.706 1.509-2.264 1.82a.615.615 0 0 0 .295 1.15.736.736 0 0 0 .312-.083c.361-.213.82-.558 1.33-.968-.067.46-.116.919-.165 1.378-.148 1.756.328 3.528.574 4.48.05.196.099.393.131.508-.738.246-1.69.59-1.706.607a.622.622 0 0 0-.377.787c.082.246.328.41.574.41.066 0 .131-.016.213-.032 0 0 .394-.148.87-.312-.066.213-.131.426-.197.656a.604.604 0 0 0 .41.755c.066.016.115.033.18.033a.63.63 0 0 0 .591-.443c.115-.427.246-.788.345-1.116.18-.574.295-.952.328-1.181.033-.214-.033-.427-.164-.968-.23-.886-.673-2.527-.542-4.069.148-1.64.51-3.38.722-4.413.082-.378.132-.657.164-.853.066-.033.214-.082.345-.033.131.049.213.213.213.476 0 1.41.131 3.215.263 4.02.115.672.393 1.066.836 1.197.69.18 1.264-.492 1.46-.706.197-.23.493-.525.82-.87.92-.918 2.052-2.066 2.593-3.264.624-1.378 1.263-2.888 1.477-3.56.049-.017.13-.017.18.016.05.033.05.131.033.18-.033.46-.312 2.855-2.248 5.53a.62.62 0 0 0 .132.853.62.62 0 0 0 .853-.132 14.708 14.708 0 0 0 1.854-3.445c.032-.033.049-.082.065-.131.082-.213.164-.427.246-.607.378-.902.64-1.559.755-2.33 0-.05.016-.148.18-.131.082 0 .263.05.263.36-.016 1.018-.771 4.578-2.395 6.957a.612.612 0 0 0 .164.853c.098.066.23.115.344.115a.63.63 0 0 0 .509-.262c1.197-1.87 1.952-4.217 2.313-5.907.016 0 .05 0 .082.017.082.033.197.164.18.36-.049.985-.787 3.495-2.33 5.973a.605.605 0 0 0 .198.836.592.592 0 0 0 .328.099c.213 0 .41-.099.525-.296a21.878 21.878 0 0 0 1.476-2.887l.017.016c.016.017.197.328-.328 1.51-.788 1.788-1.756 3.806-3.298 5.2-.673.607-1.28 1.001-1.837 1.346-.755.492-1.411.918-1.707 1.64-.393.985-.607 1.887-.623 1.936a.617.617 0 0 0 .607.755.612.612 0 0 0 .59-.476c0-.016.214-.87.575-1.755.147-.361.59-.656 1.23-1.05.558-.361 1.247-.804 1.985-1.477.345-.312.673-.656.968-1a49.954 49.954 0 0 1 1.33-.099c1.18-.033 2.657-.525 2.477-1.936-.033-.262-.115-.46-.263-.623.23-.033.46-.05.64-.066 1.657-.148 2.116-1.608 1.329-2.445a1.239 1.239 0 0 0-.23-.18c1.001-.295 1.838-1.165 1.542-1.969zm-13.682.525c-.345.361-.657.673-.886.935-.05.066-.099.115-.132.148v-.033c-.114-.656-.23-2.346-.246-3.806v-.098c.804-.804 1.313-1.543 1.723-2.15.197-.295.377-.558.558-.787.131-.164.279-.164.311-.148.017 0 .066.131-.049.41-.46 1.214-.87 1.854-1.23 2.33-.296.377-.722.968-.443 1.559.23.475.77.64 1.312.705-.311.312-.623.64-.918.935zm10.565-1.82c.131.163.099.491-.541.655-.18.05-.476.132-.82.214l-.099-.05c.098-.295.197-.59.263-.853.557-.147 1-.213 1.197.033zm-2.723 7.48c-.033 0-.099 0-.164.017.246-.378.475-.755.689-1.149.59-.032 1.033.05 1.066.443.033.673-1.066.64-1.591.69zm3.691-2.838c-.213.213-.689.279-1.017.328-.41.066-.935.115-1.526.148a50.1 50.1 0 0 0 .46-1 53.051 53.051 0 0 1 1.509-.214c.509-.066.787.525.574.738zm.46-2.379c-.542.131-1.297.312-2.084.476a2.58 2.58 0 0 0 .016-.935c.148-.033.28-.066.378-.099h.065c1.067-.295 1.838-.41 2.084-.164.23.246 0 .607-.46.722zM19.266 21.702l1.099 2.166c.082.164-.017.345-.197.377l-1.395.197a.268.268 0 0 1-.295-.295l.377-2.379a.216.216 0 0 1 .41-.066zM20.693 20.62l2.412.311c.18.017.279.214.197.378l-.624 1.263c-.082.148-.279.197-.41.066l-1.74-1.658c-.18-.147-.048-.393.165-.36zM8.585 6.773l-1.1-2.166c-.081-.164.017-.344.198-.377l1.394-.197c.18-.017.328.131.296.312l-.378 2.378c-.032.197-.311.247-.41.05zM7.158 7.855l-2.412-.311c-.18-.017-.279-.214-.197-.378l.624-1.263c.082-.148.279-.197.41-.066l1.739 1.658c.164.13.05.393-.164.36z"/>
        </g>
    </g>
</svg>
