<?xml version="1.0" encoding="UTF-8"?>
<svg enable-background="new 0 0 90 17.8" version="1.1" viewBox="0 0 90 17.8" xml:space="preserve" xmlns="http://www.w3.org/2000/svg">
<g fill="#28646E">
<path d="M7.5,15.2H3c-0.2,0-0.3-0.1-0.3-0.3V5.2c0-0.4-0.2-0.6-0.6-0.6H0.6C0.2,4.7,0,4.9,0,5.2v11.3   c0,0.7,0.4,1.1,1.1,1.1h6.4c0.4,0,0.6-0.2,0.6-0.6v-1.4C8.1,15.4,7.9,15.2,7.5,15.2"/>
<path d="m75.1 9.7h-1.8c-0.3 0-0.5 0.2-0.5 0.6v6.8c0 0.3 0.2 0.6 0.5 0.6h1.8c0.3 0 0.5-0.2 0.5-0.6v-6.8c0-0.4-0.2-0.6-0.5-0.6"/>
<path d="m73.4 7.9c0.2-0.1 0.1-0.2 0.1-0.4-0.1-0.6-0.7-3.2-0.9-3.7-0.1-0.3-0.3-0.3-0.5-0.3-0.2 0.1-0.5 0.2-1.1 0.5-0.5 0.3-0.8 0.5-1 0.8-0.1 0.2-0.1 0.3 0.1 0.5 0.4 0.4 2.4 2.2 2.9 2.5 0.1 0.1 0.2 0.2 0.4 0.1z"/>
<path d="m74.9 4.5c0.2 0.1 0.3 0 0.4-0.1 0.6-0.5 2.3-2 2.8-2.7 0.2-0.2 0.2-0.4 0-0.5-0.2-0.2-0.5-0.4-1-0.7-0.6-0.3-0.9-0.5-1.2-0.5-0.2 0-0.4 0-0.4 0.3-0.2 0.5-0.6 3.2-0.7 3.8 0 0.1 0 0.3 0.1 0.4z"/>
<path d="m15.1 9.7h-1.8c-0.3 0-0.5 0.2-0.5 0.6v6.8c0 0.3 0.2 0.6 0.5 0.6h1.8c0.3 0 0.5-0.2 0.5-0.6v-6.8c0-0.4-0.1-0.6-0.5-0.6"/>
<path d="m13.4 7.9c0.1-0.1 0.1-0.2 0.1-0.4-0.1-0.6-0.7-3.2-0.9-3.7-0.1-0.3-0.3-0.3-0.5-0.3-0.3 0.1-0.6 0.2-1.1 0.5s-0.8 0.5-1 0.8c-0.1 0.2-0.1 0.3 0.1 0.5 0.4 0.4 2.4 2.2 2.9 2.5 0.1 0.1 0.2 0.2 0.4 0.1z"/>
<path d="m15 4.5c0.2 0.1 0.3 0 0.4-0.1 0.6-0.5 2.3-2 2.8-2.7 0.2-0.2 0.2-0.4 0-0.5-0.2-0.2-0.5-0.4-1-0.7-0.7-0.3-1-0.5-1.3-0.5-0.2 0-0.4 0-0.4 0.3-0.2 0.5-0.6 3.2-0.7 3.8 0 0.1 0 0.3 0.2 0.4z"/>
<path d="m29.6 17.6h-1.6c-0.4 0-0.5-0.2-0.5-0.6v-2.3c0-0.9-0.7-1.8-1.8-1.8-1.2 0-1.8 0.9-1.8 1.8v2.3c0 0.4-0.2 0.6-0.6 0.6h-1.6c-0.4 0-0.6-0.2-0.6-0.6v-11.5c0-0.3 0.2-0.6 0.6-0.6h1.6c0.4 0 0.6 0.2 0.6 0.6v4.9c0 0.2 0.1 0.4 0.4 0.4 0.2 0 0.5-0.2 0.7-0.5l2-3.1c0.3-0.4 0.5-0.5 0.8-0.5h1.8c0.4 0 0.6 0.3 0.4 0.7l-2.4 3.2c-0.1 0.2-0.1 0.4 0.1 0.5 1.4 0.7 2.3 2.1 2.3 3.7v2.3c0.2 0.3 0 0.5-0.4 0.5"/>
<path class="st3" d="m40.2 10.8c0 0.2-0.1 0.3-0.3 0.3h-2.9c-0.2 0-0.3-0.1-0.3-0.3v-0.4c0-0.8 0.6-1.7 1.7-1.7s1.7 0.9 1.7 1.7v0.4zm-1.7-4.4c-2.6 0-4.3 1.9-4.3 4v3.5c0 2.1 1.7 4 4.3 4 2.3 0 3.2-1.1 3.7-2 0.1-0.2 0.1-0.5-0.1-0.7l-1.1-0.7c-0.3-0.2-0.5-0.1-0.7 0.1-0.5 0.8-1 1.1-1.7 1.1-1.1 0-1.7-0.9-1.7-1.7v-0.4c0-0.2 0.1-0.3 0.3-0.3h4.7c0.7 0 1-0.4 1-1v-1.8c-0.1-2.3-1.8-4.1-4.4-4.1z"/>
<path class="st5" d="m51.6 6.8c1.1 0 1.5 0.7 2 1.5 0.2 0.3 0.5 0.3 0.7 0.1l1.2-0.8c0.3-0.2 0.2-0.6 0.1-0.7-0.5-1.2-1.9-2.5-4.1-2.5-2.7 0-4.5 1.9-4.5 4.1v5.1c0 2.2 1.8 4.1 4.5 4.1 2.2 0 3.6-1.3 4.1-2.5 0.1-0.2 0.1-0.5-0.1-0.7l-1.2-0.8c-0.3-0.2-0.6-0.1-0.7 0.1-0.5 0.8-0.9 1.5-2 1.5-1.2 0-1.8-0.9-1.8-1.8v-4.9c0-0.9 0.7-1.8 1.8-1.8"/>
<path class="st7" d="m65.2 13.8c0 0.8-0.6 1.7-1.7 1.7s-1.7-0.9-1.7-1.7v-3.4c0-0.8 0.6-1.7 1.7-1.7s1.7 0.9 1.7 1.7v3.4zm-1.7-7.3c-2.6 0-4.3 1.9-4.3 4v3.4c0 2.1 1.7 4 4.3 4s4.3-1.9 4.3-4v-3.4c-0.1-2.2-1.8-4-4.3-4z"/>
<path d="m85.4 6.5c-0.9 0-1.5 0.2-2.2 0.6 0 0-0.2 0.1-0.3-0.1s-0.3-0.2-0.5-0.2h-1c-0.3 0-0.6 0.2-0.6 0.6v9.8c0 0.3 0.2 0.6 0.6 0.6h1.6c0.3 0 0.6-0.2 0.6-0.6v-6.4c0-0.9 0.7-1.8 1.8-1.8s1.8 0.9 1.8 1.8v6.4c0 0.4 0.2 0.6 0.6 0.6h1.6c0.4 0 0.6-0.2 0.6-0.6v-6.4c0-2.3-1.8-4.3-4.6-4.3"/>
</g>
</svg>
