<svg xmlns="http://www.w3.org/2000/svg" width="28" height="28" viewBox="0 0 28 28">
    <g fill="none" fill-rule="nonzero">
        <circle cx="14" cy="14" r="14" fill="#2A666C"/>
        <g fill="#FFF">
            <path d="M6.36 11.32h3.253v10.454H6.36V11.32zm1.627-5.197a1.884 1.884 0 1 1-.002 3.769 1.884 1.884 0 0 1 .002-3.77zM11.651 11.32h3.115v1.429h.044c.434-.822 1.494-1.689 3.075-1.689 3.29 0 3.897 2.165 3.897 4.98v5.734h-3.248V16.69c0-1.212-.021-2.772-1.689-2.772-1.69 0-1.949 1.321-1.949 2.685v5.171h-3.245V11.32z"/>
        </g>
    </g>
</svg>
