<svg xmlns="http://www.w3.org/2000/svg" width="26" height="26" viewBox="0 0 26 26">
    <g fill="#28646E" fill-rule="evenodd" stroke="#28646E" stroke-width=".6">
        <path d="M13.75 10.027a1.827 1.827 0 0 1 0-2.582l4.695-4.694a1.828 1.828 0 0 1 2.583 0l2.222 2.222c.712.712.712 1.871 0 2.583l-4.694 4.694a1.827 1.827 0 0 1-2.582 0l-.139-.139-.86.86.137.14a3.048 3.048 0 0 0 4.304 0l4.694-4.695a3.047 3.047 0 0 0 0-4.303l-2.222-2.224a3.048 3.048 0 0 0-4.304 0L12.89 6.584a3.046 3.046 0 0 0 0 4.303l.144.145.86-.862-.144-.143zM12.249 15.973c.712.712.712 1.87 0 2.583L7.556 23.25a1.83 1.83 0 0 1-2.583 0L2.75 21.027a1.829 1.829 0 0 1 0-2.583l4.695-4.693a1.827 1.827 0 0 1 2.581 0l.144.143.86-.86-.143-.144a3.045 3.045 0 0 0-4.303 0L1.89 17.583a3.047 3.047 0 0 0 0 4.304l2.222 2.224a3.048 3.048 0 0 0 4.304 0l4.693-4.695a3.044 3.044 0 0 0 0-4.303l-.137-.138-.86.86.137.138z"/>
        <path d="M8.18 17.82a.623.623 0 0 1 0-.878l8.762-8.761c.241-.241.636-.241.877 0 .241.242.241.636 0 .877l-8.76 8.761a.624.624 0 0 1-.878 0"/>
    </g>
</svg>
