<svg xmlns="http://www.w3.org/2000/svg" width="28" height="28" viewBox="0 0 28 28">
    <path fill="#231F20" fill-rule="nonzero" d="M14 0C6.268 0 0 6.267 0 14c0 7.732 6.268 14 14 14s14-6.268 14-14c0-7.733-6.268-14-14-14zm7.942 9.279h-.638c-.237 0-.571.342-.571.56v7.926c0 .22.334.518.571.518h.638v1.881h-5.779v-1.881h1.21V9.95h-.06L14.49 20.164h-2.186L9.515 9.951h-.07v8.332h1.209v1.881H5.816v-1.881h.62c.255 0 .59-.299.59-.518V9.84c0-.218-.335-.56-.59-.56h-.62V7.398h6.05l1.986 7.39h.054l2.005-7.39h6.031v1.88z"/>
</svg>
