<?xml version="1.0" encoding="UTF-8"?>
<svg width="24px" height="24px" viewBox="0 0 24 24" version="1.1" xmlns="http://www.w3.org/2000/svg" xmlns:xlink="http://www.w3.org/1999/xlink">
    <!-- Generator: sketchtool 51.2 (57519) - http://www.bohemiancoding.com/sketch -->
    <title>D3DD8AA9-B582-4825-B4B8-F729DEEB2255</title>
    <desc>Created with sketchtool.</desc>
    <defs></defs>
    <g id="Post_ico" stroke="none" stroke-width="1" fill="none" fill-rule="evenodd">
        <g id="like_linksocal_setting" transform="translate(-860.000000, -1037.000000)" fill="#4A4A4A">
            <g id="Group-9" transform="translate(288.000000, 1028.000000)">
                <g id="Group-5-Copy-4" transform="translate(0.000000, 7.000000)">
                    <g id="pen-icon" transform="translate(572.000000, 2.000000)">
                        <g transform="translate(4.000000, 3.000000)">
                            <path d="M4.7434,12.6912 C4.6154,12.6912 4.4874,12.6422 4.3894,12.5452 C4.1944,12.3492 4.1944,12.0332 4.3894,11.8372 L10.0464,6.1812 C10.2414,5.9862 10.5574,5.9862 10.7534,6.1812 C10.9484,6.3772 10.9484,6.6932 10.7534,6.8882 L5.0974,12.5452 C4.9994,12.6422 4.8714,12.6912 4.7434,12.6912" id="Fill-1"></path>
                            <g id="Group-5" transform="translate(0.000000, 0.934400)">
                                <path d="M14.642895,4.82762506 L13.935895,5.53462506 L10.399895,1.99862506 L11.106895,1.29162506 C11.496895,0.90362506 12.130895,0.90162506 12.521895,1.29162506 L14.642895,3.41262506 C15.032895,3.80262506 15.032895,4.43762506 14.642895,4.82762506 L14.642895,4.82762506 Z M5.45089502,14.0196251 L1.91389502,10.4836251 L9.69289502,2.70562506 L13.228895,6.24162506 L5.45089502,14.0196251 Z M1.56089502,11.5446251 L4.38989502,14.3736251 L1.08889502,14.8456251 L1.56089502,11.5446251 Z M15.349895,2.70562506 L13.228895,0.58462506 C12.446895,-0.19537494 11.177895,-0.19437494 10.399895,0.58462506 L0.853895018,10.1306251 C0.781895018,10.2026251 0.745895018,10.2926251 0.726895018,10.3846251 C0.723895018,10.3946251 0.713895018,10.4026251 0.711895018,10.4136251 L0.00489501791,15.3636251 C-0.0171049821,15.5186251 0.0358950179,15.6766251 0.146895018,15.7876251 C0.241895018,15.8826251 0.368895018,15.9336251 0.499895018,15.9336251 C0.523895018,15.9336251 0.546895018,15.9316251 0.570895018,15.9296251 L5.52089502,15.2226251 C5.62789502,15.2066251 5.72789502,15.1566251 5.80389502,15.0806251 L15.349895,5.53462506 C16.128895,4.75462506 16.128895,3.48562506 15.349895,2.70562506 L15.349895,2.70562506 Z" id="Fill-3"></path>
                            </g>
                        </g>
                    </g>
                </g>
            </g>
        </g>
    </g>
</svg>
