<?xml version="1.0" encoding="UTF-8"?>
<svg enable-background="new 0 0 16 16" version="1.1" viewBox="0 0 16 16" xml:space="preserve" xmlns="http://www.w3.org/2000/svg">
<path d="m7.4 0h1.3 0.1c0.7 0.1 1.2 0.6 1.4 1.3 0.1 0.3 0.2 0.5 0.5 0.6 0.1 0.1 0.2 0.1 0.3 0 0.7-0.5 1.6-0.4 2.3 0.1l0.7 0.7c0.5 0.6 0.7 1.4 0.3 2.1-0.2 0.3-0.2 0.5-0.1 0.8 0.1 0.1 0.1 0.2 0.3 0.2 0.5 0.1 0.8 0.3 1.1 0.6 0.2 0.3 0.3 0.6 0.4 1v1.3 0.1c-0.2 0.7-0.6 1.2-1.3 1.4-0.3 0.1-0.5 0.2-0.6 0.5-0.1 0.2 0 0.3 0.1 0.4 0.5 0.7 0.4 1.6-0.1 2.3l-0.7 0.7c-0.6 0.5-1.4 0.7-2.1 0.2-0.3-0.2-0.5-0.2-0.8 0-0.1 0.1-0.2 0.1-0.2 0.3-0.1 0.6-0.4 1.1-1 1.4-0.3-0.1-0.5-0.1-0.7 0h-1.2-0.1c-0.7-0.1-1.3-0.6-1.4-1.3-0.1-0.3-0.2-0.5-0.5-0.6-0.2-0.1-0.3-0.1-0.4 0-0.7 0.5-1.6 0.4-2.3-0.1l-0.7-0.7c-0.5-0.6-0.7-1.4-0.3-2.1 0.2-0.3 0.2-0.5 0.1-0.8-0.1-0.1-0.1-0.2-0.3-0.2-0.8-0.1-1.3-0.6-1.5-1.4v-0.2-1.3-0.1c0.2-0.7 0.6-1.2 1.3-1.3 0.3-0.1 0.5-0.2 0.6-0.5 0.1-0.2 0.1-0.3 0-0.4-0.6-0.7-0.5-1.7 0.1-2.3l0.7-0.7c0.6-0.5 1.4-0.7 2.1-0.3 0.3 0.2 0.5 0.3 0.8 0.1 0.1-0.1 0.2-0.1 0.2-0.3 0.1-0.7 0.5-1.2 1.2-1.4 0.1 0 0.2-0.1 0.4-0.1zm7.6 8v-0.4c0-0.4-0.3-0.8-0.7-0.9-0.2 0-0.5-0.1-0.7-0.2-0.1 0-0.1-0.1-0.1-0.1-0.2-0.4-0.4-0.7-0.5-1.1v-0.2c0.1-0.2 0.2-0.4 0.4-0.6 0.2-0.3 0.2-0.8 0-1.1l-0.9-0.9c-0.2-0.2-0.4-0.2-0.6-0.1-0.1 0.1-0.2 0.1-0.3 0.2-0.2 0.1-0.4 0.3-0.7 0.4h-0.2c-0.4-0.1-0.7-0.3-1.1-0.4-0.1 0-0.1-0.1-0.1-0.1-0.1-0.3-0.1-0.5-0.2-0.7-0.1-0.5-0.4-0.8-0.9-0.8h-0.8c-0.5 0-0.8 0.3-0.9 0.8 0 0.2-0.1 0.4-0.2 0.6l-0.1 0.1c-0.4 0.1-0.8 0.3-1.2 0.4h-0.1c-0.2 0-0.4-0.1-0.6-0.3-0.3-0.2-0.8-0.2-1.1 0.1l-0.7 0.7c-0.3 0.3-0.3 0.7 0 1.1l0.3 0.6v0.1c-0.1 0.5-0.3 0.8-0.5 1.2l-0.1 0.1c-0.2 0.1-0.4 0.2-0.6 0.2-0.5 0.1-0.8 0.4-0.8 0.9v0.9c0 0.5 0.3 0.8 0.8 0.9 0.2 0 0.4 0.1 0.7 0.2l0.1 0.1c0.1 0.3 0.2 0.6 0.4 1v0.2c-0.1 0.2-0.2 0.4-0.4 0.6-0.2 0.3-0.2 0.8 0.1 1.1l0.7 0.7c0.3 0.3 0.7 0.3 1.1 0.1 0.2-0.1 0.4-0.2 0.6-0.4h0.1c0.4 0.1 0.7 0.3 1.1 0.5l0.1 0.1c0.1 0.2 0.2 0.5 0.2 0.7 0.2 0.4 0.5 0.7 1 0.7h0.9c0.5 0 0.8-0.3 0.9-0.8 0-0.2 0.1-0.4 0.2-0.7l0.1-0.1c0.4-0.2 0.7-0.3 1.1-0.5h0.1c0.2 0.1 0.4 0.2 0.6 0.4 0.3 0.2 0.8 0.2 1.1 0s0.5-0.5 0.7-0.7c0.3-0.3 0.3-0.7 0-1.1-0.1-0.2-0.2-0.4-0.4-0.6v-0.2c0.1-0.4 0.3-0.7 0.4-1.1 0-0.1 0.1-0.1 0.1-0.1 0.2-0.1 0.4-0.2 0.7-0.2 0.6 0 0.9-0.4 0.9-0.9v-0.4z"/>
<path d="m8 5.5c1.4 0 2.5 1.1 2.5 2.5s-1.1 2.5-2.5 2.5-2.5-1.1-2.5-2.5 1.1-2.5 2.5-2.5zm0 1c-0.8 0-1.5 0.7-1.5 1.5s0.7 1.5 1.5 1.5 1.5-0.7 1.5-1.5-0.7-1.5-1.5-1.5z"/>
</svg>