<svg xmlns="http://www.w3.org/2000/svg" width="26" height="26" viewBox="0 0 26 26">
    <path fill="#1EA1F2" fill-rule="nonzero" d="M23.376 8.085a7.817 7.817 0 0 1-2.247.616 3.926 3.926 0 0 0 1.72-2.165 7.832 7.832 0 0 1-2.484.95 3.913 3.913 0 0 0-6.668 3.569A11.109 11.109 0 0 1 5.63 6.966a3.911 3.911 0 0 0 1.21 5.224 3.894 3.894 0 0 1-1.771-.49v.05a3.916 3.916 0 0 0 3.139 3.837 3.92 3.92 0 0 1-1.768.067 3.917 3.917 0 0 0 3.656 2.717 7.85 7.85 0 0 1-4.86 1.676c-.316 0-.627-.019-.933-.055a11.075 11.075 0 0 0 5.998 1.758c7.197 0 11.133-5.962 11.133-11.133 0-.17-.004-.339-.011-.507a7.947 7.947 0 0 0 1.952-2.025z"/>
</svg>
