<svg xmlns="http://www.w3.org/2000/svg" width="28" height="28" viewBox="0 0 28 28">
    <g fill="none" fill-rule="evenodd">
        <circle cx="14" cy="14" r="14" fill="#2A666C"/>
        <path fill="#FFF" fill-rule="nonzero" d="M5.283 13.713l3.686 1.383 1.427 4.612c.092.295.451.404.69.208l2.055-1.683a.61.61 0 0 1 .747-.021l3.707 2.704a.434.434 0 0 0 .68-.264l2.716-13.126a.435.435 0 0 0-.582-.496l-15.13 5.866a.438.438 0 0 0 .004.817zm4.883.647l7.206-4.46c.13-.08.262.096.151.2l-5.946 5.555a1.24 1.24 0 0 0-.382.74l-.203 1.51c-.027.2-.308.22-.364.026L9.85 15.18a.73.73 0 0 1 .317-.82z"/>
    </g>
</svg>
