<svg xmlns="http://www.w3.org/2000/svg" width="28" height="28" viewBox="0 0 28 28">
    <g fill="none" fill-rule="nonzero">
        <circle cx="14" cy="14" r="14" fill="#1EA1F2"/>
        <path fill="#FFF" d="M21.84 9.137a6.426 6.426 0 0 1-1.848.507 3.228 3.228 0 0 0 1.415-1.78 6.439 6.439 0 0 1-2.043.78 3.217 3.217 0 0 0-5.482 2.934 9.133 9.133 0 0 1-6.63-3.36 3.215 3.215 0 0 0 .995 4.295 3.202 3.202 0 0 1-1.457-.403v.04a3.219 3.219 0 0 0 2.58 3.155 3.223 3.223 0 0 1-1.452.055 3.22 3.22 0 0 0 3.005 2.234 6.453 6.453 0 0 1-4.763 1.332 9.104 9.104 0 0 0 4.931 1.445c5.917 0 9.153-4.901 9.153-9.153 0-.14-.003-.278-.01-.416a6.533 6.533 0 0 0 1.606-1.665z"/>
    </g>
</svg>
