<svg xmlns="http://www.w3.org/2000/svg" width="256" height="90" viewBox="0 0 256 90">
    <g fill="none" fill-rule="evenodd">
        <path fill="#FFF" d="M0 0h256v90H0z"/>
        <g fill-rule="nonzero">
            <g fill="#1D2085">
                <path d="M83.4 36.735L76.789 64h5.383l6.517-27.265zM107.578 36.735H90.86l-1.133 4.75h1.416c2.55.19 3.684 1.33 3.306 3.515l-4.533 19h5.572l5.383-22.515h5.572l1.134-4.75zM150.456 48.04h-6.328l1.51-6.555h11.429l1.039-4.75h-11.428c-3.4 0-5.478 1.52-6.234 4.56l-1.605 7.125c-.661 2.85.567 4.37 3.778 4.37h2.644c2.456.19 3.589 1.235 3.306 3.04l-.85 3.705h-11.334L135.344 64h11.05c3.59-.095 5.762-1.615 6.517-4.655l1.511-6.65c.567-3.04-.755-4.56-3.966-4.655M169.911 48.04h-6.328l1.511-6.555h11.428l1.04-4.75h-11.429c-3.4 0-5.477 1.52-6.233 4.56l-1.606 7.125c-.66 2.85.662 4.37 3.873 4.37h2.644c2.456.19 3.589 1.235 3.4 3.04l-.85 3.705h-11.333L154.988 64h10.956c3.59-.095 5.762-1.615 6.517-4.655l1.511-6.65c.567-3.04-.755-4.56-4.06-4.655M197.583 36.735h-11.805c-3.306.19-5.478 1.995-6.422 5.415l-3.873 17.48c-.66 2.945.661 4.37 3.967 4.37h12.089l.944-4.465h-11.9l1.511-6.745h11.24l1.038-4.845h-11.05l.756-3.42c.66-1.805 1.983-2.85 4.06-3.04H199.757c2.55.19 3.683 1.33 3.4 3.515L199 64h5.572l4.817-22.515h5.572l1.039-4.75h-18.417zM112.961 49.75c-.472-.19-.944-.475-1.417-.57L104.367 64h6.989l5.477-11.78c-.566-.475-1.227-.855-1.889-1.33a10.61 10.61 0 0 0-1.983-1.14"/>
                <path d="M131.472 26.095h-8.783l-9.917 20.52c-.283-.095-.472-.095-.755-.19-1.323-.285-2.361-.285-3.117-.285-.756 0-1.228.095-1.228.095s.472 0 1.134.19c.755.095 1.794.38 3.022.855.189.095.378.095.472.19l1.417.57a10.61 10.61 0 0 1 1.983 1.14c.661.38 1.228.855 1.889 1.33.094.095.094.095.189.095a10.63 10.63 0 0 1 1.889 1.71l.944.95c.283.285.567.665.85.95.283.38.567.665.756.95.283.38.472.665.755.95.19.38.472.665.661.95.19.38.378.665.567.95.189.285.378.665.567.95.189.285.377.57.472.855.283.57.567 1.14.755 1.615 0 0 .473 1.33.567 2.47h6.8l-1.889-37.81zM126.09 54.88c-.283-.285-.567-.665-.85-.95l-.945-.95c-.283-.285-.66-.57-1.038-.95-.378-.285-.756-.57-1.04-.855l-1.133-.855c-.755-.475-1.51-1.045-2.36-1.425-.095-.095-.19-.095-.284-.19l7.178-15.485.755 21.945-.283-.285zM73.389 26H55.35l-2.644 10.83c-2.456-.19-3.778 0-3.778 0 9.633.76 15.394 7.41 17.66 10.83 0 0 1.04 1.9.756 3.99l-1.322 6.08H54.783l3.684-15.295c-1.134-1.14-4.911-2.66-6.423-3.04L46 63.905h18.889c4.439-.285 7.178-2.375 8.405-6.27l1.606-6.46c.567-2.375.094-4.275-1.511-5.605 2.833-1.33 3.872-3.99 4.533-6.84l1.417-5.89c.944-4.37-1.039-6.745-5.95-6.84M59.506 38.445l1.416-5.89h5.95c3.022.285 4.534 1.52 4.345 3.8l-1.89 7.315c-3.588-2.565-6.894-4.18-9.821-5.225"/>
            </g>
            <g fill="#E3004A">
                <path d="M110.522 47.3c0 1.1-.956 2.1-2.007 2.1-1.147 0-2.008-.9-2.008-2.1 0-1.2.956-2.1 2.008-2.1 1.051 0 2.007.9 2.007 2.1M50.875 37.4c0 1.2-.86 2.1-2.103 2.1-1.147 0-1.912-.9-1.912-2.1 0-1.2.86-2.1 2.103-2.1 1.147 0 1.912 1 1.912 2.1"/>
            </g>
        </g>
    </g>
</svg>
