<svg xmlns="http://www.w3.org/2000/svg" xmlns:xlink="http://www.w3.org/1999/xlink" viewBox="0 0 190 90"><defs><style>.a{fill-rule:evenodd;fill:url(#a);}.b{fill:#fff;}</style><linearGradient id="a" x1="82.52" y1="57.01" x2="83.66" y2="56.72" gradientTransform="matrix(190, 0, 0, -90, -15687, 5163)" gradientUnits="userSpaceOnUse"><stop offset="0" stop-color="#ffb10d"/><stop offset="1" stop-color="#f30071"/></linearGradient></defs><title>hkcnews</title><path class="a" d="M0,0H190V90H0Z"/><path class="b" d="M121.24,32.41l1.17-.7A6.39,6.39,0,0,0,124,34.4a11.74,11.74,0,0,1-.92,1A7.78,7.78,0,0,1,121.24,32.41Zm-1.44-2.54c-.36,3.3-2.24,4.36-2.24,4.36s.44.68.8,1.16a6.9,6.9,0,0,0,2.88-5.13ZM113,32.43a8.76,8.76,0,0,0,1.75,3l1-1.12a5.78,5.78,0,0,1-1.56-2.56A4.5,4.5,0,0,1,113,32.43Z"/><path class="b" d="M110.19,34.23a9,9,0,0,0,.81,1.16,7.13,7.13,0,0,0,2.87-5.13,7,7,0,0,0-1.34-.39C112.26,32.1,111.27,33.65,110.19,34.23Z"/><path class="b" d="M123.08,28.69a9.9,9.9,0,0,0-.47-1.58,49.61,49.61,0,0,1-12.42,1.19s.09.89.19,1.48a48.82,48.82,0,0,0,5.41,0v6.53h1.59V29.58a27.09,27.09,0,0,0,5.7-.89Zm-12-6.19.1,4.61h11.68l.19-4.61Zm3.52,3.18h-2.09V23.94h2.09v1.74Zm3.51,0h-2.09V23.94h2.09v1.74Zm3.51,0h-2.08V23.94h2.08v1.74ZM66,61.48l2.21,8c.87-.29,18.28-6.23,36.46-2.24V58.75A78.3,78.3,0,0,0,66,61.48"/><path class="b" d="M92.7,36.91a81.71,81.71,0,0,0,21.8,32.55l5.82-6c-.68-.58-14.54-12.82-20.26-30.8L92.7,36.91"/><path class="b" d="M72.44,54.07c1.38.79,7.47,4.34,7.47,4.34A83.41,83.41,0,0,0,97.3,22.73l-8.15-2.07C89,21.55,85.22,40,72.44,54.07"/></svg>