<svg xmlns="http://www.w3.org/2000/svg" xmlns:xlink="http://www.w3.org/1999/xlink" viewBox="0 0 190 90"><defs><style>.a{fill:#fff;}.a,.b,.c,.f{fill-rule:evenodd;}.b{fill:#f29100;}.c{fill:#e95a0c;}.d{mask:url(#a);}.e{mask:url(#b);}.f{fill:#e20714;}.g{mask:url(#c);}</style><mask id="a" x="114.28" y="64.37" width="23.76" height="17.4" maskUnits="userSpaceOnUse"><path class="a" d="M114.28,64.37H138v17.4H114.28Z"/></mask><mask id="b" x="51" y="46.09" width="3.54" height="3.53" maskUnits="userSpaceOnUse"><path class="a" d="M51,46.09h3.54v3.54H51Z"/></mask><mask id="c" x="51" y="13.34" width="87.03" height="68.44" maskUnits="userSpaceOnUse"><path class="a" d="M51,81.77h87V13.34H51Z"/></mask></defs><title>inmedia</title><path class="a" d="M0,0H190V90H0Z"/><path class="b" d="M51,60.81v3.56h73.35l-10.07,17.4L138,64.37V60.81Z"/><path class="b" d="M51,43.53v1.89a2.92,2.92,0,0,1,4.62,1.67H88.28a2.92,2.92,0,0,1,5.64,0H138V43.53Z"/><path class="c" d="M89.64,50.28v7.86H92.5V50.32a2.82,2.82,0,0,1-2.86,0m-38.23.06v7.8h2.85V50.26a2.79,2.79,0,0,1-2.86.08m9.88-.24a2.06,2.06,0,0,0-1.16-.3,2,2,0,0,0-1,.23,1.92,1.92,0,0,0-.74.68l.06-.76H55.6v8.19h2.78V52.59a4.73,4.73,0,0,1,.08-1.14.34.34,0,0,1,.36-.21q.27,0,.33.18a5,5,0,0,1,.06,1v5.68H62V52.4a6.73,6.73,0,0,0-.13-1.54,1.38,1.38,0,0,0-.58-.76m11.18,0a2,2,0,0,0-1.17-.31,2.14,2.14,0,0,0-1,.23,2.41,2.41,0,0,0-.79.7,2,2,0,0,0-1.74-.93,2.25,2.25,0,0,0-1,.23,2.22,2.22,0,0,0-.76.7l0-.78H63.32v8.19H66V52.45c0-.39,0-.65,0-.77a.46.46,0,0,1,.15-.31.4.4,0,0,1,.31-.13.34.34,0,0,1,.37.24,9.44,9.44,0,0,1,.06,1.45v5.21h2.68V52.79a5.3,5.3,0,0,1,.09-1.3.35.35,0,0,1,.38-.25.36.36,0,0,1,.38.25,6.25,6.25,0,0,1,.08,1.3v5.35h2.67V52.32a5.67,5.67,0,0,0-.13-1.46,1.29,1.29,0,0,0-.59-.75M78,52.86h-.8v-.6a3.27,3.27,0,0,1,.07-.86c.05-.11.16-.16.35-.16a.29.29,0,0,1,.31.19,2.84,2.84,0,0,1,.07.83Zm1.42-2.66a4.68,4.68,0,0,0-3.62-.07,2.09,2.09,0,0,0-1,.95,3.67,3.67,0,0,0-.33,1.7v2.39a4.91,4.91,0,0,0,.15,1.39,2.1,2.1,0,0,0,.52.88,2.48,2.48,0,0,0,1,.63,4.91,4.91,0,0,0,1.55.23,4.32,4.32,0,0,0,1.51-.23,2.45,2.45,0,0,0,1-.7,2.22,2.22,0,0,0,.5-.86,5,5,0,0,0,.1-1.16v-.61H78.13v1.08a2.07,2.07,0,0,1-.11.82.42.42,0,0,1-.42.21.36.36,0,0,1-.34-.16,1.77,1.77,0,0,1-.08-.71V54.2h3.58V53.11a4.54,4.54,0,0,0-.31-1.85A2.27,2.27,0,0,0,79.39,50.2Zm6.14,5.61a2.5,2.5,0,0,1-.09.87.35.35,0,0,1-.35.18.33.33,0,0,1-.31-.16A1.84,1.84,0,0,1,84.7,56V52a1.34,1.34,0,0,1,.09-.62.34.34,0,0,1,.32-.14.33.33,0,0,1,.33.15,1.4,1.4,0,0,1,.09.61Zm0-5.34a2.31,2.31,0,0,0-.78-.5,2.34,2.34,0,0,0-.94-.17,2.11,2.11,0,0,0-1.14.3,1.32,1.32,0,0,0-.61.69,4.65,4.65,0,0,0-.14,1.35V56a4.42,4.42,0,0,0,.14,1.31,1.34,1.34,0,0,0,.6.71,2,2,0,0,0,1.12.31,2.35,2.35,0,0,0,.91-.19,2.74,2.74,0,0,0,.84-.56v.59h2.78v-10H85.53Zm11.66,5.47a2.25,2.25,0,0,1-.08.77c0,.1-.17.14-.34.14a.39.39,0,0,1-.37-.18,2.37,2.37,0,0,1-.09-.83,2.72,2.72,0,0,1,.11-.86,2,2,0,0,1,.77-.74ZM99,50.24a4.18,4.18,0,0,0-2.13-.44,4.11,4.11,0,0,0-1.91.39,2.16,2.16,0,0,0-1,.91,3.44,3.44,0,0,0-.25,1.47v.55h2.6v-.86a3.32,3.32,0,0,1,.07-.86c.05-.1.16-.16.35-.16a.37.37,0,0,1,.35.2,2.09,2.09,0,0,1,.11.84,1.47,1.47,0,0,1-.1.68,4.67,4.67,0,0,1-1.46.65,4.88,4.88,0,0,0-1.6.78,1.84,1.84,0,0,0-.32,1.25v.68c0,.83.2,1.36.61,1.61a2.59,2.59,0,0,0,1.33.37,2.06,2.06,0,0,0,1-.22,1.74,1.74,0,0,0,.66-.66v.72H100V54a16.54,16.54,0,0,0-.14-2.69,1.81,1.81,0,0,0-.86-1.1Zm8-.11a2.22,2.22,0,0,0-1.23-.33,2.6,2.6,0,0,0-.89.15,2.37,2.37,0,0,0-.77.44V48.15h-2.78v10h2.78V52.28a2.49,2.49,0,0,1,.09-.83.32.32,0,0,1,.33-.21.34.34,0,0,1,.35.2,3.39,3.39,0,0,1,.08.92v5.78h2.78V52.49a7.84,7.84,0,0,0-.11-1.59,1.38,1.38,0,0,0-.63-.77m22.44,2.13a3.46,3.46,0,0,1,.06-.86c.05-.11.17-.16.35-.16a.29.29,0,0,1,.31.19,2.84,2.84,0,0,1,.07.83v.6h-.8Zm-2.12,5.18a2.42,2.42,0,0,0,1,.63,4.91,4.91,0,0,0,1.55.23,4.32,4.32,0,0,0,1.51-.23,2.53,2.53,0,0,0,1-.69,2.32,2.32,0,0,0,.5-.87,5,5,0,0,0,.1-1.16v-.61h-2.62v1.08a2.07,2.07,0,0,1-.11.82.42.42,0,0,1-.42.21.33.33,0,0,1-.33-.16,1.71,1.71,0,0,1-.09-.71V54.2H133V53.11a4.54,4.54,0,0,0-.31-1.85,2.27,2.27,0,0,0-1.06-1.06,4.68,4.68,0,0,0-3.62-.07,2.13,2.13,0,0,0-1,.95,3.67,3.67,0,0,0-.33,1.7v2.39a4.91,4.91,0,0,0,.15,1.39,2.21,2.21,0,0,0,.52.88Zm7.09-1.83a9.21,9.21,0,0,0,.08,1.55,1.08,1.08,0,0,0,.38.58,1.55,1.55,0,0,0,.71.33,8.55,8.55,0,0,0,1.35.07H138V56.83a1.59,1.59,0,0,1-.75-.09,2.28,2.28,0,0,1-.09-.91V51.45h.72V50.16h-.72V48.84h-2.79v1.32h-.59v1.29h.59v4.16Zm-19.62,1.44a2.25,2.25,0,0,1,.07-.52l-1-3.32L115,50h-2.31l-.87,2.39,0-4.19H109v10h2.78l0-3.57.87,3.57H115a2.12,2.12,0,0,1-.31-1.09m7-4.46a5.09,5.09,0,0,1,.07-1.14.34.34,0,0,1,.36-.21c.18,0,.29.06.33.19a4.82,4.82,0,0,1,.06,1v5.68h2.78V52.4a6.88,6.88,0,0,0-.12-1.54,1.35,1.35,0,0,0-.59-.76,2.34,2.34,0,0,0-2.16-.07,1.89,1.89,0,0,0-.73.68l0-.76H119v6.59a2.16,2.16,0,0,1,.07.51,2.24,2.24,0,0,1-.07.51v.58h2.78V52.59Z"/><g class="d"><path class="c" d="M124.35,64.37l-10.07,17.4L138,64.37Z"/></g><g class="e"><path class="f" d="M52.77,46.09a1.79,1.79,0,0,0-1.3.58A1.75,1.75,0,0,0,51,47.86,1.72,1.72,0,0,0,51.41,49a1.57,1.57,0,0,0,.58.47,1.7,1.7,0,0,0,1.56,0,1.79,1.79,0,0,0,1-1.58,1.75,1.75,0,0,0-.48-1.19,1.73,1.73,0,0,0-1.29-.58"/></g><path class="f" d="M91.1,46.09a1.78,1.78,0,0,0-1.29.57,1.75,1.75,0,0,0,.08,2.48,1.84,1.84,0,0,0,.43.3,1.7,1.7,0,0,0,1.56,0,1.79,1.79,0,0,0,1-1.58,1.79,1.79,0,0,0-1.77-1.77m25.79,9.61A1.35,1.35,0,1,0,118.2,57a1.36,1.36,0,0,0-1.31-1.31M62.52,29.91H60.47a6.11,6.11,0,0,0,1-1.19h1.09Zm-1.33,3.41h1.33V31.61H61.19Zm-.11-9.78h1.28V21.63H61.08ZM64.9,35h.73l.65,1.1-.58.09-.8.09Zm0-1.7h1.38V31.61H64.9Zm0-4.6h4.44c0,1.71,0,3.12,0,4.22,0,1.44-.08,2.87-.18,4.3-.47-.66-1-1.4-1.64-2.22h1V29.91H64.9V28.72Zm-.6-5.18h1.4V21.63H64.3v1.91Zm3.33,0h1.5V21.61h-1.5Zm-4.38,2h8.42V19.6H58.51v5.9h2a7.38,7.38,0,0,1-2.71,3.31A16.18,16.18,0,0,0,57,23.87a8.62,8.62,0,0,0,1.52-2.5L56.34,20a5.62,5.62,0,0,1-.89,1.63,6.74,6.74,0,0,0-2.44-2l-1.64,1.75a7.83,7.83,0,0,1,2.36,2.19,10.84,10.84,0,0,1-2.68,2.08l1.7,2.17a18.53,18.53,0,0,0,2.12-1.87,6.77,6.77,0,0,1,.24,1.79,11.64,11.64,0,0,1-1.61,2.55,12.35,12.35,0,0,1-2.5,2.4l1.82,2.26a14.12,14.12,0,0,0,1.68-1.84,6.21,6.21,0,0,0,1-1.38v.52a26.63,26.63,0,0,1-.21,4.27,1.18,1.18,0,0,1-1.29,1,11,11,0,0,1-2-.21l.61,3c.35,0,.75.05,1.19.05,1.66,0,2.78-.4,3.36-1.19s.81-2.79.81-6c0-1.26,0-2.37,0-3.33l1.16,1.37V35h3.45v1.52c-1.15.11-2.68.2-4.59.28l.44,2.42a77.41,77.41,0,0,0,9-1.42l.3.58-1-.07.51,2.06c.31,0,.65,0,1,0,1.58,0,2.58-.4,3-1.21s.65-5,.73-12.74H62.78a9.57,9.57,0,0,0,.47-1Z"/><g class="g"><path class="f" d="M107,27.69h4.38V26.27H107Zm0-3.54h4.38V22.94H107Zm-7.91,8.51a14.7,14.7,0,0,0-1.21-.86A48.44,48.44,0,0,0,99,25.88h1.34A23.86,23.86,0,0,1,99.09,32.66Zm14,.77H116V31.1h-5.25V30h3.59v-7h1.59V20.67H114.3v-1.4h-2.92v1.4H107v-1.4h-2.89v1.4h-1.36v2.27h1.36v7h3.75V31.1h-5.32v2.33h3a5.83,5.83,0,0,1-3,3.5l.65-1.12c-.7-.6-1.3-1.09-1.79-1.44A36.13,36.13,0,0,0,103,23.22H99.49c.11-1,.22-2.21.35-3.74l-2.76-.09a37.79,37.79,0,0,1-.32,3.83h-2v2.66h1.61a35.85,35.85,0,0,1-1.45,6.88A20.34,20.34,0,0,1,98,35.16a7.14,7.14,0,0,1-3.25,3.06l2.1,2.33a9.72,9.72,0,0,0,3.34-3.6,12.57,12.57,0,0,1,1.45,1.64l.72-1.21,1.49,2.4a9.76,9.76,0,0,0,2.57-2.73,8.63,8.63,0,0,0,1.49-3.48v7.17h2.85V33.57a11.09,11.09,0,0,0,3.85,6.28l1.63-2.71a5.94,5.94,0,0,1-3.1-3.71Zm6.12-4.29H123v-.86h-3.78Zm.72,3.08h2.33v-1h-2.33v1Zm0,2.75h2.33V34h-2.33v1Zm1.82-8.86h.77V24.55h-.77v1.56ZM119.53,22h3v.87h-2.36v3.24h-.63Zm5.67,9.19h12.69V28.91H125.37v-2.8h-.7V19.72h-7.28v6.39h-.56v3.94h.77V40.73h2.33v-4h2.33v.49c0,.49-.25.73-.77.73l-.88-.07.44,2.56h1.59c1.26,0,1.89-.81,1.89-2.42v-8h.67v1.14Z"/></g><g class="g"><path class="f" d="M128.84,34.88h5.46V33.74h-5.46Zm3.83,3.27h-2.06a10.2,10.2,0,0,0-.51-1.5h3.13A8,8,0,0,1,132.67,38.15Zm3.29-1.5H137V32H126.16v4.66h1.1a7.82,7.82,0,0,1,.56,1.5H125v2.28H138V38.14H135.4c.25-.62.43-1.12.56-1.49Zm-5.09-13.2h1.19V22.33h-1.19Zm2.89,2.8H135V25h-1.24Zm0-2.8H135V22.33h-1.24Zm-2.89,2.8h1.19V25h-1.19Zm-2.77-2.8h1.05V22.33H128.1Zm0,2.8h1.05V25H128.1Zm.48-7v1.19h-2.87v7.65h11.65V20.46H134.3V19.27h-2.36v1.19H131V19.27ZM51,16.9h87V13.34H51ZM89.48,32.05q1.29-2.67,1.89-4L87.5,26.54a87.25,87.25,0,0,1-3.78,9.55H73.23v3.18H93.69V36.09h-6.1c.46-.92,1.09-2.27,1.89-4"/></g><g class="g"><path class="f" d="M75.89,27.92c1.2,2.87,2.21,5.45,3,7.74l3.44-1.38Q80.89,30.67,79.68,28c-.22-.45-.42-.91-.61-1.37Zm5.85-8.34v3.26H73.91V26.2H93.09V22.84H85.44V19.58Z"/></g></svg>