<svg xmlns="http://www.w3.org/2000/svg" viewBox="0 0 190 90"><defs><style>.a{fill:#333;fill-rule:evenodd;}</style></defs><title>matters</title><path class="a" d="M36.5,58.42V35.2h5.6l6.29,17.69h.1L54.77,35.2h5.64V58.42h-4V42h-.13c-.2.72-.4,1.51-.76,2.49L50.35,58.42H46.59L41.45,44.5A19.35,19.35,0,0,1,40.69,42h-.13V58.42Zm35.78.49c-5.15,0-8.94-4.26-8.94-9.56s3.79-9.56,8.94-9.56a7.41,7.41,0,0,1,6.84,4.12h.13v-3.6h4V58.42h-4V54.88h-.13A7.28,7.28,0,0,1,72.28,58.91ZM95,40.31h3.26V35.2h4.09v5.11h2.88v3.83h-2.88V54.59h2.78v3.83H98.28V44.14H92.14V54.59h2.78v3.83H88V44.14H85.26V40.31H88V35.2h4.1v5.11ZM73.13,55.05a5.4,5.4,0,0,1-5.47-5.7,5.5,5.5,0,1,1,11,0A5.43,5.43,0,0,1,73.13,55.05Zm43.27,3.86a9.7,9.7,0,0,1-9.86-9.63,9.87,9.87,0,0,1,19.72.13,8.07,8.07,0,0,1-.13,1.31h-15.2a5.53,5.53,0,0,0,5.54,4.36,5.06,5.06,0,0,0,4.81-2.85h4.52A9.71,9.71,0,0,1,116.4,58.91ZM111,47.61h10.7c-.36-2.16-2.48-4-5.37-4S111.29,45.32,111,47.61Zm17.63,10.81V40.31h10.9v3.83h-6.77V58.42Zm18.19.49c-3.86,0-6.75-2.62-6.75-5.8h4.1c0,1.18,1.21,2,2.72,2s2.62-.78,2.62-2c0-1.51-1.61-1.83-3.25-2.26-3.4-.85-5.83-2.26-5.83-5.57,0-3.11,2.82-5.53,6.52-5.53s6.52,2.46,6.52,5.66l-4.1,0c0-1.21-1.14-1.9-2.42-1.9s-2.42.66-2.42,1.77c0,1.34,1.57,1.67,3.21,2.1,2.42.62,5.76,1.44,5.76,5.69C153.5,56.32,150.49,58.91,146.82,58.91Z"/></svg>